<?xml version="1.0" encoding="utf-8"?>
<!-- Generator: Adobe Illustrator 16.0.3, SVG Export Plug-In . SVG Version: 6.00 Build 0)  -->
<!DOCTYPE svg PUBLIC "-//W3C//DTD SVG 1.1//EN" "http://www.w3.org/Graphics/SVG/1.1/DTD/svg11.dtd">
<svg version="1.1" id="Layer_1" xmlns="http://www.w3.org/2000/svg" xmlns:xlink="http://www.w3.org/1999/xlink" x="0px" y="0px"
	 width="175.909px" height="41.875px" viewBox="4.702 6.054 175.909 41.875" enable-background="new 4.702 6.054 175.909 41.875"
	 xml:space="preserve">
<title>Adobe</title>
<g>
	<path fill="#FFFFFF" d="M4.702,7.236h45.615v40.212H4.702V7.236z"/>
	<path fill="#FE0000" d="M33.455,7.236l16.862,40.212V7.236H33.455z M4.702,7.236v40.212L21.576,7.236H4.702z M20.142,39.359h7.863
		l3.213,8.089h7.04l-10.74-25.392L20.142,39.359L20.142,39.359z"/>
	<path d="M74.397,7.13l-9.129,40.32h5.526l2.402-11.127h8.407l2.343,11.126h5.585L80.943,7.131L74.397,7.13L74.397,7.13z
		 M73.857,31.836l1.921-9.63c0.54-2.573,1.141-6.282,1.562-9.213h0.24c0.42,2.872,0.96,6.46,1.501,9.212l1.862,9.63L73.857,31.836
		L73.857,31.836z M110.618,6.054h-5.646v15.134h-0.119c-1.021-2.213-2.883-3.29-5.226-3.29c-4.623,0-9.008,4.843-9.008,15.134
		c0,9.032,3.303,14.895,8.708,14.895c2.939,0,5.164-1.974,6.124-4.01h0.182l0.359,3.53h4.862c-0.119-2.034-0.239-5.264-0.239-7.477
		l0.004-33.917H110.618z M104.973,37.221c0,0.657-0.061,1.377-0.18,1.853c-0.961,3.469-2.645,4.129-3.904,4.129
		c-3.002,0-4.563-4.187-4.563-10.169c0-5.384,1.2-10.29,4.743-10.29c2.041,0,3.543,2.274,3.844,4.906
		c0.061,0.6,0.061,1.257,0.061,1.796V37.221z M124.363,17.898c-5.344,0-10.328,4.487-10.328,15.075
		c0,9.991,4.203,14.955,10.029,14.955h0.063c4.443,0,10.148-3.529,10.148-15.074C134.273,23.044,130.129,17.898,124.363,17.898
		L124.363,17.898z M124.245,43.5h-0.062c-3.662,0-4.504-5.743-4.504-10.588c0-4.367,0.721-10.588,4.443-10.588
		c3.604,0,4.384,6.221,4.384,10.588C128.509,37.34,127.727,43.5,124.245,43.5z M149.564,17.898c-2.58,0-4.623,1.136-6.125,3.768
		h-0.119V6.054h-5.646v33.918c0,2.213-0.12,5.504-0.239,7.477h4.863l0.301-3.648h0.239c1.263,2.573,2.884,4.129,5.765,4.129
		c4.806,0,9.07-5.087,9.07-15.494C157.672,23.521,154.549,17.898,149.564,17.898L149.564,17.898z M147.343,43.202
		c-1.142,0-2.883-0.72-3.782-4.247c-0.181-0.479-0.24-1.139-0.24-1.796v-8.134c0-0.601,0.061-1.377,0.181-1.975
		c0.42-2.094,1.922-4.308,3.782-4.308c3.363,0,4.686,4.487,4.686,10.05C151.967,38.775,150.705,43.202,147.343,43.202
		L147.343,43.202z M170.926,17.898c-6.066,0-10.449,5.862-10.449,15.372c0,8.975,3.846,14.479,11.17,14.479
		c2.582,0,5.226-0.479,6.967-1.375l-0.842-4.068c-1.262,0.6-3.002,1.075-5.043,1.075c-3.424,0-6.666-1.853-6.728-9.33l13.692,0.06
		c0.061-0.776,0.119-1.674,0.119-3.109C179.813,23.7,176.991,17.898,170.926,17.898L170.926,17.898z M166.061,30.041
		c0.182-3.65,1.502-7.897,4.443-7.897c2.223,0,4.025,2.752,3.964,7.897H166.061z M179.566,19.162v-0.01
		c0.154-0.047,0.281-0.162,0.281-0.353c0-0.138-0.046-0.235-0.133-0.299c-0.086-0.063-0.23-0.109-0.449-0.109
		c-0.174,0-0.289,0.018-0.41,0.034v1.444h0.23v-0.621h0.161c0.187,0,0.276,0.069,0.313,0.253c0.027,0.19,0.063,0.322,0.1,0.368h0.24
		c-0.049-0.114-0.08-0.233-0.092-0.356C179.777,19.3,179.693,19.185,179.566,19.162L179.566,19.162z M179.254,19.069h-0.167v-0.488
		c0.04-0.005,0.093-0.011,0.167-0.011c0.26,0,0.354,0.125,0.354,0.252C179.605,19.002,179.445,19.069,179.254,19.069z
		 M179.335,17.822h-0.006c-0.71,0-1.287,0.575-1.287,1.294c0,0.73,0.578,1.3,1.287,1.3c0.716,0,1.282-0.569,1.282-1.3
		C180.611,18.397,180.045,17.822,179.335,17.822z M179.335,20.214c-0.577,0-1.045-0.482-1.045-1.098c0-0.603,0.468-1.093,1.04-1.093
		h0.005c0.577,0,1.038,0.489,1.038,1.1C180.373,19.73,179.912,20.22,179.335,20.214z M52.541,7.236h-0.006
		c-0.711,0-1.287,0.576-1.287,1.294c0,0.729,0.576,1.299,1.287,1.299c0.715,0,1.28-0.569,1.28-1.3
		c0.009-0.705-0.556-1.284-1.261-1.292C52.55,7.236,52.545,7.236,52.541,7.236z M52.541,9.628c-0.578,0-1.044-0.482-1.044-1.098
		c0-0.604,0.467-1.093,1.039-1.093h0.006c0.577,0,1.039,0.488,1.039,1.098C53.579,9.145,53.117,9.635,52.541,9.628z M52.771,8.576
		V8.564c0.156-0.045,0.283-0.161,0.283-0.35c0-0.14-0.046-0.237-0.132-0.3s-0.231-0.108-0.45-0.108c-0.173,0-0.289,0.017-0.41,0.035
		v1.441h0.231v-0.62h0.162c0.185,0,0.276,0.069,0.312,0.253c0.028,0.19,0.063,0.321,0.098,0.368h0.243
		c-0.023-0.046-0.058-0.132-0.093-0.356C52.985,8.714,52.899,8.599,52.771,8.576L52.771,8.576z M52.46,8.484h-0.168V7.995
		c0.04-0.005,0.093-0.012,0.168-0.012c0.259,0,0.352,0.127,0.352,0.253C52.812,8.415,52.65,8.484,52.46,8.484z"/>
</g>
</svg>
