<?xml version="1.0" encoding="utf-8"?>
<!-- Generator: Adobe Illustrator 27.3.1, SVG Export Plug-In . SVG Version: 6.00 Build 0)  -->
<svg version="1.1" id="Layer_1" xmlns="http://www.w3.org/2000/svg" xmlns:xlink="http://www.w3.org/1999/xlink" x="0px" y="0px"
	 viewBox="0 0 607.3 167.6" style="enable-background:new 0 0 607.3 167.6;" xml:space="preserve">
<style type="text/css">
	.st0{fill:#0B5567;}
	.st1{fill:#15A9CE;}
</style>
<g>
	<g>
		<path class="st0" d="M318.9,54.5V42.3h19.9v58.4c0,7.1,1.7,9.8,6.1,9.8c1.2,0,2.7-0.2,4.1-0.3v16.1c-2.2,0.8-5.5,1.3-9.8,1.3
			c-4.8,0-8.6-0.8-11.6-2.7c-3.7-2.5-6-5.8-6.8-10.1c-5.8,8.8-15.4,13.1-28.7,13.1c-11.8,0-21.7-4.1-29.9-12.6
			c-8-8.5-12-18.8-12-31.2s4-22.7,12-31c8.1-8.5,18.1-12.6,29.9-12.6C305.7,40.5,315.8,46.5,318.9,54.5L318.9,54.5z M313,102.4
			c5-4.8,7.5-11,7.5-18.3S318,70.7,313,65.8c-4.8-4.8-11-7.3-18.1-7.3S282,61,277.1,65.8c-4.6,4.8-7,11-7,18.3s2.3,13.4,7,18.3
			c4.8,4.8,10.6,7.3,17.8,7.3C302,109.7,308.2,107.2,313,102.4z M357.8,126V10.3h19.8v67.6l30.9-35.5h22.8l-32.7,37.4l36.2,46.3
			h-22.6l-26.4-33.7l-8.3,9.3V126H357.8L357.8,126z M440.1,126V10.3h19.8v67.6l30.9-35.5h22.9L481,79.8l36.2,46.3h-22.6l-26.4-33.7
			l-8.3,9.3V126H440.1L440.1,126z M577.2,54.5V42.3h19.9v58.4c0,7.1,1.7,9.8,6.1,9.8c1.2,0,2.7-0.2,4.1-0.3v16.1
			c-2.2,0.8-5.5,1.3-9.8,1.3c-4.8,0-8.6-0.8-11.6-2.7c-3.7-2.5-6-5.8-6.8-10.1c-5.8,8.8-15.4,13.1-28.7,13.1
			c-11.8,0-21.7-4.1-29.9-12.6c-8-8.5-12-18.8-12-31.2s4-22.7,12-31c8.1-8.5,18.1-12.6,29.9-12.6C563.9,40.5,574,46.5,577.2,54.5
			L577.2,54.5z M571.2,102.4c5-4.8,7.5-11,7.5-18.3s-2.5-13.4-7.5-18.3c-4.8-4.8-11-7.3-18.1-7.3s-12.9,2.5-17.8,7.3
			c-4.6,4.8-7,11-7,18.3s2.3,13.4,7,18.3c4.8,4.8,10.6,7.3,17.8,7.3C560.2,109.7,566.4,107.2,571.2,102.4z"/>
	</g>
	<path class="st0" d="M199.6,161.8c35.9,28.7,58.9-57,1.7-72.8c-48-13.3-96.3,9.5-144.7,62.7C56.6,151.7,146,119,199.6,161.8z"/>
	<path class="st1" d="M57.4,151c34.4-35.7,91.6-75.5,144.9-60.8c12.4,3.5,21.2,10.7,26.9,19.3L178.8,7.8c-7.2-11.5-25.6-9.1-36-0.3
		L9.6,119.1C-2.5,129.5-3.2,148,8,159.2c9.9,9.9,25.6,10.8,36.5,2L57.4,151L57.4,151z"/>
</g>
</svg>
