<?xml version="1.0" encoding="utf-8"?>
<!-- Generator: Adobe Illustrator 16.0.3, SVG Export Plug-In . SVG Version: 6.00 Build 0)  -->
<!DOCTYPE svg PUBLIC "-//W3C//DTD SVG 1.1//EN" "http://www.w3.org/Graphics/SVG/1.1/DTD/svg11.dtd">
<svg version="1.1" id="Layer_1" xmlns="http://www.w3.org/2000/svg" xmlns:xlink="http://www.w3.org/1999/xlink" x="0px" y="0px"
	 width="256px" height="103.801px" viewBox="0 0.1 256 103.801" enable-background="new 0 0.1 256 103.801" xml:space="preserve">
<path fill="#6D6E71" d="M255.178,30.55c0.537,0.519,0.834,1.237,0.822,1.983c0.008,0.75-0.289,1.472-0.822,2
	c-0.55,0.567-1.214,0.83-1.996,0.83c-0.783,0-1.445-0.273-2-0.822c-0.532-0.521-0.827-1.238-0.815-1.983
	c-0.009-0.75,0.288-1.472,0.821-2c0.551-0.567,1.201-0.83,2-0.83C253.937,29.716,254.656,30.014,255.178,30.55L255.178,30.55z
	 M254.941,34.29c0.465-0.462,0.725-1.094,0.718-1.75c0.01-0.653-0.247-1.282-0.711-1.742c-0.456-0.473-1.089-0.735-1.746-0.722
	c-0.659-0.016-1.296,0.248-1.75,0.726c-0.469,0.46-0.728,1.093-0.716,1.75c0,0.683,0.238,1.264,0.709,1.746
	c0.453,0.475,1.086,0.736,1.742,0.722c0.699,0,1.27-0.244,1.752-0.73H254.941z M254.546,31.998c0,0.503-0.22,0.82-0.66,0.948
	l0.808,1.095h-0.653l-0.729-1.016h-0.668v1.016h-0.529V31h1.143c0.46,0,0.801,0.08,1,0.237c0.2,0.157,0.299,0.4,0.299,0.758
	L254.546,31.998z M253.866,32.425c0.108-0.086,0.157-0.233,0.157-0.43c0-0.197-0.053-0.338-0.162-0.417
	c-0.107-0.079-0.301-0.115-0.574-0.115h-0.646v1.095h0.629C253.57,32.558,253.762,32.511,253.866,32.425z M64.78,18.052v5.58h-0.718
	v-5.58h-2.04v-0.7h4.8v0.7h-2.05H64.78z M74.786,23.632V20.87h-3.778v2.762H70.3v-6.275h0.718v2.834h3.778v-2.834h0.718v6.275
	h-0.718H74.786z M80.504,18.052v2.062h3.164v0.7h-3.164v2.148h3.656v0.682h-4.375V17.37h4.26v0.7h-3.54L80.504,18.052z"/>
<path fill="#D22128" d="M56.55,66.632l14.988-35.83h2.877l14.988,35.83h-3.786L80.974,55.43H64.876l-4.594,11.202H56.55z
	 M73.004,34.94l-7.367,17.714h14.535l-7.17-17.714H73.004z M93.272,66.632v-35.83h14.837c6.156,0,10.6,5.704,10.6,11.253
	c0,5.854-4.138,11.353-10.294,11.353h-11.66v13.22H93.27L93.272,66.632z M96.756,50.279H108.2c4.238,0,6.964-3.886,6.964-8.225
	c0-4.493-3.33-8.124-7.266-8.124H96.756V50.279L96.756,50.279z M116.756,66.632l14.988-35.83h2.877l14.988,35.83h-3.786
	L141.17,55.43h-16.098l-4.594,11.202h-3.732H116.756z M133.2,34.94l-7.367,17.714h14.535L133.2,34.94z M166.557,30.597
	c6.357,0,11,3.23,13.221,7.823l-2.827,1.717c-2.271-4.745-6.714-6.357-10.601-6.357c-8.58,0-13.27,7.672-13.27,14.888
	c0,7.923,5.804,15.1,13.422,15.1c4.037,0,8.782-2.018,11.053-6.662l2.926,1.512c-2.319,5.348-8.68,8.326-14.18,8.326
	c-9.84,0-16.755-9.385-16.755-18.468c0.004-8.627,6.2-17.865,17-17.865L166.557,30.597z M213.672,30.802v35.83h-3.533V49.877
	h-21.246v16.755h-3.479v-35.83h3.479V46.75h21.246V30.802H213.672z M245.836,63.5v3.128h-24.07V30.802h23.62v3.128H225.25v12.92
	h17.563v2.977H225.25v13.677h20.587L245.836,63.5z"/>
<path fill="#6D6E71" d="M59.895,74.218c0.424,0.126,0.797,0.298,1.113,0.5l-0.37,0.812c-0.323-0.215-0.668-0.373-1.038-0.479
	s-0.718-0.157-1.05-0.157c-0.488,0-0.88,0.086-1.17,0.262s-0.438,0.424-0.438,0.742c0,0.273,0.083,0.504,0.244,0.683
	c0.169,0.185,0.377,0.328,0.61,0.42c0.244,0.101,0.578,0.215,1.006,0.345l1.246,0.463c0.317,0.145,0.595,0.363,0.808,0.639
	c0.223,0.281,0.334,0.654,0.334,1.113c0,0.42-0.115,0.783-0.34,1.101s-0.55,0.557-0.963,0.729c-0.413,0.174-0.894,0.26-1.437,0.26
	c-0.541,0.001-1.077-0.105-1.577-0.312c-0.484-0.2-0.929-0.485-1.315-0.84l0.384-0.776c0.344,0.338,0.75,0.605,1.196,0.787
	c0.453,0.188,0.9,0.28,1.322,0.28c0.55,0,0.98-0.108,1.297-0.32c0.317-0.212,0.474-0.5,0.474-0.858c0-0.279-0.083-0.514-0.248-0.696
	s-0.37-0.323-0.614-0.427c-0.33-0.131-0.666-0.246-1.006-0.346c-0.423-0.12-0.838-0.267-1.243-0.438
	c-0.318-0.139-0.596-0.355-0.808-0.629c-0.22-0.277-0.33-0.643-0.33-1.1c-0.007-0.369,0.106-0.729,0.323-1.027
	c0.216-0.295,0.524-0.524,0.92-0.687c0.396-0.161,0.855-0.243,1.372-0.243c0.442,0,0.87,0.067,1.297,0.193L59.895,74.218z
	 M71.12,74.55c0.603,0.339,1.085,0.8,1.437,1.38c0.352,0.576,0.537,1.239,0.532,1.914c0.006,0.68-0.178,1.346-0.532,1.926
	c-0.351,0.578-0.846,1.056-1.437,1.385c-0.605,0.343-1.289,0.52-1.983,0.515c-0.701,0.009-1.391-0.169-2.001-0.515
	c-0.603-0.34-1.085-0.805-1.437-1.385c-0.352-0.582-0.532-1.226-0.532-1.926c-0.007-0.678,0.178-1.344,0.532-1.922
	c0.348-0.578,0.844-1.053,1.437-1.376c0.604-0.334,1.27-0.503,2-0.503C69.851,74.043,70.512,74.208,71.12,74.55L71.12,74.55z
	 M67.593,75.266c-0.462,0.258-0.85,0.629-1.128,1.08c-0.28,0.453-0.424,0.952-0.424,1.498c0,0.547,0.14,1.053,0.424,1.508
	c0.565,0.932,1.58,1.496,2.669,1.483c0.557,0,1.067-0.133,1.534-0.399c0.46-0.26,0.845-0.633,1.117-1.086
	c0.277-0.455,0.417-0.959,0.417-1.508c0.004-0.529-0.14-1.05-0.417-1.501c-0.273-0.449-0.658-0.82-1.117-1.077
	c-0.465-0.268-0.994-0.406-1.53-0.402c-0.542-0.005-1.074,0.134-1.544,0.402L67.593,75.266z M78.533,74.893v2.658h3.534v0.833
	h-3.534v3.24h-0.866v-7.563h4.806v0.832H78.533z M89.501,74.893v6.73h-0.866v-6.73h-2.457v-0.832h5.797v0.832H89.501L89.501,74.893z
	 M103.146,81.623l-2.04-6.372l-2.07,6.372h-0.88l-2.532-7.564h0.93l2.08,6.563l2.05-6.551l0.866-0.01l2.072,6.563l2.05-6.563h0.898
	l-2.536,7.564h-0.9L103.146,81.623z M110.886,79.723l-0.844,1.9h-0.92l3.4-7.564h0.898l3.38,7.564h-0.937l-0.844-1.9h-4.123H110.886
	z M112.94,75.053l-1.684,3.836h3.4l-1.706-3.836H112.94z M124.3,79.223l-0.506,0.022h-2v2.399h-0.862v-7.584h2.873
	c0.94,0,1.674,0.223,2.198,0.664c0.524,0.44,0.783,1.069,0.783,1.879c0,0.619-0.147,1.141-0.438,1.556s-0.7,0.718-1.257,0.897
	l1.767,2.568h-0.98l-1.566-2.4L124.3,79.223z M125.385,77.963c0.37-0.302,0.557-0.747,0.557-1.33c0-0.57-0.187-1.002-0.557-1.293
	c-0.37-0.291-0.902-0.438-1.6-0.438h-2v3.513h2C124.485,78.415,125.005,78.266,125.385,77.963L125.385,77.963z M132.462,74.902
	v2.486h3.813v0.832h-3.813v2.6h4.399v0.824h-5.275v-7.584h5.132v0.832h-4.267L132.462,74.902z M148.947,74.893v2.658h3.533v0.833
	h-3.533v3.24h-0.866v-7.563h4.806v0.832H148.947z M162.462,74.55c0.603,0.339,1.085,0.8,1.437,1.38
	c0.354,0.576,0.537,1.239,0.533,1.914c0.006,0.68-0.179,1.346-0.533,1.926c-0.351,0.578-0.846,1.056-1.437,1.385
	c-0.604,0.343-1.288,0.52-1.983,0.515c-0.7,0.009-1.391-0.169-2-0.515c-0.604-0.34-1.086-0.805-1.438-1.385
	c-0.352-0.582-0.532-1.226-0.532-1.926c-0.007-0.678,0.178-1.344,0.532-1.922c0.348-0.578,0.844-1.053,1.438-1.376
	c0.604-0.334,1.27-0.503,2-0.503C161.195,74.043,161.857,74.208,162.462,74.55L162.462,74.55z M158.939,75.266
	c-0.463,0.258-0.852,0.629-1.129,1.08c-0.279,0.453-0.424,0.952-0.424,1.498c0,0.547,0.141,1.053,0.424,1.508
	c0.565,0.932,1.58,1.496,2.67,1.483c0.557,0,1.066-0.133,1.533-0.399c0.461-0.26,0.846-0.633,1.117-1.086
	c0.277-0.455,0.417-0.959,0.417-1.508c0.005-0.529-0.14-1.05-0.417-1.501c-0.273-0.449-0.658-0.82-1.117-1.077
	c-0.465-0.268-0.993-0.406-1.529-0.402c-0.541-0.006-1.074,0.133-1.545,0.402V75.266z M174.365,80.83
	c-0.564,0.557-1.34,0.837-2.327,0.837c-0.995,0-1.774-0.28-2.338-0.837s-0.849-1.33-0.849-2.32v-4.453h0.866V78.5
	c0,0.73,0.208,1.297,0.62,1.706s0.98,0.614,1.7,0.614s1.286-0.205,1.692-0.601c0.406-0.395,0.6-0.977,0.6-1.713v-4.454h0.865v4.454
	c0.005,0.995-0.276,1.767-0.84,2.324L174.365,80.83z M185.67,81.624l-4.536-6.074v6.074h-0.866v-7.563h0.898l4.536,6.08v-6.08h0.854
	v7.563H185.67z M196.766,74.561c0.601,0.334,1.057,0.787,1.397,1.359c0.344,0.582,0.521,1.246,0.515,1.922
	c0,0.704-0.173,1.35-0.515,1.926c-0.339,0.572-0.827,1.043-1.412,1.359c-0.601,0.33-1.265,0.496-1.993,0.496h-3.027v-7.563h3.06
	C195.52,74.061,196.176,74.225,196.766,74.561L196.766,74.561z M192.596,80.802h2.205c0.557,0,1.063-0.126,1.52-0.38
	c0.457-0.254,0.82-0.607,1.086-1.061c0.265-0.452,0.4-0.951,0.4-1.508c0.006-0.529-0.135-1.051-0.406-1.504
	c-0.271-0.451-0.637-0.801-1.101-1.063c-0.467-0.262-0.995-0.396-1.53-0.392h-2.172v5.908L192.596,80.802z M203.598,79.702
	l-0.844,1.899h-0.92l3.4-7.563h0.897l3.38,7.563h-0.934l-0.844-1.899h-4.127H203.598z M205.652,75.031l-1.685,3.837h3.4
	l-1.706-3.837H205.652z M215.177,74.882v6.729h-0.862v-6.729h-2.457v-0.833h5.797v0.833H215.177z M221.816,81.611v-7.551h0.867
	v7.563h-0.867V81.611z M233.232,74.55c0.603,0.339,1.084,0.8,1.437,1.38c0.353,0.576,0.536,1.239,0.532,1.914
	c0.006,0.68-0.178,1.346-0.532,1.926c-0.351,0.578-0.847,1.056-1.437,1.385c-0.605,0.343-1.289,0.52-1.983,0.515
	c-0.7,0.009-1.392-0.169-2.001-0.515c-0.604-0.34-1.085-0.805-1.438-1.385c-0.352-0.582-0.531-1.226-0.531-1.926
	c-0.007-0.678,0.178-1.344,0.531-1.922c0.349-0.578,0.845-1.053,1.438-1.376c0.604-0.334,1.27-0.503,2-0.503
	c0.718,0,1.38,0.165,1.982,0.507H233.232z M229.709,75.266c-0.462,0.258-0.851,0.629-1.128,1.08
	c-0.28,0.453-0.424,0.952-0.424,1.498c0,0.547,0.14,1.053,0.424,1.508c0.565,0.932,1.579,1.496,2.669,1.483
	c0.557,0,1.066-0.133,1.534-0.399c0.46-0.26,0.845-0.633,1.116-1.086c0.277-0.455,0.418-0.959,0.418-1.508
	c0.004-0.529-0.141-1.05-0.418-1.501c-0.273-0.449-0.658-0.82-1.116-1.077c-0.466-0.268-0.993-0.406-1.53-0.402
	c-0.541-0.006-1.074,0.133-1.544,0.402L229.709,75.266z M245.186,81.625l-4.537-6.074v6.074h-0.865v-7.564h0.898l4.535,6.08v-6.08
	h0.855v7.563L245.186,81.625L245.186,81.625z"/>
<linearGradient id="SVGID_1_" gradientUnits="userSpaceOnUse" x1="195.1338" y1="-149.8037" x2="216.8682" y2="-143.7603" gradientTransform="matrix(1 0 0 -1 -156 -140.9004)">
	<stop  offset="0" style="stop-color:#F69923"/>
	<stop  offset="0.312" style="stop-color:#F79A23"/>
	<stop  offset="0.838" style="stop-color:#E97826"/>
</linearGradient>
<path fill="url(#SVGID_1_)" d="M44.18,0.592c-1.627,0.963-4.332,3.68-7.56,7.625l2.967,5.6c2.083-2.977,4.2-5.657,6.332-7.945
	l0.25-0.27l-0.25,0.27c-0.7,0.76-2.784,3.204-5.944,8.06c3.042-0.15,7.72-0.776,11.533-1.426c1.135-6.357-1.113-9.267-1.113-9.267
	S47.532-1.387,44.18,0.592z"/>
<g>
	<path fill="#BE202E" d="M34.214,47.618l-1.167,0.205l0.6-0.093l0.578-0.115L34.214,47.618z"/>
	<path opacity="0.35" fill="#BE202E" enable-background="new    " d="M34.214,47.618l-1.167,0.205l0.6-0.093l0.578-0.115
		L34.214,47.618z"/>
	<path fill="#BE202E" d="M35.2,42.723l0.18-0.03l0.743-0.133L35.2,42.718V42.723z"/>
	<path opacity="0.35" fill="#BE202E" enable-background="new    " d="M35.2,42.723l0.18-0.03l0.743-0.133L35.2,42.718V42.723z"/>
</g>
<linearGradient id="SVGID_2_" gradientUnits="userSpaceOnUse" x1="147.5586" y1="-247.3467" x2="191.7643" y2="-152.5431" gradientTransform="matrix(1 0 0 -1 -156 -140.9004)">
	<stop  offset="0.323" style="stop-color:#9E2064"/>
	<stop  offset="0.63" style="stop-color:#C92037"/>
	<stop  offset="0.751" style="stop-color:#CD2335"/>
	<stop  offset="1" style="stop-color:#E97826"/>
</linearGradient>
<path fill="url(#SVGID_2_)" d="M30.838,28.284l2.737-4.935l2.906-4.838l0.172-0.277l2.93-4.414l-2.967-5.603L35.941,9.05
	l-2.654,3.43l-3.153,4.37l-3,4.443l-2.658,4.195l3.86,7.625l2.5-4.83L30.838,28.284z"/>
<linearGradient id="SVGID_3_" gradientUnits="userSpaceOnUse" x1="162.3867" y1="-240.3262" x2="188.7287" y2="-183.8352" gradientTransform="matrix(1 0 0 -1 -156 -140.9004)">
	<stop  offset="0" style="stop-color:#282662"/>
	<stop  offset="0.095" style="stop-color:#662E8D"/>
	<stop  offset="0.788" style="stop-color:#9F2064"/>
	<stop  offset="0.949" style="stop-color:#CD2032"/>
</linearGradient>
<path fill="url(#SVGID_3_)" d="M13.253,71.25l-1.782,4.979l-1.34,3.885c1.14,0.521,2.05,1.887,2.913,3.435
	c-0.084-1.636-0.811-3.173-2.02-4.278c5.607,0.25,10.437-1.164,12.934-5.265c0.227-0.372,0.431-0.759,0.611-1.155
	c-1.135,1.439-2.543,2.049-5.2,1.903c-0.007,0-0.01,0-0.018,0.011c0.007,0,0.01,0,0.018-0.011c3.9-1.746,5.858-3.423,7.586-6.2
	c0.436-0.707,0.841-1.434,1.214-2.177c-3.408,3.502-7.363,4.5-11.526,3.743l-3.12,0.34c-0.086,0.262-0.183,0.523-0.28,0.8
	L13.253,71.25z"/>
<linearGradient id="SVGID_4_" gradientUnits="userSpaceOnUse" x1="149.168" y1="-241.6123" x2="193.372" y2="-146.8144" gradientTransform="matrix(1 0 0 -1 -156 -140.9004)">
	<stop  offset="0.323" style="stop-color:#9E2064"/>
	<stop  offset="0.63" style="stop-color:#C92037"/>
	<stop  offset="0.751" style="stop-color:#CD2335"/>
	<stop  offset="1" style="stop-color:#E97826"/>
</linearGradient>
<path fill="url(#SVGID_4_)" d="M14.7,64.258l2.083-5.287l2.1-5.143l2.198-5.18l2.33-5.262l2.392-5.147l0.884-1.832l1.548-3.132
	l0.086-0.165l-3.86-7.625l-0.2,0.3L21.6,30.3L19,35.03l-2.105,4.1l-0.406,0.833l-2.288,5l-2.065,5.212l-1.08,3.14l-0.772,2.58
	l-1.48,6.045l3.875,7.666l1.58-4.166l0.453-1.179L14.7,64.258z"/>
<linearGradient id="SVGID_5_" gradientUnits="userSpaceOnUse" x1="153.667" y1="-235.2939" x2="176.8985" y2="-185.4728" gradientTransform="matrix(1 0 0 -1 -156 -140.9004)">
	<stop  offset="0" style="stop-color:#282662"/>
	<stop  offset="0.095" style="stop-color:#662E8D"/>
	<stop  offset="0.788" style="stop-color:#9F2064"/>
	<stop  offset="0.949" style="stop-color:#CD2032"/>
</linearGradient>
<path fill="url(#SVGID_5_)" d="M8.746,62.215c-0.488,2.45-0.833,4.893-1.006,7.32L7.722,69.79c-1.2-1.94-4.454-3.836-4.446-3.813
	c2.32,3.364,4.084,6.705,4.342,9.984c-1.243,0.255-2.945-0.115-4.913-0.837c2.05,1.886,3.592,2.405,4.2,2.546
	c-1.895,0.118-3.845,1.4-5.82,2.902c2.9-1.178,5.226-1.646,6.9-1.268C5.32,86.8,2.66,95.1,0,103.9c0.815-0.24,1.3-0.787,1.577-1.53
	c0.474-1.595,3.62-12.054,8.548-25.795l0.542-1.513l1.62-4.414l0.384-1.026c0.004-0.011,0.004-0.015,0.007-0.022l-3.875-7.66
	l-0.057,0.273V62.215z"/>
<linearGradient id="SVGID_6_" gradientUnits="userSpaceOnUse" x1="158.9756" y1="-246.1851" x2="203.1796" y2="-151.3851" gradientTransform="matrix(1 0 0 -1 -156 -140.9004)">
	<stop  offset="0.323" style="stop-color:#9E2064"/>
	<stop  offset="0.63" style="stop-color:#C92037"/>
	<stop  offset="0.751" style="stop-color:#CD2335"/>
	<stop  offset="1" style="stop-color:#E97826"/>
</linearGradient>
<path fill="url(#SVGID_6_)" d="M28.935,33.754l-0.334,0.686l-1.016,2.112l-1.124,2.388l-0.575,1.243l-1.756,3.9l-2.227,5.13
	l-2.187,5.255l-2.13,5.326l-1.94,5.032l-2.1,5.645l3.12-0.34L16.48,70.1c3.732-0.467,8.695-3.254,11.903-6.697
	c1.476-1.588,2.82-3.461,4.06-5.65c0.923-1.63,1.8-3.439,2.615-5.44c0.722-1.75,1.415-3.642,2.083-5.696
	c-0.858,0.453-1.84,0.783-2.924,1.013l-0.578,0.1c-0.198,0.035-0.397,0.066-0.596,0.093c3.488-1.34,5.682-3.922,7.277-7.1
	c-0.916,0.625-2.403,1.44-4.188,1.835c-0.246,0.054-0.494,0.098-0.743,0.133l-0.187,0.03h0.007c1.207-0.507,2.227-1.07,3.1-1.738
	c0.2-0.144,0.374-0.3,0.55-0.442c0.27-0.232,0.527-0.478,0.772-0.736c0.158-0.165,0.31-0.335,0.456-0.51
	c0.345-0.413,0.672-0.858,0.973-1.34c0.094-0.149,0.185-0.3,0.273-0.453l0.334-0.657c0.428-0.856,0.823-1.729,1.185-2.615
	c0.154-0.38,0.3-0.736,0.406-1.067l0.133-0.38c0.122-0.366,0.223-0.693,0.302-0.98c0.12-0.43,0.2-0.772,0.23-1.02
	c-0.12,0.093-0.255,0.187-0.406,0.277c-1.052,0.628-2.855,1.2-4.306,1.465l2.866-0.316l-2.866,0.316c-0.022,0-0.043,0.01-0.065,0.01
	l-0.438,0.072c0.025-0.01,0.05-0.025,0.075-0.036l-9.805,1.074c-0.014,0.04-0.032,0.075-0.05,0.1L28.935,33.754z"/>
<linearGradient id="SVGID_7_" gradientUnits="userSpaceOnUse" x1="155.7178" y1="-251.8252" x2="199.9218" y2="-157.0262" gradientTransform="matrix(1 0 0 -1 -156 -140.9004)">
	<stop  offset="0.323" style="stop-color:#9E2064"/>
	<stop  offset="0.63" style="stop-color:#C92037"/>
	<stop  offset="0.751" style="stop-color:#CD2335"/>
	<stop  offset="1" style="stop-color:#E97826"/>
</linearGradient>
<path fill="url(#SVGID_7_)" d="M39.972,13.932l-2.852,4.58l-0.162,0.273l-2.812,4.92l-2.67,4.992l-2.493,4.95l9.805-1.074
	c2.855-1.315,4.134-2.503,5.373-4.224l0.988-1.483l2.877-5.025l2.18-4.795l0.866-2.597l0.427-1.943
	c-3.807,0.65-8.487,1.275-11.53,1.426H39.972z"/>
<g>
	<path fill="#BE202E" d="M33.636,47.73l-0.596,0.093L33.636,47.73z"/>
	<path opacity="0.35" fill="#BE202E" enable-background="new    " d="M33.636,47.73l-0.596,0.093L33.636,47.73z"/>
</g>
<linearGradient id="SVGID_8_" gradientUnits="userSpaceOnUse" x1="161.8887" y1="-247.5435" x2="206.0927" y2="-152.7435" gradientTransform="matrix(1 0 0 -1 -156 -140.9004)">
	<stop  offset="0.323" style="stop-color:#9E2064"/>
	<stop  offset="0.63" style="stop-color:#C92037"/>
	<stop  offset="0.751" style="stop-color:#CD2335"/>
	<stop  offset="1" style="stop-color:#E97826"/>
</linearGradient>
<path fill="url(#SVGID_8_)" d="M33.636,47.73l-0.596,0.093L33.636,47.73z"/>
<g>
	<path fill="#BE202E" d="M35.198,42.726l0.187-0.03L35.198,42.726z"/>
	<path opacity="0.35" fill="#BE202E" enable-background="new    " d="M35.198,42.726l0.187-0.03L35.198,42.726z"/>
</g>
<linearGradient id="SVGID_9_" gradientUnits="userSpaceOnUse" x1="161.5527" y1="-247.3882" x2="205.7567" y2="-152.5882" gradientTransform="matrix(1 0 0 -1 -156 -140.9004)">
	<stop  offset="0.323" style="stop-color:#9E2064"/>
	<stop  offset="0.63" style="stop-color:#C92037"/>
	<stop  offset="0.751" style="stop-color:#CD2335"/>
	<stop  offset="1" style="stop-color:#E97826"/>
</linearGradient>
<path fill="url(#SVGID_9_)" d="M35.198,42.726l0.187-0.03L35.198,42.726z"/>
<g>
	<path fill="#BE202E" d="M35.206,42.723"/>
	<path opacity="0.35" fill="#BE202E" enable-background="new    " d="M35.206,42.723"/>
</g>
<linearGradient id="SVGID_10_" gradientUnits="userSpaceOnUse" x1="191.207" y1="-183.623" x2="191.207" y2="-183.623" gradientTransform="matrix(1 0 0 -1 -156 -140.9004)">
	<stop  offset="0.323" style="stop-color:#9E2064"/>
	<stop  offset="0.63" style="stop-color:#C92037"/>
	<stop  offset="0.751" style="stop-color:#CD2335"/>
	<stop  offset="1" style="stop-color:#E97826"/>
</linearGradient>
<path fill="url(#SVGID_10_)" d="M35.206,42.723"/>
</svg>
