<?xml version="1.0" encoding="utf-8"?>
<!-- Generator: Adobe Illustrator 27.3.1, SVG Export Plug-In . SVG Version: 6.00 Build 0)  -->
<svg version="1.1" id="Layer_1" xmlns="http://www.w3.org/2000/svg" xmlns:xlink="http://www.w3.org/1999/xlink" x="0px" y="0px"
	 viewBox="0 0 35.2 30" style="enable-background:new 0 0 35.2 30;" xml:space="preserve">
<style type="text/css">
	.st0{fill:#0068E0;}
	.st1{fill:#000094;}
	.st2{fill:#1CCCFC;}
</style>
<path class="st0" d="M9.3,18.3l1.5,4.7L35,29.9L9.3,18.3z"/>
<path class="st1" d="M17.7,10.5c0.3,1.2,0,1.9-1.9,1.7l19.1,17.7c0.2,0.1,0.3-0.1,0.1-0.3L17.7,10.5z"/>
<path class="st2" d="M17.1,2c0,0-0.7,0.6,0,1.5c0.5,0.6,1.3,0.2,1.3,0.2s0.7-0.4,0.2-1.3C18,1.3,17.1,2,17.1,2z M35,30L8,17.9
	c0,0-8.8-5.5-7.9-7.6c0.9-2.1,8.8,2.1,9.6,2.3c0.8,0.2,1.3-0.3,1.3-0.7c0-0.5-1.2-2-0.6-2.7c0.6-0.6,2.6,0.6,2.6,0.6l1.6,1.1L35,30z
	"/>
<path class="st2" d="M35.2,29.9L17.3,10.1c0,0-3.2-3.7-3.1-4.7s4.4,2.3,4.4,2.3s0.5,0.5,0.9,0.4c0.5-0.1,0-0.8,0-0.8s-0.7-1.7-0.2-2
	c0.5-0.3,1.7,1,1.7,1s0.3,0.3,0.6,0.2c0.3-0.1,0.2-0.8,0.2-0.8s-2.3-5.2-1.3-5.6c1.5-0.6,3.6,3.7,4.4,5.1
	C25.1,5.5,35.2,29.9,35.2,29.9z M7.3,5.4c0,0-0.9,0.6,0.1,1.8c0.9,1.1,1.8,0.5,1.8,0.5s0.9-0.5,0-1.5C8.1,4.9,7.3,5.4,7.3,5.4z"/>
</svg>
