<?xml version="1.0" encoding="utf-8"?>
<!-- Generator: Adobe Illustrator 27.3.1, SVG Export Plug-In . SVG Version: 6.00 Build 0)  -->
<svg version="1.1" id="Layer_1" xmlns="http://www.w3.org/2000/svg" xmlns:xlink="http://www.w3.org/1999/xlink" x="0px" y="0px"
	 viewBox="0 0 150.8 51" style="enable-background:new 0 0 150.8 51;" xml:space="preserve">
<style type="text/css">
	.st0{fill:#DD3303;}
	.st1{fill:#54585B;}
</style>
<path class="st0" d="M26.9,34.9c0,1.9,0,4.9-3.6,4.9c-2.2,0-3.1-1.2-3.6-3.2c-1.9,2.3-4.3,3.5-7.2,3.5C5.4,40.2,0,34.2,0,25.7
	C0,17.4,5.6,11,12.5,11c2.8,0,5.5,1.1,7.2,3.5c0.2-1.8,1.8-3.1,3.6-3.1c3.6,0,3.6,3,3.6,4.9C26.9,16.3,26.9,34.9,26.9,34.9z
	 M13.5,33.3c3.9,0,5.8-4,5.8-7.6S17.5,18,13.5,18c-4.1,0-6,4.1-6,7.7C7.6,29.3,9.4,33.3,13.5,33.3z M29,15.5c0-2.5,1.6-4.2,3.8-4.2
	c2.1,0,3.3,1.1,3.8,3.1C38,12.2,41,11,43.8,11C51.9,11,56,18.6,56,26c0,7.1-4.8,14.2-12.4,14.2c-2.4,0-4.9-0.9-6.9-2.6v9.2
	c0,2.5-1.6,4.2-3.8,4.2c-2.2,0-3.8-1.7-3.8-4.2L29,15.5L29,15.5z M42.5,33.3c3.9,0,5.9-4.1,5.9-7.6c0-3.6-1.9-7.7-5.9-7.7
	c-4,0-5.9,3.8-5.9,7.5S38.4,33.3,42.5,33.3z M65.8,4.2c0,2.4-1.9,4.3-4.2,4.3c-2.3,0-4.2-2-4.2-4.3c0-2.1,2-4.2,4.2-4.2
	C63.8,0,65.8,1.9,65.8,4.2z M57.8,15.5c0-2.5,1.6-4.2,3.8-4.2c2.2,0,3.8,1.7,3.8,4.2v20.1c0,2.5-1.6,4.2-3.8,4.2
	c-2.2,0-3.8-1.7-3.8-4.2V15.5z"/>
<path class="st1" d="M94,37.4C94,46.4,88.1,51,79.5,51c-3.1,0-11.9-1.5-11.9-5.7c0-1.4,1.6-3.3,3-3.3c2.4,0,5.1,2.4,9.4,2.4
	c3.7,0,6.4-2.2,6.4-6v-1.8h-0.1c-1.6,2.3-4.1,3.6-7.6,3.6c-7.9,0-11.7-7-11.7-14.5c0-7.6,4.8-14.7,12.4-14.7c2.6,0,5.5,1.1,6.9,3.5
	c0.5-2,1.7-3.1,3.8-3.1c2.2,0,3.8,1.7,3.8,4.2L94,37.4L94,37.4z M80.5,17.9c-3.9,0-5.9,4.1-5.9,7.6c0,4,1.9,7.7,5.9,7.7
	c4,0,5.9-3.8,5.9-7.5C86.4,22.1,84.7,17.9,80.5,17.9z M103.1,28.1c0.5,3.7,3.6,5.5,7.1,5.5c3.9,0,6.6-3,8.6-3c1.6,0,3.1,1.6,3.1,3.2
	c0,3.2-6.7,6.4-12.3,6.4c-8.5,0-14.2-6.2-14.2-14.5c0-7.7,5.6-14.6,13.5-14.6c8.2,0,13.6,7.5,13.6,13.8c0,2.3-1,3.4-3.3,3.4
	L103.1,28.1L103.1,28.1z M114.9,23.1c-0.4-3.3-2.5-5.8-6-5.8c-3.4,0-5.6,2.6-6,5.8H114.9z M131.4,28.2c0.5,3.7,3.6,5.5,7.1,5.5
	c3.9,0,6.6-3,8.6-3c1.6,0,3.1,1.6,3.1,3.2c0,3.2-6.7,6.4-12.3,6.4c-8.5,0-14.2-6.2-14.2-14.5c0-7.7,5.6-14.6,13.5-14.6
	c8.2,0,13.6,7.5,13.6,13.8c0,2.3-1,3.4-3.3,3.4L131.4,28.2L131.4,28.2z M143.3,23.2c-0.4-3.3-2.5-5.8-6-5.8c-3.4,0-5.6,2.6-6,5.8
	H143.3z"/>
</svg>
