<?xml version="1.0" encoding="utf-8"?>
<!-- Generator: Adobe Illustrator 27.3.1, SVG Export Plug-In . SVG Version: 6.00 Build 0)  -->
<svg version="1.1" id="Layer_1" xmlns="http://www.w3.org/2000/svg" xmlns:xlink="http://www.w3.org/1999/xlink" x="0px" y="0px"
	 viewBox="0 0 600 520.8" style="enable-background:new 0 0 600 520.8;" xml:space="preserve">
<style type="text/css">
	.st0{fill:#EC366D;}
	.st1{fill:#FCBA11;}
	.st2{fill:#61C2D9;}
	.st3{fill:url(#SVGID_1_);}
	.st4{fill:url(#SVGID_00000031195087138500176330000010821670443850649268_);}
	.st5{fill:url(#SVGID_00000111872810923928764510000016207095602851055767_);}
	.st6{fill:url(#SVGID_00000029757209329610088410000007515299361125506457_);}
</style>
<g>
	<g id="artwork">
		<path class="st0" d="M34.5,405.6c-9,0.2-17.9,1.1-26.7,2.9c-1.3,0.3-2.2,1.5-2.1,2.8l0.8,7.8c0.1,1.4,1.4,2.5,2.9,2.3
			c0.1,0,0.2,0,0.3,0c6.9-1.4,15-3,22.9-3c13.2,0,18,4.8,18,19.9v3.7c-5-1.1-10.1-1.7-15.2-1.6c-19.3,0-35.2,7.4-35.2,25.9
			C0,484.9,12.8,493,32.4,493c10.9-0.3,21.8-1.4,32.6-3.2v-52.2C65,414.8,56.8,405.6,34.5,405.6z M34.2,480.4
			c-11.7,0-19.1-3.5-19.1-14.3c0-10,9.1-13.6,21.4-13.6c4.7-0.1,9.4,0.3,14,1.3v25.4C45.1,480,39.6,480.5,34.2,480.4z M164.7,449.5
			c0-25.9-13.8-43.7-43.5-43.7c-12.4,0-23,2.6-30,4.3v108c0,1.4,1.2,2.6,2.6,2.6h9.7c1.4,0,2.6-1.2,2.6-2.6v-30.8
			c3.7,2.4,11.4,5.6,21,5.6C151.2,493,164.7,474.9,164.7,449.5z M149.1,449.5c0,18-7.4,30.3-23.9,30.3c-6.9,0-13.6-2.3-19.1-6.4
			v-52.7c4.8-1.2,9.8-1.7,14.8-1.6C138.7,419.2,149.1,430.1,149.1,449.5z M261.2,449.5c0-25.9-13.8-43.7-43.5-43.7
			c-12.4,0-23,2.6-30,4.3v108c0,1.4,1.2,2.6,2.6,2.6h9.7c1.4,0,2.6-1.2,2.6-2.6v-30.8c3.7,2.4,11.4,5.6,21,5.6
			C247.7,493,261.2,474.9,261.2,449.5z M245.6,449.5c0,18-7.4,30.3-23.9,30.3c-6.9,0-13.6-2.3-19.1-6.4v-52.7
			c4.8-1.2,9.8-1.7,14.8-1.6C235.2,419.2,245.6,430.1,245.6,449.5L245.6,449.5z M291.6,391.2c5.9,0.1,10.7-4.6,10.8-10.4
			c0.1-5.9-4.6-10.7-10.4-10.8c-5.9-0.1-10.7,4.6-10.8,10.4c0,0.1,0,0.1,0,0.2c-0.2,5.6,4.1,10.3,9.7,10.6
			C291.1,391.3,291.3,391.3,291.6,391.2z M296.5,407.6h-9.7c-1.4,0-2.6,1.2-2.6,2.6v78.2c0,1.4,1.2,2.6,2.6,2.6h9.7
			c1.4,0,2.6-1.2,2.6-2.6v-78.2C299.1,408.8,297.9,407.6,296.5,407.6z M395.9,410.3v78.9c-6.9,1.6-18.3,3.7-36.3,3.7
			c-23.8,0-34.4-13.6-34.4-38.4v-44.2c0-1.4,1.2-2.6,2.6-2.6h9.7c1.4,0,2.6,1.2,2.6,2.6v41c0,20.4,5.8,28.4,21,28.4
			c6.6-0.1,13.2-0.6,19.8-1.6v-67.9c0-1.4,1.2-2.6,2.6-2.6h9.7C394.7,407.7,395.9,408.9,395.9,410.3z M422.1,488.5V410
			c6.9-1.8,23.1-4.2,37.9-4.2c10.8,0,17.7,2.9,21.7,7.1c10.4-4,21.2-7.1,32.4-7.1c22.8,0,31.2,13.5,31.2,38.4v44.3
			c0,1.4-1.2,2.6-2.6,2.6h-9.7c-1.4,0-2.6-1.2-2.6-2.6v-41c0-18.1-2.4-28.4-17.8-28.4c-10.1,0-21.5,3.5-24.1,5.5
			c1.9,6.4,2.9,13.1,2.7,19.8v44.3c0,1.4-1.2,2.6-2.6,2.6h-9.7c-1.4,0-2.6-1.2-2.6-2.6v-41c0-18.5-3-28.4-17.8-28.4
			c-5.5,0-16,0.5-21.4,1.6v67.9c0,1.4-1.2,2.6-2.6,2.6h-9.7C423.3,491.2,422.1,490,422.1,488.5C422.1,488.5,422.1,488.5,422.1,488.5
			L422.1,488.5z"/>
		<path class="st0" d="M577.5,405.6v3.9h-4.9v12.4h-4.4v-12.4h-4.9v-3.9H577.5z M598.7,405.6c0.3,1.7,0.5,3.8,0.7,6.4
			s0.4,5.9,0.6,9.9h-4.2c-0.1-1.7-0.2-3.5-0.2-5.4c-0.1-1.9-0.2-3.7-0.3-5.3c-0.4,0.6-0.8,1.4-1.2,2.2c-0.4,0.8-0.9,1.6-1.3,2.4
			c-0.4,0.8-0.8,1.6-1.1,2.3c-0.3,0.7-0.6,1.3-0.8,1.7h-2.5c-0.2-0.4-0.5-1-0.8-1.7s-0.7-1.5-1.2-2.2l-1.3-2.4
			c-0.4-0.8-0.8-1.6-1.2-2.2c-0.1,1.6-0.2,3.4-0.3,5.3s-0.2,3.7-0.2,5.4h-4.2c0.3-4,0.6-7.3,0.8-9.9c0.2-2.6,0.4-4.7,0.7-6.4h4.4
			c0.6,1.1,1.3,2.5,2.1,4.1c0.8,1.6,1.6,3.3,2.5,5c0.9-1.7,1.7-3.4,2.6-5c0.9-1.6,1.5-3,2.1-4.1L598.7,405.6z"/>
		<path class="st1" d="M364.1,147.5c-1.9,4.6-4.1,9.1-6.5,13.5c-26.1-33.2-64-54.8-105.8-60.4c-7.1-0.9-14.2-1.4-21.3-1.4
			c-37.6-0.1-74.1,13.1-103.1,37.1C141.4,48.2,224.2-12,312.5,1.9c17.6,2.8,34.6,8.5,50.4,16.8v0.1c3.4,7.7,6.2,15.7,8.4,23.9
			C380.7,77.5,378.1,114.4,364.1,147.5z"/>
		<path class="st2" d="M344.4,313.2c-83.5,31.6-176.9-10.4-208.5-94c-6-15.8-9.4-32.4-10.3-49.3l0.1-0.1
			c21.8-30.7,53.6-52.8,90-62.5c6.9-1.8,13.9-3.2,20.9-4.2c4.9-0.7,9.9-1.1,14.8-1.2c-33.1,83,7.4,177.1,90.4,210.2
			C342.6,312.5,343.5,312.8,344.4,313.2L344.4,313.2z"/>
		<path class="st0" d="M449,161.8c0,48.2-21.5,94-58.7,124.7c-6.2,5.1-13.3,10.4-16.5,12c-44.9-4.6-85.8-27.5-113.2-63.4
			c-3-4-5.8-8.1-8.5-12.3c80.3-10.8,140.1-79.4,140.2-160.3c0-8.5-0.7-16.9-2-25.3C427.5,67.8,449,113.6,449,161.8z"/>
		
			<linearGradient id="SVGID_1_" gradientUnits="userSpaceOnUse" x1="442.0523" y1="315.5932" x2="198.0524" y2="229.2132" gradientTransform="matrix(1 0 0 -1 0 521.8898)">
			<stop  offset="0" style="stop-color:#EE376D;stop-opacity:0"/>
			<stop  offset="0.14" style="stop-color:#E9376D;stop-opacity:6.000000e-02"/>
			<stop  offset="0.37" style="stop-color:#DB386E;stop-opacity:0.22"/>
			<stop  offset="0.68" style="stop-color:#C6396F;stop-opacity:0.48"/>
			<stop  offset="1" style="stop-color:#AB3B70;stop-opacity:0.8"/>
		</linearGradient>
		<path class="st3" d="M449,161.8c0,48.2-21.5,94-58.7,124.7c-6.2,5.1-13.3,10.4-16.5,12c-44.9-4.6-85.8-27.5-113.2-63.4
			c-3-4-5.8-8.1-8.5-12.3c77.3,24.1,160.5-12.7,194.8-86.1l0.1-0.2C448.3,144.9,449,153.3,449,161.8z"/>
		<path class="st2" d="M200.6,211.7c-1.8,36.2,8.7,72,29.6,101.6c-60.8-22.8-102-79.8-104.7-144.7c0,0.4,0.1,0.9,0.1,1.3
			c21.8-30.7,53.6-52.8,90-62.5c6.9-1.8,13.9-3.2,20.9-4.2c4.9-0.7,9.9-1.1,14.8-1.2C220.9,130.6,202.8,169.9,200.6,211.7
			L200.6,211.7z"/>
		
			<linearGradient id="SVGID_00000016755617555479264630000010343516287170383805_" gradientUnits="userSpaceOnUse" x1="167.059" y1="244.6101" x2="238.289" y2="484.0602" gradientTransform="matrix(1 0 0 -1 0 521.8898)">
			<stop  offset="0" style="stop-color:#65C9D3;stop-opacity:0"/>
			<stop  offset="1" style="stop-color:#65C9D3"/>
		</linearGradient>
		<path style="fill:url(#SVGID_00000016755617555479264630000010343516287170383805_);" d="M200.6,211.7
			c-1.8,36.2,8.7,72,29.6,101.6c-60.8-22.8-102-79.8-104.7-144.7c0,0.4,0.1,0.9,0.1,1.3c21.8-30.7,53.6-52.8,90-62.5
			c6.9-1.8,13.9-3.2,20.9-4.2c4.9-0.7,9.9-1.1,14.8-1.2C220.9,130.6,202.8,169.9,200.6,211.7L200.6,211.7z"/>
		
			<linearGradient id="SVGID_00000047032282353086456950000012616252717285397655_" gradientUnits="userSpaceOnUse" x1="184.35" y1="441.4012" x2="376.8515" y2="441.4012" gradientTransform="matrix(1 0 0 -1 0 521.8898)">
			<stop  offset="0" style="stop-color:#FFCA04;stop-opacity:0"/>
			<stop  offset="0.1" style="stop-color:#FFCA04;stop-opacity:7.000000e-02"/>
			<stop  offset="0.31" style="stop-color:#FFCA04;stop-opacity:0.25"/>
			<stop  offset="0.59" style="stop-color:#FFCA04;stop-opacity:0.54"/>
			<stop  offset="0.95" style="stop-color:#FFCA04;stop-opacity:0.94"/>
			<stop  offset="1" style="stop-color:#FFCA04"/>
		</linearGradient>
		<path style="fill:url(#SVGID_00000047032282353086456950000012616252717285397655_);" d="M364.1,147.5c-1.9,4.6-4.1,9.1-6.5,13.5
			c-9.6-41.1-34.9-76.8-70.4-99.4c-6-3.8-12.3-7.2-18.7-10.3C242.3,39,213.2,34,184.3,36.9c50.4-41.5,120.8-48.7,178.5-18.2v0.1
			c3.4,7.7,6.3,15.7,8.4,23.9C380.7,77.5,378.1,114.4,364.1,147.5z"/>
		
			<linearGradient id="SVGID_00000049907882860149809680000016813124639601567677_" gradientUnits="userSpaceOnUse" x1="442.0523" y1="315.5932" x2="198.0524" y2="229.2132" gradientTransform="matrix(1 0 0 -1 0 521.8898)">
			<stop  offset="0" style="stop-color:#EE376D;stop-opacity:0"/>
			<stop  offset="0.14" style="stop-color:#E9376D;stop-opacity:6.000000e-02"/>
			<stop  offset="0.37" style="stop-color:#DB386E;stop-opacity:0.22"/>
			<stop  offset="0.68" style="stop-color:#C6396F;stop-opacity:0.48"/>
			<stop  offset="1" style="stop-color:#AB3B70;stop-opacity:0.8"/>
		</linearGradient>
		<path style="fill:url(#SVGID_00000049907882860149809680000016813124639601567677_);" d="M449,161.8c0,48.2-21.5,94-58.7,124.7
			c-6.2,5.1-13.3,10.4-16.5,12c-44.9-4.6-85.8-27.5-113.2-63.4c-3-4-5.8-8.1-8.5-12.3c77.3,24.1,160.5-12.7,194.8-86.1l0.1-0.2
			C448.3,144.9,449,153.3,449,161.8z"/>
	</g>
</g>
</svg>
