<?xml version="1.0" encoding="UTF-8" standalone="no"?>
<!-- Created with Inkscape (http://www.inkscape.org/) -->

<svg
   xmlns:dc="http://purl.org/dc/elements/1.1/"
   xmlns:cc="http://creativecommons.org/ns#"
   xmlns:rdf="http://www.w3.org/1999/02/22-rdf-syntax-ns#"
   xmlns:svg="http://www.w3.org/2000/svg"
   xmlns="http://www.w3.org/2000/svg"
   xmlns:sodipodi="http://sodipodi.sourceforge.net/DTD/sodipodi-0.dtd"
   xmlns:inkscape="http://www.inkscape.org/namespaces/inkscape"
   width="168.71883mm"
   height="55.469467mm"
   viewBox="0 0 168.71883 55.469467"
   version="1.1"
   id="svg897"
   inkscape:version="0.92.3 (2405546, 2018-03-11)"
   sodipodi:docname="archiva.svg">
  <defs
     id="defs891" />
  <sodipodi:namedview
     id="base"
     pagecolor="#ffffff"
     bordercolor="#666666"
     borderopacity="1.0"
     inkscape:pageopacity="0.0"
     inkscape:pageshadow="2"
     inkscape:zoom="0.9899495"
     inkscape:cx="128.80793"
     inkscape:cy="-118.48686"
     inkscape:document-units="mm"
     inkscape:current-layer="layer1"
     showgrid="false"
     inkscape:window-width="3726"
     inkscape:window-height="2049"
     inkscape:window-x="114"
     inkscape:window-y="55"
     inkscape:window-maximized="1"
     fit-margin-top="0"
     fit-margin-left="0"
     fit-margin-right="0"
     fit-margin-bottom="0">
    <inkscape:grid
       type="xygrid"
       id="grid5010"
       originx="193.78887"
       originy="-188.94673" />
  </sodipodi:namedview>
  <metadata
     id="metadata894">
    <rdf:RDF>
      <cc:Work
         rdf:about="">
        <dc:format>image/svg+xml</dc:format>
        <dc:type
           rdf:resource="http://purl.org/dc/dcmitype/StillImage" />
        <dc:title></dc:title>
      </cc:Work>
    </rdf:RDF>
  </metadata>
  <g
     inkscape:label="Layer 1"
     inkscape:groupmode="layer"
     id="layer1"
     transform="translate(193.78886,-52.583806)">
    <g
       id="g5049"
       transform="translate(-162.90774,-21.733631)" />
    <g
       id="g4998"
       transform="translate(-33.605343,-38.85936)" />
    <g
       id="g4986"
       transform="translate(-54.122079,-41.694046)" />
    <g
       id="g4980"
       transform="translate(-65.213764,-26.593318)" />
    <path
       style="opacity:1;fill:#e97440;fill-opacity:1;stroke:none;stroke-width:0.30555511;stroke-linecap:round;stroke-linejoin:round;stroke-miterlimit:4;stroke-dasharray:none;stroke-opacity:1"
       d="m -89.614364,52.583806 5.09217,8.81987 5.09217,-8.81987 h -2.116703 l -2.941783,5.09512 -2.94157,-5.09512 z"
       id="path1461"
       inkscape:connector-curvature="0" />
    <path
       style="opacity:1;fill:#e97440;fill-opacity:1;stroke:none;stroke-width:0.30555511;stroke-linecap:round;stroke-linejoin:round;stroke-miterlimit:4;stroke-dasharray:none;stroke-opacity:1"
       d="m -75.049705,54.543876 -5.092155,8.81989 10.184325,1e-5 -1.058351,-1.83312 -5.883404,-9e-5 2.941727,-5.09504 z"
       id="path1461-7"
       inkscape:connector-curvature="0" />
    <path
       style="opacity:1;fill:#e97440;fill-opacity:1;stroke:none;stroke-width:0.30555511;stroke-linecap:round;stroke-linejoin:round;stroke-miterlimit:4;stroke-dasharray:none;stroke-opacity:1"
       d="m -69.995721,68.484886 -10.184317,1e-5 5.092147,8.81989 1.058351,-1.83312 -2.941612,-5.09522 5.883289,9e-5 z"
       id="path1461-5"
       inkscape:connector-curvature="0" />
    <path
       style="opacity:1;fill:#000000;fill-opacity:1;stroke:none;stroke-width:0.30555511;stroke-linecap:round;stroke-linejoin:round;stroke-miterlimit:4;stroke-dasharray:none;stroke-opacity:1"
       d="m -78.975521,80.118216 -5.092172,-8.81988 -5.092171,8.81988 h 2.116704 l 2.94178,-5.09513 2.941571,5.09513 z"
       id="path1461-7-3"
       inkscape:connector-curvature="0" />
    <path
       style="opacity:1;fill:#e97440;fill-opacity:1;stroke:none;stroke-width:0.30555511;stroke-linecap:round;stroke-linejoin:round;stroke-miterlimit:4;stroke-dasharray:none;stroke-opacity:1"
       d="m -93.229464,77.222846 5.092146,-8.81988 -10.184316,-1e-5 1.058351,1.83312 5.883395,9e-5 -2.941718,5.09504 z"
       id="path1461-56"
       inkscape:connector-curvature="0" />
    <path
       style="opacity:1;fill:#e97440;fill-opacity:1;stroke:none;stroke-width:0.30555511;stroke-linecap:round;stroke-linejoin:round;stroke-miterlimit:4;stroke-dasharray:none;stroke-opacity:1"
       d="m -98.814323,63.629446 h 10.184326 l -5.092154,-8.81989 -1.058353,1.83311 2.941624,5.09523 -5.883297,-9e-5 z"
       id="path1461-7-2"
       inkscape:connector-curvature="0" />
    <g
       aria-label="archiva"
       style="font-style:normal;font-variant:normal;font-weight:normal;font-stretch:normal;font-size:55.4897995px;line-height:125%;font-family:Montserrat;-inkscape-font-specification:Montserrat;letter-spacing:0px;word-spacing:0px;fill:#e97440;fill-opacity:1;stroke:none;stroke-width:2.01781082px;stroke-linecap:butt;stroke-linejoin:miter;stroke-opacity:1"
       id="text845"
       transform="matrix(0.88752556,0,0,0.88752556,116.49628,33.767815)">
      <path
         d="m -323.24934,83.033638 c -0.11098,-3.551347 0.38843,-8.878368 1.05431,-12.485205 l 2.82998,-13.87245 c -2.44155,-0.776857 -6.15937,-1.442735 -9.54425,-1.442735 -13.98343,0 -20.69769,9.155817 -20.69769,18.589083 0,5.937409 3.82879,9.877185 8.98935,9.877185 3.49585,0 7.26916,-1.498225 9.87718,-6.325838 h 0.11098 c -0.16647,2.053123 -0.33294,4.050756 -0.38843,5.65996 z m -6.60328,-15.814593 c -1.33176,7.213674 -4.66115,9.821695 -7.21368,9.821695 -2.38606,0 -3.71781,-1.886654 -3.71781,-4.661144 0,-5.38251 4.21722,-10.765021 9.59973,-10.765021 0.94333,0 1.77568,0.11098 2.44155,0.22196 z"
         style="font-style:italic;font-variant:normal;font-weight:bold;font-stretch:semi-expanded;font-family:'Myriad Pro';-inkscape-font-specification:'Myriad Pro Bold Italic Semi-Expanded';fill:#e97440;fill-opacity:1;stroke-width:2.01781082px"
         id="path847"
         inkscape:connector-curvature="0" />
      <path
         d="m -308.83846,83.033638 1.77567,-9.266797 c 1.05431,-5.604469 3.2739,-10.487572 9.04484,-10.487572 0.49941,0 0.88784,0 1.27626,0.05549 l 1.6647,-8.046021 c -0.49941,-0.05549 -1.1098,-0.05549 -1.60921,-0.05549 -4.21722,0 -7.38014,2.88547 -9.26679,6.547797 h -0.16647 c 0.16647,-1.942143 0.33294,-3.939776 0.49941,-5.881919 h -7.21368 c -0.27745,2.275082 -0.61039,7.324654 -1.38724,11.763838 l -2.94096,15.370674 z"
         style="fill:#000000;fill-opacity:1"
         id="path849"
         inkscape:connector-curvature="0" />
      <path
         d="m -273.62845,75.764474 c -1.55372,0.665878 -3.38488,1.276266 -6.04839,1.276266 -3.21841,0 -5.93741,-1.831164 -5.93741,-5.826429 0,-4.827613 3.60684,-9.433266 9.8217,-9.433266 1.94214,0 3.21841,0.332939 4.27271,0.776857 l 2.05312,-6.270347 c -1.44273,-0.554898 -3.71781,-1.054307 -6.21485,-1.054307 -10.93149,0 -18.75556,7.269164 -18.75556,16.868899 0,7.713083 5.49349,11.597369 12.37423,11.597369 3.60684,0 6.65878,-0.665878 8.65641,-1.664694 z"
         style="fill:#000000;fill-opacity:1"
         id="path851"
         inkscape:connector-curvature="0" />
      <path
         d="m -260.50164,83.033638 2.1641,-11.375409 c 1.10979,-5.937408 4.21722,-9.710715 7.38014,-9.710715 2.27508,0 3.10743,1.442735 3.10743,3.384878 0,1.220776 -0.11098,2.275082 -0.33294,3.329388 l -2.719,14.371858 h 8.32347 l 2.88547,-15.259695 c 0.27745,-1.331755 0.49941,-3.495857 0.49941,-4.716633 0,-5.049572 -2.99645,-7.824062 -7.49112,-7.824062 -3.77331,0 -6.82525,1.609205 -9.2668,4.217225 h -0.11098 l 3.10743,-16.147531 h -8.37896 l -7.49112,39.730696 z"
         style="fill:#000000;fill-opacity:1"
         id="path853"
         inkscape:connector-curvature="0" />
      <path
         d="m -227.06558,83.033638 5.16055,-27.134512 h -8.37896 l -5.16055,27.134512 z"
         style="fill:#000000;fill-opacity:1"
         id="path855"
         inkscape:connector-curvature="0"
         sodipodi:nodetypes="ccccc" />
      <path
         d="m -218.28432,55.899126 5.60447,27.134512 h 8.48994 l 16.09205,-27.134512 h -9.59974 l -5.71545,11.597368 c -1.55371,3.329388 -2.55253,5.60447 -3.2739,7.380143 h -0.16647 c -0.27745,-1.831163 -0.66587,-4.106245 -1.10979,-7.269163 l -1.77568,-11.708348 z"
         style="fill:#000000;fill-opacity:1"
         id="path857"
         inkscape:connector-curvature="0" />
      <path
         d="m -163.39103,83.033638 c -0.11098,-3.551347 0.38843,-8.878368 1.05431,-12.485205 l 2.82998,-13.87245 c -2.44155,-0.776857 -6.15937,-1.442735 -9.54425,-1.442735 -13.98343,0 -20.69769,9.155817 -20.69769,18.589083 0,5.937409 3.82879,9.877185 8.98934,9.877185 3.49586,0 7.26917,-1.498225 9.87719,-6.325838 h 0.11098 c -0.16647,2.053123 -0.33294,4.050756 -0.38843,5.65996 z m -6.60329,-15.814593 c -1.33175,7.213674 -4.66114,9.821695 -7.21367,9.821695 -2.38606,0 -3.71782,-1.886654 -3.71782,-4.661144 0,-5.38251 4.21723,-10.765021 9.59974,-10.765021 0.94333,0 1.77567,0.11098 2.44155,0.22196 z"
         style="fill:#000000;fill-opacity:1"
         id="path859"
         inkscape:connector-curvature="0" />
    </g>
  </g>
</svg>
