<?xml version="1.0" encoding="utf-8"?>
<!-- Generator: Adobe Illustrator 27.3.1, SVG Export Plug-In . SVG Version: 6.00 Build 0)  -->
<svg version="1.1" id="Layer_1" xmlns="http://www.w3.org/2000/svg" xmlns:xlink="http://www.w3.org/1999/xlink" x="0px" y="0px"
	 viewBox="0 0 111.1 21.9" style="enable-background:new 0 0 111.1 21.9;" xml:space="preserve">
<style type="text/css">
	.st0{fill:#0D0E10;}
	.st1{fill:#FF584A;}
</style>
<path id="asana-horizontal-logo__text" class="st0" d="M108.3,16.7c0.1,0.8,0.7,1.7,1.7,1.7h0.6c0.2,0,0.4-0.2,0.4-0.4V4.4h0
	c0-0.2-0.2-0.4-0.4-0.4h-1.9c-0.2,0-0.4,0.2-0.4,0.4h0v1.1c-1.2-1.5-3-2.1-4.9-2.1c-4.2,0-7.7,3.4-7.7,7.7c0,0,0,0,0,0
	c0,4.2,3.4,7.7,7.7,7.7c0,0,0,0,0,0C105.2,18.8,107.3,18,108.3,16.7L108.3,16.7L108.3,16.7z M103.4,16.1c-2.7,0-4.9-2.2-4.9-5
	s2.2-5,4.9-5c2.7,0,4.9,2.2,4.9,5S106.1,16.1,103.4,16.1z M93.3,17.2v-7.1c0-4-2.5-6.7-6.5-6.7c-1.9,0-3.5,1.1-4,2.1
	C82.6,4.8,82.2,4,81,4h-0.6c-0.2,0-0.4,0.2-0.4,0.4v13.6h0c0,0.2,0.2,0.4,0.4,0.4h1.9c0,0,0.1,0,0.1,0c0,0,0,0,0,0l0,0c0,0,0,0,0,0
	l0,0c0,0,0,0,0.1,0l0,0c0.1-0.1,0.1-0.2,0.1-0.3h0V10c0-2.1,1.7-3.9,3.9-3.9c2.1,0,3.9,1.7,3.9,3.9l0,6.7v0l0,0v1.3h0
	c0,0.2,0.2,0.4,0.4,0.4h1.9c0,0,0.1,0,0.1,0c0,0,0,0,0,0c0,0,0,0,0,0c0,0,0,0,0,0l0,0c0,0,0,0,0.1,0l0,0c0,0,0,0,0-0.1l0,0
	c0-0.1,0.1-0.1,0.1-0.2h0L93.3,17.2L93.3,17.2z M73.3,16.7c0.1,0.8,0.7,1.7,1.7,1.7h0.6c0.2,0,0.4-0.2,0.4-0.4V4.4h0
	c0-0.2-0.2-0.4-0.4-0.4h-1.9c-0.2,0-0.4,0.2-0.4,0.4h0v1.1c-1.2-1.5-3-2.1-4.9-2.1c-4.2,0-7.7,3.4-7.7,7.7c0,0,0,0,0,0
	c0,4.2,3.4,7.7,7.7,7.7C70.2,18.8,72.3,18,73.3,16.7C73.3,16.7,73.3,16.7,73.3,16.7z M68.4,16.1c-2.7,0-4.9-2.2-4.9-5s2.2-5,4.9-5
	s4.9,2.2,4.9,5S71.1,16.1,68.4,16.1z M49.3,14.7c1.3,0.9,2.7,1.3,4,1.3c1.3,0,2.6-0.7,2.6-1.8c0-1.5-2.9-1.8-4.7-2.4
	c-1.8-0.6-3.4-1.9-3.4-4c0-3.2,2.8-4.5,5.4-4.5c1.7,0,3.4,0.5,4.5,1.3C58.2,5,58,5.4,58,5.4l-1.1,1.5c-0.1,0.2-0.3,0.3-0.6,0.1
	s-1.4-0.9-3-0.9c-1.6,0-2.6,0.7-2.6,1.7c0,1.1,1.3,1.4,2.7,1.8c2.6,0.7,5.4,1.5,5.4,4.7c0,2.8-2.6,4.5-5.5,4.5c-2.2,0-4-0.6-5.6-1.8
	c-0.3-0.3-0.1-0.6-0.1-0.6l1.1-1.5C48.9,14.6,49.2,14.7,49.3,14.7z M41.9,16.7c0.1,0.8,0.7,1.7,1.7,1.7h0.6c0.2,0,0.4-0.2,0.4-0.4
	V4.4h0c0-0.2-0.2-0.4-0.4-0.4h-1.9c-0.2,0-0.4,0.2-0.4,0.4h0v1.1c-1.2-1.5-3-2.1-4.9-2.1c-4.2,0-7.7,3.4-7.7,7.7
	c0,4.2,3.4,7.7,7.7,7.7C38.9,18.8,40.9,18,41.9,16.7C41.9,16.7,41.9,16.7,41.9,16.7z M37,16.1c-2.7,0-4.9-2.2-4.9-5s2.2-5,4.9-5
	c2.7,0,4.9,2.2,4.9,5S39.7,16.1,37,16.1L37,16.1z"/>
<path id="asana-horizontal-logo__icon" class="st1" d="M18.6,11.6c-2.8,0-5.2,2.3-5.2,5.2s2.3,5.2,5.2,5.2s5.2-2.3,5.2-5.2
	S21.5,11.6,18.6,11.6z M5.2,11.6c-2.8,0-5.2,2.2-5.2,5.1s2.2,5.2,5.1,5.2c0,0,0.1,0,0.1,0c2.8,0,5.1-2.4,5.1-5.2
	C10.3,13.9,8,11.6,5.2,11.6z M17.1,5.2c0,2.8-2.3,5.2-5.2,5.2S6.8,8,6.8,5.2S9.1,0,11.9,0S17.1,2.3,17.1,5.2z"/>
</svg>
