<?xml version="1.0" encoding="utf-8"?>
<!-- Generator: Adobe Illustrator 27.3.1, SVG Export Plug-In . SVG Version: 6.00 Build 0)  -->
<svg version="1.1" id="b52146e6-0a86-427d-9d58-39556cf08dfd"
	 xmlns="http://www.w3.org/2000/svg" xmlns:xlink="http://www.w3.org/1999/xlink" x="0px" y="0px" viewBox="0 0 117.6 37.2"
	 style="enable-background:new 0 0 117.6 37.2;" xml:space="preserve">
<style type="text/css">
	.st0{fill:#F12F46;}
	.st1{fill:#F5B0B0;}
</style>
<path class="st0" d="M12,32.1c-0.6,0-1.2-0.3-1.7-0.7l-6.8-6.8c-4.7-4.7-4.7-12.3,0-17s12.3-4.7,17,0c0,0,0,0,0,0l6.8,6.8
	c0.9,0.9,0.9,2.5,0,3.4s-2.5,0.9-3.4,0L17.1,11c-2.8-2.8-7.4-2.8-10.2,0s-2.8,7.4,0,10.2l6.8,6.8c0.9,0.9,0.9,2.5,0,3.4
	C13.3,31.8,12.7,32.1,12,32.1L12,32.1z"/>
<path class="st1" d="M25.6,28.1c-3.2,0-6.2-1.3-8.5-3.5l-6.8-6.8c-0.9-0.9-0.9-2.5,0-3.4c0.9-0.9,2.5-0.9,3.4,0l6.8,6.8
	c2.8,2.8,7.4,2.8,10.2,0c2.8-2.8,2.8-7.4,0-10.2l-6.8-6.8c-0.9-0.9-0.9-2.5,0-3.4s2.5-0.9,3.4,0l0,0l6.8,6.8c4.7,4.7,4.7,12.3,0,17
	C31.9,26.8,28.8,28.1,25.6,28.1z"/>
<path d="M64.1,32.3l-2.3-6h-8l-2.2,5.8h-2.7l7.6-19.4h2.6l7.4,19L64.1,32.3z M57.9,15.8L54.8,24H61L57.9,15.8z"/>
<path d="M77.8,32.1l-0.3-1.9c-1.2,1.3-2.9,2.1-4.7,2.2c-2.5,0-3.9-1.5-3.9-3.9v-9.7h2.5v9.1c0,1.4,0.6,2.3,2,2.3
	c1.5-0.2,2.9-0.9,3.9-2.2v-9.2h2.5v13.4H77.8z"/>
<path d="M88.1,32.3c-2.4,0-3.9-0.8-3.9-3.5v-8h-2v-2.1h2v-4.5l2.4-0.4v4.8h2.9l0.3,2.1h-3.2v7.5c0,1.1,0.4,1.8,1.8,1.8
	c0.4,0,0.8,0,1.1-0.1l0.3,2.1C89.3,32.3,88.7,32.3,88.1,32.3z"/>
<path d="M100.9,32.1V23c0-1.4-0.6-2.3-2-2.3c-1.5,0.2-2.9,0.9-3.9,2.2v9.2h-2.5V12.3l2.5-0.4v8.6c1.2-1.2,2.8-1.9,4.5-2
	c2.5,0,3.9,1.5,3.9,3.9v9.7L100.9,32.1z"/>
<path d="M112.2,33.3c-1.1,3.1-2.6,3.9-4.8,3.9c-0.3,0-0.6,0-0.9-0.1l-0.3-2.2c0.5,0.1,0.9,0.2,1.4,0.2c1,0,1.9-0.6,2.1-1.6l0.5-1.4
	l-4.9-13.2l2.5-0.4l3.6,10.6l3.6-10.4h2.5L112.2,33.3z"/>
<path d="M52.4,1.1v5.3h-1.1V1.1h-2.1v-1h5.3v1H52.4z"/>
<path d="M63.2,6.4h-1l-1.6-4.9L59,6.4h-1l-2-6.3h1.2l1.3,4.8l1.5-4.8h1.2l1.5,4.8l1.3-4.8h1.1L63.2,6.4z"/>
<path d="M67.3,6.4V0.1h1.1v6.2H67.3z"/>
<path d="M71.2,6.4V0.1h1.1v5.3h2.6v1L71.2,6.4z"/>
<path d="M77.2,6.4V0.1h1.1v6.2H77.2z"/>
<path d="M83.8,6.5c-1.7,0-3.1-1.3-3.1-3c0-0.1,0-0.2,0-0.2c-0.1-1.7,1.2-3.2,2.9-3.3c1.7-0.1,3.2,1.2,3.3,2.9c0,0.1,0,0.2,0,0.3
	C87,4.9,85.7,6.4,84,6.5C84,6.5,83.9,6.5,83.8,6.5z M83.8,0.9c-1.1,0-2,1-2,2.1c0,0.1,0,0.1,0,0.2c-0.1,1.2,0.7,2.2,1.9,2.3
	c0,0,0.1,0,0.1,0c1.1,0,2-1,2-2.1c0-0.1,0-0.1,0-0.2c0.1-1.1-0.7-2.2-1.8-2.3C83.9,0.9,83.9,0.9,83.8,0.9z"/>
</svg>
