<?xml version="1.0" encoding="utf-8"?>
<!-- Generator: Adobe Illustrator 16.0.3, SVG Export Plug-In . SVG Version: 6.00 Build 0)  -->
<!DOCTYPE svg PUBLIC "-//W3C//DTD SVG 1.1//EN" "http://www.w3.org/Graphics/SVG/1.1/DTD/svg11.dtd">
<svg version="1.1" id="Layer_1" xmlns="http://www.w3.org/2000/svg" xmlns:xlink="http://www.w3.org/1999/xlink" x="0px" y="0px"
	 width="605.297px" height="361.965px" viewBox="0 0 605.297 361.965" enable-background="new 0 0 605.297 361.965"
	 xml:space="preserve">
<g>
	<path fill="#252F3E" d="M170.579,131.458c0,7.448,0.805,13.488,2.214,17.918c1.61,4.428,3.624,9.26,6.442,14.494
		c1.007,1.61,1.409,3.221,1.409,4.631c0,2.013-1.208,4.025-3.825,6.039l-12.683,8.454c-1.812,1.208-3.624,1.813-5.234,1.813
		c-2.013,0-4.026-1.007-6.04-2.818c-2.818-3.02-5.234-6.24-7.248-9.462c-2.013-3.422-4.026-7.248-6.241-11.878
		c-15.703,18.521-35.432,27.781-59.187,27.781c-16.91,0-30.398-4.831-40.263-14.494c-9.864-9.663-14.897-22.547-14.897-38.653
		c0-17.112,6.039-31.002,18.319-41.471c12.28-10.468,28.587-15.703,49.323-15.703c6.845,0,13.891,0.604,21.339,1.61
		c7.449,1.007,15.099,2.617,23.151,4.43V69.454c0-15.301-3.221-25.971-9.462-32.211c-6.44-6.242-17.31-9.262-32.812-9.262
		c-7.046,0-14.293,0.805-21.742,2.617s-14.696,4.025-21.742,6.845c-3.221,1.409-5.637,2.214-7.046,2.617
		c-1.409,0.401-2.416,0.604-3.221,0.604c-2.818,0-4.228-2.014-4.228-6.242V24.56c0-3.221,0.403-5.637,1.409-7.046
		c1.007-1.409,2.818-2.819,5.637-4.228c7.046-3.625,15.501-6.644,25.366-9.06c9.865-2.617,20.333-3.825,31.405-3.825
		c23.957,0,41.471,5.436,52.745,16.307c11.072,10.871,16.709,27.379,16.709,49.523v65.227H170.579L170.579,131.458z M88.845,162.058
		c6.644,0,13.488-1.208,20.735-3.624c7.248-2.416,13.689-6.845,19.125-12.884c3.221-3.825,5.637-8.053,6.845-12.885
		s2.013-10.668,2.013-17.514v-8.456c-5.838-1.409-12.079-2.616-18.521-3.422s-12.683-1.208-18.923-1.208
		c-13.488,0-23.353,2.617-29.996,8.053c-6.644,5.437-9.865,13.086-9.865,23.151c0,9.462,2.416,16.508,7.449,21.339
		C72.538,159.643,79.583,162.058,88.845,162.058z M250.5,183.8c-3.624,0-6.04-0.604-7.65-2.014c-1.61-1.207-3.02-4.027-4.228-7.852
		L191.313,18.317c-1.208-4.025-1.812-6.645-1.812-8.053c0-3.221,1.611-5.033,4.832-5.033h19.729c3.825,0,6.442,0.604,7.852,2.014
		c1.61,1.207,2.818,4.025,4.026,7.851l33.821,133.271l31.405-133.271c1.007-4.026,2.214-6.644,3.825-7.851
		c1.61-1.209,4.429-2.014,8.053-2.014h16.104c3.826,0,6.443,0.604,8.053,2.014c1.611,1.207,3.021,4.025,3.826,7.851l31.809,134.882
		l34.828-134.882c1.207-4.026,2.615-6.644,4.023-7.851c1.611-1.209,4.23-2.014,7.854-2.014h18.723c3.221,0,5.033,1.609,5.033,5.033
		c0,1.007-0.203,2.013-0.404,3.221s-0.604,2.818-1.408,5.033l-48.518,155.617c-1.207,4.025-2.617,6.644-4.229,7.852
		c-1.609,1.208-4.227,2.014-7.648,2.014h-17.314c-3.824,0-6.439-0.604-8.053-2.014c-1.609-1.41-3.02-4.025-3.824-8.053
		l-31.203-129.85l-31.003,129.648c-1.006,4.025-2.214,6.645-3.825,8.053c-1.611,1.409-4.429,2.014-8.053,2.014H250.5L250.5,183.8z
		 M509.191,189.235c-10.467,0-20.936-1.208-31.002-3.624c-10.064-2.415-17.918-5.032-23.15-8.052
		c-3.223-1.813-5.436-3.825-6.24-5.637c-0.807-1.813-1.209-3.825-1.209-5.637v-10.268c0-4.229,1.609-6.241,4.631-6.241
		c1.207,0,2.416,0.201,3.623,0.604c1.209,0.402,3.02,1.207,5.033,2.013c6.846,3.021,14.293,5.437,22.145,7.046
		c8.053,1.611,15.904,2.416,23.957,2.416c12.684,0,22.547-2.214,29.393-6.645c6.846-4.429,10.469-10.871,10.469-19.125
		c0-5.637-1.813-10.267-5.436-14.092c-3.625-3.824-10.469-7.248-20.334-10.469l-29.189-9.059
		c-14.695-4.631-25.566-11.476-32.211-20.534c-6.645-8.858-10.064-18.722-10.064-29.191c0-8.454,1.813-15.903,5.436-22.346
		s8.455-12.079,14.494-16.508c6.039-4.63,12.885-8.052,20.938-10.468s16.508-3.422,25.365-3.422c4.43,0,9.061,0.2,13.488,0.805
		c4.631,0.604,8.857,1.408,13.086,2.214c4.025,1.007,7.852,2.013,11.475,3.221c3.625,1.208,6.441,2.416,8.455,3.624
		c2.818,1.611,4.832,3.221,6.041,5.033c1.207,1.609,1.811,3.824,1.811,6.643v9.463c0,4.228-1.609,6.441-4.631,6.441
		c-1.609,0-4.227-0.805-7.648-2.416c-11.477-5.234-24.359-7.852-38.652-7.852c-11.477,0-20.533,1.813-26.775,5.638
		c-6.24,3.825-9.461,9.663-9.461,17.917c0,5.637,2.014,10.469,6.039,14.293c4.025,3.825,11.477,7.65,22.146,11.072l28.586,9.06
		c14.494,4.63,24.963,11.072,31.203,19.326s9.262,17.716,9.262,28.185c0,8.656-1.813,16.508-5.234,23.353
		c-3.623,6.845-8.455,12.884-14.695,17.716c-6.24,5.033-13.689,8.657-22.348,11.274
		C528.921,187.826,519.458,189.235,509.191,189.235z"/>
	<g>
		<path fill="#FF9900" d="M547.24,287.075c-66.23,48.919-162.461,74.89-245.202,74.89c-115.958,0-220.441-42.881-299.356-114.146
			c-6.241-5.637-0.604-13.287,6.845-8.858c85.358,49.524,190.646,79.521,299.559,79.521c73.479,0,154.207-15.301,228.492-46.706
			C548.65,266.742,558.111,279.022,547.24,287.075z"/>
		<path fill="#FF9900" d="M574.82,255.669c-8.455-10.87-55.965-5.233-77.506-2.616c-6.441,0.805-7.449-4.832-1.609-9.061
			c37.848-26.573,100.055-18.924,107.301-10.064c7.248,9.059-2.014,71.266-37.445,101.061c-5.436,4.63-10.668,2.214-8.254-3.825
			C565.359,311.232,583.275,266.339,574.82,255.669z"/>
	</g>
</g>
</svg>
