<?xml version="1.0" encoding="utf-8"?>
<!-- Generator: Adobe Illustrator 16.0.3, SVG Export Plug-In . SVG Version: 6.00 Build 0)  -->
<!DOCTYPE svg PUBLIC "-//W3C//DTD SVG 1.1//EN" "http://www.w3.org/Graphics/SVG/1.1/DTD/svg11.dtd">
<svg version="1.1" id="Layer_1" xmlns="http://www.w3.org/2000/svg" xmlns:xlink="http://www.w3.org/1999/xlink" x="0px" y="0px"
	 width="137.49px" height="129.552px" viewBox="6.255 10.224 137.49 129.552" enable-background="new 6.255 10.224 137.49 129.552"
	 xml:space="preserve">
<linearGradient id="SVGID_1_" gradientUnits="userSpaceOnUse" x1="-959.1533" y1="285.3076" x2="-986.1943" y2="365.1936" gradientTransform="matrix(1.5625 0 0 1.5625 1565.5938 -425.9688)">
	<stop  offset="0" style="stop-color:#114A8B"/>
	<stop  offset="1" style="stop-color:#0669BC"/>
</linearGradient>
<path fill="url(#SVGID_1_)" d="M52.091,10.225h40.685L50.541,135.361c-0.89,2.637-3.362,4.412-6.145,4.412H12.733
	c-3.577,0-6.477-2.898-6.478-6.476c0-0.704,0.115-1.403,0.34-2.071L45.944,14.638c0.89-2.638,3.363-4.414,6.147-4.414V10.225z"/>
<path fill="#0078D4" d="M111.211,94.158H46.695c-1.649-0.002-2.987,1.333-2.989,2.982c-0.001,0.83,0.343,1.622,0.95,2.188
	l41.456,38.693c1.207,1.127,2.796,1.752,4.447,1.752h36.531L111.211,94.158z"/>
<linearGradient id="SVGID_2_" gradientUnits="userSpaceOnUse" x1="-950.7051" y1="322.5361" x2="-956.9601" y2="324.6511" gradientTransform="matrix(1.5625 0 0 1.5625 1565.5938 -425.9688)">
	<stop  offset="0" style="stop-color:#000000;stop-opacity:0.3"/>
	<stop  offset="0.071" style="stop-color:#000000;stop-opacity:0.2"/>
	<stop  offset="0.321" style="stop-color:#000000;stop-opacity:0.1"/>
	<stop  offset="0.623" style="stop-color:#000000;stop-opacity:0.05"/>
	<stop  offset="1" style="stop-color:#000000;stop-opacity:0"/>
</linearGradient>
<path fill="url(#SVGID_2_)" d="M52.091,10.225c-2.817-0.011-5.313,1.812-6.161,4.499L6.644,131.12
	c-1.206,3.362,0.542,7.067,3.905,8.273c0.706,0.253,1.451,0.382,2.202,0.38h32.479c2.463-0.439,4.499-2.171,5.328-4.531
	l7.834-23.089l27.985,26.102c1.172,0.97,2.644,1.507,4.165,1.519h36.396l-15.963-45.615l-46.532,0.011l28.479-83.944H52.091z"/>
<linearGradient id="SVGID_3_" gradientUnits="userSpaceOnUse" x1="-953.9507" y1="282.9072" x2="-924.2679" y2="361.9874" gradientTransform="matrix(1.5625 0 0 1.5625 1565.5938 -425.9688)">
	<stop  offset="0" style="stop-color:#3CCBF4"/>
	<stop  offset="1" style="stop-color:#2892DF"/>
</linearGradient>
<path fill="url(#SVGID_3_)" d="M104.055,14.631c-0.889-2.634-3.357-4.407-6.138-4.406H52.575c2.779,0,5.249,1.773,6.137,4.406
	l39.35,116.593c1.145,3.391-0.676,7.066-4.066,8.21c-0.667,0.226-1.367,0.341-2.071,0.341h45.344
	c3.578-0.002,6.478-2.902,6.477-6.48c-0.001-0.704-0.115-1.402-0.341-2.07L104.055,14.631z"/>
</svg>
