<?xml version="1.0" encoding="utf-8"?>
<!-- Generator: Adobe Illustrator 27.3.1, SVG Export Plug-In . SVG Version: 6.00 Build 0)  -->
<svg version="1.1" id="Layer_1" xmlns="http://www.w3.org/2000/svg" xmlns:xlink="http://www.w3.org/1999/xlink" x="0px" y="0px"
	 viewBox="0 0 176 46" style="enable-background:new 0 0 176 46;" xml:space="preserve">
<style type="text/css">
	.st0{fill:#FFFFFF;}
	.st1{fill:#0E548B;}
	.st2{fill:#F4792B;}
</style>
<path class="st0" d="M24.1,26.1c0.2-3.2,1.7-6,4-7.8c2.3-2,5.3-3.2,8.6-3.2c3.3,0,6.5,1.2,8.6,3.2c2.3,2,3.8,4.6,4,7.8
	s-1.2,6.1-3.3,8.5c-2.3,2.3-5.6,3.7-9.3,3.7s-7-1.5-9.3-3.7C25.1,32.2,23.8,29.2,24.1,26.1z"/>
<path class="st1" d="M29.5,25.9c0.1-1.9,1-3.6,2.4-4.7c1.4-1.2,3.2-1.9,5.2-1.9s3.9,0.7,5.2,1.9c1.4,1.2,2.3,2.8,2.4,4.7
	c0.1,1.9-0.7,3.7-2,5.1c-1.4,1.4-3.4,2.2-5.6,2.2s-4.2-0.9-5.6-2.2C30.1,29.6,29.3,27.8,29.5,25.9z"/>
<path class="st2" d="M17.3,29.7c0,0.7,0.2,2.2,0.6,3.3c0.7,2.4,2,4.6,3.8,6.5c1.8,2,4,3.6,6.6,4.7c2.7,1.2,5.6,1.8,8.6,1.8
	s5.9-0.6,8.6-1.8c2.6-1.1,4.8-2.8,6.6-4.7s3-4.1,3.8-6.5c0.4-1.2,0.6-2.4,0.7-3.6c0.1-1.2,0.1-2.4-0.1-3.6c-0.3-2.3-1.1-4.6-2.4-6.6
	c-1.2-1.9-2.6-3.5-4.4-4.8l0,0L31.9,0.7l0,0c-1.2-0.9-3.1-0.9-4.4,0S26.1,3.1,27.2,4l0,0l7.4,6H12.1l0,0c-1.9,0-3.6,1.2-4,2.8
	c-0.4,1.6,0.9,2.9,2.8,2.9l0,0h11.4L1.9,31.3v0.1c-1.9,1.5-2.5,3.9-1.3,5.5c1.2,1.6,3.8,1.6,5.8,0l11.1-9.1
	C17.4,27.8,17.3,29,17.3,29.7z M45.8,33.8c-2.3,2.3-5.5,3.7-9,3.7s-6.7-1.3-9-3.6c-1.1-1.1-1.9-2.4-2.4-3.8s-0.7-2.8-0.6-4.3
	c0.1-1.4,0.5-2.8,1.2-4s1.6-2.3,2.7-3.2c2.2-1.8,5.1-2.8,8-2.8c3,0,5.8,1,8,2.8c1.1,0.9,2,2,2.7,3.2s1.1,2.6,1.2,4
	c0.1,1.5-0.1,2.9-0.6,4.3C47.7,31.4,46.9,32.7,45.8,33.8z"/>
<path class="st1" d="M150.8,25.9c0.2-1.9,1.6-3.1,3.9-3.1c2.3,0,3.7,1.2,3.9,3.1H150.8z M158.4,30.6c-0.6,1.4-1.9,2.3-3.8,2.3
	c-2.3,0-3.9-1.4-3.9-3.7h13.2v-0.7c0-5.7-3.4-8.9-9.4-8.9c-5.8,0-9.4,3.2-9.4,8.3s3.6,8.3,9.4,8.3c3.5,0,6.2-1.2,7.8-3.3L158.4,30.6
	z M91.8,25.9c0.2-1.9,1.7-3.1,3.9-3.1c2.3,0,3.7,1.2,3.9,3.1H91.8z M99.4,30.6c-0.6,1.4-1.9,2.3-3.8,2.3c-2.3,0-3.9-1.4-3.9-3.7
	h13.2v-0.7c0-5.7-3.4-8.9-9.4-8.9c-5.8,0-9.4,3.2-9.4,8.3s3.6,8.4,9.4,8.4c3.5,0,6.2-1.2,7.8-3.3C103.4,32.9,99.4,30.6,99.4,30.6z
	 M80.2,16.1H85v19.6h-4.8V16.1z M106.1,21.3h4.8v1.2c1.7-1.8,3.8-2.7,6.1-2.7c2.7,0,4.7,0.9,5.7,2.5c0.9,1.3,0.9,2.9,0.9,4.9v8.6
	h-4.8v-7.5c0-3.1-0.6-4.6-3.4-4.6s-4.5,1.7-4.5,4.4v7.7h-4.8L106.1,21.3L106.1,21.3z M139.2,28.1c0,2.7-1.8,4.4-4.6,4.4
	s-4.6-1.7-4.6-4.4c0-2.8,1.8-4.5,4.6-4.5S139.2,25.4,139.2,28.1z M139.2,21.9c-1.2-1.3-3-2-5.4-2c-5.3,0-8.9,3.3-8.9,8.2
	c0,4.8,3.6,8.1,8.8,8.1c2.4,0,4.2-0.6,5.5-2v1.4h4.8V14.8l-4.8,1.2C139.2,16.1,139.2,21.9,139.2,21.9z M69.3,23.6
	c2.8,0,4.6,1.7,4.6,4.5c0,2.7-1.8,4.4-4.6,4.4c-2.8,0-4.6-1.8-4.6-4.4C64.7,25.4,66.5,23.6,69.3,23.6z M64.7,16.1l-4.8-1.3v20.9h4.8
	v-1.4c1.4,1.4,3.1,2,5.5,2c5.2,0,8.8-3.4,8.8-8.1c0-4.9-3.6-8.2-8.9-8.2c-2.5,0-4.2,0.7-5.4,2C64.7,21.9,64.7,16.1,64.7,16.1z
	 M165.1,35.7V21.3h4.8v0.9c1.4-1.7,3-2.6,4.7-2.6c0.3,0,0.8,0.1,1.4,0.1v4.1c-0.5-0.1-1-0.1-1.5-0.1c-2.8,0-4.5,1.9-4.5,5v7
	C170,35.7,165.1,35.7,165.1,35.7z"/>
</svg>
