<svg xmlns="http://www.w3.org/2000/svg" xml:space="preserve" style="fill-rule:evenodd;clip-rule:evenodd;stroke-linejoin:round;stroke-miterlimit:1.41421" viewBox="0 0 198 58"><path d="M180.513 16.271H59.868c-.074-.057-.141-.126-.212-.181-.018-.017-17.749-13.638-18.282-14.05l-.061-.046c-2.841-2.175-7.061-2.221-10.052-.125-1.871 1.309-2.995 3.289-3.079 5.431-.002.085-.007.171-.007.258 0 1.111.295 2.184.828 3.148l-11.012.011c-4.118.003-7.842 2.781-8.692 6.462a7.107 7.107 0 0 0-.182 1.588c0 1.54.512 3.033 1.481 4.259 1.091 1.371 2.665 2.294 4.461 2.654L4.684 33.645c-.037.027-.067.052-.093.069-2.08 1.598-3.45 3.912-3.76 6.348a8.3 8.3 0 0 0-.068 1.062c0 1.754.56 3.422 1.622 4.785 1.293 1.654 3.201 2.704 5.374 2.951 2.49.288 5.11-.51 7.183-2.186.013-.01 2.58-2.115 5.287-4.329a22.792 22.792 0 0 0 4.186 6.606c2.316 2.559 5.131 4.581 8.362 6.011 3.396 1.505 7.035 2.265 10.817 2.256 3.785-.007 7.422-.776 10.813-2.29 3.238-1.449 6.047-3.478 8.354-6.033.339-.378.651-.776.963-1.176h116.789c9.226 0 16.723-7.053 16.723-15.722 0-8.671-7.497-15.726-16.723-15.726Z" style="fill:#fefefe;fill-rule:nonzero"/><path d="M36.13 31.285c.106-1.891 1.032-3.557 2.429-4.738 1.37-1.16 3.214-1.869 5.226-1.869 2.01 0 3.854.709 5.225 1.869 1.396 1.181 2.322 2.847 2.429 4.736.106 1.943-.675 3.748-2.045 5.086-1.397 1.361-3.384 2.215-5.609 2.215s-4.216-.854-5.612-2.215c-1.371-1.338-2.15-3.143-2.043-5.084Z" style="fill:#0e548b;fill-rule:nonzero"/><path d="M23.94 35.106c.013.74.249 2.178.603 3.301.744 2.377 2.006 4.576 3.762 6.514 1.802 1.992 4.021 3.592 6.584 4.728 2.694 1.193 5.613 1.801 8.645 1.796a21.179 21.179 0 0 0 8.64-1.826c2.563-1.147 4.78-2.754 6.579-4.747 1.755-1.946 3.015-4.149 3.761-6.526.375-1.201.612-2.42.707-3.643a16.605 16.605 0 0 0-.117-3.618 16.819 16.819 0 0 0-2.399-6.565 18.316 18.316 0 0 0-4.376-4.825l.004-.003L38.622 6.093c-.016-.012-.029-.025-.046-.036-1.162-.892-3.116-.889-4.394.005-1.292.904-1.44 2.399-.29 3.342l-.005.005 7.387 6.007-22.515.024h-.03c-1.861.002-3.65 1.223-4.004 2.766-.364 1.572.9 2.876 2.835 2.883l-.003.007 11.412-.022L8.605 36.705l-.078.058c-1.921 1.471-2.542 3.917-1.332 5.465 1.228 1.574 3.839 1.577 5.78.009l11.114-9.096s-.162 1.228-.149 1.965Zm28.559 4.112c-2.29 2.333-5.496 3.656-8.965 3.663-3.474.006-6.68-1.305-8.97-3.634a10.665 10.665 0 0 1-2.448-3.832 9.95 9.95 0 0 1-.562-4.282 10.11 10.11 0 0 1 1.227-4.031 11.11 11.11 0 0 1 2.724-3.239c2.226-1.814 5.06-2.796 8.024-2.8 2.967-.004 5.799.969 8.027 2.777a11.067 11.067 0 0 1 2.721 3.229 10.115 10.115 0 0 1 1.232 4.029 9.975 9.975 0 0 1-.564 4.279 10.714 10.714 0 0 1-2.446 3.841Z" style="fill:#f4792b;fill-rule:nonzero"/><path d="M157.467 31.254c.171-1.908 1.646-3.118 3.899-3.118 2.256 0 3.73 1.21 3.901 3.118h-7.8Zm7.569 4.711c-.577 1.414-1.937 2.251-3.784 2.251-2.313 0-3.87-1.444-3.933-3.725h13.297v-.671c0-5.714-3.354-8.925-9.364-8.925-5.836 0-9.365 3.241-9.365 8.324 0 5.114 3.584 8.35 9.365 8.35 3.469 0 6.159-1.189 7.817-3.279l-4.033-2.325ZM98.468 31.263c.176-1.908 1.651-3.118 3.906-3.118 2.252 0 3.726 1.21 3.899 3.118h-7.805Zm7.574 4.711c-.578 1.418-1.937 2.255-3.788 2.255-2.309 0-3.87-1.448-3.931-3.73h13.294v-.667c0-5.717-3.353-8.929-9.363-8.929-5.839 0-9.361 3.242-9.361 8.325 0 5.114 3.582 8.35 9.361 8.35 3.468 0 6.16-1.185 7.821-3.278l-4.033-2.326ZM86.907 21.44h4.795v19.617h-4.795zM112.81 26.652h4.822v1.168c1.707-1.822 3.757-2.743 6.069-2.743 2.663 0 4.679.921 5.72 2.489.869 1.295.926 2.858.926 4.912v8.579h-4.829v-7.538c0-3.128-.629-4.572-3.375-4.572-2.775 0-4.511 1.653-4.511 4.428v7.682h-4.822V26.652ZM145.876 33.462c0 2.685-1.794 4.446-4.57 4.446-2.778 0-4.572-1.701-4.572-4.415 0-2.754 1.77-4.454 4.572-4.454 2.776 0 4.57 1.73 4.57 4.423Zm0-6.157c-1.219-1.307-2.983-2.024-5.435-2.024-5.29 0-8.902 3.262-8.902 8.151 0 4.793 3.587 8.146 8.815 8.146 2.397 0 4.157-.606 5.522-1.965v1.444h4.825V20.196l-4.825 1.244v5.865ZM75.947 29.039c2.804 0 4.567 1.7 4.567 4.454 0 2.714-1.791 4.415-4.567 4.415-2.774 0-4.566-1.761-4.566-4.446 0-2.693 1.792-4.423 4.566-4.423Zm-4.566-7.599-4.827-1.244v20.861h4.827v-1.444c1.358 1.359 3.121 1.965 5.52 1.965 5.231 0 8.813-3.353 8.813-8.146 0-4.889-3.613-8.151-8.9-8.151-2.457 0-4.22.717-5.433 2.024V21.44ZM171.806 41.057V26.652h4.825v.89c1.445-1.74 2.974-2.606 4.713-2.606.345 0 .779.056 1.356.113v4.107c-.465-.061-.983-.061-1.533-.061-2.805 0-4.536 1.85-4.536 4.996v6.966h-4.825ZM188.956 24.952h-.371l.013-1.321.02-.437-.1.36-.438 1.398h-.338l-.43-1.398-.108-.354.026.431.013 1.321h-.363v-2.14h.508l.535 1.688.523-1.688h.51v2.14Zm-2.932 0h-.373v-1.823h-.688v-.317h1.736v.317h-.675v1.823Z" style="fill:#0e548b;fill-rule:nonzero"/></svg>