<?xml version="1.0" encoding="utf-8"?>
<!-- Generator: Adobe Illustrator 27.3.1, SVG Export Plug-In . SVG Version: 6.00 Build 0)  -->
<svg version="1.1" id="Layer_1" xmlns="http://www.w3.org/2000/svg" xmlns:xlink="http://www.w3.org/1999/xlink" x="0px" y="0px"
	 viewBox="0 0 306.4 63" style="enable-background:new 0 0 306.4 63;" xml:space="preserve">
<style type="text/css">
	.st0{fill:#FFFFFF;}
	.st1{fill:#F24C53;}
</style>
<path class="st0" d="M102.8,30.1c3.1-1.3,4.5-3.2,4.5-6.5v-4.2c0-5.4-3.1-8.6-10.7-8.6H80.8v40.3h16.9c7.3,0,11-3.6,11-9.2v-4.3
	c0.1-1.7-0.4-3.5-1.5-4.8C106.1,31.3,104.6,30.4,102.8,30.1z M88.4,17.1h7.3c2.8,0,4,1,4,3.3v3.6c0,2.4-1.1,3.8-4.1,3.8h-7.3V17.1z
	 M101.1,40.9c0,3-1.5,3.9-4.9,3.9h-7.8v-11h8.5c3,0,4.2,1.3,4.2,4.1V40.9z"/>
<path class="st0" d="M124.7,21c-10.1,0-12.8,5.6-12.8,11.6v7.5c0,6,2.7,11.6,12.8,11.6s12.8-5.6,12.8-11.6v-7.5
	C137.6,26.6,134.8,21,124.7,21z M130.2,40.3c0,3.3-1.5,5.1-5.4,5.1c-3.9,0-5.4-1.8-5.4-5.1v-7.9c0-3.3,1.5-5.1,5.4-5.1
	s5.4,1.8,5.4,5.1V40.3z"/>
<path class="st0" d="M159.7,21.6v20.5c-2.7,1.4-5.9,2.5-7.7,2.5c-1.8,0-2.3-0.8-2.3-2.4V21.6h-7.4V43c0,5.3,1.8,8.7,6.7,8.7
	c4.1-0.2,8.1-1.2,11.8-3.1l0.7,2.5h5.6V21.6H159.7z"/>
<path class="st0" d="M191.6,21c-4.1,0.2-8.1,1.3-11.8,3.1l-0.7-2.5h-5.6v29.5h7.4V30.6c2.7-1.4,5.9-2.5,7.7-2.5
	c1.8,0,2.3,0.8,2.3,2.3v20.6h7.4V29.7C198.2,24.4,196.5,21,191.6,21z"/>
<path class="st0" d="M220.7,9.6v12.3c-2.6-0.5-5.2-0.8-7.9-0.9c-6.8,0-9.7,3.9-9.7,10.4v10c0,6.7,3.1,10.2,9.1,10.2
	c3.4,0,6.6-1.1,9.3-3.1l0.7,2.6h5.9V8.5L220.7,9.6z M220.7,42.7c-1.8,1.6-4.1,2.6-6.6,2.7c-2.7,0-3.6-1.3-3.6-3.8V31.2
	c0-2.7,1-3.9,3.7-3.9c2.2,0,4.4,0.3,6.5,0.8V42.7z"/>
<path class="st0" d="M244,21c-3.4,0-6.8,0.5-10.1,1.4l0.9,5.6c2.7-0.6,5.4-0.9,8.2-0.9c4.7,0,5.6,1.1,5.6,4.4v3.1h-7.1
	c-6,0-8.6,2.3-8.6,8.3c0,5.1,2.3,8.8,7.7,8.8c3.1,0,6.2-0.9,8.8-2.6l0.5,2h6.1V31.6C256,24.3,253.2,21,244,21z M248.6,44.3
	c-1.7,1-3.6,1.5-5.6,1.5c-2.3,0-3-0.9-3-3c0-2.2,0.7-2.9,3.1-2.9h5.4L248.6,44.3z"/>
<path class="st0" d="M276.2,21c-2.7,1-5.3,2.3-7.8,3.9l-0.5-3.3h-6.3v29.5h7.4v-19c2.5-1.6,5.1-3.1,7.8-4.3L276.2,21z"/>
<path class="st0" d="M298.9,21.6L292.1,44l-6.7-22.4h-7.6l9.3,29.5h2.6L286,63h7l4-11.9l9.4-29.5L298.9,21.6z"/>
<path class="st1" d="M8,61.8V57h10v-3h-4.8v-4.8H36L25.4,30.9L36,12.6H12.6V38H0V0h43.3l7.2,12.5L39.9,30.9l10.8,18.8l-7,12.1H8z"/>
<path class="st1" d="M10,49.3H5.1v4.8H10V49.3z"/>
<path class="st1" d="M4.8,57H0v4.8h4.8V57z"/>
</svg>
