<?xml version="1.0" encoding="utf-8"?>
<!-- Generator: Adobe Illustrator 27.3.1, SVG Export Plug-In . SVG Version: 6.00 Build 0)  -->
<svg version="1.1" id="Layer_1" xmlns="http://www.w3.org/2000/svg" xmlns:xlink="http://www.w3.org/1999/xlink" x="0px" y="0px"
	 viewBox="0 0 113 33.7" style="enable-background:new 0 0 113 33.7;" xml:space="preserve">
<style type="text/css">
	.st0{fill:#543729;}
	.st1{fill:#00ACEE;}
	.st2{fill:#2BAF2B;}
	.st3{fill:#FFCC2F;}
	.st4{fill:#CECECE;}
	.st5{fill:#EF5734;}
	.st6{fill:#FFFFFF;}
</style>
<g transform="matrix(.082991 0 0 .082991 3.524975 13.127478)">
	<path class="st0" d="M411.2,40.4C387.4,17.6,268.5,3.3,230.9-0.9c1.8-4.3,3.4-8.7,4.6-13.3c5.1-2.2,10.6-4.3,16.4-6.1
		c0.7,2.1,4,9.9,5.8,13.7c75.5,2.1,79.4-56.1,82.4-72c3-15.6,2.9-30.6,28.7-58.2c-38.6-11.2-94,17.4-112.6,60.1
		c-7-2.6-14-4.5-20.9-5.7c-5-20-30.8-75.7-98.6-75.7C51-158.2-42.5-87.4-42.5,32.4c0,100.7,68.8,189,107.6,189
		c17,0,31.6-12.7,35-24.1l14.6,38.3c4.3,9.1,24.1,17,32.7,7.6c11.1,6.2,31.6,9.9,42.7-6.6c21.4,4.5,40.4-8.3,40.8-23.5
		c10.5-0.6,15.7-15.3,13.4-27.1c-1.7-8.7-19.8-39.7-26.8-50.5c14,11.4,49.4,14.6,53.7,0c22.5,17.7,57.6,8.4,60.4-6
		c27.4,7.1,58.8-8.5,53.6-27.4C429.2,99.1,423.6,52.3,411.2,40.4L411.2,40.4z"/>
	<path class="st1" d="M288.8-59.4c9.5-18.8,21.4-39.3,36.4-52c-16.5,6.7-32.9,26.6-42.5,47.9c-4.8-3.1-9.8-5.9-15-8.4
		c13.5-28.8,44.8-52.8,79.3-54.7c-23.1,21-14.9,64.5-33.9,87.6C307.6-44.3,295.1-54.9,288.8-59.4L288.8-59.4z M273.8-28.8
		c0-0.7,0.3-6.3,0.8-8.8c-1.3-0.3-9.6-1.9-13.9-1.8c-0.3,5.4,2.3,14.6,4.8,20.1c17.6-0.4,30.2-5.6,37.7-10.5
		c-6.4-3-17.2-5.6-25.4-7.2C276.9-35,274.7-30.2,273.8-28.8L273.8-28.8z"/>
	<path class="st2" d="M208.6,119.9C208.6,119.9,208.6,120,208.6,119.9c-2.2-4.7-4.6-10.5-7.4-18.1c11,16,45.4,7.7,43.6-6.6
		c16.9,12.7,51.6-2.1,43.7-19.9c16.9,7.9,36.2-8,31.8-14.9l65,13.3c-5.8,9.4-18.9,16-38.6,11.4c10.7,14.5-10,32-38.9,22.4
		c6.4,14.3-19.3,27.1-48.5,12.2C259.7,134.1,223.1,135.7,208.6,119.9L208.6,119.9z M265.7,47.8c33.4,2.6,88.7,7.5,122.9,12.3
		c-2.2-11.1-8.1-14.3-26.6-19.3C342,42.9,291.3,47.9,265.7,47.8L265.7,47.8z"/>
	<path class="st3" d="M244.8,95.2c16.9,12.7,51.6-2.1,43.7-19.9c16.9,7.9,36.2-8,31.8-14.9l-77.8-14.3c4.9,0.3,13.1,0.8,23.2,1.6
		c25.6,0.1,76.3-4.8,96.2-7c-32.3-8.2-98.4-20.2-143.9-23.1c-2.1,3.1-6,8.3-12.8,13.9c-19.9,42.2-56.1,70.3-96.1,70.3
		c-11.7,0-24.7-2-39.3-6.6c-9.1,9.8-48,17.2-79.5,1.7c25,58.6,83,97.7,147.2,97.7c54.1,0,78-55.2,72.8-69.8
		c-1.3-3.5-6.3-15.3-9.1-22.9C212.2,117.8,246.6,109.6,244.8,95.2L244.8,95.2z"/>
	<path class="st4" d="M212.1-15.9c4.8-2.6,21.3-12.6,37-16.4c-0.2-1.7-0.4-3.5-0.5-5.3c-10.3,2.5-29.8,10.8-40.9-0.7
		c23.5,7.1,35.2-6.3,52.5-6.3c10.3,0,25,2.9,36.6,7.4c-9.3-8.6-39.9-34.6-77.7-34.7C210.6-61.5,201.5-39.4,212.1-15.9L212.1-15.9z"
		/>
	<path class="st5" d="M69.8,95.2c14.6,4.7,27.7,6.6,39.3,6.6c40,0,76.1-28.1,96.1-70.3c-14.8,12.3-40.4,22.9-80.4,22.9
		c35.7-8.1,66.4-25.9,82-51.8c-11-17.5-22.9-56.1,7.3-86.7c-4.6-14.9-27.2-54.2-77.2-54.2c-87.2,0-159.5,73-159.5,170.8
		c0,23.2,4.7,44.9,13,64.4C21.9,112.3,60.7,104.9,69.8,95.2L69.8,95.2z"/>
	<path class="st3" d="M96-53.8c0,22.3,18,40.3,40.3,40.3s40.3-18,40.3-40.3s-18-40.3-40.3-40.3S96-76,96-53.8z"/>
	<path class="st0" d="M112.2-53.8c0,13.3,10.8,24.1,24.1,24.1s24.1-10.8,24.1-24.1s-10.8-24.1-24.1-24.1S112.2-67.1,112.2-53.8z"/>
	<ellipse class="st6" cx="136.3" cy="-64.5" rx="14.1" ry="8.7"/>
</g>
<path class="st5" d="M45.5,15.1v-3.9h3.5c0.3,0,0.6,0,0.9,0.1c0.3,0,0.6,0.1,0.8,0.3c0.2,0.1,0.4,0.3,0.6,0.6c0.1,0.3,0.2,0.6,0.2,1
	c0,0.7-0.2,1.2-0.6,1.5c-0.4,0.3-1,0.5-1.6,0.5L45.5,15.1z M41.8,8.3v16.8h8.2c0.8,0,1.5-0.1,2.2-0.3c0.7-0.2,1.4-0.5,1.9-0.9
	c0.6-0.4,1-0.9,1.3-1.5c0.3-0.6,0.5-1.4,0.5-2.2c0-1.1-0.3-1.9-0.8-2.7c-0.5-0.8-1.3-1.3-2.3-1.6c0.8-0.4,1.3-0.8,1.7-1.4
	c0.4-0.6,0.6-1.3,0.6-2.1c0-0.8-0.1-1.4-0.4-2c-0.3-0.5-0.6-1-1.1-1.3c-0.5-0.3-1-0.6-1.7-0.7c-0.7-0.1-1.4-0.2-2.2-0.2L41.8,8.3z
	 M45.5,22.3v-4.6h4c0.8,0,1.4,0.2,1.9,0.6c0.5,0.4,0.7,1,0.7,1.8c0,0.4-0.1,0.8-0.2,1.1c-0.1,0.3-0.3,0.5-0.6,0.7
	c-0.3,0.2-0.5,0.3-0.9,0.4c-0.3,0.1-0.7,0.1-1,0.1L45.5,22.3z M61,19.1c0-0.5,0-1,0.1-1.4c0.1-0.5,0.2-0.9,0.5-1.2
	c0.2-0.4,0.5-0.7,0.9-0.9c0.4-0.2,0.8-0.4,1.4-0.4c0.6,0,1,0.1,1.4,0.4c0.4,0.2,0.7,0.5,0.9,0.9c0.2,0.4,0.4,0.8,0.5,1.2
	c0.1,0.5,0.1,1,0.1,1.4c0,0.5,0,1-0.1,1.4c-0.1,0.5-0.3,0.9-0.5,1.2c-0.2,0.4-0.5,0.7-0.9,0.9c-0.4,0.2-0.8,0.3-1.4,0.3
	c-0.6,0-1-0.1-1.4-0.3c-0.4-0.2-0.7-0.5-0.9-0.9c-0.2-0.4-0.4-0.8-0.5-1.2C61,20,61,19.5,61,19.1z M57.6,19.1c0,1,0.1,1.9,0.4,2.6
	c0.3,0.8,0.7,1.5,1.3,2c0.5,0.5,1.2,1,2,1.3c0.8,0.3,1.6,0.4,2.6,0.4c1,0,1.8-0.1,2.6-0.4c0.8-0.3,1.5-0.7,2-1.3
	c0.6-0.6,1-1.2,1.3-2c0.3-0.8,0.4-1.7,0.4-2.6c0-1-0.1-1.9-0.4-2.6c-0.3-0.8-0.7-1.5-1.3-2c-0.5-0.6-1.2-1-2-1.3
	c-0.8-0.3-1.6-0.5-2.6-0.5c-1,0-1.8,0.2-2.6,0.5c-0.8,0.3-1.4,0.7-2,1.3c-0.5,0.6-1,1.2-1.3,2C57.8,17.2,57.6,18.1,57.6,19.1z
	 M86.3,25.1L90.2,13h-3.4l-2.2,8.2h0l-2.1-8.2h-3.2l-2,8.3h0l-2.2-8.3h-3.5l3.9,12.2h3.5l2.1-8.2h0l2.2,8.2L86.3,25.1z M99.8,17.7
	h-5.4c0-0.2,0.1-0.5,0.1-0.8c0.1-0.3,0.2-0.6,0.4-0.8c0.2-0.3,0.5-0.5,0.8-0.7c0.4-0.2,0.8-0.3,1.3-0.3c0.8,0,1.4,0.2,1.8,0.7
	C99.3,16.2,99.6,16.9,99.8,17.7L99.8,17.7z M94.3,19.9h8.8c0.1-0.9,0-1.8-0.2-2.7c-0.2-0.9-0.6-1.6-1.1-2.3
	c-0.5-0.7-1.1-1.2-1.9-1.6c-0.8-0.4-1.7-0.6-2.7-0.6c-0.9,0-1.8,0.2-2.5,0.5c-0.8,0.3-1.4,0.8-2,1.4c-0.5,0.6-1,1.2-1.3,2
	c-0.3,0.8-0.4,1.6-0.4,2.5c0,0.9,0.1,1.8,0.4,2.6c0.3,0.8,0.7,1.5,1.2,2c0.5,0.6,1.2,1,2,1.3c0.8,0.3,1.6,0.4,2.6,0.4
	c1.4,0,2.6-0.3,3.5-0.9c1-0.6,1.7-1.7,2.2-3.1H100c-0.1,0.4-0.4,0.7-0.9,1.1C98.6,22.8,98,23,97.3,23c-0.9,0-1.7-0.2-2.2-0.7
	C94.7,21.7,94.4,21,94.3,19.9L94.3,19.9z M105.1,12.9v12.2h3.3v-5.5c0-0.5,0.1-1.1,0.2-1.5c0.1-0.5,0.3-0.9,0.5-1.2
	c0.3-0.4,0.6-0.6,1-0.8c0.4-0.2,0.9-0.3,1.6-0.3c0.2,0,0.4,0,0.6,0c0.2,0,0.4,0,0.6,0.1v-3.1c-0.3-0.1-0.5-0.1-0.7-0.1
	c-0.4,0-0.8,0.1-1.2,0.2c-0.4,0.1-0.8,0.3-1.1,0.5c-0.3,0.2-0.7,0.5-0.9,0.8c-0.3,0.3-0.5,0.7-0.6,1h0v-2.3H105.1z"/>
</svg>
