<?xml version="1.0" encoding="utf-8"?>
<!-- Generator: Adobe Illustrator 27.3.1, SVG Export Plug-In . SVG Version: 6.00 Build 0)  -->
<svg version="1.1" id="emoji" xmlns="http://www.w3.org/2000/svg" xmlns:xlink="http://www.w3.org/1999/xlink" x="0px" y="0px"
	 viewBox="0 0 58.4 50.9" style="enable-background:new 0 0 58.4 50.9;" xml:space="preserve">
<style type="text/css">
	.st0{fill:#F4AA41;}
	.st1{fill:#EA5A47;}
	.st2{fill:#3F3F3F;}
	.st3{fill:none;stroke:#000000;stroke-width:2;stroke-linecap:round;stroke-linejoin:round;stroke-miterlimit:10;}
</style>
<g id="color">
	<path class="st0" d="M16.9,4l-4.5,1.7l-7.2,8.5L0.6,25l2,5.2c1.3,3.8,3.5,7.2,7.2,10l2.5-3.3c0,0,3.8,7.7,10.7,9
		c0,0,10.3,1.9,15.6-0.9c3.4-1.8,4.4-4.4,4.4-4.4l3.4-3.4l1.6,2.3l2.1-0.1l5.4-7.2l1.8-5.4l-0.2-4.5l-2.3-5.5L50,9.4
		c0,0-2.7-4.9-8.2-3.9c0,0-6.5-4.8-11.8-4.1S25.4,0.1,16.9,4z"/>
	<polygon class="st1" points="29.4,36.7 26.3,39.1 23.8,39.1 23.7,43 24.4,46.5 25.5,48.4 28.4,49.9 32.9,49.3 34.5,47.5 35.5,43.3 
		35.3,39.3 33.3,39.5 	"/>
	<polygon class="st2" points="25.9,26.4 24.3,30.1 26.4,31.4 27.7,31.9 32,32 34.9,29.8 33.2,26.5 	"/>
</g>
<g id="hair">
</g>
<g id="skin">
</g>
<g id="skin-shadow">
</g>
<g id="line">
	<path d="M22.9,19.6c0,0-1.8,1.2-2.7,0.7c-0.9-0.6-1.2-1.8-0.7-2.7s1.8-1.2,2.7-0.7S22.9,19.6,22.9,19.6z"/>
	<path class="st3" d="M26.5,26.5h6.1c0.4,0,0.8,0.2,0.9,0.6l1.2,2.7l-2.2,1.1c-0.6,0.3-1.4-0.1-1.5-0.8"/>
	<path class="st3" d="M28.1,30.2c-0.1,0.6-0.8,1-1.4,0.7l-2.3-1l1.1-2.9c0.1-0.4,0.5-0.6,0.9-0.6"/>
	<path class="st3" d="M23.8,39.5c0,0-0.7,8.8,3,9.9c2.6,0.8,5.1,0.5,6.1-0.2c0.9-0.8,2.6-4.5,1.8-9.7"/>
	<path d="M37.6,19.6c0,0,1.8,1.2,2.7,0.7s1.2-1.8,0.7-2.7c-0.6-0.9-1.8-1.2-2.7-0.7S37.6,19.6,37.6,19.6z"/>
	<path class="st3" d="M19,32.3c-0.5,3.6,2.2,5.8,4.3,6.8c1.2,0.6,2.7,0.5,3.7-0.3l2.6-2l2.6,2c1.1,0.8,2.5,1,3.7,0.3
		c2.1-1.1,4.8-3.2,4.3-6.8"/>
	<path class="st3" d="M13.3,17.8c-2.3,5.2-0.5,13,0.1,15.4c0.1,0.5,0.1,0.9-0.1,1.4l-2,4.2c-0.6,1.3-2.4,1.6-3.3,0.4
		c-3.2-3.8-8.6-11.4-6.5-16.7C8.5,3.9,17.3,4.4,17.3,4.4c2.8-1.9,13.1-6.9,24.8,0.9c0,0,8.6-1.7,14.9,16.9
		c1.8,5.3-3.4,12.9-6.6,16.6c-0.9,1.1-2.7,0.9-3.3-0.4l-2-4.2c-0.2-0.4-0.2-0.9-0.1-1.4c0.6-2.4,2.4-10.2,0.1-15.4"/>
	<path class="st3" d="M46,35.9c0,0-3.1,6.7-7.8,8.3"/>
	<path class="st3" d="M12.8,36.4c0,0,3.1,6.1,7.8,7.6"/>
	<line class="st3" x1="29.6" y1="36.8" x2="29.6" y2="33.8"/>
</g>
</svg>
