<svg width="144" height="24" viewBox="0 0 144 24" fill="none" xmlns="http://www.w3.org/2000/svg">
<g clip-path="url(#clip0_1190_319)">
<path d="M45.0559 17.984H53.0079C56.9439 17.984 58.8959 16.368 58.8959 13.12C58.8959 11.392 58.0319 10.032 56.5919 9.424V9.376C57.6639 8.8 58.3039 7.664 58.3039 6.304C58.3039 3.824 56.3199 2.08 53.5999 2.08H45.0559V17.984ZM47.9999 8.576V4.656H53.0719C54.5439 4.656 55.3759 5.344 55.3759 6.592C55.3759 7.904 54.6079 8.576 53.0719 8.576H47.9999ZM47.9999 15.36V10.912H53.2319C55.0719 10.912 55.9679 11.632 55.9679 13.12C55.9679 14.608 55.1199 15.36 53.1999 15.36H47.9999ZM60.7199 12.928C60.7199 16.288 62.7679 18.32 66.1119 18.32C67.9039 18.32 69.3439 17.744 70.3519 16.736H70.3999V17.984H73.1199V5.936H70.3039V12.48C70.3039 14.416 68.8639 15.776 66.8479 15.776C64.8159 15.776 63.5519 14.576 63.5519 12.48V5.936H60.7359V12.928H60.7199ZM75.6159 17.984H78.4319V5.936H75.6159V17.984ZM75.5039 3.888H78.5119V1.008H75.5039V3.888ZM80.9759 17.984H83.7919V1.392H80.9759V17.984ZM85.9039 11.952C85.9039 15.68 88.6079 18.32 92.4159 18.32C94.2079 18.32 95.6959 17.728 96.6239 16.704H96.6719V17.984H99.3279V1.392H96.5119V7.072H96.4639C95.4879 6.144 93.9999 5.6 92.3039 5.6C88.6239 5.6 85.9039 8.352 85.9039 11.952ZM96.5119 12.736C96.5119 14.448 94.7999 15.856 92.6879 15.856C90.3039 15.856 88.7199 14.336 88.7199 11.968C88.7199 9.6 90.2879 8.08 92.6559 8.08C94.7519 8.08 96.4959 9.44 96.4959 11.152V12.736H96.5119ZM101.824 17.984H104.64V14.528L106.944 12.576H106.992L111.392 17.984H114.896L108.928 10.832L114.64 5.952H110.608L104.688 11.104H104.64V1.392H101.824V17.984ZM116.448 17.984H119.264V5.936H116.448V17.984ZM116.336 3.888H119.344V1.008H116.336V3.888ZM130.272 8.352V5.936H126.384V3.024H123.568V5.936H120.784V8.352H123.568V14.512C123.568 16.944 124.688 17.984 127.44 17.984H129.76V15.392H127.664C126.656 15.392 126.384 15.168 126.384 14.368V8.352H130.272ZM131.072 12C131.072 15.824 133.648 18.32 137.712 18.32C140.192 18.32 142.128 17.408 143.52 15.616L141.632 13.936C140.512 15.328 139.312 15.984 137.696 15.984C135.488 15.984 133.968 14.752 133.872 12.864H144V12.016C144 8.352 141.424 5.584 137.552 5.584C133.68 5.6 131.072 8.256 131.072 12ZM133.92 10.816C134.096 9.104 135.584 7.936 137.616 7.936C139.648 7.936 141.072 9.12 141.232 10.816H133.92Z" fill="#FFFFFF"></path>
<path d="M0 0V11.968L11.952 17.952V5.984L0 0ZM23.92 0V11.968L35.872 5.984L23.92 0Z" fill="#30F2A2"></path>
<path d="M23.9199 11.952V23.92L35.8719 17.936V5.984L23.9199 11.952ZM11.9519 5.984V17.952L23.9039 11.968V0L11.9519 5.984Z" fill="#14CC80"></path>
</g>
</svg>