<?xml version="1.0" encoding="utf-8"?>
<!-- Generator: Adobe Illustrator 27.3.1, SVG Export Plug-In . SVG Version: 6.00 Build 0)  -->
<svg version="1.1" id="Layer_1" xmlns="http://www.w3.org/2000/svg" xmlns:xlink="http://www.w3.org/1999/xlink" x="0px" y="0px"
	 viewBox="0 0 2201 2475.4" style="enable-background:new 0 0 2201 2475.4;" xml:space="preserve">
<style type="text/css">
	.st0{fill:#9A4993;}
	.st1{fill:#6A1577;}
	.st2{fill:#813084;}
	.st3{fill:#FFFFFF;}
</style>
<path class="st0" d="M2201,727c0-41.4-8.8-78.7-27.1-109.8c-17.6-31.2-44.1-57-79.3-77.3C1801.6,371,1508,202.2,1215.1,33.3
	c-79.3-45.4-155.3-44.1-233.9,2C864.5,103.8,280,438.8,106.5,539.8C34.6,581.2,0,644.9,0,727.7v1019.8c0,40.7,8.8,76.6,25.8,107.8
	c17.6,31.9,44.8,59,80.7,80c174.3,101,758.1,435.3,874.7,504.5c78.7,46.1,155.3,48.1,233.9,2c292.9-169.5,586.5-337.7,879.4-506.5
	c36.6-21,63.1-47.5,80.7-80c17-31.2,25.8-67.1,25.8-107.8L2201,727z"/>
<path class="st1" d="M1103.2,1233.5L24.4,1854.6c17.6,31.9,44.8,59,80.7,80c174.3,101,758.1,435.3,874.7,504.5
	c78.7,46.1,155.3,48.1,233.9,2c292.9-169.5,586.5-337.7,879.4-506.5c36.6-21,63.1-47.5,80.7-80L1103.2,1233.5z"/>
<path class="st1" d="M783.8,1417.2c63.1,109.8,181,183.8,316,183.8c136.3,0,254.9-74.6,317.3-185.8l-313.9-181.7L783.8,1417.2z"/>
<path class="st2" d="M2201,727c0-41.4-8.8-78.7-27.1-109.8l-1070.7,616.4l1072,621.1c17-31.2,25.8-67.1,25.8-107.8V727z"/>
<g>
	<path class="st3" d="M1417.1,1415.2c-62.4,110.5-181,185.8-317.3,185.8c-135.6,0-253.6-73.9-316-183.8
		c-30.5-53.6-48.1-114.6-48.1-180.4c0-201.4,162.7-364.1,364.1-364.1c134.3,0,251.6,73.2,314.6,181.7l318-183.1
		c-126.8-218.3-362.8-365.5-633.3-365.5c-404.1,0-730.9,327.5-730.9,730.9c0,132.2,35.3,257,97,364.1
		c126.1,219,363.4,366.8,634.7,366.8c271.9,0,509.2-148.5,635.3-368.9L1417.1,1415.2z M1819.2,1064h-72.6v350.6h72.6V1064z
		 M1979.9,1064h-72.6v350.6h72.6V1064z"/>
	<path class="st3" d="M2038.9,1123h-350.6v72.6h350.6L2038.9,1123z M2038.9,1283h-350.6v72.6h350.6L2038.9,1283z"/>
</g>
</svg>
