<?xml version="1.0" encoding="utf-8"?>
<!-- Generator: Adobe Illustrator 16.0.3, SVG Export Plug-In . SVG Version: 6.00 Build 0)  -->
<!DOCTYPE svg PUBLIC "-//W3C//DTD SVG 1.1//EN" "http://www.w3.org/Graphics/SVG/1.1/DTD/svg11.dtd">
<svg version="1.1" id="Layer_1" xmlns="http://www.w3.org/2000/svg" xmlns:xlink="http://www.w3.org/1999/xlink" x="0px" y="0px"
	 width="100px" height="13.07px" viewBox="10 23.473 100 13.07" enable-background="new 10 23.473 100 13.07" xml:space="preserve">
<path fill="#772953" d="M15.878,36.527c-0.878,0-1.677-0.145-2.398-0.434s-1.34-0.712-1.857-1.27c-0.517-0.559-0.917-1.24-1.2-2.047
	C10.14,31.97,10,31.046,10,30s0.156-1.974,0.47-2.786s0.74-1.494,1.28-2.046c0.531-0.546,1.169-0.976,1.875-1.262
	c0.716-0.29,1.482-0.437,2.254-0.432c0.54,0,1.025,0.036,1.45,0.108c0.375,0.06,0.745,0.144,1.109,0.252
	c0.26,0.076,0.513,0.173,0.757,0.289l0.397,0.216l-0.523,1.443c-0.108-0.072-0.264-0.15-0.47-0.234l-0.712-0.252
	c-0.292-0.089-0.59-0.158-0.892-0.207c-0.34-0.055-0.684-0.082-1.028-0.081c-0.613,0-1.172,0.114-1.677,0.343
	s-0.938,0.56-1.298,0.992c-0.36,0.432-0.64,0.96-0.838,1.578c-0.198,0.618-0.297,1.314-0.297,2.082
	c-0.007,0.688,0.08,1.374,0.26,2.038c0.173,0.613,0.44,1.141,0.793,1.578s0.793,0.777,1.316,1.02s1.14,0.36,1.848,0.36
	c0.793,0,1.45-0.084,1.974-0.252s0.916-0.317,1.18-0.45l0.45,1.442c-0.084,0.06-0.234,0.135-0.45,0.225
	c-0.216,0.091-0.487,0.179-0.8,0.261s-0.703,0.155-1.136,0.217c-0.466,0.066-0.936,0.1-1.406,0.1L15.878,36.527z M26.985,23.76
	l1.244,2.732l1.2,2.894l1.235,3.2l1.352,3.67h-1.9l-0.577-1.605l-0.56-1.604h-5.662l-1.136,3.2h-1.82l1.352-3.67l1.235-3.2
	l1.2-2.894l1.244-2.732h1.605L26.985,23.76z M26.138,25.76l-1.2,2.813l-1.127,3.047h4.652l-1.145-3.038L26.138,25.76z
	 M42.338,36.257l-0.9-1.497l-1.1-1.722l-1.235-1.812l-1.27-1.776l-1.226-1.614l-1.1-1.334v9.755h-1.713V23.76h1.388l1.812,2.1
	l1.9,2.47l1.785,2.497l1.416,2.182v-9.25h1.713v12.495h-1.46L42.338,36.257z M69.637,36.257l-0.9-1.497l-1.1-1.722L66.4,31.227
	l-1.27-1.776l-1.227-1.614l-1.1-1.334v9.755H61.08V23.76h1.388l1.812,2.1l1.9,2.47l1.785,2.497l1.416,2.182v-9.25h1.713v12.495
	h-1.462L69.637,36.257z M74.279,23.76h1.75v12.495h-1.75V23.76z M84.577,36.527c-0.878,0-1.677-0.145-2.397-0.434
	c-0.722-0.289-1.341-0.712-1.857-1.27c-0.518-0.559-0.918-1.24-1.2-2.047C78.839,31.97,78.7,31.046,78.7,30s0.155-1.974,0.47-2.786
	s0.74-1.494,1.28-2.046c0.53-0.546,1.169-0.976,1.875-1.262c0.716-0.29,1.481-0.437,2.254-0.432c0.54,0,1.024,0.036,1.45,0.108
	c0.375,0.06,0.744,0.144,1.109,0.252c0.259,0.076,0.512,0.173,0.756,0.289l0.397,0.216l-0.522,1.443
	c-0.108-0.072-0.266-0.15-0.471-0.234l-0.712-0.252c-0.292-0.089-0.591-0.158-0.892-0.207c-0.325-0.054-0.668-0.08-1.028-0.08
	c-0.612,0-1.172,0.114-1.677,0.343c-0.503,0.227-0.947,0.566-1.299,0.992c-0.359,0.433-0.64,0.96-0.838,1.578
	c-0.197,0.618-0.297,1.314-0.297,2.082c-0.008,0.688,0.08,1.374,0.26,2.038c0.154,0.574,0.424,1.111,0.793,1.578
	c0.354,0.44,0.793,0.778,1.315,1.021C83.448,34.882,84.064,35,84.773,35c0.793,0,1.449-0.084,1.975-0.252s0.916-0.318,1.18-0.45
	l0.45,1.442c-0.084,0.06-0.233,0.135-0.45,0.225c-0.264,0.105-0.535,0.193-0.811,0.262c-0.325,0.084-0.703,0.155-1.137,0.217
	c-0.433,0.061-0.905,0.1-1.399,0.1L84.577,36.527z M95.684,23.76l1.243,2.732l1.2,2.894l1.234,3.2l1.353,3.67h-1.899l-0.578-1.605
	l-0.56-1.604h-5.661l-1.137,3.2h-1.82l1.353-3.67l1.235-3.2l1.199-2.894L94.1,23.75h1.606L95.684,23.76z M94.835,25.76l-1.2,2.813
	l-1.127,3.047h4.652l-1.145-3.038L94.835,25.76z M110,34.796v1.46h-7.52V23.76h1.75v11.035L110,34.796L110,34.796z M52.446,34.156
	c-2.295,0-4.156-1.86-4.156-4.156s1.86-4.156,4.156-4.156c2.296,0,4.156,1.86,4.156,4.156S54.742,34.156,52.446,34.156z M58.973,30
	c-0.002,3.604-2.923,6.525-6.527,6.527c-3.604-0.002-6.526-2.923-6.528-6.527c0.001-3.604,2.923-6.525,6.527-6.527
	C56.049,23.474,58.971,26.396,58.973,30z M52.446,25.06c-2.728,0-4.94,2.211-4.94,4.94c0,2.728,2.211,4.938,4.939,4.939
	c2.728,0,4.939-2.211,4.94-4.939C57.385,27.271,55.173,25.06,52.446,25.06L52.446,25.06z"/>
</svg>
