<?xml version="1.0" encoding="utf-8"?>
<!-- Generator: Adobe Illustrator 16.0.3, SVG Export Plug-In . SVG Version: 6.00 Build 0)  -->
<!DOCTYPE svg PUBLIC "-//W3C//DTD SVG 1.1//EN" "http://www.w3.org/Graphics/SVG/1.1/DTD/svg11.dtd">
<svg version="1.1" id="svg4300" xmlns:svg="http://www.w3.org/2000/svg"
	 xmlns="http://www.w3.org/2000/svg" xmlns:xlink="http://www.w3.org/1999/xlink" x="0px" y="0px" width="607.141px"
	 height="170.243px" viewBox="25.378 26.378 607.141 170.243" enable-background="new 25.378 26.378 607.141 170.243"
	 xml:space="preserve">
<title  id="title3589">The CentOS Logo Vertical Version</title>
<g id="g5189" transform="matrix(1.0008826,0,0,1.0094534,-0.05651152,-6.184848)">
	<path id="text5083-9" d="M286.592,156.471h-34.425c-3.491,0-6.945-0.501-10.361-1.503c-6.61-2.082-11.846-6.861-15.708-14.336
		c-3.491-6.784-5.236-14.682-5.236-23.703c0-8.71,1.56-16.417,4.679-23.123c3.416-7.4,8.281-12.448,14.595-15.146
		c4.902-2.081,9.915-3.121,15.04-3.122h31.194V91.03H253.95c-5.274,0-9.098,2.968-11.475,8.903
		c-1.857,4.625-2.785,10.674-2.785,18.153c0,6.321,1.188,11.679,3.565,16.072c2.748,5.165,6.61,7.746,11.586,7.746l31.751-0.115
		L286.592,156.471 M343.924,156.818h-27.183c-6.61,0-12.367-2.929-17.268-8.787c-4.827-5.935-7.241-12.757-7.241-20.465
		c0-8.402,2.636-15.647,7.91-21.737c5.348-6.166,11.29-9.249,17.825-9.249h25.846v12.371h-18.939c-2.376,0-4.419,0.231-6.126,0.694
		c-1.633,0.385-3.156,1.196-4.567,2.428c-2.599,2.312-3.899,5.434-3.899,9.365h33.422v12.487h-33.309c0,1.85,0.184,3.43,0.556,4.74
		c0.447,1.232,1.301,2.506,2.562,3.815c1.264,1.233,2.749,2.082,4.456,2.543c1.784,0.385,3.937,0.579,6.462,0.579h19.495
		L343.924,156.818 M407.454,156.471h-15.485v-39.426c0-1.002-0.221-1.888-0.668-2.659c-0.446-0.846-1.076-1.657-1.894-2.428
		c-1.485-1.31-3.193-1.965-5.123-1.966H369.13v46.48h-15.485V96.579h29.634c5.274,0,9.097,0.309,11.474,0.925
		c3.714,0.926,6.685,2.968,8.912,6.129c2.525,3.699,3.789,7.747,3.789,12.139V156.471 M451.929,109.067h-15.039v27.17
		c0,2.467,0.817,4.51,2.451,6.128c1.857,1.62,4.308,2.428,7.353,2.428h4.568v11.679h-14.372c-4.309,0-7.984-1.618-11.029-4.855
		c-1.783-1.927-2.934-4.049-3.453-6.361c-0.52-2.312-0.781-5.048-0.781-8.209v-27.98h-9.804V96.579h9.804V75.537h15.263v21.043
		h15.039V109.067 M542.842,115.888c0,15.724-4.196,26.977-12.589,33.761c-6.833,5.474-16.785,8.21-29.856,8.21
		c-14.482,0-25.178-3.162-32.085-9.483c-7.575-6.936-11.364-18.074-11.364-33.414c0-12.564,3.38-22.353,10.139-29.367
		c7.353-7.63,18.344-11.446,32.976-11.446c16.117,0,27.481,3.661,34.091,10.984C539.945,91.609,542.842,101.86,542.842,115.888
		 M523.013,115.426c0-7.941-1.821-14.26-5.459-18.961c-4.085-5.241-10.138-7.863-18.161-7.863c-7.873,0-13.814,2.814-17.824,8.44
		c-3.343,4.702-5.013,10.83-5.013,18.384c0,8.711,1.337,15.146,4.01,19.308c3.714,5.781,10.583,8.672,20.611,8.672
		c8.467,0,14.408-2.813,17.825-8.44C521.675,130.572,523.012,124.059,523.013,115.426 M632.018,131.382
		c0,7.09-2.266,13.064-6.796,17.92c-4.531,4.855-10.287,7.284-17.268,7.284l-55.147-0.115v-14.568h45.454
		c3.044,0,5.606-0.731,7.687-2.196c2.377-1.696,3.565-4.009,3.565-6.937c0-6.86-4.679-10.289-14.037-10.289h-22.948
		c-6.61,0-12.403-2.121-17.379-6.36c-4.976-4.239-7.464-9.635-7.464-16.187c0-7.245,2.413-13.104,7.241-17.574
		c4.903-4.548,11.328-6.822,19.274-6.822h52.696v13.874h-46.456c-2.079,0-4.197,0.925-6.351,2.775
		c-2.079,1.773-3.119,3.892-3.119,6.359c0,2.775,1.003,5.125,3.008,7.051c2.08,1.851,4.568,2.776,7.464,2.776h25.289
		c7.873,0,14.036,2.12,18.493,6.358C629.753,118.893,632.018,124.444,632.018,131.382"/>
	<g id="g3664" transform="matrix(1.0627252,0,0,1.0537063,198.76454,-518.47507)">
		<g id="g12802" transform="matrix(0,-1,1,0,-1934.5199,1337.4805)">
			<g id="g12804" transform="translate(16.279512,-899.16723)">
				<g id="g12806" transform="matrix(1.0666663,0,0,1,-26.935596,-4.1328125e-5)">
					<path id="path12808" fill="#932279" d="M704.346,2737.963l-5.406,5.801l-5.405-5.801v-40.827h-18.013l23.42-24.896
						l23.025,24.896h-17.62L704.346,2737.963L704.346,2737.963z"/>
				</g>
				<g id="g12812" transform="matrix(1.0722788,0,0,1,-28.850792,-4.1328125e-5)">
				</g>
			</g>
		</g>
		<g id="g12768" transform="translate(-351.30671,-902.55818)">
			<g id="g12770" transform="translate(16.279512,-899.16723)">
				<g id="g12772" transform="matrix(1.0666663,0,0,1,-26.935596,-4.1328125e-5)">
					<path id="path12774" fill="#EFA724" d="M266.929,2391.782l-5.406,5.802l-5.406-5.802v-40.826h-18.013l23.419-24.898
						l23.025,24.898h-17.619V2391.782z"/>
				</g>
				<g id="g12778" transform="matrix(1.0722788,0,0,1,-28.850792,-4.1328125e-5)">
				</g>
			</g>
		</g>
		<g id="g12780" transform="matrix(0,1,-1,0,2787.8992,696.93451)">
			<g id="g12782" transform="matrix(1.0666663,0,0,1,-26.935596,-4.1328125e-5)">
				<path id="path12784" fill="#262577" d="M-57.613,2858.361l-5.407,5.802l-5.406-5.802v-40.826h-18.013l23.419-24.898
					l23.024,24.898h-17.617V2858.361L-57.613,2858.361z"/>
			</g>
			<g id="g12788" transform="matrix(1.0722788,0,0,1,-28.850792,-4.1328125e-5)">
			</g>
		</g>
		<g id="g12790" transform="matrix(-1,0,0,-1,305.51863,2920.6937)">
			<g id="g12792" transform="translate(16.279512,-899.16723)">
				<g id="g12794" transform="matrix(1.0666663,0,0,1,-26.935596,-4.1328125e-5)">
					<path id="path12796" fill="#9CCD2A" d="M379.804,3204.539l-5.406,5.802l-5.406-5.802v-40.826h-18.013l23.42-24.898
						l23.025,24.898h-17.619L379.804,3204.539L379.804,3204.539z"/>
				</g>
				<g id="g12800" transform="matrix(1.0722788,0,0,1,-28.850792,-4.1328125e-5)">
				</g>
			</g>
		</g>
		<g id="g12742" transform="translate(-749.79982,-1331.6428)">
			<path id="rect12744" fill="#9CCD2A" stroke="#FFFFFF" stroke-width="3.5433" d="M611.784,1879.412h49.607v49.606h-49.607
				V1879.412z"/>
			<path id="rect12746" fill="#932279" stroke="#FFFFFF" stroke-width="3.5433" d="M672.02,1879.412h49.607v49.606H672.02V1879.412z
				"/>
			<path id="rect12748" fill="#EFA724" stroke="#FFFFFF" stroke-width="3.5433" d="M672.02,1939.648h49.607v49.606H672.02V1939.648z
				"/>
			<path id="rect12750" fill="#262577" stroke="#FFFFFF" stroke-width="3.5433" d="M611.784,1939.648h49.607v49.606h-49.607
				V1939.648z"/>
		</g>
		<path id="rect12760" fill="none" stroke="#FFFFFF" stroke-width="3.5433" d="M-160.764,602.69l35.077-35.077l35.077,35.077
			l-35.077,35.077L-160.764,602.69z"/>
		<path id="rect12762" fill="none" stroke="#FFFFFF" stroke-width="3.5431" d="M-118.171,560.096l35.077-35.077l35.077,35.077
			l-35.077,35.076L-118.171,560.096z"/>
		<path id="rect12764" fill="none" stroke="#FFFFFF" stroke-width="3.5433" d="M-75.577,602.69l35.077-35.077l35.077,35.077
			L-40.5,637.767L-75.577,602.69z"/>
		<path id="rect12766" fill="none" stroke="#FFFFFF" stroke-width="3.5433" d="M-118.171,645.284l35.077-35.076l35.077,35.076
			l-35.077,35.076L-118.171,645.284z"/>
	</g>
</g>
</svg>
