<?xml version="1.0" encoding="utf-8"?>
<!-- Generator: Adobe Illustrator 16.0.3, SVG Export Plug-In . SVG Version: 6.00 Build 0)  -->
<!DOCTYPE svg PUBLIC "-//W3C//DTD SVG 1.1//EN" "http://www.w3.org/Graphics/SVG/1.1/DTD/svg11.dtd">
<svg version="1.1"
	 id="svg5" xmlns:inkscape="http://www.inkscape.org/namespaces/inkscape" xmlns:sodipodi="http://sodipodi.sourceforge.net/DTD/sodipodi-0.dtd" xmlns:svg="http://www.w3.org/2000/svg" inkscape:export-ydpi="1200" inkscape:export-xdpi="1200" inkscape:export-filename="centos-tshirt-front-logo.pdf" sodipodi:docname="centos-tshirt-front.svg" inkscape:version="1.2 (dc2aedaf03, 2022-05-15)"
	 xmlns="http://www.w3.org/2000/svg" xmlns:xlink="http://www.w3.org/1999/xlink" x="0px" y="0px" width="548.458px"
	 height="144.035px" viewBox="233.983 539.857 548.458 144.035" enable-background="new 233.983 539.857 548.458 144.035"
	 xml:space="preserve">
<sodipodi:namedview  showguides="false" inkscape:cy="816" inkscape:cx="631" inkscape:zoom="1" showgrid="true" borderopacity="1.0" bordercolor="#666666" pagecolor="#ffffff" id="namedview7" inkscape:current-layer="layer5" inkscape:window-maximized="1" inkscape:window-y="0" inkscape:showpageshadow="2" inkscape:window-height="1371" inkscape:document-units="in" inkscape:window-x="0" inkscape:deskcolor="#d1d1d1" inkscape:window-width="3440" inkscape:pagecheckerboard="0" inkscape:pageopacity="0.0">
	<inkscape:grid  type="xygrid" units="in" originy="215.9" originx="177.8" spacingy="139.7" spacingx="116.84" id="grid159">
		</inkscape:grid>
	<sodipodi:guide  inkscape:locked="false" orientation="1,0" position="201.82068,257.28839" id="guide1082"></sodipodi:guide>
	<sodipodi:guide  inkscape:locked="false" orientation="1,0" position="338.49925,255.5566" id="guide1084"></sodipodi:guide>
	<sodipodi:guide  inkscape:locked="false" orientation="0,-1" position="257.96458,264.55286" id="guide1086"></sodipodi:guide>
</sodipodi:namedview>
<g id="layer6" inkscape:label="Usernames" inkscape:groupmode="layer">
	<g id="layer7" inkscape:label="JonnyHuges" inkscape:groupmode="layer">
	</g>
</g>
<g id="g6482" inkscape:label="2rows-full-width" display="none">
	<rect id="rect1880" y="612" display="inline" fill="#EFA724" width="1008" height="72"/>
	<rect id="rect911-2" y="540" display="inline" fill="#A14F8C" width="1008" height="72"/>
</g>
<g id="g2509" transform="matrix(1.5753418,0,0,1.5753418,65.300849,-25.987839)" inkscape:label="CentOS Logo 2bits" display="none">
	<g id="g2501" transform="matrix(0.97560972,0,0,0.97560972,-795.31962,-233.75124)" display="inline">
		<path id="path2489" fill="#FFFFFF" d="M1036.977,556.699c10.363,0,18.943-3.738,24.549-10.618l-8.835-8.155
			c-3.992,4.672-9.004,7.05-14.95,7.05c-11.128,0-19.027-7.815-19.027-19.028s7.899-19.028,19.027-19.028
			c5.946,0,10.958,2.379,14.95,6.966l8.835-8.155c-5.607-6.796-14.186-10.533-24.464-10.533c-18.518,0-32.279,12.827-32.279,30.75
			C1004.783,543.872,1018.544,556.698,1036.977,556.699L1036.977,556.699z"/>
		<path id="path2491" fill="#FFFFFF" d="M1113.002,532.999c0-14.696-10.363-23.7-23.784-23.7c-13.931,0-24.379,9.854-24.379,23.53
			c0,13.591,10.278,23.53,26.078,23.53c8.239,0,14.61-2.549,18.858-7.39l-7.051-7.645c-3.143,2.973-6.625,4.417-11.467,4.417
			c-6.965,0-11.807-3.483-13.082-9.174h34.572C1112.833,535.462,1113.003,534.018,1113.002,532.999L1113.002,532.999z
			 M1089.303,519.323c5.946,0,10.278,3.737,11.212,9.513h-22.51C1078.94,522.975,1083.272,519.323,1089.303,519.323
			L1089.303,519.323z"/>
		<path id="path2493" fill="#FFFFFF" d="M1149.613,509.299c-6.202,0-11.553,2.124-15.12,6.031v-5.351h-12.657v45.7h13.252v-22.595
			c0-8.41,4.586-12.317,10.958-12.317c5.861,0,9.258,3.398,9.258,10.788v24.124h13.252v-26.163
			C1168.556,515.586,1160.401,509.3,1149.613,509.299L1149.613,509.299z"/>
		<path id="path2495" fill="#FFFFFF" d="M1206.441,544.127c-1.444,1.104-3.398,1.699-5.351,1.699c-3.568,0-5.691-2.124-5.691-6.031
			v-18.603h11.383v-10.194h-11.383v-11.127h-13.251v11.127h-7.05v10.194h7.05v18.772c0,10.873,6.285,16.395,17.074,16.395
			c4.077,0,8.07-0.935,10.788-2.889L1206.441,544.127z"/>
		<path id="path2497" fill="#FFFFFF" d="M1247.214,556.699c18.688,0,32.534-12.997,32.534-30.75c0-17.753-13.845-30.75-32.534-30.75
			c-18.772,0-32.533,13.081-32.533,30.75S1228.442,556.699,1247.214,556.699z M1247.214,544.976
			c-10.618,0-18.603-7.73-18.603-19.028c0-11.297,7.984-19.028,18.603-19.028c10.618,0,18.603,7.73,18.603,19.028
			C1265.818,537.246,1257.833,544.976,1247.214,544.976z"/>
		<path id="path2499" fill="#FFFFFF" d="M1309.649,556.699c16.989,0,25.229-8.495,25.229-18.433
			c0-21.831-34.573-14.271-34.573-25.229c0-3.737,3.143-6.795,11.298-6.795c5.266,0,10.958,1.529,16.479,4.672l4.247-10.448
			c-5.521-3.483-13.166-5.267-20.642-5.267c-16.904,0-25.058,8.41-25.058,18.518c0,22.086,34.572,14.441,34.572,25.569
			c0,3.652-3.312,6.371-11.467,6.371c-7.136,0-14.61-2.548-19.622-6.201l-4.672,10.363
			C1290.707,553.895,1300.22,556.699,1309.649,556.699L1309.649,556.699z"/>
	</g>
	
		<g id="g2507" transform="matrix(0.74451128,0.74451128,-0.74451128,0.74451128,-493.4416,36.710986)" inkscape:export-ydpi="10.11" inkscape:export-xdpi="10.11" inkscape:export-filename="/home/areguera/Pictures/centos-symbol-v20.png" display="inline">
		
			<ellipse id="ellipse2503" inkscape:export-ydpi="13.06" inkscape:export-xdpi="13.06" inkscape:export-filename="/home/areguera/Pictures/centos-symbol-v10.png" transform="matrix(-0.7071 0.7071 -0.7071 -0.7071 798.6619 -815.3508)" fill="#FFFFFF" cx="568.196" cy="-242.267" rx="56.986" ry="56.986">
		</ellipse>
		<path id="path2505" d="M537.702-272.76l0.001,17.863l-12.631,12.631l12.631,12.631l-0.001,17.863h17.864l12.631,12.631
			l12.631-12.631l17.862,0l0.001-17.863l12.631-12.631l-12.631-12.631l-0.001-17.863l-17.862,0l-12.631-12.631l-12.631,12.631
			L537.702-272.76z M544.14-260.902l5.422-5.422l9.149,9.149l-0.001,5.422l-5.421,0L544.14-260.902z M538.009-246.099l12.939-0.001
			l3.834,3.834l-3.834,3.834H538.01L538.009-246.099z M564.364-272.454l7.667,0l0,12.938l-3.834,3.834l-3.834-3.834L564.364-272.454
			z M564.622-250.892l3.574,3.636l3.572-3.637l-0.043,5.097l5.097-0.045l-3.635,3.573l3.637,3.572l-5.097-0.042l0.045,5.097
			l-3.573-3.635l-3.572,3.637l0.044-5.098l-5.098,0.046l3.636-3.573l-3.637-3.573l5.098,0.045L564.622-250.892z M544.14-223.631
			l9.149-9.149l5.422,0.001l0,5.421l-9.149,9.149L544.14-223.631z M577.683-257.175l9.149-9.149l5.422,5.422l-9.149,9.149l-5.421,0
			L577.683-257.175z M564.364-225.016l3.833-3.833l3.833,3.833l0.001,12.939l-7.666-0.001V-225.016z M581.613-242.266l3.834-3.834
			l12.938,0l-0.001,7.667l-12.938,0L581.613-242.266z M577.683-232.779l5.422,0l9.149,9.149l-5.422,5.422l-9.149-9.15
			L577.683-232.779z"/>
	</g>
</g>
<g id="g902" transform="matrix(3.1586603,0,0,3.1586603,-1048.1503,829.70484)" inkscape:label="CentOS Symbol" display="none">
	
		<ellipse id="ellipse894" inkscape:export-ydpi="13.06" inkscape:export-xdpi="13.06" inkscape:export-filename="/home/areguera/Pictures/centos-symbol-v10.png" display="inline" fill="#A14F8C" cx="491.395" cy="-177.197" rx="56.986" ry="56.986">
	</ellipse>
	<g id="g907" transform="matrix(1.1500001,0,0,1.1500001,-53.772279,39.324566)" display="inline">
		<path id="path896" sodipodi:nodetypes="cccccccccccccccccccccccccccccccccccccccccccccccccccccccccc" fill="#FFFFFF" d="
			M474.059-225.78l-10.984,10.984l-15.532-0.001l-0.001,15.533l-10.983,10.984l10.983,10.983l0.001,15.534l15.532-0.001
			l10.984,10.984l10.983-10.984l15.534-0.001l-0.001-15.532l10.984-10.983l-10.985-10.983l-15.532-15.532L474.059-225.78z
			 M477.392-214.797v11.85l-3.334,3.334l-3.334-3.334v-11.849L477.392-214.797z M457.665-209.387l8.379,8.38l0.001,4.713
			l-4.716,0.001l-8.379-8.38L457.665-209.387z M447.542-191.613h11.85l3.334,3.334l-3.334,3.334h-11.85V-191.613z M488.458-191.613
			h11.85v6.667h-11.85l-3.334-3.334L488.458-191.613z M461.519-180.455l4.714,0v4.714l-8.379,8.379l-4.714-4.714L461.519-180.455z
			 M481.884-180.455l4.714,0.001l8.379,8.379l-4.714,4.714l-8.379-8.379L481.884-180.455z M474.059-177.214l3.334,3.334v11.85
			h-6.667v-11.85L474.059-177.214z"/>
		
			<path id="path898" sodipodi:nodetypes="ccccccccccccccccc" inkscape:export-ydpi="14.35" inkscape:export-xdpi="14.35" inkscape:export-filename="/home/areguera/Pictures/centos-symbol-482380-v3.png" fill="#EFA724" d="
			M477.392-195.94l-3.334,2.946l-3.334-2.947v4.328h-4.327l2.946,3.334l-2.947,3.334h4.328v4.327l3.334-2.946l3.334,2.947v-4.327
			h4.326l-2.946-3.334l2.947-3.334h-4.328V-195.94z"/>
		
			<path id="path900" sodipodi:nodetypes="ccccccccc" inkscape:export-ydpi="13.06" inkscape:export-xdpi="13.06" inkscape:export-filename="/home/areguera/Pictures/centos-symbol-v10.png" fill="#EFA724" d="
			M485.051-214.786l5.4,5.4l-8.379,8.379v4.714l4.714,0l8.379-8.379l5.419,5.418l-0.009-15.543L485.051-214.786z"/>
	</g>
</g>
<g id="use4528" transform="matrix(0.57498777,0,0,0.57498777,582.80805,84.636389)" inkscape:label="CentOS Logo Purple" display="none">
	<g id="g1587" transform="matrix(0.97560972,0,0,0.97560972,-817.43817,-333.56437)" display="inline">
		<path id="path1575" fill="#A14F8C" d="M2823.519,676.827c10.364,0,18.942-3.738,24.55-10.618l-8.835-8.154
			c-3.992,4.672-9.004,7.051-14.95,7.051c-11.128,0-19.028-7.816-19.028-19.028c0-11.213,7.9-19.028,19.028-19.028
			c5.947,0,10.959,2.378,14.95,6.965l8.835-8.155c-5.607-6.795-14.186-10.533-24.464-10.533c-18.518,0-32.279,12.827-32.279,30.75
			C2791.325,664,2805.087,676.827,2823.519,676.827L2823.519,676.827z"/>
		<path id="path1577" fill="#A14F8C" d="M2899.544,653.127c0-14.696-10.364-23.699-23.784-23.699
			c-13.932,0-24.379,9.853-24.379,23.53c0,13.591,10.278,23.529,26.076,23.529c8.241,0,14.611-2.548,18.859-7.39l-7.051-7.645
			c-3.142,2.973-6.626,4.417-11.467,4.417c-6.967,0-11.808-3.483-13.083-9.174h34.574
			C2899.375,655.591,2899.544,654.146,2899.544,653.127L2899.544,653.127z M2875.844,639.451c5.947,0,10.28,3.738,11.213,9.514
			h-22.509C2865.481,643.104,2869.814,639.451,2875.844,639.451L2875.844,639.451z"/>
		<path id="path1579" fill="#A14F8C" d="M2936.155,629.427c-6.201,0-11.552,2.124-15.119,6.031v-5.351h-12.656v45.7h13.251v-22.596
			c0-8.409,4.585-12.317,10.957-12.317c5.862,0,9.258,3.397,9.258,10.787v24.125h13.251v-26.163
			C2955.097,635.714,2946.943,629.427,2936.155,629.427z"/>
		<path id="path1581" fill="#A14F8C" d="M2992.984,664.255c-1.445,1.104-3.398,1.698-5.352,1.698c-3.567,0-5.691-2.123-5.691-6.031
			v-18.603h11.382v-10.193h-11.382v-11.128h-13.251v11.128h-7.05v10.193h7.05v18.773c0,10.873,6.285,16.394,17.073,16.394
			c4.079,0,8.071-0.934,10.788-2.888L2992.984,664.255z"/>
		<path id="path1583" fill="#A14F8C" d="M3033.756,676.827c18.688,0,32.533-12.996,32.533-30.75
			c0-17.754-13.845-30.751-32.533-30.751c-18.772,0-32.533,13.082-32.533,30.751
			C3001.223,663.745,3014.985,676.827,3033.756,676.827z M3033.756,665.105c-10.617,0-18.603-7.73-18.603-19.028
			c0-11.298,7.985-19.028,18.603-19.028c10.619,0,18.603,7.729,18.603,19.028C3052.359,657.374,3044.376,665.105,3033.756,665.105z"
			/>
		<path id="path1585" fill="#A14F8C" d="M3096.191,676.827c16.989,0,25.229-8.495,25.229-18.433
			c0-21.83-34.572-14.271-34.572-25.229c0-3.738,3.142-6.795,11.297-6.795c5.268,0,10.959,1.529,16.481,4.672l4.246-10.448
			c-5.52-3.483-13.166-5.267-20.641-5.267c-16.904,0-25.058,8.41-25.058,18.518c0,22.086,34.572,14.44,34.572,25.568
			c0,3.652-3.313,6.371-11.467,6.371c-7.136,0-14.611-2.549-19.621-6.201l-4.673,10.363
			C3077.248,674.023,3086.762,676.827,3096.191,676.827L3096.191,676.827z"/>
	</g>
	<g id="g1599" transform="matrix(1.0529091,0,0,1.0529091,-418.81554,254.24305)" display="inline">
		
			<ellipse id="ellipse1589" inkscape:export-ydpi="13.06" inkscape:export-xdpi="13.06" inkscape:export-filename="/home/areguera/Pictures/centos-symbol-v10.png" fill="#A14F8C" cx="2136.577" cy="40.376" rx="56.987" ry="56.987">
		</ellipse>
		<g id="g1597" transform="matrix(1.1500001,0,0,1.1500001,-53.772279,39.324566)">
			<path id="path1591" sodipodi:nodetypes="cccccccccccccccccccccccccccccccccccccccccccccccccccccccccc" fill="#FFFFFF" d="
				M1904.652-36.585l-10.984,10.984l-15.532-0.001l-0.001,15.533l-10.983,10.984l10.983,10.983v15.534l15.533-0.001l10.984,10.984
				l10.983-10.984l15.533-0.001V11.898l10.984-10.983l-10.986-10.983L1915.635-25.6L1904.652-36.585z M1907.985-25.603v11.85
				l-3.333,3.334l-3.334-3.334v-11.849L1907.985-25.603z M1888.258-20.193l8.379,8.38l0.001,4.714l-4.716,0.001l-8.379-8.381
				L1888.258-20.193z M1878.135-2.419h11.85l3.334,3.333l-3.334,3.333h-11.85V-2.419z M1919.052-2.419h11.85v6.667h-11.85
				l-3.334-3.333L1919.052-2.419z M1892.113,8.739h4.714v4.714l-8.379,8.38l-4.714-4.714L1892.113,8.739z M1912.478,8.739
				l4.714,0.001l8.378,8.38l-4.714,4.714l-8.38-8.38L1912.478,8.739z M1904.652,11.98l3.333,3.334v11.85h-6.667v-11.85
				L1904.652,11.98z"/>
			
				<path id="path1593" sodipodi:nodetypes="ccccccccccccccccc" inkscape:export-ydpi="14.35" inkscape:export-xdpi="14.35" inkscape:export-filename="/home/areguera/Pictures/centos-symbol-482380-v3.png" fill="#EFA724" d="
				M1907.985-6.746l-3.333,2.946l-3.334-2.947v4.328h-4.327l2.947,3.333l-2.947,3.333h4.327v4.327l3.334-2.946l3.333,2.946V4.248
				h4.327l-2.946-3.333l2.947-3.333h-4.329V-6.746z"/>
			
				<path id="path1595" sodipodi:nodetypes="ccccccccc" inkscape:export-ydpi="13.06" inkscape:export-xdpi="13.06" inkscape:export-filename="/home/areguera/Pictures/centos-symbol-v10.png" fill="#EFA724" d="
				M1915.644-25.591l5.4,5.4l-8.38,8.38v4.714h4.714l8.38-8.379l5.418,5.418l-0.009-15.543L1915.644-25.591z"/>
		</g>
	</g>
</g>
<g id="g1643" transform="matrix(1.7999618,0,0,1.7999618,89.072709,78.295125)" inkscape:label="CentOS Logo White" display="none">
	<g id="g1629" transform="matrix(0.97560972,0,0,0.97560972,-817.43817,-333.56437)" display="inline">
		<path id="path1617" fill="#FFFFFF" d="M1010.491,481.82c10.363,0,18.942-3.738,24.549-10.618l-8.834-8.155
			c-3.992,4.672-9.004,7.051-14.95,7.051c-11.128,0-19.027-7.815-19.027-19.028c0-11.213,7.9-19.028,19.027-19.028
			c5.946,0,10.958,2.378,14.95,6.966l8.834-8.155c-5.607-6.796-14.186-10.533-24.464-10.533c-18.518,0-32.279,12.827-32.279,30.75
			C978.297,468.993,992.058,481.82,1010.491,481.82L1010.491,481.82z"/>
		<path id="path1619" fill="#FFFFFF" d="M1086.516,458.12c0-14.696-10.364-23.7-23.785-23.7c-13.931,0-24.379,9.854-24.379,23.53
			c0,13.591,10.278,23.53,26.078,23.53c8.239,0,14.61-2.548,18.858-7.39l-7.05-7.645c-3.143,2.973-6.626,4.417-11.468,4.417
			c-6.966,0-11.807-3.483-13.082-9.174h34.573C1086.347,460.584,1086.516,459.14,1086.516,458.12L1086.516,458.12z
			 M1062.817,444.444c5.947,0,10.279,3.738,11.213,9.514h-22.51C1052.454,448.097,1056.786,444.444,1062.817,444.444
			L1062.817,444.444z"/>
		<path id="path1621" fill="#FFFFFF" d="M1123.127,434.421c-6.201,0-11.553,2.124-15.12,6.031V435.1h-12.657v45.701h13.251v-22.596
			c0-8.409,4.587-12.317,10.958-12.317c5.861,0,9.259,3.398,9.259,10.788v24.125h13.252v-26.163
			C1142.07,440.707,1133.915,434.421,1123.127,434.421L1123.127,434.421z"/>
		<path id="path1623" fill="#FFFFFF" d="M1179.955,469.248c-1.444,1.104-3.398,1.699-5.351,1.699c-3.568,0-5.691-2.124-5.691-6.031
			v-18.603h11.382V436.12h-11.382v-11.128h-13.251v11.128h-7.05v10.193h7.05v18.773c0,10.873,6.286,16.394,17.074,16.394
			c4.077,0,8.07-0.935,10.788-2.888L1179.955,469.248z"/>
		<path id="path1625" fill="#FFFFFF" d="M1220.728,481.82c18.688,0,32.534-12.997,32.534-30.75c0-17.754-13.846-30.75-32.534-30.75
			c-18.773,0-32.533,13.081-32.533,30.75C1188.195,468.738,1201.956,481.82,1220.728,481.82z M1220.728,470.098
			c-10.618,0-18.602-7.73-18.602-19.028c0-11.298,7.985-19.028,18.602-19.028c10.618,0,18.603,7.73,18.603,19.028
			C1239.331,462.367,1231.347,470.098,1220.728,470.098z"/>
		<path id="path1627" fill="#FFFFFF" d="M1283.163,481.82c16.989,0,25.229-8.495,25.229-18.433
			c0-21.831-34.572-14.271-34.572-25.228c0-3.738,3.143-6.796,11.297-6.796c5.267,0,10.958,1.529,16.479,4.672l4.248-10.448
			c-5.522-3.483-13.167-5.267-20.642-5.267c-16.904,0-25.058,8.409-25.058,18.518c0,22.086,34.572,14.44,34.572,25.568
			c0,3.653-3.313,6.371-11.468,6.371c-7.135,0-14.61-2.548-19.622-6.201l-4.672,10.363
			C1264.221,479.016,1273.734,481.82,1283.163,481.82z"/>
	</g>
	<g id="g1641" transform="matrix(1.0529091,0,0,1.0529091,-418.81554,254.24305)" display="inline">
		
			<ellipse id="ellipse1631" inkscape:export-ydpi="13.06" inkscape:export-xdpi="13.06" inkscape:export-filename="/home/areguera/Pictures/centos-symbol-v10.png" fill="#A14F8C" cx="456.653" cy="-140.314" rx="56.986" ry="56.986">
		</ellipse>
		<g id="g1639" transform="matrix(1.1500001,0,0,1.1500001,-53.772279,39.324566)">
			<path id="path1633" sodipodi:nodetypes="cccccccccccccccccccccccccccccccccccccccccccccccccccccccccc" fill="#FFFFFF" d="
				M443.848-193.708l-10.984,10.984l-15.532-0.001l-0.001,15.533l-10.983,10.984l10.983,10.983l0,15.534l15.532,0l10.984,10.984
				l10.983-10.984l15.534-0.001l-0.001-15.532l10.984-10.983l-10.985-10.983l-15.532-15.532L443.848-193.708z M447.181-182.724
				v11.85l-3.334,3.334l-3.334-3.334v-11.849L447.181-182.724z M427.455-177.315l8.379,8.38l0.001,4.713l-4.716,0.001l-8.379-8.38
				L427.455-177.315z M417.331-159.541h11.85l3.334,3.334l-3.334,3.334h-11.85V-159.541z M458.247-159.541h11.85v6.667h-11.85
				l-3.334-3.334L458.247-159.541z M431.308-148.383h4.715v4.714l-8.379,8.379l-4.714-4.714L431.308-148.383z M451.673-148.383
				l4.714,0.001l8.379,8.379l-4.715,4.714l-8.379-8.379L451.673-148.383z M443.848-145.142l3.334,3.334v11.85h-6.667v-11.85
				L443.848-145.142z"/>
			
				<path id="path1635" sodipodi:nodetypes="ccccccccccccccccc" inkscape:export-ydpi="14.35" inkscape:export-xdpi="14.35" inkscape:export-filename="/home/areguera/Pictures/centos-symbol-482380-v3.png" fill="#EFA724" d="
				M447.181-163.868l-3.334,2.946l-3.334-2.947v4.328h-4.327l2.947,3.334l-2.947,3.334h4.328v4.327l3.334-2.946l3.334,2.947v-4.327
				h4.327l-2.946-3.334l2.947-3.334h-4.328V-163.868z"/>
			
				<path id="path1637" sodipodi:nodetypes="ccccccccc" inkscape:export-ydpi="13.06" inkscape:export-xdpi="13.06" inkscape:export-filename="/home/areguera/Pictures/centos-symbol-v10.png" fill="#EFA724" d="
				M454.84-182.713l5.4,5.4l-8.379,8.379l0,4.714l4.714,0l8.379-8.379l5.419,5.419l-0.009-15.543L454.84-182.713z"/>
		</g>
	</g>
</g>
<g id="layer4" inkscape:label="CentOS Stream" inkscape:groupmode="layer" display="none">
</g>
<g id="g6516" transform="matrix(1.1999746,0,0,1.1999746,189.98752,130.46944)" inkscape:label="CentOS Logo White - Half Width">
	<g id="g6502" transform="matrix(0.97561069,0,0,0.97561069,-817.439,-333.5647)">
		<path id="path6490" fill="#FFFFFF" d="M1046.037,783.861c10.364,0,18.943-3.738,24.549-10.618l-8.835-8.155
			c-3.992,4.672-9.004,7.05-14.95,7.05c-11.128,0-19.027-7.814-19.027-19.027c0-11.213,7.9-19.028,19.027-19.028
			c5.946,0,10.958,2.379,14.95,6.965l8.835-8.154c-5.606-6.796-14.186-10.533-24.464-10.533c-18.518,0-32.279,12.826-32.279,30.75
			C1013.844,771.034,1027.605,783.861,1046.037,783.861z"/>
		<path id="path6492" fill="#FFFFFF" d="M1122.063,760.162c0-14.695-10.364-23.699-23.785-23.699
			c-13.931,0-24.379,9.853-24.379,23.529c0,13.591,10.279,23.53,26.078,23.53c8.239,0,14.61-2.548,18.858-7.391l-7.05-7.645
			c-3.143,2.974-6.627,4.418-11.468,4.418c-6.965,0-11.807-3.483-13.081-9.174h34.573
			C1121.894,762.625,1122.063,761.181,1122.063,760.162L1122.063,760.162z M1098.364,746.486c5.946,0,10.279,3.738,11.213,9.514
			h-22.511C1088,750.138,1092.333,746.486,1098.364,746.486z"/>
		<path id="path6494" fill="#FFFFFF" d="M1158.674,736.462c-6.201,0-11.552,2.123-15.12,6.031v-5.352h-12.657v45.7h13.251v-22.595
			c0-8.409,4.587-12.317,10.958-12.317c5.862,0,9.259,3.398,9.259,10.788v24.124h13.252v-26.163
			C1177.617,742.748,1169.462,736.462,1158.674,736.462L1158.674,736.462z"/>
		<path id="path6496" fill="#FFFFFF" d="M1215.502,771.289c-1.444,1.104-3.397,1.699-5.351,1.699c-3.568,0-5.692-2.124-5.692-6.031
			v-18.604h11.383v-10.193h-11.383v-11.128h-13.252v11.128h-7.05v10.193h7.05v18.773c0,10.873,6.286,16.395,17.074,16.395
			c4.077,0,8.07-0.934,10.788-2.889L1215.502,771.289z"/>
		<path id="path6498" fill="#FFFFFF" d="M1256.276,783.861c18.687,0,32.533-12.996,32.533-30.75c0-17.753-13.845-30.75-32.533-30.75
			c-18.774,0-32.534,13.082-32.534,30.75C1223.742,770.78,1237.503,783.861,1256.276,783.861z M1256.276,772.139
			c-10.619,0-18.604-7.73-18.604-19.027c0-11.298,7.985-19.028,18.604-19.028c10.617,0,18.603,7.73,18.603,19.028
			C1274.879,764.408,1266.893,772.139,1256.276,772.139z"/>
		<path id="path6500" fill="#FFFFFF" d="M1318.71,783.861c16.989,0,25.228-8.494,25.228-18.433c0-21.831-34.573-14.27-34.573-25.228
			c0-3.737,3.143-6.796,11.298-6.796c5.267,0,10.958,1.529,16.48,4.672l4.247-10.448c-5.521-3.483-13.166-5.266-20.641-5.266
			c-16.903,0-25.058,8.41-25.058,18.518c0,22.085,34.573,14.44,34.573,25.568c0,3.653-3.313,6.371-11.468,6.371
			c-7.135,0-14.61-2.548-19.622-6.201l-4.672,10.364C1299.768,781.058,1309.281,783.861,1318.71,783.861L1318.71,783.861z"/>
	</g>
	<g id="g6514" transform="matrix(1.0529091,0,0,1.0529091,-418.81554,254.24305)">
		
			<ellipse id="ellipse6504" inkscape:export-ydpi="13.06" inkscape:export-xdpi="13.06" inkscape:export-filename="/home/areguera/Pictures/centos-symbol-v10.png" fill="#A14F8C" cx="489.59" cy="139.553" rx="56.986" ry="56.986">
		</ellipse>
		<g id="g6512" transform="matrix(1.1500001,0,0,1.1500001,-53.772279,39.324566)">
			<path id="path6506" sodipodi:nodetypes="cccccccccccccccccccccccccccccccccccccccccccccccccccccccccc" fill="#FFFFFF" d="
				M472.489,49.656L461.505,60.64l-15.532-0.001l-0.001,15.533l-10.983,10.984l10.983,10.983l0.001,15.534l15.532-0.001
				l10.984,10.984l10.983-10.984l15.534-0.001l-0.001-15.532l10.984-10.983l-10.986-10.983L483.471,60.64L472.489,49.656z
				 M475.823,60.639v11.85l-3.334,3.334l-3.334-3.334V60.64L475.823,60.639z M456.096,66.048l8.379,8.381l0.001,4.713l-4.716,0.001
				l-8.379-8.38L456.096,66.048z M445.972,83.822h11.85l3.334,3.334l-3.334,3.334h-11.85V83.822z M486.888,83.822h11.85v6.667
				h-11.85l-3.334-3.334L486.888,83.822z M459.949,94.981h4.714v4.714l-8.379,8.379l-4.715-4.714L459.949,94.981z M480.314,94.98
				l4.714,0.001l8.379,8.379l-4.715,4.714l-8.379-8.379L480.314,94.98z M472.489,98.221l3.334,3.334v11.85h-6.667v-11.85
				L472.489,98.221z"/>
			
				<path id="path6508" sodipodi:nodetypes="ccccccccccccccccc" inkscape:export-ydpi="14.35" inkscape:export-xdpi="14.35" inkscape:export-filename="/home/areguera/Pictures/centos-symbol-482380-v3.png" fill="#EFA724" d="
				M475.823,79.495l-3.334,2.946l-3.334-2.947v4.327h-4.327l2.946,3.334l-2.947,3.334h4.328v4.326l3.334-2.946l3.334,2.947V90.49
				h4.326l-2.946-3.334l2.947-3.334h-4.328V79.495z"/>
			
				<path id="path6510" sodipodi:nodetypes="ccccccccc" inkscape:export-ydpi="13.06" inkscape:export-xdpi="13.06" inkscape:export-filename="/home/areguera/Pictures/centos-symbol-v10.png" fill="#EFA724" d="
				M483.481,60.65l5.4,5.4l-8.379,8.379l0.001,4.714l4.714,0l8.379-8.379l5.419,5.419l-0.009-15.543L483.481,60.65z"/>
		</g>
	</g>
</g>
</svg>
