<svg width="147" height="28" viewBox="0 0 147 28" fill="none" xmlns="http://www.w3.org/2000/svg">
<path d="M24.6573 16.4945C27.7998 17.8771 32.2222 18.375 32.3691 19.9075C32.5066 21.3239 29.819 21.8412 26.7902 21.6575C27.5486 22.5953 28.1506 23.4945 28.1032 24.1374C28.0273 25.2155 26.8945 25.9164 25.1076 25.9164C23.1051 25.9164 20.0246 24.6385 19.285 21.1869C19.3148 21.3296 19.5763 22.6361 19.4197 23.8909C19.2206 25.4765 18.0451 28 16.1871 28C14.329 28 13.1535 25.4765 12.9545 23.8909C12.7979 22.6361 13.0593 21.3296 13.0892 21.1869C12.3496 24.6385 9.26434 25.9164 7.26658 25.9164C5.47964 25.9164 4.3468 25.2155 4.27096 24.1374C4.22357 23.4945 4.82079 22.6001 5.58392 21.6575C2.55512 21.8412 -0.132405 21.3239 0.00505261 19.9075C0.156729 18.3798 4.57906 17.8771 7.71687 16.4945C7.03433 15.107 5.98681 13.5359 6.4371 10.645C7.03907 6.79696 10.3096 0 16.1871 0C22.0646 0 25.3351 6.8018 25.9371 10.645C26.3873 13.5359 25.3446 15.107 24.6573 16.4945Z" fill="white"/>
<path d="M32.3691 19.9075C32.2222 18.375 27.7998 17.8771 24.6573 16.4945C25.3446 15.107 26.3873 13.5359 25.9371 10.645C25.3351 6.8018 22.0646 0 16.1871 0C10.3096 0 7.03907 6.79696 6.4371 10.645C5.98681 13.5359 7.03433 15.107 7.71687 16.4945C4.57906 17.8771 0.156729 18.3798 0.00505261 19.9075C-0.132405 21.3239 2.55512 21.8412 5.58392 21.6575C4.82079 22.6001 4.22357 23.4945 4.27096 24.1374C4.3468 25.2155 5.47964 25.9164 7.26658 25.9164C9.26682 25.9164 12.3572 24.6354 13.0919 21.174C13.0919 21.174 12.7886 22.5615 12.9545 23.8909C13.1535 25.4765 14.329 28 16.1871 28C18.0451 28 19.2206 25.4765 19.4197 23.8909C19.5856 22.5615 19.2822 21.174 19.2822 21.174C20.0169 24.6354 23.1026 25.9164 25.1076 25.9164C26.8945 25.9164 28.0273 25.2155 28.1032 24.1374C28.1506 23.4945 27.5486 22.5953 26.7902 21.6575C29.819 21.8412 32.5066 21.3239 32.3691 19.9075ZM10.0299 5.74793C9.67919 5.44337 9.77399 4.78591 10.2385 4.27832C10.703 3.77072 11.3666 3.60152 11.7173 3.90608C12.0681 4.21064 11.9733 4.86809 11.5088 5.37569C11.0443 5.88329 10.3807 6.04765 10.0299 5.74793ZM13.2294 14.5076C11.7837 14.5076 10.613 13.3135 10.613 11.8391C10.613 10.3646 11.7837 9.17058 13.2294 9.17058C14.675 9.17058 15.8458 10.3646 15.8458 11.8391C15.8458 13.3087 14.675 14.5076 13.2294 14.5076ZM14.8267 3.99793C13.8076 4.46202 12.7222 4.30249 12.3999 3.64503C12.0776 2.98273 12.6416 2.07389 13.6607 1.60981C14.6798 1.14572 15.7652 1.30525 16.0875 1.96271C16.4099 2.62017 15.8458 3.53384 14.8267 3.99793ZM21.8655 14.5076C20.4198 14.5076 19.2491 13.3135 19.2491 11.8391C19.2491 10.3646 20.4198 9.17058 21.8655 9.17058C23.3111 9.17058 24.4819 10.3646 24.4819 11.8391C24.4819 13.3087 23.3111 14.5076 21.8655 14.5076ZM22.0788 11.8198L23.041 10.6644C22.7424 10.3501 22.3252 10.1568 21.8655 10.1568C20.9554 10.1568 20.2207 10.9061 20.2207 11.8343C20.2207 12.7624 20.9554 13.5117 21.8655 13.5117C22.7755 13.5117 23.5102 12.7624 23.5102 11.8343C23.5102 11.8294 23.5102 11.8246 23.5102 11.8198H22.0788ZM14.8694 11.8198C14.8694 11.8246 14.8694 11.8294 14.8694 11.8343C14.8694 12.7624 14.1347 13.5117 13.2246 13.5117C12.3146 13.5117 11.5799 12.7624 11.5799 11.8343C11.5799 10.9061 12.3146 10.1568 13.2246 10.1568C13.6844 10.1568 14.1015 10.3501 14.4001 10.6644L13.4379 11.8198H14.8694Z" fill="#3443F4"/>
<path d="M48.0508 11.4676H51.1768C51.0808 10.6084 50.8478 9.84611 50.4776 9.18088C50.1074 8.51566 49.6344 7.9613 49.0585 7.51782C48.4964 7.06047 47.852 6.714 47.1254 6.4784C46.4124 6.2428 45.6515 6.125 44.8426 6.125C43.7183 6.125 42.7037 6.32595 41.7989 6.72786C40.9077 7.12977 40.1536 7.68412 39.5366 8.39093C38.9197 9.09773 38.4467 9.92927 38.1176 10.8855C37.7885 11.8279 37.624 12.8535 37.624 13.9622C37.624 15.0432 37.7885 16.0549 38.1176 16.9973C38.4467 17.9258 38.9197 18.7366 39.5366 19.4295C40.1536 20.1225 40.9077 20.6699 41.7989 21.0718C42.7037 21.4599 43.7183 21.6539 44.8426 21.6539C45.7475 21.6539 46.5769 21.5153 47.331 21.2381C48.0851 20.9609 48.7432 20.559 49.3053 20.0324C49.8675 19.5058 50.3199 18.8683 50.6627 18.1199C51.0054 17.3715 51.2179 16.533 51.3002 15.6045H48.1742C48.0508 16.6023 47.7081 17.4061 47.1459 18.0159C46.5975 18.6257 45.8297 18.9306 44.8426 18.9306C44.1159 18.9306 43.499 18.792 42.9917 18.5148C42.4844 18.2238 42.0731 17.8427 41.7577 17.3715C41.4424 16.9003 41.2093 16.3737 41.0585 15.7916C40.9214 15.1956 40.8528 14.5859 40.8528 13.9622C40.8528 13.3108 40.9214 12.6803 41.0585 12.0705C41.2093 11.4607 41.4424 10.9202 41.7577 10.449C42.0731 9.96391 42.4844 9.58279 42.9917 9.30562C43.499 9.01458 44.1159 8.86906 44.8426 8.86906C45.2402 8.86906 45.6172 8.93835 45.9737 9.07694C46.3439 9.20167 46.6729 9.38184 46.9608 9.61744C47.2488 9.85304 47.4887 10.1302 47.6806 10.449C47.8726 10.7539 47.996 11.0934 48.0508 11.4676Z" fill="#3443F4"/>
<path d="M52.7853 6.4784V21.3213H55.7056V15.6876C55.7056 14.5928 55.8838 13.8098 56.2403 13.3386C56.5968 12.8535 57.1726 12.611 57.9678 12.611C58.667 12.611 59.1538 12.8327 59.428 13.2762C59.7022 13.7058 59.8393 14.3641 59.8393 15.2511V21.3213H62.7596V14.7106C62.7596 14.0454 62.6979 13.4425 62.5745 12.902C62.4648 12.3476 62.266 11.8834 61.9781 11.5092C61.6902 11.1211 61.2926 10.8232 60.7853 10.6153C60.2917 10.3935 59.6542 10.2827 58.8727 10.2827C58.3243 10.2827 57.7622 10.4282 57.1863 10.7192C56.6105 10.9964 56.1375 11.4468 55.7673 12.0705H55.7056V6.4784H52.7853Z" fill="#3443F4"/>
<path d="M64.4413 13.8791C64.4825 13.1861 64.6539 12.611 64.9555 12.1536C65.2571 11.6963 65.641 11.329 66.1072 11.0518C66.5733 10.7747 67.0943 10.5806 67.6702 10.4698C68.2597 10.345 68.8493 10.2827 69.4388 10.2827C69.9735 10.2827 70.5151 10.3242 71.0635 10.4074C71.6119 10.4767 72.1123 10.6222 72.5648 10.844C73.0172 11.0657 73.3874 11.3775 73.6753 11.7794C73.9632 12.1675 74.1072 12.6872 74.1072 13.3386V18.9306C74.1072 19.4157 74.1346 19.88 74.1895 20.3234C74.2443 20.7669 74.3403 21.0995 74.4774 21.3213H71.5159C71.4611 21.155 71.4131 20.9887 71.372 20.8224C71.3446 20.6422 71.324 20.462 71.3103 20.2819C70.8441 20.7669 70.2957 21.1065 69.665 21.3005C69.0343 21.4945 68.3899 21.5915 67.7318 21.5915C67.2246 21.5915 66.7516 21.5292 66.3128 21.4044C65.8741 21.2797 65.4902 21.0857 65.1611 20.8224C64.8321 20.559 64.5716 20.2264 64.3796 19.8245C64.2014 19.4226 64.1123 18.9445 64.1123 18.3901C64.1123 17.7803 64.2151 17.2814 64.4208 16.8934C64.6401 16.4915 64.9144 16.1727 65.2434 15.9371C65.5862 15.7015 65.9701 15.5283 66.3951 15.4174C66.8338 15.2927 67.2726 15.1956 67.7113 15.1264C68.15 15.0571 68.5819 15.0016 69.0069 14.96C69.4319 14.9185 69.809 14.8561 70.138 14.7729C70.4671 14.6898 70.7276 14.572 70.9195 14.4195C71.1115 14.2532 71.2006 14.0176 71.1869 13.7127C71.1869 13.394 71.132 13.1445 71.0224 12.9644C70.9264 12.7703 70.7893 12.6248 70.611 12.5278C70.4465 12.4169 70.2477 12.3476 70.0146 12.3199C69.7953 12.2783 69.5553 12.2576 69.2948 12.2576C68.719 12.2576 68.2666 12.3823 67.9375 12.6317C67.6085 12.8812 67.4165 13.297 67.3617 13.8791H64.4413ZM71.1869 16.0618C71.0635 16.1727 70.9058 16.2628 70.7139 16.3321C70.5356 16.3875 70.3368 16.436 70.1175 16.4776C69.9118 16.5192 69.6924 16.5538 69.4594 16.5815C69.2263 16.6093 68.9932 16.6439 68.7601 16.6855C68.5408 16.7271 68.3214 16.7825 68.102 16.8518C67.8964 16.9211 67.7113 17.0181 67.5468 17.1428C67.3959 17.2537 67.2726 17.3992 67.1766 17.5794C67.0806 17.7595 67.0326 17.9882 67.0326 18.2654C67.0326 18.5287 67.0806 18.7505 67.1766 18.9306C67.2726 19.1108 67.4028 19.2563 67.5673 19.3672C67.7318 19.4642 67.9238 19.5335 68.1432 19.5751C68.3625 19.6166 68.5888 19.6374 68.8218 19.6374C69.3977 19.6374 69.8433 19.5404 70.1586 19.3464C70.4739 19.1524 70.707 18.9237 70.8578 18.6604C71.0086 18.3832 71.0978 18.106 71.1252 17.8288C71.1663 17.5517 71.1869 17.3299 71.1869 17.1636V16.0618Z" fill="#3443F4"/>
<path d="M78.9652 8.91064V6.4784H76.0449V8.91064H78.9652ZM76.0449 10.5737V21.3213H78.9652V10.5737H76.0449Z" fill="#3443F4"/>
<path d="M80.8534 10.5737V21.3213H83.7737V15.6876C83.7737 14.5928 83.952 13.8098 84.3084 13.3386C84.6649 12.8535 85.2407 12.611 86.0359 12.611C86.7352 12.611 87.2219 12.8327 87.4961 13.2762C87.7703 13.7058 87.9074 14.3641 87.9074 15.2511V21.3213H90.8277V14.7106C90.8277 14.0454 90.766 13.4425 90.6427 12.902C90.533 12.3476 90.3342 11.8834 90.0462 11.5092C89.7583 11.1211 89.3607 10.8232 88.8534 10.6153C88.3599 10.3935 87.7223 10.2827 86.9408 10.2827C86.3239 10.2827 85.7206 10.4282 85.1311 10.7192C84.5415 10.9964 84.0616 11.4468 83.6915 12.0705H83.6298V10.5737H80.8534Z" fill="#3443F4"/>
<path d="M97.5892 18.7851C97.1367 18.7851 96.7597 18.6881 96.4581 18.4941C96.1564 18.3 95.9097 18.0506 95.7177 17.7457C95.5395 17.4408 95.4092 17.1012 95.327 16.7271C95.2584 16.339 95.2241 15.951 95.2241 15.5629C95.2241 15.161 95.2653 14.7799 95.3475 14.4195C95.4435 14.0454 95.5875 13.7197 95.7794 13.4425C95.9851 13.1515 96.2319 12.9228 96.5198 12.7565C96.8214 12.5902 97.1779 12.507 97.5892 12.507C98.0691 12.507 98.4667 12.5971 98.782 12.7773C99.0973 12.9574 99.351 13.2 99.5429 13.5049C99.7349 13.8098 99.872 14.1632 99.9542 14.5651C100.037 14.9531 100.078 15.3689 100.078 15.8124C100.078 16.2004 100.023 16.5746 99.9131 16.9349C99.8171 17.2814 99.6663 17.5932 99.4607 17.8704C99.255 18.1476 98.9945 18.3693 98.6792 18.5356C98.3638 18.7019 98.0005 18.7851 97.5892 18.7851ZM102.854 20.6353V10.5737H100.078V12.0081H100.037C99.68 11.3844 99.2344 10.941 98.6997 10.6776C98.1787 10.4143 97.5686 10.2827 96.8694 10.2827C96.129 10.2827 95.4709 10.4282 94.8951 10.7192C94.333 11.0103 93.8599 11.4052 93.4761 11.9042C93.0922 12.3892 92.7974 12.9574 92.5917 13.6088C92.3998 14.2463 92.3038 14.9115 92.3038 15.6045C92.3038 16.339 92.3861 17.0389 92.5506 17.7041C92.7288 18.3555 93.003 18.9306 93.3732 19.4295C93.7434 19.9146 94.2164 20.3026 94.7923 20.5937C95.3681 20.8709 96.0536 21.0094 96.8488 21.0094C97.4932 21.0094 98.1033 20.8778 98.6792 20.6145C99.2687 20.3373 99.7212 19.9146 100.037 19.3464H100.078V20.76C100.091 21.5222 99.9063 22.1528 99.5224 22.6517C99.1522 23.1506 98.5558 23.4001 97.7331 23.4001C97.2122 23.4001 96.7528 23.2892 96.3552 23.0675C95.9576 22.8596 95.6903 22.4785 95.5532 21.9241H92.6534C92.6946 22.5339 92.8591 23.0536 93.147 23.4833C93.4486 23.9267 93.8188 24.2871 94.2576 24.5643C94.71 24.8414 95.2036 25.0424 95.7383 25.1671C96.2867 25.3057 96.8214 25.375 97.3424 25.375C98.5626 25.375 99.5361 25.2087 100.263 24.8761C100.989 24.5435 101.545 24.1346 101.929 23.6496C102.312 23.1784 102.559 22.6656 102.669 22.1112C102.792 21.5569 102.854 21.0649 102.854 20.6353Z" fill="#3443F4"/>
<path d="M114.768 21.3213V10.5737H111.848V16.2073C111.848 17.3022 111.67 18.0922 111.313 18.5772C110.957 19.0484 110.381 19.284 109.586 19.284C108.886 19.284 108.4 19.0692 108.126 18.6396C107.851 18.1961 107.714 17.5309 107.714 16.6439V10.5737H104.794V17.1844C104.794 17.8496 104.849 18.4594 104.958 19.0138C105.082 19.5543 105.287 20.0185 105.575 20.4066C105.863 20.7808 106.254 21.0718 106.748 21.2797C107.255 21.4876 107.899 21.5915 108.681 21.5915C109.298 21.5915 109.901 21.4529 110.491 21.1758C111.08 20.8986 111.56 20.4482 111.93 19.8245H111.992V21.3213H114.768Z" fill="#3443F4"/>
<path d="M116.45 13.8791C116.491 13.1861 116.663 12.611 116.964 12.1536C117.266 11.6963 117.65 11.329 118.116 11.0518C118.582 10.7747 119.103 10.5806 119.679 10.4698C120.268 10.345 120.858 10.2827 121.447 10.2827C121.982 10.2827 122.524 10.3242 123.072 10.4074C123.621 10.4767 124.121 10.6222 124.573 10.844C125.026 11.0657 125.396 11.3775 125.684 11.7794C125.972 12.1675 126.116 12.6872 126.116 13.3386V18.9306C126.116 19.4157 126.143 19.88 126.198 20.3234C126.253 20.7669 126.349 21.0995 126.486 21.3213H123.525C123.47 21.155 123.422 20.9887 123.381 20.8224C123.353 20.6422 123.333 20.462 123.319 20.2819C122.853 20.7669 122.304 21.1065 121.674 21.3005C121.043 21.4945 120.399 21.5915 119.741 21.5915C119.233 21.5915 118.76 21.5292 118.321 21.4044C117.883 21.2797 117.499 21.0857 117.17 20.8224C116.841 20.559 116.58 20.2264 116.388 19.8245C116.21 19.4226 116.121 18.9445 116.121 18.3901C116.121 17.7803 116.224 17.2814 116.429 16.8934C116.649 16.4915 116.923 16.1727 117.252 15.9371C117.595 15.7015 117.979 15.5283 118.404 15.4174C118.842 15.2927 119.281 15.1956 119.72 15.1264C120.159 15.0571 120.591 15.0016 121.016 14.96C121.441 14.9185 121.818 14.8561 122.147 14.7729C122.476 14.6898 122.736 14.572 122.928 14.4195C123.12 14.2532 123.209 14.0176 123.196 13.7127C123.196 13.394 123.141 13.1445 123.031 12.9644C122.935 12.7703 122.798 12.6248 122.62 12.5278C122.455 12.4169 122.256 12.3476 122.023 12.3199C121.804 12.2783 121.564 12.2576 121.304 12.2576C120.728 12.2576 120.275 12.3823 119.946 12.6317C119.617 12.8812 119.425 13.297 119.37 13.8791H116.45ZM123.196 16.0618C123.072 16.1727 122.914 16.2628 122.723 16.3321C122.544 16.3875 122.345 16.436 122.126 16.4776C121.92 16.5192 121.701 16.5538 121.468 16.5815C121.235 16.6093 121.002 16.6439 120.769 16.6855C120.549 16.7271 120.33 16.7825 120.111 16.8518C119.905 16.9211 119.72 17.0181 119.555 17.1428C119.405 17.2537 119.281 17.3992 119.185 17.5794C119.089 17.7595 119.041 17.9882 119.041 18.2654C119.041 18.5287 119.089 18.7505 119.185 18.9306C119.281 19.1108 119.411 19.2563 119.576 19.3672C119.741 19.4642 119.932 19.5335 120.152 19.5751C120.371 19.6166 120.597 19.6374 120.83 19.6374C121.406 19.6374 121.852 19.5404 122.167 19.3464C122.483 19.1524 122.716 18.9237 122.866 18.6604C123.017 18.3832 123.106 18.106 123.134 17.8288C123.175 17.5517 123.196 17.3299 123.196 17.1636V16.0618Z" fill="#3443F4"/>
<path d="M127.971 10.5737V21.3213H130.892V16.4776C130.892 15.9925 130.94 15.5421 131.036 15.1264C131.132 14.7106 131.289 14.3503 131.509 14.0454C131.742 13.7266 132.043 13.4771 132.413 13.297C132.784 13.1168 133.236 13.0267 133.771 13.0267C133.949 13.0267 134.134 13.0406 134.326 13.0683C134.518 13.0822 134.683 13.103 134.82 13.1307V10.3866C134.587 10.3173 134.374 10.2827 134.182 10.2827C133.812 10.2827 133.455 10.3381 133.113 10.449C132.77 10.5598 132.448 10.7192 132.146 10.9271C131.844 11.1211 131.577 11.3637 131.344 11.6547C131.111 11.9319 130.926 12.2368 130.789 12.5694H130.748V10.5737H127.971Z" fill="#3443F4"/>
<path d="M143.307 15.9163C143.307 16.3598 143.265 16.7894 143.183 17.2052C143.101 17.621 142.964 17.9951 142.772 18.3278C142.58 18.6465 142.319 18.9029 141.99 19.0969C141.675 19.2909 141.277 19.388 140.798 19.388C140.345 19.388 139.954 19.2909 139.625 19.0969C139.31 18.889 139.043 18.6257 138.823 18.307C138.618 17.9744 138.467 17.6002 138.371 17.1844C138.275 16.7686 138.227 16.3529 138.227 15.9371C138.227 15.4936 138.268 15.0709 138.35 14.669C138.446 14.2532 138.59 13.886 138.782 13.5672C138.988 13.2485 139.255 12.9921 139.584 12.7981C139.913 12.604 140.318 12.507 140.798 12.507C141.277 12.507 141.675 12.604 141.99 12.7981C142.306 12.9921 142.559 13.2485 142.751 13.5672C142.957 13.8721 143.101 14.2325 143.183 14.6482C143.265 15.0501 143.307 15.4728 143.307 15.9163ZM143.348 19.9492V21.3213H146.124V6.4784H143.204V11.8834H143.163C142.834 11.3567 142.381 10.9618 141.805 10.6984C141.243 10.4213 140.647 10.2827 140.016 10.2827C139.235 10.2827 138.549 10.442 137.959 10.7608C137.37 11.0657 136.876 11.4745 136.479 11.9873C136.095 12.5001 135.8 13.096 135.594 13.7751C135.402 14.4403 135.306 15.1333 135.306 15.8539C135.306 16.6023 135.402 17.323 135.594 18.0159C135.8 18.7089 136.095 19.3256 136.479 19.8661C136.876 20.3927 137.377 20.8154 137.98 21.1342C138.583 21.4391 139.283 21.5915 140.078 21.5915C140.777 21.5915 141.401 21.4668 141.949 21.2173C142.511 20.954 142.964 20.5313 143.307 19.9492H143.348Z" fill="#3443F4"/>
</svg>
