<?xml version="1.0" encoding="utf-8"?>
<!-- Generator: Adobe Illustrator 27.3.1, SVG Export Plug-In . SVG Version: 6.00 Build 0)  -->
<svg version="1.1" id="Layer_1" xmlns="http://www.w3.org/2000/svg" xmlns:xlink="http://www.w3.org/1999/xlink" x="0px" y="0px"
	 viewBox="0 0 307.4 107.7" style="enable-background:new 0 0 307.4 107.7;" xml:space="preserve">
<style type="text/css">
	.st0{fill:#435363;}
	.st1{fill:#F38B00;}
</style>
<g>
	<path class="st0" d="M127,54v-0.1c0-12.6,9.5-22.8,23-22.8c8.3,0,13.3,2.8,17.4,6.8l-6.2,7.2c-3.4-3.1-6.9-5-11.3-5
		c-7.4,0-12.8,6.2-12.8,13.8v0.1c0,7.6,5.2,13.9,12.8,13.9c5,0,8.1-2,11.6-5.2l6.2,6.2c-4.5,4.9-9.6,7.9-18.1,7.9
		C136.6,76.7,127,66.7,127,54 M178.2,31.7h9.7v17.5h17.9V31.7h9.7v44.2h-9.7V58.1h-17.9v17.7h-9.7C178.2,75.9,178.2,31.7,178.2,31.7
		z M227.4,31.7h33.3v8.6H237v9h20.8V58H237v9.3h24v8.6h-33.6V31.7z M273.8,31.7h33.6v8.8h-23.9v9.4h21.1v8.8h-21.1v17.1h-9.7
		L273.8,31.7z M53.9,78.1c-13.4,0-24.3-10.9-24.3-24.2s10.9-24.3,24.3-24.3c11,0,20.4,7.4,23.3,17.5h9.4
		C83.5,31.9,70,20.5,53.9,20.5c-18.4,0-33.3,14.9-33.4,33.4c0,18.4,14.9,33.3,33.4,33.4c16.1,0,29.6-11.4,32.7-26.6h-9.4
		C74.3,70.7,65,78.1,53.9,78.1"/>
	<path class="st0" d="M37.6,70.2c4.2,4.2,10,6.8,16.3,6.8v-9.7c-3.6,0-7-1.4-9.5-3.9L37.6,70.2z"/>
</g>
<path class="st1" d="M30.8,53.8c0,3.2,0.7,6.4,2,9.3l8.9-3.9c-0.8-1.7-1.1-3.6-1.1-5.4c0-7.4,6-13.5,13.5-13.5v-9.7
	C41.2,30.7,30.8,41.1,30.8,53.8"/>
<path class="st0" d="M62.3,32.3l-3.5,9c2.9,1.1,5.3,3.1,6.8,5.8H76C74,40.3,68.9,34.9,62.3,32.3"/>
<path class="st1" d="M58.8,66.4l3.5,9c6.6-2.6,11.7-8,13.7-14.8H65.6C64,63.2,61.7,65.3,58.8,66.4"/>
<path class="st0" d="M11.1,66.8l-0.4-1.5l0-0.1l-0.4-1.4l-0.1-0.3l-0.3-1.2l-0.1-0.6l-0.2-1l-0.1-0.9c-0.3-1.9-0.4-3.9-0.4-5.9H0
	c0,2.2,0.1,4.4,0.4,6.5l0,0.1l0.2,1.7l0.1,0.5L1,64.1l0.2,0.7L1.4,66l0.2,1l0.2,0.9l0.5,1.6c0.6,2.1,1.4,4.1,2.2,6.1l8.4-3.7
	C12.2,70.2,11.6,68.5,11.1,66.8L11.1,66.8z"/>
<path class="st1" d="M53.9,98.6c-12.3,0-23.5-5-31.6-13.1l-6.5,6.5c9.7,9.7,23.2,15.8,38.1,15.8c27.5,0,50.1-20.6,53.4-47.1h-9.2
	C94.8,82.4,76,98.5,53.9,98.6 M53.9,9.1c9.6,0,19,3.1,26.7,8.9l5.5-7.3C76.8,3.7,65.5,0,53.9,0C31.1,0,11.5,14.2,3.7,34.3l8.5,3.3
	C18.8,21,35,9.1,53.9,9.1"/>
<path class="st0" d="M98.1,47.1h9.2c-1-7.7-3.6-15.2-7.7-21.8l-7.8,4.8C95.1,35.3,97.2,41.1,98.1,47.1"/>
<path class="st1" d="M87.8,47.1H97c-2.4-15.5-13-28.3-27.3-33.9l-3.3,8.5C77.4,26,85.4,35.6,87.8,47.1"/>
<path class="st0" d="M53.9,19.4v-9.1c-18.5,0-34.3,11.5-40.6,27.8l8.5,3.3C26.8,28.5,39.3,19.4,53.9,19.4"/>
<path class="st1" d="M19.4,53.8h-9.1c0,18.3,11.4,34,27.4,40.5l3.4-8.5C28.4,80.7,19.4,68.3,19.4,53.8"/>
<path class="st0" d="M53.9,88.3v9.1c21.7,0,39.8-16,43.1-36.9h-9.2C84.6,76.4,70.7,88.3,53.9,88.3"/>
</svg>
