<?xml version="1.0" encoding="utf-8"?>
<!-- Generator: Adobe Illustrator 16.0.3, SVG Export Plug-In . SVG Version: 6.00 Build 0)  -->
<!DOCTYPE svg PUBLIC "-//W3C//DTD SVG 1.1//EN" "http://www.w3.org/Graphics/SVG/1.1/DTD/svg11.dtd">
<svg version="1.1" id="Layer_1" xmlns="http://www.w3.org/2000/svg" xmlns:xlink="http://www.w3.org/1999/xlink" x="0px" y="0px"
	 width="300px" height="128.207px" viewBox="0 85.896 300 128.207" enable-background="new 0 85.896 300 128.207"
	 xml:space="preserve">
<g>
	<rect x="238.33" y="89.954" fill="#884B2E" width="61.67" height="120.093"/>
	<g>
		<polygon opacity="0.2" fill="#FFFFFF" enable-background="new    " points="258.501,96.445 258.501,89.954 300,89.954 
			300,210.047 293.16,203.439 293.16,171.793 300,169.127 293.16,166.576 293.16,133.423 300,130.873 293.16,128.207 293.16,96.445 
					"/>
	</g>
	<polygon opacity="0.3" fill="#FFFFFF" enable-background="new    " points="293.16,133.423 260.703,133.423 260.703,130.873 
		300,130.873 	"/>
	<polygon opacity="0.3" fill="#FFFFFF" enable-background="new    " points="293.16,171.793 260.703,171.793 260.703,169.127 
		300,169.127 	"/>
	<g opacity="0.2">
		<polygon fill="#12100B" points="300,130.873 260.703,130.873 260.703,128.207 293.16,128.207 		"/>
		<polygon fill="#12100B" points="300,169.127 260.703,169.127 260.703,166.576 293.16,166.576 		"/>
		<polygon fill="#12100B" points="300,210.047 257.342,210.047 257.342,203.439 293.16,203.439 		"/>
	</g>
</g>
<g>
	<g>
		<g>
			<polygon fill="#80B5E3" points="267.078,203.555 261.979,210.047 13.563,210.047 13.563,89.954 262.441,89.954 267.078,96.445 
				264.992,107.458 272.18,118.354 267.078,122.759 270.093,139.451 264.412,148.377 268.701,154.637 263.254,169.475 
				265.688,178.168 269.745,191.963 			"/>
		</g>
		<polygon fill="#80B5E3" points="13.563,210.047 13.563,89.954 0,85.896 6.607,98.532 1.623,107.11 6.607,115.688 1.623,124.266 
			6.607,132.844 1.623,141.422 6.607,150 1.623,158.578 6.607,167.156 1.623,175.734 6.607,184.313 1.623,192.891 6.607,201.469 
			0,214.104 		"/>
	</g>
</g>
<path fill="#FDC300" d="M241.113,161.012C241.113,161.012,241.113,160.896,241.113,161.012
	C241.113,160.896,241.113,160.896,241.113,161.012z"/>
<g>
	<g>
		<path fill="#884B2E" d="M219.088,156.375c3.826,1.392,13.215-7.998,16.345-10.548c3.362-2.666,4.985-0.927,2.897,2.203
			c-1.97,3.014-6.027,8.23-4.172,9.39c3.824,2.435,8.81-3.362,10.664-5.796c5.912-7.535,4.521,1.275,3.014,5.448
			c-3.361,9.39-7.07,33.732-44.629,24.923c-6.26-1.508-15.417-9.506-9.158-15.07c6.377-5.795,25.734-4.637,31.299,1.739
			c1.738,1.971,0.58,4.637-2.086,2.55c-1.971-1.507-5.217-3.594-11.709-3.594c-2.897,0-8.346,2.436-4.868,5.912
			c3.478,3.479,18.548,4.289,23.532,2.318c9.621-3.941,10.084-13.678,10.896-14.838l0.115-0.115c0,0-0.115,0-0.115,0.115
			c-1.971,1.739-4.869,3.941-10.434,2.318c-4.057-1.158-2.781-4.752-2.086-6.955c-4.058,3.015-7.188,4.058-10.896,3.479
			c-1.971-0.348-4.058-1.043-5.332-3.131c-11.36,3.131-16.809-2.55-11.592-12.171c3.824-7.071,8.461-13.215,10.548-15.765
			c5.448-6.492,10.433-1.971,7.535,1.275c-3.71,3.941-10.201,9.969-13.446,15.533c-4.985,8.578,2.897,9.622,5.911,8.809
			c-0.116-0.231-0.116-0.463-0.116-0.811c-1.506-8.347,8.926-18.547,16.693-10.665c1.854,3.941-4.058,9.042-10.317,11.94
			c-0.231,0.115-0.464,0.231-0.695,0.348C217.35,155.564,218.045,156.027,219.088,156.375z M215.263,152.898
			c4.289-1.971,7.883-5.101,6.376-6.724C219.32,143.74,214.104,148.841,215.263,152.898z"/>
		<path fill="#884B2E" d="M61.321,145.479c5.68,4.985,18.083-12.751,13.563-16.345c-7.071-5.448-19.938,9.39-21.677,17.388
			c-1.391,6.376,2.666,12.983,10.665,11.128c9.622-2.202,15.07-7.303,19.822-13.099c2.898-3.594,15.186-21.445,12.172-24.691
			c-2.55-2.666-8.462,0.812-8.81,11.36c-0.116,4.173,0.812,10.78,0.695,17.852c1.971-3.478,5.912-8.23,9.39-8.694
			c11.128-1.623-2.666,15.996,2.086,14.953c3.246-0.695,7.187-19.126,16.461-19.242c8.346-0.116,5.448,15.881-2.782,19.59
			c-7.767,3.479-8.926-4.752-6.375-11.244c1.043-2.667,6.144-4.521,3.941-1.855c-2.55,3.13-1.97,8.462,1.391,7.767
			c5.68-1.275,8.694-12.867,2.55-10.78c-6.26,1.971-7.419,13.563-13.099,17.852c-1.971,1.274-4.869,1.507-5.564,0.695
			c-2.202-2.55,4.869-13.91,0.812-13.331c-3.13,0.463-6.028,8.115-7.882,11.708c-0.348,0.695-1.275,4.404-1.275,4.404l-4.173,1.159
			c1.159-8.23,0.811-16.924,0.58-28.284c-0.348-12.172,7.65-22.373,15.186-22.373c11.592,0,5.68,10.665,0.58,17.388
			c-8.694,11.36-19.707,30.254-31.53,38.485c-15.997,11.013-30.371-3.593-24.343-19.938c3.825-10.317,18.083-28.632,31.53-22.489
			c11.128,5.101,3.478,17.504-3.13,22.72c-3.362,2.667-9.273,4.058-12.288,0.232C58.54,146.406,59.699,143.972,61.321,145.479z"/>
		<path fill="#884B2E" d="M134.583,140.61c0.348-2.434-0.811-3.014-2.782-2.666c-2.782,0.348-5.448,3.594-5.68,7.071
			c-0.116,2.086,1.507,3.825,5.216,3.478c6.492-0.696,10.317-11.36,15.881-14.143c10.896-5.448,12.867,11.592,3.825,17.853
			c-5.796,4.057-12.519,0.115-11.128-7.767c1.043-5.68,6.028-11.476,12.288-11.128c6.49,0.348,5.795,6.26,11.127,7.535
			c5.681,1.391,11.014-10.201,11.245-15.649c0.231-5.912-3.478-5.796-8.114,1.623c-2.782,4.637-6.492,20.518-0.348,22.373
			c5.1,1.507,13.215-16.46,23.299-14.142c6.607,1.507,4.985,15.417-1.158,18.083c-3.014,2.087-6.376,1.623-8.694,1.043
			c-6.376-1.622-5.216-11.128,0.348-15.997c3.015-2.55,5.563-1.159,2.435,1.043c-3.709,2.55-3.479,7.535-0.58,8.462
			c7.883,2.434,10.896-10.317,4.637-10.085c-2.202,0.116-5.447,1.971-9.854,7.071c-2.666,3.13-7.534,8.926-10.432,9.158
			c-3.014,0.231-5.217-1.043-6.145-6.607c-1.275-7.882,1.275-16.576,4.289-23.184c8.347-18.2,22.488-9.274,17.272,2.666
			c-2.435,5.564-8.81,14.722-14.954,16.577c-6.839,2.086-7.07-3.941-12.055-6.492c-7.304-3.825-15.766,8.346-6.956,9.39
			c6.491,0.116,10.201-11.476,2.434-9.854c-7.303,1.623-9.969,11.476-15.765,15.882c-7.999,6.027-14.954-0.813-11.476-10.897
			c1.043-3.13,5.564-7.303,9.622-7.419c4.173-0.116,6.028,2.782,4.521,6.839C136.206,142.581,134.235,142.465,134.583,140.61z"/>
		<path fill="#884B2E" d="M198.106,140.379c-3.825,2.782-5.216,8.462-2.666,11.476c1.044,1.275,4.405,1.623,7.071,0.579l0.695,2.203
			c-9.273,5.332-15.069-2.434-11.359-11.592c0.348-1.043,2.201-3.594,3.824-4.985C198.106,135.974,200.541,138.524,198.106,140.379z
			"/>
		<path fill="#884B2E" d="M202.396,132.38c-3.478-2.435-4.405,0.231-2.435,1.854c9.042,7.187,17.041,5.564,19.707,3.825
			c2.434-1.507,0.928-3.129-1.043-2.782C212.249,136.206,207.033,135.626,202.396,132.38z"/>
	</g>
</g>
<polygon opacity="0.2" fill="#FFFFFF" enable-background="new    " points="22.952,203.555 13.563,210.047 13.563,89.954 
	22.952,96.445 "/>
<polygon opacity="0.2" fill="#FFFFFF" enable-background="new    " points="13.563,89.954 22.952,96.445 267.078,96.445 
	262.441,89.954 "/>
<polygon opacity="0.2" fill="#12100B" enable-background="new    " points="267.078,203.555 22.952,203.555 13.563,210.047 
	261.979,210.047 "/>
</svg>
