<?xml version="1.0" encoding="utf-8"?>
<!-- Generator: Adobe Illustrator 27.3.1, SVG Export Plug-In . SVG Version: 6.00 Build 0)  -->
<svg version="1.1" id="artwork" xmlns="http://www.w3.org/2000/svg" xmlns:xlink="http://www.w3.org/1999/xlink" x="0px" y="0px"
	 viewBox="0 0 862.4 572.7" style="enable-background:new 0 0 862.4 572.7;" xml:space="preserve">
<style type="text/css">
	.st0{fill:#000020;}
	.st1{fill:#FFFFFF;}
	.st2{fill:#E95420;}
</style>
<g>
	<g>
		<path class="st0" d="M55,572.5c-9.1,0-17-1.4-23.8-4.3c-6.8-2.9-12.6-6.9-17.3-12.1c-4.7-5.2-8.2-11.3-10.5-18.4
			c-2.3-7.1-3.5-15-3.5-23.6c0-8.6,1.3-16.5,3.8-23.7c2.5-7.2,6.1-13.4,10.7-18.7c4.6-5.2,10.2-9.3,16.9-12.3
			c6.7-2.9,14.1-4.4,22.3-4.4c5,0,10.1,0.4,15.1,1.3c5,0.9,9.9,2.2,14.5,4.1l-4.5,17c-3-1.4-6.5-2.6-10.5-3.5
			c-4-0.9-8.2-1.3-12.6-1.3c-11.2,0-19.8,3.5-25.8,10.6c-6,7-9,17.3-9,30.8c0,6,0.7,11.6,2.1,16.6c1.4,5,3.5,9.3,6.5,12.9
			c2.9,3.6,6.7,6.4,11.3,8.3c4.6,1.9,10.2,2.9,16.8,2.9c5.3,0,10.1-0.5,14.5-1.5c4.3-1,7.7-2.1,10.1-3.2l2.8,16.8
			c-1.2,0.7-2.8,1.4-5,2.1c-2.2,0.6-4.6,1.2-7.3,1.7c-2.7,0.5-5.6,0.9-8.7,1.3C60.9,572.3,57.9,572.5,55,572.5z"/>
		<path class="st0" d="M134.3,572.1c-12.4-0.3-21.1-2.9-26.3-8c-5.2-5-7.8-12.9-7.8-23.5V406l20.1-3.5v134.8c0,3.3,0.3,6,0.9,8.2
			c0.6,2.2,1.5,3.9,2.8,5.2c1.3,1.3,3,2.3,5.2,2.9c2.2,0.6,4.8,1.2,8,1.6L134.3,572.1z"/>
		<path class="st0" d="M251.2,513.8c0,8.9-1.3,17-3.9,24.2c-2.6,7.2-6.2,13.4-10.9,18.6c-4.7,5.2-10.2,9.2-16.7,12
			c-6.5,2.8-13.5,4.2-21.1,4.2c-7.6,0-14.7-1.4-21.1-4.2c-6.5-2.8-12-6.8-16.7-12c-4.7-5.2-8.3-11.4-10.9-18.6
			c-2.6-7.2-3.9-15.2-3.9-24.2c0-8.8,1.3-16.8,3.9-24.1c2.6-7.3,6.2-13.5,10.9-18.7c4.7-5.2,10.2-9.2,16.7-12s13.5-4.2,21.1-4.2
			c7.6,0,14.7,1.4,21.1,4.2c6.5,2.8,12,6.8,16.7,12c4.7,5.2,8.3,11.4,10.9,18.7C249.9,497.1,251.2,505.1,251.2,513.8z M230.3,513.8
			c0-12.7-2.8-22.7-8.5-30.1c-5.7-7.4-13.4-11.1-23.2-11.1c-9.8,0-17.5,3.7-23.2,11.1c-5.7,7.4-8.5,17.4-8.5,30.1
			c0,12.7,2.8,22.7,8.5,30.1c5.7,7.4,13.4,11.1,23.2,11.1c9.8,0,17.5-3.7,23.2-11.1C227.4,536.5,230.3,526.5,230.3,513.8z"/>
		<path class="st0" d="M363.1,566.7c-4.6,1.2-10.7,2.4-18.2,3.7c-7.6,1.3-16.3,1.9-26.2,1.9c-8.6,0-15.9-1.3-21.8-3.8
			c-5.9-2.5-10.6-6.1-14.2-10.7c-3.6-4.6-6.2-10-7.8-16.3c-1.6-6.3-2.4-13.2-2.4-20.8v-63h20.1v58.7c0,13.7,2.2,23.4,6.5,29.3
			c4.3,5.9,11.6,8.8,21.8,8.8c2.2,0,4.4-0.1,6.7-0.2c2.3-0.1,4.5-0.3,6.5-0.5c2-0.2,3.8-0.4,5.5-0.6c1.7-0.2,2.8-0.5,3.6-0.8v-94.7
			h20.1L363.1,566.7L363.1,566.7z"/>
		<path class="st0" d="M464.9,406l20.1-3.5v164.2c-4.6,1.3-10.5,2.6-17.7,3.9c-7.2,1.3-15.5,1.9-24.8,1.9c-8.6,0-16.4-1.4-23.3-4.1
			c-6.9-2.7-12.8-6.6-17.7-11.7c-4.9-5-8.7-11.2-11.3-18.4c-2.7-7.3-4-15.4-4-24.5c0-8.6,1.1-16.5,3.3-23.7
			c2.2-7.2,5.5-13.4,9.8-18.6c4.3-5.2,9.6-9.2,15.9-12.1c6.3-2.9,13.4-4.3,21.5-4.3c6.5,0,12.2,0.9,17.2,2.6c5,1.7,8.7,3.4,11.1,5
			L464.9,406L464.9,406z M464.9,481.5c-2.4-2-6-4-10.6-5.8c-4.6-1.9-9.6-2.8-15.1-2.8c-5.8,0-10.7,1-14.8,3.1c-4.1,2.1-7.4,5-10,8.6
			c-2.6,3.7-4.5,8-5.6,13.1c-1.2,5-1.7,10.4-1.7,16.2c0,13.1,3.2,23.2,9.7,30.3c6.5,7.1,15.1,10.7,25.9,10.7c5.5,0,10-0.2,13.7-0.8
			c3.7-0.5,6.5-1,8.5-1.6L464.9,481.5L464.9,481.5z"/>
		<path class="st0" d="M507.3,495.9h53.3v18.8h-53.3V495.9z"/>
		<path class="st0" d="M591.7,437.5c-3.6,0-6.7-1.2-9.2-3.6c-2.5-2.4-3.8-5.6-3.8-9.6c0-4,1.3-7.2,3.8-9.6c2.5-2.4,5.6-3.6,9.2-3.6
			c3.6,0,6.7,1.2,9.2,3.6c2.5,2.4,3.8,5.6,3.8,9.6c0,4-1.3,7.2-3.8,9.6C598.3,436.3,595.3,437.5,591.7,437.5z M601.8,569.9h-20.1
			V457.8h20.1V569.9z"/>
		<path class="st0" d="M630.3,461c4.6-1.1,10.7-2.4,18.3-3.7c7.6-1.3,16.4-1.9,26.3-1.9c8.9,0,16.3,1.3,22.2,3.8
			c5.9,2.5,10.6,6,14.1,10.6c3.5,4.5,6,10,7.4,16.3c1.4,6.3,2.2,13.3,2.2,20.9v63h-20.1v-58.7c0-6.9-0.5-12.8-1.4-17.7
			c-0.9-4.9-2.5-8.8-4.6-11.9c-2.2-3-5-5.2-8.6-6.6c-3.6-1.4-8.1-2.1-13.4-2.1c-2.2,0-4.4,0.1-6.7,0.2c-2.3,0.1-4.5,0.3-6.6,0.5
			c-2.1,0.2-4,0.5-5.6,0.8c-1.7,0.3-2.8,0.5-3.6,0.6v94.7h-20.1L630.3,461L630.3,461z"/>
		<path class="st0" d="M758,437.5c-3.6,0-6.7-1.2-9.2-3.6c-2.5-2.4-3.8-5.6-3.8-9.6c0-4,1.3-7.2,3.8-9.6c2.5-2.4,5.6-3.6,9.2-3.6
			c3.6,0,6.7,1.2,9.2,3.6c2.5,2.4,3.8,5.6,3.8,9.6c0,4-1.3,7.2-3.8,9.6C764.7,436.3,761.6,437.5,758,437.5z M768.2,569.9h-20.1
			V457.8h20.1V569.9z"/>
		<path class="st0" d="M815.6,457.8h42.5v16.8h-42.5v51.8c0,5.6,0.4,10.2,1.3,13.9c0.9,3.7,2.2,6.5,3.9,8.6c1.7,2.1,3.9,3.6,6.5,4.4
			c2.6,0.9,5.6,1.3,9.1,1.3c6,0,10.9-0.7,14.6-2c3.7-1.4,6.2-2.3,7.7-2.9l3.9,16.6c-2,1-5.5,2.3-10.6,3.8c-5,1.5-10.8,2.3-17.3,2.3
			c-7.6,0-13.9-1-18.9-2.9c-5-1.9-9-4.9-12-8.7c-3-3.9-5.1-8.7-6.4-14.3c-1.2-5.7-1.8-12.3-1.8-19.7V426.5l20.1-3.5L815.6,457.8
			L815.6,457.8z"/>
	</g>
	<g>
		<circle class="st1" cx="431.2" cy="169.9" r="169.9"/>
		<path class="st2" d="M431.2,0c-93.9,0-170.1,76.1-170.1,170.1c0,54,25.2,102.1,64.4,133.2v-37.4c0-8.8,7.1-15.9,15.9-15.9
			c8.8,0,15.9,7.1,15.9,15.9v57.5c3.5,1.7,7,3.2,10.6,4.7v-62.1c0-8.8,7.1-15.9,15.9-15.9c8.8,0,15.9,7.1,15.9,15.9v71.4
			c3.5,0.7,7.1,1.2,10.6,1.6v-73c0-8.8,7.1-15.9,15.9-15.9c8.8,0,15.9,7.1,15.9,15.9v73.9c3.6-0.2,7.1-0.6,10.6-1V202.1
			c0-8.8,7.1-15.9,15.9-15.9s15.9,7.1,15.9,15.9v129.4c67.6-22.5,116.3-86.3,116.3-161.4C601.3,76.2,525.1,0,431.2,0z"/>
		<path class="st1" d="M532.8,170.1H405.2c-21.1,0-38.3-17.1-38.3-38.3c0-20.3,15.9-37,35.9-38.2c-9-18-2.5-40,15.1-50.2
			c17.6-10.2,39.9-4.7,51,12c11.1-16.7,33.4-22.2,51-12c17.6,10.2,24.1,32.2,15.1,50.2c20,1.2,35.9,17.9,35.9,38.2
			C571.1,153,553.9,170.1,532.8,170.1z"/>
		<g>
			<path class="st2" d="M468.9,120.9c4.1,0,7.4-3.3,7.4-7.4V79c0-4.1-3.3-7.4-7.4-7.4c-4.1,0-7.4,3.3-7.4,7.4v34.5
				C461.6,117.6,464.9,120.9,468.9,120.9z"/>
			<path class="st2" d="M486.2,88.3c-3,2.7-3.3,7.4-0.6,10.4c7.7,8.7,7.3,22-0.9,30.3c-4.2,4.2-9.7,6.5-15.6,6.5
				c-5.9,0-11.5-2.3-15.6-6.5c-8.3-8.3-8.7-21.6-0.9-30.4c2.7-3,2.5-7.7-0.6-10.4c-3-2.7-7.7-2.5-10.4,0.6
				c-13,14.6-12.4,36.8,1.4,50.6c7,7,16.2,10.8,26.1,10.8c0,0,0,0,0,0c9.8,0,19.1-3.8,26.1-10.8c13.8-13.8,14.4-36,1.5-50.5
				C493.9,85.9,489.2,85.6,486.2,88.3z"/>
			<path class="st2" d="M468.7,194.1c-4.4,0-8,3.6-8,8c0,4.4,3.6,8,8,8c4.4,0,8-3.6,8-8C476.7,197.7,473.1,194.1,468.7,194.1z"/>
		</g>
	</g>
</g>
</svg>
