<?xml version="1.0" encoding="utf-8"?>
<!-- Generator: Adobe Illustrator 27.3.1, SVG Export Plug-In . SVG Version: 6.00 Build 0)  -->
<svg version="1.1" id="Layer_1" xmlns="http://www.w3.org/2000/svg" xmlns:xlink="http://www.w3.org/1999/xlink" x="0px" y="0px"
	 viewBox="0 0 1030 207" style="enable-background:new 0 0 1030 207;" xml:space="preserve">
<style type="text/css">
	.st0{fill:#FFFFFF;}
	.st1{fill:#E95420;}
</style>
<circle class="st0" cx="103.3" cy="103.3" r="103"/>
<g>
	<path class="st1" d="M122.5,117.9c2.7,0,4.8,2.2,4.8,4.8s-2.2,4.8-4.8,4.8c-2.7,0-4.8-2.2-4.8-4.8S119.8,117.9,122.5,117.9
		L122.5,117.9z M149.7,103.3H109L50.4,64.5l2.4-5.9L97,67.7l0.1-33.5l22.5,26.1l36.6-39.7l5.4,3.2l-17.8,52.4l53.5-15.5
		C181.1,25,145,0,103.3,0C46.3,0,0,46.3,0,103.3c0,31.1,13.8,59,35.5,77.9v-19.7c0-5.4,4.3-9.7,9.7-9.7c5.3,0,9.7,4.3,9.7,9.7v33
		c2.1,1.1,4.3,2.2,6.5,3.1v-36.2c0-5.4,4.3-9.7,9.7-9.7c5.3,0,9.7,4.3,9.7,9.7V204c2.1,0.5,4.3,0.9,6.5,1.2v-43.8
		c0-5.3,4.3-9.7,9.7-9.7c5.3,0,9.7,4.3,9.7,9.7v44.9v0.1c2.2-0.1,4.3-0.2,6.5-0.4v-83.3c0-5.3,4.3-9.7,9.7-9.7
		c5.4,0,9.7,4.3,9.7,9.7v79.6c42.8-12.6,74.2-52.2,74.2-99.1c0-11.9-2-23.3-5.8-34L149.7,103.3L149.7,103.3L149.7,103.3z"/>
	<path d="M300,182.4c-8,0-15.1-1.3-21.2-3.8s-11.2-6.2-15.3-10.9s-7.2-10.4-9.3-17s-3.2-13.9-3.2-21.9c0-8.1,1.1-15.5,3.3-22.2
		s5.4-12.4,9.5-17.2c4.1-4.8,9.1-8.5,15-11.1s12.5-3.9,19.8-3.9c5.6,0,10.8,0.5,15.7,1.4c4.9,0.9,8.6,2.1,11.3,3.6l-3.4,11.2
		c-2.7-1.3-5.7-2.4-9-3.2c-3.3-0.8-7.8-1.2-13.4-1.2c-11.5,0-20.2,3.7-26.1,11.1s-8.9,17.9-8.9,31.5c0,6.1,0.7,11.8,2,16.9
		c1.3,5.1,3.5,9.5,6.5,13.2s6.9,6.5,11.6,8.6s10.5,3.1,17.3,3.1c5.6,0,10.3-0.6,14.1-1.9c3.8-1.3,6.6-2.4,8.3-3.3l2.8,11.2
		c-2.4,1.3-6.2,2.6-11.3,3.9S305.6,182.4,300,182.4z M370.9,182c-4.4-0.1-8.2-0.7-11.5-1.7s-6-2.5-8.2-4.6s-3.9-4.7-5-8
		s-1.7-7.4-1.7-12.3v-128l13-2.4v130c0,3.2,0.3,5.8,0.9,7.7s1.5,3.5,2.7,4.6s2.8,2,4.7,2.5c1.9,0.5,4.2,1,6.9,1.4L370.9,182z
		 M479.4,128.6c0,8.1-1.2,15.5-3.5,22.2s-5.6,12.3-9.8,17s-9.2,8.3-14.9,10.9c-5.7,2.6-12.1,3.9-19,3.9s-13.3-1.3-19-3.9
		c-5.7-2.6-10.7-6.2-14.9-10.9c-4.2-4.7-7.5-10.3-9.8-17s-3.5-14.1-3.5-22.2s1.2-15.5,3.5-22.2s5.6-12.4,9.8-17.1
		c4.2-4.7,9.2-8.4,14.9-11c5.7-2.6,12.1-3.9,19-3.9s13.3,1.3,19,3.9s10.7,6.3,14.9,11c4.2,4.7,7.5,10.4,9.8,17.1
		S479.4,120.5,479.4,128.6z M465.6,128.6c0-12.9-3-23.2-9-30.9s-14.1-11.5-24.4-11.5s-18.4,3.8-24.4,11.5s-9,18-9,30.9
		s3,23.2,9,30.8s14.1,11.4,24.4,11.4s18.4-3.8,24.4-11.4S465.6,141.5,465.6,128.6z M582.5,176.6c-3.9,1.1-9.1,2.3-15.6,3.6
		s-14.5,2-24,2c-7.7,0-14.2-1.1-19.4-3.4s-9.4-5.5-12.6-9.6c-3.2-4.1-5.5-9.1-6.9-15s-2.1-12.3-2.1-19.4v-58h13v53.8
		c0,7.3,0.5,13.5,1.6,18.6s2.8,9.2,5.2,12.3s5.5,5.4,9.3,6.8s8.4,2.1,13.9,2.1c6.1,0,11.5-0.3,16-1s7.4-1.3,8.6-1.8V76.8h13V176.6z
		 M694.6,177c-3.9,1.3-8.8,2.6-14.8,3.8s-13.6,1.8-22.8,1.8c-7.6,0-14.5-1.2-20.7-3.7s-11.5-6-16-10.7s-7.9-10.3-10.4-17
		s-3.7-14.2-3.7-22.6c0-7.9,1-15.1,3.1-21.7s5.1-12.3,9.1-17.1c4-4.8,8.9-8.5,14.7-11.2s12.4-4,19.9-4c6.8,0,12.7,1,17.7,2.9
		s8.6,3.8,10.9,5.5V27.4l13-2.4V177z M681.6,95.6c-1.2-0.9-2.7-1.9-4.5-3s-3.9-2.1-6.3-3c-2.4-0.9-5-1.7-7.8-2.3
		c-2.8-0.6-5.7-0.9-8.8-0.9c-6.4,0-11.8,1.1-16.1,3.4s-7.8,5.3-10.5,9.1c-2.7,3.8-4.6,8.3-5.8,13.4s-1.8,10.6-1.8,16.3
		c0,13.6,3.4,24,10.2,31.3s15.8,10.9,27,10.9c6.4,0,11.6-0.3,15.5-0.9c3.9-0.6,6.9-1.2,8.9-1.9L681.6,95.6L681.6,95.6z M712.9,116
		h45.2v12.6h-45.2V116z M789.4,180.2h-13V76.8h13V180.2z M792.4,45.6c0,3.1-0.9,5.5-2.8,7.3c-1.9,1.8-4.1,2.7-6.8,2.7
		s-4.9-0.9-6.8-2.7c-1.9-1.8-2.8-4.2-2.8-7.3s0.9-5.5,2.8-7.3c1.9-1.8,4.1-2.7,6.8-2.7s4.9,0.9,6.8,2.7S792.4,42.5,792.4,45.6z
		 M819.3,80.4c3.9-1.1,9.1-2.3,15.6-3.6c6.5-1.3,14.5-2,24-2c7.9,0,14.4,1.1,19.7,3.4s9.5,5.5,12.6,9.7s5.4,9.2,6.7,15.1
		s2,12.3,2,19.4v57.8h-13v-53.6c0-7.3-0.5-13.5-1.5-18.6s-2.7-9.2-5-12.4c-2.3-3.2-5.4-5.5-9.2-6.9s-8.6-2.1-14.3-2.1
		c-6.1,0-11.4,0.3-15.9,1s-7.4,1.3-8.7,1.8v90.8h-13L819.3,80.4L819.3,80.4z M941.6,180.2h-13V76.8h13V180.2z M944.6,45.6
		c0,3.1-0.9,5.5-2.8,7.3c-1.9,1.8-4.1,2.7-6.8,2.7s-4.9-0.9-6.8-2.7c-1.9-1.8-2.8-4.2-2.8-7.3s0.9-5.5,2.8-7.3
		c1.9-1.8,4.1-2.7,6.8-2.7s4.9,0.9,6.8,2.7C943.7,40.1,944.6,42.5,944.6,45.6z M983.7,76.8h41.2v11h-41.2v55
		c0,5.9,0.5,10.6,1.5,14.3s2.4,6.5,4.3,8.5c1.9,2,4.1,3.3,6.8,4s5.6,1,8.8,1c5.5,0,9.9-0.6,13.2-1.9c3.3-1.3,5.9-2.4,7.8-3.5
		l3.2,10.8c-1.9,1.2-5.1,2.6-9.8,4.1s-9.7,2.3-15.2,2.3c-6.4,0-11.8-0.8-16.1-2.5s-7.8-4.2-10.4-7.6c-2.6-3.4-4.4-7.6-5.5-12.7
		c-1.1-5.1-1.6-11.1-1.6-18V46.4l13-2.4L983.7,76.8L983.7,76.8z"/>
</g>
</svg>
