<?xml version="1.0" encoding="utf-8"?>
<!-- Generator: Adobe Illustrator 27.0.0, SVG Export Plug-In . SVG Version: 6.00 Build 0)  -->
<svg version="1.1" id="Layer_1" xmlns="http://www.w3.org/2000/svg" xmlns:xlink="http://www.w3.org/1999/xlink" x="0px" y="0px"
	 viewBox="0 0 2456.36 674" style="enable-background:new 0 0 2456.36 674;" xml:space="preserve">
<style type="text/css">
	.st0{clip-path:url(#SVGID_00000002351047762778841640000004545481783205056925_);}
	.st1{fill-rule:evenodd;clip-rule:evenodd;fill:#363636;}
	.st2{fill:#363636;}
	.st3{fill-rule:evenodd;clip-rule:evenodd;fill:#4286C5;}
	.st4{fill-rule:evenodd;clip-rule:evenodd;fill:#30689C;}
	.st5{fill-rule:evenodd;clip-rule:evenodd;fill:#22496E;}
	.st6{fill-rule:evenodd;clip-rule:evenodd;fill:#F5B720;}
	.st7{fill-rule:evenodd;clip-rule:evenodd;fill:#E4A40A;}
	.st8{fill-rule:evenodd;clip-rule:evenodd;fill:#C08A08;}
	.st9{fill:#414141;}
</style>
<g>
	<g>
		<defs>
			<rect id="SVGID_1_" x="-303.26" width="2758.69" height="673.2"/>
		</defs>
		<clipPath id="SVGID_00000165219948554416140290000015245401540956624256_">
			<use xlink:href="#SVGID_1_"  style="overflow:visible;"/>
		</clipPath>
		<g style="clip-path:url(#SVGID_00000165219948554416140290000015245401540956624256_);">
			<path class="st1" d="M1805.87,643.45h-45.04V539.76h45.04c32.45,0,48.69,16.35,48.69,49.02
				C1854.55,625.22,1838.31,643.45,1805.87,643.45z M1780.07,626.76h22.88c21.55,0,32.33-12.67,32.33-38
				c0-21.56-10.77-32.36-32.33-32.36h-22.88V626.76z"/>
			<path class="st1" d="M1874.72,643.45h-19.77l44.11-103.69h20.71l45.05,103.69h-20.71l-13.08-28.28h-33.28l6.61-16.68h21.58
				l-17-38.95L1874.72,643.45z"/>
			<path class="st1" d="M1953.94,539.76h78.83v16.67h-29.78v87.02h-19.25v-87.02h-29.8V539.76z"/>
			<path class="st1" d="M2042.67,643.45h-19.77l44.1-103.69h20.71l45.05,103.69h-20.72l-13.08-28.28h-33.28l6.61-16.68h21.58
				l-17-38.95L2042.67,643.45z"/>
			<path class="st1" d="M2190.58,643.45h-45.04V539.76h45.04c32.46,0,48.69,16.35,48.69,49.02
				C2239.27,625.22,2223.05,643.45,2190.58,643.45z M2164.79,626.76h22.88c21.55,0,32.35-12.67,32.35-38
				c0-21.56-10.79-32.36-32.35-32.36h-22.88V626.76z"/>
			<path class="st1" d="M2252.31,591.74c0-35.16,17.4-52.74,52.18-52.74c34.25,0,51.35,17.57,51.35,52.74
				c0,34.95-17.1,52.44-51.35,52.44C2271.24,644.2,2253.86,626.71,2252.31,591.74z M2304.49,627.48c20.91,0,31.37-12.05,31.37-36.19
				c0-23.75-10.46-35.63-31.37-35.63c-21.46,0-32.19,11.88-32.19,35.63C2272.3,615.43,2283.02,627.48,2304.49,627.48z"/>
			<path class="st1" d="M2436.18,601.49v24.29c-4.45,1.16-8.42,1.73-11.92,1.73c-23.54,0-35.31-12.45-35.31-37.34
				c0-22.99,12.47-34.47,37.42-34.47c10.41,0,20.09,1.93,29.06,5.82v-17.41c-8.96-3.37-19.13-5.07-30.51-5.07
				c-37.29,0-55.95,17.03-55.95,51.15c0,36.01,18.34,54.03,55,54.03c12.61,0,23.09-1.83,31.47-5.52v-54.24h-31.09l-6.5,17.05
				L2436.18,601.49L2436.18,601.49z"/>
			<path class="st2" d="M1582.06,586.41c2.72-9.59,12.17-16.04,22.91-16.04c18.9,0,29.65,15.03,29.65,36.81
				c0,22.34-12.03,37.66-30.65,37.66c-11.45,0-20.33-7.02-22.63-16.62l-1,15.18h-6.59V540h8.31v46.41H1582.06z M1582.06,613.33
				c0,17.47,10.74,24.77,20.91,24.77c13.17,0,23.2-10.46,23.2-30.94c0-19.76-9.02-30.08-22.63-30.08
				c-10.45,0-21.48,7.87-21.48,25.63V613.33z"/>
			<path class="st2" d="M1699.2,571.79h8.31l-27.21,74.48c-7.16,19.62-13.32,26.92-24.35,26.92c-3.87,0-7.59-1.15-10.03-3.3
				l1.72-6.87c2.87,2.15,5.01,3.16,8.16,3.16c7.74,0,11.18-5.15,16.75-20.33l-26.92-74.05h8.73l22.05,63.6h0.29L1699.2,571.79z"/>
		</g>
	</g>
</g>
<g id="layer1" transform="translate(0,-973.66216)">
	<g id="g8586" transform="translate(-180.58943,520.45177)">
		<g id="g8815" transform="matrix(0.14612101,0,0,0.14612101,263.54735,32.065717)">
			<path id="path5887-0-5" class="st3" d="M236.27,6131.52l402-232.1l402,232.1l-804.01,464.19L236.27,6131.52L236.27,6131.52z"/>
			<path id="path5883-14-8" class="st4" d="M-165.73,4506.84v2785.17l-402-232.1V4274.75L-165.73,4506.84z"/>
			<path id="path5885-2-03" class="st5" d="M-165.73,4506.84l1206.01-696.29v464.19l-804.01,464.19v1856.78l804.01-464.19v464.19
				L-165.73,7292C-165.73,7292-165.73,4506.84-165.73,4506.84z"/>
			<path id="path5893-4-14" class="st6" d="M638.28,5899.43l402,232.1l804.01-464.19l-402-232.1L638.28,5899.43z"/>
			<path id="path5897-5-5" class="st7" d="M1442.29,4042.65l402-232.1v1856.78l-402-232.1V4042.65z"/>
			<path id="path5891-83-7" class="st8" d="M1040.28,3810.55v464.19l804.01-464.19v1856.78l-804.01,464.19v464.19l1206.01-696.29
				V3114.26L1040.28,3810.55z"/>
			<path id="path5881-7-4" class="st3" d="M-567.73,4274.75l402,232.1l1206.01-696.29l-402-232.1L-567.73,4274.75z"/>
			<path id="path5889-9-0" class="st6" d="M638.28,3578.45l402,232.1l1206.01-696.29l-402-232.1L638.28,3578.45z"/>
		</g>
		<g id="text8811">
			<path id="path8640" class="st9" d="M799.05,657.82c-21.72,0-38.55,8.19-50.46,24.58c-11.92,16.26-17.88,38.98-17.88,68.15
				c0,60.7,22.78,91.06,68.34,91.06c19.12,0,42.27-4.78,69.46-14.34v48.41c-22.35,9.31-47.3,13.97-74.86,13.97
				c-39.6,0-69.89-11.98-90.87-35.94c-20.98-24.08-31.47-58.59-31.47-103.53c0-28.3,5.15-53.07,15.46-74.3
				c10.3-21.35,25.08-37.68,44.32-48.97c19.37-11.42,42.02-17.13,67.97-17.13c26.44,0,53.01,6.39,79.7,19.18l-18.62,46.93
				c-10.18-4.84-20.42-9.06-30.72-12.66C819.1,659.62,808.98,657.82,799.05,657.82L799.05,657.82z"/>
			<path id="path8642" class="st9" d="M978.56,885.93h-56.79V596.19h56.79V885.93z"/>
			<path id="path8644" class="st9" d="M1083.21,781.47c0,20.61,3.35,36.19,10.06,46.74c6.83,10.55,17.88,15.83,33.15,15.83
				c15.15,0,26.01-5.21,32.59-15.64c6.7-10.55,10.06-26.19,10.06-46.93c0-20.61-3.35-36.06-10.06-46.37
				c-6.7-10.3-17.69-15.46-32.96-15.46c-15.15,0-26.07,5.15-32.77,15.46C1086.56,745.28,1083.21,760.74,1083.21,781.47z
				 M1227.15,781.47c0,33.89-8.94,60.39-26.81,79.51c-17.88,19.12-42.77,28.68-74.67,28.68c-19.99,0-37.61-4.34-52.88-13.03
				c-15.27-8.81-27-21.41-35.19-37.8s-12.29-35.5-12.29-57.35c0-34.01,8.88-60.46,26.63-79.33s42.7-28.3,74.86-28.3
				c19.99,0,37.61,4.34,52.88,13.03s27,21.17,35.19,37.43C1223.05,740.56,1227.15,759.62,1227.15,781.47L1227.15,781.47z"/>
			<path id="path8646" class="st9" d="M1421.56,885.93l-7.63-26.63h-2.98c-6.08,9.68-14.71,17.19-25.88,22.53
				c-11.17,5.21-23.9,7.82-38.17,7.82c-24.46,0-42.89-6.52-55.3-19.55c-12.41-13.16-18.62-32.03-18.62-56.61V677.75h56.79v121.6
				c0,15.02,2.67,26.32,8.01,33.89c5.34,7.45,13.84,11.17,25.51,11.17c15.89,0,27.37-5.28,34.45-15.83
				c7.08-10.68,10.61-28.3,10.61-52.88v-97.95h56.79v208.18L1421.56,885.93L1421.56,885.93z"/>
			<path id="path8648" class="st9" d="M1591.01,889.66c-24.46,0-43.7-9.5-57.73-28.49c-13.9-18.99-20.86-45.31-20.86-78.95
				c0-34.14,7.08-60.7,21.23-79.7c14.28-19.12,33.89-28.68,58.84-28.68c26.19,0,46.18,10.18,59.96,30.54h1.86
				c-2.86-15.52-4.28-29.36-4.28-41.52V596.2h56.98v289.74h-43.57l-10.99-27h-2.42C1637.12,879.41,1617.45,889.66,1591.01,889.66
				L1591.01,889.66z M1610.93,844.41c14.52,0,25.14-4.22,31.84-12.66c6.83-8.44,10.55-22.78,11.17-43.01v-6.14
				c0-22.35-3.48-38.36-10.43-48.04c-6.83-9.68-18-14.52-33.52-14.52c-12.66,0-22.53,5.4-29.61,16.2
				c-6.95,10.68-10.43,26.26-10.43,46.74s3.54,35.88,10.61,46.18C1587.65,839.32,1597.77,844.41,1610.93,844.41L1610.93,844.41z"/>
			<path id="path8650" class="st9" d="M1850.96,889.66c-64.8,0-97.2-35.57-97.2-106.7c0-35.38,8.81-62.38,26.44-81
				c17.63-18.75,42.89-28.12,75.79-28.12c24.08,0,45.68,4.72,64.8,14.15l-16.76,43.95c-8.94-3.6-17.26-6.52-24.95-8.75
				c-7.7-2.36-15.39-3.54-23.09-3.54c-29.55,0-44.32,20.98-44.32,62.94c0,40.72,14.77,61.08,44.32,61.08
				c10.92,0,21.04-1.43,30.35-4.28c9.31-2.98,18.62-7.57,27.93-13.78v48.6c-9.19,5.83-18.5,9.87-27.93,12.1
				C1877.03,888.54,1865.23,889.65,1850.96,889.66z"/>
			<path id="path8652" class="st9" d="M2078.51,673.84c7.7,0,14.09,0.56,19.18,1.68l-4.28,53.26c-4.59-1.24-10.18-1.86-16.76-1.86
				c-18.12,0-32.28,4.66-42.46,13.97c-10.06,9.31-15.08,22.35-15.08,39.1v105.95h-56.79V677.75h43.01l8.38,35.01h2.79
				c6.46-11.67,15.15-21.04,26.07-28.12C2053.61,677.44,2065.59,673.84,2078.51,673.84L2078.51,673.84z"/>
			<path id="path8654" class="st9" d="M2268.07,885.93l-10.99-28.3h-1.49c-9.56,12.04-19.43,20.42-29.61,25.14
				c-10.06,4.59-23.21,6.89-39.48,6.89c-19.99,0-35.75-5.71-47.3-17.13c-11.42-11.42-17.13-27.68-17.13-48.79
				c0-22.1,7.7-38.36,23.09-48.79c15.52-10.55,38.86-16.39,70.02-17.5l36.12-1.12v-9.12c0-21.1-10.8-31.66-32.4-31.66
				c-16.63,0-36.19,5.03-58.66,15.08l-18.81-38.36c23.96-12.54,50.53-18.81,79.7-18.81c27.93,0,49.35,6.08,64.24,18.25
				c14.9,12.17,22.35,30.66,22.35,55.49v138.73L2268.07,885.93L2268.07,885.93z M2251.31,789.47l-21.97,0.75
				c-16.51,0.5-28.8,3.48-36.87,8.94s-12.1,13.78-12.1,24.95c0,16.01,9.19,24.02,27.56,24.02c13.16,0,23.65-3.79,31.47-11.36
				c7.95-7.57,11.92-17.63,11.92-30.17L2251.31,789.47L2251.31,789.47z"/>
			<path id="path8656" class="st9" d="M2481.09,720.39h-49.16v165.54h-56.79V720.39h-31.28v-27.37l31.28-15.27v-15.27
				c0-23.71,5.83-41.03,17.5-51.95s30.35-16.39,56.05-16.39c19.61,0,37.06,2.92,52.32,8.75l-14.52,41.71
				c-11.42-3.6-21.97-5.4-31.66-5.4c-8.07,0-13.9,2.42-17.5,7.26c-3.6,4.72-5.4,10.8-5.4,18.25v13.03h49.16L2481.09,720.39
				L2481.09,720.39z"/>
			<path id="path8658" class="st9" d="M2601.2,844.41c9.93,0,21.85-2.17,35.75-6.52v42.27c-14.15,6.33-31.53,9.5-52.14,9.5
				c-22.72,0-39.29-5.71-49.72-17.13c-10.3-11.54-15.46-28.8-15.46-51.77V720.39h-27.19v-24.02l31.28-18.99l16.39-43.95h36.31v44.32
				h58.28v42.64h-58.28v100.37c0,8.07,2.23,14.03,6.7,17.88C2587.73,842.48,2593.75,844.41,2601.2,844.41L2601.2,844.41z"/>
		</g>
	</g>
</g>
</svg>
