<?xml version="1.0" encoding="utf-8"?>
<!-- Generator: Adobe Illustrator 27.3.1, SVG Export Plug-In . SVG Version: 6.00 Build 0)  -->
<svg version="1.1" id="Layer_1" xmlns="http://www.w3.org/2000/svg" xmlns:xlink="http://www.w3.org/1999/xlink" x="0px" y="0px"
	 viewBox="0 0 390.3 151.5" style="enable-background:new 0 0 390.3 151.5;" xml:space="preserve">
<style type="text/css">
	.st0{fill:#00B0AD;}
	.st1{fill:#003B49;}
	.st2{fill:url(#SVGID_1_);}
	.st3{fill:url(#SVGID_00000088835429880126173430000006095825963950451073_);}
	.st4{fill:url(#SVGID_00000040566475823036388050000010073953807806938756_);}
</style>
<path class="st0" d="M111.3,30.6l-0.6-0.3l-41.1-30l-69,51.8l13.2,9.6L70.4,103l69.1-51.9L111.3,30.6z M19.5,42.3l37.2-27.9L67.1,22
	L29.8,49.8L19.5,42.3z M80.4,71.6l-10.2,7.7L32.7,51.9L69.9,24l24.2,17.7L67.2,61.9C67.2,61.9,80.4,71.6,80.4,71.6z M97,43.8
	l10.3,7.5l-24,18.1L73,61.9C73,61.9,97,43.8,97,43.8z M112.2,52.1l0.7-0.6l0.2-0.2l-13.3-9.7l10.2-7.7l23.6,17.2L96.4,79l-10.3-7.5
	L112.2,52.1z M97,39.6L59.5,12.2l10.2-7.6L107.2,32L97,39.6z M16.6,44.4L27,52l-10.2,7.6L6.4,52C6.4,52,16.6,44.4,16.6,44.4z
	 M29.9,54.1l37.6,27.4l-10.2,7.6L19.7,61.7C19.7,61.7,29.9,54.1,29.9,54.1z M83.4,73.8l10.3,7.5L70.4,98.8l-10.3-7.5L83.4,73.8z"/>
<path class="st1" d="M238.2,105.1c0,0-8,9.9-24.8,9.9c-22,0-37.3-17.1-37.3-39.2c0-22.3,15.3-39.3,37.3-39.3
	c16.8,0,24.8,9.8,24.8,9.8l-4,5.5c0,0-7.6-8.5-20.6-8.5c-17.8,0-30,14.8-30,32.5c0,17.6,12.3,32.4,30,32.4c13,0,20.6-8.5,20.6-8.5
	S238.2,105.1,238.2,105.1z M334.3,113.3h-5.5l-49.2-62.9v62.9h-7.1V38.2h5.8l48.9,62.6V38.2h7.1L334.3,113.3L334.3,113.3z
	 M390.3,113.3h-7.1V38.2h7.1C390.3,38.2,390.3,113.3,390.3,113.3z"/>
<linearGradient id="SVGID_1_" gradientUnits="userSpaceOnUse" x1="70.05" y1="1050.865" x2="70.05" y2="902.6121" gradientTransform="matrix(1 0 0 1 0 -858.0001)">
	<stop  offset="0" style="stop-color:#D1E1D7"/>
	<stop  offset="1" style="stop-color:#00B0AD"/>
</linearGradient>
<path class="st2" d="M70.1,151.5c-0.4,0-0.7-0.1-1.1-0.4L1.1,102.5C0.4,102,0,101.1,0,100.2c0-1,0.4-1.9,1.1-2.3L35,73.6l2.2,4.7
	l-30.7,22L70,145.8l63.6-45.5l-30.7-22l2.2-4.7L139,97.9c0.7,0.5,1.1,1.4,1.1,2.3c0,1-0.4,1.9-1.1,2.3l-67.9,48.7
	C70.8,151.4,70.5,151.5,70.1,151.5L70.1,151.5z"/>
<linearGradient id="SVGID_00000049184875176019869500000004047897150843007923_" gradientUnits="userSpaceOnUse" x1="70.1" y1="1050.865" x2="70.1" y2="902.6121" gradientTransform="matrix(1 0 0 1 0 -858.0001)">
	<stop  offset="0" style="stop-color:#D1E1D7"/>
	<stop  offset="1" style="stop-color:#00B0AD"/>
</linearGradient>
<path style="fill:url(#SVGID_00000049184875176019869500000004047897150843007923_);" d="M70.1,102.8c-0.4,0-0.7-0.1-1.1-0.4
	L1.1,53.7C0.4,53.2,0,52.3,0,51.4s0.4-1.9,1.1-2.3L69,0.4c0.7-0.5,1.5-0.5,2.2,0l67.9,48.7c0.7,0.5,1.1,1.4,1.1,2.3
	s-0.4,1.9-1.1,2.3l-67.9,48.8C70.8,102.7,70.5,102.8,70.1,102.8z M6.5,51.5L70,97l63.6-45.5L70,6L6.5,51.5z"/>
<linearGradient id="SVGID_00000061444654276329877660000009738163092653427330_" gradientUnits="userSpaceOnUse" x1="2.15" y1="1050.865" x2="2.15" y2="902.6121" gradientTransform="matrix(1 0 0 1 0 -858.0001)">
	<stop  offset="0" style="stop-color:#D1E1D7"/>
	<stop  offset="1" style="stop-color:#00B0AD"/>
</linearGradient>
<path style="fill:url(#SVGID_00000061444654276329877660000009738163092653427330_);" d="M0,51.5h4.3v48.7H0V51.5z"/>
</svg>
