<?xml version="1.0" encoding="utf-8"?>
<!-- Generator: Adobe Illustrator 27.3.1, SVG Export Plug-In . SVG Version: 6.00 Build 0)  -->
<svg version="1.1" id="Layer_1" xmlns="http://www.w3.org/2000/svg" xmlns:xlink="http://www.w3.org/1999/xlink" x="0px" y="0px"
	 viewBox="0 0 111.7 34.2" style="enable-background:new 0 0 111.7 34.2;" xml:space="preserve">
<style type="text/css">
	.st0{fill:#53A3DA;}
	.st1{fill:#F1606D;}
	.st2{fill:#FFFFFF;}
	.st3{fill:#231F20;}
	.st4{fill:#53A4D9;}
</style>
<path class="st0" d="M17.1,0C7.7,0,0,7.7,0,17.1s7.7,17.1,17.1,17.1s17.1-7.7,17.1-17.1S26.5,0,17.1,0z"/>
<path class="st1" d="M17.1,1.6c-2.7,0-5.1,4.4-5.9,10.5l-0.1,0.6c-0.1,1-0.2,2-0.2,3c0,0.5,0,0.9,0,1.4s0,1,0,1.4c0,1,0.1,2,0.2,3
	c1.3,0.2,2.7,0.3,4.1,0.3c0.6,0,1.3,0,1.9,0c0.6,0,1.3,0,1.9,0c1.4,0,2.7-0.2,4.1-0.3l0.4-0.1c5.4-0.8,9.1-2.4,9.1-4.4
	C32.6,8.5,25.7,1.6,17.1,1.6L17.1,1.6z"/>
<path class="st2" d="M23.5,12.7c-0.2-0.2-0.3-0.4-0.5-0.7c-1.5-1.7-3.6-2.7-5.9-2.7c-0.8,0-1.5,1.2-1.9,3c-0.2,0.7-0.3,1.6-0.4,2.5
	l-0.1,2.3l0.1,2.3l2.3,0.1l2.3-0.1c1.6-0.2,3-0.5,3.9-0.9c1-0.4,1.5-0.9,1.5-1.4C24.9,15.6,24.4,14,23.5,12.7L23.5,12.7z"/>
<path class="st3" d="M45.2,8.7c2,0,3.6,1,4.7,2.1l-1.6,1.8c-0.8-0.8-1.8-1.4-3-1.4c-2.7,0-4.6,2.2-4.6,5.9c0,3.7,1.8,6,4.5,6
	c1.5,0,2.5-0.6,3.5-1.6l1.6,1.8c-1.3,1.5-3,2.4-5.1,2.4c-4.2,0-7.4-3-7.4-8.4C37.7,11.9,41,8.7,45.2,8.7L45.2,8.7z M56.7,12.8
	c3.1,0,5.9,2.4,5.9,6.5c0,4.1-2.8,6.4-5.9,6.4c-3.1,0-5.8-2.4-5.8-6.4C50.8,15.1,53.6,12.8,56.7,12.8z M56.7,23.3
	c1.8,0,2.9-1.6,2.9-4.1c0-2.5-1.1-4.1-2.9-4.1s-2.9,1.6-2.9,4.1C53.8,21.7,54.9,23.3,56.7,23.3z M63.5,13.1h2.4l0.2,2.2h0.1
	c0.9-1.6,2.2-2.5,3.5-2.5c0.6,0,1,0.1,1.4,0.2l-0.5,2.5c-0.4-0.1-0.8-0.2-1.3-0.2c-1,0-2.2,0.7-2.9,2.5v7.5h-2.9L63.5,13.1z
	 M76.4,12.8c3.3,0,5.1,2.4,5.1,5.8c0,0.5-0.1,1-0.1,1.3h-7.8c0.2,2.2,1.7,3.5,3.6,3.5c1.1,0,1.9-0.3,2.9-0.9l1,1.8
	c-1.2,0.8-2.7,1.3-4.2,1.3c-3.4,0-6.1-2.4-6.1-6.4C70.8,15.2,73.6,12.8,76.4,12.8L76.4,12.8z M79,18.1c0-2-0.8-3.1-2.5-3.1
	c-1.4,0-2.7,1.1-3,3.1H79z"/>
<path class="st1" d="M85.9,17c0-5.2,2.8-8.5,6.8-8.5c4,0,6.8,3.3,6.8,8.5c0,5.2-2.8,8.6-6.8,8.6C88.7,25.6,85.9,22.3,85.9,17z
	 M98.3,17c0-4.6-2.2-7.4-5.6-7.4c-3.4,0-5.6,2.9-5.6,7.4c0,4.6,2.3,7.6,5.6,7.6C96,24.6,98.3,21.6,98.3,17z"/>
<path class="st4" d="M101.6,22.4c1.2,1.3,2.9,2.2,4.9,2.2c2.5,0,4.1-1.3,4.1-3.3c0-2.1-1.3-2.7-3-3.5l-2.5-1.1
	c-1.4-0.6-3.3-1.6-3.3-4.1c0-2.4,2.1-4.1,4.8-4.1c2,0,3.6,0.9,4.6,2l-0.7,0.8c-0.9-1-2.3-1.7-3.9-1.7c-2.2,0-3.6,1.1-3.6,3
	c0,1.9,1.7,2.6,2.9,3.2l2.5,1.1c1.8,0.8,3.5,1.9,3.5,4.4s-2.1,4.4-5.3,4.4c-2.4,0-4.3-1-5.6-2.5L101.6,22.4z"/>
</svg>
