<?xml version="1.0" encoding="utf-8"?>
<!-- Generator: Adobe Illustrator 27.3.1, SVG Export Plug-In . SVG Version: 6.00 Build 0)  -->
<svg version="1.1" id="Layer_1" xmlns="http://www.w3.org/2000/svg" xmlns:xlink="http://www.w3.org/1999/xlink" x="0px" y="0px"
	 viewBox="0 0 635 212.7" style="enable-background:new 0 0 635 212.7;" xml:space="preserve">
<style type="text/css">
	.st0{fill:#294172;}
	.st1{fill:#3C6EB4;}
	.st2{fill:#FFFFFF;}
</style>
<path class="st0" d="M315.1,151.8c-11.8,0.2-23.3-4.3-31.8-12.5c-8.9-8.4-13.3-19.4-13.3-33c0-13.6,4.6-24.5,13.8-33
	c9.3-8.6,20.7-12.8,34-12.8c13.3,0,24.6,4.6,33.8,13.8l-11,13.5c-7.7-6.7-15.4-10-23.2-10c-7.5-0.1-14.8,2.7-20.3,7.8
	c-5.7,5.1-8.5,11.8-8.5,20c-0.1,16,12.9,29.1,28.9,29.2c0.1,0,0.3,0,0.4,0c8.3,0,16.2-3.8,23.5-11.3l11,12
	C341.6,146.3,329.2,151.8,315.1,151.8L315.1,151.8z M418.2,79.3c-9.2,0-16.2,3-20.8,9c-4.7,6-7,14.1-7,24.2v38h-18.7V61.8h18.7v17.8
	c2.9-5.5,7.1-10.1,12.2-13.7c4.8-3.4,10.6-5.3,16.5-5.5l0.2,18.8L418.2,79.3L418.2,79.3z M456.5,150.4h-18.7V61.8h18.7V150.4z
	 M439,44.2c-4.5-4.6-4.4-12,0.2-16.5s12-4.4,16.5,0.2s4.4,12-0.2,16.5c-2.2,2.1-5.1,3.3-8.2,3.3C444.2,47.7,441.2,46.4,439,44.2z"/>
<path class="st1" d="M473.7,109.5V92H529v17.5L473.7,109.5z"/>
<path class="st0" d="M568.2,127.1c5.3,5.3,12,8,20.2,8c8.1,0,14.8-2.7,20-8c5.3-5.4,8-12.4,8-21c0-8.6-2.7-15.5-8-20.8
	c-5.2-5.4-11.9-8.2-20-8.2c-8.1,0-14.8,2.7-20.2,8.2c-5.2,5.3-7.8,12.3-7.8,20.8C560.4,114.7,563,121.7,568.2,127.1L568.2,127.1z
	 M621.7,138.6c-8.9,8.8-20,13.2-33.3,13.2c-13.3,0-24.4-4.4-33.3-13.2c-8.7-8.5-13.6-20.3-13.3-32.5c0-12.8,4.4-23.5,13.3-32.3
	c8.9-8.9,20-13.3,33.3-13.3c13.3,0,24.4,4.4,33.3,13.3c8.9,8.8,13.3,19.6,13.3,32.3C635.2,118.3,630.4,130.1,621.7,138.6
	L621.7,138.6z"/>
<path class="st2" d="M109.3,210.4l-85.5-40.9L2.3,77L61.2,2.6L156,2.3l59.3,74L194.5,169L109.3,210.4z"/>
<path class="st1" d="M109.3,212.7c-0.4,0-0.7-0.1-1-0.2l-85.5-40.9c-0.6-0.3-1.1-0.9-1.3-1.6L0.1,77.5c-0.2-0.7,0-1.4,0.4-2
	L59.4,1.2c0.4-0.6,1.1-0.9,1.8-0.9L156,0h0c0.7,0,1.4,0.3,1.8,0.9l59.3,74c0.4,0.6,0.6,1.3,0.5,2l-20.8,92.6
	c-0.2,0.7-0.6,1.3-1.3,1.6l-85.3,41.4C110,212.7,109.6,212.7,109.3,212.7L109.3,212.7z M25.7,167.8l83.5,39.9l83.3-40.4L212.8,77
	L154.9,4.7L62.4,5L4.9,77.6L25.7,167.8z"/>
<path class="st1" d="M89.1,164.7l-2.9-3.6l21.1-17.1l2.9,3.6L89.1,164.7z M144.4,157.8l-4.7-0.2l0.9-27.1l4.7,0.2L144.4,157.8z
	 M77.6,133.1l-26.7-4.8l0.8-4.6l26.7,4.8L77.6,133.1z M172.7,112L152,94.5l3-3.6l20.8,17.5L172.7,112z M62.8,94L50,70.1l4.1-2.2
	l12.8,24L62.8,94z M130.3,63.1l-1-4.6l26.5-5.8l1,4.6L130.3,63.1z M91.4,61.4l-4.3-1.9l11.1-24.8l4.3,1.9L91.4,61.4z"/>
<path class="st0" d="M72,21.4l-4.2,2.1l17,33.5l-21.5-4.6l-1,4.6l25.2,5.4l7.5,14.8l1.6-2l2.6,0L72,21.4z M146.8,21.6L130,55.2
	l-9.1-20l-4.3,1.9l10.6,23.4L120,75.1h1l2.6,3.3L151,23.7L146.8,21.6z M164.2,67.9l-12.1,22.7l-16.2,3.1l0.2,0.3l-1.1,4.6l60.7-11.7
	l-0.9-4.6L158,89.4l10.3-19.4L164.2,67.9z M23.5,82.3l-0.9,4.6l37.1,7.1l-17,14.3l3,3.6l19.9-16.8l17,3.3l-1-4.3l0.4-0.6L23.5,82.3z
	 M131,117.1l-0.1,0.6l-4.1,2l46.9,40.6l3.1-3.6l-28.4-24.6l21.6-3.9l-0.8-4.6l-25.3,4.5L131,117.1z M87,117.5l-45.3,39.2l3.1,3.5
	l28.5-24.7l0.8,22.2l4.7-0.1l-0.9-26l13.5-11.7l-4.3-2.1L87,117.5z M106.4,127.1v61.3h4.7v-37.5l17.1,13.8l2.9-3.6l-20-16.2v-17.6
	l-2.1,1L106.4,127.1z"/>
<path class="st0" d="M109,130.6c-0.4,0-0.7-0.1-1-0.2L86,119.9c-0.6-0.3-1.1-0.9-1.3-1.6l-5.5-23.7c-0.2-0.7,0-1.4,0.4-2l15.1-19
	c0.4-0.6,1.1-0.9,1.8-0.9l24.3-0.1h0c0.7,0,1.4,0.3,1.8,0.9L138,92.5c0.4,0.6,0.6,1.3,0.5,2l-5.3,23.7c-0.2,0.7-0.6,1.3-1.3,1.6
	L110,130.4C109.7,130.6,109.3,130.6,109,130.6L109,130.6z M89.1,116.2l19.9,9.5l19.8-9.6l4.8-21.5l-13.8-17.2l-22,0.1L84.1,94.7
	L89.1,116.2z"/>
</svg>
