<?xml version="1.0" encoding="utf-8"?>
<!-- Generator: Adobe Illustrator 27.3.1, SVG Export Plug-In . SVG Version: 6.00 Build 0)  -->
<svg version="1.1" id="Layer_1" xmlns="http://www.w3.org/2000/svg" xmlns:xlink="http://www.w3.org/1999/xlink" x="0px" y="0px"
	 viewBox="0 0 353.4 157.4" style="enable-background:new 0 0 353.4 157.4;" xml:space="preserve">
<style type="text/css">
	.st0{fill:#264DE4;}
	.st1{fill:#2965F1;}
	.st2{fill:#EBEBEB;}
	.st3{fill:#FFFFFF;}
</style>
<polygon id="polygon2989" class="st0" points="284,157.4 227.3,141.7 214.7,0 353.4,0 340.8,141.6 "/>
<polygon id="polygon2991" class="st1" points="330,132.6 340.8,11.6 284.1,11.6 284.1,145.4 "/>
<polygon id="polygon2993" class="st2" points="243.6,64.1 245.2,81.5 284.1,81.5 284.1,64.1 "/>
<polygon id="polygon2995" class="st2" points="240.5,29 242.1,46.4 284.1,46.4 284.1,29 284,29 "/>
<polygon id="polygon2997" class="st2" points="284.1,109.3 284,109.3 264.6,104.1 263.4,90.2 254,90.2 246,90.2 248.4,117.5 
	284,127.4 284.1,127.3 "/>
<g>
	<path id="path2999" class="st3" d="M0,41.3h59.5v24.9H24.9v24.9h34.6V116H0V41.3z"/>
	<path id="path3001" class="st3" d="M71.4,41.3h59.5v21.6H96.3v4.3h34.6v49.7H71.4V94.2H106v-4.3H71.4L71.4,41.3L71.4,41.3z"/>
	<path id="path3003" class="st3" d="M142.7,41.3h59.5v21.6h-34.6v4.3h34.6v49.7h-59.5V94.2h34.6v-4.3h-34.6V41.3z"/>
</g>
<polygon id="polygon3005" class="st3" points="324.4,64.1 327.5,29 284,29 284,46.4 308.5,46.4 306.9,64.1 284,64.1 284,81.5 
	305.4,81.5 303.4,104 284,109.3 284,127.3 319.6,117.5 319.9,114.5 323.9,68.8 "/>
</svg>
