<?xml version="1.0" encoding="utf-8"?>
<!-- Generator: Adobe Illustrator 27.3.1, SVG Export Plug-In . SVG Version: 6.00 Build 0)  -->
<svg version="1.1"
	 id="svg2" xmlns:rdf="http://www.w3.org/1999/02/22-rdf-syntax-ns#" xmlns:inkscape="http://www.inkscape.org/namespaces/inkscape" xmlns:dc="http://purl.org/dc/elements/1.1/" xmlns:svg="http://www.w3.org/2000/svg" xmlns:sodipodi="http://sodipodi.sourceforge.net/DTD/sodipodi-0.dtd" xmlns:cc="http://creativecommons.org/ns#" inkscape:version="0.48.3.1 r9886" sodipodi:docname="htmlcss.svg"
	 xmlns="http://www.w3.org/2000/svg" xmlns:xlink="http://www.w3.org/1999/xlink" x="0px" y="0px" viewBox="0 0 362.7 512"
	 style="enable-background:new 0 0 362.7 512;" xml:space="preserve">
<style type="text/css">
	.st0{fill:#264DE4;}
	.st1{fill:#2965F1;}
	.st2{fill:#EBEBEB;}
	.st3{fill:#FFFFFF;}
</style>
<sodipodi:namedview  bordercolor="#666666" borderopacity="1.0" fit-margin-bottom="0" fit-margin-left="0" fit-margin-right="0" fit-margin-top="0" id="base" inkscape:current-layer="layer1" inkscape:cx="-276.49014" inkscape:cy="244.10462" inkscape:document-units="px" inkscape:pageopacity="0.0" inkscape:pageshadow="2" inkscape:window-height="938" inkscape:window-maximized="1" inkscape:window-width="1280" inkscape:window-x="0" inkscape:window-y="31" inkscape:zoom="0.35" pagecolor="#ffffff" showgrid="false">
	</sodipodi:namedview>
<polygon id="polygon2989" class="st0" points="181.1,512 33,470.9 0,100.6 362.7,100.6 329.7,470.8 "/>
<polygon id="polygon2991" class="st1" points="301.4,447.3 329.6,130.9 181.3,130.9 181.3,480.5 "/>
<polygon id="polygon2993" class="st2" points="75.6,268.2 79.7,313.6 181.3,313.6 181.3,268.2 "/>
<polygon id="polygon2995" class="st2" points="67.5,176.3 71.6,221.7 181.3,221.7 181.3,176.3 181.2,176.3 "/>
<polygon id="polygon2997" class="st2" points="181.3,386.2 181.1,386.2 130.6,372.6 127.3,336.4 102.8,336.4 81.7,336.4 88.1,407.7 
	181.1,433.5 181.3,433.4 "/>
<path id="path2999" inkscape:connector-curvature="0" class="st3" d="M85.3,0h55v23h-32v23h32v23h-55C85.3,69,85.3,0,85.3,0z"/>
<path id="path3001" inkscape:connector-curvature="0" class="st3" d="M151.3,0h55v20h-32v4h32v46h-55V49h32v-4h-32V0z"/>
<path id="path3003" inkscape:connector-curvature="0" class="st3" d="M217.3,0h55v20h-32v4h32v46h-55V49h32v-4h-32
	C217.3,45,217.3,0,217.3,0z"/>
<polygon id="polygon3005" class="st3" points="286.7,268.2 294.9,176.3 181.2,176.3 181.2,221.7 245.2,221.7 241,268.2 181.2,268.2 
	181.2,313.6 237.1,313.6 231.8,372.5 181.2,386.2 181.2,433.5 274.3,407.7 275,400 285.6,280.4 "/>
</svg>
