<?xml version="1.0" encoding="utf-8"?>
<!-- Generator: Adobe Illustrator 16.0.3, SVG Export Plug-In . SVG Version: 6.00 Build 0)  -->
<!DOCTYPE svg PUBLIC "-//W3C//DTD SVG 1.1//EN" "http://www.w3.org/Graphics/SVG/1.1/DTD/svg11.dtd">
<svg version="1.1" id="Layer_1" xmlns="http://www.w3.org/2000/svg" xmlns:xlink="http://www.w3.org/1999/xlink" x="0px" y="0px"
	 width="111.91px" height="34.876px" viewBox="4.045 12.562 111.91 34.876" enable-background="new 4.045 12.562 111.91 34.876"
	 xml:space="preserve">
<g transform="translate(-.308)">
	<g>
		<defs>
			<filter id="Adobe_OpacityMaskFilter" filterUnits="userSpaceOnUse" x="4.353" y="12.562" width="32.76" height="34.876">
				<feColorMatrix  type="matrix" values="1 0 0 0 0  0 1 0 0 0  0 0 1 0 0  0 0 0 1 0"/>
			</filter>
		</defs>
		<mask maskUnits="userSpaceOnUse" x="4.353" y="12.562" width="32.76" height="34.876" id="D">
			<g filter="url(#Adobe_OpacityMaskFilter)">
				<path fill="#FFFFFF" d="M0.408,69h64.7V0h-64.7V69z"/>
			</g>
		</mask>
		<path mask="url(#D)" fill="#5C2D90" d="M34.741,30.936l0.858,10.954l-15.194,2.726l-1.313-10.953l2.17-0.303
			c0.354,0.15,0.606,0.201,1.01,0.303c0.656,0.15,1.413,0.354,2.524-0.253c0.252-0.151,0.808-0.605,1.009-0.909L34.741,30.936z
			 M11.268,43.959c-0.252-0.404-0.707-0.857-1.414-1.413c-1.009-0.808-0.656-2.222-0.05-3.079c0.757-1.464,4.745-3.383,4.543-5.755
			c-0.101-0.858-0.202-1.968-1.01-2.776c-0.029,0.201-0.029,0.405,0,0.605c0,0-0.353-0.403-0.504-1.009
			c-0.151-0.202-0.303-0.303-0.455-0.606c-0.101,0.354-0.101,0.707-0.101,0.707s-0.252-0.656-0.303-1.161
			c-0.151,0.252-0.202,0.707-0.202,0.707s-0.354-1.01-0.252-1.565c-0.151-0.454-0.656-1.413-0.505-3.533
			c0.858,0.605,2.776,0.454,3.534-0.656c0.252-0.354,0.404-1.363-0.101-3.332c-0.354-1.262-1.211-3.13-1.565-3.836l-0.05,0.05
			c0.202,0.556,0.555,1.767,0.707,2.373c0.404,1.767,0.555,2.373,0.354,3.18c-0.152,0.707-0.556,1.161-1.616,1.666
			c-1.009,0.504-2.423-0.757-2.473-0.808c-1.01-0.808-1.767-2.12-1.868-2.726c-0.101-0.707,0.404-1.11,0.656-1.666
			c-0.354,0.101-0.757,0.303-0.757,0.303s0.455-0.505,1.06-0.909c0.252-0.151,0.404-0.252,0.656-0.455H8.896
			c0,0,0.606-0.353,1.262-0.555H9.249l2.423-1.06c0.757-0.303,1.464-0.202,1.868,0.354c0.555,0.757,1.11,1.161,2.271,1.464
			c0.707-0.303,0.959-0.505,1.868-0.757c0.808-0.909,1.464-1.009,1.464-1.009s-0.454,0.404-0.505,0.858
			c0.455-0.353,0.959-0.656,0.959-0.656s-0.202,0.252-0.353,0.606l0.05,0.05c0.555-0.303,1.161-0.555,1.161-0.555
			s-0.202,0.202-0.404,0.505c0.404,0,1.211,0,1.514,0.05c1.868,0.05,2.271-1.969,2.979-2.271c0.908-0.303,1.313-0.505,2.827,1.01
			c1.313,1.312,2.322,3.584,1.817,4.088c-0.404,0.404-1.262-0.151-2.221-1.313c-0.505-0.605-0.858-1.363-1.06-2.271
			c-0.101-0.757-0.656-1.211-0.656-1.211s0.354,0.757,0.354,1.414c0,0.354,0.05,1.666,0.605,2.423
			c-0.05,0.101-0.101,0.555-0.151,0.606c-0.656-0.808-2.12-1.363-2.322-1.565c0.808,0.656,2.625,2.12,3.332,3.533
			c0.656,1.363,0.252,2.575,0.605,2.877c0.101,0.101,1.414,1.716,1.666,2.575c0.454,1.464,0.05,2.978-0.556,3.887l-1.615,0.252
			c-0.252-0.051-0.404-0.101-0.605-0.201c0.101-0.202,0.353-0.707,0.353-0.809l-0.101-0.151c-0.505,0.707-1.363,1.414-2.07,1.817
			c-0.909,0.505-1.969,0.455-2.675,0.202c-1.969-0.605-3.836-1.918-4.24-2.271c0,0,0,0.252,0.051,0.354
			c0.504,0.556,1.615,1.564,2.726,2.271l-2.322,0.253l1.11,8.58c-0.505,0.051-0.555,0.102-1.11,0.203
			c-0.455-1.666-1.363-2.727-2.373-3.383c-0.858-0.555-2.07-0.707-3.23-0.454l-0.051,0.101c0.808-0.101,1.767,0.051,2.726,0.656
			c0.959,0.605,1.716,2.171,2.019,3.08c0.353,1.211,0.605,2.473-0.354,3.836c-0.707,0.959-2.726,1.514-4.341,0.354
			c0.454,0.706,1.009,1.262,1.817,1.362c1.161,0.151,2.271-0.05,3.079-0.808c0.656-0.656,1.01-2.069,0.909-3.584l1.06-0.151
			l0.354,2.675l17.213-2.068l-1.514-13.73l-0.858,0.151l-1.716-17.314L4.353,15.894l3.533,28.57L11.268,43.959z"/>
		<path fill="#5C2D90" d="M24.9,28.942c0.757,0.555,1.413,0.9,2.07,0.858c0.404-0.05,0.808-0.707,1.06-1.312
			c0.202-0.404,0.202-0.858-0.1-1c-0.15-0.05-0.757-0.05-1.2,0c-0.858,0.1-1.716,0.404-1.918,0.555c-0.303,0.202-0.15,0.707,0.1,0.9
			 M25.112,23.027v0.05l0.05,0.1c0.202,0.404,0.404,0.808,0.808,1c0.1,0,0.202-0.05,0.303-0.05c0.24-0.007,0.479,0.027,0.707,0.101
			v-0.303c-0.05-0.505,0.1-1.413-0.9-1.918c-0.404-0.202-0.9-0.1-1.1,0.1h0.1c0.252,0.1,0.1,0.202,0.05,0.303
			c-0.05,0.202-0.1,0.252,0,0.606"/>
		<path fill="#5C2D90" d="M20.568,23.137c0.252-0.202-1.16-0.505-2.272,0.202c-0.808,0.555-0.808,1.716-0.05,2.372
			c0.1,0.05,0.15,0.1,0.202,0.15c0.202-0.1,0.505-0.202,0.757-0.303c0.505-0.15,0.9-0.252,1.262-0.303
			c0.15-0.202,0.353-0.505,0.303-1.06c-0.05-0.757-0.656-0.606-0.202-1.06 M31.674,37.322l-2.877-1.918l-2.423,4.037l-2.827-0.857
			l-2.473,3.786l0.1,1.2l13.528-2.473l-0.808-8.431L31.674,37.322z"/>
	</g>
	<g transform="matrix(.88832 0 0 .88832 40.338983 -17.07752)">
		<path fill="#5C2D90" d="M66.783,57.346c-2.601,0-4.002-1.501-4.002-4.4c0-2.9,1.302-4.4,4.002-4.4c2.599,0,3.899,1.5,3.899,4.4
			C70.682,55.846,69.382,57.346,66.783,57.346 M66.783,46.546c-4.201,0-6.4,2.1-6.4,6.4c0.2,4.3,2.399,6.4,6.4,6.4
			c4.199,0,6.299-2.1,6.299-6.4C73.182,48.646,71.081,46.546,66.783,46.546"/>
		<path fill="#5C2D90" d="M81.77,48.546c1.301,0,2.5,0.2,3.6,0.7v-2.1c-1.1-0.4-2.3-0.6-3.7-0.6c-4.6,0-6.899,2.1-6.899,6.3
			c0,4.4,2.3,6.6,6.799,6.6c1.6,0,2.8-0.2,3.899-0.7v-6.699H81.57l-0.799,2.1h2.3v3c-0.501,0.1-1,0.2-1.501,0.2
			c-2.9,0-4.401-1.501-4.401-4.6C77.169,49.946,78.77,48.546,81.77,48.546"/>
		<path fill="#5C2D90" d="M52.5,57.2h-2.8v-8.6h2.8c2.6,0,3.999,1.3,3.999,4C56.401,55.701,55.1,57.2,52.5,57.2 M52.799,46.6H47.3
			v12.7h5.499c4.002,0,6-2.2,6-6.7C58.799,48.6,56.801,46.6,52.799,46.6"/>
		<path fill="#5C2D90" d="M5.2,57.215H2.4v-8.6h2.8c2.7,0,4,1.299,4,4C9.2,55.715,7.8,57.215,5.2,57.215 M5.5,46.615H0v12.7h5.5
			c4,0,6-2.201,6-6.7C11.5,48.615,9.5,46.615,5.5,46.615"/>
		<path fill="#5C2D90" d="M41.599,55.799l1.601,3.5h2.5l-5.5-12.7h-2.6l-5.4,12.7h2.401L38.899,49l2.001,4.8h-2.6l-0.8,2H41.599z
			 M20.9,55.799l1.6,3.5h2.6L19.5,46.6H17l-5.4,12.7H14L18.2,49l2.1,4.8h-2.7l-0.8,2H20.9z M23.7,48.6h3.7v10.7h2.4V48.6h3.6v-2
			H23.7V48.6z"/>
	</g>
</g>
</svg>
