<?xml version="1.0" encoding="utf-8"?>
<!-- Generator: Adobe Illustrator 27.3.1, SVG Export Plug-In . SVG Version: 6.00 Build 0)  -->
<svg version="1.1" id="Layer_1" xmlns="http://www.w3.org/2000/svg" xmlns:xlink="http://www.w3.org/1999/xlink" x="0px" y="0px"
	 viewBox="0 0 67.6 45.1" style="enable-background:new 0 0 67.6 45.1;" xml:space="preserve">
<style type="text/css">
	.st0{fill:#0A0A0A;}
	.st1{fill:#FFFFFF;}
</style>
<g>
	<path class="st0" d="M0,41.2V4c0-0.5,0.1-1,0.3-1.5C0.5,2,0.8,1.6,1.1,1.2c0.4-0.4,0.8-0.7,1.3-0.9C2.9,0.1,3.4,0,3.9,0h59.7
		c0.5,0,1,0.1,1.5,0.3c0.5,0.2,0.9,0.5,1.3,0.9c0.4,0.4,0.7,0.8,0.9,1.3s0.3,1,0.3,1.5v37.1c0,0.5-0.1,1-0.3,1.5s-0.5,0.9-0.9,1.3
		c-0.4,0.4-0.8,0.7-1.3,0.9s-1,0.3-1.5,0.3H4c-0.5,0-1-0.1-1.5-0.3s-0.9-0.5-1.3-0.9s-0.7-0.8-0.9-1.3C0.1,42.2,0,41.7,0,41.2z"/>
	<g>
		<g>
			<path class="st1" d="M42.1,17.5c0.7,2.6,1.8,6.9,2.5,9.6c1.1,4.1,1.4,5,2.3,5.9c0.6,0.7,1.4,1.1,1.9,1.1c1,0,2.4-1,2.8-2.2
				c0.3-0.9,5-18.4,5-18.8c0-0.1-0.9-0.2-2.1-0.1l-2.1,0.1l-1.9,7.1c-1,4.4-1.7,6.8-1.9,6.4c-0.3-0.8-3.5-13.5-3.5-13.6
				s-1-0.1-2.1-0.1h-2.2L42.1,17.5z M28.5,13.7c-0.7,0.9-0.7,1.3-0.7,9.8v8.9l0.8,0.8c0.8,0.8,1,0.8,5.3,0.8h4.5v-3.6L35,30.3
				l-3.4-0.1v-5l2.1-0.1l2.1-0.1v-3.6h-4.3v-5h7v-3.6h-4.7C29.2,12.8,29.2,12.8,28.5,13.7z M20.9,17.1c0.8,0.6,0.8,0.8,0.8,6.1
				c0,5.2,0,5.5-0.7,6.2c-0.6,0.5-1.2,0.7-2.3,0.7h-1.6L17,23.2l-0.1-6.9h1.6C19.6,16.5,20.4,16.7,20.9,17.1L20.9,17.1z M13.2,23.4
				V34h3.7c4.1,0,5.9-0.5,7.1-2.2c1.3-1.6,1.5-3,1.3-9.3c-0.1-5.6-0.2-6-0.9-7.2c-1.3-2.1-2.7-2.6-7.3-2.6h-4v10.7H13.2z"/>
		</g>
	</g>
</g>
</svg>
