<?xml version="1.0" encoding="utf-8"?>
<!-- Generator: Adobe Illustrator 16.0.3, SVG Export Plug-In . SVG Version: 6.00 Build 0)  -->
<!DOCTYPE svg PUBLIC "-//W3C//DTD SVG 1.1//EN" "http://www.w3.org/Graphics/SVG/1.1/DTD/svg11.dtd">
<svg version="1.1" id="Layer_1" xmlns="http://www.w3.org/2000/svg" xmlns:xlink="http://www.w3.org/1999/xlink" x="0px" y="0px"
	 width="128.816px" height="170.926px" viewBox="31 2 128.816 170.926" enable-background="new 31 2 128.816 170.926"
	 xml:space="preserve">
<title>eclipse</title>
<g>
	<path fill="#2C2255" d="M67.863,132.697H49.596c2.419,8.27,6.907,15.681,13.477,22.232c10.475,10.441,23.071,15.655,37.8,15.655
		c2.867,0.002,5.732-0.21,8.568-0.635c11.095-1.671,20.808-6.669,29.131-15.021c6.613-6.549,11.133-13.963,13.57-22.232H67.863z"/>
	<path fill="#2C2255" d="M57.79,107.968h-9.542c-0.356,2.122-0.588,4.263-0.695,6.411h106.644c-0.107-2.148-0.342-4.289-0.7-6.411
		 M47.553,120.333c0.106,2.148,0.338,4.288,0.695,6.41H153.5c0.352-2.088,0.591-4.222,0.7-6.41"/>
	<path fill="#2C2255" d="M152.145,102.014c-2.436-8.292-6.957-15.739-13.572-22.334c-8.301-8.274-17.987-13.238-29.045-14.908
		c-2.865-0.432-5.758-0.647-8.654-0.645c-14.729,0-27.326,5.186-37.8,15.553c-6.572,6.596-11.062,14.042-13.48,22.334"/>
	<path fill="#F7941E" d="M44.382,117.357c0-28.08,21.158-51.413,48.683-55.516c-0.683-0.025-1.37-0.053-2.059-0.053
		c-30.888,0.001-55.93,24.881-55.93,55.568c0,30.69,25.041,55.568,55.93,55.568c0.692,0,1.378-0.025,2.063-0.051
		C65.54,168.771,44.382,145.439,44.382,117.357z"/>
	
		<linearGradient id="SVGID_1_" gradientUnits="userSpaceOnUse" x1="-51.0996" y1="187.7344" x2="-51.0996" y2="200.2233" gradientTransform="matrix(72.583 0 0 -6.411 3809.8359 1381.3652)">
		<stop  offset="0.3033" style="stop-color:#473788"/>
		<stop  offset="0.872" style="stop-color:#2C2255"/>
	</linearGradient>
	<path fill="url(#SVGID_1_)" d="M137.167,114.378c-0.175-2.166-0.544-4.312-1.104-6.411H65.689c-0.561,2.1-0.93,4.244-1.105,6.41
		L137.167,114.378L137.167,114.378z"/>
	
		<linearGradient id="SVGID_2_" gradientUnits="userSpaceOnUse" x1="-51.0996" y1="189.6543" x2="-51.0996" y2="202.1432" gradientTransform="matrix(72.582 0 0 -6.41 3809.7815 1393.4869)">
		<stop  offset="0.3033" style="stop-color:#473788"/>
		<stop  offset="0.872" style="stop-color:#2C2255"/>
	</linearGradient>
	<path fill="url(#SVGID_2_)" d="M137.167,120.333H64.585c0.179,2.197,0.549,4.34,1.104,6.41h70.375
		C136.619,124.673,136.988,122.53,137.167,120.333z"/>
	
		<linearGradient id="SVGID_3_" gradientUnits="userSpaceOnUse" x1="-50.812" y1="229.0156" x2="-50.812" y2="232.8345" gradientTransform="matrix(66.028 0 0 -20.966 3455.9009 4979.356)">
		<stop  offset="0.3033" style="stop-color:#473788"/>
		<stop  offset="0.8631" style="stop-color:#2C2255"/>
	</linearGradient>
	<path fill="url(#SVGID_3_)" d="M100.876,153.663c14.615,0,27.213-8.583,33.015-20.966H67.862
		C73.663,145.08,86.262,153.663,100.876,153.663z"/>
	<path fill="#FFFFFF" d="M59.205,120.333h94.92c0.05-0.947,0.079-1.899,0.079-2.86c0-1.039-0.039-2.068-0.097-3.095H47.553
		c-0.062,1.03-0.095,2.062-0.097,3.095c0,0.959,0.028,1.913,0.079,2.859L59.205,120.333L59.205,120.333z M67.649,102.014H49.592
		c-0.593,1.939-0.976,3.928-1.344,5.954h104.913c-0.362-2.011-0.843-3.999-1.437-5.954 M146.301,126.743H48.247
		c0.358,2.026,0.765,4.013,1.348,5.954h102.479c0.586-1.956,1.057-3.943,1.412-5.954H146.301L146.301,126.743z"/>
	<path fill="#F7941E" d="M86.396,2h3.95v5.002h-3.95V2z"/>
	<path fill="#2C2255" d="M53.284,22.523v1.932H35.122c0.171,2.72,0.99,4.791,2.458,6.215c1.467,1.425,3.51,2.136,6.129,2.136
		c1.517,0,2.988-0.186,4.412-0.557c1.474-0.392,2.896-0.954,4.24-1.675v3.736c-1.405,0.597-2.864,1.057-4.358,1.374
		c-1.489,0.315-3.008,0.474-4.53,0.473c-3.835,0-6.873-1.116-9.113-3.35C32.12,30.574,31,27.556,31,23.75
		c0-3.936,1.063-7.06,3.188-9.372c2.125-2.31,4.992-3.467,8.598-3.467c3.235,0,5.793,1.041,7.675,3.124
		C52.343,16.115,53.284,18.946,53.284,22.523L53.284,22.523z M49.334,21.363c-0.029-2.16-0.633-3.885-1.814-5.173
		s-2.745-1.932-4.69-1.932c-2.205,0-3.97,0.623-5.293,1.868c-1.324,1.245-2.086,2.998-2.286,5.26l14.083-0.021V21.363z
		 M73.652,12.413v3.693c-1.062-0.592-2.189-1.058-3.36-1.385c-1.108-0.306-2.253-0.461-3.403-0.461
		c-2.562,0-4.551,0.813-5.968,2.436c-1.417,1.624-2.125,3.904-2.125,6.837c0,2.934,0.708,5.214,2.125,6.838
		c1.417,1.626,3.406,2.437,5.968,2.437c1.145,0,2.28-0.154,3.403-0.46c1.171-0.328,2.299-0.793,3.36-1.386v3.65
		c-1.095,0.513-2.243,0.901-3.424,1.158c-1.238,0.264-2.502,0.394-3.768,0.387c-3.622,0-6.498-1.138-8.63-3.414
		c-2.133-2.275-3.2-5.345-3.2-9.21c0-3.92,1.077-7.005,3.231-9.252c2.154-2.247,5.107-3.371,8.856-3.371
		c1.217,0,2.405,0.126,3.564,0.376C71.441,11.536,72.564,11.912,73.652,12.413 M77.486,2h3.951v33.405h-3.951V2z M86.396,11.297
		h3.95v24.045h-3.95V11.297z M98.891,31.928V44.68H94.92V11.49h3.971v3.65c0.832-1.431,1.881-2.495,3.146-3.189
		c1.268-0.693,2.779-1.041,4.54-1.041c2.92,0,5.293,1.159,7.116,3.478c1.826,2.32,2.738,5.368,2.738,9.145
		c0,3.78-0.912,6.828-2.738,9.146c-1.823,2.318-4.195,3.478-7.115,3.478c-1.76,0-3.273-0.347-4.541-1.041
		C100.77,34.422,99.721,33.359,98.891,31.928 M112.331,23.533c0-2.905-0.599-5.184-1.793-6.837c-1.195-1.653-2.837-2.48-4.927-2.48
		s-3.733,0.827-4.928,2.48c-1.195,1.653-1.793,3.932-1.793,6.837c0,2.906,0.598,5.186,1.793,6.838
		c1.194,1.654,2.838,2.48,4.928,2.48s3.731-0.827,4.927-2.48C111.732,28.719,112.331,26.439,112.331,23.533 M135.253,12.199v3.735
		c-1.104-0.567-2.271-1-3.478-1.288c-1.225-0.289-2.479-0.433-3.736-0.429c-1.961,0-3.432,0.3-4.412,0.902
		c-0.98,0.6-1.47,1.503-1.47,2.705c0,0.915,0.35,1.635,1.051,2.157c0.701,0.523,2.11,1.02,4.229,1.493l1.353,0.3
		c2.806,0.601,4.798,1.449,5.979,2.544c1.181,1.095,1.771,2.623,1.771,4.583c0,2.233-0.883,4-2.651,5.303
		c-1.768,1.302-4.197,1.953-7.289,1.953c-1.287,0-2.629-0.125-4.025-0.375c-1.494-0.276-2.969-0.652-4.412-1.127v-4.08
		c1.461,0.76,2.898,1.328,4.316,1.708c1.416,0.38,2.819,0.568,4.207,0.568c1.86,0,3.291-0.318,4.293-0.955s1.504-1.535,1.504-2.694
		c0-1.073-0.361-1.896-1.084-2.47c-0.724-0.572-2.309-1.123-4.756-1.653l-1.373-0.322c-2.447-0.515-4.215-1.305-5.304-2.372
		c-1.088-1.066-1.631-2.529-1.631-4.39c0-2.262,0.802-4.007,2.403-5.238c1.604-1.231,3.88-1.847,6.828-1.847
		c1.459,0,2.834,0.107,4.121,0.321C132.977,11.448,134.165,11.769,135.253,12.199 M159.816,22.523v1.932h-18.164
		c0.173,2.72,0.99,4.791,2.459,6.215c1.467,1.425,3.511,2.136,6.129,2.136c1.518,0,2.988-0.186,4.412-0.557
		c1.475-0.392,2.897-0.954,4.24-1.675v3.736c-1.404,0.597-2.865,1.057-4.358,1.374c-1.489,0.315-3.007,0.474-4.529,0.473
		c-3.836,0-6.874-1.116-9.112-3.35c-2.24-2.233-3.36-5.251-3.36-9.058c0-3.936,1.063-7.06,3.187-9.372
		c2.127-2.311,4.993-3.467,8.6-3.467c3.233,0,5.793,1.041,7.675,3.124C158.874,16.114,159.816,18.945,159.816,22.523z
		 M155.866,21.363c-0.03-2.16-0.634-3.885-1.815-5.173s-2.746-1.932-4.689-1.932c-2.204,0-3.969,0.623-5.293,1.868
		c-1.323,1.245-2.088,2.998-2.286,5.26l14.083-0.021L155.866,21.363z"/>
</g>
</svg>
