<?xml version="1.0" encoding="utf-8"?>
<!-- Generator: Adobe Illustrator 16.0.3, SVG Export Plug-In . SVG Version: 6.00 Build 0)  -->
<!DOCTYPE svg PUBLIC "-//W3C//DTD SVG 1.1//EN" "http://www.w3.org/Graphics/SVG/1.1/DTD/svg11.dtd">
<svg version="1.1" id="Ebene_1" xmlns="http://www.w3.org/2000/svg" xmlns:xlink="http://www.w3.org/1999/xlink" x="0px" y="0px"
	 width="103.996px" height="26.75px" viewBox="8.004 16.603 103.996 26.75" enable-background="new 8.004 16.603 103.996 26.75"
	 xml:space="preserve">
<g id="Layer_x0020_1">
	<g id="_631799120">
		<g>
			<path fill="#E3E3F8" d="M14.6,32.3C15,32,15.3,31.4,15.1,30.9C14.6,31.2,14.6,31.7,14.6,32.3z"/>
			<path fill="#E3E3F8" d="M20.8,33.8c0.4-0.1,0.9-0.6,0.6-1.1C21.1,32.9,20.9,33.3,20.8,33.8z"/>
		</g>
		<g>
			<path fill="#FDFDFD" d="M8.7,41c0,0.5,0.1,1.1,0.5,1.3c1.4,0.8,6.3,0.2,8-0.2c0.9-0.199,1.6-0.899,2.4-1.199
				c1.9-0.801,3.2-1.5,4.7-2.5c1.1-0.801,2.8-3,3-4.301l-1.5-0.3c0,1.5-0.4,1.8-1.7,2.2c-0.9,0.2-2.6,0.3-3.5,0.1
				c-1.2-0.199-1.8-0.8-2.3-1.6c-1.1-1.4,0.2-2.4-1.4-2.5c-1.8,2.2-4.9,0.6-6.2,0.4C10,33.3,8.6,38.7,8.7,40c0.8-0.3,1.4,0,2.1,0.3
				c2.7,1,0.3,1.9-0.7,1.7C9.3,41.8,9.1,41.3,8.7,41z"/>
			<path fill="#FDFDFD" d="M12.2,28.5c1.1,0.2,2,0.7,3,1.1c1.5,0.7,1.8,0.6,1.9,1.7c0,0.2,0,0.3,0.5,0.5c0.9,0.3-0.5-0.2,1.9-0.2
				c1.5,0,4.8,0.601,5.9,1.301c0.5,0.3,0.4,0.699,1.9,0.6c0-1.8-0.5-4.5-1.2-6.1c-0.9-2-2-2.3-4.3-3c-1.4-0.4-5.3-0.9-6.6-0.1
				c-1.2,0.7-1.4,1.6-2.4,3.1C12.5,27.7,12.4,28,12.2,28.5z"/>
			<path fill="#FDFDFD" d="M21.7,32.2c0.9,0.399,0,2.7-1.2,2.1c-0.4-1.1,0.5-1.7,0.8-2.2c-0.5-0.1-2-0.3-2.4-0.1
				c-0.6,0.2-0.7,1.4-0.4,2c1.4,2.7,7.5,2.1,6.9,0c-0.3-0.9-0.5-1-1.4-1.3C23.2,32.5,22.5,32.2,21.7,32.2z"/>
			<path fill="#FDFDFD" d="M10.8,31.9c0.7,0.699,2.3,0.8,3.3,0.8c0.1-1.3,0.2-2.4,1.3-2.3c0.5,0.7,0.3,1.6-0.3,2.1
				c0.9,0,1.5-0.7,1.4-1.8c-0.8-0.6-3.2-1.7-4.4-1.9C11.7,29.3,10.9,31.3,10.8,31.9z"/>
		</g>
		<path fill="#020202" d="M9.2,40.5c0.6-0.1,2.1,0.4,2.2,0.9C10.4,41.5,9.3,41.4,9.2,40.5z M8.7,41c0.4,0.3,0.7,0.8,1.4,1
			c1.1,0.3,3.4-0.6,0.7-1.7C10,40,9.5,39.7,8.7,40c0-1.2,1.3-6.7,1.9-7.6c1.4,0.199,4.5,1.8,6.2-0.4c1.7,0.1,0.4,1.1,1.4,2.5
			c0.5,0.7,1.1,1.4,2.3,1.6c0.9,0.2,2.7,0.101,3.5-0.1c1.3-0.3,1.7-0.7,1.7-2.2l1.5,0.3c-0.2,1.301-1.9,3.5-3,4.301
			c-1.5,1.1-2.8,1.699-4.7,2.5c-0.8,0.399-1.5,1-2.4,1.199c-1.7,0.4-6.6,1-8,0.2C8.8,42.2,8.7,41.6,8.7,41z M20.8,33.8
			c0.1-0.6,0.3-0.899,0.6-1.1C21.7,33.2,21.2,33.7,20.8,33.8z M21.7,32.2c0.8,0,1.5,0.2,2.2,0.5C24.8,33,25,33.1,25.3,34
			c0.7,2.1-5.5,2.7-6.9,0c-0.3-0.6-0.2-1.8,0.4-2c0.4-0.2,1.9,0.1,2.4,0.1c-0.3,0.5-1.2,1.101-0.8,2.2
			C21.7,34.9,22.6,32.6,21.7,32.2z M14.6,32.3c0-0.6,0-1.1,0.5-1.399C15.4,31.4,15,32.1,14.6,32.3z M10.8,31.9
			c0-0.601,0.9-2.601,1.2-3c1.2,0.2,3.6,1.3,4.4,1.9c0.1,1-0.4,1.7-1.4,1.8c0.6-0.5,0.8-1.399,0.3-2.1c-1.1-0.1-1.2,0.9-1.3,2.3
			C13.1,32.7,11.5,32.6,10.8,31.9z M9.9,31.2c-0.3-0.9-0.3-2.3,1-2.4l-0.7,1.9C10.1,31.2,10.1,31.1,9.9,31.2z M12.2,28.5
			c0.2-0.5,0.3-0.8,0.6-1.3c1.1-1.5,1.3-2.4,2.4-3.1c1.2-0.8,5.2-0.3,6.6,0.1c2.3,0.7,3.5,1.1,4.3,3c0.7,1.6,1.2,4.3,1.2,6.1
			c-1.5,0-1.4-0.3-1.9-0.6c-1.1-0.7-4.4-1.3-5.9-1.3c-2.5,0-1,0.5-1.9,0.199c-0.5-0.199-0.5-0.3-0.5-0.5c-0.1-1-0.4-0.899-1.9-1.7
			C14.2,29.2,13.3,28.8,12.2,28.5z M27.5,28.1c-0.2-0.5,0.1-0.5,0.7-0.9c0.3-0.2,0.5-0.4,0.9-0.7c1.4-0.8,4-0.9,5.1,0
			c0.5,0.4,1.2,1.1,1.1,2.1c-0.2,1.9-1.5,2.9-2.6,3.8c-1.1,0.899-2.9,1.8-4.8,1.199c-0.2-0.399,0-2.8-0.2-3.7
			c-0.2-0.8-0.1-0.9,0.4-1.4c1.4-1.4,4.3-2.4,6-1.2c0.7,0.5,0.5,0.7,0.9,1.1c0.5-0.5-0.4-2.1-3.5-2C29.3,26.5,28.4,28.2,27.5,28.1z
			 M14.9,23.2c0-1.2,1.2-3.7,2.3-4.6c1.3-1,2.8-2,4.8-0.9c0.5,0.3,0.5,0.4,0.5,1.1c0,0.7,0,0.9-0.2,1.5c-1.4,4.4-2.5,1.9-6.9,2.9
			c0.2-1.4,1.4-2.7,2.1-3.4c1.2-1.2,2-1.9,3.8-1.7c0.5,0.8,0.5,1.3-0.1,2.3c-0.8,1.3-1,1.2-0.9,2.1c0.6-0.2,0.8-0.8,1.1-1.4
			c1.7-3.6-0.8-4.1-2.3-3.4c-1,0.4-2.9,2.5-3.5,3.7c-0.1,0.2-0.3,0.6-0.4,0.8L14.9,23.2z M21.8,23.4c0.2-1.1,1.3-1.4,1.3-4.7
			c0-1.4-1.8-2.7-4.1-1.8c-2,0.8-2.3,1.4-3.4,3c-1,1.5-1,3.2-1.8,4.6c-0.3,0.4-0.5,0.5-0.8,0.9c-0.2,0.3-0.3,0.7-0.5,1
			c-0.4,0.7-0.8,1.2-1.2,2c-1,0-1.9,0-2,1.1c-0.1,1.5,0.6,1.8,0.6,2.4c0,0.6-2.4,6.6-1.8,10.199c0.2,1,0.8,1,1.9,1.101
			c2.5,0.3,5.8,0.2,8-0.7l4.1-2c1-0.6,2.8-1.7,3.5-2.5c0.5-0.6,0.8-1,1.3-1.7c0.6-0.899,0.7-0.899,0.8-2.2c0.9,0.2,2.4,0.5,3,1
			C30.6,35.7,30.3,35.4,30.3,36c0.3,0,0.9-0.4,1-0.9c-0.4-0.5-0.7-0.399-1.2-0.899c0.4-0.3,1.1-0.5,1.7-0.7c1.2-0.5,3.3-2,3.8-3.4
			c0.4-1.1,0.1-3-0.6-3.7c-0.7-0.8-2.3-1.2-3.6-1.2c-1.6,0-3.2,1.1-4.5,1.6c-0.5-0.4-0.5-0.9-0.9-1.4C25.7,25,23,23.6,21.8,23.4z"/>
		<path fill="#FDF2F2" d="M27.5,28.1c0.9,0.1,1.8-1.6,3.9-1.6c3.1-0.1,3.9,1.5,3.5,2c-0.4-0.4-0.2-0.6-0.9-1.1
			c-1.7-1.2-4.6-0.2-6,1.2c-0.5,0.5-0.5,0.6-0.4,1.4c0.2,0.9,0.1,3.3,0.2,3.7c1.9,0.6,3.7-0.3,4.8-1.2s2.4-1.9,2.6-3.8
			c0.1-1-0.6-1.7-1.1-2.1c-1.1-0.9-3.7-0.8-5.1,0c-0.4,0.2-0.6,0.4-0.9,0.7C27.7,27.6,27.4,27.6,27.5,28.1z"/>
		<path fill="#FEF3F3" d="M14.9,23.2l0.4-0.8c0.1-0.3,0.2-0.6,0.4-0.8c0.6-1.2,2.5-3.3,3.5-3.7c1.6-0.7,4.1-0.2,2.3,3.4
			c-0.3,0.6-0.5,1.2-1.1,1.4c-0.1-0.9,0.1-0.8,0.9-2.1c0.6-1,0.5-1.5,0.1-2.3c-1.8-0.2-2.6,0.5-3.8,1.7c-0.7,0.7-1.9,2-2.1,3.4
			c4.4-1.1,5.5,1.5,6.9-2.9c0.2-0.6,0.2-0.8,0.2-1.5c-0.1-0.7,0-0.9-0.5-1.1c-2.1-1.2-3.5-0.2-4.8,0.9C16,19.5,14.9,22,14.9,23.2z"
			/>
		<path fill="#EFEFEF" d="M9.9,31.2c0.2-0.101,0.2,0,0.3-0.4l0.7-1.9C9.6,29,9.6,30.4,9.9,31.2z"/>
		<path fill="#FAF1F1" d="M11.4,41.4c-0.1-0.5-1.6-0.9-2.2-0.9C9.3,41.4,10.4,41.5,11.4,41.4z"/>
	</g>
</g>
<g>
	<path fill="#FFF" d="M38.6,33.4v-9.8h7.1v1.2h-5.8v3h5.4V29h-5.4v3.3h6v1.2h-7.3V33.4z"/>
	<path fill="#FFF" d="M52.2,33.4v-0.9c-0.5,0.7-1.1,1.1-2,1.1c-0.6,0-1.1-0.199-1.6-0.5c-0.5-0.3-0.8-0.699-1.1-1.3c-0.3-0.6-0.4-1.2-0.4-1.9
		s0.1-1.4,0.4-1.9c0.2-0.6,0.6-1,1.1-1.3c0.5-0.3,1-0.5,1.6-0.5c0.4,0,0.8,0.1,1.1,0.3c0.3,0.2,0.6,0.4,0.8,0.7v-3.5h1.2v9.8h-1.1
		V33.4z M48.4,29.9c0,0.9,0.2,1.6,0.6,2c0.4,0.5,0.8,0.699,1.4,0.699c0.5,0,1-0.199,1.3-0.6c0.4-0.4,0.6-1.1,0.6-2
		c0-1-0.2-1.7-0.6-2.1c-0.4-0.5-0.8-0.7-1.4-0.7c-0.5,0-1,0.2-1.3,0.7C48.6,28.3,48.4,28.9,48.4,29.9z"/>
	<path fill="#FFF" d="M55.2,25v-1.4h1.2V25H55.2z M55.2,33.4V26.3h1.2V33.4H55.2z"/>
	<path fill="#FFF" d="M60.9,32.4l0.199,1.1c-0.3,0.1-0.6,0.1-0.899,0.1c-0.4,0-0.8-0.1-1-0.199C59,33.3,58.8,33.1,58.7,32.9
		c-0.1-0.2-0.1-0.7-0.1-1.4v-4.1h-0.9v-0.9h0.9v-1.8l1.2-0.7v2.5H61v0.9h-1.2v4.2c0,0.301,0,0.601,0.1,0.7c0,0.101,0.1,0.2,0.2,0.2
		c0.1,0.1,0.2,0.1,0.4,0.1C60.5,32.4,60.7,32.4,60.9,32.4z"/>
	<path fill="#FFF" d="M61.6,29.9c0-1.3,0.4-2.3,1.101-2.9c0.6-0.5,1.399-0.8,2.2-0.8c1,0,1.8,0.3,2.399,1c0.601,0.6,0.9,1.5,0.9,2.7
		c0,0.9-0.101,1.6-0.4,2.2c-0.3,0.5-0.7,0.9-1.2,1.2s-1.1,0.4-1.699,0.4c-1,0-1.801-0.3-2.4-1S61.6,31.1,61.6,29.9z M62.8,29.9
		c0,0.9,0.2,1.6,0.601,2C63.8,32.4,64.3,32.6,64.9,32.6c0.6,0,1.1-0.199,1.5-0.699C66.8,31.4,67,30.8,67,29.8c0-0.9-0.2-1.5-0.6-2
		c-0.4-0.5-0.9-0.7-1.5-0.7c-0.601,0-1.101,0.2-1.5,0.7C63,28.3,62.8,29,62.8,29.9z"/>
	<path fill="#FFF" d="M69.7,33.4V26.3h1.1v1.1c0.3-0.5,0.5-0.8,0.8-1c0.2-0.2,0.5-0.2,0.801-0.2c0.399,0,0.8,0.1,1.199,0.4L73.2,27.7
		c-0.3-0.2-0.601-0.3-0.9-0.3s-0.5,0.1-0.7,0.2C71.4,27.8,71.2,28,71.2,28.3C71.1,28.7,71,29.2,71,29.7v3.7H69.7z"/>
	<path fill="#FFF" d="M81.4,30l1.3,0.3c-0.3,1.101-0.8,1.9-1.5,2.4c-0.7,0.6-1.601,0.8-2.601,0.8c-1.1,0-1.899-0.2-2.6-0.6
		c-0.7-0.4-1.2-1.101-1.5-1.9S74,29.3,74,28.4c0-1,0.2-1.9,0.6-2.7c0.4-0.8,0.9-1.3,1.7-1.7c0.7-0.4,1.5-0.6,2.4-0.6
		c1,0,1.8,0.2,2.5,0.7s1.1,1.2,1.399,2.1l-1.3,0.3c-0.2-0.7-0.6-1.2-1-1.6c-0.399-0.3-1-0.5-1.6-0.5c-0.8,0-1.4,0.2-1.9,0.5
		c-0.5,0.4-0.899,0.8-1.1,1.5c-0.2,0.6-0.3,1.2-0.3,1.9c0,0.8,0.1,1.6,0.399,2.2c0.2,0.6,0.601,1.1,1.101,1.4
		c0.5,0.3,1.1,0.5,1.699,0.5c0.7,0,1.301-0.2,1.801-0.601C80.9,31.4,81.2,30.8,81.4,30z"/>
	<path fill="#FFF" d="M83.7,29.9c0-1.3,0.399-2.3,1.1-2.9c0.601-0.5,1.4-0.8,2.2-0.8c1,0,1.8,0.3,2.4,1c0.6,0.6,0.899,1.5,0.899,2.7
		c0,0.9-0.1,1.6-0.399,2.2c-0.301,0.5-0.7,0.9-1.2,1.2S87.6,33.7,87,33.7c-1,0-1.8-0.3-2.4-1C84,32,83.7,31.1,83.7,29.9z M84.9,29.9
		c0,0.9,0.199,1.6,0.6,2c0.4,0.5,0.9,0.699,1.5,0.699s1.1-0.199,1.5-0.699s0.6-1.101,0.6-2.101c0-0.9-0.199-1.5-0.6-2
		s-0.9-0.7-1.5-0.7s-1.1,0.2-1.5,0.7S84.9,29,84.9,29.9z"/>
	<path fill="#FFF" d="M91.8,33.4V26.3H92.9v1c0.5-0.8,1.3-1.2,2.3-1.2c0.399,0,0.8,0.1,1.2,0.2c0.399,0.2,0.6,0.4,0.8,0.6
		c0.2,0.2,0.3,0.5,0.399,0.9c0,0.2,0.101,0.6,0.101,1.2v4.4h-1.2v-4.3c0-0.5,0-0.9-0.1-1.1c-0.101-0.2-0.301-0.4-0.5-0.6
		c-0.2-0.1-0.5-0.2-0.801-0.2c-0.5,0-1,0.2-1.3,0.5C93.5,28,93,28.6,93,29.5v3.9H91.8z"/>
	<path fill="#FFF" d="M99.7,33.4v-6.2H98.6v-0.9H99.7v-0.8c0-0.5,0-0.8,0.1-1.1c0.101-0.3,0.3-0.6,0.601-0.8c0.3-0.2,0.699-0.3,1.199-0.3
		c0.301,0,0.7,0,1.101,0.1l-0.2,1.1c-0.3,0-0.5-0.1-0.7-0.1c-0.399,0-0.6,0.1-0.8,0.2c-0.2,0.2-0.2,0.4-0.2,0.9v0.7h1.4v0.9h-1.4
		v6.2h-1.1V33.4z"/>
	<path fill="#FFF" d="M103.2,25v-1.4h1.2V25H103.2z M103.2,33.4V26.3h1.2V33.4H103.2z"/>
	<path fill="#FFF" d="M106,34l1.2,0.2c0,0.399,0.2,0.6,0.399,0.8c0.301,0.2,0.7,0.3,1.2,0.3c0.601,0,1-0.1,1.3-0.3c0.301-0.2,0.5-0.5,0.601-0.9
		c0.1-0.199,0.1-0.8,0.1-1.5c-0.5,0.601-1.2,0.9-2,0.9c-1,0-1.7-0.4-2.3-1.1c-0.5-0.7-0.8-1.601-0.8-2.5c0-0.7,0.1-1.3,0.399-1.9
		c0.2-0.6,0.601-1,1.101-1.3c0.5-0.3,1-0.5,1.6-0.5c0.8,0,1.5,0.3,2.101,1v-0.9h1.1V32.4c0,1.1-0.1,1.899-0.3,2.399
		S111.1,35.6,110.6,35.9c-0.5,0.3-1.1,0.399-1.8,0.399c-0.8,0-1.5-0.2-2.1-0.6C106.3,35.4,106,34.8,106,34z M107,29.7
		c0,0.899,0.2,1.6,0.6,2c0.4,0.399,0.801,0.6,1.4,0.6s1-0.2,1.4-0.6c0.399-0.4,0.6-1.101,0.6-2c0-0.9-0.2-1.5-0.6-2
		c-0.4-0.4-0.9-0.7-1.4-0.7s-1,0.2-1.4,0.7C107.2,28.2,107,28.9,107,29.7z"/>
</g>
</svg>
