<?xml version="1.0" encoding="utf-8"?>
<!-- Generator: Adobe Illustrator 16.0.3, SVG Export Plug-In . SVG Version: 6.00 Build 0)  -->
<!DOCTYPE svg PUBLIC "-//W3C//DTD SVG 1.1//EN" "http://www.w3.org/Graphics/SVG/1.1/DTD/svg11.dtd">
<svg version="1.1" id="Layer_1" xmlns="http://www.w3.org/2000/svg" xmlns:xlink="http://www.w3.org/1999/xlink" x="0px" y="0px"
	 width="111.673px" height="38.267px" viewBox="4.166 10.867 111.673 38.267" enable-background="new 4.166 10.867 111.673 38.267"
	 xml:space="preserve">
<path fill="#FFFFFF" d="M42.596,30.926c0.006-3.195-1.997-6.049-5.003-7.13c0.13-0.68,0.195-1.37,0.195-2.063
	c0-5.993-4.873-10.866-10.85-10.866c-3.508,0-6.757,1.673-8.803,4.5c-1.007-0.78-2.24-1.202-3.525-1.202
	c-3.184,0.002-5.764,2.583-5.766,5.766c0,0.698,0.13,1.38,0.357,2.014c-2.99,1.072-5.035,3.947-5.035,7.147
	c-0.005,3.203,2.004,6.064,5.019,7.147C9.054,36.918,8.989,37.608,8.99,38.3c0,5.978,4.857,10.834,10.834,10.834
	c3.486,0.001,6.758-1.68,8.787-4.515c1.007,0.796,2.24,1.234,3.525,1.234c3.183-0.003,5.764-2.583,5.766-5.767
	c0-0.698-0.13-1.38-0.357-2.014C40.535,37.001,42.595,34.126,42.596,30.926"/>
<path fill="#FED10A" d="M19.272,27.352l8.414,3.833l8.48-7.44c0.13-0.617,0.18-1.218,0.18-1.868
	c-0.008-5.236-4.25-9.479-9.486-9.486c-3.135,0-6.042,1.543-7.813,4.126l-1.413,7.325L19.272,27.352z"/>
<path fill="#24BBB1" d="M10.566,36.253c-0.13,0.617-0.18,1.25-0.18,1.899c0.01,5.25,4.268,9.502,9.518,9.502
	c3.147,0,6.09-1.557,7.861-4.157l1.397-7.293l-1.868-3.573l-8.446-3.85L10.566,36.253z"/>
<path fill="#EF5098" d="M10.517,21.7l5.766,1.364l1.267-6.546c-0.78-0.6-1.754-0.926-2.76-0.926
	c-2.511,0.001-4.547,2.037-4.548,4.548C10.242,20.676,10.339,21.212,10.517,21.7"/>
<path fill="#17A8E0" d="M10.014,23.08c-2.566,0.845-4.37,3.313-4.37,6.026c0,2.648,1.64,5.003,4.093,5.945l8.09-7.31l-1.478-3.167
	L10.014,23.08z"/>
<path fill="#93C83E" d="M29.228,43.497c0.796,0.601,1.754,0.942,2.745,0.942c2.511-0.002,4.547-2.037,4.548-4.549
	c0.001-0.537-0.092-1.07-0.276-1.576l-5.75-1.348L29.228,43.497z"/>
<path fill="#0779A1" d="M30.398,35.457l6.335,1.479c2.601-0.871,4.357-3.301,4.369-6.043c0-2.629-1.64-5.002-4.093-5.93l-8.284,7.26
	L30.398,35.457z"/>
<path d="M57.896,37.748l0.763-0.08l0.05,1.561c-2.014,0.275-3.736,0.422-5.165,0.422c-1.9,0-3.248-0.553-4.044-1.657
	s-1.186-2.826-1.186-5.15c0-4.645,1.852-6.968,5.54-6.968c1.787,0,3.12,0.504,3.996,1.494c0.876,0.99,1.316,2.566,1.316,4.693
	l-0.114,1.511H50.31c0,1.462,0.26,2.55,0.796,3.247c0.536,0.699,1.446,1.057,2.76,1.057c1.344,0.029,2.688-0.014,4.028-0.13
	L57.896,37.748z M57.181,32.014c0-1.624-0.26-2.777-0.78-3.443c-0.52-0.666-1.364-1.007-2.534-1.007
	c-1.17,0-2.063,0.357-2.648,1.056c-0.585,0.699-0.893,1.835-0.9,3.396L57.181,32.014z M61.924,39.566V22.14h1.982v17.428
	L61.924,39.566z M76.43,30.163v6.676c0,0.666,1.639,0.634,1.639,0.634l-0.096,1.754c-1.397,0-2.551,0.113-3.248-0.553
	c-1.5,0.662-3.121,1-4.76,0.991c-1.218,0-2.145-0.34-2.777-1.04c-0.633-0.682-0.957-1.673-0.957-2.973
	c0-1.282,0.324-2.239,0.975-2.842c0.65-0.602,1.673-0.99,3.07-1.119l4.158-0.4v-1.137c0-0.893-0.195-1.543-0.586-1.933
	c-0.39-0.39-0.926-0.585-1.592-0.585H67.04V25.89h5.084c1.494,0,2.583,0.34,3.265,1.04C76.087,27.612,76.43,28.7,76.43,30.163
	L76.43,30.163z M68.275,35.557c0,1.623,0.666,2.436,2.014,2.436c1.206,0.002,2.403-0.201,3.541-0.602l0.6-0.209V32.8l-3.914,0.374
	c-0.795,0.065-1.363,0.292-1.722,0.682c-0.358,0.391-0.521,0.959-0.521,1.69L68.275,35.557z M84.175,27.662
	c-1.917,0-2.89,0.666-2.89,2.014c0,0.617,0.227,1.057,0.666,1.316s1.445,0.52,3.02,0.796s2.68,0.649,3.33,1.153
	c0.65,0.486,0.975,1.412,0.975,2.776s-0.439,2.355-1.315,2.99s-2.144,0.958-3.833,0.958c-1.088,0-4.743-0.406-4.743-0.406
	l0.114-1.722l4.645,0.356c1.023,0,1.803-0.162,2.34-0.486c0.537-0.325,0.813-0.877,0.813-1.641c0-0.763-0.227-1.283-0.682-1.56
	s-1.463-0.536-3.021-0.78s-2.663-0.6-3.313-1.088c-0.649-0.47-0.975-1.363-0.975-2.648c0-1.284,0.455-2.24,1.364-2.86
	s2.047-0.926,3.396-0.926c1.071,0,4.808,0.276,4.808,0.276v1.738l-4.694-0.26L84.175,27.662z M98.857,27.889H94.65v6.335
	c0,1.51,0.115,2.518,0.326,2.989c0.227,0.47,0.746,0.716,1.575,0.716l2.355-0.162l0.13,1.64c-1.186,0.194-2.08,0.292-2.696,0.292
	c-1.38,0-2.323-0.34-2.86-1.008c-0.537-0.666-0.795-1.949-0.795-3.832v-6.968h-1.885v-1.722h1.885v-4.06h1.965v4.044h4.207V27.889z
	 M101.618,24.462v-2.3h1.981v2.306h-1.981V24.462z M101.618,39.568v-13.4h1.981v13.4H101.618z M112.218,25.892
	c0.585,0,1.576,0.114,2.972,0.325l0.634,0.08l-0.08,1.608l-3.12-0.244c-1.494,0-2.518,0.357-3.055,1.072
	c-0.535,0.715-0.812,2.047-0.812,3.98c0,1.934,0.244,3.28,0.747,4.044c0.503,0.765,1.543,1.138,3.135,1.138l3.12-0.244l0.08,1.64
	l-3.687,0.374c-2.063,0-3.492-0.536-4.272-1.592c-0.78-1.057-1.187-2.842-1.187-5.36c0-2.518,0.423-4.288,1.268-5.295
	c0.859-1.007,2.273-1.527,4.256-1.527L112.218,25.892z"/>
</svg>
