<?xml version="1.0" encoding="utf-8"?>
<!-- Generator: Adobe Illustrator 16.0.3, SVG Export Plug-In . SVG Version: 6.00 Build 0)  -->
<!DOCTYPE svg PUBLIC "-//W3C//DTD SVG 1.1//EN" "http://www.w3.org/Graphics/SVG/1.1/DTD/svg11.dtd">
<svg version="1.1" id="Layer_1" xmlns="http://www.w3.org/2000/svg" xmlns:xlink="http://www.w3.org/1999/xlink" x="0px" y="0px"
	 width="234.803px" height="48.214px" viewBox="28.199 125.893 234.803 48.214"
	 enable-background="new 28.199 125.893 234.803 48.214" xml:space="preserve">
<g transform="matrix(1.125 0 0 1.125 -45.0125 56.563)">
	<g>
		<path d="M122.13,89.43c-2.143,0-3.857-0.642-5.089-1.875c-1.232-1.232-1.822-3-1.822-5.196c0-2.25,0.589-4.072,1.714-5.357
			c1.125-1.286,2.678-1.928,4.661-1.928c1.822,0,3.268,0.536,4.339,1.661c1.071,1.125,1.607,2.625,1.607,4.607v1.607h-9.268
			c0.054,1.339,0.429,2.357,1.072,3.107c0.643,0.75,1.661,1.071,2.893,1.071c0.804,0,1.607-0.053,2.304-0.214
			c0.696-0.161,1.446-0.429,2.303-0.75v2.411c-0.697,0.321-1.447,0.589-2.197,0.75S123.041,89.43,122.13,89.43z M121.541,77.323
			c-0.964,0-1.714,0.321-2.25,0.911c-0.536,0.589-0.911,1.446-1.018,2.625h6.322c0-1.125-0.268-2.036-0.803-2.625
			C123.255,77.645,122.505,77.323,121.541,77.323z"/>
		<path d="M130.862,69.662h2.947v19.554h-2.947V69.662z"/>
		<path d="M146.719,89.217l-0.589-1.929h-0.107c-0.643,0.857-1.339,1.446-2.036,1.714c-0.696,0.268-1.553,0.483-2.625,0.483
			c-1.339,0-2.411-0.375-3.214-1.125c-0.803-0.75-1.125-1.767-1.125-3.108c0-1.446,0.536-2.517,1.607-3.214
			c1.072-0.696,2.679-1.125,4.875-1.178l2.411-0.054v-0.75c0-0.911-0.214-1.553-0.643-1.982c-0.428-0.429-1.071-0.643-1.928-0.643
			c-0.697,0-1.393,0.107-2.036,0.322c-0.643,0.214-1.286,0.482-1.875,0.75l-0.964-2.089c0.75-0.375,1.553-0.696,2.464-0.911
			c0.911-0.214,1.714-0.322,2.518-0.322c1.768,0,3.107,0.375,4.018,1.179c0.911,0.803,1.339,1.982,1.339,3.643v9.215H146.719z
			 M142.327,87.18c1.071,0,1.928-0.321,2.571-0.911c0.643-0.589,0.964-1.446,0.964-2.518v-1.178l-1.768,0.053
			c-1.393,0.054-2.411,0.268-3.053,0.697c-0.643,0.428-0.964,1.071-0.964,1.928c0,0.643,0.161,1.125,0.536,1.447
			C140.987,87.02,141.577,87.18,142.327,87.18z"/>
		<path d="M162.255,85.251c0,1.34-0.482,2.411-1.5,3.108c-1.018,0.696-2.411,1.071-4.232,1.071c-1.875,0-3.321-0.267-4.446-0.857
			v-2.572c1.607,0.75,3.161,1.125,4.553,1.125c1.822,0,2.732-0.535,2.732-1.66c0-0.375-0.107-0.643-0.321-0.858
			c-0.214-0.214-0.536-0.483-1.018-0.75c-0.482-0.267-1.125-0.536-1.928-0.857c-1.607-0.643-2.678-1.232-3.268-1.875
			c-0.589-0.643-0.857-1.446-0.857-2.411c0-1.179,0.482-2.089,1.447-2.786c0.964-0.697,2.25-0.964,3.911-0.964
			c1.607,0,3.161,0.321,4.607,1.018l-0.964,2.197c-1.5-0.643-2.732-0.911-3.803-0.911c-1.554,0-2.357,0.429-2.357,1.339
			c0,0.428,0.214,0.803,0.589,1.125c0.375,0.322,1.286,0.697,2.679,1.232c1.125,0.428,1.982,0.857,2.518,1.232
			c0.536,0.375,0.911,0.803,1.179,1.286C162.148,84.02,162.255,84.555,162.255,85.251L162.255,85.251z"/>
		<path d="M170.612,87.073c0.697,0,1.447-0.107,2.143-0.322v2.197c-0.321,0.161-0.75,0.268-1.286,0.375
			c-0.536,0.107-1.072,0.161-1.607,0.161c-2.786,0-4.178-1.5-4.178-4.392v-7.5h-1.875v-1.286l2.036-1.072l1.018-2.947h1.822v3.107
			h3.964v2.25h-3.964v7.447c0,0.696,0.161,1.232,0.536,1.553C169.594,86.967,170.077,87.073,170.612,87.073z"/>
		<path d="M175.38,71.645c0-0.536,0.161-0.911,0.429-1.232c0.268-0.321,0.696-0.428,1.232-0.428c0.536,0,0.911,0.161,1.233,0.428
			c0.321,0.268,0.429,0.697,0.429,1.232c0,0.482-0.161,0.911-0.429,1.179c-0.268,0.268-0.696,0.428-1.233,0.428
			c-0.536,0-0.964-0.161-1.232-0.428C175.541,72.555,175.38,72.127,175.38,71.645z M178.541,89.217h-2.946V75.341h2.946V89.217z"/>
		<path d="M188.344,89.43c-2.089,0-3.696-0.589-4.767-1.821c-1.072-1.233-1.661-3-1.661-5.303c0-2.357,0.589-4.125,1.714-5.411
			c1.125-1.286,2.786-1.875,4.929-1.875c1.446,0,2.786,0.268,3.964,0.804l-0.911,2.357c-1.232-0.482-2.25-0.75-3.107-0.75
			c-2.411,0-3.589,1.607-3.589,4.768c0,1.553,0.321,2.732,0.911,3.536c0.589,0.804,1.5,1.179,2.625,1.179
			c1.339,0,2.571-0.321,3.75-0.964v2.571c-0.536,0.322-1.072,0.536-1.715,0.643C189.844,89.27,189.202,89.43,188.344,89.43z"/>
		<path d="M204.791,85.251c0,1.34-0.482,2.411-1.5,3.108c-1.017,0.696-2.411,1.071-4.232,1.071c-1.875,0-3.322-0.267-4.447-0.857
			v-2.572c1.608,0.75,3.161,1.125,4.554,1.125c1.821,0,2.733-0.535,2.733-1.66c0-0.375-0.108-0.643-0.321-0.858
			c-0.215-0.214-0.536-0.483-1.018-0.75c-0.482-0.267-1.125-0.536-1.929-0.857c-1.607-0.643-2.678-1.232-3.268-1.875
			c-0.589-0.643-0.857-1.446-0.857-2.411c0-1.179,0.482-2.089,1.447-2.786c0.964-0.697,2.25-0.964,3.91-0.964
			c1.608,0,3.161,0.321,4.608,1.018l-0.964,2.197c-1.5-0.643-2.732-0.911-3.803-0.911c-1.554,0-2.358,0.429-2.358,1.339
			c0,0.428,0.214,0.803,0.589,1.125c0.375,0.322,1.286,0.697,2.678,1.232c1.125,0.428,1.983,0.857,2.518,1.232
			c0.536,0.375,0.911,0.803,1.179,1.286C204.684,84.02,204.791,84.555,204.791,85.251L204.791,85.251z"/>
		<path d="M214.059,89.43c-2.143,0-3.857-0.642-5.089-1.875c-1.233-1.232-1.821-3-1.821-5.196c0-2.25,0.589-4.072,1.714-5.357
			c1.125-1.286,2.679-1.928,4.661-1.928c1.821,0,3.267,0.536,4.339,1.661c1.072,1.125,1.608,2.625,1.608,4.607v1.607h-9.267
			c0.053,1.339,0.428,2.357,1.071,3.107c0.642,0.75,1.661,1.071,2.892,1.071c0.804,0,1.608-0.053,2.304-0.214
			c0.696-0.161,1.446-0.429,2.304-0.75v2.411c-0.696,0.321-1.446,0.589-2.196,0.75S215.023,89.43,214.059,89.43z M213.523,77.323
			c-0.964,0-1.714,0.321-2.25,0.911c-0.536,0.589-0.911,1.446-1.018,2.625h6.322c0-1.125-0.268-2.036-0.804-2.625
			C215.237,77.645,214.434,77.323,213.523,77.323L213.523,77.323z"/>
		<path d="M231.469,89.217l-0.589-1.929h-0.107c-0.643,0.857-1.339,1.446-2.036,1.714c-0.696,0.268-1.553,0.483-2.625,0.483
			c-1.339,0-2.41-0.375-3.214-1.125c-0.804-0.75-1.125-1.767-1.125-3.108c0-1.446,0.536-2.517,1.607-3.214
			c1.072-0.696,2.679-1.125,4.875-1.178l2.411-0.054v-0.75c0-0.911-0.214-1.553-0.642-1.982c-0.429-0.429-1.071-0.643-1.929-0.643
			c-0.696,0-1.392,0.107-2.036,0.322c-0.643,0.214-1.286,0.482-1.875,0.75l-0.964-2.089c0.75-0.375,1.554-0.696,2.464-0.911
			c0.911-0.214,1.714-0.322,2.518-0.322c1.767,0,3.107,0.375,4.017,1.179c0.911,0.803,1.339,1.982,1.339,3.643v9.215H231.469z
			 M227.077,87.18c1.071,0,1.928-0.321,2.571-0.911c0.642-0.589,0.964-1.446,0.964-2.518v-1.178l-1.767,0.053
			c-1.392,0.054-2.411,0.268-3.054,0.697c-0.642,0.428-0.964,1.071-0.964,1.928c0,0.643,0.16,1.125,0.535,1.447
			C225.737,87.02,226.38,87.18,227.077,87.18z"/>
		<path d="M244.755,75.073c0.589,0,1.072,0.053,1.447,0.107l-0.268,2.732c-0.429-0.107-0.857-0.161-1.286-0.161
			c-1.179,0-2.143,0.375-2.893,1.178c-0.75,0.804-1.125,1.768-1.125,3v7.286h-2.946V75.341h2.303l0.375,2.464h0.161
			c0.482-0.803,1.071-1.5,1.821-1.982C243.094,75.341,243.898,75.073,244.755,75.073z"/>
		<path d="M254.398,89.43c-2.089,0-3.696-0.589-4.768-1.821c-1.071-1.233-1.661-3-1.661-5.303c0-2.357,0.589-4.125,1.714-5.411
			c1.125-1.286,2.786-1.875,4.928-1.875c1.447,0,2.786,0.268,3.965,0.804l-0.911,2.357c-1.232-0.482-2.25-0.75-3.107-0.75
			c-2.411,0-3.589,1.607-3.589,4.768c0,1.553,0.321,2.732,0.911,3.536c0.589,0.804,1.5,1.179,2.625,1.179
			c1.339,0,2.572-0.321,3.75-0.964v2.571c-0.536,0.322-1.071,0.536-1.714,0.643C255.898,89.27,255.255,89.43,254.398,89.43z"/>
		<path d="M273.791,89.217h-3v-8.572c0-1.071-0.214-1.875-0.642-2.411c-0.429-0.536-1.125-0.803-2.036-0.803
			c-1.232,0-2.142,0.375-2.732,1.125s-0.857,1.982-0.857,3.696v6.965h-2.946V69.662h2.946v4.982c0,0.804-0.054,1.661-0.161,2.572
			h0.215c0.428-0.643,0.964-1.179,1.66-1.554c0.697-0.375,1.554-0.536,2.518-0.536c3.375,0,5.036,1.714,5.036,5.089V89.217z"/>
	</g>
	<path fill="#00A9E5" d="M94.541,76.627H83.344c0.053,0.268,0.161,0.536,0.214,0.75c0.375,1.286,0.589,2.625,0.696,4.018
		c0.054,0.536,0.054,1.125,0.054,1.661s0,1.125-0.054,1.661c-0.107,1.392-0.321,2.732-0.696,4.017
		c-0.054,0.267-0.161,0.536-0.214,0.75h11.197c3.536,0,6.375-2.892,6.375-6.428S98.077,76.627,94.541,76.627z"/>
	<path fill="#353535" d="M84.255,84.717c0.054-0.536,0.054-1.125,0.054-1.661s0-1.125-0.054-1.661
		c-0.107-1.393-0.321-2.732-0.696-4.018c-0.054-0.268-0.161-0.536-0.214-0.75H66.041c-0.643,2.036-0.964,4.179-0.964,6.429
		c0,2.25,0.321,4.393,0.964,6.428h17.303c0.053-0.267,0.161-0.536,0.214-0.75C83.934,87.448,84.148,86.109,84.255,84.717z"/>
	<path fill="#00BFB3" d="M96.469,91.626H82.541c-0.429,0.965-0.911,1.875-1.447,2.733c-0.803,1.339-1.768,2.517-2.839,3.642
		c-0.375,0.375-0.75,0.697-1.125,1.072c-0.75,0.696-1.607,1.286-2.464,1.875c3.375,2.25,7.446,3.536,11.786,3.536
		c7.446,0,13.982-3.804,17.839-9.536C102.309,92.913,99.523,91.626,96.469,91.626z"/>
	<path fill="#019B8F" d="M81.094,94.359c0.536-0.858,1.018-1.767,1.447-2.733H66.844c1.661,3.804,4.393,7.072,7.875,9.322
		c0.857-0.589,1.661-1.179,2.464-1.875c0.375-0.322,0.75-0.697,1.125-1.072C79.327,96.93,80.291,95.698,81.094,94.359L81.094,94.359
		z"/>
	<path fill="#F9B110" d="M78.255,68.109c-0.375-0.375-0.75-0.697-1.125-1.072c-0.75-0.696-1.607-1.286-2.464-1.875
		c-3.429,2.25-6.161,5.518-7.875,9.322h15.696c-0.428-0.964-0.911-1.875-1.446-2.732C80.291,70.412,79.327,69.181,78.255,68.109z"/>
	<path fill="#FED10A" d="M86.452,61.627c-4.339,0-8.411,1.286-11.786,3.536c0.857,0.589,1.661,1.179,2.464,1.875
		c0.375,0.322,0.75,0.697,1.125,1.072c1.072,1.125,2.036,2.303,2.839,3.643c0.536,0.857,1.018,1.768,1.447,2.732h13.928
		c3.053,0,5.839-1.286,7.822-3.322C100.434,65.431,93.898,61.627,86.452,61.627z"/>
</g>
</svg>
