<?xml version="1.0" encoding="utf-8"?>
<!-- Generator: Adobe Illustrator 27.3.1, SVG Export Plug-In . SVG Version: 6.00 Build 0)  -->
<svg version="1.1"
	 id="svg4" xmlns:sodipodi="http://sodipodi.sourceforge.net/DTD/sodipodi-0.dtd" xmlns:svg="http://www.w3.org/2000/svg" xmlns:dc="http://purl.org/dc/elements/1.1/" xmlns:cc="http://creativecommons.org/ns#" xmlns:rdf="http://www.w3.org/1999/02/22-rdf-syntax-ns#" xmlns:inkscape="http://www.inkscape.org/namespaces/inkscape" sodipodi:docname="elm-lang-ar21.svg"
	 xmlns="http://www.w3.org/2000/svg" xmlns:xlink="http://www.w3.org/1999/xlink" x="0px" y="0px" viewBox="0 0 91.5 36.6"
	 style="enable-background:new 0 0 91.5 36.6;" xml:space="preserve">
<style type="text/css">
	.st0{fill:#5A6378;}
	.st1{fill:#F0AD00;}
	.st2{fill:#7FD13B;}
	.st3{fill:#60B5CC;}
</style>
<sodipodi:namedview  bordercolor="#666666" borderopacity="1" gridtolerance="10" guidetolerance="10" id="namedview6" inkscape:current-layer="svg4" inkscape:cx="113.66742" inkscape:cy="30.6505" inkscape:pageopacity="0" inkscape:pageshadow="2" inkscape:window-height="1001" inkscape:window-maximized="1" inkscape:window-width="1920" inkscape:window-x="-9" inkscape:window-y="-9" inkscape:zoom="1.9975767" objecttolerance="10" pagecolor="#ffffff" showgrid="false">
	</sodipodi:namedview>
<g id="g892" transform="translate(-213.09735,36.017698)">
	
		<path id="path2" inkscape:connector-curvature="0" sodipodi:nodetypes="ccccccccscccscccsccccscccccccccscccccccsccscsscccccccccccscccscsccscscccscsccc" class="st0" d="
		M213.1-35v34.6l17.3-17.3L213.1-35z M267.2-6.6c-1,0-1.9-0.2-2.8-0.5c-0.9-0.4-1.6-0.9-2.3-1.5c-0.6-0.7-1.1-1.5-1.5-2.4
		c-0.4-1-0.5-2-0.5-3.3s0.2-2.3,0.5-3.3c0.4-1,0.9-1.8,1.5-2.5c0.6-0.7,1.3-1.2,2.1-1.5c0.8-0.4,1.6-0.6,2.5-0.6
		c0.9,0,1.8,0.2,2.5,0.5c0.8,0.3,1.4,0.8,1.9,1.4c0.5,0.6,0.9,1.3,1.2,2.2c0.3,0.9,0.4,1.8,0.4,2.9c0,0.3,0,0.5,0,0.8
		c0,0.2,0,0.5-0.1,0.6h-10c0.1,1.6,0.6,2.9,1.5,3.8c0.9,0.9,2.1,1.4,3.5,1.4c0.7,0,1.4-0.1,2-0.3c0.6-0.2,1.2-0.5,1.7-0.9l0.9,1.7
		c-0.7,0.4-1.4,0.8-2.2,1.1C269.1-6.8,268.2-6.6,267.2-6.6L267.2-6.6z M262.5-15.6h7.9c0-1.5-0.3-2.6-1-3.4
		c-0.6-0.8-1.5-1.2-2.7-1.2c-0.5,0-1,0.1-1.5,0.3c-0.5,0.2-0.9,0.5-1.3,0.9c-0.4,0.4-0.7,0.9-1,1.4C262.7-17,262.6-16.4,262.5-15.6
		L262.5-15.6z M279-6.6c-1,0-1.6-0.3-2-0.9c-0.4-0.6-0.6-1.4-0.6-2.5v-18.8h2.5v19c0,0.4,0.1,0.7,0.2,0.9c0.1,0.2,0.3,0.2,0.5,0.2
		h0.2c0.1,0,0.2,0,0.3-0.1l0.3,1.9c-0.2,0.1-0.4,0.1-0.6,0.2C279.6-6.7,279.3-6.6,279-6.6L279-6.6z M284.1-7v-14.9h2.1l0.2,2.1h0.1
		c0.7-0.7,1.4-1.3,2.1-1.8c0.8-0.5,1.6-0.7,2.5-0.7c1.1,0,2,0.3,2.7,0.8c0.7,0.5,1.1,1.2,1.4,2.1c0.8-0.9,1.5-1.5,2.3-2
		c0.8-0.5,1.7-0.8,2.6-0.8c1.5,0,2.7,0.5,3.4,1.5c0.8,1,1.1,2.4,1.1,4.3V-7h-2.5v-9.1c0-1.4-0.2-2.4-0.7-3c-0.4-0.6-1.1-0.9-2.1-0.9
		c-1.1,0-2.4,0.8-3.7,2.3V-7h-2.5v-9.1c0-1.4-0.2-2.4-0.7-3c-0.4-0.6-1.1-0.9-2.1-0.9c-1.1,0-2.4,0.8-3.7,2.3V-7L284.1-7z"/>
	<path id="path2-2" inkscape:connector-curvature="0" sodipodi:nodetypes="cccccccc" class="st1" d="M239.3-26.6h-15.8l7.9,7.9
		L239.3-26.6z M249.7-0.4v-15.4L242-8.1L249.7-0.4z"/>
	<path id="path2-2-3" inkscape:connector-curvature="0" sodipodi:nodetypes="cccccccccc" class="st2" d="M214.1-36l8,8h17.3l-8-8
		H214.1z M241.1-26.4l8.6,8.6L241-9.1l-8.6-8.6L241.1-26.4z"/>
	<path id="path2-2-3-9" inkscape:connector-curvature="0" sodipodi:nodetypes="cccccccc" class="st3" d="M249.7-36h-16.3l16.3,16.3
		V-36z M214.1,0.6h34.6l-17.3-17.3L214.1,0.6z"/>
</g>
</svg>
