<?xml version="1.0" encoding="UTF-8"?><svg id="Layer_2" xmlns="http://www.w3.org/2000/svg" viewBox="0 0 1245 211.65"><defs><style>.cls-1{fill:#fff;}.cls-1,.cls-2{stroke-width:0px;}.cls-2{fill:#ff5640;}</style></defs><g id="Layer_1-2"><path class="cls-2" d="m1150.77,114.54c0-8.88,3.41-17.76,10.19-24.54,13.59-13.59,13.59-35.58,0-49.16l-13.1-13.22c-13.59-13.59-35.58-13.59-49.16,0l-2.71,2.71c-13.59,13.58-13.59,35.58,0,49.16l.73.72c6.02,6.03,13.42,10.52,21.46,13.42,17.46,6.27,21.57,13.62,21.61,20.9-.03,7.28-4.15,14.64-21.61,20.9-8.04,2.9-15.44,7.39-21.46,13.42l-.73.72c-13.59,13.58-13.59,35.58,0,49.16l2.71,2.71c13.59,13.58,35.58,13.58,49.16,0l13.1-13.22c13.59-13.59,13.59-35.58,0-49.16-6.78-6.78-10.18-15.66-10.19-24.54Z"/><path class="cls-2" d="m1208.12,77.86c-19.93,0-42.24,25.05-42.24,36.68s22.31,36.68,42.24,36.68,36.88-16.42,36.88-36.68-16.96-36.68-36.88-36.68Z"/><path class="cls-1" d="m77.69,37.33C32.5,37.33,0,69.64,0,114.96s32.32,77.57,78.23,77.57c25.88,0,48.06-8.23,61.12-22.84l-17.05-25.46c-11.21,11.57-25.94,15.86-42.93,15.86-23.43,0-37.33-12.34-41.5-33.15h110.55c.77-3.4,1.01-8.17,1.01-11.99,0-45.02-28.86-77.63-71.73-77.63Zm-39.77,65.47c3.94-20.63,18.19-33.57,39-33.57s33.99,13.59,36.67,33.57H37.92Z"/><path class="cls-1" d="m245.29,37.33c-39.53,0-67.67,26.24-67.67,62.49v88.19h36.79v-85.56c0-19.26,13.3-31.42,31.01-31.42s30.89,12.28,30.89,31.42v85.56h36.79v-87.83c0-36.55-28.26-62.85-67.79-62.85Z"/><path class="cls-1" d="m789.86,143.58c-.65,2.26-2.56,3.39-4.47,3.4-1.91,0-3.82-1.14-4.47-3.4-1.49-4.95-36.67-101.72-36.67-101.72h-39.95l61,146.14h40.19l61-146.14h-39.95s-35.18,96.77-36.67,101.72Z"/><path class="cls-1" d="m462.3,45.02c0,7.93.36,10.97.72,13.36h-1.13c-7.63-13.36-26.47-21.46-46.69-21.46-42.81,0-73.28,32.08-73.28,77.81s29.45,77.81,71.79,77.81c22.3,0,41.38-9.24,50.8-25.82h1.01c-.3,3.1-.6,7.45-.6,13.77v7.51h33.51V0h-36.13v45.02Zm-41.14,114.78c-24.39,0-42.33-18.78-42.33-45.55s17.95-45.38,42.33-45.38,42.51,18.72,42.51,45.38-17.77,45.55-42.51,45.55Z"/><path class="cls-1" d="m994.98,41.86v6.5c0,7.71.29,10.83.53,13.37v.1s-1,0-1,0c-7.45-13.95-25.22-24.51-48.77-24.51-42.39,0-73.46,32.14-73.46,77.63s29.39,77.57,71.97,77.57c23.37,0,42.09-10.55,50.26-26.47h1.01c-.3,3.4-.54,7.45-.54,13.95v7.99h33.39V41.86h-33.39Zm-43.71,118.18c-24.33,0-42.21-18.96-42.21-45.61s17.89-45.2,42.21-45.2,42.39,18.66,42.39,45.2-17.71,45.61-42.39,45.61Z"/><path class="cls-1" d="m650.88,48.36c0,7.71.29,10.83.53,13.37v.1s-1,0-1,0c-7.45-13.95-25.22-24.51-48.77-24.51-42.39,0-73.46,32.14-73.46,77.63s29.4,77.57,71.97,77.57c23.37,0,42.1-10.55,50.26-26.47h1.01c-.3,3.4-.54,7.45-.54,13.95v7.99h33.39V41.86h-33.39v6.5Zm-43.71,111.68c-24.33,0-42.21-18.96-42.21-45.61s17.89-45.2,42.21-45.2,42.39,18.66,42.39,45.2-17.71,45.61-42.39,45.61Z"/></g></svg>