<?xml version="1.0" encoding="utf-8"?>
<!-- Generator: Adobe Illustrator 16.0.3, SVG Export Plug-In . SVG Version: 6.00 Build 0)  -->
<!DOCTYPE svg PUBLIC "-//W3C//DTD SVG 1.1//EN" "http://www.w3.org/Graphics/SVG/1.1/DTD/svg11.dtd">
<svg version="1.1" id="Layer_1" xmlns="http://www.w3.org/2000/svg" xmlns:xlink="http://www.w3.org/1999/xlink" x="0px" y="0px"
	 width="2500px" height="887px" viewBox="0 0 2500 887" enable-background="new 0 0 2500 887" xml:space="preserve">
<title>etcd</title>
<path fill="#419EDA" d="M357.118,468.283c0,28.094-22.774,50.868-50.868,50.868s-50.868-22.774-50.868-50.868
	s22.774-50.868,50.868-50.868S357.118,440.189,357.118,468.283L357.118,468.283z M422.917,468.283
	c0,28.094,22.774,50.868,50.868,50.868c28.093,0,50.867-22.774,50.867-50.868s-22.774-50.868-50.867-50.868
	C445.691,417.415,422.917,440.189,422.917,468.283L422.917,468.283z"/>
<path fill="#419EDA" d="M769.271,523.491h-11.197c-22.392-0.018-44.482-5.154-64.584-15.018
	c6.532-37.714,9.438-75.968,8.681-114.236c-21.753-31.552-46.522-60.915-73.958-87.673c12.138-22.871,30.105-42.127,52.083-55.816
	l9.549-5.902l-7.465-8.681c-37.61-42.335-84.001-75.958-135.938-98.524l-10.33-4.514l-2.604,10.938
	c-6.161,25.179-18.892,48.274-36.893,66.927c-33.989-18.073-69.662-32.784-106.51-43.923
	c-36.805,10.965-72.448,25.502-106.424,43.403c-17.925-18.615-30.595-41.648-36.719-66.754l-2.691-10.938l-10.33,4.514
	c-51.999,22.938-98.406,56.877-136.024,99.479l-7.465,8.681l9.549,5.903c21.949,13.611,39.915,32.775,52.083,55.556
	c-27.385,26.585-52.152,55.741-73.958,87.066c-0.813,38.529,2.094,77.047,8.681,115.018c-19.999,9.796-41.967,14.902-64.236,14.931
	H11.285L0,522.536l1.042,11.198c5.409,56.531,23.19,111.18,52.083,160.069l5.903,9.375l8.681-7.292
	c19.853-16.799,43.823-28.005,69.444-32.465c16.534,34.159,36.3,66.657,59.028,97.049c36.495,12.799,74.141,22.043,112.413,27.604
	c3.807,25.929,0.568,52.403-9.375,76.649l-4.08,10.417l10.938,2.431c27.649,6.13,55.881,9.245,84.201,9.288l84.202-9.288
	l10.938-2.431l-4.254-10.417c-9.953-24.305-13.162-50.846-9.288-76.822c38.122-5.561,75.621-14.775,111.979-27.518
	c22.842-30.259,42.725-62.641,59.375-96.701c25.616,4.476,49.582,15.68,69.444,32.465l8.681,7.205l5.729-9.636
	c28.923-48.876,46.706-103.531,52.084-160.069l1.041-11.198L769.271,523.491z M510.59,660.297
	c-78.916,21.708-162.229,21.708-241.146,0c-44.09-68.202-69.393-146.836-73.351-227.951c25.352-31.445,54.744-59.407,87.413-83.16
	c32.854-23.893,68.689-43.386,106.598-57.986c37.801,14.581,73.546,34.015,106.337,57.813c32.799,23.921,62.306,52.056,87.76,83.68
	c-2.124,40.37-9.507,80.291-21.962,118.75C549.796,589.806,532.435,626.395,510.59,660.297L510.59,660.297z"/>
<path fill="#FFFFFF" d="M1089.844,220.627c127.864,0,199.652,91.753,199.652,234.982c0.163,15.509-0.882,31.007-3.125,46.354H947.83
	c6.163,108.246,71.181,176.302,167.014,176.302c44.525-0.498,87.915-14.116,124.739-39.149l30.643,55.382
	c-48.685,33.086-106.07,51.026-164.931,51.563c-133.94,0.521-240.104-97.656-240.104-261.545S975.434,220.627,1089.844,220.627
	L1089.844,220.627z M1215.625,446.321c0-102.083-45.399-158.768-123.698-158.768c-70.139,0-134.027,57.726-144.271,158.768h267.621
	H1215.625z M1385.677,302.05h-74.219v-63.889l78.125-5.122l10.33-140.191h71.094V233.04h134.896v69.444h-134.635v277.951
	c0,61.893,19.618,96.875,77.344,96.875c19.495-1.405,38.637-5.948,56.684-13.455l16.493,63.89
	c-29.781,11.004-61.08,17.357-92.795,18.837c-107.205,0-143.316-68.056-143.316-167.015V302.05z M1882.552,220.627
	c54.787-0.267,107.435,21.248,146.354,59.809l-42.274,54.601c-29.861-26.042-60.764-44.271-101.042-44.271
	c-90.711,0-156.25,78.125-156.25,193.75s62.5,191.754,154.341,191.754c47.396,0,87.674-23.698,117.534-50.521l38.107,55.643
	c-44.555,40.855-102.494,64.037-162.934,65.191c-132.986,0-234.982-95.486-234.982-261.806
	C1641.319,316.46,1753.473,220.627,1882.552,220.627z M2278.385,220.627c57.727,0,95.486,21.614,140.191,57.726l-4.167-85.59V0.054
	H2500v733.941h-70.053l-7.204-58.768h-3.125c-39.149,38.107-92.795,71.354-151.563,71.354
	c-125.694,0-207.118-95.486-207.118-262.066C2060.938,321.234,2163.976,220.627,2278.385,220.627L2278.385,220.627z
	 M2286.632,675.228c46.354,0,86.806-22.656,127.864-69.444V344.325c-42.273-38.108-80.381-52.604-121.527-52.604
	c-80.382,0-144.271,77.257-144.271,191.753C2148.524,603.092,2199.045,675.228,2286.632,675.228L2286.632,675.228z"/>
</svg>
