<?xml version="1.0" encoding="utf-8"?>
<!-- Generator: Adobe Illustrator 27.3.1, SVG Export Plug-In . SVG Version: 6.00 Build 0)  -->
<svg version="1.1" id="Layer_1" xmlns="http://www.w3.org/2000/svg" xmlns:xlink="http://www.w3.org/1999/xlink" x="0px" y="0px"
	 viewBox="0 0 80 128.9" style="enable-background:new 0 0 80 128.9;" xml:space="preserve">
<style type="text/css">
	.st0{fill:#FFFFFF;}
</style>
<g>
	<g>
		<path class="st0" d="M75.6,23.8v41.2L40,85.5V44.3L75.6,23.8z M40,44.3V3.2L4.4,23.8L40,44.3z"/>
		<path class="st0" d="M6,17.8c-3.7,2.1-6,6.1-6,10.3v32.4c0,4.3,2.3,8.2,6,10.3L34,87.1c3.7,2.1,8.2,2.1,11.9,0L74,70.9
			c3.7-2.1,6-6.1,6-10.3V28.1c0-4.3-2.3-8.2-6-10.3L45.9,1.6c-3.7-2.1-8.2-2.1-11.9,0L6,17.8z M41.6,9.1l28.1,16.2
			c1,0.6,1.6,1.6,1.6,2.8v32.4c0,1.1-0.6,2.2-1.6,2.8L41.6,79.6c-1,0.6-2.2,0.6-3.2,0L10.3,63.3c-1-0.6-1.6-1.6-1.6-2.8V28.1
			c0-1.1,0.6-2.2,1.6-2.8L38.4,9.1C39.4,8.6,40.6,8.6,41.6,9.1L41.6,9.1z"/>
	</g>
	<path class="st0" d="M5.2,124.8h3.1v-6h5.9v-2.5H8.2v-3.5h6.6v-2.5H5.2V124.8z M19.9,110.2h-3v14.6h3V110.2z M25.4,125
		c1.6,0,2.7-0.7,3.2-1.7h0.1v1.5h2.9v-7.4c0-2.6-2.2-3.7-4.7-3.7c-2.6,0-4.3,1.3-4.8,3.3l2.8,0.2c0.2-0.7,0.9-1.3,1.9-1.3
		c1,0,1.6,0.5,1.6,1.4v0c0,0.7-0.7,0.8-2.7,1c-2.2,0.2-4.1,0.9-4.1,3.4C21.8,123.9,23.3,125,25.4,125L25.4,125z M26.3,122.9
		c-0.9,0-1.6-0.4-1.6-1.3c0-0.9,0.7-1.3,1.8-1.4c0.7-0.1,1.7-0.2,2.1-0.5v1.2C28.6,122,27.6,122.9,26.3,122.9L26.3,122.9z
		 M39.8,113.8h-2.1v-2.6h-3v2.6h-1.5v2.3h1.5v5.7c0,2.1,1.4,3.2,3.7,3.1c0.6,0,1.1-0.1,1.6-0.3l-0.5-2.3c-0.2,0-0.5,0.1-0.8,0.1
		c-0.6,0-1-0.2-1-1.1v-5.3h2.1L39.8,113.8z M41.8,128.9h3V123h0.1c0.4,0.9,1.3,1.9,3.1,1.9c2.5,0,4.4-2,4.4-5.6c0-3.8-2-5.6-4.4-5.6
		c-1.8,0-2.7,1.1-3.1,2h-0.1v-1.8h-3V128.9z M44.7,119.3c0-2,0.8-3.2,2.3-3.2c1.5,0,2.3,1.3,2.3,3.2c0,1.9-0.8,3.2-2.3,3.2
		C45.6,122.5,44.7,121.3,44.7,119.3z M57.6,125c1.6,0,2.7-0.7,3.2-1.7h0.1v1.5h2.9v-7.4c0-2.6-2.2-3.7-4.6-3.7
		c-2.6,0-4.4,1.3-4.8,3.3l2.8,0.2c0.2-0.7,0.9-1.3,1.9-1.3c1,0,1.6,0.5,1.6,1.4v0c0,0.7-0.8,0.8-2.7,1c-2.2,0.2-4.1,0.9-4.1,3.4
		C54,123.9,55.5,125,57.6,125L57.6,125z M58.5,122.9c-0.9,0-1.6-0.4-1.6-1.3c0-0.9,0.7-1.3,1.8-1.4c0.7-0.1,1.7-0.2,2.1-0.5v1.2
		C60.7,122,59.8,122.9,58.5,122.9L58.5,122.9z M66.1,124.8h3v-3.5l0.8-0.9l3,4.4h3.6l-4.3-6.2l4.1-4.7h-3.5l-3.5,4.2h-0.2v-7.8h-3
		L66.1,124.8z"/>
</g>
</svg>
