<?xml version="1.0" encoding="utf-8"?>
<!-- Generator: Adobe Illustrator 27.3.1, SVG Export Plug-In . SVG Version: 6.00 Build 0)  -->
<svg version="1.1" id="Layer_1" xmlns="http://www.w3.org/2000/svg" xmlns:xlink="http://www.w3.org/1999/xlink" x="0px" y="0px"
	 viewBox="0 0 153.8 43.4" style="enable-background:new 0 0 153.8 43.4;" xml:space="preserve">
<style type="text/css">
	.st0{fill:#808080;}
	.st1{clip-path:url(#SVGID_00000158027291454934737200000005120086966682979239_);}
	.st2{fill:#39CEFD;}
	.st3{clip-path:url(#SVGID_00000032648993089172532690000003781811467044371101_);fill:#39CEFD;}
	.st4{clip-path:url(#SVGID_00000150795185701525099210000000841618494283685565_);fill:#03569B;}
	
		.st5{clip-path:url(#SVGID_00000127723800345417389400000000238974029278531722_);fill:url(#SVGID_00000058547781511710042390000010873636414776161434_);}
	.st6{clip-path:url(#SVGID_00000117654373201341238020000006186351296620562610_);}
	.st7{fill:#16B9FD;}
	.st8{fill:url(#SVGID_00000086688852960955404280000006869730292093764014_);}
</style>
<path class="st0" d="M52.9,9.1h14.7V12H55.9v8.7h10.5v2.8H55.9v11h-3V9.1z"/>
<path class="st0" d="M71.1,9.1h3v25.3h-3V9.1z"/>
<path class="st0" d="M80.2,33.1c-1.1-1.3-1.7-3.1-1.7-5.3V16.4h3v10.9c0,1.7,0.4,3,1.2,3.8c0.8,0.8,1.8,1.2,3.1,1.2
	c1,0,1.9-0.3,2.7-0.8c0.8-0.5,1.4-1.3,1.8-2.1c0.4-0.9,0.6-1.8,0.6-2.8V16.4h3v18.1h-2.9v-2.6H91c-0.5,0.9-1.3,1.6-2.4,2.3
	c-1.1,0.6-2.2,0.9-3.5,0.9C83,35,81.3,34.4,80.2,33.1z"/>
<path class="st0" d="M103.5,34.7c-0.6-0.3-1.1-0.6-1.6-1c-0.5-0.4-0.8-1-1.1-1.6c-0.2-0.6-0.4-1.3-0.4-2.2V19.1h-3.1v-2.7h3.1v-5.1
	h3v5.1h4.4v2.7h-4.4v10.1c0,1,0.2,1.8,0.6,2.2c0.4,0.5,1.1,0.8,1.9,0.8c0.7,0,1.3-0.2,2-0.6v2.9c-0.4,0.2-0.7,0.3-1.1,0.4
	c-0.4,0.1-0.8,0.1-1.4,0.1C104.8,35,104.1,34.9,103.5,34.7z"/>
<path class="st0" d="M116.3,34.7c-0.6-0.3-1.1-0.6-1.6-1c-0.5-0.4-0.8-1-1.1-1.6c-0.2-0.6-0.4-1.3-0.4-2.2V19.1h-3.1v-2.7h3.1v-5.1
	h3v5.1h4.4v2.7h-4.4v10.1c0,1,0.2,1.8,0.6,2.2c0.4,0.5,1.1,0.8,2,0.8c0.7,0,1.3-0.2,2-0.6v2.9c-0.4,0.2-0.7,0.3-1.1,0.4
	s-0.8,0.1-1.4,0.1C117.6,35,116.9,34.9,116.3,34.7z"/>
<path class="st0" d="M126.9,33.8c-1.4-0.8-2.4-2-3.2-3.4c-0.8-1.4-1.1-3.1-1.1-4.9c0-1.8,0.4-3.3,1.1-4.8c0.7-1.4,1.7-2.6,3.1-3.5
	c1.3-0.9,2.8-1.3,4.6-1.3c1.8,0,3.3,0.4,4.6,1.2c1.3,0.8,2.3,1.9,3,3.3c0.7,1.4,1,3,1,4.8c0,0.4,0,0.7-0.1,0.9h-14.3
	c0.1,1.4,0.4,2.5,1,3.5c0.6,0.9,1.3,1.6,2.3,2.1c0.9,0.5,1.9,0.7,2.8,0.7c2.3,0,4.1-1.1,5.3-3.3l2.5,1.2c-0.8,1.4-1.8,2.6-3.2,3.5
	c-1.3,0.8-3,1.3-4.8,1.3C129.9,35,128.3,34.6,126.9,33.8z M136.8,23.5c-0.1-0.8-0.3-1.5-0.6-2.3c-0.4-0.8-1-1.4-1.8-1.9
	c-0.8-0.5-1.8-0.8-3.1-0.8c-1.4,0-2.6,0.4-3.6,1.4c-1,0.9-1.6,2.1-1.9,3.6H136.8z"/>
<path class="st0" d="M143.5,16.4h2.9v2.9h0.1c0.4-1,1-1.8,2.1-2.5c1-0.7,2.1-1,3.2-1c0.8,0,1.5,0.1,2.1,0.4v3.2
	c-0.8-0.4-1.6-0.6-2.5-0.6c-0.9,0-1.7,0.3-2.4,0.8c-0.7,0.5-1.3,1.2-1.8,2c-0.4,0.8-0.6,1.8-0.6,2.7v10.1h-3L143.5,16.4L143.5,16.4z
	"/>
<g transform="matrix(.061615 0 0 .061615 -1.430818 -1.2754)">
	<g>
		<defs>
			<path id="SVGID_1_" d="M592.1,345.8L402.5,535.5l189.6,189.7H375.4L185.7,535.5l189.7-189.7H592.1z M375.4,20.7L23.2,372.9
				l108.4,108.4L592.1,20.7C592.1,20.7,375.4,20.7,375.4,20.7z"/>
		</defs>
		<clipPath id="SVGID_00000141432200036968849080000000830688297673797789_">
			<use xlink:href="#SVGID_1_"  style="overflow:visible;"/>
		</clipPath>
		<g style="clip-path:url(#SVGID_00000141432200036968849080000000830688297673797789_);">
			<path class="st2" d="M185.8,535.5l108.3,108.4l298-298.1H375.4L185.8,535.5z"/>
		</g>
	</g>
	<g>
		<defs>
			<path id="SVGID_00000103965287296855534340000009166295461872500662_" d="M592.1,345.8L402.5,535.5l189.6,189.7H375.4
				L185.7,535.5l189.7-189.7H592.1z M375.4,20.7L23.2,372.9l108.4,108.4L592.1,20.7C592.1,20.7,375.4,20.7,375.4,20.7z"/>
		</defs>
		<clipPath id="SVGID_00000093876101520629132660000003565727477821228986_">
			<use xlink:href="#SVGID_00000103965287296855534340000009166295461872500662_"  style="overflow:visible;"/>
		</clipPath>
		<path style="clip-path:url(#SVGID_00000093876101520629132660000003565727477821228986_);fill:#39CEFD;" d="M375.4,20.7h216.7
			L131.6,481.3L23.2,372.9L375.4,20.7z"/>
	</g>
	<g>
		<defs>
			<path id="SVGID_00000132067963695652908420000011473577935583972531_" d="M592.1,345.8L402.5,535.5l189.6,189.7H375.4
				L185.7,535.5l189.7-189.7H592.1z M375.4,20.7L23.2,372.9l108.4,108.4L592.1,20.7C592.1,20.7,375.4,20.7,375.4,20.7z"/>
		</defs>
		<clipPath id="SVGID_00000014619864031322349810000001944195860134510750_">
			<use xlink:href="#SVGID_00000132067963695652908420000011473577935583972531_"  style="overflow:visible;"/>
		</clipPath>
		<path style="clip-path:url(#SVGID_00000014619864031322349810000001944195860134510750_);fill:#03569B;" d="M294.1,643.9
			l81.3,81.3h216.7L402.5,535.5L294.1,643.9z"/>
	</g>
	<g>
		<defs>
			<path id="SVGID_00000099659005276156939390000008015851313718092441_" d="M592.1,345.8L402.5,535.5l189.6,189.7H375.4
				L185.7,535.5l189.7-189.7H592.1z M375.4,20.7L23.2,372.9l108.4,108.4L592.1,20.7C592.1,20.7,375.4,20.7,375.4,20.7z"/>
		</defs>
		<clipPath id="SVGID_00000026143960774746133810000010647097345699686548_">
			<use xlink:href="#SVGID_00000099659005276156939390000008015851313718092441_"  style="overflow:visible;"/>
		</clipPath>
		
			<linearGradient id="SVGID_00000021096369913880400710000018030573619901726087_" gradientUnits="userSpaceOnUse" x1="60178.5664" y1="-108763.4766" x2="60259.2891" y2="-108682.75" gradientTransform="matrix(6.161500e-02 0 0 -6.161500e-02 -3382.1699 -6036.687)">
			<stop  offset="0" style="stop-color:#1A237E;stop-opacity:0.4"/>
			<stop  offset="1" style="stop-color:#1A237E;stop-opacity:0"/>
		</linearGradient>
		
			<path style="clip-path:url(#SVGID_00000026143960774746133810000010647097345699686548_);fill:url(#SVGID_00000021096369913880400710000018030573619901726087_);" d="
			M454.9,588.2l-52.4-52.7L294.1,643.9L454.9,588.2z"/>
	</g>
	<g>
		<defs>
			<path id="SVGID_00000018933872335145855110000004928745687753760655_" d="M592.1,345.8L402.5,535.5l189.6,189.7H375.4
				L185.7,535.5l189.7-189.7H592.1z M375.4,20.7L23.2,372.9l108.4,108.4L592.1,20.7C592.1,20.7,375.4,20.7,375.4,20.7z"/>
		</defs>
		<clipPath id="SVGID_00000150067477587300931590000008021745859805579650_">
			<use xlink:href="#SVGID_00000018933872335145855110000004928745687753760655_"  style="overflow:visible;"/>
		</clipPath>
		<g style="clip-path:url(#SVGID_00000150067477587300931590000008021745859805579650_);">
			<path class="st7" d="M185.8,535.4l108.4-108.4l108.4,108.4L294.2,643.8L185.8,535.4z"/>
		</g>
	</g>
	
		<radialGradient id="SVGID_00000152944935704413606340000008203348187961039785_" cx="350485.2812" cy="472789.7188" r="3447.4197" gradientTransform="matrix(1.540375e-02 0 0 1.540375e-02 -5359.583 -7214.0195)" gradientUnits="userSpaceOnUse">
		<stop  offset="0" style="stop-color:#FFFFFF;stop-opacity:0.1"/>
		<stop  offset="1" style="stop-color:#FFFFFF;stop-opacity:0"/>
	</radialGradient>
	<path style="fill:url(#SVGID_00000152944935704413606340000008203348187961039785_);" d="M592.1,345.8L402.5,535.5l189.6,189.7
		H375.4L185.7,535.5l189.7-189.7H592.1z M375.4,20.7L23.2,372.9l108.4,108.4L592.1,20.7C592.1,20.7,375.4,20.7,375.4,20.7z"/>
</g>
</svg>
