<?xml version="1.0" encoding="utf-8"?>
<!-- Generator: Adobe Illustrator 27.3.1, SVG Export Plug-In . SVG Version: 6.00 Build 0)  -->
<svg version="1.1" id="Layer_1" xmlns="http://www.w3.org/2000/svg" xmlns:xlink="http://www.w3.org/1999/xlink" x="0px" y="0px"
	 viewBox="0 0 1951.7 556.6" style="enable-background:new 0 0 1951.7 556.6;" xml:space="preserve">
<style type="text/css">
	.st0{fill:#CC0000;}
</style>
<g>
	<path d="M558.9,420.9c-5.3-17.4-5.3-34.1-5.3-51.8v-132c0-44.7,0.8-95.5,11.2-138.7c38.4-9.5,82-10,127.8-10h99.9
		c1.5,6.9,2.2,13.8,2.3,20.8c-0.2,7-0.9,14-2.3,20.8c-14,4.5-28,4.5-42.4,4.5h-55.4c-29.9,0-55.8,0-81.6,5.3
		c-3.7,27.6-4.5,60.3-4.5,97.3h149.7c1.5,6.7,2.3,13.6,2.2,20.4c0,7.2-0.7,14.4-2.2,21.5c-14.4,4.5-28,4.5-43.3,4.5H608.7v137.1
		c-8,1.7-16.1,2.4-24.3,2.3C575.9,422.9,567.4,422.2,558.9,420.9z"/>
	<path d="M827.6,420.5c-2-15.2-2.8-30.6-2.6-45.9V134.8c0-15.9,0-31.5,4.9-47c13.8-2.9,28.1-2.9,41.9,0c4.5,15.4,4.5,31.5,4.5,47.4
		V374c0,14.8,0.4,28.9-2.7,46.5c-7.2,1.9-14.6,2.8-22.1,2.7C843.5,423.3,835.5,422.4,827.6,420.5z"/>
	<path d="M928.1,516l45.5-104l-63.9-155c-7.1-18-18.1-42.8-18.5-62.5c8.4-2.2,17.1-3.3,25.8-3.2c8.2-0.1,16.3,0.8,24.3,2.7
		l60.3,157.2l32.6-71.1c10.3-23.2,24.3-61.4,31-86.1c8.3-1.9,16.8-2.9,25.4-2.7c8.3-0.1,16.6,0.8,24.7,2.7
		c-3,28.8-19.3,62.5-36,100.5L982.6,516c-8.7,1.9-17.7,2.8-26.6,2.7C946.6,518.9,937.3,518,928.1,516z"/>
	<path d="M1181.1,420.5l-46.5-173.9c-5.5-19.7-10.4-37.8-11.4-52.2c9.2-2.2,18.5-3.2,28-3.2c8.7,0,17.3,0.9,25.8,2.7l40.6,173.9
		l63.6-172.2c6.8-1.6,13.7-2.3,20.7-2.3c7.4,0,14.8,0.8,22.1,2.3l63.6,172.2l40.4-173.9c8.3-1.9,16.8-2.8,25.4-2.7
		c9.5-0.1,19.1,1,28.4,3.2c-1.4,16.6-5.8,34.1-11,52.6l-45,173.5c-12.6,3.2-22.1,4.5-31.1,4.5c-9,0-19.5-1.4-33.4-4.5l-58.7-156.4
		l-57.2,156.4c-13,3.2-22.1,4.5-31.5,4.5S1195,423.8,1181.1,420.5z"/>
	<path d="M1502.8,347v-17.5c0-34.1,1.5-88.3,15.9-122.7c33.3-16.2,61.8-23.4,88.7-23.4c58.1,0,104.2,15.4,104.2,79.4v95.1
		c0,20.9-1.2,41.8-3.6,62.5c-6.2,1.8-12.6,2.7-19.1,2.7c-7.4-0.1-14.8-1-21.9-2.7l-4.1-21.9c-16.3,16.6-45.1,26.9-75.4,26.9
		C1557.2,425.3,1502.8,412.6,1502.8,347z M1659.8,358.4V240.3c-10.3-8.6-31.5-12.6-52.8-12.6c-21.2,0-42.8,4.1-53,12.6v127.1
		c11.2,9,26,13,41.4,13C1617.8,380.5,1642.1,372,1659.8,358.4z"/>
	<path d="M1764.8,516l45.5-104l-64-155.2c-7.3-18.1-18.1-42.8-18.5-62.5c8.4-2.2,17-3.3,25.6-3.2c8.2-0.1,16.4,0.8,24.4,2.7
		l60.3,157.2l32.5-71.3c10.3-23,24.4-61.3,31.1-85.9c8.3-1.9,16.8-2.9,25.4-2.7c8.3-0.1,16.6,0.8,24.7,2.7
		c-3.2,28.8-19.3,62.5-36,100.5L1819.3,516c-8.7,1.9-17.7,2.8-26.6,2.7C1783.3,518.9,1773.9,518,1764.8,516z"/>
</g>
<g>
	<path class="st0" d="M124.9,389.8c5.8-8.8,9.2-19,9.9-29.5l-46.4,9.6c-1.7,0.3-3.5,0.5-5.2,0.5c-14.4-0.3-25.9-12.1-25.7-26.6
		c0.2-12.1,8.7-22.4,20.5-25L183.2,297c16.2-3.3,30.5-13,39.6-26.8c5.9-8.9,9.4-19.2,10.2-29.9l-46.6,9.6c-1.7,0.3-3.5,0.5-5.2,0.5
		c-12.5,0-23.2-8.8-25.6-21c-2.8-14.2,6.8-27.8,20.9-30.7l104-21.3c20.3-4.2,32.1-20.8,37.5-30.3c4.7-8.5,7.9-17.8,9.4-27.4L0.1,187
		v247.4l84.1-17.3C100.8,413.7,115.5,403.9,124.9,389.8z"/>
	<path class="st0" d="M208.7,0C117.2,0,37.1,18.5,0,45.2v88.5L359,60c7.6-1.5,15,3.3,16.6,10.9l2.4,11.8c6,29.4,0.8,62.1-14.5,89.7
		c-16.6,30-42.5,49.8-72.7,56.1l-5.7,1.1c1.4,25-5.5,49.8-19.7,70.4c-17,25.2-43.4,42.1-73,48.3l-5.5,1.1
		c3,56.7-35.8,107-91.4,118.6L0,487.7v23.7c37.1,26.7,117.2,45.3,208.7,45.3s171.6-18.5,208.7-45.3V45.2C380.3,18.5,300.3,0,208.7,0
		z"/>
</g>
</svg>
