<?xml version="1.0" encoding="utf-8"?>
<!-- Generator: Adobe Illustrator 16.0.3, SVG Export Plug-In . SVG Version: 6.00 Build 0)  -->
<!DOCTYPE svg PUBLIC "-//W3C//DTD SVG 1.1//EN" "http://www.w3.org/Graphics/SVG/1.1/DTD/svg11.dtd">
<svg version="1.1" id="layer" xmlns="http://www.w3.org/2000/svg" xmlns:xlink="http://www.w3.org/1999/xlink" x="0px" y="0px"
	 width="276.12px" height="68.375px" viewBox="9.754 113.374 276.12 68.375" enable-background="new 9.754 113.374 276.12 68.375"
	 xml:space="preserve">
<path fill="#24292E" d="M179.033,166.059h-0.092c0.047,0,0.047,0.046,0.092,0.046h0.047L179.033,166.059z M179.033,166.104
	c-0.367,0-1.334,0.184-2.346,0.184c-3.176,0-4.279-1.472-4.279-3.405v-12.791h6.487c0.368,0,0.645-0.322,0.645-0.782v-6.948
	c0-0.368-0.322-0.69-0.645-0.69h-6.487v-8.65c0-0.322-0.23-0.506-0.598-0.506h-8.835c-0.368,0-0.552,0.23-0.552,0.506v8.88
	c0,0-4.464,1.104-4.74,1.15c-0.322,0.092-0.506,0.368-0.506,0.69v5.567c0,0.46,0.322,0.782,0.69,0.782h4.509v13.436
	c0,9.984,6.948,10.997,11.688,10.997c2.162,0,4.785-0.69,5.199-0.92c0.23-0.093,0.368-0.368,0.368-0.645v-6.12
	C179.632,166.473,179.402,166.196,179.033,166.104L179.033,166.104z M275.936,157.132c0-7.408-2.99-8.374-6.119-8.052
	c-2.439,0.138-4.418,1.38-4.418,1.38v14.401c0,0,1.979,1.381,4.97,1.473C274.555,166.426,275.936,164.908,275.936,157.132
	L275.936,157.132z M285.874,156.488c0,14.033-4.556,18.036-12.47,18.036c-6.717,0-10.307-3.405-10.307-3.405
	s-0.138,1.887-0.367,2.117c-0.139,0.23-0.322,0.322-0.599,0.322h-6.027c-0.414,0-0.782-0.322-0.782-0.69l0.092-45.414
	c0-0.368,0.322-0.69,0.69-0.69h8.696c0.368,0,0.689,0.322,0.689,0.69v15.414c0,0,3.359-2.163,8.283-2.163l-0.047-0.092
	C278.604,140.613,285.874,142.454,285.874,156.488L285.874,156.488z M250.215,141.718h-8.604c-0.46,0-0.69,0.322-0.69,0.782v22.225
	c0,0-2.254,1.563-5.337,1.563c-3.037,0-3.957-1.38-3.957-4.463v-19.417c0-0.368-0.322-0.69-0.69-0.69h-8.742
	c-0.368,0-0.69,0.322-0.69,0.69v20.936c0,8.973,5.016,11.227,11.917,11.227c5.706,0,10.307-3.129,10.307-3.129
	s0.23,1.611,0.322,1.841c0.092,0.185,0.368,0.368,0.645,0.368h5.476c0.46,0,0.69-0.322,0.69-0.69l0.092-30.552
	C250.997,142.04,250.629,141.718,250.215,141.718L250.215,141.718z M153.313,141.672h-8.696c-0.368,0-0.69,0.368-0.69,0.828v30
	c0,0.828,0.552,1.104,1.243,1.104h7.868c0.828,0,1.012-0.368,1.012-1.104v-30.138C154.003,141.994,153.682,141.672,153.313,141.672
	L153.313,141.672z M148.988,127.822c-3.129,0-5.66,2.484-5.66,5.659c0,3.129,2.485,5.66,5.66,5.66c3.083,0,5.567-2.485,5.567-5.66
	C154.555,130.353,152.07,127.822,148.988,127.822L148.988,127.822z M216.441,126.81h-8.65c-0.367,0-0.689,0.322-0.689,0.69v16.703
	h-13.527V127.5c0-0.368-0.322-0.69-0.691-0.69h-8.695c-0.369,0-0.69,0.322-0.69,0.69v45.414c0,0.368,0.368,0.69,0.69,0.69h8.695
	c0.369,0,0.691-0.322,0.691-0.69v-19.417h13.527l-0.092,19.417c0,0.368,0.321,0.69,0.689,0.69h8.696c0.368,0,0.69-0.322,0.69-0.69
	V127.5C217.132,127.132,216.811,126.81,216.441,126.81L216.441,126.81z M139.279,146.917v23.466c0,0.139-0.046,0.461-0.23,0.507
	c0,0-5.107,3.635-13.528,3.635c-10.169,0-22.27-3.175-22.27-24.202c0-21.028,10.537-25.353,20.844-25.307
	c8.926,0,12.515,2.025,13.067,2.393c0.138,0.23,0.23,0.368,0.23,0.552l-1.656,7.316c0,0.368-0.368,0.829-0.828,0.69
	c-1.473-0.46-3.681-1.334-8.88-1.334c-6.028,0-12.47,1.703-12.47,15.276c0,13.527,6.12,15.138,10.537,15.138
	c3.773,0,5.107-0.46,5.107-0.46v-9.387h-6.028c-0.46,0-0.782-0.322-0.782-0.689v-7.546c0-0.368,0.322-0.69,0.782-0.69h15.322
	C138.957,146.227,139.279,146.549,139.279,146.917L139.279,146.917z"/>
<path fill="#24292E" d="M44.816,113.374c-19.371,0-35.062,15.69-35.062,35.062c0,15.506,10.031,28.619,23.973,33.268
	c1.749,0.275,2.438-0.736,2.438-1.657c0-0.828-0.046-3.589-0.046-6.534c-8.789,1.611-11.089-2.162-11.779-4.095
	c-0.414-1.013-2.116-4.142-3.589-4.97c-1.242-0.644-2.991-2.3-0.046-2.346c2.761-0.047,4.739,2.53,5.383,3.588
	c3.175,5.292,8.19,3.82,10.215,2.899c0.322-2.255,1.242-3.819,2.254-4.693c-7.776-0.874-15.966-3.911-15.966-17.3
	c0-3.819,1.38-6.994,3.589-9.433c-0.368-0.875-1.564-4.463,0.368-9.294c0,0,2.944-0.92,9.662,3.589
	c2.807-0.782,5.798-1.196,8.743-1.196c2.991,0,5.936,0.414,8.742,1.196c6.718-4.555,9.617-3.589,9.617-3.589
	c1.933,4.831,0.69,8.42,0.368,9.294c2.254,2.438,3.589,5.567,3.589,9.433c0,13.436-8.19,16.426-16.012,17.3
	c1.288,1.104,2.393,3.175,2.393,6.487c0,4.693-0.046,8.467-0.046,9.617c0,0.92,0.644,2.024,2.393,1.656
	c14.264-4.831,23.88-18.221,23.88-33.267C79.877,129.064,64.187,113.374,44.816,113.374L44.816,113.374z"/>
</svg>
