<?xml version="1.0" encoding="utf-8"?>
<!-- Generator: Adobe Illustrator 27.3.1, SVG Export Plug-In . SVG Version: 6.00 Build 0)  -->
<svg version="1.1" id="Layer_1" xmlns="http://www.w3.org/2000/svg" xmlns:xlink="http://www.w3.org/1999/xlink" x="0px" y="0px"
	 viewBox="0 0 313.7 43.2" style="enable-background:new 0 0 313.7 43.2;" xml:space="preserve">
<style type="text/css">
	.st0{fill-rule:evenodd;clip-rule:evenodd;fill:#E15B39;}
	.st1{fill-rule:evenodd;clip-rule:evenodd;fill:#171219;}
</style>
<g id="Gitignore">
	<g id="Artboard">
		<g id="gitignoreio-logo" transform="translate(13.000000, 16.000000)">
			<path id="Page-1" class="st0" d="M-0.3,11.3L3,14.6l-8,8l-2-2V18L-0.3,11.3z M-9,10.6v8l-4-4L-9,10.6z M-1.7,9.9L-7,15.2V8.6l2-2
				L-1.7,9.9z"/>
			<path id="gitignore.io" class="st1" d="M11.7,27.2l-0.6-6.1c10-0.9,11.2-1.2,11.3-6.6c-1.4,1-3.3,1.7-5.6,1.7
				c-4.9,0-8.7-3.8-8.7-9.9c0-7.6,6-12.6,13.4-12.6c2.5,0,5.1,0.4,7.6,1.2c0.1,3.5,0.1,11.1,0.1,16.2C29.2,20.4,26,26.4,11.7,27.2z
				 M19.5,10.9c1,0,1.9-0.1,2.9-0.5V-0.1c-1.2-0.3-2.3-0.5-3.4-0.5c-2.6,0-4.2,1.7-4.2,5.3C14.8,9,16.9,10.9,19.5,10.9z M50.1-9
				l0.4-7h-7.2L43-9H50.1z M57.4,18.6l0.6-5.1h-7.8V-5.7H35.8l-0.5,4.8l8,0.4v14h-7.8v5.1H57.4z M81.2,18.9l0.7-5.6
				c-6.7-0.1-8.9-0.8-8.9-4.2v-9.7h8.4v-5.1H73v-7L66.2-12v6.3h-4.3l-0.6,5.1h4.9v10.8C66.2,16.7,69.8,19.2,81.2,18.9z M102.9-9
				l0.4-7h-7.2l-0.4,7H102.9z M110.2,18.6l0.6-5.1H103V-5.7H88.6l-0.5,4.8l8,0.4v14h-7.8v5.1H110.2z M117.3,27.2l-0.6-6.1
				c10-0.9,11.2-1.2,11.3-6.6c-1.4,1-3.3,1.7-5.6,1.7c-4.9,0-8.7-3.8-8.7-9.9c0-7.6,6-12.6,13.4-12.6c2.5,0,5.1,0.4,7.6,1.2
				c0.1,3.5,0.1,11.1,0.1,16.2C134.8,20.4,131.6,26.4,117.3,27.2z M125.1,10.9c1,0,1.9-0.1,2.9-0.5V-0.1c-1.2-0.3-2.3-0.5-3.4-0.5
				c-2.6,0-4.2,1.7-4.2,5.3C120.4,9,122.5,10.9,125.1,10.9z M151.5-0.5c2,0,3.3,1.1,3.3,5v14.2h6.8V2c0-5.9-2.6-8.4-6.7-8.4
				c-3.3,0-5.6,1.5-7.4,3.2l-0.3-2.7l-6.3,0.3c0.3,5.4,0.4,12.9,0.4,24.1h6.8c0-7.2-0.1-13.4-0.2-18C148.9-0.1,150.1-0.5,151.5-0.5z
				 M176.6,19.4c-6.1,0-10.3-4.3-10.3-12.2c0-7.9,5.5-13.6,12.2-13.6c6.1,0,10.3,4.3,10.3,12.2C188.9,14,183.3,19.4,176.6,19.4z
				 M177.9,13.9c2.5,0,4.1-2.2,4.1-6.9c0-5.4-1.7-8-4.6-8c-2.5,0-4.1,2.2-4.1,6.9C173.3,11.3,175,13.9,177.9,13.9z M212.1,18.6
				l0.6-5.1H206c-0.1-4.7-0.1-8.1-0.2-11.2c2.8-1,5.9-1.6,9.4-1.7L215-6.7c-4.2,0.6-7.4,2.6-9.5,5.2L205-5.7h-10.8l-0.5,4.8l5.4,0.4
				c0.1,3.8,0.1,8.2,0.2,14h-5.4v5.1H212.1z M239.9,19.2c-16.2,0.4-20.3-4.3-20.3-12.2c0-7.6,5.7-13.3,12.2-13.3
				c7,0,10.2,5.4,9.3,14.3l-14.6,0.4c0.8,4,4.4,5.1,14.1,5.3L239.9,19.2z M230.5-0.8c-2.6,0-4,1.3-4.2,5.2c2.2,0,5.7-0.2,8.2-0.2
				C234.3,0.9,233.2-0.8,230.5-0.8z M249.7,18.6l0.2-4.1h-3.8l-0.2,4.1H249.7z M265.9-8.5l0.4-6.2H264l-0.2,6.2H265.9z M275.4,18.6
				l0.1-1.7h-9.4V-4.4H255L254.8-3l9.3,0.4v19.5h-9.4v1.7H275.4z M290.3,19.2c-5.6,0-9.8-4.5-9.8-11.9c0-7.4,4.8-12.4,10.4-12.4
				c5.7,0,9.8,4.5,9.8,11.8C300.7,14.3,296,19.2,290.3,19.2z M290.6,17.4c4.7,0,8.1-3.7,8.1-10.2c0-6.6-3.4-10.4-8.1-10.4
				c-4.7,0-8,3.7-8,10.1C282.6,13.6,285.9,17.4,290.6,17.4z"/>
		</g>
	</g>
</g>
</svg>
