<?xml version="1.0" encoding="utf-8"?>
<!-- Generator: Adobe Illustrator 16.0.3, SVG Export Plug-In . SVG Version: 6.00 Build 0)  -->
<!DOCTYPE svg PUBLIC "-//W3C//DTD SVG 1.1//EN" "http://www.w3.org/Graphics/SVG/1.1/DTD/svg11.dtd">
<svg version="1.1" id="Layer_1" xmlns="http://www.w3.org/2000/svg" xmlns:xlink="http://www.w3.org/1999/xlink" x="0px" y="0px"
	 width="110.527px" height="36.396px" viewBox="4.732 11.797 110.527 36.396" enable-background="new 4.732 11.797 110.527 36.396"
	 xml:space="preserve">
<path fill="#8C929D" d="M82.094,21.064h-2.4l0.009,17.872h9.713v-2.199H82.1L82.094,21.064z M98.664,35.798
	c-0.777,0.809-1.853,1.263-2.975,1.255c-1.828,0-2.564-0.9-2.564-2.074c0-1.772,1.229-2.619,3.848-2.619
	c0.5,0,1.281,0.055,1.691,0.136V35.798z M96.18,24.966c-1.862-0.003-3.668,0.645-5.104,1.83l0.85,1.47
	c0.982-0.573,2.183-1.146,3.902-1.146c1.965,0,2.838,1,2.838,2.7v0.874c-0.382-0.082-1.173-0.137-1.664-0.137
	c-4.202,0-6.33,1.473-6.33,4.557c0,2.756,1.692,4.146,4.256,4.146c1.728,0,3.384-0.8,3.956-2.074l0.438,1.746h1.691v-9.14
	c0-2.892-1.255-4.83-4.83-4.83L96.18,24.966z M108.757,37.136c-0.899,0-1.692-0.1-2.292-0.382v-8.267
	c0.82-0.682,1.828-1.173,3.1-1.173c2.32,0,3.221,1.637,3.221,4.284c0,3.766-1.446,5.541-4.038,5.541 M109.747,24.968
	c-2.146,0-3.3,1.46-3.3,1.46V24.12l-0.008-3.056h-2.347L104.1,38.5c1.174,0.5,2.783,0.764,4.53,0.764c4.476,0,6.63-2.865,6.63-7.803
	C115.26,27.559,113.268,24.967,109.747,24.968 M55.993,23c2.128,0,3.492,0.7,4.393,1.42l1.032-1.787
	c-1.406-1.233-3.298-1.896-5.316-1.896c-5.102,0-8.676,3.1-8.676,9.386c0,6.576,3.856,9.141,8.267,9.141
	c2.2,0,4.093-0.519,5.321-1.037L60.963,31.2V29h-6.548v2.2H58.6l0.05,5.334c-0.546,0.272-1.5,0.5-2.783,0.5
	c-3.547,0-5.92-2.229-5.92-6.93c0-4.775,2.456-7.094,6.057-7.094 M72.88,21.064h-2.347l0.008,3v10.368c0,2.893,1.255,4.83,4.83,4.83
	c0.484,0,0.969-0.043,1.445-0.13v-2.106c-0.36,0.055-0.725,0.082-1.09,0.082c-1.965,0-2.838-1-2.838-2.7v-7.15h3.93v-1.965h-3.93
	L72.88,21.064z M64.58,38.936h2.347V25.293H64.58V38.936z M64.58,23.41h2.347v-2.347H64.58V23.41z"/>
<path fill="#E24329" d="M24.473,48.193l7.273-22.384H17.2L24.473,48.193z"/>
<path fill="#FC6D26" d="M24.473,48.193L17.2,25.8H7.006L24.473,48.193z"/>
<path fill="#FCA326" d="M7.006,25.8l-2.2,6.804c-0.202,0.619,0.02,1.299,0.547,1.684l19.13,13.9L7.006,25.8z"/>
<path fill="#E24329" d="M7.006,25.8H17.2l-4.38-13.482c-0.225-0.694-1.207-0.694-1.432,0L7.006,25.8z"/>
<path fill="#FC6D26" d="M24.473,48.193l7.273-22.385H41.94L24.473,48.193z"/>
<path fill="#FCA326" d="M41.94,25.8l2.2,6.804c0.202,0.619-0.02,1.299-0.547,1.684l-19.13,13.9L41.94,25.8z"/>
<path fill="#E24329" d="M41.94,25.8H31.746l4.38-13.482c0.225-0.694,1.207-0.694,1.432,0L41.94,25.8z"/>
</svg>
