<?xml version="1.0" encoding="utf-8"?>
<!-- Generator: Adobe Illustrator 27.3.1, SVG Export Plug-In . SVG Version: 6.00 Build 0)  -->
<svg version="1.1" id="Layer_1" xmlns="http://www.w3.org/2000/svg" xmlns:xlink="http://www.w3.org/1999/xlink" x="0px" y="0px"
	 viewBox="0 0 176.9 27.7" style="enable-background:new 0 0 176.9 27.7;" xml:space="preserve">
<style type="text/css">
	.st0{fill:#EA4335;}
	.st1{fill:#4285F4;}
	.st2{fill:#34A853;}
	.st3{fill:#FBBC05;}
	.st4{fill:#5F6368;}
</style>
<path class="st0" d="M20.8,7.3h1l2.9-2.8l0.1-1.2C19.5-1.5,11.4-1,6.7,4.3C5.4,5.8,4.5,7.6,4,9.5c0.3-0.1,0.7-0.2,1-0.1l5.7-0.9
	c0,0,0.3-0.5,0.4-0.4C13.6,5.2,17.9,4.9,20.8,7.3L20.8,7.3z"/>
<path class="st1" d="M28.7,9.5c-0.7-2.4-2-4.6-3.9-6.2l-4,4c1.7,1.4,2.7,3.5,2.6,5.6v0.7c2,0,3.6,1.6,3.6,3.6s-1.6,3.6-3.6,3.6h-7.1
	l-0.7,0.7v4.3l0.7,0.7h7.1c5.1,0,9.3-4.1,9.3-9.2C32.8,14.1,31.3,11.2,28.7,9.5z"/>
<path class="st2" d="M9.2,26.3h7.1v-5.7H9.2c-0.5,0-1-0.1-1.5-0.3l-1,0.3l-2.9,2.8l-0.2,1C5.2,25.7,7.2,26.4,9.2,26.3z"/>
<path class="st3" d="M9.2,7.9C4.1,7.9,0,12.1,0,17.2c0,2.9,1.4,5.5,3.6,7.3l4.1-4.1C6,19.5,5.2,17.4,6,15.6s2.9-2.6,4.7-1.8
	c0.8,0.4,1.4,1,1.8,1.8l4.1-4.1C14.8,9.2,12.1,7.8,9.2,7.9z"/>
<path class="st4" d="M51.7,22.4c-2.5,0-4.9-0.9-6.6-2.7c-1.8-1.7-2.8-4.1-2.8-6.5c0-2.5,1-4.8,2.8-6.5c1.7-1.8,4.1-2.8,6.6-2.8
	c2.4,0,4.6,0.9,6.3,2.5l-1.8,1.8c-1.2-1.2-2.9-1.8-4.5-1.8c-1.8,0-3.5,0.7-4.7,2c-1.3,1.3-2,3-1.9,4.8c0,1.8,0.7,3.5,1.9,4.7
	c2.6,2.6,6.7,2.6,9.4,0.1c0.8-0.9,1.3-2,1.4-3.1h-6v-2.6h8.5c0.1,0.5,0.1,1,0.1,1.6c0.1,2.2-0.7,4.3-2.2,5.9
	C56.5,21.5,54.2,22.4,51.7,22.4z M71.5,20.7c-2.4,2.3-6.1,2.3-8.5,0c-1.1-1.1-1.8-2.7-1.7-4.2c0-1.6,0.6-3.1,1.7-4.2
	c2.4-2.3,6.1-2.3,8.5,0c1.1,1.1,1.8,2.7,1.7,4.2C73.3,18,72.6,19.6,71.5,20.7L71.5,20.7z M64.9,19c1.2,1.3,3.3,1.4,4.6,0.2
	c0.1,0,0.1-0.1,0.2-0.2c0.7-0.7,1-1.6,1-2.6c0-1-0.3-1.9-1-2.6c-1.3-1.3-3.3-1.4-4.7-0.1c0,0-0.1,0.1-0.1,0.1c-0.7,0.7-1,1.6-1,2.6
	C63.8,17.4,64.2,18.3,64.9,19L64.9,19z M84.5,20.7c-2.4,2.3-6.1,2.3-8.5,0c-1.1-1.1-1.8-2.7-1.7-4.2c0-1.6,0.6-3.1,1.7-4.2
	c2.4-2.3,6.1-2.3,8.5,0c1.1,1.1,1.8,2.7,1.7,4.2C86.3,18,85.7,19.6,84.5,20.7z M77.9,19c1.2,1.3,3.3,1.4,4.6,0.2
	c0.1,0,0.1-0.1,0.2-0.2c0.7-0.7,1-1.6,1-2.6c0-1-0.3-1.9-1-2.6c-1.3-1.3-3.3-1.4-4.7-0.1c0,0-0.1,0.1-0.1,0.1c-0.7,0.7-1,1.6-1,2.6
	C76.9,17.4,77.2,18.3,77.9,19L77.9,19z M93.1,27.7c-1.2,0-2.4-0.3-3.3-1.1c-0.8-0.6-1.5-1.5-1.9-2.5l2.3-1c0.2,0.6,0.6,1.1,1.1,1.5
	c0.5,0.4,1.2,0.6,1.9,0.6c0.9,0.1,1.7-0.3,2.3-0.9c0.6-0.7,0.9-1.7,0.8-2.6V21h-0.1c-0.8,0.9-1.9,1.4-3.1,1.4c-1.5,0-3-0.6-4-1.7
	c-1.1-1.1-1.7-2.6-1.7-4.2c0-1.6,0.6-3.1,1.7-4.2c1-1.1,2.5-1.8,4-1.8c0.6,0,1.3,0.1,1.8,0.4c0.5,0.2,0.9,0.5,1.3,0.9h0.1v-0.9h2.5
	v10.6c0.1,1.7-0.4,3.4-1.6,4.6C96,27.2,94.6,27.8,93.1,27.7z M93.2,20c0.9,0,1.7-0.3,2.3-1c0.6-0.7,0.9-1.6,0.9-2.6
	c0-1-0.3-1.9-0.9-2.6c-0.6-0.7-1.4-1-2.3-1c-0.9,0-1.7,0.3-2.3,1c-0.7,0.7-1,1.6-1,2.6c0,1,0.3,1.9,1,2.6C91.5,19.7,92.4,20,93.2,20
	z M103.1,4.5V22h-2.6V4.5L103.1,4.5z M110.3,22.4c-1.6,0-3.1-0.6-4.2-1.7c-1.1-1.1-1.7-2.7-1.7-4.2c-0.1-1.6,0.5-3.1,1.6-4.3
	c1-1.1,2.5-1.7,4-1.7c0.7,0,1.4,0.1,2,0.4c0.6,0.2,1.1,0.6,1.5,1c0.4,0.4,0.7,0.8,1,1.2c0.2,0.4,0.4,0.8,0.6,1.2l0.3,0.7l-8,3.3
	c0.5,1.1,1.6,1.9,2.9,1.8c1.2,0,2.3-0.6,2.9-1.6l2,1.4c-0.5,0.7-1.2,1.3-1.9,1.8C112.4,22.1,111.4,22.4,110.3,22.4z M107,16.2
	l5.3-2.2c-0.2-0.4-0.5-0.7-0.8-0.9c-0.4-0.2-0.9-0.4-1.4-0.4c-0.8,0-1.6,0.4-2.2,0.9C107.2,14.4,106.9,15.3,107,16.2z"/>
<path class="st4" d="M129.1,22.4c-4.6,0.1-8.3-3.5-8.4-8.1c0-0.1,0-0.2,0-0.3c-0.1-4.5,3.5-8.3,8-8.4c0.1,0,0.2,0,0.3,0
	c2.3-0.1,4.5,0.9,5.9,2.6l-1.4,1.4c-1.1-1.4-2.7-2.1-4.5-2.1c-1.7,0-3.3,0.6-4.5,1.8c-1.2,1.2-1.9,2.9-1.8,4.7
	c-0.1,1.7,0.6,3.4,1.8,4.7c1.2,1.2,2.8,1.8,4.5,1.8c1.9,0,3.8-0.8,5-2.3l1.4,1.4c-0.8,0.9-1.7,1.6-2.8,2.1
	C131.6,22.1,130.4,22.4,129.1,22.4z"/>
<path class="st4" d="M139.4,22h-2.1V5.9h2.1V22z"/>
<path class="st4" d="M142.8,12.3c2.3-2.2,5.9-2.2,8.2,0c1.1,1.1,1.6,2.6,1.6,4.2c0,1.6-0.5,3.1-1.6,4.2c-2.3,2.2-5.9,2.2-8.2,0
	c-1.1-1.1-1.6-2.6-1.6-4.2C141.1,14.9,141.7,13.4,142.8,12.3z M144.3,19.4c1.3,1.4,3.5,1.5,4.9,0.1c0,0,0.1-0.1,0.1-0.1
	c0.7-0.8,1.1-1.8,1.1-2.9c0-1.1-0.3-2.1-1.1-2.9c-1.3-1.4-3.5-1.5-4.9-0.1c0,0-0.1,0.1-0.1,0.1c-0.7,0.8-1.1,1.8-1.1,2.9
	C143.2,17.6,143.6,18.6,144.3,19.4L144.3,19.4z"/>
<path class="st4" d="M164,22h-2v-1.5H162c-0.4,0.6-0.9,1.1-1.5,1.4c-0.6,0.4-1.3,0.6-2.1,0.5c-1.2,0.1-2.3-0.4-3.1-1.3
	c-0.8-1-1.1-2.2-1.1-3.4V11h2.1v6.4c0,2.1,0.9,3.1,2.7,3.1c0.8,0,1.6-0.3,2.1-1c0.5-0.7,0.8-1.5,0.8-2.4V11h2.1V22z"/>
<path class="st4" d="M171,22.4c-1.4,0-2.8-0.6-3.7-1.7c-1-1.1-1.6-2.6-1.6-4.2c0-1.5,0.5-3,1.6-4.2c0.9-1.1,2.3-1.7,3.7-1.7
	c0.8,0,1.6,0.2,2.3,0.5c0.6,0.3,1.1,0.8,1.5,1.4h0.1l-0.1-1.5V5.9h2.1V22h-2v-1.5h-0.1c-0.4,0.6-0.9,1-1.5,1.4
	C172.6,22.2,171.8,22.4,171,22.4z M171.4,20.5c0.9,0,1.9-0.4,2.5-1.1c0.7-0.8,1.1-1.8,1-2.9c0.1-1.1-0.3-2.1-1-2.9
	c-1.3-1.4-3.4-1.5-4.8-0.2c-0.1,0.1-0.2,0.1-0.2,0.2c-0.7,0.8-1.1,1.8-1,2.9c-0.1,1.1,0.3,2.1,1,2.9
	C169.5,20.1,170.4,20.5,171.4,20.5z"/>
</svg>
