<?xml version="1.0" encoding="utf-8"?>
<!-- Generator: Adobe Illustrator 27.3.1, SVG Export Plug-In . SVG Version: 6.00 Build 0)  -->
<svg version="1.1" id="Layer_1" xmlns="http://www.w3.org/2000/svg" xmlns:xlink="http://www.w3.org/1999/xlink" x="0px" y="0px"
	 viewBox="0 0 55 55" style="enable-background:new 0 0 55 55;" xml:space="preserve">
<style type="text/css">
	.st0{fill:#FEB672;}
</style>
<path class="st0" d="M27.5,0C12.3,0,0,12.3,0,27.5S12.3,55,27.5,55S55,42.7,55,27.5S42.7,0,27.5,0z M42.1,13.3
	c-0.2-0.1-0.3-0.2-0.6-0.3c-0.2-0.1-0.5-0.2-0.7-0.2c-0.3-0.1-0.5-0.2-0.7-0.3c-0.2-0.1-0.4-0.3-0.6-0.5s-0.2-0.5-0.2-0.8
	c0-0.3,0.1-0.6,0.2-0.9s0.3-0.5,0.5-0.6s0.5-0.3,0.8-0.4S41.4,9,41.7,9c0.4,0,0.7,0.1,1,0.2c0.3,0.1,0.6,0.3,0.9,0.5l-0.9,1
	c-0.1-0.1-0.3-0.2-0.5-0.3c-0.2-0.1-0.4-0.1-0.6-0.1c-0.1,0-0.2,0-0.3,0c-0.1,0-0.2,0.1-0.3,0.1s-0.2,0.1-0.2,0.2s-0.1,0.2-0.1,0.3
	c0,0.2,0.1,0.4,0.2,0.5c0.1,0.1,0.3,0.2,0.6,0.3c0.2,0.1,0.5,0.2,0.7,0.2c0.2,0.1,0.5,0.2,0.7,0.3s0.4,0.3,0.5,0.5s0.2,0.5,0.2,0.9
	c0,0.4-0.1,0.7-0.2,0.9s-0.3,0.5-0.5,0.7c-0.2,0.2-0.5,0.3-0.8,0.4c-0.3,0.1-0.6,0.1-0.9,0.1c-0.4,0-0.8-0.1-1.2-0.2
	c-0.3-0.1-0.7-0.3-1-0.6l1-1.1c0.1,0.2,0.3,0.3,0.5,0.4c0.2,0.1,0.5,0.2,0.7,0.2c0.1,0,0.2,0,0.4,0c0.1,0,0.2-0.1,0.3-0.1
	c0.1-0.1,0.2-0.1,0.2-0.2s0.1-0.2,0.1-0.3C42.3,13.6,42.2,13.4,42.1,13.3L42.1,13.3z M34.5,9.1h1.3v5.1h2.6v1.2h-4V9.1L34.5,9.1z
	 M31.6,9.1h1.3v6.4h-1.3V9.1z M26.8,9.1H28l2.8,6.4h-1.5l-0.6-1.4h-2.6l-0.5,1.4h-1.5L26.8,9.1z M18.5,9.1h2.5c0.3,0,0.6,0,0.9,0.1
	c0.3,0.1,0.5,0.2,0.8,0.3c0.2,0.1,0.4,0.4,0.5,0.6c0.1,0.2,0.2,0.6,0.2,0.9c0,0.4-0.1,0.8-0.3,1.1c-0.2,0.3-0.5,0.5-1,0.6l-0.1,0
	l1.6,2.7h-1.6l-1.3-2.6h-0.8v2.6h-1.3L18.5,9.1L18.5,9.1z M11.4,10.9c0.2-0.4,0.4-0.8,0.7-1.1s0.7-0.5,1.1-0.7S14.1,9,14.6,9
	c0.5,0,1,0.1,1.4,0.2c0.4,0.1,0.8,0.3,1.1,0.6l-1,1c-0.2-0.2-0.4-0.3-0.6-0.4c-0.2-0.1-0.6-0.2-0.9-0.2c-0.3,0-0.6,0.1-0.8,0.2
	s-0.5,0.3-0.6,0.4c-0.2,0.2-0.3,0.4-0.4,0.7c-0.1,0.3-0.1,0.5-0.1,0.8c0,0.3,0,0.6,0.1,0.8s0.2,0.5,0.4,0.7s0.4,0.3,0.6,0.4
	s0.5,0.2,0.8,0.2c0.3,0,0.5,0,0.8-0.1c0.2-0.1,0.4-0.1,0.5-0.2l0,0l0,0l0,0V13h-1.2v-1.2h2.5v3.3c-0.4,0.2-0.8,0.4-1.3,0.5
	c-0.5,0.1-0.9,0.1-1.4,0.1c-0.5,0-1-0.1-1.4-0.2c-0.4-0.1-0.8-0.4-1.1-0.7c-0.3-0.3-0.6-0.7-0.7-1.1c-0.2-0.4-0.3-0.9-0.3-1.4
	S11.2,11.4,11.4,10.9L11.4,10.9z M20.2,32.8c-0.4,0.2-0.9,0.4-1.1,0.5c-0.4,0.2-1,0.6-1.3,1.2c-0.2,0.4-0.5,0.9-0.5,1.2
	c0,0.2-0.1,0.5-0.1,0.9c0,0.8,0.2,2,0.4,2.8c0.3,0.9,0.5,1.2,0.9,2.1l0.4,0.9c0,0.1,0,0.2,0,0.2c-0.1,0.2-0.3,0.5-0.7,0.7
	c-0.7,0.4-2,0.5-2.7,0.5h0c-0.7,0-2.1-0.1-2.7-0.5c-0.3-0.2-0.5-0.4-0.7-0.7c0-0.1,0-0.1,0-0.2l0.4-0.9c0.4-0.9,0.6-1.2,0.9-2.1
	c0.3-0.8,0.4-1.9,0.4-2.8c0-0.4,0-0.7-0.1-0.9c-0.1-0.3-0.3-0.8-0.5-1.2c-0.3-0.5-0.9-1-1.3-1.2c-0.3-0.2-1.2-0.5-1.5-0.7
	c-0.5-0.3-1-0.6-1.4-1c-0.6-0.5-1.1-1-1.6-1.6c-0.7-0.8-1.2-1.8-1.5-2.8c-0.4-1.3-0.3-1.8-0.4-2.2c0-0.1,0-0.1,0.1-0.1
	c0.3,0,1.6,0,6,0c0.1,0,0.2,0.1,0.2,0.1c1.2,3.3,4.4,6,8.7,7.4C20.4,32.5,20.4,32.8,20.2,32.8L20.2,32.8z M31,42.1
	c0.5,1.4,0.8,1.9,1.5,3.4L33,47c0.1,0.1,0,0.2,0,0.3c-0.3,0.4-0.7,0.8-1.2,1.1c-1.1,0.6-3.3,0.8-4.4,0.8h0c-1.1,0-3.4-0.2-4.4-0.8
	c-0.5-0.3-0.9-0.6-1.1-1.1c-0.1-0.1-0.1-0.2,0-0.3l0.6-1.5c0.6-1.5,0.9-1.9,1.5-3.4c0.5-1.3,0.7-3.1,0.7-4.5c0-0.6,0-1.1-0.1-1.4
	c-0.1-0.5-0.5-1.4-0.9-2c-0.5-0.8-1.5-1.5-2.1-1.9c-0.5-0.2-1.9-0.8-2.5-1.1c-0.7-0.4-1.7-1-2.3-1.5C16,29.1,14.6,27.7,14,27
	c-1.1-1.3-2-2.8-2.5-4.5c-0.6-2.1-0.6-2.9-0.6-3.6c0-0.1,0.1-0.2,0.2-0.2c0.7,0,3.8-0.1,16.4-0.1l16.4,0.1c0.1,0,0.2,0.1,0.2,0.2
	c-0.1,0.7-0.1,1.5-0.6,3.6c-0.5,1.7-1.4,3.2-2.5,4.5c-0.6,0.7-2,2.1-2.7,2.6c-0.7,0.6-1.5,1.1-2.3,1.5c-0.6,0.3-2,0.9-2.5,1.1
	c-0.6,0.3-1.6,1-2.1,1.9c-0.4,0.6-0.8,1.4-0.9,2c-0.1,0.3-0.1,0.8-0.1,1.4C30.3,39,30.5,40.9,31,42.1L31,42.1z M47.9,30.1
	c-0.5,0.6-1.1,1.1-1.6,1.6c-0.4,0.3-1,0.7-1.4,1c-0.4,0.2-1.3,0.5-1.5,0.7c-0.4,0.2-1,0.6-1.3,1.2c-0.2,0.4-0.5,0.9-0.5,1.2
	c0,0.2-0.1,0.5-0.1,0.9c0,0.8,0.2,2,0.4,2.8c0.3,0.9,0.5,1.2,0.9,2.1l0.4,0.9c0,0.1,0,0.2,0,0.2c-0.1,0.2-0.3,0.5-0.7,0.7
	c-0.7,0.4-2,0.5-2.7,0.5h0c-0.7,0-2.1-0.1-2.7-0.5c-0.4-0.2-0.6-0.5-0.7-0.7c0-0.1-0.1-0.1,0-0.2l0.4-0.9c0.4-0.9,0.6-1.2,0.9-2.1
	c0.3-0.8,0.4-1.9,0.4-2.8c0-0.4,0-0.7-0.1-0.9c-0.1-0.3-0.3-0.8-0.5-1.2c-0.3-0.5-0.9-1-1.3-1.2c-0.2-0.1-0.7-0.3-1.1-0.5
	c-0.2-0.1-0.2-0.3,0-0.4c4.2-1.5,7.4-4.2,8.6-7.4c0-0.1,0.1-0.1,0.2-0.1l6,0c0.1,0,0.1,0.1,0.1,0.1c0,0.4,0,1-0.4,2.2
	C49.1,28.3,48.5,29.3,47.9,30.1L47.9,30.1z M21.9,11.1c0,0.2,0,0.3-0.1,0.4s-0.2,0.2-0.3,0.2s-0.3,0.1-0.4,0.1c-0.1,0-0.3,0-0.4,0
	h-0.9v-1.5h1c0.1,0,0.3,0,0.4,0c0.1,0,0.3,0.1,0.4,0.1c0.1,0.1,0.2,0.1,0.3,0.2C21.9,10.8,21.9,10.9,21.9,11.1L21.9,11.1z
	 M27.4,10.9l0.8,2.1h-1.7L27.4,10.9z"/>
</svg>
