<?xml version="1.0" encoding="utf-8"?>
<!-- Generator: Adobe Illustrator 16.0.3, SVG Export Plug-In . SVG Version: 6.00 Build 0)  -->
<!DOCTYPE svg PUBLIC "-//W3C//DTD SVG 1.1//EN" "http://www.w3.org/Graphics/SVG/1.1/DTD/svg11.dtd">
<svg version="1.1" id="Layer_1" xmlns="http://www.w3.org/2000/svg" xmlns:xlink="http://www.w3.org/1999/xlink" x="0px" y="0px"
	 width="291.162px" height="81.744px" viewBox="4.496 109.128 291.162 81.744"
	 enable-background="new 4.496 109.128 291.162 81.744" xml:space="preserve">
<circle fill="#E10098" cx="11.779" cy="133.202" r="7.283"/>
<circle fill="#E10098" cx="11.779" cy="166.794" r="7.284"/>
<circle fill="#E10098" cx="40.872" cy="183.588" r="7.284"/>
<circle fill="#E10098" cx="69.96" cy="166.794" r="7.284"/>
<circle fill="#E10098" cx="69.96" cy="133.206" r="7.283"/>
<circle fill="#E10098" cx="40.872" cy="116.411" r="7.283"/>
<path fill="#E10098" d="M113.522,167.678c-4.257,0-7.562-1.227-9.912-3.68c-2.35-2.451-3.593-5.738-3.729-9.859
	c-0.035-1.021-0.052-2.641-0.052-4.854c0-2.214,0.017-3.832,0.052-4.854c0.136-4.121,1.379-7.408,3.729-9.86
	s5.654-3.678,9.912-3.678c2.895,0,5.331,0.545,7.306,1.635c1.975,1.09,3.44,2.384,4.394,3.883c0.988,1.464,1.516,2.776,1.583,3.934
	v0.103c0,0.272-0.102,0.494-0.307,0.664c-0.204,0.17-0.459,0.255-0.767,0.255h-1.123c-0.307,0-0.528-0.068-0.665-0.204
	c-0.137-0.136-0.272-0.409-0.409-0.818c-0.579-1.805-1.703-3.321-3.372-4.547c-1.635-1.226-3.849-1.839-6.642-1.839
	c-3.168,0-5.671,0.868-7.51,2.605c-1.806,1.737-2.776,4.445-2.913,8.123c-0.035,1.022-0.051,2.555-0.051,4.598
	s0.016,3.577,0.051,4.598c0.136,3.679,1.106,6.387,2.913,8.123c1.839,1.737,4.342,2.605,7.51,2.605c3.167,0,5.722-0.902,7.663-2.707
	c1.942-1.806,2.912-4.479,2.912-8.021v-2.605h-8.889c-0.341,0-0.613-0.103-0.817-0.307c-0.204-0.238-0.307-0.528-0.307-0.869v-0.715
	c0-0.34,0.103-0.613,0.307-0.817c0.205-0.238,0.477-0.357,0.817-0.357h10.933c0.375,0,0.665,0.102,0.869,0.307
	c0.204,0.204,0.306,0.494,0.306,0.868v4.496c0,2.725-0.545,5.126-1.635,7.203c-1.089,2.078-2.674,3.696-4.751,4.854
	C118.853,167.098,116.383,167.678,113.522,167.678z"/>
<path fill="#E10098" d="M135.646,167.166c-0.34,0-0.613-0.102-0.817-0.307c-0.204-0.204-0.307-0.477-0.307-0.817v-24.268
	c0-0.34,0.103-0.613,0.307-0.817c0.205-0.238,0.478-0.357,0.817-0.357h0.817c0.341,0,0.613,0.119,0.817,0.357
	c0.239,0.205,0.358,0.477,0.358,0.817v2.35c1.226-2.35,3.542-3.525,6.948-3.525h1.89c0.341,0,0.613,0.102,0.817,0.306
	c0.205,0.205,0.307,0.477,0.307,0.818v0.715c0,0.341-0.102,0.613-0.307,0.817c-0.204,0.205-0.477,0.307-0.817,0.307h-2.196
	c-2.043,0-3.661,0.596-4.854,1.788c-1.192,1.192-1.788,2.81-1.788,4.854v15.838c0,0.341-0.12,0.613-0.358,0.817
	c-0.204,0.205-0.477,0.307-0.817,0.307H135.646z"/>
<path fill="#E10098" d="M159.039,167.678c-1.636,0-3.152-0.342-4.548-1.022c-1.396-0.681-2.521-1.601-3.372-2.759
	c-0.817-1.158-1.226-2.436-1.226-3.832c0-2.248,0.902-4.087,2.708-5.518c1.839-1.43,4.308-2.35,7.407-2.759l8.072-1.124v-1.788
	c0-1.873-0.579-3.304-1.737-4.292c-1.124-1.022-2.861-1.533-5.211-1.533c-1.737,0-3.168,0.341-4.291,1.022
	c-1.09,0.681-1.789,1.499-2.095,2.452c-0.137,0.409-0.307,0.698-0.511,0.869c-0.172,0.136-0.409,0.204-0.716,0.204h-0.715
	c-0.307,0-0.579-0.102-0.817-0.307c-0.205-0.238-0.307-0.511-0.307-0.817c0-0.749,0.34-1.618,1.021-2.605
	c0.682-1.021,1.737-1.907,3.168-2.657c1.43-0.749,3.184-1.124,5.262-1.124c3.645,0,6.232,0.869,7.766,2.606
	c1.533,1.737,2.299,3.849,2.299,6.335v17.013c0,0.341-0.102,0.613-0.307,0.817c-0.203,0.205-0.477,0.307-0.816,0.307h-0.869
	c-0.341,0-0.613-0.102-0.817-0.307c-0.204-0.204-0.307-0.477-0.307-0.817v-2.401c-0.749,1.125-1.856,2.078-3.32,2.861
	C163.33,167.285,161.422,167.678,159.039,167.678z M159.549,164.714c2.486,0,4.529-0.817,6.131-2.452s2.401-3.985,2.401-7.051
	v-1.736l-6.591,0.919c-2.793,0.375-4.904,1.022-6.334,1.941c-1.432,0.92-2.146,2.077-2.146,3.474c0,1.567,0.646,2.776,1.941,3.628
	C156.279,164.288,157.813,164.714,159.549,164.714z"/>
<path fill="#E10098" d="M180.451,176.873c-0.34,0-0.613-0.102-0.817-0.307c-0.204-0.204-0.307-0.477-0.307-0.816v-34.026
	c0-0.341,0.103-0.613,0.307-0.818c0.204-0.204,0.478-0.306,0.817-0.306h0.869c0.341,0,0.613,0.102,0.817,0.306
	c0.204,0.205,0.307,0.477,0.307,0.818v2.401c1.976-2.69,4.837-4.036,8.583-4.036c3.678,0,6.386,1.175,8.123,3.525
	c1.771,2.316,2.708,5.177,2.811,8.583c0.033,0.34,0.051,0.902,0.051,1.686s-0.018,1.346-0.051,1.686
	c-0.103,3.406-1.039,6.285-2.811,8.635c-1.737,2.316-4.445,3.475-8.123,3.475c-3.713,0-6.574-1.346-8.583-4.037v12.109
	c0,0.34-0.103,0.612-0.307,0.816c-0.204,0.205-0.477,0.307-0.817,0.307H180.451z M190.721,164.714c2.759,0,4.768-0.868,6.029-2.605
	c1.293-1.771,1.991-4.036,2.094-6.795c0.034-0.341,0.051-0.817,0.051-1.431c0-3.168-0.612-5.756-1.839-7.766
	c-1.226-2.043-3.337-3.065-6.335-3.065c-2.691,0-4.717,0.903-6.08,2.708c-1.361,1.771-2.094,3.866-2.196,6.283l-0.052,1.993
	l0.052,1.993c0.034,1.464,0.356,2.86,0.97,4.188c0.613,1.294,1.533,2.367,2.76,3.219
	C187.399,164.288,188.916,164.714,190.721,164.714z"/>
<path fill="#E10098" d="M210.137,167.166c-0.34,0-0.612-0.102-0.816-0.307c-0.205-0.204-0.307-0.477-0.307-0.817v-34.026
	c0-0.34,0.102-0.613,0.307-0.817c0.204-0.204,0.477-0.306,0.816-0.306h0.869c0.342,0,0.613,0.102,0.818,0.306
	c0.204,0.205,0.307,0.477,0.307,0.817v12.108c1.021-1.328,2.18-2.333,3.474-3.014c1.328-0.681,3.03-1.022,5.108-1.022
	c3.338,0,5.91,1.073,7.715,3.219c1.806,2.112,2.708,4.854,2.708,8.226v14.509c0,0.341-0.103,0.613-0.307,0.817
	c-0.204,0.205-0.477,0.307-0.817,0.307h-0.869c-0.34,0-0.613-0.102-0.817-0.307c-0.204-0.204-0.307-0.477-0.307-0.817v-14.254
	c0-2.759-0.681-4.905-2.044-6.438c-1.328-1.532-3.252-2.299-5.771-2.299c-2.453,0-4.412,0.783-5.877,2.35
	c-1.463,1.533-2.195,3.662-2.195,6.386v14.254c0,0.341-0.103,0.613-0.307,0.817c-0.205,0.205-0.477,0.307-0.818,0.307H210.137z"/>
<path fill="#E10098" d="M262.955,170.487c-0.511,0-1.056-0.392-1.635-1.175l-2.248-3.117c-2.043,0.988-4.428,1.482-7.152,1.482
	c-8.753,0-13.249-4.701-13.488-14.102c-0.033-1.021-0.051-2.452-0.051-4.292s0.018-3.27,0.051-4.292
	c0.137-4.632,1.396-8.14,3.781-10.524s5.619-3.576,9.707-3.576s7.322,1.192,9.707,3.576s3.645,5.892,3.781,10.524
	c0.067,2.043,0.102,3.474,0.102,4.292s-0.034,2.249-0.102,4.292c-0.17,4.871-1.414,8.447-3.729,10.729l3.27,4.599
	c0.103,0.204,0.153,0.392,0.153,0.562c0,0.273-0.103,0.512-0.307,0.716c-0.205,0.204-0.443,0.307-0.716,0.307H262.955z
	 M251.92,164.611c3.065,0,5.5-0.92,7.307-2.758c1.839-1.874,2.826-4.718,2.963-8.533c0.068-2.043,0.102-3.389,0.102-4.036
	s-0.033-1.993-0.102-4.036c-0.137-3.814-1.124-6.642-2.963-8.481c-1.84-1.873-4.275-2.81-7.307-2.81s-5.467,0.937-7.306,2.81
	c-1.839,1.839-2.827,4.667-2.963,8.481c-0.034,1.022-0.052,2.367-0.052,4.036c0,1.668,0.018,3.014,0.052,4.036
	c0.136,3.815,1.106,6.659,2.911,8.533C246.402,163.691,248.854,164.611,251.92,164.611z"/>
<path fill="#E10098" d="M274.762,167.166c-0.34,0-0.612-0.102-0.816-0.307c-0.205-0.204-0.307-0.477-0.307-0.817v-33.515
	c0-0.341,0.102-0.613,0.307-0.817c0.204-0.205,0.477-0.307,0.816-0.307h0.972c0.341,0,0.613,0.102,0.817,0.307
	c0.205,0.204,0.307,0.477,0.307,0.817v31.573h17.625c0.376,0,0.665,0.103,0.869,0.307c0.205,0.204,0.307,0.494,0.307,0.868v0.767
	c0,0.341-0.119,0.613-0.357,0.817c-0.205,0.205-0.477,0.307-0.818,0.307H274.762z"/>
<path fill="#E10098" d="M40.872,114.415l30.817,17.792v35.585l-30.817,17.792l-30.817-17.792v-35.585L40.872,114.415z
	 M45.595,121.135l22.636,39.207v-26.138L45.595,121.135z M13.512,134.204v26.138l22.636-39.207L13.512,134.204z M40.872,119.869
	l-26.094,45.196h52.188L40.872,119.869z M63.508,168.523H18.236l22.636,13.068L63.508,168.523z"/>
</svg>
