<?xml version="1.0" encoding="utf-8"?>
<!-- Generator: Adobe Illustrator 16.0.3, SVG Export Plug-In . SVG Version: 6.00 Build 0)  -->
<!DOCTYPE svg PUBLIC "-//W3C//DTD SVG 1.1//EN" "http://www.w3.org/Graphics/SVG/1.1/DTD/svg11.dtd">
<svg version="1.1" id="Layer_1" xmlns="http://www.w3.org/2000/svg" xmlns:xlink="http://www.w3.org/1999/xlink" x="0px" y="0px"
	 width="66.177px" height="47.375px" viewBox="26.912 6.308 66.177 47.375" enable-background="new 26.912 6.308 66.177 47.375"
	 xml:space="preserve">
<g transform="translate(0 .139)">
	<path fill="#191919" d="M33.84,48.179v-2.6h7.67v0.912c0,3.963-2.953,7.053-7.085,7.053c-4.355,0-7.513-3.181-7.513-7.24
		c0-4.076,3.178-7.24,7.396-7.24c2.878,0,5.286,1.375,6.58,3.611l0.074,0.131l-2.638,1.56l-0.078-0.14
		c-0.855-1.535-2.15-2.303-3.92-2.303c-2.466,0-4.424,1.963-4.424,4.385c0,2.486,1.927,4.385,4.52,4.385
		c1.87,0,3.26-0.9,3.806-2.516L33.84,48.179z M48.582,43.55c-0.261-0.067-0.53-0.1-0.8-0.098c-0.8,0-2.063,0.313-2.585,1.405V43.55
		h-2.945v9.697h3.045v-4.234c0-1.933,1.102-2.635,2.324-2.635c0.323-0.004,0.646,0.029,0.961,0.098V43.55z M51.862,47.238h3.987
		c-0.04-0.74-0.56-1.641-2.004-1.641C52.563,45.597,51.921,46.515,51.862,47.238z M56.058,49.756l2.545,0.703
		c-0.48,1.678-2.063,3.082-4.588,3.082c-2.745,0-5.2-1.912-5.2-5.17c0-3.121,2.384-5.113,4.97-5.113c3.085,0,5,1.854,5,4.977
		c0,0.4-0.04,0.857-0.06,0.917H51.8c0.06,1.092,1.082,1.873,2.264,1.873c1.102,0,1.723-0.507,2.004-1.269H56.058z M62.516,53.248
		v-5.58c0-0.877,0.58-1.678,1.643-1.678c1.102,0,1.604,0.723,1.604,1.641v5.619h3.004v-5.6c0-0.857,0.58-1.66,1.664-1.66
		c1.082,0,1.582,0.723,1.582,1.641v5.619h2.945v-6.283c0-2.633-1.803-3.707-3.688-3.707c-1.342,0-2.304,0.43-3.084,1.521
		c-0.5-0.956-1.522-1.521-2.945-1.521c-1.082,0-2.364,0.547-2.865,1.404V43.55H59.47v9.697H62.516z M78.95,53.248V39.12h-3.046
		v14.128H78.95z M82.863,53.248V43.55H79.82v9.697h3.045H82.863z M79.6,40.584c0,0.957,0.801,1.737,1.764,1.737
		c1.002,0,1.803-0.78,1.803-1.737s-0.8-1.736-1.803-1.736C80.4,38.847,79.6,39.627,79.6,40.584z M86.777,47.687
		c0-0.977,0.641-1.698,1.644-1.698c1.103,0,1.623,0.722,1.623,1.679v5.579h3.045V47.16c0-2.127-1.122-3.863-3.626-3.863
		c-1.021,0-2.244,0.449-2.785,1.365V43.55H83.73v9.697h3.045L86.777,47.687z"/>
	<g transform="matrix(.406654 0 0 .406654 19.182712 45.188481)">
		
			<linearGradient id="SVGID_1_" gradientUnits="userSpaceOnUse" x1="1464.1304" y1="-1641.8765" x2="1464.1304" y2="-1713.3901" gradientTransform="matrix(0.4067 0 0 -0.4067 -495.0249 -763.6269)">
			<stop  offset="0" style="stop-color:#A5FFAF"/>
			<stop  offset="1" style="stop-color:#64E178"/>
		</linearGradient>
		<path fill="url(#SVGID_1_)" d="M167.739-95.952c-17.262,12.085-28.981,9.401-33.875,11.885c-2.517,1.276-3.871,3.35-4.594,5.068
			c-4.873-7.483-13.559-12.27-27.619-12.27l-0.371,0.005l-0.37-0.005l-0.537,0.006l-0.537-0.006l-0.37,0.005l-0.37-0.005
			c-14.061,0-22.747,4.789-27.62,12.27c-0.724-1.716-2.08-3.8-4.593-5.067c-4.897-2.484-16.613,0.201-33.877-11.885
			c0,0-0.178,2.5,1.198,6.232s6.434,11.501,7.451,20.785c0.132,1.216,0.354,2.565,0.682,3.97l3.42,0.286l-2.567,2.73
			c1.188,3.54,3.092,7.132,6.007,9.74l5.97-3.153l-2.193,5.642c3.449,1.584,7.856,2,13.457,0.4c-0.3,1.06-0.567,2.297-0.597,3.524
			c-0.092,3.72-1.865,11.9,19.819,15.467c0,0,3.172,0.696,4.527,3.953c0,0,0.321,1.828,10.048,1.936v0.002h0.036l0.1-0.002h0.145
			l0,0c9.727-0.106,10.046-1.933,10.046-1.933c1.354-3.256,4.529-3.955,4.529-3.955c21.68-3.564,19.898-11.744,19.817-15.464
			c-0.029-1.228-0.288-2.463-0.596-3.524c2.858,0.816,5.408,1.1,7.675,0.992l-0.317-4.12l2.257,3.9l0.048-0.01l0.024-3.326
			l2.156,2.8c3.869-1.254,6.671-3.902,8.669-7.035l-3.631-3.95l5.283,0.878c1.172-2.597,1.907-5.312,2.325-7.725l-3.919-1.484
			l4.176-0.27c0-0.01,0.002-0.022,0.002-0.032l-2.668-1.451l2.903-0.324c1.369-8.596,5.944-15.722,7.243-19.234
			c1.374-3.72,1.196-6.232,1.196-6.232"/>
		
			<linearGradient id="SVGID_2_" gradientUnits="userSpaceOnUse" x1="1464.1448" y1="-1759.04" x2="1464.1448" y2="-1711.394" gradientTransform="matrix(0.4067 0 0 -0.4067 -495.0249 -763.6269)">
			<stop  offset="0" style="stop-color:#23C386"/>
			<stop  offset="1" style="stop-color:#139E83"/>
		</linearGradient>
		<path fill="url(#SVGID_2_)" d="M167.725-95.941l0.014-0.011c0,0,0.178,2.5-1.196,6.232c-1.299,3.512-5.876,10.641-7.243,19.236
			l-2.906,0.324l2.67,1.449l-0.005,0.032l-4.174,0.27l3.919,1.484c-0.418,2.415-1.153,5.131-2.325,7.727l-5.283-0.88l3.631,3.95
			c-1.998,3.134-4.801,5.783-8.669,7.036l-2.157-2.8l-0.022,3.326l-0.05,0.01l-2.255-3.9l0.315,4.12
			c-2.257,0.116-4.796-0.174-7.641-0.983c-1.201-2.668-2.2-5.773-2.358-7.149c-1.169-9.577-0.199-12.334-0.199-12.334
			c2.176-7.7,21.764-11.146,28.416-16.778c4.668-3.954,6.714-8.2,7.519-10.361H167.725z M67.985-53.442
			c-0.624,1.493-0.379,1.467-1.58,4.122c-5.588,1.599-9.986,1.184-13.43-0.399l2.193-5.643l-5.97,3.153
			c-2.915-2.608-4.82-6.199-6.007-9.739l2.567-2.73l-3.42-0.286c-0.306-1.309-0.534-2.636-0.682-3.971
			c-1.017-9.285-6.076-17.065-7.451-20.786c-1.375-3.72-1.198-6.232-1.198-6.232l0.023,0.016c1.028,2.639,2.496,5.086,4.343,7.234
			c3.044,3.468,5.683,5.114,8.546,6.34l9.955,4.137c1.613,0.594,8.02,3.4,10.258,5.516s3.124,3.14,3.205,6.971
			c0.082,3.833-0.303,6.436-0.343,7.24C68.953-57.693,68.609-54.937,67.985-53.442z"/>
		<path fill="#308B6F" d="M110.568-60.612l12.524-4.3c0.85-0.329,1.715-0.624,2.589-0.886l0.062-0.022l0.005,0.002
			c0.949-0.276,1.928-0.493,2.565-0.459c1.604,0.1,1.844,1.754,1.844,1.754s-1.225-1.078-3.713,0.046
			c0.3,0.956,0.267,2.05,0.024,3.2c-0.874,4.152-4.284,7.677-9.572,7.677c-3.823,0-7.118-1.799-8.655-4.396
			c-1.813-0.201-4.27-0.417-3.838-0.544c0.427-0.127,4.099-1.368,6.165-2.072V-60.612z"/>
		<path fill="#C42649" d="M126.22-62.918c0,0-0.6-1.07-2.577-0.594c-1.974,0.475-15,5.101-15,5.101s2.07,4.793,9.15,4.318
			c7.399-0.496,8.977-8.082,8.417-8.835"/>
		<path fill="#308B6F" d="M99.988-36.361C83-36.854,75.162-44.331,73.96-45.585c-0.207-0.058-0.406-0.136-0.596-0.235
			c-1.012-0.537-1.625-1.255-1.818-2.134c-0.327-1.5,0.7-2.853,0.755-2.9l0.264-0.366c-0.008,0.011-0.598,1.952-0.363,3.001
			c0.132,0.593,0.869,1.165,1.62,1.563c1.267,0.672,4.6,0.223,8.821-0.347c4.764-0.642,11.194-1.5,18.234-1.25
			c7.041-0.259,13.47,0.608,18.234,1.25c4.219,0.57,7.553,1.021,8.821,0.347c0.749-0.4,1.489-0.97,1.619-1.563
			c0.235-1.059-0.355-2.999-0.363-2.999l0.264,0.366c0.046,0.056,1.083,1.42,0.756,2.9c-0.195,0.88-0.807,1.597-1.818,2.134
			c-0.19,0.1-0.391,0.179-0.598,0.237c-1.198,1.255-9.049,8.729-26.027,9.226v0.024c-0.295,0-0.592,0-0.889-0.005l-0.899,0.005
			v-0.024L99.988-36.361z"/>
		<path fill="#FFFFFE" d="M99.405-37.351c-1.568-0.109-3.132-0.279-4.688-0.507c-0.222-0.221-0.647-0.718-0.568-1.204
			c0.106-0.654,1.27-2.7,1.27-2.7l0.012-0.05l1.963-3.249l1.914,3.868c0.464,1.105,1.214,3.306,0.096,3.833V-37.351z M92.853-38.15
			c-1.817-0.319-3.615-0.736-5.389-1.246c-0.1-0.349-0.245-1.345,0.639-3.414l0.106-0.247l1.082-2.208l2.227,3.345
			c0.64,1.049,1.793,3.129,1.335,3.769V-38.15z M85.717-39.945c-1.527-0.509-3.014-1.127-4.451-1.85
			c-0.208-0.764,0.453-1.984,0.886-2.67l-1.539,2.308l1.886-2.842l1.985,2.493c0.4,0.587,1.245,1.87,1.233,2.543V-39.945z
			 M77.233-45.544c1.375-0.083,2.746-0.22,4.11-0.413c0.1,0.874-0.907,2.686-1.276,3.308l-0.085,0.128
			c-1.244-0.652-2.218-1.723-2.75-3.023H77.233z M82.507-46.139l5.803-0.645c0.34,0.586-0.444,2.627-0.868,3.636l-0.97,1.981
			l0.002,0.004H86.47L82.507-46.139z M90.628-46.971l5.665-0.295c0.8,0.68-0.101,2.704-0.467,3.415l-2.245,3.715l-1.413-2.122
			C91.368-43.514,89.864-46.158,90.628-46.971L90.628-46.971z M98.929-47.301l1.772,0.036c0.591-0.022,1.183-0.034,1.776-0.036
			c0.219,0.232,0.449,0.544,0.533,0.904c0.183,0.773-0.706,3.15-0.706,3.15v0.006L100.702-40l-1.601-3.234v-0.013
			c0,0-0.886-2.377-0.705-3.15c0.085-0.36,0.313-0.672,0.534-0.904L98.929-47.301z M105.114-47.268l5.663,0.297
			c0.749,0.784-0.675,3.328-1.479,4.618l-1.474,2.215l-2.224-3.678C105.26-44.488,104.3-46.575,105.114-47.268z M113.096-46.785
			l4.656,0.5c0.262,1.219-2.819,5.131-2.819,5.131l-0.946-1.931c-0.418-1-1.237-3.092-0.901-3.699H113.096z M120.063-45.958
			l4.099,0.413c-0.531,1.3-1.503,2.371-2.75,3.023l-0.05-0.074c-0.336-0.566-1.419-2.46-1.299-3.361V-45.958z M120.142-41.809
			c-1.436,0.724-2.925,1.342-4.452,1.852c-0.01-0.7,0.86-2.014,1.261-2.579l1.955-2.457l0.401,0.603
			C119.739-43.693,120.339-42.543,120.142-41.809z M113.942-39.409c-1.854,0.54-3.693,0.945-5.398,1.246
			c-0.466-0.656,0.747-2.8,1.378-3.838l2.181-3.277l1.1,2.26l0.082,0.195c0.884,2.065,0.749,3.062,0.639,3.414H113.942z
			 M106.694-37.859l-4.702,0.508c-1.133-0.538-0.341-2.8,0.12-3.884l1.897-3.817l1.972,3.26l0.01,0.04c0,0,1.165,2.036,1.27,2.7
			c0.077,0.488-0.346,0.982-0.567,1.203V-37.859z"/>
		<path fill="#46A093" d="M99.64-85.583c1.004,0.634-0.788,1.268-3.725,1.759c-2.937,0.492-6.306-0.915-6.306-1.759
			c0-0.845,4.084-2.326,5.876-2.536c1.792-0.211,4.156,2.536,4.156,2.536H99.64z M108.971-87.629c1.035,0.145,1.626,0.8,1.033,1.3
			c-0.591,0.5-2.44,1.308-4.582,0.872c-2.145-0.436-2.887-1.527-1.924-2.181c0.963-0.653,5.473,0,5.473,0V-87.629z M105.369-83.579
			c2.742-0.161,0.567,2.852-1.047,2.93c-1.614,0.078-3.548-0.238-3.225-1.267c0.323-1.03,4.272-1.664,4.272-1.664V-83.579z
			 M97.226-81.216c0.83,1.141-2.386,0.815-2.842,0.381c-0.457-0.435-0.126-1.097,0.628-1.303
			C95.766-82.344,97.226-81.216,97.226-81.216z M116.727-85.207c0.874,0.379-0.202,0.73-0.92,0.616
			c-0.716-0.114-3.485-0.916-2.358-1.3c1.126-0.384,3.278,0.683,3.278,0.683V-85.207z M85.438-85.145
			c0.525-0.04,1.693-0.197,1.007,0.357c-0.686,0.554-2.458,1.742-3.306,1.742c-0.847,0-0.684-0.752,0.041-1.346
			C83.905-84.987,85.438-85.145,85.438-85.145z"/>
		<path fill="#308B6F" d="M107.174-57.124c0,0,0.937,6.16,12.18,6.22C119.355-50.905,109.984-51.587,107.174-57.124 M94.073-57.124
			c0,0-0.938,6.16-12.183,6.22C81.891-50.905,91.261-51.587,94.073-57.124"/>
		<path fill="#F6305C" d="M119.82-61.5c0,0-8.405,2.02-8.103,3.506c0.303,1.485,2.963,2.734,5.502,2.2
			c2.538-0.534,4.099-3.328,4.594-4.161c0.495-0.832,0.668-2.496-1.993-1.544"/>
		<path fill="#FFFFFE" d="M114.619-59.908c0,0-2.718,0.654-2.781,1.843c-0.062,1.19,4.001-1.366,5.019-1.783
			C117.875-60.263,116.915-60.678,114.619-59.908"/>
		<path fill="#308B6F" d="M93.015-57.996c-1.535,2.598-4.831,4.396-8.655,4.396c-5.287,0-8.699-3.525-9.573-7.676
			c-0.24-1.141-0.264-2.233,0.025-3.201C72.324-65.6,71.1-64.522,71.1-64.522s0.243-1.665,1.844-1.754
			c0.636-0.035,1.617,0.184,2.567,0.459l0.001-0.002l0.065,0.022c1.126,0.33,2.197,0.735,2.6,0.887l12.522,4.3l6.166,2.072
			c0.43,0.127-2.024,0.343-3.84,0.544L93.015-57.996z"/>
		<path fill="#C42649" d="M75.037-62.918c0,0,0.6-1.07,2.576-0.594c1.974,0.475,15,5.101,15,5.101s-2.068,4.793-9.15,4.318
			c-7.398-0.496-8.974-8.082-8.416-8.835"/>
		<path fill="#F6305C" d="M81.438-61.5c0,0,8.404,2.02,8.103,3.506c-0.303,1.485-2.963,2.734-5.503,2.2
			c-2.538-0.534-4.099-3.328-4.595-4.161c-0.495-0.832-0.664-2.496,1.996-1.544"/>
		<path fill="#FFFFFE" d="M86.638-59.908c0,0,2.72,0.654,2.78,1.843c0.06,1.19-4-1.366-5.017-1.783
			C83.384-60.263,84.341-60.678,86.638-59.908"/>
		<path fill="#83E883" d="M75.644-57.4l11.999,3.763C87.643-53.637,81.438-51.062,75.644-57.4"/>
		<path fill="#82E782" d="M125.865-57.4l-12,3.763C113.865-53.637,120.07-51.062,125.865-57.4"/>
	</g>
</g>
</svg>
