<?xml version="1.0" encoding="utf-8"?>
<!-- Generator: Adobe Illustrator 27.3.1, SVG Export Plug-In . SVG Version: 6.00 Build 0)  -->
<svg version="1.1" id="Layer_1" xmlns="http://www.w3.org/2000/svg" xmlns:xlink="http://www.w3.org/1999/xlink" x="0px" y="0px"
	 viewBox="0 0 206.5 58.8" style="enable-background:new 0 0 206.5 58.8;" xml:space="preserve">
<style type="text/css">
	.st0{fill:#169BD6;}
	.st1{fill:#256EA5;}
	.st2{fill:#24405D;}
	.st3{fill:none;stroke:#284A6A;stroke-width:0.26;stroke-miterlimit:10;}
	.st4{fill:none;stroke:#284A6A;stroke-width:0.13;stroke-miterlimit:10;}
	.st5{fill:none;stroke:#24405D;stroke-width:0.101;stroke-miterlimit:10;}
	.st6{fill:#3378BC;}
	.st7{fill:#00A8DA;}
</style>
<path class="st0" d="M81.4,39v-7.8H72V39h-3.7V19.8H72v8.1h9.4v-8.1H85V39L81.4,39z"/>
<path class="st1" d="M103.3,35.3h-10l-1.6,3.6h-3.9l8.6-19.2h4l8.6,19.2h-4L103.3,35.3z M98.3,23.8L94.7,32h7.1L98.3,23.8z"/>
<path class="st2" d="M120.8,33.3h-5.4v5.6h-3.6V19.8h9C130.1,19.7,130.1,33.3,120.8,33.3L120.8,33.3z M115.3,30h5.4
	c4.7,0,4.6-6.8,0-6.8h-5.4V30z M147.7,38.9h-4.3l-5.6-6.4h-3.5v6.4h-3.6V19.7h9.1c4.5,0.1,6.9,3,6.9,6.4s-1.2,5.3-4.9,6l5.8,6.5
	L147.7,38.9z M134.4,23.1v6.2h5.5c2.3,0,3.3-1.6,3.3-3.1c0-1.6-1-3.1-3.3-3.1H134.4z M168.5,29.5c-0.1,5-3.1,9.9-9.8,9.9
	s-9.9-4.9-9.9-9.9s3.3-10.1,9.9-10.1S168.5,24.4,168.5,29.5L168.5,29.5z M152.4,29.6c0.1,3.2,1.8,6.5,6.3,6.5c4.5,0,6.2-3.4,6.3-6.6
	c0.1-3.2-1.8-6.8-6.3-6.8C154.1,22.7,152.3,26.3,152.4,29.6z M182,19.8h4v0.2l-6.5,9.3l6.7,9.6v0.1h-4l-4.9-7.2l-4.9,7.2h-4v-0.1
	l6.7-9.6l-6.5-9.3v-0.2h4l4.8,7.1L182,19.8z M197.1,27.7l5.1-7.9h4.4v0.2L198.9,31v7.9h-3.6V31l-7.4-11.1v-0.2h4.3L197.1,27.7z"/>
<g>
	<g>
		<path class="st3" d="M29.2,21.8l-6.1-6.9"/>
		<path class="st4" d="M9.9,16.5l4.8,7"/>
		<g>
			<path class="st3" d="M29.2,21.8l6-7 M36.5,29.5l7.2-6 M36.5,29.5l7.2,6.3 M35.3,43.8L29.2,37 M23.1,43.8l6.1-6.8 M14.7,35.5
				l6.9-6 M14.7,23.4l6.9,6 M29.2,21.8l-14.5,1.7 M29.2,21.8l14.5,1.7"/>
			<path class="st3" d="M36.5,29.5l-1.3-14.7 M36.5,29.5l-1.2,14.3"/>
			<path class="st3" d="M43.7,35.8L29.2,37 M14.7,35.5L29.2,37"/>
			<path class="st3" d="M23.1,43.8l-1.5-14.3 M23.1,14.9l-1.5,14.6"/>
		</g>
		<g>
			<path class="st4" d="M8.1,25.3l6.6-1.9 M16.1,9.9l7,5 M24.7,6.8l-1.6,8.1 M24.7,6.8l10.6,8"/>
			<path class="st4" d="M33.6,6.8l1.6,8 M42.2,9.9l-7,4.9 M48.5,16.5l-13.2-1.7 M43.7,23.4l4.8-7 M43.7,23.4l6.8,1.9"/>
			<path class="st4" d="M43.7,23.4l6.6,10.1 M33.6,6.8l-10.6,8.1"/>
			<path class="st4" d="M43.7,23.4L42.2,9.9 M43.7,35.8l6.6-2.3"/>
			<path class="st4" d="M43.7,35.8l6.8-10.5 M43.7,35.8l4.8,6.4 M43.7,35.8l-1.5,13 M35.3,43.8l6.9,5"/>
			<path class="st4" d="M35.3,43.8l13.2-1.5 M35.3,43.8l-1.6,8.2 M35.3,43.8l-10.6,8.2 M23.1,43.8l1.6,8.2"/>
			<path class="st4" d="M23.1,43.8l10.6,8.2 M23.1,43.8l-7,5 M23.1,43.8L9.9,42.3 M14.7,35.5l-4.8,6.8"/>
			<path class="st4" d="M14.7,35.5l1.4,13.3 M14.7,35.5L8,33.5 M14.7,23.4L8,33.5"/>
			<path class="st4" d="M14.7,35.5L8.1,25.3 M16.1,9.9l-1.4,13.6"/>
			<path class="st4" d="M9.9,16.5l13.2-1.6"/>
		</g>
	</g>
	<g>
		<path class="st5" d="M16.1,9.9L11,7.5 M16.1,9.9l-0.4-5.6 M24.7,6.8l-9-2.5"/>
		<path class="st5" d="M24.7,6.8L20.8,2 M24.7,6.8l1.6-5.7 M16.1,9.9L20.8,2 M33.6,6.8l-7.4-5.7"/>
		<path class="st5" d="M33.6,6.8L32,0.9 M24.7,6.8L32,0.9 M33.6,6.8L37.5,2 M42.2,9.9L37.5,2"/>
		<path class="st5" d="M42.2,9.9l0.5-5.6 M33.6,6.8l9-2.5 M42.2,9.9l5.2-2.7 M42.2,9.9l9.1,1.4"/>
		<path class="st5" d="M48.5,16.5l2.9-5.2 M48.5,16.5l-1-9.2 M48.5,16.5l6-0.5 M48.5,16.5l8.2,4.7"/>
		<path class="st5" d="M50.5,25.3l4-9.3 M50.5,25.3l6.2-4.2 M50.5,25.3l6.9,1.4 M50.3,33.5l7-6.8"/>
		<path class="st5" d="M50.3,33.5l7.2-1.3 M50.5,25.3l7.1,6.9 M50.3,33.5l6.2,4.1 M48.5,42.2l8-4.6"/>
		<path class="st5" d="M48.5,42.2l5.9,0.6 M50.3,33.5l4,9.3 M48.5,42.2l2.8,5.2 M48.5,42.2l-1.1,9.2"/>
		<path class="st5" d="M47.4,51.4l-5.2-2.6 M42.2,48.8l0.4,5.8 M42.2,48.8l9-1.3 M42.2,48.8l-4.7,8"/>
		<path class="st5" d="M33.7,51.9l3.8,4.9 M33.7,51.9l8.9,2.7 M33.7,51.9l-1.7,6 M33.7,51.9l-7.4,6"/>
		<path class="st5" d="M24.7,51.9l1.6,6 M24.7,51.9l7.3,6 M24.7,51.9l-3.8,4.9 M16.1,48.8l4.8,8"/>
		<path class="st5" d="M24.7,51.9l-9,2.8 M16.1,48.8l-0.5,5.9 M16.1,48.8l-5.2,2.9 M9.9,42.3l1,9.4"/>
		<path class="st5" d="M16.1,48.8L7,47.6 M9.9,42.3L7,47.5 M9.9,42.3l-6,0.6 M9.9,42.3l-8.2-4.6 M8,33.5l-6.3,4.3 M8,33.5l-7.2-1.3"
			/>
		<path class="st5" d="M8,33.5l-4,9.4 M8.1,25.3l-7.2,6.9"/>
		<path class="st5" d="M8,33.5l-7.2-6.8 M8.1,25.3l-6.2-4.1"/>
		<path class="st5" d="M8.1,25.3l-7.2,1.4 M8.1,25.3L3.9,16"/>
		<path class="st5" d="M9.9,16.5l-6-0.5 M9.9,16.5l-8,4.7 M9.9,16.5l-2.8-4.9 M9.9,16.5l1.1-9"/>
		<path class="st5" d="M16.1,9.9l-9,1.7"/>
	</g>
</g>
<path class="st1" d="M18.1,32.9l0-7l7,0l0,7L18.1,32.9z M25.6,25.2l0-7l7,0l0,7L25.6,25.2z M25.6,40.6l0-7l7,0l0,7L25.6,40.6z
	 M33.3,32.9l0-7l7,0l0,7L33.3,32.9z"/>
<path class="st6" d="M32.9,17.2l0-4.9l4.9,0l0,4.9L32.9,17.2z M20.7,17.2l0-4.9l4.9,0l0,4.9L20.7,17.2z M12.2,25.9l0-4.9l4.9,0
	l0,4.9L12.2,25.9z M12.2,38.1l0.1-4.9l4.9,0.1l-0.1,4.9L12.2,38.1z M41.3,38l0-4.9l4.9,0l0,4.9L41.3,38z M41.4,25.9l0.1-4.9l4.9,0.1
	L46.2,26L41.4,25.9z"/>
<path class="st0" d="M8.3,18l0-3.2l3.2,0l0,3.2L8.3,18z M14.5,11.6l0-3.2l3.2,0l0,3.2L14.5,11.6z M23.1,8.3l0-3.2l3.2,0l0,3.2
	L23.1,8.3z M6.4,26.9l0-3.2l3.2,0l0,3.2L6.4,26.9z M46.9,14.9l3.2,0l0,3.2l-3.2,0L46.9,14.9z M40.6,8.3l3.2,0l0,3.2l-3.2,0L40.6,8.3
	z M32,5.2l3.2,0l0,3.2l-3.2,0L32,5.2z M48.7,23.7l3.2,0l0,3.2l-3.2,0L48.7,23.7z"/>
<path class="st6" d="M20.6,46.3l0-4.9l4.9,0l0,4.9L20.6,46.3z M32.8,46.3l0-4.9l4.9,0l0,4.9L32.8,46.3z"/>
<path class="st0" d="M46.8,43.9l0-3.2l3.2,0l0,3.2L46.8,43.9z M40.7,50.4l0-3.2l3.2,0l0,3.2L40.7,50.4z M32.1,53.6l0-3.2l3.2,0
	l0,3.2L32.1,53.6z M48.7,35l0-3.2l3.2,0l0,3.2L48.7,35z M8.3,40.7l3.2,0l0,3.2l-3.2,0L8.3,40.7z M14.5,47.2l3.2,0l0,3.2l-3.2,0
	L14.5,47.2z M23.1,50.3l3.2,0l0,3.2l-3.2,0L23.1,50.3z M6.4,31.9l3.2,0l0,3.2l-3.2,0L6.4,31.9z"/>
<g>
	<g>
		<path id="B_00000070811810301052264510000010049917200168036747_" class="st7" d="M53.5,16.8l0-1.7l1.8,0l0,1.7L53.5,16.8z"/>
	</g>
	<g>
		<path id="B_00000140003115652983206330000004957238963902490039_" class="st7" d="M55.8,22.1l0-1.7l1.8,0l0,1.7L55.8,22.1z"/>
	</g>
	<g>
		<path id="B_00000055665729563365333240000009360961939064002209_" class="st7" d="M50.4,12.2l0-1.7l1.8,0l0,1.7L50.4,12.2z"/>
	</g>
	<g>
		<path id="B_00000137825167295935673270000008381691658448913074_" class="st7" d="M10.1,8.3l0-1.7l1.8,0l0,1.7L10.1,8.3z"/>
	</g>
	<g>
		<path id="B_00000118356821499319802900000014929315859224600717_" class="st7" d="M0,27.6l0-1.7l1.8,0l0,1.7L0,27.6z"/>
	</g>
	<g>
		<path id="B_00000018216080862118337930000000177597617975748530_" class="st7" d="M46.6,8.3l0-1.7l1.8,0l0,1.7L46.6,8.3z"/>
	</g>
	<g>
		<path id="B_00000018199238274891879810000007903446357457823383_" class="st7" d="M1,22.1l0-1.7l1.8,0l0,1.7L1,22.1z"/>
	</g>
	<g>
		<path id="B_00000108995027736233139770000001746675559553007745_" class="st7" d="M20,2.9l0-1.7l1.8,0l0,1.7L20,2.9z"/>
	</g>
	<g>
		<path id="B_00000075123320210297349670000016959643801493959842_" class="st7" d="M3.1,16.8l0-1.7l1.8,0l0,1.7L3.1,16.8z"/>
	</g>
	<g>
		<path id="B_00000111887737435180054240000000930324289670107040_" class="st7" d="M6.3,12.2l0-1.7l1.8,0l0,1.7L6.3,12.2z"/>
	</g>
	<path class="st7" d="M14.8,3.4l1.7,0l0,1.8l-1.7,0L14.8,3.4z M25.5,0l1.7,0l0,1.8l-1.7,0L25.5,0z"/>
	<g>
		<path id="B_00000168815245601869613280000007230935564925750961_" class="st7" d="M41.9,5.2l0-1.7l1.8,0l0,1.7L41.9,5.2z"/>
	</g>
	<g>
		<path id="B_00000062193964114801978320000007049735702123956923_" class="st7" d="M56.7,27.5l0-1.7l1.8,0l0,1.7L56.7,27.5z"/>
	</g>
	<path class="st7" d="M31.1,1.7l0-1.7l1.8,0l0,1.7L31.1,1.7z"/>
	<g>
		<path id="B_00000085214162536048605090000013128003903247481005_" class="st7" d="M36.6,2.9l0-1.7l1.8,0l0,1.7L36.6,2.9z"/>
	</g>
	<g>
		<path id="B_00000127024242050514379800000007822256307274575275_" class="st7" d="M46.6,52.3l0-1.7l1.8,0l0,1.7L46.6,52.3z"/>
	</g>
	<g>
		<path id="B_00000005968460699122843280000001702088261036110208_" class="st7" d="M56.7,33l0-1.7l1.8,0l0,1.7L56.7,33z"/>
	</g>
	<g>
		<path id="B_00000145043009046330857340000002829525584298572217_" class="st7" d="M10.1,52.3l0-1.7l1.8,0l0,1.7L10.1,52.3z"/>
	</g>
	<g>
		<path id="B_00000061463828108343709320000008268021566486453666_" class="st7" d="M55.8,38.6l0-1.7l1.8,0l0,1.7L55.8,38.6z"/>
	</g>
	<g>
		<path id="B_00000020365635716451209400000008953265428784520108_" class="st7" d="M36.6,57.7l0-1.7l1.8,0l0,1.7L36.6,57.7z"/>
	</g>
	<g>
		<path id="B_00000074410236185226731180000016152944125674664600_" class="st7" d="M53.5,43.8l0-1.7l1.8,0l0,1.7L53.5,43.8z"/>
	</g>
	<g>
		<path id="B_00000065790110000210444190000013218872150570474399_" class="st7" d="M50.4,48.5l0-1.7l1.8,0l0,1.7L50.4,48.5z"/>
	</g>
	<path class="st7" d="M41.8,53.8l1.7,0l0,1.8l-1.7,0L41.8,53.8z M31.2,57.1l1.7,0l0,1.8l-1.7,0L31.2,57.1z"/>
	<g>
		<path id="B_00000114794540108927620590000017983058677490123444_" class="st7" d="M14.9,55.6l0-1.7l1.8,0l0,1.7L14.9,55.6z"/>
	</g>
	<g>
		<path id="B_00000052072996342513432730000008853400162870762880_" class="st7" d="M3.1,43.7l0-1.7l1.8,0l0,1.7L3.1,43.7z"/>
	</g>
	<g>
		<path id="B_00000126309492735757680290000014573767028795985287_" class="st7" d="M1,38.6l0-1.7l1.8,0l0,1.7L1,38.6z"/>
	</g>
	<g>
		<path id="B_00000173862308365561980600000006450994893301202361_" class="st7" d="M6.2,48.5l0-1.7l1.8,0l0,1.7L6.2,48.5z"/>
	</g>
	<g>
		<path id="B_00000111181416165144931710000017677236753777336472_" class="st7" d="M0,33l0-1.7l1.8,0l0,1.7L0,33z"/>
	</g>
	<g>
		<path id="B_00000157281483391618267610000000500212200404325793_" class="st7" d="M25.6,58.8l0-1.7l1.8,0l0,1.7L25.6,58.8z"/>
	</g>
	<g>
		<path id="B_00000174576848668030113390000003262148724133545903_" class="st7" d="M19.9,57.7l0-1.7l1.8,0l0,1.7L19.9,57.7z"/>
	</g>
</g>
</svg>
