<?xml version="1.0" encoding="utf-8"?>
<!-- Generator: Adobe Illustrator 27.3.1, SVG Export Plug-In . SVG Version: 6.00 Build 0)  -->
<svg version="1.1" id="Layer_1" xmlns="http://www.w3.org/2000/svg" xmlns:xlink="http://www.w3.org/1999/xlink" x="0px" y="0px"
	 viewBox="0 0 230.1 44.2" style="enable-background:new 0 0 230.1 44.2;" xml:space="preserve">
<style type="text/css">
	.st0{fill:#FFFFFF;}
	.st1{fill-rule:evenodd;clip-rule:evenodd;fill:#FFFFFF;}
</style>
<path class="st0" d="M65.4,12.3c-1.1,0-2-0.4-2.8-1.1c-0.7-0.7-1.1-1.6-1.1-2.6c0-1.1,0.4-1.9,1.1-2.6C63.4,5.4,64.3,5,65.4,5
	c1.1,0,2,0.4,2.7,1.1c0.7,0.7,1.1,1.5,1.1,2.6c0,1-0.4,1.9-1.1,2.6C67.3,12,66.4,12.3,65.4,12.3z M61.9,34.9V15.4h6.8v19.5H61.9z
	 M73.4,34.9V15.4h6.7l0.1,2.4c0.5-1,1.2-1.7,2.2-2.2c1-0.5,2.1-0.8,3.4-0.8c2.2,0,3.9,0.7,5,2.1c1.2,1.4,1.7,3.4,1.7,6.1v11.9h-6.8
	V24.3c0-2.3-0.9-3.4-2.6-3.4c-0.9,0-1.6,0.3-2.2,1c-0.5,0.6-0.7,1.5-0.7,2.7v10.3H73.4z M99,34.9v-14h-3.1v-5.5H99v-1.9
	c0-3,0.7-5.3,2.2-6.9c1.5-1.6,3.6-2.5,6.3-2.5c0.8,0,1.5,0.1,2.2,0.2c0.7,0.1,1.3,0.3,1.8,0.5l-0.3,5.7c-0.3-0.1-0.6-0.2-1-0.3
	c-0.4-0.1-0.7-0.1-1.1-0.1c-1.1,0-1.9,0.3-2.4,0.9c-0.5,0.6-0.8,1.6-0.8,3v1.4h4.6v5.5h-4.6v14H99z M113.4,34.9V4.3h6.8v30.6H113.4z
	 M131.3,35.5c-2.1,0-3.8-0.7-4.9-2c-1.1-1.4-1.7-3.4-1.7-6v-12h6.9V26c0,1.2,0.2,2,0.6,2.6c0.4,0.6,1.1,0.8,2,0.8
	c0.9,0,1.6-0.3,2.1-0.9c0.5-0.7,0.8-1.6,0.8-2.8V15.4h6.8v19.5h-6.7l-0.1-2.4c-0.5,1-1.3,1.7-2.3,2.2
	C133.8,35.2,132.6,35.5,131.3,35.5z M146.9,34.9l7.1-10l-6.7-9.4h7.6l3.2,5.3l3.1-5.3h7.3l-6.7,9.5l7.1,10h-7.7l-3.6-5.9l-3.5,5.9
	H146.9z M180.9,35.5c-1.7,0-3.3-0.4-4.7-1.3c-1.4-0.9-2.4-2-3.2-3.6c-0.8-1.5-1.2-3.3-1.2-5.2c0-1.9,0.4-3.6,1.2-5.1
	c0.9-1.5,2-2.7,3.4-3.6c1.4-0.9,3-1.4,4.8-1.4c1.4,0,2.7,0.4,3.9,1.1c1.2,0.7,2.2,1.7,2.9,3V4.3h3.2v30.6h-3.1l-0.1-3.4
	c-0.8,1.3-1.8,2.3-3,3C183.9,35.1,182.5,35.5,180.9,35.5z M181.7,32.6c1.3,0,2.5-0.3,3.4-0.9c1-0.6,1.8-1.4,2.3-2.5
	c0.6-1.1,0.9-2.3,0.9-3.7c0-1.4-0.3-2.7-0.9-3.7c-0.6-1.1-1.3-1.9-2.3-2.5c-1-0.6-2.1-0.9-3.4-0.9c-1.3,0-2.4,0.3-3.4,0.9
	c-1,0.6-1.8,1.4-2.3,2.5c-0.6,1.1-0.8,2.3-0.8,3.7c0,1.4,0.3,2.7,0.8,3.7c0.6,1.1,1.4,1.9,2.3,2.5C179.3,32.3,180.4,32.6,181.7,32.6
	z M208.2,35.5c-1.5,0-2.8-0.4-4-1.1c-1.2-0.7-2.1-1.7-2.8-3l-0.1,3.4h-3.1V4.3h3.2v15.1c0.8-1.3,1.8-2.3,3-3
	c1.2-0.7,2.6-1.1,4.2-1.1c1.8,0,3.3,0.4,4.7,1.3s2.4,2,3.2,3.6c0.8,1.5,1.2,3.2,1.2,5.2c0,1.9-0.4,3.6-1.3,5.1
	c-0.8,1.5-2,2.7-3.4,3.6C211.5,35,209.9,35.5,208.2,35.5z M207.7,32.6c1.3,0,2.5-0.3,3.4-0.9c1-0.6,1.8-1.4,2.3-2.5
	c0.6-1.1,0.9-2.3,0.9-3.7c0-1.4-0.3-2.7-0.9-3.7c-0.6-1.1-1.3-1.9-2.3-2.5c-1-0.6-2.1-0.9-3.4-0.9c-1.3,0-2.4,0.3-3.4,0.9
	c-1,0.6-1.8,1.4-2.3,2.5c-0.6,1.1-0.8,2.3-0.8,3.7c0,1.4,0.3,2.7,0.8,3.7c0.6,1.1,1.4,1.9,2.3,2.5C205.3,32.3,206.4,32.6,207.7,32.6
	z"/>
<path class="st1" d="M32.3,30.5l10.3-2.4c0.2,0,0.3-0.1,0.4-0.2c0.1-0.1,0.2-0.2,0.3-0.4c0.1-0.1,0.1-0.3,0.2-0.5c0-0.2,0-0.3,0-0.5
	L39.1,7.8C39,7.5,38.8,7.2,38.5,7c-0.3-0.2-0.6-0.2-0.9-0.1L27.4,9.2c-0.3,0.1-0.6,0.3-0.7,0.6c-0.2,0.3-0.2,0.6-0.1,0.9l4.3,18.9
	c0.1,0.3,0.3,0.6,0.6,0.7C31.7,30.5,32,30.6,32.3,30.5z"/>
<path class="st1" d="M28.8,42.2l12.4-11.5c0.5-0.5,0.4-0.8-0.3-0.5l-8.5,1.9c-0.4,0.1-0.7,0.3-0.9,0.5c-0.3,0.2-0.5,0.6-0.6,0.9
	l-2.6,8.3C28.1,42.5,28.3,42.7,28.8,42.2z"/>
<path class="st1" d="M6.1,38.4l18.6,5.8c0.3,0.1,0.6,0,0.9-0.2c0.3-0.2,0.5-0.4,0.6-0.7l3.1-10c0-0.2,0.1-0.3,0-0.5
	c0-0.2-0.1-0.3-0.1-0.5c-0.1-0.1-0.2-0.3-0.3-0.4c-0.1-0.1-0.3-0.2-0.4-0.2L9.9,26.1C9.6,26,9.2,26.1,9,26.2
	c-0.3,0.2-0.5,0.4-0.6,0.7l-3.1,10c-0.1,0.3-0.1,0.6,0.1,0.9C5.5,38.1,5.8,38.3,6.1,38.4z"/>
<path class="st1" d="M0.1,18l3.8,16.5c0.1,0.6,0.4,0.6,0.6,0L7,26.2c0.1-0.4,0.1-0.7,0-1.1c-0.1-0.4-0.2-0.7-0.5-1l-6-6.4
	C0.2,17.2-0.1,17.4,0.1,18z"/>
<path class="st1" d="M14.6,0.3L0.4,13.5C0.1,13.8,0,14.1,0,14.4c0,0.3,0.1,0.6,0.3,0.9l7.1,7.7c0.2,0.2,0.5,0.4,0.8,0.4
	c0.3,0,0.6-0.1,0.9-0.3L23.4,9.8c0.2-0.2,0.4-0.5,0.4-0.8c0-0.3-0.1-0.6-0.3-0.9l-7.1-7.7c-0.1-0.1-0.2-0.2-0.4-0.3
	C15.8,0,15.7,0,15.5,0c-0.2,0-0.3,0-0.5,0.1C14.9,0.1,14.7,0.2,14.6,0.3z"/>
<path class="st1" d="M28.4,30.2c0.7,0.2,1.1-0.2,0.9-0.8l-4.1-17.9c-0.2-0.6-0.7-0.8-1.2-0.4L10.6,23.6c-0.5,0.5-0.4,1,0.3,1.2
	L28.4,30.2z"/>
<path class="st1" d="M35.4,5.3l-16.3-5c-0.6-0.2-0.8,0.1-0.2,0.6l6,6.4c0.3,0.2,0.6,0.4,0.9,0.5c0.4,0.1,0.7,0.1,1.1,0L35.4,6
	C36.1,5.8,36.1,5.5,35.4,5.3z"/>
<path class="st0" d="M221.6,9.8v-4h-1.5V5h3.9v0.8h-1.5v4H221.6z M224.9,9.8l0.2-4.8h0.9l1.5,3.1L229,5h0.9l0.2,4.8h-0.8l-0.2-3.6
	L227.8,9h-0.7l-1.3-2.8l-0.1,3.6H224.9z"/>
</svg>
