<?xml version="1.0" encoding="utf-8"?>
<!-- Generator: Adobe Illustrator 27.3.1, SVG Export Plug-In . SVG Version: 6.00 Build 0)  -->
<svg version="1.1" id="Layer_1" xmlns="http://www.w3.org/2000/svg" xmlns:xlink="http://www.w3.org/1999/xlink" x="0px" y="0px"
	 viewBox="0 0 127 60" style="enable-background:new 0 0 127 60;" xml:space="preserve">
<style type="text/css">
	.st0{fill:#516BAA;}
</style>
<path class="st0" d="M15.1,32.1v15.6c0,0,0,0.1,0,0.1l-15,2.6c0,0-0.1,0-0.1-0.1c0,0,0,0,0,0l15-33.5c0,0,0.1,0,0.1,0c0,0,0,0,0,0.1
	C15.1,16.7,15.1,32.1,15.1,32.1z M17.6,23.1v24.6c0,0,0,0.1,0.1,0.1l22.4,2.5c0,0,0.1,0,0.1-0.1c0,0,0,0,0,0L17.7,0c0,0-0.1,0-0.1,0
	c0,0,0,0,0,0.1C17.6,0.1,17.6,23.1,17.6,23.1z M40,52.5L15.1,60c0,0,0,0,0,0l-15-7.5c0,0,0,0,0-0.1c0,0,0,0,0.1,0h39.8
	C40,52.4,40,52.5,40,52.5C40,52.5,40,52.5,40,52.5z"/>
<g>
	<path class="st0" d="M57.8,49c-0.1-0.1-0.1-0.2-0.1-0.3V23.2c0-0.1,0-0.2,0.1-0.3c0.1-0.1,0.2-0.1,0.3-0.1h3.5c0.1,0,0.2,0,0.3,0.1
		c0.1,0.1,0.1,0.2,0.1,0.3v25.5c0,0.1,0,0.2-0.1,0.3c-0.1,0.1-0.2,0.1-0.3,0.1h-3.5C58,49.2,57.9,49.1,57.8,49z"/>
	<path class="st0" d="M70.3,48.7c-1.2-0.5-2.1-1.1-2.8-1.9c-0.7-0.8-1-1.7-1-2.7v-0.3c0-0.1,0-0.2,0.1-0.3c0.1-0.1,0.2-0.1,0.3-0.1
		h3.3c0.1,0,0.2,0,0.3,0.1c0.1,0.1,0.1,0.2,0.1,0.3v0.1c0,0.6,0.3,1.2,1,1.6c0.7,0.5,1.6,0.7,2.6,0.7c1,0,1.8-0.2,2.5-0.6
		s0.9-0.9,0.9-1.6c0-0.6-0.3-1-0.8-1.3c-0.5-0.3-1.4-0.6-2.5-0.9l-1.4-0.5c-1.3-0.4-2.4-0.8-3.2-1.2c-0.9-0.4-1.6-1-2.2-1.8
		c-0.6-0.7-0.9-1.7-0.9-2.8c0-1.8,0.7-3.2,2.1-4.2c1.4-1,3.2-1.6,5.5-1.6c1.5,0,2.9,0.2,4,0.7c1.2,0.5,2,1.2,2.7,2
		c0.6,0.9,0.9,1.9,0.9,3c0,0.1,0,0.2-0.1,0.3c-0.1,0.1-0.2,0.1-0.3,0.1h-3.2c-0.1,0-0.2,0-0.3-0.1c-0.1-0.1-0.1-0.2-0.1-0.3
		c0-0.7-0.3-1.2-1-1.6c-0.6-0.4-1.5-0.7-2.6-0.7c-1,0-1.8,0.2-2.4,0.5S71,34.5,71,35.2c0,0.6,0.3,1.1,0.9,1.4c0.6,0.3,1.6,0.7,3,1
		l0.8,0.2c1.3,0.4,2.5,0.8,3.4,1.2s1.7,1,2.3,1.7c0.6,0.7,0.9,1.7,0.9,2.9c0,1.8-0.7,3.2-2.1,4.2c-1.4,1-3.3,1.5-5.6,1.5
		C72.9,49.4,71.5,49.2,70.3,48.7L70.3,48.7z"/>
	<path class="st0" d="M96.2,33.3c-0.1,0.1-0.2,0.1-0.3,0.1H92c-0.1,0-0.2,0.1-0.2,0.2v9.1c0,1,0.2,1.6,0.6,2.1s1.1,0.6,2,0.6h1.1
		c0.1,0,0.2,0,0.3,0.1c0.1,0.1,0.1,0.2,0.1,0.3v2.8c0,0.3-0.2,0.4-0.5,0.5l-2,0c-2,0-3.5-0.3-4.5-1c-1-0.7-1.5-2-1.5-3.8V33.6
		c0-0.1-0.1-0.2-0.2-0.2h-2.2c-0.1,0-0.2,0-0.3-0.1c-0.1-0.1-0.1-0.2-0.1-0.3v-2.6c0-0.1,0-0.2,0.1-0.3c0.1-0.1,0.2-0.1,0.3-0.1h2.2
		c0.1,0,0.2-0.1,0.2-0.2v-4.4c0-0.1,0-0.2,0.1-0.3c0.1-0.1,0.2-0.1,0.3-0.1h3.3c0.1,0,0.2,0,0.3,0.1c0.1,0.1,0.1,0.2,0.1,0.3v4.4
		c0,0.1,0.1,0.2,0.2,0.2h3.8c0.1,0,0.2,0,0.3,0.1c0.1,0.1,0.1,0.2,0.1,0.3V33C96.3,33.1,96.3,33.2,96.2,33.3L96.2,33.3z"/>
	<path class="st0" d="M101,26.5c-0.5-0.5-0.8-1.1-0.8-1.9c0-0.8,0.3-1.4,0.8-1.9c0.5-0.5,1.1-0.8,1.9-0.8c0.8,0,1.4,0.3,1.9,0.8
		c0.5,0.5,0.8,1.1,0.8,1.9c0,0.8-0.3,1.4-0.8,1.9c-0.5,0.5-1.1,0.8-1.9,0.8C102.1,27.3,101.5,27,101,26.5z M100.8,49
		c-0.1-0.1-0.1-0.2-0.1-0.3V30.3c0-0.1,0-0.2,0.1-0.3c0.1-0.1,0.2-0.1,0.3-0.1h3.5c0.1,0,0.2,0,0.3,0.1c0.1,0.1,0.1,0.2,0.1,0.3
		v18.4c0,0.1,0,0.2-0.1,0.3c-0.1,0.1-0.2,0.1-0.3,0.1h-3.5C100.9,49.2,100.8,49.1,100.8,49z"/>
	<path class="st0" d="M113.3,48c-1.4-1-2.4-2.4-3-4.2c-0.4-1.4-0.6-2.8-0.6-4.3c0-1.6,0.2-3,0.6-4.3c0.6-1.8,1.6-3.1,3-4.1
		c1.4-1,3.2-1.5,5.2-1.5c1.9,0,3.6,0.5,5,1.5c1.4,1,2.4,2.3,3,4.1c0.5,1.2,0.7,2.6,0.7,4.3c0,1.6-0.2,3-0.6,4.3
		c-0.6,1.8-1.6,3.2-3,4.2c-1.4,1-3.1,1.5-5,1.5C116.4,49.5,114.7,49,113.3,48L113.3,48z M120.8,44.9c0.7-0.5,1.2-1.3,1.5-2.2
		c0.3-0.8,0.4-1.9,0.4-3.2c0-1.4-0.1-2.4-0.4-3.2c-0.3-1-0.8-1.7-1.4-2.2s-1.5-0.8-2.5-0.8c-0.9,0-1.7,0.3-2.4,0.8
		c-0.7,0.5-1.2,1.3-1.5,2.2c-0.3,0.9-0.4,1.9-0.4,3.2s0.1,2.3,0.4,3.2c0.3,1,0.8,1.7,1.5,2.2c0.7,0.5,1.5,0.8,2.5,0.8
		C119.3,45.7,120.1,45.4,120.8,44.9z"/>
</g>
</svg>
