<?xml version="1.0" encoding="utf-8"?>
<!-- Generator: Adobe Illustrator 16.0.3, SVG Export Plug-In . SVG Version: 6.00 Build 0)  -->
<!DOCTYPE svg PUBLIC "-//W3C//DTD SVG 1.1//EN" "http://www.w3.org/Graphics/SVG/1.1/DTD/svg11.dtd">
<svg version="1.1" id="Layer_1" xmlns="http://www.w3.org/2000/svg" xmlns:xlink="http://www.w3.org/1999/xlink" x="0px" y="0px"
	 width="250px" height="65px" viewBox="24.833 117.167 250 65" enable-background="new 24.833 117.167 250 65" xml:space="preserve"
	>
<path d="M118.285,181.178h-4.776l-0.841-5.584h-5.919l-0.841,5.584h-4.406l4.843-30.64h7.063L118.285,181.178z M107.287,171.457
	h4.675l-2.321-15.537L107.287,171.457z"/>
<path d="M130.493,181.178c-0.403-1.211-0.572-2.489-0.437-3.768v-4.809c0-2.859-0.942-3.902-3.094-3.902h-1.682v12.444h-4.843
	v-30.605h7.265c5.011,0,7.164,2.321,7.164,7.029v2.421c0,3.095-1.009,5.213-3.094,6.223c2.421,1.009,3.195,3.33,3.195,6.524v4.675
	c-0.101,1.278,0.101,2.557,0.538,3.733L130.493,181.178z M125.247,154.91v9.417h1.883c1.783,0,2.893-0.773,2.893-3.229v-3.026
	c0-2.187-0.74-3.095-2.455-3.095L125.247,154.91z"/>
<path d="M136.614,150.538h14.899v4.372h-5.045v26.301h-4.81V154.91h-5.045V150.538z"/>
<path d="M153.564,150.538h4.811v30.64h-4.811V150.538z"/>
<path d="M166.009,164.125h6.222v4.373h-6.222v12.646h-4.81v-30.605h12.747v4.372h-7.938V164.125z"/>
<path d="M190.459,181.178h-4.876l-0.841-5.584h-5.953l-0.841,5.584h-4.405l4.943-30.64h7.029L190.459,181.178z M179.462,171.457
	h4.675l-2.32-15.537L179.462,171.457z"/>
<path d="M206.301,169.742v4.137c0,4.91-2.455,7.701-7.197,7.701s-7.197-2.791-7.197-7.701V157.87c0-4.911,2.455-7.769,7.197-7.769
	s7.197,2.825,7.197,7.769v2.993h-4.541v-3.296c0-2.187-0.975-3.026-2.488-3.026s-2.522,0.84-2.522,3.026v16.547
	c0,2.187,0.976,2.993,2.522,2.993s2.488-0.807,2.488-2.993v-4.372H206.301z"/>
<path d="M207.948,150.538h14.899v4.372h-5.045v26.301h-4.775V154.91h-5.045L207.948,150.538z"/>
<path d="M224.596,157.87c0-4.911,2.59-7.769,7.299-7.769s7.332,2.825,7.332,7.769v16.009c0,4.91-2.59,7.701-7.332,7.701
	s-7.299-2.791-7.299-7.701V157.87z M229.406,174.114c0,2.187,0.975,3.026,2.488,3.026s2.488-0.84,2.488-3.026v-16.547
	c0-2.187-0.975-3.026-2.488-3.026s-2.488,0.84-2.488,3.026V174.114z"/>
<path d="M251.906,181.178c-0.404-1.211-0.572-2.489-0.438-3.768v-4.809c0-2.859-0.976-3.902-3.094-3.902h-1.682v12.444h-4.811
	v-30.605h7.266c4.977,0,7.129,2.321,7.129,7.029v2.421c0,3.095-1.008,5.213-3.094,6.223c2.422,1.009,3.195,3.33,3.195,6.524v4.675
	c-0.102,1.278,0.102,2.557,0.538,3.733L251.906,181.178z M246.625,154.91v9.417h1.918c1.782,0,2.893-0.773,2.893-3.229v-3.026
	c0-2.187-0.74-3.095-2.455-3.095L246.625,154.91z"/>
<path d="M263.476,171.02l-6.088-20.481h5.045l3.666,13.991l3.7-13.991h4.641l-6.088,20.481v10.158h-4.809L263.476,171.02z"/>
<rect x="25.561" y="177.377" fill="#41BF47" width="55.527" height="4.271"/>
<path fill="#41BF47" d="M53.206,165.807c-13.116,0-23.744-10.627-23.744-23.71c0-13.083,10.628-23.744,23.711-23.744
	c13.116,0,23.744,10.628,23.744,23.711l0,0C76.917,155.18,66.323,165.773,53.206,165.807z M53.206,122.893
	c-10.594,0-19.204,8.576-19.237,19.204c0,10.594,8.576,19.205,19.204,19.238c10.594,0,19.204-8.576,19.237-19.204l0,0v-0.034
	C72.376,131.502,63.8,122.926,53.206,122.893L53.206,122.893z"/>
<path fill="#41BF47" d="M101.637,144.182c-0.639,0-1.312-0.067-1.951-0.235v-2.724c0.504,0.134,1.042,0.202,1.547,0.202
	c0.605,0.067,1.177-0.202,1.547-0.673c0.37-0.639,0.504-1.379,0.471-2.085v-14.529h3.296v14.496c0.101,1.48-0.336,2.959-1.244,4.137
	C104.395,143.744,103.049,144.283,101.637,144.182z"/>
<path fill="#41BF47" d="M113.677,139.675h-3.296v-15.538h8.913v2.69h-5.65v3.969h5.247v2.657h-5.247L113.677,139.675z"/>
<path fill="#41BF47" d="M128.744,127.567c0.37,0,0.74,0.034,1.077,0.101l-0.236,3.027c-1.177-0.27-2.388-0.034-3.363,0.672
	c-0.605,0.572-0.908,1.413-0.875,2.253v6.054h-3.229v-11.838h2.456l0.471,1.984h0.168c0.404-0.639,0.908-1.177,1.547-1.547
	C127.332,127.836,128.038,127.567,128.744,127.567z"/>
<path fill="#41BF47" d="M142.769,133.688c0.101,1.648-0.471,3.262-1.547,4.54c-1.11,1.144-2.657,1.715-4.271,1.648
	c-1.042,0.034-2.085-0.235-2.993-0.74c-0.875-0.504-1.581-1.244-2.018-2.152c-0.471-1.009-0.74-2.152-0.706-3.262
	c-0.101-1.648,0.471-3.296,1.547-4.541c1.144-1.11,2.69-1.682,4.271-1.547c1.042-0.034,2.119,0.235,3.027,0.74
	c0.875,0.471,1.581,1.21,2.018,2.119C142.567,131.469,142.769,132.579,142.769,133.688z M134.563,133.688
	c-0.067,0.908,0.134,1.85,0.572,2.657c0.841,1.042,2.354,1.211,3.396,0.37c0.135-0.101,0.269-0.235,0.37-0.37
	c0.437-0.807,0.605-1.749,0.572-2.657c0.067-0.908-0.135-1.85-0.572-2.657c-0.437-0.605-1.144-0.941-1.85-0.875
	c-0.74-0.067-1.446,0.269-1.85,0.875C134.697,131.838,134.496,132.747,134.563,133.688L134.563,133.688z"/>
<path fill="#41BF47" d="M155.751,127.769v1.648l-1.85,0.471c0.337,0.538,0.505,1.144,0.505,1.783
	c0.066,1.144-0.438,2.253-1.313,2.959c-1.076,0.773-2.388,1.144-3.699,1.076h-1.076c-0.303,0.202-0.471,0.505-0.504,0.841
	c0,0.471,0.605,0.707,1.782,0.707h2.018c1.042-0.067,2.119,0.235,2.96,0.841c0.706,0.605,1.109,1.513,1.043,2.455
	c0.033,1.312-0.605,2.556-1.75,3.229c-1.513,0.841-3.229,1.245-4.977,1.144c-1.312,0.067-2.624-0.235-3.767-0.875
	c-0.841-0.504-1.346-1.446-1.312-2.421c-0.034-0.672,0.202-1.312,0.639-1.782c0.538-0.539,1.245-0.908,1.984-1.043
	c-0.336-0.134-0.639-0.403-0.875-0.706c-0.235-0.269-0.37-0.639-0.37-1.009c-0.034-0.403,0.135-0.807,0.37-1.143
	c0.336-0.336,0.706-0.639,1.144-0.875c-0.639-0.235-1.211-0.707-1.547-1.278c-0.37-0.639-0.572-1.345-0.538-2.085
	c-0.067-1.144,0.404-2.253,1.245-2.993c1.042-0.774,2.32-1.144,3.599-1.043c0.403,0,0.773,0.034,1.177,0.101l0.875,0.134
	L155.751,127.769z M146.569,141.289c0,0.438,0.235,0.841,0.639,1.043c0.538,0.269,1.177,0.403,1.783,0.37
	c0.941,0.034,1.85-0.134,2.724-0.471c0.572-0.168,0.976-0.707,1.01-1.278c0.033-0.404-0.202-0.774-0.605-0.942
	c-0.572-0.202-1.178-0.269-1.816-0.235h-1.682c-0.538-0.034-1.11,0.101-1.547,0.403
	C146.771,140.448,146.569,140.852,146.569,141.289L146.569,141.289z M147.747,131.67c-0.034,0.538,0.135,1.11,0.438,1.547
	c0.74,0.74,1.951,0.74,2.691,0l0,0c0.303-0.471,0.437-1.009,0.402-1.547c0-1.446-0.604-2.152-1.748-2.152s-1.85,0.706-1.85,2.152
	H147.747z"/>
</svg>
