<?xml version="1.0" encoding="utf-8"?>
<!-- Generator: Adobe Illustrator 27.3.1, SVG Export Plug-In . SVG Version: 6.00 Build 0)  -->
<svg version="1.1" id="Layer_1" xmlns="http://www.w3.org/2000/svg" xmlns:xlink="http://www.w3.org/1999/xlink" x="0px" y="0px"
	 viewBox="0 0 157 154.1" style="enable-background:new 0 0 157 154.1;" xml:space="preserve">
<style type="text/css">
	.st0{fill:#18181A;}
	.st1{fill:#FFFFFF;stroke:#18181A;stroke-width:2;stroke-linecap:round;stroke-miterlimit:10;}
	.st2{fill:#FFFFFF;stroke:#18181A;stroke-width:2;stroke-linecap:round;stroke-linejoin:bevel;}
	.st3{fill:none;stroke:#18181A;stroke-width:2;stroke-linecap:round;stroke-miterlimit:10;}
	.st4{fill:#18181A;stroke:#18181A;stroke-width:2;stroke-linecap:round;stroke-linejoin:round;}
	.st5{fill:none;stroke:#18181A;stroke-width:2;stroke-linecap:round;stroke-linejoin:bevel;}
	.st6{fill:#FFFFFF;stroke:#18181A;stroke-width:2;stroke-linecap:round;stroke-linejoin:round;}
	.st7{fill:none;stroke:#18181A;stroke-width:2;stroke-linecap:round;stroke-linejoin:round;}
	.st8{fill:none;stroke:#18181A;stroke-width:4;stroke-linecap:square;stroke-linejoin:round;}
	.st9{fill:#FFB319;stroke:#18181A;stroke-width:2;stroke-linecap:round;stroke-linejoin:bevel;}
</style>
<path class="st0" d="M139.2,26.3c-2.1-0.2-4.1-0.5-6.2-0.7l-0.6-0.1l-0.4-0.1c-0.1,0-0.3,0-0.4,0c-0.1,0-0.3,0-0.4,0
	c-0.6,0-1.1,0.1-1.7,0.3c-0.6,0.2-1.1,0.5-1.6,0.8c-0.5,0.4-1,0.8-1.4,1.3c-0.4,0.5-0.7,1.1-1,1.7c-0.1,0.3-0.2,0.6-0.3,1l-0.1,0.5
	l-0.1,0.3l0,0.4L123.8,44l-1.1,12.3c0,0.2-0.1,0.4-0.2,0.5c-0.1,0.2-0.2,0.3-0.3,0.4c-0.1,0.1-0.3,0.2-0.5,0.3
	c-0.2,0.1-0.4,0.1-0.5,0.1c-0.3,0-0.6-0.2-0.9-0.4s-0.4-0.5-0.4-0.9L118.8,44l-1.2-12.3l0-0.4v-0.5c0-0.3,0-0.7,0-1
	c0-0.7,0.1-1.4,0.2-2.1c0.2-1.4,0.7-2.7,1.3-4c0.6-1.3,1.4-2.5,2.4-3.6c1-1.1,2.1-2,3.3-2.8c1.3-0.8,2.6-1.4,4-1.9
	c0.4-0.1,0.7-0.2,1.1-0.3c0.4-0.1,0.7-0.2,1.1-0.2l1.1-0.1l0.9-0.1c2.1-0.2,4.1-0.4,6.2-0.7c1.6-0.2,3.3,0.3,4.6,1.3
	s2.1,2.5,2.3,4.1c0.1,0.8,0,1.6-0.2,2.4c-0.2,0.8-0.6,1.5-1.1,2.1c-0.5,0.6-1.1,1.2-1.8,1.6c-0.7,0.4-1.5,0.6-2.3,0.7
	C140.2,26.3,139.7,26.3,139.2,26.3z"/>
<path class="st0" d="M68.8,0l3.9,0.4l2,0.2l1.1,0.1c0.5,0,1,0.1,1.4,0.2C81,1.4,84.4,3.3,87,6.2c2.4,2.8,3.8,6.3,3.9,10v0.7
	c0,0.2,0,0.4,0,0.6l-0.1,1l-0.1,1.9l-0.3,3.9l-1.2,15.6l-1.1,15.6c0,0.2-0.1,0.4-0.1,0.5c-0.1,0.2-0.2,0.3-0.3,0.4
	c-0.1,0.1-0.3,0.2-0.5,0.3c-0.2,0.1-0.4,0.1-0.5,0.1c-0.3,0-0.7-0.2-0.9-0.4c-0.2-0.2-0.4-0.6-0.4-0.9l-1.1-15.6L83,24.4l-0.3-3.9
	l-0.1-1.9l-0.1-1c0-0.1,0-0.2-0.1-0.4l0-0.3c-0.3-1.6-1.1-2.9-2.4-3.9c-1.1-0.9-2.5-1.3-4-1.3l-7.3,0.6c-0.8,0.1-1.6,0-2.4-0.3
	s-1.5-0.6-2.1-1.2c-0.6-0.5-1.1-1.2-1.5-1.9c-0.4-0.7-0.6-1.5-0.7-2.3c-0.1-0.8,0-1.6,0.3-2.4c0.2-0.8,0.6-1.5,1.2-2.1
	c0.5-0.6,1.2-1.1,1.9-1.5c0.7-0.4,1.5-0.6,2.3-0.7C68,0,68.4,0,68.8,0z"/>
<path class="st0" d="M137.5,121c0.1,2.2-0.1,4.5-0.6,6.6c-0.5,2.3-1.4,4.5-2.7,6.4c-1.4,2.1-3.4,3.8-5.8,4.9c-2.4,1-5,1.5-7.6,1.4
	h-0.1c-0.4,0-0.9-0.1-1.3-0.3c-0.4-0.2-0.8-0.4-1.1-0.7c-0.3-0.3-0.5-0.7-0.7-1.1c-0.2-0.4-0.2-0.8-0.2-1.3c0-0.4,0.1-0.9,0.3-1.3
	c0.2-0.4,0.4-0.8,0.7-1.1c0.3-0.3,0.7-0.5,1.1-0.7c0.4-0.2,0.8-0.2,1.3-0.2c0.2,0,0.5,0,0.7,0.1c1.7,0.4,3.4,0.5,5.1,0.2
	c1.7-0.4,3.3-1.2,4.6-2.4c1.4-1.4,2.5-3,3.3-4.8c0.9-1.9,1.5-3.9,1.9-5.9c0-0.1,0-0.1,0.1-0.2c0-0.1,0.1-0.1,0.1-0.1
	c0.1,0,0.1-0.1,0.2-0.1c0.1,0,0.1,0,0.2,0c0.1,0,0.2,0.1,0.3,0.1C137.4,120.8,137.5,120.9,137.5,121z"/>
<path class="st1" d="M67.8,149.2l7-58.7H48.7l-0.1-40.7h64.2c1.3,0,2.7,0.3,3.9,0.8c1.2,0.5,2.4,1.3,3.3,2.2
	c0.9,0.9,1.7,2.1,2.2,3.3c0.5,1.2,0.8,2.5,0.8,3.9v93.1H70.6"/>
<path class="st2" d="M123.1,145.3h10.5v-1.4c0-1.3,0.5-2.5,1.4-3.4c0.9-0.9,2.2-1.4,3.5-1.4c1.3,0,2.5,0.5,3.5,1.4
	c0.9,0.9,1.4,2.2,1.4,3.4v9.2H47.9v-9.2c0-1.3,0.5-2.5,1.4-3.4c0.9-0.9,2.2-1.4,3.5-1.4c1.3,0,2.5,0.5,3.5,1.4
	c0.9,0.9,1.4,2.2,1.4,3.4v1.4h10.5"/>
<path class="st1" d="M70.8,64.3h16.3c0,10.4-3.6,18.8-8.2,18.8S70.8,74.7,70.8,64.3z"/>
<path class="st1" d="M87.1,64.3h16.3c0,10.4-3.7,18.8-8.2,18.8C90.7,83.1,87.1,74.7,87.1,64.3z"/>
<circle class="st0" cx="78" cy="79" r="4"/>
<circle class="st0" cx="94" cy="79" r="4"/>
<path class="st3" d="M44.5,90.6h37.2"/>
<path class="st4" d="M46.4,49.9h5.1v40.7h-5c-2.5,0-5.1-0.5-7.4-1.5c-2.3-1-4.5-2.4-6.3-4.2c-1.8-1.8-3.2-3.9-4.2-6.2
	c-1-2.3-1.5-4.8-1.5-7.4v-2.2c0-2.5,0.5-5,1.5-7.4c1-2.3,2.4-4.5,4.2-6.3c1.8-1.8,3.9-3.2,6.3-4.2C41.4,50.4,43.9,49.9,46.4,49.9z"
	/>
<ellipse class="st0" cx="59.2" cy="77.8" rx="2.2" ry="2.2"/>
<ellipse class="st0" cx="65.5" cy="77.8" rx="2.2" ry="2.2"/>
<ellipse class="st0" cx="62.2" cy="83.2" rx="2.2" ry="2.2"/>
<ellipse class="st0" cx="68.5" cy="83.2" rx="2.2" ry="2.2"/>
<path class="st5" d="M70.8,54.1l32.6,4.2H70.9"/>
<path class="st5" d="M116.4,133.9v19.2h-14.8v-12.4c0-1.4-0.6-2.8-1.6-3.8c-1-1-2.4-1.6-3.8-1.6c-0.7,0-1.4,0.1-2,0.4
	c-0.6,0.3-1.2,0.7-1.7,1.2c-0.5,0.5-0.9,1.1-1.2,1.7c-0.3,0.6-0.4,1.3-0.4,2v12.4H76.2v-19.2"/>
<ellipse class="st6" cx="94.7" cy="118.2" rx="7.6" ry="7.6"/>
<path class="st7" d="M94.7,105.7v5"/>
<path class="st8" d="M75,105h47"/>
<path class="st7" d="M1,153h155"/>
<path class="st9" d="M13.3,138.8c0.6-1.3,1.6-2.5,2.7-3.4c1.2-0.9,2.5-1.5,4-1.9c2.1-0.5,4.3-0.2,6.2,0.7c2.1,1,3.8,2.8,4.7,4.9
	c1.1,2.5,1,5.5-0.2,8c-0.6,1.2-1.4,2.3-2.5,3.2c-2.9,2.4-7,2.9-10.4,1.3c-1.9-0.9-3.5-2.5-4.5-4.4C12,144.6,12,141.5,13.3,138.8
	L13.3,138.8z"/>
<path class="st9" d="M24.8,144.3c0.6-1.2,1.4-2.3,2.5-3.2c1.1-0.9,2.3-1.5,3.6-1.9c1.1,2.5,1,5.5-0.2,8c-0.6,1.2-1.4,2.3-2.5,3.2
	c-1.1,0.9-2.3,1.5-3.6,1.9C23.6,149.7,23.6,146.8,24.8,144.3L24.8,144.3z M13.3,138.8c0.6-1.3,1.6-2.5,2.7-3.4
	c1.2-0.9,2.5-1.5,4-1.9c1.3,2.7,1.4,5.8,0.1,8.5c-0.6,1.3-1.6,2.5-2.7,3.4c-1.2,0.9-2.5,1.5-4,1.9C12,144.6,12,141.5,13.3,138.8
	L13.3,138.8z"/>
</svg>
