<?xml version="1.0" encoding="utf-8"?>
<!-- Generator: Adobe Illustrator 27.3.1, SVG Export Plug-In . SVG Version: 6.00 Build 0)  -->
<svg version="1.1" id="Layer_1" xmlns="http://www.w3.org/2000/svg" xmlns:xlink="http://www.w3.org/1999/xlink" x="0px" y="0px"
	 viewBox="0 0 137.6 32.5" style="enable-background:new 0 0 137.6 32.5;" xml:space="preserve">
<style type="text/css">
	.st0{fill:#3E5FA8;}
	.st1{fill:#3F60A8;fill-opacity:0.4;}
	.st2{fill:#FFFFFF;}
</style>
<path class="st2" d="M43.4,26.5V16.2h-1.7V22c0,0.5-0.1,0.9-0.2,1.3c-0.1,0.4-0.3,0.7-0.6,1c-0.3,0.3-0.6,0.5-1,0.7
	c-0.4,0.2-0.8,0.2-1.3,0.2c-0.7,0-1.2-0.2-1.5-0.6c-0.4-0.4-0.6-0.9-0.6-1.5v-7h-1.7V23c0,0.6,0.1,1.1,0.2,1.5
	c0.1,0.5,0.3,0.8,0.6,1.2c0.3,0.3,0.6,0.6,1.1,0.8c0.5,0.2,1,0.3,1.7,0.3c0.8,0,1.4-0.1,2-0.4c0.6-0.3,1-0.8,1.4-1.4h0v1.6H43.4z
	 M47,23.2h-1.7c0,0.6,0.2,1.2,0.4,1.6c0.2,0.4,0.6,0.8,1,1.1c0.4,0.3,0.9,0.5,1.4,0.6c0.5,0.1,1.1,0.2,1.6,0.2c0.5,0,1-0.1,1.6-0.2
	c0.5-0.1,1-0.3,1.4-0.5c0.4-0.3,0.8-0.6,1-1c0.3-0.4,0.4-0.9,0.4-1.6c0-0.5-0.1-0.9-0.3-1.2c-0.2-0.3-0.4-0.6-0.8-0.8
	c-0.3-0.2-0.7-0.4-1.1-0.5c-0.4-0.1-0.8-0.2-1.2-0.3c-0.4-0.1-0.8-0.2-1.2-0.3c-0.4-0.1-0.8-0.2-1.1-0.3c-0.3-0.1-0.6-0.3-0.8-0.5
	c-0.2-0.2-0.3-0.4-0.3-0.7c0-0.3,0.1-0.5,0.2-0.6c0.1-0.2,0.3-0.3,0.5-0.4c0.2-0.1,0.4-0.2,0.7-0.2c0.3,0,0.5-0.1,0.8-0.1
	c0.3,0,0.6,0,0.8,0.1c0.3,0.1,0.5,0.1,0.8,0.3c0.2,0.1,0.4,0.3,0.6,0.5c0.1,0.2,0.2,0.5,0.3,0.8h1.7c0-0.6-0.2-1.1-0.4-1.6
	c-0.2-0.4-0.5-0.8-0.9-1c-0.4-0.3-0.8-0.4-1.3-0.5c-0.5-0.1-1-0.2-1.6-0.2c-0.5,0-0.9,0.1-1.4,0.2c-0.5,0.1-0.9,0.3-1.2,0.5
	c-0.4,0.2-0.7,0.5-0.9,0.9c-0.2,0.4-0.3,0.8-0.3,1.3c0,0.7,0.2,1.2,0.5,1.6c0.3,0.4,0.7,0.7,1.2,0.9c0.5,0.2,1.1,0.4,1.6,0.5
	c0.6,0.1,1.1,0.2,1.6,0.4c0.5,0.1,0.9,0.3,1.3,0.5c0.3,0.2,0.5,0.6,0.5,1c0,0.3-0.1,0.6-0.2,0.8c-0.2,0.2-0.4,0.4-0.6,0.5
	c-0.2,0.1-0.5,0.2-0.8,0.2c-0.3,0-0.6,0.1-0.8,0.1c-0.3,0-0.7,0-1-0.1c-0.3-0.1-0.6-0.2-0.9-0.3c-0.3-0.2-0.5-0.4-0.6-0.6
	C47.1,23.9,47,23.6,47,23.2z M58.3,16.2v-3.1h-1.7v3.1h-1.8v1.5h1.8v6.6c0,0.5,0,0.9,0.1,1.2c0.1,0.3,0.2,0.5,0.4,0.7
	c0.2,0.2,0.5,0.3,0.8,0.3c0.3,0.1,0.7,0.1,1.1,0.1h1.3V25h-0.8c-0.3,0-0.5,0-0.7,0c-0.2,0-0.3-0.1-0.4-0.1c-0.1-0.1-0.2-0.2-0.2-0.3
	c0-0.1,0-0.3,0-0.5v-6.4h2.1v-1.5H58.3z M63.5,21.3c0-0.6,0.1-1.2,0.2-1.7c0.2-0.5,0.4-0.9,0.7-1.2c0.3-0.3,0.6-0.6,1-0.8
	c0.4-0.2,0.8-0.3,1.3-0.3s0.9,0.1,1.2,0.3c0.4,0.2,0.7,0.4,1,0.8c0.3,0.3,0.5,0.7,0.7,1.2c0.2,0.5,0.3,1,0.3,1.7
	c0,0.6-0.1,1.2-0.3,1.7c-0.2,0.5-0.4,0.9-0.7,1.2c-0.3,0.3-0.6,0.6-1,0.7c-0.4,0.2-0.8,0.3-1.2,0.3s-0.9-0.1-1.3-0.3
	c-0.4-0.2-0.7-0.4-1-0.7c-0.3-0.3-0.5-0.7-0.7-1.2C63.6,22.5,63.5,22,63.5,21.3z M61.7,21.3c0,0.8,0.1,1.5,0.3,2.1
	c0.2,0.7,0.5,1.2,1,1.7c0.4,0.5,1,0.9,1.6,1.1c0.6,0.3,1.3,0.4,2.2,0.4c0.8,0,1.5-0.1,2.2-0.4c0.6-0.3,1.2-0.7,1.6-1.1
	c0.4-0.5,0.7-1.1,1-1.7c0.2-0.7,0.3-1.4,0.3-2.1c0-0.8-0.1-1.5-0.3-2.1c-0.2-0.7-0.5-1.2-1-1.7c-0.4-0.5-1-0.9-1.6-1.2
	c-0.6-0.3-1.3-0.4-2.2-0.4c-0.8,0-1.5,0.1-2.2,0.4C64,16.6,63.4,17,63,17.5c-0.4,0.5-0.7,1.1-1,1.7C61.8,19.9,61.7,20.6,61.7,21.3z
	 M73.8,16.2v10.3h1.7v-6.4c0-0.2,0-0.4,0.1-0.7c0.1-0.3,0.3-0.6,0.5-0.9c0.2-0.3,0.5-0.5,0.9-0.7c0.4-0.2,0.8-0.3,1.3-0.3
	c0.4,0,0.7,0.1,0.9,0.2c0.3,0.1,0.5,0.3,0.6,0.5c0.1,0.2,0.2,0.4,0.3,0.7c0.1,0.3,0.1,0.6,0.1,0.9v6.8h1.7v-6.4
	c0-0.8,0.2-1.4,0.7-1.9c0.5-0.5,1.1-0.7,2-0.7c0.4,0,0.7,0.1,1,0.2c0.3,0.1,0.5,0.3,0.6,0.5c0.1,0.2,0.2,0.4,0.3,0.7
	c0.1,0.3,0.1,0.6,0.1,0.9v6.8h1.7v-7.6c0-0.5-0.1-1-0.3-1.4c-0.2-0.4-0.4-0.7-0.7-0.9c-0.3-0.2-0.7-0.4-1.1-0.5
	c-0.4-0.1-0.9-0.2-1.4-0.2c-0.7,0-1.3,0.2-1.9,0.5c-0.6,0.3-1,0.7-1.4,1.3c-0.2-0.6-0.6-1.1-1.1-1.4c-0.5-0.3-1.1-0.4-1.7-0.4
	c-1.5,0-2.6,0.6-3.3,1.8h0v-1.5H73.8z M92.6,14.3v-2.1h-1.7v2.1H92.6z M90.9,16.2v10.3h1.7V16.2H90.9z M94.4,25.2v1.3h8.7V25h-6.6
	l6.3-7.7v-1.2h-8v1.5h5.8L94.4,25.2z M112,20.3h-5.9c0-0.4,0.1-0.8,0.3-1.1c0.1-0.4,0.3-0.7,0.6-0.9c0.3-0.3,0.6-0.5,0.9-0.6
	c0.4-0.2,0.8-0.2,1.2-0.2c0.4,0,0.8,0.1,1.2,0.2c0.4,0.1,0.7,0.4,0.9,0.6c0.3,0.3,0.5,0.6,0.6,0.9C111.9,19.6,112,19.9,112,20.3z
	 M113.7,23.2H112c-0.1,0.7-0.5,1.2-0.9,1.5c-0.5,0.3-1,0.5-1.8,0.5c-0.6,0-1-0.1-1.5-0.3c-0.4-0.2-0.8-0.4-1-0.7
	c-0.3-0.3-0.5-0.7-0.6-1.1c-0.1-0.4-0.2-0.8-0.2-1.3h7.7c0-0.6,0-1.3-0.2-2c-0.1-0.7-0.4-1.3-0.8-1.9c-0.4-0.6-0.8-1.1-1.5-1.4
	c-0.6-0.4-1.4-0.6-2.3-0.6c-0.7,0-1.4,0.1-2,0.4c-0.6,0.3-1.1,0.6-1.5,1.1c-0.4,0.5-0.8,1-1,1.7s-0.4,1.4-0.4,2.2
	c0,0.8,0.1,1.5,0.3,2.2c0.2,0.7,0.5,1.2,0.9,1.7c0.4,0.5,0.9,0.9,1.5,1.1c0.6,0.3,1.3,0.4,2.2,0.4c1.2,0,2.1-0.3,2.9-0.9
	C113,25.3,113.5,24.4,113.7,23.2z"/>
<path class="st2" d="M116,24.3v2.2h2.2v-2.2H116z"/>
<path class="st2" d="M122.4,13.2h2.3v2.2h-2.3V13.2z M122.4,17.2h2.3v10.3h-2.3V17.2z"/>
<path class="st2" d="M132.4,27.8c-0.8,0-1.6-0.1-2.2-0.4c-0.6-0.3-1.2-0.7-1.6-1.1c-0.4-0.5-0.8-1.1-1-1.7c-0.2-0.7-0.3-1.4-0.3-2.2
	c0-0.8,0.1-1.5,0.3-2.2c0.2-0.7,0.6-1.2,1-1.7c0.5-0.5,1-0.9,1.6-1.1c0.7-0.3,1.4-0.4,2.2-0.4c0.8,0,1.6,0.1,2.2,0.4
	c0.7,0.3,1.2,0.6,1.6,1.1c0.5,0.5,0.8,1.1,1,1.7c0.2,0.7,0.4,1.4,0.4,2.2c0,0.8-0.1,1.5-0.4,2.2c-0.2,0.7-0.6,1.2-1,1.7
	c-0.4,0.5-1,0.9-1.6,1.1C134,27.6,133.2,27.8,132.4,27.8z M132.4,26c0.5,0,0.9-0.1,1.3-0.3c0.4-0.2,0.7-0.5,0.9-0.8
	c0.2-0.3,0.4-0.7,0.5-1.2c0.1-0.4,0.2-0.9,0.2-1.3c0-0.4-0.1-0.9-0.2-1.3c-0.1-0.4-0.3-0.8-0.5-1.2c-0.2-0.3-0.5-0.6-0.9-0.8
	s-0.8-0.3-1.3-0.3c-0.5,0-0.9,0.1-1.3,0.3s-0.7,0.5-0.9,0.8c-0.2,0.3-0.4,0.7-0.5,1.2c-0.1,0.4-0.2,0.9-0.2,1.3
	c0,0.5,0.1,0.9,0.2,1.3c0.1,0.4,0.3,0.8,0.5,1.2s0.5,0.6,0.9,0.8C131.5,25.9,131.9,26,132.4,26z"/>
<path class="st1" d="M22.5,0H1.8C0.8,0,0,0.8,0,1.8v23.9c0,1,0.8,1.8,1.8,1.8h20.7c1,0,1.8-0.8,1.8-1.8V1.8C24.3,0.8,23.5,0,22.5,0z
	"/>
<path class="st1" d="M25.5,3H4.8C3.8,3,3,3.8,3,4.8v23.9c0,1,0.8,1.8,1.8,1.8h20.7c1,0,1.8-0.8,1.8-1.8V4.8C27.3,3.8,26.5,3,25.5,3z
	"/>
<path class="st0" d="M7.7,6h19.7c1,0,1.8,0.8,1.8,1.8v22.9c0,1-0.8,1.8-1.8,1.8H7.7c-1,0-1.8-0.8-1.8-1.8V7.8C5.9,6.8,6.7,6,7.7,6z"
	/>
<path class="st2" d="M12.2,11.7V26h1.9v-5l2.4-2.2l5.2,7.2h2.4l-6.3-8.5l6-5.8h-2.5l-7.2,7.1v-7.1H12.2z"/>
</svg>
