<?xml version="1.0" encoding="utf-8"?>
<!-- Generator: Adobe Illustrator 16.0.3, SVG Export Plug-In . SVG Version: 6.00 Build 0)  -->
<!DOCTYPE svg PUBLIC "-//W3C//DTD SVG 1.1//EN" "http://www.w3.org/Graphics/SVG/1.1/DTD/svg11.dtd">
<svg version="1.1" id="Layer_1" xmlns="http://www.w3.org/2000/svg" xmlns:xlink="http://www.w3.org/1999/xlink" x="0px" y="0px"
	 width="102.442px" height="25.958px" viewBox="8.779 17.021 102.442 25.958" enable-background="new 8.779 17.021 102.442 25.958"
	 xml:space="preserve">
<g transform="matrix(.424533 0 0 .424533 8.778874 17.021191)">
	<path d="M26.896,43.399v8.704H0V9.043h9.434v34.355H26.896z M31.062,22.9h9.066v29.198h-9.066V22.9z M35.596,8.395
		c2.903,0.001,5.257,2.354,5.259,5.257c0,2.906-2.356,5.255-5.26,5.255c-2.904,0-5.256-2.35-5.256-5.255
		c0.002-2.902,2.354-5.255,5.256-5.257 M97.355,22.897h11.1L96.555,36.396l11.652,15.702H96.825l-9.62-14.423h-0.117v14.423h-9.063
		V9.04h9.063v25.735L97.355,22.897z M45.143,22.914h8.702v4h0.121c1.208-2.298,4.169-4.713,8.579-4.713
		c9.189,0,10.881,6.043,10.881,13.896v16.001h-9.064V37.903c0-3.386-0.062-7.735-4.717-7.735c-4.712,0-5.436,3.686-5.436,7.493
		v14.43h-9.066V22.914L45.143,22.914z M127.549,34.108c0.06-3.021-2.296-5.56-5.562-5.56c-3.988,0-6.165,2.72-6.404,5.56H127.549z
		 M135.223,47.038c-2.898,3.687-7.672,5.804-12.399,5.804c-9.064,0-16.317-6.048-16.317-15.414c0-9.366,7.253-15.398,16.317-15.398
		c8.467,0,13.779,6.043,13.779,15.398v2.841h-21.032c0.72,3.444,3.324,5.68,6.83,5.68c2.963,0,4.955-1.5,6.469-3.565L135.223,47.038
		z M155.494,29.966c-4.529,0-7.246,3.024-7.246,7.433c0,4.414,2.719,7.432,7.246,7.432c4.536,0,7.258-3.018,7.258-7.432
		C162.749,32.99,160.03,29.966,155.494,29.966 M171.094,52.085h-8.341v-3.869h-0.12c-1.394,2.116-4.895,4.596-9.008,4.596
		c-8.704,0-14.446-6.284-14.446-15.173c0-8.158,5.077-15.653,13.415-15.653c3.75,0,7.255,1.027,9.302,3.867h0.115V9.04h9.072
		L171.094,52.085z"/>
	<path fill="#0177B5" d="M236.78,0h-52.107c-2.5,0-4.513,1.975-4.513,4.406v52.328c0,2.436,2.022,4.41,4.513,4.41h52.107
		c2.494,0,4.525-1.976,4.525-4.41V4.406C241.307,1.974,239.276,0,236.78,0z"/>
	<path fill="#FFFFFF" d="M189.225,22.923h9.07v29.18h-9.07V22.923z M193.762,8.418c2.903,0.003,5.254,2.356,5.256,5.257
		c0,2.903-2.353,5.256-5.256,5.259c-2.903,0-5.259-2.354-5.259-5.259S190.859,8.418,193.762,8.418 M203.984,22.923h8.695V26.9h0.122
		c1.198-2.293,4.171-4.712,8.578-4.712c9.185,0,10.881,6.044,10.881,13.901v16.003h-9.059v-14.2c0-3.384-0.064-7.736-4.716-7.736
		c-4.72,0-5.443,3.685-5.443,7.492v14.435h-9.059V22.902V22.923z"/>
</g>
</svg>
