<?xml version="1.0" encoding="utf-8"?>
<!-- Generator: Adobe Illustrator 16.0.3, SVG Export Plug-In . SVG Version: 6.00 Build 0)  -->
<!DOCTYPE svg PUBLIC "-//W3C//DTD SVG 1.1//EN" "http://www.w3.org/Graphics/SVG/1.1/DTD/svg11.dtd">
<svg version="1.1" id="Layer_1" xmlns="http://www.w3.org/2000/svg" xmlns:xlink="http://www.w3.org/1999/xlink" x="0px" y="0px"
	 width="97.817px" height="32.389px" viewBox="11.087 13.806 97.817 32.389" enable-background="new 11.087 13.806 97.817 32.389"
	 xml:space="preserve">
<path fill="#003764" d="M52.992,32.918H58.6v3.238h-9.497V23.508h3.9L52.992,32.918z M61.141,23.518h3.899v12.648h-3.899V23.518z
	 M75.6,30.278h0.039v-6.77h3.682v12.648h-3.799l-3.871-6.905h-0.037v6.905h-3.674V23.508h3.987L75.6,30.278z M93.73,31.271
	c0,3.525-1.86,5.199-5.76,5.199c-3.9,0-5.777-1.664-5.777-5.199V23.51h3.9v6.89c0,1.275,0,2.907,1.898,2.907
	s1.844-1.627,1.844-2.907v-6.894h3.9v7.762L93.73,31.271z M100.343,23.508l1.9,3.44l1.882-3.44h4.323l-4.058,5.955l4.514,6.693
	h-4.692l-2.164-3.771l-2.229,3.771h-4.465l4.567-6.73l-4.159-5.917L100.343,23.508z"/>
<path fill="#009BDE" d="M11.087,26.767v19.428H30.52v-6.475H17.574V26.767H11.087z"/>
<path fill="#003764" d="M17.564,20.308h19.434v19.413h-3.233v6.475h9.71V13.806h-32.38v9.714h6.47L17.564,20.308z"/>
</svg>
