<?xml version="1.0" encoding="utf-8"?>
<!-- Generator: Adobe Illustrator 27.3.1, SVG Export Plug-In . SVG Version: 6.00 Build 0)  -->
<svg version="1.1" id="Layer_1" xmlns="http://www.w3.org/2000/svg" xmlns:xlink="http://www.w3.org/1999/xlink" x="0px" y="0px"
	 viewBox="0 0 91 32" style="enable-background:new 0 0 91 32;" xml:space="preserve">
<style type="text/css">
	.st0{fill-rule:evenodd;clip-rule:evenodd;fill:#FFFFFF;}
</style>
<path class="st0" d="M39.5,0.9c-1.2,1.2-1.2,3.2,0,4.4c1.2,1.2,3.3,1.2,4.5,0c1.2-1.2,1.2-3.3,0-4.4C42.8-0.3,40.7-0.3,39.5,0.9z
	 M64.3,9.2l-2.9,0.5c-5.5,1.2-9.1,3-9.1,9.1v12.1l5,1V19.5c0-2.8,1.6-4.1,4.1-4.5l2.9-0.5V9.2z M26.1,30.8l5,1V18.2
	c0-6.5-5.1-8.9-8.6-8.9c-2.4,0-4.3,0.6-6,2.2c-1.7-1.6-3.8-2.3-5.5-2.3c-2.4,0-4.6,1.1-6,2.7V9.7l-5,1v20.2l5,1V18
	c0-2.2,1.6-3.8,4-3.8c2.4,0,4,1.6,4,3.8v12.8l5,1V18c0-2.2,1.6-3.8,4-3.8c2.4,0,4,1.6,4,3.8V30.8z M91,20.6C91,26.9,85.9,32,79.6,32
	c-6.3,0-11.5-5.1-11.5-11.4c0-6.2,5.1-11.4,11.5-11.4C85.9,9.3,91,14.4,91,20.6z M79.6,27.3c-3.7,0-6.7-3-6.7-6.7
	c0-3.6,3-6.6,6.7-6.6s6.6,2.9,6.6,6.6C86.2,24.3,83.2,27.3,79.6,27.3z M44.2,32l-5-1.2V10.6l5-1V32z"/>
</svg>
