<?xml version="1.0" encoding="UTF-8"?>
<svg id="Layer_1" xmlns="http://www.w3.org/2000/svg" version="1.1" viewBox="0 0 84.63 24">
  <!-- Generator: Adobe Illustrator 29.8.1, SVG Export Plug-In . SVG Version: 2.1.1 Build 2)  -->
  <defs>
    <style>
      .st0 {
        fill: #fff;
      }

      .st0, .st1 {
        fill-rule: evenodd;
      }

      .st1 {
        fill: #ea4b71;
      }
    </style>
  </defs>
  <path class="st1" d="M46.8,4.8c0,2.65-2.15,4.8-4.8,4.8-2.24,0-4.12-1.53-4.65-3.6h-6.7c-1.17,0-2.17.85-2.37,2.01l-.2,1.18c-.19,1.12-.76,2.1-1.56,2.81.8.71,1.37,1.69,1.56,2.81l.2,1.18c.19,1.16,1.19,2.01,2.37,2.01h1.9c.53-2.07,2.41-3.6,4.65-3.6,2.65,0,4.8,2.15,4.8,4.8s-2.15,4.8-4.8,4.8c-2.24,0-4.12-1.53-4.65-3.6h-1.9c-2.35,0-4.35-1.7-4.73-4.01l-.2-1.18c-.19-1.16-1.19-2.01-2.37-2.01h-1.96c-.6,1.97-2.43,3.4-4.59,3.4s-3.99-1.43-4.59-3.4h-2.81c-.6,1.97-2.43,3.4-4.59,3.4-2.65,0-4.8-2.15-4.8-4.8s2.15-4.8,4.8-4.8c2.31,0,4.24,1.63,4.7,3.8h2.61c.46-2.17,2.39-3.8,4.7-3.8s4.24,1.63,4.7,3.8h1.85c1.17,0,2.17-.85,2.37-2.01l.2-1.18c.39-2.31,2.39-4.01,4.73-4.01h6.7c.53-2.07,2.41-3.6,4.65-3.6,2.65,0,4.8,2.15,4.8,4.8ZM44.4,4.8c0,1.33-1.07,2.4-2.4,2.4s-2.4-1.07-2.4-2.4,1.07-2.4,2.4-2.4,2.4,1.07,2.4,2.4ZM4.8,14.2c1.33,0,2.4-1.07,2.4-2.4s-1.07-2.4-2.4-2.4-2.4,1.07-2.4,2.4,1.07,2.4,2.4,2.4ZM16.8,14.2c1.33,0,2.4-1.07,2.4-2.4s-1.07-2.4-2.4-2.4-2.4,1.07-2.4,2.4,1.07,2.4,2.4,2.4ZM37.2,21.6c1.33,0,2.4-1.07,2.4-2.4s-1.07-2.4-2.4-2.4-2.4,1.07-2.4,2.4,1.07,2.4,2.4,2.4Z"/>
  <path class="st0" d="M70.55,11.4v-.12c.86-.43,1.72-1.17,1.72-2.64,0-2.11-1.74-3.39-4.15-3.39s-4.23,1.35-4.23,3.43c0,1.41.82,2.17,1.72,2.6v.12c-1,.35-2.19,1.41-2.19,3.17,0,2.13,1.76,3.62,4.68,3.62s4.62-1.49,4.62-3.62c0-1.76-1.17-2.8-2.17-3.17ZM68.11,7.06c.98,0,1.7.63,1.7,1.68s-.74,1.68-1.7,1.68-1.76-.63-1.76-1.68.76-1.68,1.76-1.68ZM68.11,16.32c-1.14,0-2.06-.72-2.06-1.96,0-1.12.76-1.96,2.04-1.96s2.02.82,2.02,2-.88,1.92-2,1.92ZM51.6,18h2.51v-5.31c0-1.74,1.06-2.51,2.25-2.51s2.1.78,2.1,2.39v5.42h2.51v-5.93c0-2.56-1.49-4.05-3.82-4.05-1.47,0-2.29.59-2.88,1.35h-.16l-.22-1.16h-2.29v9.79ZM77.78,18h-2.51v-9.79h2.29l.22,1.16h.16c.59-.76,1.41-1.35,2.88-1.35,2.33,0,3.82,1.49,3.82,4.05v5.93h-2.51v-5.42c0-1.61-.92-2.39-2.09-2.39s-2.25.76-2.25,2.51v5.31Z"/>
</svg>