<?xml version="1.0" encoding="utf-8"?>
<!-- Generator: Adobe Illustrator 16.0.3, SVG Export Plug-In . SVG Version: 6.00 Build 0)  -->
<!DOCTYPE svg PUBLIC "-//W3C//DTD SVG 1.1//EN" "http://www.w3.org/Graphics/SVG/1.1/DTD/svg11.dtd">
<svg version="1.1" id="Layer_1" xmlns="http://www.w3.org/2000/svg" xmlns:xlink="http://www.w3.org/1999/xlink" x="0px" y="0px"
	 width="107.351px" height="25.733px" viewBox="4.925 15.726 107.351 25.733" enable-background="new 4.925 15.726 107.351 25.733"
	 xml:space="preserve">
<path d="M4.926,39.896c0.621-1.049,1.833-1.595,3.029-1.367c2.76,0.301,5.547,0.285,8.304-0.049c0.906-0.121,1.823-0.127,2.73-0.021
	l4.244,0.351c0.437,0.029,0.872,0.092,1.3,0.183c0.382,0.055,0.689,0.343,0.769,0.721c0.091,0.417-0.123,0.841-0.512,1.015
	c-0.375,0.215-0.797,0.336-1.23,0.353L19,40.865c-1.316-0.04-2.633-0.001-3.945,0.111c-1.815,0.181-3.644,0.192-5.46,0.034
	c-1.007-0.088-2.027-0.032-3.04-0.05c-0.62,0.085-1.24-0.166-1.63-0.66L4.926,39.896z M25.262,21.883l0.15,3.452
	c0.025,0.744,0.001,1.5-0.07,2.23c-0.22,1.545-0.22,3.113,0,4.658c0.095,0.67,0.074,1.351-0.06,2.014
	c-0.063,0.953-0.888,1.675-1.841,1.611c-0.022-0.002-0.045-0.004-0.067-0.006c-1.114-0.06-2.22-0.222-3.304-0.482
	c-0.79-0.243-1.463-0.768-1.894-1.473c-0.446-0.638-0.856-1.301-1.23-1.984c-0.642-1.195-1.433-2.305-2.353-3.303
	c-0.54-0.65-1.027-1.34-1.462-2.062c-0.094-0.18-0.202-0.353-0.321-0.517c-0.23-0.304-0.663-0.363-0.967-0.133
	c-0.12,0.091-0.207,0.218-0.247,0.363c-0.087,0.26-0.13,0.53-0.127,0.803l-0.1,4.67c-0.011,0.271-0.07,0.537-0.175,0.787
	c-0.324,0.605-0.341,1.328-0.047,1.947c0.196,0.383,0.044,0.854-0.339,1.05c-0.07,0.036-0.146,0.061-0.223,0.074
	c-1.154,0.442-2.437,0.407-3.564-0.101c-0.614-0.25-1.01-0.85-1-1.513l-0.12-3.354c-0.073-0.696,0.192-1.386,0.713-1.854
	c0.224-0.207,0.415-0.447,0.567-0.712c0.345-0.5,0.323-1.15-0.053-1.616c-1.017-1.339-1.46-3.026-1.235-4.692l0.075-3.346
	l0.008-0.813c-0.097-0.549,0.27-1.073,0.819-1.17c0.159-0.028,0.322-0.018,0.476,0.03c0.848-0.003,1.688-0.16,2.48-0.463
	c0.752-0.346,1.644-0.017,1.99,0.736c0.027,0.059,0.05,0.119,0.069,0.18c0.128,0.276,0.226,0.565,0.34,0.848
	c0.163,0.492,0.54,0.883,1.026,1.062c0.509,0.201,0.935,0.568,1.209,1.041l3.188,4.594c0.326,0.476,0.703,0.915,1.124,1.309
	c0.455,0.413,0.832,0.284,0.906-0.342c0.142-0.97,0.187-1.953,0.135-2.933c-0.088-1.52-0.072-3.044,0.051-4.562
	c-0.098-0.52,0.08-1.052,0.47-1.408c0.39-0.356,0.938-0.484,1.445-0.338l1.124,0.064c1.102-0.063,2.076,0.712,2.262,1.801
	c0.116,0.424,0.184,0.861,0.202,1.301l0.01,2.543L25.262,21.883z M49.546,27.376c-0.074-1.08,0.024-2.164,0.29-3.212
	c0.515-1.67,2.001-2.853,3.744-2.98c1.587-0.3,3.229,0.042,4.565,0.949c0.14,0.098,0.284,0.186,0.434,0.265
	c0.401,0.321,0.986,0.256,1.307-0.145c0.017-0.021,0.032-0.042,0.047-0.064c1.167-0.903,2.751-1.046,4.062-0.368
	c0.86,0.62,1.176,1.754,0.763,2.73c-0.596,1.449-0.715,3.049-0.342,4.57l0.32,3.132l0.267,3.433c0.035,1.16-0.347,2.293-1.076,3.195
	c-0.663,0.855-1.493,1.564-2.44,2.088c-0.5,0.372-1.159,0.452-1.734,0.213c-1.23-0.516-2.611-0.535-3.855-0.056
	c-1.03,0.367-2.146,0.433-3.212,0.188c-1.426-0.274-2.627-1.231-3.212-2.561c-0.375-0.513-0.345-1.216,0.072-1.695
	c0.452-0.443,1.14-0.539,1.698-0.24l0.467,0.199l0.455,0.226c1.42,0.524,2.902,0.85,4.337,1.317c1.292,0.322,2.6-0.464,2.922-1.756
	c0.025-0.102,0.044-0.205,0.056-0.309c0.109-0.63,0.129-1.271,0.058-1.907c0.024-0.38-0.265-0.708-0.645-0.732
	c-0.125-0.008-0.249,0.019-0.36,0.075c-0.514,0.164-1.007,0.385-1.47,0.66c-0.85,0.516-1.853,0.7-2.833,0.551
	c-1.415-0.209-2.598-1.183-3.074-2.531c-0.266-0.803-0.689-1.543-1.246-2.18c-0.23-0.33-0.35-0.723-0.347-1.124
	c-0.053-0.642-0.014-1.3-0.014-1.934L49.546,27.376z M59.71,28.402c-0.094-0.629-0.231-1.251-0.41-1.862
	c-0.353-1.136-1.399-1.915-2.589-1.927c-1.171,0.153-2.128,1.01-2.409,2.157c-0.04,0.093-0.066,0.191-0.077,0.292
	c-0.012,0.84,0.024,1.678,0.106,2.514c0.08,0.945,0.767,1.729,1.695,1.927c1,0.29,2.08-0.008,2.792-0.769
	c0.559-0.651,0.875-1.476,0.895-2.333L59.71,28.402z M29.54,31.943v-0.813c-0.068-0.794,0.238-1.575,0.828-2.1
	c0.59-0.525,1.397-0.765,2.18-0.62c0.169,0.012,0.337,0.036,0.503,0.071c0.704,0.174,1.448,0.018,2.021-0.426
	c0.825-0.604,1.813-0.945,2.835-0.975c0.47-0.03,0.937-0.1,1.39-0.238c0.435-0.105,0.81-0.38,1.042-0.763s0.3-0.843,0.19-1.277
	c-0.013-0.294-0.147-0.57-0.37-0.76c-0.223-0.19-0.515-0.283-0.807-0.252c-1.709-0.091-3.388,0.485-4.681,1.606
	c-0.182,0.197-0.432,0.317-0.699,0.337c-0.978,0.005-1.953-0.092-2.9-0.29c-0.713-0.085-1.221-0.732-1.136-1.445
	c0.052-0.434,0.319-0.813,0.71-1.008c1.522-1.285,3.506-1.887,5.485-1.664c1.074,0.162,2.167,0.144,3.235-0.055
	c2.598-0.305,5.003,1.41,5.56,3.966c0.05,0.47,0.004,0.944-0.137,1.394c-0.316,0.974-0.26,2.03,0.16,2.963
	c0.164,0.476,0.188,0.988,0.072,1.479c-0.161,0.795-0.154,1.615,0.018,2.408c0.19,0.471,0.11,1.008-0.204,1.406
	s-0.82,0.598-1.32,0.522c-0.54,0.01-1.084-0.011-1.624,0.024c-0.61,0.098-1.232-0.104-1.67-0.541
	c-0.157-0.185-0.383-0.298-0.625-0.313c-0.242-0.016-0.48,0.07-0.66,0.232c-0.173,0.164-0.376,0.291-0.598,0.375l-4.883,0.85
	c-0.711,0.02-1.417-0.124-2.064-0.419c-1.18-0.372-1.948-1.509-1.852-2.743l0.006-0.92L29.54,31.943z M36.437,33.24
	c0.169,0.011,0.338-0.004,0.503-0.043l3.62-1.54c0.398-0.216,0.547-0.712,0.333-1.111c-0.058-0.108-0.14-0.202-0.24-0.274
	c-0.577-0.83-1.62-1.195-2.59-0.91c-0.364,0.07-0.735,0.1-1.105,0.084c-0.438,0.009-0.875,0.053-1.307,0.13
	c-0.901,0.232-1.451,1.143-1.238,2.048c-0.02,0.817,0.603,1.507,1.418,1.567C36.031,33.227,36.236,33.227,36.437,33.24L36.437,33.24
	z M94.807,28.36c-0.07,1.464-0.445,2.898-1.102,4.208c-0.457,0.8-1.116,1.463-1.91,1.927c-0.504,0.36-1.15,0.463-1.74,0.274
	c-0.653-0.246-1.393-0.066-1.857,0.455c-0.508,0.513-1.26,0.698-1.948,0.482c-0.897-0.172-1.81-0.255-2.724-0.247
	c-0.68-0.004-1.336-0.244-1.857-0.681l-2.136-1.545c-0.46-0.303-0.74-0.812-0.759-1.361c-0.049-1.05-0.283-2.083-0.688-3.052
	c-0.414-1.282-0.164-2.685,0.667-3.746c0.13-0.197,0.33-0.34,0.557-0.403c0.833-0.227,1.523-0.807,1.893-1.587
	c0.433-1.1,1.625-1.672,2.75-1.343c0.197,0.05,0.404,0.06,0.605,0.024c1.469-0.202,2.957-0.194,4.422,0.026
	c2.123,0.01,4.045,1.253,4.926,3.184c0.541,1.05,0.851,2.204,0.904,3.384H94.807z M89.23,28.91c0.107-1.053-0.117-2.114-0.643-3.033
	c-0.635-1.269-2.18-1.783-3.449-1.147c-0.286,0.144-0.543,0.339-0.758,0.578c-1.382,1.77-1.554,4.2-0.436,6.145
	c0.777,0.935,2.028,1.331,3.201,1.014c1.137-0.345,1.94-1.356,2.021-2.541l0.063-1.017V28.91z M104.727,20.996l3.42,0.398
	c0.688,0.175,1.342,0.46,1.938,0.845c0.338,0.224,0.609,0.534,0.787,0.899c0.207,0.282,0.245,0.653,0.1,0.97
	c-0.145,0.317-0.449,0.532-0.8,0.56c-1.305,0.546-2.79,0.438-4.003-0.292c-0.443-0.248-0.926-0.419-1.426-0.508
	c-0.606-0.141-1.244,0.002-1.731,0.39c-0.307,0.17-0.497,0.494-0.5,0.845c-0.002,0.351,0.183,0.677,0.487,0.853
	c0.125,0.115,0.275,0.201,0.438,0.252c1.18,0.422,2.41,0.685,3.656,0.782c0.75-0.041,1.492,0.166,2.112,0.588
	c0.521,0.313,1.057,0.599,1.606,0.858c0.934,0.406,1.517,1.35,1.461,2.366c-0.08,2.29-0.963,3.757-3.222,4.144
	c-0.845,0.069-1.667,0.307-2.419,0.701c-0.246,0.113-0.514,0.172-0.785,0.172l-2.226,0.19c-1.722-0.105-3.399-0.575-4.925-1.38
	c-0.166-0.118-0.32-0.252-0.459-0.4c-0.572-0.394-0.719-1.178-0.324-1.752c0.217-0.315,0.566-0.516,0.947-0.543
	c0.925-0.205,1.873-0.274,2.817-0.207c0.488,0.133,0.927,0.4,1.267,0.774c0.738,0.677,1.742,0.981,2.731,0.829
	c0.437-0.051,0.86-0.186,1.246-0.398c0.399-0.199,0.658-0.627,0.63-1.082c-0.027-0.455-0.33-0.847-0.76-0.994
	c-0.182-0.088-0.385-0.127-0.572-0.205c-0.63-0.236-1.246-0.51-1.846-0.82c-0.813-0.499-1.77-0.714-2.719-0.612
	c-1.639,0.285-3.243-0.67-3.774-2.25c-0.565-1.582-0.042-3.348,1.295-4.366c1.152-0.97,2.616-1.494,4.123-1.473
	c0.479,0.012,0.962-0.035,1.431-0.14L104.727,20.996z M74.064,27.114c-0.033,0.432-0.025,0.867,0.025,1.298l0.391,5.254
	c0.121,1.07-0.648,2.035-1.719,2.156c-0.177,0.021-0.355,0.016-0.531-0.012c-1.119,0.026-2.17-0.547-2.752-1.506
	c-0.584-0.957-0.61-2.154-0.07-3.137c0.406-0.937,0.493-1.98,0.249-2.971l-0.63-4.306c-0.037-0.37-0.006-0.745,0.092-1.105
	c0.119-0.774,0.796-1.338,1.58-1.317c0.643-0.042,1.287-0.029,1.927,0.037c0.483,0.005,0.942,0.212,1.267,0.57
	c0.324,0.358,0.485,0.836,0.443,1.317v1.22c0.045,0.014-0.17,1.674-0.27,2.502L74.064,27.114z M71.814,15.766h0.304
	c0.713-0.08,1.403,0.278,1.748,0.907c0.344,0.629,0.274,1.404-0.179,1.962c-0.193,0.37-0.576,0.6-0.994,0.6
	c-0.673,0.025-1.348-0.004-2.017-0.087c-0.397-0.01-0.772-0.188-1.032-0.5c-0.258-0.312-0.377-0.7-0.326-1.095
	c-0.004-0.918,0.676-1.695,1.584-1.815c0.303-0.027,0.607,0,0.91,0v0.027L71.814,15.766z"/>
</svg>
