<?xml version="1.0" encoding="utf-8"?>
<!-- Generator: Adobe Illustrator 27.3.1, SVG Export Plug-In . SVG Version: 6.00 Build 0)  -->
<svg version="1.1"
	 id="svg8" xmlns:inkscape="http://www.inkscape.org/namespaces/inkscape" xmlns:sodipodi="http://sodipodi.sourceforge.net/DTD/sodipodi-0.dtd" xmlns:svg="http://www.w3.org/2000/svg"
	 xmlns="http://www.w3.org/2000/svg" xmlns:xlink="http://www.w3.org/1999/xlink" x="0px" y="0px" viewBox="0 0 1018 911"
	 style="enable-background:new 0 0 1018 911;" xml:space="preserve">
<style type="text/css">
	.st0{stroke:#000000;stroke-width:20;}
	.st1{fill:#C07CDD;}
	.st2{fill:#9723C9;}
	.st3{fill:none;stroke:#000000;stroke-width:40;}
	.st4{fill:#7DF9FF;}
	.st5{fill:#00BBC5;}
</style>
<sodipodi:namedview  bordercolor="#000000" borderopacity="0.25" id="namedview8" inkscape:current-layer="svg8" inkscape:cx="539.53964" inkscape:cy="540" inkscape:deskcolor="#d1d1d1" inkscape:pagecheckerboard="0" inkscape:pageopacity="0.0" inkscape:showpageshadow="2" inkscape:window-height="1369" inkscape:window-maximized="1" inkscape:window-width="3440" inkscape:window-x="-8" inkscape:window-y="-8" inkscape:zoom="1.0861111" pagecolor="#ffffff">
	</sodipodi:namedview>
<path id="path1" class="st0" d="M591,901.1L798,410L593.5,52.1H795L1002,410L800.5,901.1H591z"/>
<path id="path2" class="st0" d="M302.7,51.1c0,24,486.8,850.2,486.8,850.2H582L420.5,615.8L302.7,901.3L97,897.1l205.7-482.6
	L97,51.1H302.7z"/>
<path id="path3" class="st1" d="M532.5,871.6l207-490.5L535,23.6h201.5l207,357.5L742,871.6H532.5z"/>
<path id="path4" class="st2" d="M535,23.6l204.5,357.5h204l-207-357.5H535z"/>
<path id="path5" class="st3" d="M543.5,871.6l207-490.5L546,23.6h201.5l207,357.5L753,871.6H543.5z"/>
<path id="path6" class="st4" d="M244.2,22.6c0,23.9,486.8,849.2,486.8,849.2H523.5L362,586.6L244.2,871.8l-205.7-4.2l205.7-482
	L38.5,22.6H244.2z"/>
<path id="path7" class="st5" d="M38.5,22.6l205.7,363h202.5C340,201.6,244.2,33.2,244.2,22.6H38.5z"/>
<path id="path8" class="st3" d="M244.2,22.6c0,23.9,486.8,849.2,486.8,849.2H523.5L362,586.6L244.2,871.8l-205.7-4.2l205.7-482
	L38.5,22.6H244.2z"/>
</svg>
