<?xml version="1.0" encoding="utf-8"?>
<!-- Generator: Adobe Illustrator 16.0.3, SVG Export Plug-In . SVG Version: 6.00 Build 0)  -->
<!DOCTYPE svg PUBLIC "-//W3C//DTD SVG 1.1//EN" "http://www.w3.org/Graphics/SVG/1.1/DTD/svg11.dtd">
<svg version="1.1" id="Layer_1" xmlns:sketch="http://www.bohemiancoding.com/sketch/ns"
	 xmlns="http://www.w3.org/2000/svg" xmlns:xlink="http://www.w3.org/1999/xlink" x="0px" y="0px" width="738.973px"
	 height="212.228px" viewBox="1.027 0.827 738.973 212.228" enable-background="new 1.027 0.827 738.973 212.228"
	 xml:space="preserve">
<title>neovim-logo@2x</title>
<description>Created with Sketch (http://www.bohemiancoding.com/sketch)</description>
<g id="Page-1" sketch:type="MSPage">
	<g id="mark" transform="translate(1.000000, 1.000000)" sketch:type="MSLayerGroup">
		
			<linearGradient id="Left---green_1_" gradientUnits="userSpaceOnUse" x1="219.5508" y1="255.1406" x2="219.5508" y2="254.1406" gradientTransform="matrix(45.1965 0 0 -212.1713 -9900.2988 54133.3164)">
			<stop  offset="0" style="stop-color:#16B0ED;stop-opacity:0.8002"/>
			<stop  offset="1" style="stop-color:#0F59B2;stop-opacity:0.837"/>
		</linearGradient>
		<path id="Left---green" sketch:type="MSShapeGroup" fill="url(#Left---green_1_)" d="M0.027,45.458L45.224-0.173v212.171
			L0.027,166.895V45.458z"/>
		
			<linearGradient id="Right---blue_1_" gradientUnits="userSpaceOnUse" x1="222.4199" y1="255.1406" x2="222.4199" y2="254.1406" gradientTransform="matrix(-46.1252 0 0 -212.1467 10411.0752 54126.9961)">
			<stop  offset="0" style="stop-color:#7DB643"/>
			<stop  offset="1" style="stop-color:#367533"/>
		</linearGradient>
		<path id="Right---blue" sketch:type="MSShapeGroup" fill="url(#Right---blue_1_)" d="M174.663,45.889L128.848-0.148l0.929,212.146
			l45.196-45.104L174.663,45.889z"/>
		
			<linearGradient id="Cross---blue_1_" gradientUnits="userSpaceOnUse" x1="220.5649" y1="255.1406" x2="220.5649" y2="254.1406" gradientTransform="matrix(150.4494 0 0 -212.191 -33096.3516 54138.3672)">
			<stop  offset="0" style="stop-color:#88C649;stop-opacity:0.8"/>
			<stop  offset="1" style="stop-color:#439240;stop-opacity:0.84"/>
		</linearGradient>
		<path id="Cross---blue" sketch:type="MSShapeGroup" fill="url(#Cross---blue_1_)" d="M45.193-0.137L162.7,179.174l-32.882,32.881
			L12.25,33.141L45.193-0.137z"/>
		<path id="Shadow" sketch:type="MSShapeGroup" fill-opacity="0.13" d="M45.234,83.032l-0.063,7.063L8.891,36.532l3.359-3.422
			L45.234,83.032z"/>
	</g>
	<g id="wordmark" transform="translate(227.000000, 30.000000)" sketch:type="MSLayerGroup">
		<g id="Group" sketch:type="MSShapeGroup">
			<g transform="translate(0.000000, 29.000000)">
				<path id="Shape" fill="#444444" d="M0,95V5.44h4.655c1.55,0,2.445,0.751,2.686,2.25l0.806,13.501
					c4.058-5.159,8.787-9.316,14.188-12.466C27.733,5.575,33.747,4,40.371,4c4.893,0,9.206,0.781,12.935,2.34
					c3.729,1.561,6.817,3.811,9.265,6.75c2.447,2.942,4.297,6.481,5.55,10.621C69.374,27.853,70,32.533,70,37.754V95h-8.504V37.754
					c0-8.402-1.91-14.987-5.729-19.757c-3.82-4.771-9.667-7.156-17.544-7.156c-5.851,0-11.279,1.516-16.292,4.545
					c-5.013,3.032-9.489,7.187-13.427,12.466V95H0L0,95z"/>
				<path id="Shape_1_" fill="#444444" d="M123.624,4c5.066,0,9.755,0.868,14.068,2.605c4.313,1.738,8.053,4.268,11.22,7.592
					c3.166,3.324,5.639,7.412,7.419,12.264C158.109,31.313,159,36.883,159,43.172c0,1.317-0.195,2.215-0.588,2.695
					s-1.01,0.719-1.852,0.719H91.596v1.707c0,6.707,0.783,12.609,2.352,17.699c1.567,5.09,3.801,9.357,6.695,12.803
					c2.896,3.445,6.394,6.033,10.495,7.771c4.101,1.738,8.687,2.605,13.753,2.605c4.523,0,8.445-0.494,11.762-1.482
					s6.107-2.098,8.369-3.324s4.057-2.336,5.383-3.324c1.327-0.988,2.293-1.482,2.896-1.482c0.784,0,1.388,0.301,1.81,0.898
					l2.353,2.875c-1.447,1.797-3.362,3.475-5.745,5.031c-2.383,1.559-5.038,2.891-7.962,3.998c-2.926,1.109-6.063,1.99-9.409,2.65
					C130.998,95.67,127.636,96,124.257,96c-6.152,0-11.762-1.064-16.828-3.189s-9.415-5.225-13.043-9.299
					c-3.63-4.074-6.435-9.061-8.414-14.959C83.99,62.654,83,55.898,83,48.293c0-6.408,0.919-12.323,2.76-17.744
					c1.84-5.421,4.493-10.093,7.962-14.016c3.467-3.922,7.719-6.992,12.757-9.209C111.513,5.109,117.229,4,123.624,4L123.624,4z
					 M124.196,10c-4.695,0-8.903,0.702-12.622,2.105c-3.722,1.403-6.937,3.421-9.65,6.052c-2.713,2.632-4.907,5.79-6.586,9.474
					C93.66,31.316,92.55,35.438,92,40h60c0-4.679-0.672-8.874-2.014-12.588c-1.343-3.712-3.231-6.856-5.67-9.43
					c-2.438-2.572-5.366-4.545-8.781-5.921C132.122,10.688,128.343,10,124.196,10L124.196,10z"/>
				<path id="Shape_2_" fill="#444444" d="M208.546,4c6.526,0,12.368,1.092,17.524,3.279c5.153,2.187,9.5,5.287,13.04,9.299
					c3.538,4.012,6.237,8.85,8.099,14.51S250,43.082,250,50.09s-0.932,13.328-2.791,18.957c-1.861,5.631-4.561,10.453-8.099,14.465
					c-3.54,4.012-7.887,7.098-13.04,9.254C220.914,94.922,215.072,96,208.546,96c-6.528,0-12.369-1.078-17.524-3.234
					s-9.517-5.242-13.086-9.254s-6.285-8.836-8.145-14.465C167.93,63.418,167,57.098,167,50.09s0.93-13.342,2.791-19.002
					s4.575-10.496,8.145-14.51c3.569-4.012,7.931-7.112,13.086-9.299C196.177,5.094,202.018,4,208.546,4L208.546,4z M208.045,90
					c5.342,0,10.006-0.918,13.997-2.757c3.989-1.839,7.32-4.474,9.992-7.909c2.669-3.435,4.664-7.576,5.985-12.428
					c1.318-4.852,1.98-10.289,1.98-16.316c0-5.965-0.661-11.389-1.98-16.27c-1.321-4.881-3.316-9.053-5.985-12.519
					c-2.67-3.463-6.001-6.13-9.992-7.999C218.051,11.935,213.385,11,208.045,11s-10.008,0.935-13.997,2.802
					c-3.991,1.869-7.321,4.536-9.991,7.999c-2.672,3.466-4.681,7.638-6.031,12.519S176,44.625,176,50.59
					c0,6.025,0.675,11.465,2.025,16.316s3.359,8.993,6.031,12.428c2.67,3.436,6,6.07,9.991,7.909
					C198.037,89.082,202.703,90,208.045,90L208.045,90z"/>
				<path id="Shape_3_" fill="#444444" d="M303.569,93h-20.05L247,1h18.35c1.611,0,2.968,0.389,4.072,1.166
					c1.103,0.778,1.865,1.763,2.282,2.959l17.724,49.139c1.013,2.869,1.865,5.68,2.551,8.428c0.686,2.752,1.298,5.501,1.835,8.25
					c0.537-2.749,1.147-5.498,1.835-8.25c0.686-2.748,1.566-5.559,2.641-8.428l18.17-49.139c0.417-1.196,1.164-2.181,2.238-2.959
					C319.771,1.389,321.053,1,322.546,1H340L303.569,93L303.569,93z"/>
				<rect id="Rectangle" x="345" y="2" fill="#444444" width="23" height="92"/>
				<path id="Shape_4_" fill="#444444" d="M383,94V1.443h13.624c2.887,0,4.779,1.353,5.682,4.06l1.443,6.856
					c1.624-1.804,3.323-3.458,5.097-4.961s3.668-2.797,5.684-3.879c2.014-1.083,4.179-1.939,6.495-2.571
					C423.34,0.316,425.88,0,428.649,0c5.831,0,10.629,1.579,14.389,4.736c3.759,3.157,6.571,7.352,8.435,12.584
					c1.444-3.067,3.248-5.697,5.413-7.893c2.165-2.194,4.542-3.984,7.127-5.368c2.586-1.382,5.337-2.405,8.255-3.067
					C475.183,0.33,478.115,0,481.063,0c5.112,0,9.653,0.783,13.623,2.346c3.969,1.564,7.307,3.848,10.013,6.856
					c2.707,3.007,4.768,6.675,6.18,11.006c1.413,4.33,2.122,9.292,2.122,14.885V94h-22.284V35.092
					c0-5.895-1.294-10.329-3.878-13.306c-2.587-2.977-6.376-4.466-11.368-4.466c-2.286,0-4.404,0.392-6.358,1.173
					c-1.955,0.783-3.67,1.911-5.144,3.383c-1.473,1.474-2.631,3.324-3.474,5.548c-0.842,2.225-1.263,4.781-1.263,7.668V94H436.86
					V35.092c0-6.194-1.248-10.705-3.743-13.532c-2.498-2.826-6.18-4.24-11.052-4.24c-3.189,0-6.18,0.798-8.976,2.391
					c-2.799,1.593-5.398,3.774-7.804,6.541V94H383L383,94z"/>
			</g>
			<rect id="Rectangle_1_" x="345" fill="#444444" width="23" height="19"/>
		</g>
	</g>
</g>
</svg>
