<?xml version="1.0" encoding="utf-8"?>
<!-- Generator: Adobe Illustrator 16.0.3, SVG Export Plug-In . SVG Version: 6.00 Build 0)  -->
<!DOCTYPE svg PUBLIC "-//W3C//DTD SVG 1.1//EN" "http://www.w3.org/Graphics/SVG/1.1/DTD/svg11.dtd">
<svg version="1.1" id="Layer_1" xmlns="http://www.w3.org/2000/svg" xmlns:xlink="http://www.w3.org/1999/xlink" x="0px" y="0px"
	 width="85.547px" height="53.816px" viewBox="17.232 3.092 85.547 53.816" enable-background="new 17.232 3.092 85.547 53.816"
	 xml:space="preserve">
<path d="M24.932,56.62l-3.43-7.2l-1.947-4.536l-0.066,0.066l0.155,4.247l0.088,7.412h-2.5V41.3h2.876l3.717,7.476
	c0.623,1.271,1.148,2.589,1.572,3.938l0.066-0.065l-0.22-4.36l-0.044-7h2.413v15.3L24.932,56.62z M32.166,51.686v0.17
	c0,1.551,0.576,3.187,2.766,3.187c1.04,0,1.947-0.375,2.788-1.106l0.95,1.483c-1.116,0.97-2.548,1.497-4.027,1.483
	c-3.164,0-5.155-2.278-5.155-5.863c0-1.971,0.42-3.275,1.395-4.382c0.907-1.04,2.013-1.505,3.43-1.505
	c1.136-0.036,2.24,0.377,3.075,1.149c0.974,0.886,1.46,2.257,1.46,4.868v0.5L32.166,51.686z M34.312,46.986
	c-1.37,0-2.124,1.084-2.124,2.897h4.137C36.325,48.084,35.53,46.986,34.312,46.986z M51.8,56.664h-2.287l-1.37-5.155l-0.73-3.058
	h-0.044c0,0-0.17,1.105-0.73,3.164l-1.35,5.044h-2.28l-3.06-11.086l2.413-0.341l1.216,5.42l0.576,2.943h0.066
	c0.163-1.014,0.377-2.018,0.642-3.01l1.44-5.177h2.4l1.262,5.05l0.708,3.186h0.066l0.554-3l1.15-5.223h2.523L51.8,56.664z
	 M69.139,56.62L67.8,54.25c-1.06-1.88-1.771-2.939-2.6-3.8c-0.249-0.292-0.614-0.46-0.997-0.457v6.616h-2.5V41.3h4.67
	c3.43,0,4.979,2,4.979,4.382c0,2.2-1.416,4.205-3.807,4.205c0.555,0.287,1.572,1.771,2.367,3.059l2.256,3.673L69.139,56.62z
	 M65.598,43.368h-1.395v4.846h1.305c1.327,0,2.04-0.17,2.5-0.642c0.42-0.42,0.68-1.063,0.68-1.86c0.011-1.55-0.832-2.346-3.1-2.346
	L65.598,43.368z M75.5,51.686v0.17c0,1.551,0.576,3.187,2.766,3.187c1.041,0,1.947-0.375,2.789-1.106l0.949,1.483
	c-1.115,0.97-2.549,1.497-4.027,1.483c-3.164,0-5.154-2.278-5.154-5.863c0-1.971,0.42-3.275,1.395-4.382
	c0.907-1.04,2.014-1.505,3.43-1.505c1.137-0.036,2.24,0.377,3.076,1.149c0.973,0.886,1.459,2.257,1.459,4.868v0.5L75.5,51.686z
	 M77.648,46.986c-1.371,0-2.125,1.084-2.125,2.897h4.131c0-1.8-0.801-2.897-2.008-2.897H77.648z M86.74,56.854
	c-2.457,0-2.457-2.199-2.457-3.164v-9.537c0.027-1.096-0.043-2.2-0.213-3.274l2.5-0.554c0.171,0.68,0.201,1.615,0.201,3.074v9.5
	c0,1.506,0.065,1.748,0.242,2.014c0.199,0.227,0.523,0.297,0.797,0.17l0.398,1.505c-0.467,0.187-0.965,0.28-1.468,0.274
	L86.74,56.854z M90.975,43.754c-0.422-0.004-0.826-0.177-1.121-0.48c-0.295-0.303-0.457-0.711-0.451-1.135
	c0.006-0.649,0.402-1.234,1.007-1.476c0.604-0.242,1.294-0.097,1.748,0.37c0.454,0.466,0.58,1.16,0.319,1.757
	C92.217,43.387,91.624,43.768,90.975,43.754L90.975,43.754z M89.76,56.62V45.6l2.457-0.442v11.46L89.76,56.62z M99.186,56.908
	c-3.059,0-4.758-2.146-4.758-5.754c0-4.077,2.436-6.018,4.928-6.018c1.215,0,2.102,0.287,3.097,1.217l-1.2,1.613
	c-0.664-0.598-1.24-0.863-1.88-0.863c-0.763-0.014-1.46,0.432-1.771,1.129c-0.34,0.68-0.463,1.726-0.463,3.119
	c0,1.53,0.242,2.5,0.752,3.059c0.381,0.416,0.92,0.65,1.483,0.642c0.774,0,1.53-0.375,2.256-1.106l1.149,1.484
	c-1.018,1.012-2.079,1.478-3.582,1.478L99.186,56.908z"/>
<path fill="#008C99" d="M81.053,15.818C79.047,6.604,68,1.186,56.37,3.713C44.74,6.24,36.945,15.76,38.947,24.97
	C40.949,34.18,52,39.605,63.627,37.076C75.254,34.546,83.057,25.039,81.053,15.818z M60,28.887c-3.435,0-6.532-2.07-7.846-5.243
	s-0.588-6.827,1.84-9.255c2.428-2.428,6.082-3.156,9.255-1.84c3.173,1.316,5.243,4.41,5.243,7.846
	C68.492,25.095,64.689,28.888,60,28.887L60,28.887z"/>
<path fill="#70CCD3" d="M61.878,8.504c-6.734,0.001-12.192,5.462-12.19,12.196c0.002,6.734,5.46,12.192,12.195,12.192
	c6.735-0.002,12.193-5.46,12.193-12.194c0-3.235-1.285-6.337-3.572-8.623c-2.287-2.286-5.4-3.57-8.624-3.57L61.878,8.504z
	 M60,27.813c-4.098-0.002-7.418-3.327-7.416-7.424c0.001-1.965,0.782-3.85,2.17-5.24c2.899-2.896,7.597-2.894,10.493,0.005
	c1.389,1.391,2.17,3.274,2.171,5.24c-0.001,4.096-3.32,7.416-7.416,7.418L60,27.813z"/>
</svg>
