<?xml version="1.0" encoding="utf-8"?>
<!-- Generator: Adobe Illustrator 27.3.1, SVG Export Plug-In . SVG Version: 6.00 Build 0)  -->
<svg version="1.1" id="Layer_1" xmlns="http://www.w3.org/2000/svg" xmlns:xlink="http://www.w3.org/1999/xlink" x="0px" y="0px"
	 viewBox="0 0 51 55" style="enable-background:new 0 0 51 55;" xml:space="preserve">
<style type="text/css">
	.st0{fill:#00BD6C;}
	.st1{fill:#FFFFFF;}
	.st2{fill:#00BB6C;}
</style>
<g id="Sonatype_Logo_Favicon">
	<polygon class="st0" points="51,22.5 51,29.3 35.2,38.5 31.2,40.8 31.2,40.8 25.5,44.2 19.8,40.8 15.8,38.5 0,29.3 0,22.6 5.9,26 
		5.9,26 21.5,35.1 25.5,37.5 25.5,37.5 25.5,37.5 29.5,35.1 45.1,26 45.1,26 	"/>
</g>
<g id="Sonatype_Logo_Favicon-2">
	<polygon class="st1" points="51,33.4 51,40.1 35.2,49.3 31.2,51.7 31.2,51.7 25.5,55 19.8,51.6 15.8,49.3 0,40.1 0,33.4 5.9,36.8 
		5.9,36.9 21.5,46 25.5,48.3 25.5,48.3 25.5,48.3 29.5,46 45.1,36.9 45.1,36.8 	"/>
</g>
<g id="Sonatype_Logo_Favicon-3">
	<path class="st1" d="M45.1,4.7v10.5l-15.6,9.1l-4,2.3h0h0l-4-2.4L5.9,15.2V4.7H0v13.7l15.7,9.2l4,2.3l5.7,3.4l5.7-3.3l4-2.3
		L51,18.4V4.7L45.1,4.7L45.1,4.7z"/>
</g>
<path class="st2" d="M26.4,17.1v-11c0.7-1.1,2.6-1.9,4-1.9c0.5,0,0.9,0,1.2,0.1V0c-2,0-4,1.2-5.2,2.7V0.4h-4.3v16.7
	C22.1,17.1,26.4,17.1,26.4,17.1z"/>
</svg>
