<?xml version="1.0" encoding="utf-8"?>
<!-- Generator: Adobe Illustrator 16.0.3, SVG Export Plug-In . SVG Version: 6.00 Build 0)  -->
<!DOCTYPE svg PUBLIC "-//W3C//DTD SVG 1.1//EN" "http://www.w3.org/Graphics/SVG/1.1/DTD/svg11.dtd">
<svg version="1.1" id="svg3030" xmlns:svg="http://www.w3.org/2000/svg"
	 xmlns="http://www.w3.org/2000/svg" xmlns:xlink="http://www.w3.org/1999/xlink" x="0px" y="0px" width="563.145px"
	 height="159.024px" viewBox="0 0 563.145 159.024" enable-background="new 0 0 563.145 159.024" xml:space="preserve">
<path id="path22" fill="#404137" d="M298.536,0c-0.409,0.005-0.823,0.103-1.188,0.317c-0.73,0.428-1.189,1.215-1.189,2.061v60.643
	c0,0.596-0.277,1.128-0.793,1.427c-0.516,0.299-1.146,0.299-1.665,0l-9.909-5.708c-1.477-0.851-3.28-0.851-4.756,0l-39.557,22.831
	c-1.479,0.854-2.378,2.494-2.378,4.201v45.66c0,1.706,0.9,3.268,2.378,4.123l39.557,22.83c1.479,0.853,3.277,0.853,4.756,0
	l39.557-22.83c1.478-0.855,2.378-2.417,2.378-4.123V17.599c0-1.732-0.945-3.357-2.458-4.202L299.726,0.238
	C299.355,0.032,298.945-0.004,298.536,0L298.536,0z M44.075,56.996c-0.754,0.031-1.463,0.163-2.141,0.555L2.378,80.381
	C0.904,81.233,0,82.786,0,84.504l0.079,61.275c0,0.854,0.44,1.645,1.189,2.063c0.735,0.439,1.646,0.439,2.378,0l23.464-13.477
	c1.486-0.883,2.457-2.42,2.457-4.123v-28.616c0-1.707,0.898-3.274,2.378-4.122l9.988-5.787c0.745-0.431,1.546-0.634,2.378-0.634
	c0.815,0,1.653,0.202,2.378,0.634l9.988,5.787c1.48,0.848,2.378,2.415,2.378,4.122v28.616c0,1.703,0.981,3.25,2.458,4.123
	l23.464,13.477c0.737,0.439,1.647,0.439,2.378,0c0.729-0.418,1.189-1.209,1.189-2.063l0.079-61.275c0-1.719-0.894-3.271-2.378-4.123
	L46.69,57.551c-0.669-0.393-1.381-0.524-2.14-0.555H44.075L44.075,56.996z M399.528,57.551c-0.826-0.001-1.637,0.208-2.378,0.634
	l-39.557,22.831c-1.478,0.854-2.378,2.414-2.378,4.121v45.661c0,1.717,0.967,3.273,2.457,4.122l39.239,22.354
	c1.449,0.827,3.219,0.89,4.677,0.079l23.781-13.238c0.755-0.42,1.266-1.201,1.269-2.063c0.005-0.86-0.443-1.632-1.188-2.061
	l-39.795-22.83c-0.745-0.425-1.269-1.285-1.269-2.141v-14.269c0-0.853,0.53-1.635,1.269-2.062l12.366-7.134
	c0.736-0.426,1.64-0.426,2.379,0l12.366,7.134c0.738,0.427,1.188,1.209,1.188,2.062v11.257c0,0.854,0.45,1.635,1.189,2.061
	c0.742,0.428,1.64,0.43,2.378,0l23.702-13.793c1.472-0.854,2.378-2.42,2.378-4.122V85.137c0-1.702-0.903-3.268-2.378-4.123
	l-39.318-22.83C401.166,57.755,400.354,57.552,399.528,57.551L399.528,57.551z M281.255,91.638c0.207,0,0.449,0.051,0.634,0.157
	l13.556,7.848c0.368,0.213,0.634,0.605,0.634,1.031v15.695c0,0.426-0.264,0.818-0.634,1.031l-13.556,7.848
	c-0.369,0.21-0.82,0.21-1.189,0l-13.555-7.848c-0.369-0.214-0.634-0.605-0.634-1.031v-15.695c0-0.426,0.266-0.816,0.634-1.031
	l13.555-7.846C280.885,91.69,281.049,91.639,281.255,91.638L281.255,91.638z"/>
<path id="path28" fill="#83CD29" d="M518.039,56.441c-1.371,0-2.705,0.284-3.885,0.951l-37.337,21.562
	c-2.416,1.392-3.884,4.021-3.884,6.817v43.045c0,2.795,1.468,5.422,3.884,6.816l9.751,5.629c4.737,2.334,6.484,2.299,8.641,2.299
	c7.014,0,11.019-4.256,11.019-11.653V89.418c0-0.601-0.521-1.031-1.11-1.031h-4.677c-0.599,0-1.109,0.431-1.109,1.031v42.489
	c0,3.278-3.415,6.576-8.958,3.806l-10.146-5.945c-0.358-0.195-0.634-0.541-0.634-0.951V85.772c0-0.408,0.272-0.824,0.634-1.03
	l37.258-21.483c0.349-0.2,0.764-0.2,1.109,0l37.258,21.483c0.355,0.213,0.634,0.609,0.634,1.03v43.045
	c0,0.41-0.206,0.832-0.555,1.029l-37.337,21.483c-0.32,0.19-0.761,0.19-1.109,0l-9.592-5.708c-0.286-0.167-0.676-0.154-0.951,0
	c-2.648,1.502-3.146,1.676-5.629,2.537c-0.611,0.213-1.541,0.545,0.317,1.586l12.524,7.371c1.192,0.69,2.521,1.031,3.885,1.031
	c1.383,0,2.692-0.341,3.884-1.031l37.337-21.482c2.416-1.405,3.885-4.021,3.885-6.816V85.772c0-2.797-1.469-5.42-3.885-6.817
	l-37.337-21.562C520.753,56.725,519.41,56.441,518.039,56.441L518.039,56.441z M162.903,57.313c-0.824,0-1.64,0.208-2.378,0.634
	l-39.557,22.751c-1.479,0.853-2.378,2.495-2.378,4.201v45.66c0,1.708,0.9,3.269,2.378,4.122l39.557,22.83
	c1.479,0.854,3.277,0.854,4.756,0l39.557-22.83c1.477-0.854,2.378-2.414,2.378-4.122V84.9c0-1.708-0.899-3.349-2.378-4.201
	l-39.557-22.751C164.543,57.521,163.727,57.313,162.903,57.313z M528.027,87.2c-10.632,0-16.965,4.524-16.965,12.049
	c0,8.163,6.285,10.406,16.489,11.415c12.208,1.195,13.159,2.987,13.159,5.391c0,4.168-3.323,5.945-11.178,5.945
	c-9.867,0-12.036-2.464-12.763-7.372c-0.085-0.526-0.491-0.951-1.03-0.951h-4.836c-0.596,0-1.109,0.512-1.109,1.109
	c0,6.283,3.418,13.715,19.738,13.715c11.814,0,18.629-4.639,18.629-12.764c0-8.055-5.505-10.217-16.964-11.732
	c-11.58-1.531-12.684-2.281-12.684-4.993c0-2.239,0.936-5.232,9.513-5.232c7.66,0,10.492,1.652,11.652,6.817
	c0.102,0.486,0.53,0.872,1.031,0.872h4.835c0.298,0,0.587-0.183,0.793-0.396c0.203-0.228,0.346-0.485,0.317-0.792
	C545.907,91.383,539.975,87.2,528.027,87.2L528.027,87.2z M399.449,98.059c-0.158,0-0.333,0-0.477,0.079l-7.609,4.439
	c-0.285,0.162-0.476,0.464-0.476,0.792v8.721c0,0.328,0.19,0.629,0.476,0.793l7.609,4.359c0.286,0.164,0.59,0.164,0.872,0
	l7.61-4.359c0.282-0.162,0.476-0.465,0.476-0.793v-8.721c0-0.328-0.193-0.629-0.476-0.792l-7.61-4.439
	C399.704,98.055,399.607,98.059,399.449,98.059z"/>
</svg>
