<?xml version="1.0" encoding="utf-8"?>
<!-- Generator: Adobe Illustrator 27.3.1, SVG Export Plug-In . SVG Version: 6.00 Build 0)  -->
<svg version="1.1" id="Layer_1" xmlns="http://www.w3.org/2000/svg" xmlns:xlink="http://www.w3.org/1999/xlink" x="0px" y="0px"
	 viewBox="0 0 254.1 67.2" style="enable-background:new 0 0 254.1 67.2;" xml:space="preserve">
<style type="text/css">
	.st0{fill:#FFFFFF;}
	.st1{fill:#00CA8E;}
</style>
<path class="st0" d="M93,23.2v30.6h-7.4V13.5h10.2L111,44.1V13.5h7.4v40.3h-10.2L93,23.2z"/>
<path class="st0" d="M136.6,54.4c-10.1,0-12.8-5.6-12.8-11.6v-7.4c0-6,2.7-11.6,12.8-11.6c10.1,0,12.8,5.6,12.8,11.6v7.5
	C149.4,48.8,146.7,54.4,136.6,54.4z M136.6,30c-3.9,0-5.4,1.8-5.4,5.1V43c0,3.3,1.5,5.1,5.4,5.1c3.9,0,5.4-1.8,5.4-5.1v-7.9
	C142,31.8,140.5,30,136.6,30z"/>
<path class="st0" d="M171.9,53.8V33.2c0-1.6-0.7-2.4-2.4-2.4c-1.7,0-5,1.1-7.7,2.5v20.5h-7.4V24.3h5.6l0.7,2.5
	c3.7-1.8,7.7-2.9,11.8-3.1c2.8,0,4.6,1.2,5.6,3.1c3.7-1.9,7.7-3,11.9-3.1c4.9,0,6.6,3.4,6.6,8.7v21.4h-7.4V33.2
	c0-1.6-0.7-2.4-2.4-2.4c-2.7,0.3-5.3,1.1-7.7,2.5v20.5H171.9z"/>
<path class="st0" d="M224.5,53.8h-6.1l-0.6-2c-2.6,1.7-5.7,2.6-8.8,2.6c-5.4,0-7.7-3.7-7.7-8.8c0-6,2.6-8.3,8.6-8.3h7.1v-3.1
	c0-3.3-0.9-4.4-5.6-4.4c-2.7,0-5.5,0.3-8.2,0.9l-0.9-5.6c3.3-0.9,6.7-1.4,10.1-1.4c9.2,0,12,3.3,12,10.6L224.5,53.8z M217.2,42.7
	h-5.4c-2.4,0-3.1,0.7-3.1,2.9c0,2,0.7,3,3,3c2,0,3.9-0.5,5.6-1.5L217.2,42.7z"/>
<path class="st0" d="M229.1,34.1c0-6.5,2.9-10.4,9.7-10.4c2.6,0,5.3,0.3,7.9,0.8V12.3l7.4-1v42.5h-5.9l-0.7-2.5
	c-2.7,2-6,3.1-9.3,3.1c-5.9,0-9.1-3.5-9.1-10.2V34.1z M246.7,30.8c-2.1-0.5-4.3-0.7-6.5-0.8c-2.7,0-3.7,1.3-3.7,3.9v10.4
	c0,2.4,0.9,3.8,3.6,3.8c2.4-0.1,4.8-1,6.6-2.7V30.8z"/>
<path class="st1" d="M29.1,0L0,16.8v33.6l29.1,16.8l29.1-16.8V16.8L29.1,0z M42.1,37l-7.8,4.5L25,36.4v10.7l-8.8,5.6V30.3l7-4.3
	l9.7,5.1V20.2l9.2-5.6V37z"/>
</svg>
