<?xml version="1.0" encoding="utf-8"?>
<!-- Generator: Adobe Illustrator 27.3.1, SVG Export Plug-In . SVG Version: 6.00 Build 0)  -->
<svg version="1.1" id="Layer_1" xmlns="http://www.w3.org/2000/svg" xmlns:xlink="http://www.w3.org/1999/xlink" x="0px" y="0px"
	 viewBox="0 0 125.3 22" style="enable-background:new 0 0 125.3 22;" xml:space="preserve">
<style type="text/css">
	.st0{fill:#A88BFA;}
	.st1{fill:#FFFFFF;}
</style>
<path class="st0" d="M6.1,12.8c0.6-0.2,1.5-0.4,2.5-0.5c-0.6-1.6-0.8-3-0.7-4.2c0.1-1.4,0.6-2.6,1.1-3.6c0.1-0.2,0.2-0.4,0.3-0.6
	c0.1-0.3,0.3-0.5,0.4-0.8C10,2.7,10.1,2.3,10.2,2c0.1-0.3,0.1-0.7,0-1c-0.1-0.3-0.3-0.6-0.6-1c-0.5-0.1-1,0-1.4,0.3L3.7,4.5
	C3.4,4.7,3.2,5,3.2,5.3L2.8,7.9c0.6,0.5,2.1,2.1,3.1,4.3C5.9,12.4,6,12.6,6.1,12.8z"/>
<path class="st0" d="M2.6,9.1c0,0.1-0.1,0.2-0.1,0.3l-2.4,5.3c-0.2,0.5-0.1,1.2,0.3,1.6l3.8,3.9c1.9-2.8,1.6-5.5,0.8-7.6
	C4.3,11,3.3,9.8,2.6,9.1z"/>
<path class="st0" d="M5.1,20.7c0.1,0,0.1,0,0.2,0c0.7,0,1.9,0.1,2.9,0.3c0.8,0.1,2.4,0.6,3.7,1c1,0.3,2-0.5,2.2-1.5
	c0.1-0.7,0.3-1.6,0.7-2.4l0,0c-0.6-1.7-1.4-2.8-2.2-3.5c-0.8-0.7-1.7-1-2.5-1.2c-1.4-0.2-2.7,0.2-3.5,0.4
	C6.9,15.8,6.7,18.2,5.1,20.7z"/>
<path class="st0" d="M15.3,17c0.8-1.2,1.4-2.2,1.7-2.7c0.2-0.3,0.1-0.6-0.1-0.8c-0.5-0.6-1.4-1.9-1.9-3.1c-0.5-1.2-0.6-3.1-0.6-4
	c0-0.3-0.1-0.7-0.3-1l-2.9-3.7c0,0.2,0,0.3-0.1,0.5c-0.1,0.5-0.3,0.9-0.5,1.4c-0.1,0.3-0.3,0.6-0.4,0.8C10.1,4.6,10.1,4.8,10,5
	c-0.5,1-0.9,2-1,3.3c-0.1,1.2,0,2.5,0.7,4.1c0.1,0,0.2,0,0.4,0c1,0.1,2.1,0.5,3,1.4C13.9,14.5,14.7,15.5,15.3,17z"/>
<path class="st1" d="M35,4c-5.2,0-9,3.3-9,7.8s3.8,7.8,9,7.8c5.2,0,9-3.3,9-7.8S40.2,4,35,4z M35,7c3.1,0,5.4,1.9,5.4,4.8
	s-2.3,4.8-5.4,4.8c-3.2,0-5.4-1.9-5.4-4.8S31.8,7,35,7z"/>
<path class="st1" d="M48.8,18.1c0.8,0.8,2.2,1.5,4,1.5c3.8,0,6-2.6,6-5.8c0-3.2-2.2-5.8-6-5.8c-1.9,0-3.3,0.7-4,1.5V4.2h-3.4v15.2
	h3.4V18.1z M48.7,13.7c0-1.8,1.5-3,3.4-3c1.9,0,3.4,1.1,3.4,3.1s-1.6,3.1-3.4,3.1c-1.9,0-3.4-1.2-3.4-3V13.7z"/>
<path class="st1" d="M59.2,17.5c1.3,1.3,3.8,2.1,6.3,2.1c3.5,0,6.1-1.3,6.1-3.9c0-2.5-2.5-3-5.3-3.4c-2.4-0.3-3.1-0.3-3.1-1
	c0-0.6,0.8-0.9,2.2-0.9c1.7,0,3.2,0.5,4.2,1.5l1.8-2C70.3,8.8,68.2,8,65.6,8c-3.5,0-5.7,1.5-5.7,3.8c0,2.4,2.2,2.9,4.9,3.3
	c2.5,0.3,3.5,0.3,3.5,1c0,0.7-0.9,1-2.4,1c-1.9,0-3.7-0.6-5-1.8L59.2,17.5z"/>
<path class="st1" d="M72.9,7.1h3.4V4.2h-3.4V7.1z M76.3,8.2h-3.4v11.1h3.4V8.2z"/>
<path class="st1" d="M87.8,18.1v1.3h3.4V4.2h-3.4v5.3c-0.8-0.8-2.2-1.5-4-1.5c-3.8,0-6,2.6-6,5.8c0,3.2,2.2,5.8,6,5.8
	C85.7,19.6,87.1,18.9,87.8,18.1z M88,13.7v0.1c0,1.8-1.5,3-3.4,3c-1.9,0-3.4-1.1-3.4-3.1s1.6-3.1,3.4-3.1C86.5,10.7,88,12,88,13.7z"
	/>
<path class="st1" d="M93.3,7.1h3.4V4.2h-3.4V7.1z M96.7,8.2h-3.4v11.1h3.4V8.2z"/>
<path class="st1" d="M102.8,19.6c2,0,3.6-0.6,4.6-1.5c0.6,1.1,1.9,1.7,4.4,1.2v-2.5c-1.2,0.3-1.4,0-1.4-0.6v-4.1
	c0-2.8-2.1-4.2-5.6-4.2c-3.1,0-5.5,1.3-6.2,3.3l3,0.8c0.3-0.9,1.5-1.5,3-1.5c1.8,0,2.5,0.7,2.5,1.5v0.1l-4.4,0.4
	c-2.6,0.3-4.5,1.3-4.5,3.5C98.1,18.3,100.1,19.6,102.8,19.6z M107.1,15.1c0,1.3-1.9,2-3.7,2c-1.3,0-2-0.4-2-1.1c0-0.7,0.6-1,1.8-1.1
	l3.9-0.4V15.1z"/>
<path class="st1" d="M113,19.4h3.4V14c0-1.9,1.1-3,2.9-3c1.7,0,2.6,1.1,2.6,3v5.3h3.4V13c0-3.1-2-5-4.9-5c-1.8,0-3.2,0.7-4.1,1.6
	V8.2H113L113,19.4z"/>
</svg>
