<?xml version="1.0" encoding="utf-8"?>
<!-- Generator: Adobe Illustrator 27.3.1, SVG Export Plug-In . SVG Version: 6.00 Build 0)  -->
<svg version="1.1" id="Logos" xmlns="http://www.w3.org/2000/svg" xmlns:xlink="http://www.w3.org/1999/xlink" x="0px" y="0px"
	 viewBox="0 0 295.6 61.4" style="enable-background:new 0 0 295.6 61.4;" xml:space="preserve">
<style type="text/css">
	.st0{fill:#0D7FD7;}
</style>
<path d="M87.5,30.3c0.1,2.4-0.4,4.7-1.4,6.8c-0.8,1.9-2.2,3.5-4,4.6c-3.6,2.1-8.1,2.1-11.7,0c-1.8-1.1-3.1-2.6-4-4.5
	c-1-2.1-1.5-4.4-1.4-6.7v-1.3c-0.1-2.4,0.4-4.7,1.4-6.8c0.9-1.8,2.2-3.5,4-4.6c3.6-2.1,8.1-2.1,11.7,0c1.8,1.1,3.1,2.6,4,4.6
	c1,2.1,1.5,4.5,1.4,6.8V30.3z M82,29.1c0-2.8-0.5-4.9-1.5-6.3c-1.7-2.4-5-2.9-7.4-1.1c-0.4,0.3-0.8,0.7-1.1,1.1
	c-1,1.4-1.5,3.5-1.5,6.2v1.3c0,2.7,0.5,4.8,1.5,6.2s2.6,2.3,4.3,2.2c1.7,0.1,3.3-0.7,4.2-2.1c1-1.4,1.5-3.5,1.5-6.2V29.1z"/>
<path d="M96.8,39c0.9,0.1,1.7-0.2,2.4-0.8c0.6-0.5,1-1.3,1-2.1h4.9c0,1.3-0.4,2.6-1.1,3.7c-0.7,1.1-1.8,2-2.9,2.6
	c-1.2,0.6-2.6,1-4.1,0.9c-2.5,0.1-4.9-0.9-6.6-2.6c-1.6-1.8-2.4-4.3-2.4-7.4v-0.4c0-3,0.8-5.4,2.4-7.2c1.7-1.8,4.1-2.9,6.6-2.7
	c2.1-0.1,4.3,0.7,5.9,2.1c1.5,1.5,2.4,3.5,2.3,5.6h-4.9c0-0.9-0.3-1.8-1-2.5c-1.4-1.3-3.6-1.3-4.9,0.1c-0.1,0.1-0.1,0.1-0.2,0.2
	c-0.6,0.9-1,2.4-1,4.3v0.5c0,2,0.3,3.5,0.9,4.3C94.6,38.6,95.7,39.1,96.8,39z"/>
<path d="M112.8,18.5v4.8h3.4v3.8h-3.4v9.8c-0.1,0.6,0.1,1.1,0.4,1.5c0.4,0.4,1,0.5,1.6,0.4c0.5,0,1-0.1,1.5-0.1v4
	c-1,0.3-2.1,0.4-3.2,0.4c-3.7,0-5.5-1.8-5.6-5.6V27.1h-2.9v-3.8h2.9v-4.8H112.8z"/>
<path d="M115.7,32.9c0-1.8,0.4-3.6,1.1-5.2c0.7-1.5,1.8-2.7,3.2-3.5c1.5-0.9,3.2-1.3,4.9-1.3c2.4-0.1,4.7,0.8,6.5,2.4
	c1.8,1.8,2.7,4.1,2.8,6.6v1.3c0,3-0.8,5.4-2.5,7.2c-3.8,3.6-9.7,3.6-13.5,0c-1.7-1.8-2.5-4.3-2.5-7.4L115.7,32.9z M120.9,33.3
	c-0.1,1.5,0.3,3,1,4.3c1.2,1.6,3.7,2,5.3,0.7c0.2-0.2,0.5-0.4,0.7-0.7c0.7-1,1-2.5,1-4.6c0.1-1.5-0.3-2.9-1-4.3
	c-0.7-1-1.8-1.5-3-1.5c-1.2-0.1-2.3,0.5-2.9,1.5C121.3,29.6,120.9,31.2,120.9,33.3z"/>
<path d="M152.7,33.3c0,3-0.7,5.4-2.1,7.2c-1.3,1.8-3.4,2.8-5.5,2.7c-1.8,0.1-3.6-0.7-4.8-2.1v9.3h-5.2V23.3h4.9l0.1,1.9
	c1.2-1.5,3-2.4,4.9-2.3c2.2-0.1,4.3,0.9,5.6,2.6c1.3,1.8,2,4.3,2,7.4L152.7,33.3z M147.4,32.8c0.1-1.5-0.2-2.9-1-4.3
	c-0.6-1-1.7-1.5-2.8-1.5c-1.4-0.1-2.7,0.6-3.4,1.9v8c0.7,1.3,2,2.1,3.4,1.9C146.2,39,147.4,37,147.4,32.8z"/>
<path d="M165.2,40.9c-1.3,1.6-3.3,2.4-5.4,2.4c-1.8,0.1-3.5-0.5-4.8-1.8c-1.1-1.2-1.7-2.9-1.7-5.3V23.3h5.2v12.6
	c0,2.1,1,3.1,2.8,3.1s3-0.6,3.7-1.8V23.3h5.2v19.6h-4.9L165.2,40.9z"/>
<path d="M182.8,37.5c0-0.7-0.4-1.3-1-1.5c-1-0.4-2-0.8-3-1c-4.6-1-7-2.9-7-6c0-1.7,0.8-3.3,2.1-4.3c1.6-1.2,3.6-1.8,5.6-1.8
	c2.1-0.1,4.3,0.5,6,1.8c1.4,1.1,2.3,2.8,2.2,4.6h-5.2c0-0.7-0.2-1.4-0.7-1.8c-0.7-0.5-1.5-0.8-2.3-0.7c-0.7-0.1-1.5,0.1-2.1,0.6
	c-0.4,0.4-0.7,1-0.7,1.5s0.3,1.1,0.8,1.4c0.9,0.4,1.8,0.8,2.8,1c1.1,0.2,2.2,0.5,3.3,0.9c2.8,1,4.1,2.8,4.1,5.3
	c0,1.8-0.8,3.4-2.3,4.3c-1.8,1.2-3.8,1.8-6,1.7c-1.5,0-3-0.3-4.3-0.9c-1.2-0.5-2.2-1.3-3-2.4c-0.7-1-1.1-2.1-1.1-3.3h5
	c0,0.8,0.4,1.6,1,2.1c0.7,0.5,1.6,0.8,2.6,0.7c0.8,0.1,1.6-0.1,2.3-0.6C182.4,38.7,182.7,38.1,182.8,37.5z"/>
<path d="M196.2,42.8V16.5h8.1c2.2,0,4.3,0.5,6.2,1.5c1.8,1,3.3,2.6,4.3,4.4c1,2.1,1.5,4.3,1.5,6.5v1.2c0.1,2.3-0.5,4.5-1.5,6.5
	c-1,1.8-2.4,3.4-4.3,4.4c-1.9,1-4,1.6-6.2,1.6L196.2,42.8L196.2,42.8z M201.7,20.9v17.6h2.6c1.8,0.1,3.7-0.7,4.9-2.1
	c1.1-1.4,1.7-3.4,1.7-6v-1.4c0-2.6-0.6-4.7-1.7-6.1c-1.2-1.4-3-2.2-4.9-2.1L201.7,20.9z"/>
<path d="M226.6,43.2c-2.6,0.1-5.1-0.9-7-2.6c-1.8-1.8-2.8-4.4-2.7-7V33c0-1.8,0.4-3.6,1.2-5.3c0.7-1.5,1.8-2.7,3.2-3.6
	c1.5-0.9,3.1-1.3,4.8-1.3c2.4-0.1,4.7,0.8,6.3,2.5c1.5,1.7,2.3,4.1,2.3,7.2v2.1h-12.5c0.1,1.2,0.7,2.3,1.5,3.1
	c0.9,0.8,2.1,1.2,3.2,1.2c1.8,0.1,3.6-0.7,4.7-2.2l2.6,2.9c-0.8,1.1-1.9,2.1-3.2,2.6C229.6,42.9,228.1,43.2,226.6,43.2z M226,27.1
	c-1,0-1.9,0.4-2.5,1c-0.7,0.9-1.2,1.9-1.2,3h7.3v-0.4c0.1-1-0.3-2-1-2.7C227.9,27.4,226.9,27.1,226,27.1z"/>
<path d="M253,33.3c0,3-0.7,5.4-2.1,7.2c-1.3,1.8-3.4,2.8-5.5,2.7c-1.8,0.1-3.6-0.7-4.8-2.1v9.3h-5.2V23.3h4.9l0.1,1.9
	c1.2-1.5,3-2.4,4.9-2.3c2.2-0.1,4.3,0.9,5.6,2.6c1.3,1.8,2,4.3,2,7.4L253,33.3L253,33.3L253,33.3z M247.8,32.8
	c0.1-1.5-0.2-2.9-1-4.3c-0.6-1-1.7-1.5-2.8-1.5c-1.4-0.1-2.7,0.6-3.4,1.9v8c0.7,1.3,2,2.1,3.4,1.9C246.5,39,247.8,36.9,247.8,32.8z"
	/>
<path d="M259.1,42.8h-5.2V15h5.2V42.8z"/>
<path d="M259.9,32.9c0-1.8,0.4-3.6,1.2-5.2c0.7-1.5,1.8-2.7,3.2-3.5c1.5-0.9,3.2-1.3,4.9-1.3c2.4-0.1,4.7,0.8,6.5,2.4
	c1.8,1.8,2.7,4.1,2.8,6.6l0.1,1.3c0,3-0.8,5.4-2.5,7.2c-3.7,3.6-9.7,3.6-13.5,0c-1.7-1.8-2.5-4.3-2.5-7.4L259.9,32.9z M265.1,33.3
	c-0.1,1.5,0.3,3,1,4.3c1.2,1.6,3.7,2,5.3,0.7c0.2-0.2,0.5-0.4,0.7-0.7c0.7-1,1.1-2.6,1-4.6c0.1-1.5-0.3-2.9-1-4.3
	c-0.7-1-1.8-1.5-3-1.5c-1.2-0.1-2.3,0.5-2.9,1.5C265.5,29.6,265.1,31.1,265.1,33.3z"/>
<path d="M286.4,35.5l3.6-12.2h5.6l-7.9,22.6l-0.4,1c-0.9,2.4-3.2,3.9-5.8,3.8c-0.8,0-1.5-0.1-2.3-0.4v-4h0.8
	c0.7,0.1,1.5-0.1,2.2-0.4c0.5-0.4,1-0.9,1.2-1.5l0.6-1.6l-6.8-19.6h5.6L286.4,35.5z"/>
<path class="st0" d="M3.9,46.6c4.6-3,10-8.1,8-14.1c-1.2-3.2-2.7-6.1-2.9-9.6c-0.1-3,0.3-6,1.3-8.8C14.5,2.9,26.8-2.3,38,1
	c10.3,3.1,17.4,15.1,13.1,25.6c-2.5,6.1-3.6,10.7,1.9,15.4c1.5,1.3,5.1,3.2,5.1,5.4c0,3-5.8-0.6-6.5-1.2c0.7,1.3,8.1,8.9,3.4,9.5
	c-4.3,0.5-8.1-5.5-10.6-8.1c-4.3-4.3-3.6,5.2-3.6,7.2c0,3.1-2.2,9.4-6.1,5.3c-3.2-3.4-2-8.8-4.3-12.6c-2.5-4.1-6.6,4.1-7.7,5.6
	c-1.2,1.7-6.9,9.8-9.2,5.5c-1.9-3.5,1.1-9.1,2.6-12.3c-0.5,1.2-4.3,2.9-5.4,3.5c-2.4,1.3-5.1,1.9-7.9,1.8
	C-2.9,51.2,1.5,48.1,3.9,46.6L3.9,46.6z"/>
</svg>
