<?xml version="1.0" encoding="utf-8"?>
<!-- Generator: Adobe Illustrator 27.3.1, SVG Export Plug-In . SVG Version: 6.00 Build 0)  -->
<svg version="1.1" id="Layer_1" xmlns="http://www.w3.org/2000/svg" xmlns:xlink="http://www.w3.org/1999/xlink" x="0px" y="0px"
	 viewBox="0 0 976.8 342.6" style="enable-background:new 0 0 976.8 342.6;" xml:space="preserve">
<style type="text/css">
	.st0{fill:#F5A800;}
	.st1{fill:#425CC7;}
</style>
<path class="st0" d="M181.2,187.3c-14.6,14.6-14.6,38.3,0,52.9s38.3,14.6,52.9,0c14.6-14.6,14.6-38.3,0-52.9
	C219.5,172.7,195.8,172.7,181.2,187.3L181.2,187.3z M220.8,226.9c-7.2,7.2-19,7.2-26.2,0s-7.2-19,0-26.2s19-7.2,26.2,0
	S228,219.7,220.8,226.9z M256.2,194.9h15.7v7.9c3.8-5.2,9.1-9,17.2-9c12.9,0,25.2,10.1,25.2,28.6v0.2c0,18.5-12.1,28.6-25.2,28.6
	c-8.4,0-13.5-3.8-17.2-8.3v23.7h-15.7V194.9L256.2,194.9z M298.6,222.7v-0.2c0-9.2-6.2-15.3-13.5-15.3s-13.4,6.1-13.4,15.3v0.2
	c0,9.2,6.1,15.3,13.4,15.3C292.4,237.9,298.6,232,298.6,222.7z M325.4,222.8v-0.2c0-15.7,11.2-28.7,27.2-28.7
	c18.4,0,26.8,14.3,26.8,29.9c0,1.2-0.1,2.7-0.2,4.1h-38.3c1.5,7.1,6.5,10.8,13.5,10.8c5.2,0,9-1.6,13.4-5.6l8.9,7.9
	c-5.1,6.4-12.5,10.3-22.5,10.3C337.6,251.2,325.4,239.6,325.4,222.8z M364.2,218.1c-0.9-7-5-11.7-11.6-11.7
	c-6.5,0-10.7,4.6-11.9,11.7H364.2z M390.6,194.9h16v8c3.7-4.7,8.4-9,16.5-9c12.1,0,19.1,8,19.1,20.9v36.4h-16v-31.4
	c0-7.6-3.6-11.4-9.7-11.4s-10,3.9-10,11.4v31.4h-16v-56.3H390.6z M233.5,3.4l-22.9,22.9c-4.5,4.5-4.5,11.8,0,16.3l89.5,89.5
	c4.5,4.5,11.8,4.5,16.3,0l22.9-22.9c4.5-4.5,4.5-11.8,0-16.3L249.8,3.4C245.3-1.1,238-1.1,233.5,3.4z M73,296.1
	c4.1-4.1,4.1-10.7,0-14.8l-11.7-11.7c-4.1-4.1-10.7-4.1-14.8,0l-24,24l-6.6-6.6c-3.6-3.6-9.6-3.6-13.2,0s-3.6,9.6,0,13.2l39.7,39.7
	c3.6,3.6,9.6,3.6,13.2,0s3.6-9.6,0-13.2l-6.6-6.6C49,320.1,73,296.1,73,296.1z"/>
<path class="st1" d="M194.2,69.1L143.3,120c-4.5,4.5-4.5,12,0,16.5l31.4,31.4c22.2-16,53.4-14,73.4,6l25.4-25.4
	c4.5-4.5,4.5-12,0-16.5l-62.8-62.8C206.1,64.6,198.7,64.6,194.2,69.1L194.2,69.1z M161.5,181.2l-18.6-18.6c-4.3-4.3-11.5-4.3-15.8,0
	l-65.5,65.5c-4.3,4.3-4.3,11.5,0,15.8L98.7,281c4.3,4.3,11.5,4.3,15.8,0l42.1-42.1C147.8,220.4,149.4,198.2,161.5,181.2L161.5,181.2
	z M471.8,191.5H449v-15.2h62.1v15.2h-22.8v59.7h-16.5V191.5z M511.2,222.7v-0.2c0-15.7,11.2-28.7,27.2-28.7
	c18.4,0,26.8,14.3,26.8,29.9c0,1.2-0.1,2.7-0.2,4.1h-38.3c1.5,7.1,6.5,10.8,13.5,10.8c5.2,0,9-1.6,13.4-5.6l8.9,7.9
	c-5.1,6.4-12.5,10.3-22.5,10.3C523.4,251.2,511.2,239.6,511.2,222.7L511.2,222.7z M550,218.1c-0.9-7-5-11.7-11.6-11.7
	c-6.5,0-10.7,4.6-11.9,11.7H550z M576.3,176.3h15.6v74.9h-15.6V176.3z M603,222.8v-0.2c0-15.7,11.2-28.7,27.2-28.7
	c18.4,0,26.8,14.3,26.8,29.9c0,1.2-0.1,2.7-0.2,4.1h-38.3c1.5,7.1,6.5,10.8,13.5,10.8c5.2,0,9-1.6,13.4-5.6l8.9,7.9
	c-5.1,6.4-12.5,10.3-22.5,10.3C615.3,251.2,603,239.6,603,222.8L603,222.8z M641.9,218.2c-0.9-7-5-11.7-11.6-11.7
	c-6.5,0-10.7,4.6-11.9,11.7H641.9z M668.2,194.9h16v8c3.7-4.7,8.5-9,16.6-9c7.3,0,12.9,3.3,15.8,8.9c4.9-5.8,10.8-8.9,18.5-8.9
	c11.9,0,19,7.1,19,20.7v36.6h-16v-31.4c0-7.6-3.4-11.4-9.3-11.4c-6,0-9.7,3.9-9.7,11.4v31.4h-16v-31.4c0-7.6-3.4-11.4-9.3-11.4
	c-6,0-9.7,3.9-9.7,11.4v31.4h-16v-56.3H668.2z M765.2,222.7v-0.2c0-15.7,11.2-28.7,27.2-28.7c18.4,0,26.8,14.3,26.8,29.9
	c0,1.2-0.1,2.7-0.2,4.1h-38.3c1.5,7.1,6.5,10.8,13.5,10.8c5.2,0,9-1.6,13.4-5.6l8.9,7.9c-5.1,6.4-12.5,10.3-22.5,10.3
	C777.4,251.2,765.2,239.6,765.2,222.7L765.2,222.7z M804,218.1c-0.9-7-5-11.7-11.6-11.7c-6.5,0-10.7,4.6-11.9,11.7H804z
	 M832.1,234.2v-26.9h-6.8v-13.8h6.8V179h16.1v14.5h13.4v13.8h-13.3v24.2c0,3.7,1.6,5.5,5.2,5.5c3,0,5.6-0.7,7.9-2v12.9
	c-3.4,2-7.3,3.3-12.7,3.3C838.8,251.2,832.1,247.3,832.1,234.2L832.1,234.2z M873.7,194.5h16.2V206c3.3-7.9,8.6-13,18.2-12.6v17
	h-0.9c-10.8,0-17.4,6.5-17.4,20.2v21.1h-16.2L873.7,194.5L873.7,194.5z M959.6,193.9h17.2l-22.4,59.8c-4.5,11.9-9.3,16.3-19.2,16.3
	c-6,0-10.4-1.5-14.7-4l5.5-12c2.2,1.3,4.9,2.3,7.1,2.3c2.8,0,4.4-0.9,5.8-3.8L916,193.9h17.5l13.3,39.7L959.6,193.9L959.6,193.9z"/>
</svg>
