<?xml version="1.0" encoding="utf-8"?>
<!-- Generator: Adobe Illustrator 27.3.1, SVG Export Plug-In . SVG Version: 6.00 Build 0)  -->
<svg version="1.1" id="Layer_1" xmlns="http://www.w3.org/2000/svg" xmlns:xlink="http://www.w3.org/1999/xlink" x="0px" y="0px"
	 viewBox="0 0 89.9 24.2" style="enable-background:new 0 0 89.9 24.2;" xml:space="preserve">
<path d="M9.6,0C4.3,0,0,4.3,0,9.6s4.3,9.6,9.6,9.6s9.6-4.3,9.6-9.6S14.8,0,9.6,0z M9.6,15.7c-3.3,0-5.9-2.7-5.9-6.1s2.6-6.1,5.9-6.1
	s5.9,2.7,5.9,6.1S12.8,15.7,9.6,15.7z"/>
<path d="M28.8,5.3c-1.7,0-3.4,0.7-4.3,1.9V5.6h-3.5v18.6h3.5v-6.7c0.9,1.1,2.5,1.7,4.3,1.7c3.7,0,6.6-2.9,6.6-6.9S32.5,5.3,28.8,5.3
	z M28.2,16.1c-2,0-3.7-1.5-3.7-3.9s1.8-3.9,3.7-3.9s3.7,1.5,3.7,3.9S30.2,16.1,28.2,16.1z"/>
<path d="M43.6,5.3c-3.8,0-6.7,2.9-6.7,6.9s2.6,6.9,6.9,6.9c3.5,0,5.7-2.1,6.4-4.5h-3.4c-0.4,1-1.6,1.7-3.1,1.7c-1.8,0-3.1-1.2-3.5-3
	h10V12C50.2,8.3,47.7,5.3,43.6,5.3z M40.2,10.9c0.4-1.7,1.8-2.8,3.4-2.8c1.8,0,3.1,1.2,3.3,2.8H40.2z"/>
<path d="M59.4,5.3c-1.5,0-3.2,0.7-3.9,1.8V5.6h-3.5v13.3h3.5v-7.1c0-2.1,1.1-3.4,2.9-3.4c1.7,0,2.6,1.3,2.6,3.1v7.5h3.5v-8.1
	C64.5,7.5,62.4,5.3,59.4,5.3z"/>
<path d="M73.3,0.3l-7.5,18.6h3.7l1.6-4.1h8.6l1.6,4.1H85L77.5,0.3H73.3z M72.3,11.7l3.1-7.8l3.1,7.8H72.3z"/>
<path d="M89.9,0.3h-3.5v18.6h3.5V0.3z"/>
</svg>
