<?xml version="1.0" encoding="utf-8"?>
<!-- Generator: Adobe Illustrator 27.3.1, SVG Export Plug-In . SVG Version: 6.00 Build 0)  -->
<svg version="1.1" id="Layer_1" xmlns="http://www.w3.org/2000/svg" xmlns:xlink="http://www.w3.org/1999/xlink" x="0px" y="0px"
	 viewBox="0 0 824.9 165.3" style="enable-background:new 0 0 824.9 165.3;" xml:space="preserve">
<style type="text/css">
	.st0{fill:#FFFFFF;}
	.st1{fill:#6B76E3;}
	.st2{fill:#F45B49;}
	.st3{fill:#5ACA7A;}
	.st4{fill:#45A4F3;}
</style>
<path class="st0" d="M218.7,53.5c4.1,0,7.8,0.8,11.4,2.3c3.5,1.5,6.6,3.6,9.3,6.2c2.6,2.7,4.7,5.7,6.2,9.3c1.5,3.5,2.3,7.3,2.3,11.4
	c0,4-0.8,7.7-2.3,11.3c-1.5,3.5-3.6,6.6-6.2,9.3s-5.7,4.7-9.3,6.2c-3.5,1.5-7.3,2.3-11.4,2.3c-4,0-7.8-0.8-11.4-2.3
	c-3.5-1.5-6.6-3.6-9.3-6.2c-2.6-2.6-4.7-5.7-6.2-9.3c-1.5-3.5-2.3-7.3-2.3-11.3s0.8-7.8,2.3-11.4c1.5-3.5,3.6-6.6,6.2-9.3
	c2.7-2.6,5.7-4.7,9.3-6.2S214.7,53.5,218.7,53.5z M218.7,66.7c-4.4,0-8.2,1.5-11.3,4.6c-3.1,3.1-4.6,6.8-4.6,11.3s1.5,8.1,4.6,11.1
	c1.5,1.6,3.2,2.7,5.1,3.5c1.9,0.8,4,1.2,6.1,1.2s4.2-0.4,6.1-1.2c1.9-0.8,3.6-1.9,5.2-3.5c3.1-3.1,4.6-6.8,4.6-11.1
	c0-4.3-1.5-8.2-4.6-11.3C226.7,68.3,223,66.7,218.7,66.7z"/>
<path class="st0" d="M261.7,98.4h21.4c2.1,0,4.2-0.4,6.1-1.2c1.9-0.8,3.6-1.9,5.2-3.5c3.1-3.1,4.6-6.8,4.6-11.2
	c0-4.3-1.5-8.2-4.6-11.3c-3.2-3.1-7-4.6-11.3-4.6c-4.3,0-8.2,1.5-11.3,4.6c-3.1,3.1-4.6,6.8-4.6,11.3v49.7h-13.3V54.9h13.3v4.4
	c2.1-1.7,4.6-3.1,7.4-4.2c2.8-1.1,6-1.7,9.6-1.7c4,0,7.8,0.8,11.2,2.3c3.4,1.5,6.4,3.6,8.9,6.2c2.5,2.7,4.5,5.7,5.9,9.3
	s2.1,7.3,2.1,11.4c0,4.1-0.7,7.7-2.1,11.3c-1.4,3.5-3.4,6.6-5.9,9.3c-2.5,2.7-5.5,4.7-8.9,6.2c-3.4,1.5-7.2,2.3-11.2,2.3h-22.5V98.4
	L261.7,98.4z"/>
<path class="st0" d="M360.2,89.3h-28.9c0.7,1.7,1.8,3.2,3.2,4.5c1.5,1.6,3.3,2.7,5.2,3.5c1.9,0.8,3.9,1.2,6.1,1.2
	c3,0,5.7-0.7,8.1-2.1l13.8,5.5c-2.7,3.1-5.9,5.5-9.6,7.2c-3.8,1.7-7.8,2.6-12.2,2.6c-4.1,0-7.8-0.8-11.4-2.3
	c-3.5-1.5-6.6-3.6-9.3-6.2s-4.7-5.7-6.2-9.3s-2.3-7.3-2.3-11.3s0.8-7.8,2.3-11.4s3.6-6.6,6.2-9.3c2.6-2.6,5.7-4.7,9.3-6.2
	s7.3-2.3,11.4-2.3c4,0,7.8,0.8,11.4,2.3c3.5,1.5,6.6,3.6,9.3,6.2c2.6,2.7,4.7,5.7,6.2,9.3c1.5,3.5,2.3,7.3,2.3,11.4
	c0,2.4-0.3,4.6-0.8,6.6H360.2L360.2,89.3z M345.8,66.7c-4.3,0-8,1.5-11.3,4.6c-1.4,1.4-2.5,2.9-3.2,4.6h28.9
	c-0.7-1.7-1.8-3.2-3.2-4.6C353.9,68.3,350.2,66.7,345.8,66.7z"/>
<path class="st0" d="M408.8,53.5c3.6,0,6.9,0.7,9.8,2s5.5,3.2,7.6,5.6c2.1,2.4,3.7,5.2,4.9,8.3c1.1,3.2,1.7,6.5,1.7,10.2v30.6h-13.2
	V79.7c0-3.7-1.3-6.7-3.9-9.2c-2.5-2.5-5.5-3.8-9.1-3.8s-6.7,1.2-9.2,3.8s-3.8,5.6-3.8,9.2v30.6h-13.2V55h13.2v4.2
	c2-1.7,4.2-3.1,6.7-4.1S405.7,53.5,408.8,53.5L408.8,53.5z"/>
<path class="st0" d="M466.9,53.5c4,0,7.8,0.8,11.4,2.3c3.5,1.5,6.6,3.6,9.3,6.2c2.6,2.7,4.7,5.7,6.2,9.3s2.3,7.3,2.3,11.4
	c0,4-0.8,7.7-2.3,11.3c-1.5,3.5-3.6,6.6-6.2,9.3c-2.7,2.6-5.7,4.7-9.3,6.2c-3.5,1.5-7.3,2.3-11.4,2.3c-4.1,0-7.8-0.8-11.4-2.3
	c-3.5-1.5-6.6-3.6-9.3-6.2s-4.7-5.7-6.2-9.3c-1.5-3.5-2.3-7.3-2.3-11.3s0.8-7.8,2.3-11.4c1.5-3.5,3.6-6.6,6.2-9.3
	c2.6-2.6,5.7-4.7,9.3-6.2S462.8,53.5,466.9,53.5z M466.9,66.7c-4.4,0-8.2,1.5-11.3,4.6c-3.1,3.1-4.6,6.8-4.6,11.3s1.5,8.1,4.6,11.1
	c1.5,1.6,3.2,2.7,5.1,3.5c1.9,0.8,4,1.2,6.1,1.2c2.1,0,4.2-0.4,6.1-1.2c1.9-0.8,3.6-1.9,5.2-3.5c3.1-3.1,4.6-6.8,4.6-11.1
	c0-4.3-1.5-8.2-4.6-11.3C474.9,68.3,471.1,66.7,466.9,66.7z"/>
<path class="st0" d="M502.1,97.4l29.1,0.1c4.5,0,8.2-1.5,11.3-4.6c3.1-3.1,4.6-6.8,4.6-11.1c0-4.3-1.5-8.2-4.6-11.3
	c-3.1-3.1-6.8-4.6-11.3-4.6s-8,1.6-11.3,4.6c-3.1,3.1-4.6,6.8-4.6,11.3v27.6h-13.2V32h13.2v26.5c2.1-1.7,4.6-3.1,7.4-4.2
	s6-1.7,9.6-1.7c4,0,7.8,0.8,11.2,2.3c3.4,1.5,6.4,3.6,8.9,6.2c2.5,2.7,4.5,5.7,5.9,9.3c1.4,3.5,2.1,7.3,2.1,11.4
	c0,4-0.7,7.7-2.1,11.3c-1.4,3.5-3.4,6.6-5.9,9.3s-5.5,4.7-8.9,6.2c-3.4,1.5-7.2,2.3-11.2,2.3h-30.2"/>
<path class="st0" d="M586.2,76c0.9,0.2,2.3,0.7,4.4,1.5c2.1,0.8,4.2,1.9,6.3,3.4c2.2,1.4,4.1,3.2,5.7,5.3c1.6,2.1,2.4,4.7,2.4,7.6
	c0,2.6-0.4,4.9-1.3,7.1c-0.9,2.1-2.1,4-3.7,5.6c-1.6,1.6-3.6,2.9-6,3.8c-2.4,0.9-5,1.3-7.9,1.3c-4.5,0-8.7-0.8-12.5-2.4
	c-3.9-1.6-7-3.6-9.3-6l9.2-9.2c1.9,2.3,4,3.8,6.1,4.4c2.2,0.7,4,1,5.5,1c2.3,0,4-0.4,5.1-1.3c1.1-0.9,1.7-1.9,1.7-3.2
	c0-0.9-0.4-1.7-1.1-2.3c-0.7-0.7-1.6-1.2-2.6-1.7c-1-0.4-2-0.8-3-1c-1-0.3-1.9-0.5-2.5-0.7c-0.9-0.3-2.4-0.8-4.5-1.6
	c-2.1-0.7-4.2-1.8-6.4-3.2s-4.1-3.2-5.7-5.3c-1.6-2.1-2.4-4.7-2.4-7.7c0-3,0.5-5.8,1.6-8c1.1-2.2,2.5-4.1,4.2-5.6
	c1.8-1.5,3.8-2.6,6.1-3.3c2.3-0.7,4.6-1.1,7.1-1.1c3.8,0,6.9,0.4,9.5,1.3c2.6,0.9,4.8,1.8,6.5,2.9c1.9,1.2,3.5,2.6,4.9,4.2l-9.3,9.3
	c-1.5-1.9-3.1-3.3-4.9-4.2c-1.8-0.9-3.6-1.3-5.6-1.3c-1.5,0-3.1,0.4-4.6,1.1c-1.5,0.7-2.3,1.9-2.3,3.5c0,0.9,0.3,1.6,1,2.3
	c0.7,0.6,1.5,1.1,2.4,1.5c1,0.4,2,0.8,3,1.1C584.3,75.5,585.3,75.8,586.2,76L586.2,76z"/>
<path class="st0" d="M651.3,89.3h-28.9c0.7,1.7,1.8,3.2,3.2,4.5c1.5,1.6,3.3,2.7,5.2,3.5c1.9,0.8,3.9,1.2,6.1,1.2
	c3,0,5.7-0.7,8.1-2.1l13.8,5.5c-2.6,3.1-5.8,5.5-9.6,7.2c-3.8,1.7-7.8,2.6-12.2,2.6c-4,0-7.8-0.8-11.4-2.3c-3.5-1.5-6.6-3.6-9.3-6.2
	s-4.7-5.7-6.2-9.3s-2.3-7.3-2.3-11.3s0.8-7.8,2.3-11.4s3.6-6.6,6.2-9.3c2.7-2.6,5.7-4.7,9.3-6.2c3.5-1.5,7.3-2.3,11.4-2.3
	s7.8,0.8,11.4,2.3c3.5,1.5,6.6,3.6,9.3,6.2c2.6,2.7,4.7,5.7,6.2,9.3s2.3,7.3,2.3,11.4c0,2.4-0.3,4.6-0.8,6.6H651.3L651.3,89.3z
	 M636.8,66.7c-4.3,0-8,1.5-11.3,4.6c-1.4,1.4-2.5,2.9-3.2,4.6h28.9c-0.7-1.7-1.8-3.2-3.2-4.6C645,68.3,641.3,66.7,636.8,66.7z"/>
<path class="st0" d="M692.3,55c2.6-1.1,5.6-1.7,8.9-1.7v13.2c-4.4,0-8.2,1.6-11.3,4.6c-3.1,3.2-4.6,7-4.6,11.3v27.7H672V54.9h13.2
	v4.3C687.4,57.6,689.7,56.2,692.3,55z"/>
<path class="st0" d="M769.7,55l-25.6,55.2h-14.6L703.9,55h14.6l18.3,39.5L755.2,55H769.7L769.7,55z"/>
<path class="st0" d="M810.2,89.3h-28.9c0.7,1.7,1.8,3.2,3.2,4.5c1.5,1.6,3.3,2.7,5.2,3.5c1.9,0.8,3.9,1.2,6.1,1.2
	c3,0,5.7-0.7,8.1-2.1l13.8,5.5c-2.6,3.1-5.8,5.5-9.6,7.2c-3.8,1.7-7.8,2.6-12.2,2.6c-4,0-7.8-0.8-11.4-2.3c-3.5-1.5-6.6-3.6-9.3-6.2
	s-4.7-5.7-6.2-9.3s-2.3-7.3-2.3-11.3s0.8-7.8,2.3-11.4s3.6-6.6,6.2-9.3c2.7-2.6,5.7-4.7,9.3-6.2c3.5-1.5,7.3-2.3,11.4-2.3
	s7.8,0.8,11.4,2.3c3.5,1.5,6.6,3.6,9.3,6.2c2.7,2.7,4.7,5.7,6.2,9.3c1.5,3.5,2.3,7.3,2.3,11.4c0,2.4-0.3,4.6-0.8,6.6H810.2
	L810.2,89.3z M795.8,66.7c-4.3,0-8,1.5-11.3,4.6c-1.4,1.4-2.5,2.9-3.2,4.6h28.9c-0.7-1.7-1.8-3.2-3.2-4.6
	C804,68.3,800.2,66.7,795.8,66.7z"/>
<path class="st1" d="M131.4,35.1c-4.8,7.6-14.7,10-22.4,5.4c0,0-0.1,0-0.1-0.1c-0.1-0.1-0.3-0.2-0.4-0.2
	c-23.2-14.2-53.5-7.1-68,15.9c4.5-7.7,2.1-17.6-5.5-22.3C27.4,29,17.3,31.4,12.5,39c0,0,0-0.1,0.1-0.1
	C36.6,0.3,87.4-11.6,126.1,12.4c0,0,0,0,0.1,0c0,0,0,0,0,0C133.9,17.3,136.2,27.4,131.4,35.1L131.4,35.1z"/>
<path class="st2" d="M33.8,130.2c-4.8,7.7-2.5,17.8,5.2,22.6c0,0-0.1-0.1-0.1-0.1c-38.5-24-50.4-74.5-26.8-113.1
	c0.1-0.2,0.2-0.3,0.3-0.5c0,0,0-0.1,0.1-0.1c4.8-7.7,14.9-10,22.6-5.2c7.6,4.7,10,14.7,5.5,22.3c0,0,0,0,0,0c0,0,0,0.1-0.1,0.1
	c-0.1,0.1-0.2,0.3-0.2,0.4c0,0,0,0,0,0c-14.1,23.2-7,53.5,16,67.9C48.6,120.1,38.6,122.5,33.8,130.2L33.8,130.2z"/>
<path class="st3" d="M152.9,126.2c0,0.1-0.1,0.1-0.1,0.2c-24,38.5-74.5,50.4-113.1,26.8c-0.2-0.1-0.3-0.2-0.5-0.3c0,0-0.1,0-0.1-0.1
	c-7.7-4.8-10-14.9-5.2-22.6c4.8-7.6,14.7-10,22.4-5.4c0,0,0.1,0.1,0.1,0.1c0.1,0.1,0.3,0.2,0.4,0.2c0,0,0,0,0,0
	c23.2,14.2,53.5,7.1,68-16c-4.6,7.7-2.2,17.6,5.4,22.4C137.9,136.3,148,133.9,152.9,126.2L152.9,126.2z"/>
<path class="st4" d="M152.9,126.1C152.9,126.1,152.9,126.2,152.9,126.1C152.9,126.2,152.9,126.2,152.9,126.1
	c-4.9,7.8-15,10.1-22.7,5.3c-7.6-4.8-10-14.7-5.4-22.4c0,0,0.1-0.1,0.1-0.1c0.1-0.1,0.2-0.3,0.2-0.4c14.2-23.2,7.1-53.5-16-68
	c7.7,4.6,17.6,2.2,22.4-5.4c4.8-7.7,2.5-17.9-5.2-22.7c0.1,0,0.1,0.1,0.2,0.1C165,36.6,176.8,87.4,152.9,126.1L152.9,126.1z"/>
<path class="st0" d="M89,119.5L74.4,72.9L65.6,106l-9.1-18.8c-0.2-0.3-0.5-0.5-0.8-0.5H38c-1.8,0-3.3-1.4-3.3-3.2c0,0,0-0.1,0-0.1
	c0-1.8,1.5-3.3,3.3-3.3h17.6c2.9,0,5.5,1.7,6.8,4.2l1.4,2.8l10.1-38L89,97.3L100.3,61l7.5,17.6c0.2,0.4,0.6,0.8,1.1,0.8h18.8
	c1.8,0,3.3,1.4,3.3,3.2c0,0.1,0,0.1,0,0.2c0,1.8-1.5,3.2-3.3,3.2h-20.1c-2.4,0-4.5-1.4-5.5-3.6l-0.9-2.2L89,119.5L89,119.5z"/>
</svg>
