<?xml version="1.0" encoding="utf-8"?>
<!-- Generator: Adobe Illustrator 16.0.3, SVG Export Plug-In . SVG Version: 6.00 Build 0)  -->
<!DOCTYPE svg PUBLIC "-//W3C//DTD SVG 1.1//EN" "http://www.w3.org/Graphics/SVG/1.1/DTD/svg11.dtd">
<svg version="1.1"
	 id="Layer_1" xmlns:dc="http://purl.org/dc/elements/1.1/" xmlns:cc="http://creativecommons.org/ns#" xmlns:rdf="http://www.w3.org/1999/02/22-rdf-syntax-ns#"
	 xmlns="http://www.w3.org/2000/svg" xmlns:xlink="http://www.w3.org/1999/xlink" x="0px" y="0px" width="300.433px"
	 height="81.911px" viewBox="-0.192 109.356 300.433 81.911" enable-background="new -0.192 109.356 300.433 81.911"
	 xml:space="preserve">
<title>OpenJDK logo</title>
<desc>A free and open source implementation of Java Platform, Standard Edition (Java SE)</desc>
<g transform="translate(-75.7 -57.1)">
	<path fill="#E76F00" d="M97.032,166.458c-15.12-0.172-21.524,14.735-21.524,32.938c0,18.203,6.356,32.937,21.524,32.937
		c15.121,0,21.477-14.734,21.477-32.937C118.509,181.193,112.153,166.651,97.032,166.458z M97.032,172.333
		c8.62,0,13.387,9.053,13.387,27.063c0,18.058-4.96,27.062-13.387,27.062c-8.427,0-13.435-8.667-13.435-27.062
		S88.408,172.333,97.032,172.333L97.032,172.333z"/>
	<path fill="#E76F00" d="M146.149,183.504c-2.479,0.071-4.912,1.151-7.079,2.408c-1.439,0.848-3.655,3.448-3.655,3.448v-5.249h-7.03
		v63.563h7.03v-15.649c0,0,6.693,0.324,9.824-0.694c3.086-1.001,6.067-2.777,8.282-5.152c2.451-2.658,3.978-6.163,4.96-9.631
		c1.117-3.866,1.132-7.993,1.04-12.038c-0.09-3.929-0.115-8.042-1.55-11.701c-1.05-2.682-2.707-5.297-4.96-7.079
		c-1.792-1.387-4.098-2.345-6.356-2.408c-0.165-0.004-0.332-0.005-0.496,0L146.149,183.504z M144.358,189.524
		c0.132,0.001,0.258,0.002,0.391,0.015c1.536,0.147,2.865,1.319,3.958,2.408c1.479,1.473,2.644,3.352,3.265,5.345
		c0.91,2.904,0.515,6.067,0.51,9.102c-0.005,2.869,0.082,5.778-0.51,8.619c-0.544,2.572-1.219,5.249-2.755,7.367
		c-1.333,1.854-3.173,3.545-5.345,4.306c-1.623,0.573-3.467,0.298-5.153,0c-1.155-0.204-3.313-1.204-3.313-1.204v-31.156
		c0,0,2.09-1.892,3.313-2.571c1.753-0.978,3.646-2.268,5.634-2.258L144.358,189.524z"/>
	<path fill="#E76F00" d="M183.228,183.312c-2.832,0.088-5.73,1.132-8.042,2.754c-2.307,1.623-3.997,4.141-5.152,6.693
		c-1.349,2.981-1.561,6.356-1.897,9.631c-0.37,3.597-0.385,7.223-0.12,10.834c0.232,3.174,0.331,6.453,1.488,9.438
		c0.828,2.118,2.152,4.098,3.794,5.683c1.599,1.535,3.54,2.859,5.682,3.462c3.145,0.881,6.549,0.534,9.775,0
		c2.451-0.407,4.815-1.31,7.079-2.407c0.925-0.458,2.571-1.715,2.571-1.715l-1.883-3.959c0,0-3.891,2.043-6.019,2.408
		c-2.769,0.476-5.827,0.713-8.427-0.346c-2.143-0.872-3.896-2.717-5.152-4.652c-1.194-1.82-1.714-4.035-2.061-6.164
		c-0.34-2.094,0-6.355,0-6.355h23.403c0,0,0.311-9.438-0.857-13.917c-0.732-2.831-1.618-5.971-3.794-7.897
		c-2.576-2.312-6.356-3.4-9.775-3.448c-0.188-0.003-0.383-0.006-0.573,0L183.228,183.312z M183.83,188.272
		c0.91-0.024,1.849,0.205,2.648,0.631c1.161,0.621,2.061,1.709,2.798,2.798c1.04,1.536,1.743,3.303,2.196,5.104
		c0.549,2.172,0.602,6.693,0.602,6.693h-17.528c0,0,0.154-3.583,0.496-5.345c0.268-1.372,0.568-2.773,1.204-4.016
		c0.761-1.498,1.724-2.961,3.039-4.002c1.18-0.934,2.639-1.671,4.136-1.834c0.128-0.014,0.261-0.012,0.391-0.015L183.83,188.272z"/>
	<path fill="#E76F00" d="M209.713,183.938v47.047h6.886v-36.356c0,0,2.312-2.052,3.587-2.918c1.305-0.886,2.601-1.936,4.137-2.311
		c1.261-0.308,2.687-0.358,3.891,0.122c0.905,0.361,1.551,1.208,2.191,1.945c0.582,0.674,1.131,1.401,1.473,2.225
		c0.611,1.479,1.064,3.535,0.959,4.709V231h7.03v-34.671c0.054-0.804-0.713-3.819-1.459-5.586c-0.612-1.464-1.396-2.889-2.441-4.083
		c-0.747-0.853-1.671-1.575-2.668-2.119c-1.127-0.612-2.374-1.064-3.649-1.218c-1.493-0.181-3.044-0.019-4.498,0.365
		c-1.209,0.319-2.331,0.939-3.405,1.58c-1.045,0.626-1.945,1.459-2.918,2.191c-0.766,0.573-2.292,1.724-2.292,1.724l0.043-5.249
		L209.713,183.938z"/>
	<path fill="#5382A1" d="M250.643,167.132h12.713v62.118c0.051,1.296-0.572,4.686-1.377,6.887c-0.65,1.781-1.652,3.438-2.75,5.008
		c-0.934,1.314-2.084,2.465-3.227,3.611c-1.266,1.271-3.996,3.611-3.996,3.611l-6.887-5.682c0,0,1.975-2.316,2.75-3.611
		c0.92-1.527,1.781-3.135,2.234-4.863c0.348-1.32,0.344-4.084,0.344-4.084L250.643,167.132z"/>
	<path fill="#5382A1" d="M295.427,166.795l-19.117,0.166v64.526h20.129c0,0,5.586-0.597,8.09-1.714
		c3.039-1.349,5.826-3.419,8.09-5.875c2.75-2.962,5.008-6.501,6.356-10.305c1.792-4.96,2.095-10.401,2.225-15.65
		c0.109-4.373-0.036-8.86-1.204-13.05c-0.881-3.188-2.263-6.308-4.29-8.957c-1.743-2.249-4.045-4.141-6.549-5.489
		c-3.054-1.671-6.597-2.345-9.968-3.101c-1.242-0.275-3.775-0.511-3.775-0.511L295.427,166.795z M295.773,177.437
		c0,0,3.468,1.228,4.96,2.244c1.445,0.973,2.788,2.186,3.795,3.611c1.223,1.744,2.041,3.79,2.571,5.875
		c0.818,3.178,0.823,6.501,0.856,9.775c0.037,3.448,0.141,6.982-0.679,10.305c-0.475,1.946-1.314,3.813-2.407,5.489
		c-1.064,1.633-2.336,3.223-3.959,4.306c-1.676,1.117-5.682,2.062-5.682,2.062h-6.549V177.62L295.773,177.437z"/>
	<path fill="#5382A1" d="M331.061,166.892h12.568v27.592l16.661-27.592h14.639l-20.995,29.47l22.006,35.104h-15.842l-16.518-28.7
		v28.7h-12.568L331.061,166.892z"/>
</g>
</svg>
