<?xml version="1.0" encoding="utf-8"?>
<!-- Generator: Adobe Illustrator 16.0.3, SVG Export Plug-In . SVG Version: 6.00 Build 0)  -->
<!DOCTYPE svg PUBLIC "-//W3C//DTD SVG 1.1//EN" "http://www.w3.org/Graphics/SVG/1.1/DTD/svg11.dtd">
<svg version="1.1" id="Layer_1" xmlns="http://www.w3.org/2000/svg" xmlns:xlink="http://www.w3.org/1999/xlink" x="0px" y="0px"
	 width="800px" height="104.002px" viewBox="0 125.155 800 104.002" enable-background="new 0 125.155 800 104.002"
	 xml:space="preserve">
<path fill="#EA1B22" d="M345.365,192.816h52.862l-27.951-44.971l-51.303,81.309h-23.347l62.398-97.67
	c2.713-3.944,7.233-6.329,12.25-6.329c4.851,0,9.372,2.302,12.003,6.165l62.646,97.834h-23.347l-11.017-18.17H357.04
	L345.365,192.816L345.365,192.816z M587.893,210.984v-84.842H568.08v93.146c0,2.548,0.985,5.016,2.876,6.906
	c1.891,1.89,4.438,2.959,7.234,2.959h90.352l11.675-18.17h-92.326H587.893z M260.111,195.775c19.239,0,34.859-15.539,34.859-34.775
	c0-19.239-15.62-34.859-34.859-34.859h-86.676v103.017h19.806v-84.845h65.556c9.208,0,16.606,7.483,16.606,16.69
	s-7.398,16.688-16.606,16.688l-55.854-0.082l59.142,51.548h28.775l-39.791-33.378h9.043L260.111,195.775z M51.516,229.154
	C23.078,229.156,0,206.136,0,177.689s23.078-51.547,51.516-51.547h59.875c28.444,0,51.505,23.101,51.505,51.547
	c0,28.445-23.061,51.465-51.506,51.465H51.516L51.516,229.154z M110.06,210.986c18.423,0,33.345-14.881,33.345-33.297
	c0-18.414-14.922-33.377-33.345-33.377H52.841c-18.417,0-33.347,14.963-33.347,33.379c0,18.414,14.93,33.295,33.345,33.295h57.219
	H110.06L110.06,210.986z M486.278,229.154c-28.444,0-51.547-23.019-51.547-51.463c0-28.447,23.103-51.547,51.547-51.547h71.114
	L545.8,144.313h-58.206c-18.416,0-33.378,14.963-33.378,33.379c0,18.414,14.962,33.295,33.378,33.295h71.442l-11.675,18.169
	L486.278,229.154L486.278,229.154z M728.56,210.986c-15.21,0-28.116-10.194-32.063-24.254h84.678l11.674-18.168h-96.352
	c3.945-13.978,16.853-24.252,32.063-24.252h58.125l11.753-18.172h-71.194c-28.445,0-51.547,23.103-51.547,51.547
	c0,28.447,23.102,51.467,51.547,51.467h61.084L800,210.986h-71.442H728.56z"/>
</svg>
