<svg xmlns="http://www.w3.org/2000/svg" xmlns:xlink="http://www.w3.org/1999/xlink"
    viewBox="0 0 1920 1920" width="1920" height="1920" preserveAspectRatio="xMidYMid meet"
    style="width: 100%; height: 100%; transform: translate3d(0px, 0px, 0px); content-visibility: visible;">
    <defs>
        <clipPath id="__lottie_element_2">
            <rect width="1920" height="1920" x="0" y="0"></rect>
        </clipPath>
    </defs>
    <g clip-path="url(#__lottie_element_2)">
        <g style="display: block;" transform="matrix(1,0,0,1,960,960)" opacity="1">
            <g opacity="1" transform="matrix(15,0,0,15,0,0)"></g>
        </g>
        <g style="display: block;" transform="matrix(1,0,0,1,719.989990234375,1679.998046875)"
            opacity="1">
            <g opacity="1" transform="matrix(15,0,0,15,0,0)">
                <path fill="rgb(137,100,232)" fill-opacity="1"
                    d=" M29.333499908447266,0 C29.333499908447266,0 29.333499908447266,0 29.333499908447266,0 C29.333499908447266,4.415200233459473 25.748699188232422,8 21.333499908447266,8 C21.333499908447266,8 -21.333499908447266,8 -21.333499908447266,8 C-25.748699188232422,8 -29.333499908447266,4.415200233459473 -29.333499908447266,0 C-29.333499908447266,0 -29.333499908447266,0 -29.333499908447266,0 C-29.333499908447266,-4.415200233459473 -25.748699188232422,-8 -21.333499908447266,-8 C-21.333499908447266,-8 21.333499908447266,-8 21.333499908447266,-8 C25.748699188232422,-8 29.333499908447266,-4.415200233459473 29.333499908447266,0z"></path>
            </g>
        </g>
        <g style="display: block;" transform="matrix(1,0,0,1,1220.010009765625,1319.9849853515625)"
            opacity="1">
            <g opacity="1" transform="matrix(15,0,0,15,0,0)">
                <path fill="rgb(23,184,119)" fill-opacity="1"
                    d=" M12,0 C12,0 12,0 12,0 C12,4.415200233459473 8.415200233459473,8 4,8 C4,8 -4,8 -4,8 C-8.415200233459473,8 -12,4.415200233459473 -12,0 C-12,0 -12,0 -12,0 C-12,-4.415200233459473 -8.415200233459473,-8 -4,-8 C-4,-8 4,-8 4,-8 C8.415200233459473,-8 12,-4.415200233459473 12,0z"></path>
            </g>
        </g>
        <g style="display: block;" transform="matrix(1,0,0,1,740,1320)" opacity="1">
            <g opacity="1" transform="matrix(15,0,0,15,0,0)">
                <path fill="rgb(23,184,119)" fill-opacity="1"
                    d=" M12,0 C12,0 12,0 12,0 C12,4.415200233459473 8.415200233459473,8 4,8 C4,8 -4,8 -4,8 C-8.415200233459473,8 -12,4.415200233459473 -12,0 C-12,0 -12,0 -12,0 C-12,-4.415200233459473 -8.415200233459473,-8 -4,-8 C-4,-8 4,-8 4,-8 C8.415200233459473,-8 12,-4.415200233459473 12,0z"></path>
            </g>
        </g>
        <g style="display: block;" transform="matrix(1,0,0,1,1100,960)" opacity="1">
            <g opacity="1" transform="matrix(15,0,0,15,0,0)">
                <path fill="rgb(255,162,62)" fill-opacity="1"
                    d=" M17.333499908447266,0 C17.333499908447266,0 17.333499908447266,0 17.333499908447266,0 C17.333499908447266,4.415200233459473 13.748700141906738,8 9.333499908447266,8 C9.333499908447266,8 -9.333499908447266,8 -9.333499908447266,8 C-13.748700141906738,8 -17.333499908447266,4.415200233459473 -17.333499908447266,0 C-17.333499908447266,0 -17.333499908447266,0 -17.333499908447266,0 C-17.333499908447266,-4.415200233459473 -13.748700141906738,-8 -9.333499908447266,-8 C-9.333499908447266,-8 9.333499908447266,-8 9.333499908447266,-8 C13.748700141906738,-8 17.333499908447266,-4.415200233459473 17.333499908447266,0z"></path>
            </g>
        </g>
        <g style="display: block;" transform="matrix(1,0,0,1,1599.989990234375,959.9849853515625)"
            opacity="1">
            <g opacity="1" transform="matrix(15,0,0,15,0,0)">
                <path fill="rgb(255,162,62)" fill-opacity="1"
                    d=" M8,0 C8,0 8,0 8,0 C8,4.415200233459473 4.415200233459473,8 0,8 C0,8 0,8 0,8 C-4.415200233459473,8 -8,4.415200233459473 -8,0 C-8,0 -8,0 -8,0 C-8,-4.415200233459473 -4.415200233459473,-8 0,-8 C0,-8 0,-8 0,-8 C4.415200233459473,-8 8,-4.415200233459473 8,0z"></path>
            </g>
        </g>
        <g style="display: block;" transform="matrix(1,0,0,1,1000,600)" opacity="1">
            <g opacity="1" transform="matrix(15,0,0,15,0,0)">
                <path fill="rgb(37,166,233)" fill-opacity="1"
                    d=" M29.333499908447266,0 C29.333499908447266,0 29.333499908447266,0 29.333499908447266,0 C29.333499908447266,4.415200233459473 25.748699188232422,8 21.333499908447266,8 C21.333499908447266,8 -21.333499908447266,8 -21.333499908447266,8 C-25.748699188232422,8 -29.333499908447266,4.415200233459473 -29.333499908447266,0 C-29.333499908447266,0 -29.333499908447266,0 -29.333499908447266,0 C-29.333499908447266,-4.415200233459473 -25.748699188232422,-8 -21.333499908447266,-8 C-21.333499908447266,-8 21.333499908447266,-8 21.333499908447266,-8 C25.748699188232422,-8 29.333499908447266,-4.415200233459473 29.333499908447266,0z"></path>
            </g>
        </g>
        <g style="display: block;" transform="matrix(1,0,0,1,899.989990234375,240)" opacity="1">
            <g opacity="1" transform="matrix(15,0,0,15,0,0)">
                <path fill="rgb(137,100,232)" fill-opacity="1"
                    d=" M17.333499908447266,0 C17.333499908447266,0 17.333499908447266,0 17.333499908447266,0 C17.333499908447266,4.415200233459473 13.748700141906738,8 9.333499908447266,8 C9.333499908447266,8 -9.333499908447266,8 -9.333499908447266,8 C-13.748700141906738,8 -17.333499908447266,4.415200233459473 -17.333499908447266,0 C-17.333499908447266,0 -17.333499908447266,0 -17.333499908447266,0 C-17.333499908447266,-4.415200233459473 -13.748700141906738,-8 -9.333499908447266,-8 C-9.333499908447266,-8 9.333499908447266,-8 9.333499908447266,-8 C13.748700141906738,-8 17.333499908447266,-4.415200233459473 17.333499908447266,0z"></path>
            </g>
        </g>
        <g style="display: block;" transform="matrix(1,0,0,1,399.989990234375,240)" opacity="1">
            <g opacity="1" transform="matrix(15,0,0,15,0,0)">
                <path fill="rgb(137,100,232)" fill-opacity="1"
                    d=" M8,0 C8,0 8,0 8,0 C8,4.415200233459473 4.415200233459473,8 0,8 C0,8 0,8 0,8 C-4.415200233459473,8 -8,4.415200233459473 -8,0 C-8,0 -8,0 -8,0 C-8,-4.415200233459473 -4.415200233459473,-8 0,-8 C0,-8 0,-8 0,-8 C4.415200233459473,-8 8,-4.415200233459473 8,0z"></path>
            </g>
        </g>
        <g style="display: none;" transform="matrix(15,0,0,15,15,180)" opacity="1">
            <g opacity="1" transform="matrix(1,0,0,1,16,4)">
                <path fill="rgb(190,190,190)" fill-opacity="0.1"
                    d=" M1,-12 C1,-12 1,12 1,12 C1,12 -1,12 -1,12 C-1,12 -1,-12 -1,-12 C-1,-12 1,-12 1,-12z"></path>
            </g>
            <g opacity="1" transform="matrix(1,0,0,1,80,100)">
                <path fill="rgb(244,247,253)" fill-opacity="1"
                    d=" M1,-12 C1,-12 1,12 1,12 C1,12 -1,12 -1,12 C-1,12 -1,-12 -1,-12 C-1,-12 1,-12 1,-12z"></path>
            </g>
        </g>
    </g>
</svg>