<?xml version="1.0" encoding="utf-8"?>
<!-- Generator: Adobe Illustrator 27.3.1, SVG Export Plug-In . SVG Version: 6.00 Build 0)  -->
<svg version="1.1" id="Layer_1" xmlns="http://www.w3.org/2000/svg" xmlns:xlink="http://www.w3.org/1999/xlink" x="0px" y="0px"
	 viewBox="0 0 418.8 91.3" style="enable-background:new 0 0 418.8 91.3;" xml:space="preserve">
<style type="text/css">
	.st0{fill:#2583FB;}
	.st1{fill:#ED312A;}
	.st2{fill:#E9312B;}
	.st3{fill:#D53128;}
	.st4{fill:#257CF2;}
	.st5{fill:#2B7CE8;}
	.st6{fill:#D13427;}
	.st7{fill:#2175E5;}
	.st8{fill:#CA302A;}
	.st9{fill:#E4322A;}
	.st10{fill:#00A050;}
	.st11{fill:#FEBE00;}
	.st12{fill:#FEB700;}
	.st13{fill:#07914B;}
	.st14{fill:#059250;}
	.st15{fill:#FEB000;}
	.st16{fill:#FDA900;}
	.st17{fill:#666666;}
</style>
<g id="图层_2">
	<g id="图层_1-2">
		<path class="st0" d="M71.2,90.5c-0.9-0.3-1.8-0.5-2.7-0.4H32c-0.8-1.1-1.6-2.1-2.4-3.2c0.5-1.3-0.5-1.5-1.3-2
			c-1.2-1-2.2-2.3-3-3.7c0.5-1-0.2-1-0.9-1.2c-2.3-2.9-4.5-5.9-6.7-8.8c0.5-1-0.2-1-0.8-1.2l-7-9.1l-0.4-0.5
			c-1.1-1.4-2.2-2.9-3.3-4.3c-0.1-0.2-0.1-0.5-0.2-0.7c-0.3-0.2-0.6-0.4-0.9-0.6l-0.4-0.5l-2.6-3.4l-0.2-0.3
			c-1.2-1.4-1.8-3.1-1.9-4.9c-0.1-1.4,0.3-2.7,1.1-3.8C6.7,34.5,12.4,27.1,18,19.7l1.9,2.4c5,6.9,10.1,13.6,15.4,20.3l0,0
			c0.7,1,1,2.2,2.3,2.6c0.6,2.3,2.5,3.9,3.8,5.7c9.8,13,19.7,26,29.6,39C70.9,90,71,90.3,71.2,90.5z"/>
		<path class="st0" d="M17.6,71.3c0.1-0.7-0.5-0.8-0.8-1.2C17.3,70.3,18.1,70.4,17.6,71.3z M25.1,81.3c0.1-0.7-0.5-0.8-0.9-1.2
			C24.9,80.3,25.7,80.4,25.1,81.3z M29.5,87c-0.2-0.8-0.6-1.5-1.3-2C28.9,85.5,30,85.7,29.5,87z M37.4,45.1
			c-1.2-0.4-1.6-1.6-2.3-2.6l0,0c-5.3-6.6-10.5-13.4-15.4-20.3l-1.9-2.4c0.4,0,0.7,0.2,0.9,0.5c0.1,0.2,0.2,0.4,0.4,0.5
			c0.1,0.1,0.2,0.3,0.3,0.4c0.1,0.2,0.2,0.3,0.3,0.4c5,6.6,10,13.1,14.9,19.7l0.6,0.9l0.1,0.1C36.1,43.2,36.8,44.1,37.4,45.1z
			 M71.2,90.5c-0.4,0.2-0.9,0.3-1.3,0.2H35.2c-1.1,0.2-2.3-0.1-3.3-0.6h36.5C69.4,90.1,70.3,90.2,71.2,90.5z"/>
		<path class="st1" d="M44.6,35.7L44.6,35.7l-0.2,0.2c-0.3,0.2-0.8,0.4-0.8,1V37l0,0c-0.1,0.1-0.1,0.1-0.1,0.2l0,0L43,37.7l0,0
			c-0.4,0.3-0.8,0.6-1.3,0.6c-1,0-1.6-1.2-2.4-1.8c-0.1,0-0.1,0-0.1-0.1l-0.1-0.1l0,0v-0.1c-0.1-0.1-0.2-0.2-0.2-0.3L33.8,29
			l0.8,0.5l9.7,5.7l0.4,0.2h0.1L44.6,35.7z"/>
		<path class="st1" d="M71,0.6c0,0.3-0.3,0.7-0.9,1.5c-0.1,0.2-0.3,0.3-0.4,0.6c-0.3,0.4-0.6,0.8-0.9,1.2l0,0
			c-0.1,0.1-0.1,0.2-0.2,0.3s-0.2,0.2-0.2,0.3c-3.2,4.3-6.4,8.6-9.7,12.8c-2.2,2.9-4.4,5.7-6.5,8.5l0,0l-1,1.3l-6.6,8.7l0,0l0.1-0.2
			h-0.1l-0.4-0.2l-9.7-5.7l-0.8-0.5l0,0l-4.1-2.4c-1.2-1.6-2.7-3-4.4-4.1c-1.2-0.8-2.7-1.1-4.2-0.9l0,0l-2.3-1.4
			c-0.2-0.3-0.5-0.5-0.9-0.5c4.8-6.3,9.5-12.7,14.2-19c0.4-0.5,1.1-0.8,1.7-0.7h36.2C70.3,0.1,70.9-0.2,71,0.6z"/>
		<path class="st2" d="M39.5,36.2c-0.1,0.1-0.2,0.2-0.3,0.2h-0.1c-1.5-0.6-2.5-1.8-3.8-2.7l0,0c-0.2-0.2-0.5-0.4-0.7-0.5
			c-1-1-2.3-1.6-3.1-2.9c-0.1-0.1-0.1-0.2-0.2-0.4s-0.1-0.2-0.2-0.3c-0.8-1.4-1.8-2.6-2.9-3.8l0,0c-0.9-0.9-1.9-1.8-2.9-2.6
			c-1-0.6-2.1-1-3.3-1l0,0c-0.2,0-0.3,0-0.5-0.1h-0.6c-0.4,0-0.7-0.2-1-0.4c-0.3-0.3-0.7-0.5-1-0.7c-0.3-0.4-0.6-0.8-1-1.2
			c0.4,0,0.7,0.2,0.9,0.5l2.3,1.4l0,0c1.5-0.3,3,0.1,4.2,0.9c1.6,1.2,3.1,2.6,4.4,4.1l4.1,2.4l0,0l0.8,0.5c0.5,0.7,1,1.4,1.6,2.1
			C37.5,33.1,38.6,34.6,39.5,36.2z"/>
		<path class="st3" d="M38.8,43.3l-1.4,1.8c-1.2-0.4-1.6-1.6-2.3-2.6l0,0c-0.1-0.2-0.2-0.4-0.2-0.6c-0.1-0.2-0.1-0.3-0.2-0.5
			c-0.7-1.9-1.5-3.7-2.2-5.5c-0.8-2-1.8-3.9-1.8-6.1h0.1c0.1-0.1,0.3-0.1,0.4,0c0.3,0.1,0.6,0.3,0.8,0.5c0.6,1.3,2.3,1.5,2.8,2.8
			c0.2,0.2,0.4,0.4,0.5,0.7c0.2,0.5,0.3,1,0.5,1.5c0.8,2.5,1.7,4.9,2.7,7.2C38.6,42.8,38.8,43,38.8,43.3
			C38.8,43.1,38.8,43.2,38.8,43.3z"/>
		<path class="st4" d="M71.4,90.8c-0.1,0.1-0.1,0.1-0.1,0.2c-0.4,0.2-0.9,0.3-1.4,0.2h-36c-0.5,0.1-1,0-1.4-0.2
			c-0.4-0.1-0.6-0.4-0.7-0.8h36.5c0.9-0.1,1.8,0.1,2.7,0.4C71.3,90.6,71.3,90.7,71.4,90.8z"/>
		<path class="st0" d="M32.6,91h38.7c-0.3,0.5-0.8,0.3-1.3,0.3H34.1C33.6,91.2,33.1,91.4,32.6,91z"/>
		<path class="st5" d="M29.5,87c-0.5-0.6-1.2-1.1-1.3-2C28.9,85.5,30,85.7,29.5,87z"/>
		<path class="st6" d="M44.6,35.7L44.6,35.7l-0.2,0.2l-0.8,1V37l0,0v-0.1l0,0C43.2,36,43.9,35.9,44.6,35.7
			C44.6,35.8,44.6,35.7,44.6,35.7z"/>
		<path class="st7" d="M17.6,71.3c-0.3-0.4-0.6-0.8-0.8-1.2C17.3,70.3,18.1,70.4,17.6,71.3z M25.1,81.3l-0.9-1.2
			C24.9,80.3,25.7,80.4,25.1,81.3z"/>
		<path class="st8" d="M35.3,42.2C35.3,42.3,35.3,42.3,35.3,42.2c-0.1,0.2-0.2,0.2-0.2,0.3l0,0c-5.3-6.6-10.5-13.4-15.4-20.3
			L18.8,21l0.6,0.3c0.4,0.2,0.9,0.3,1.3,0.5c0.3,0.1,0.5,0.2,0.7,0.4l0,0c3.3,2,6.5,4.4,9.3,7.1c0.1,0.1,0.1,0.3,0.1,0.5l0,0
			c1.1,3.5,2.8,6.8,3.9,10.3C34.8,40.8,35.7,41.3,35.3,42.2z"/>
		<path class="st9" d="M31.9,30.2c-0.2-0.1-0.5-0.1-0.7-0.2c-0.2-0.1-0.4-0.1-0.5-0.2l0,0c-3.2-2.5-6.4-5.1-9.6-7.6
			c-0.1-0.1-0.3-0.2-0.4-0.3c0.1,0,0.2-0.1,0.3-0.1l0,0c1.5-0.3,3,0.1,4.2,0.9c1.6,1.2,3.1,2.6,4.4,4.1C30.5,27.8,31.3,29,31.9,30.2
			z"/>
		<path class="st1" d="M44.7,35.5l-0.2,0.3L44.4,36l-0.8,0.9V37l0,0L43,37.7l0,0l-1.8,2.5h-0.1l-2,2.7l-0.3,0.4l-1.4,1.8l0.8-2.6
			l0.2-0.2l1.7-2.1l0.4-0.4l1.2-1.5L42,38l2.3-2.7L44.7,35.5z"/>
		<path class="st3" d="M44.8,35.6l-0.2,0.1l0,0v0.1l-1,1.2l0,0l-0.1,0.2l0,0l-6.1,7.9l-2.2-2.8l-0.4-0.5L19.6,22.2l-1.8-2.4l0.8,0.5
			l2.4,1.4l0,0l0.9,0.5l0,0l6.2,3.6l0,0l1.5,0.9l4.1,2.4l0,0l0.8,0.5l9.8,5.7L44.8,35.6L44.8,35.6z"/>
		<path class="st10" d="M117.1,41c-6.5-8.3-12.9-16.7-19.2-25.3c-1.2-2.3-2.9-4.5-4.8-6.3c-2.3-3-4.6-6-6.9-8.9
			c0.6-0.7,1.2-0.4,1.8-0.4c11.9,0,23.7,0,35.6-0.1c1.1,0,2.2,0.5,2.8,1.4c9.9,13.2,19.9,26.3,29.9,39.5c2.4,3.2,2.5,6.1,0.1,9.3
			c-4.3,5.8-8.8,11.5-13.2,17.3c-1,0.3-1.3,1.2-1.9,2c-0.8,1-1.6,1.1-2.5,0.1c-1.1-1.2-1.9-2.5-2.9-3.8c-4.6-6.1-9.3-12.2-13.9-18.3
			c-1.3-1.7-2.4-3.7-3.7-5.4C118,41.6,117.6,41.3,117.1,41z"/>
		<path class="st11" d="M140,71.4l-9.6,12.9c-1.4,1.9-2.9,3.8-4.3,5.7c-0.4,0.8-1.2,1.2-2.1,1.2H87.4c-0.4,0-0.8-0.1-1.2-0.2
			c0.8-1.6,1.9-3.1,3.1-4.4c9.3-12.3,18.7-24.6,28-36.9c0.3-0.4,0.6-0.7,1-1c0.8,1.2-0.2,1.9-0.8,2.6c-0.9,1.1-0.8,1.9,0.3,2.6
			s2.2,1.9,3.5,2.6c2.3,1.7,4.4,3.7,6.8,5.2c3.8,2.7,7.2,5.9,11.2,8.4C139.8,70.5,140.1,70.8,140,71.4z"/>
		<path class="st12" d="M121.1,57c-0.7-0.3-1.4-0.7-1.9-1.3c-1-1-2.6-1.4-3-2.7s1.5-2,1.9-3.2c0.1-0.3,0.1-0.6,0.2-0.9
			c0.7-1.1,1.4-2.2,2.1-3.2c1.7,1.5,3.1,3.3,4.2,5.3C124.5,53.4,123.2,55.7,121.1,57z"/>
		<path class="st13" d="M124.3,50.9c-1.3-1.8-2.7-3.6-4-5.3l-3.3-4.5c1.1-0.4,1.2,0.7,1.6,1.2c6.6,8.8,13.3,17.6,19.9,26.4
			c1.3,1.7,1.6,1.7,2.9,0c0.4-0.5,0.5-1.6,1.6-1.2c-1,1.3-2.1,2.6-3.1,4l-0.9-0.9c-3.5-3.5-6.1-7.6-9.1-11.4
			c-1.4-1.9-2.9-3.8-4.3-5.7C125.1,52.7,124.7,51.8,124.3,50.9z"/>
		<path class="st14" d="M93,9.4c0.1-0.1,0.2-0.1,0.3-0.2c1.9,1.9,3.5,4,4.8,6.3c0,0-0.2,0.2-0.2,0.3C96.2,13.8,94.5,11.6,93,9.4z"/>
		<path class="st15" d="M124.3,50.9c2,2.6,4,5.3,6,7.9c0,0.4,0.3,1-0.2,1c-1.7,0-2.2,1-2.2,2.4c-2.5-1.4-4.5-3.5-6.8-5.2
			C122.6,55.2,123.6,53.1,124.3,50.9z"/>
		<path class="st16" d="M127.9,62.2c-0.1-0.3,0-0.7-0.3-1c-0.6-0.6-0.6-0.8,0.4-0.9c0.3,0,0.6-0.2,0.7-0.5c0.4-0.8,0.7-1.5,1.4-0.4
			l0.3-0.6c3,3.9,6.1,7.7,8.8,11.8c-3.1-1.7-5.7-4.1-8.5-6.2C129.7,63.6,128.8,62.9,127.9,62.2z"/>
		<path class="st15" d="M117.2,49.8l3.1-4.2l-3.8,8l-1.3-1.1L117.2,49.8z"/>
		<path class="st17" d="M335.3,48.6c-0.2,0.3-0.1,0.6-0.1,0.9v3.4c0,0.6-0.1,0.7-0.7,0.7h-2.9c-0.6,0-0.6-0.1-0.7-0.6V7.4
			c0-1.1,0-1.1,1.1-1.1h2c1.1,0,1.1,0,1.1,1.1v15.8c0,0.3-0.1,0.5,0.1,0.8c0.3,0,0.3-0.1,0.4-0.2c1.9-2.4,4.6-4,7.6-4.6
			c2.1-0.5,4.3-0.6,6.5-0.3c2.2,0.3,4.3,1.1,6.1,2.5c2.3,1.8,4.1,4.2,5.1,6.9c0.9,2.3,1.4,4.7,1.3,7.2V38c0,1.9-0.3,3.7-0.7,5.5
			c-0.4,1.7-1.1,3.3-2,4.8c-1.7,2.7-4.3,4.7-7.3,5.6c-2.7,0.9-5.5,1-8.3,0.4c-3.4-0.6-6.4-2.6-8.4-5.5
			C335.5,48.7,335.4,48.7,335.3,48.6z M346.5,50.5c1.4,0.1,2.9-0.2,4.2-0.8c1.7-0.7,3.2-1.8,4.3-3.3c1.7-2.3,2.6-5.1,2.6-7.9v-0.9
			c0.3-2.8-0.2-5.7-1.2-8.3c-0.7-1.7-1.7-3.2-3.1-4.4c-1.4-1.1-3-1.9-4.7-2.2c-1.8-0.4-3.7-0.3-5.5,0.3c-2.6,0.9-4.8,2.8-6,5.3
			c-0.9,1.8-1.4,3.7-1.7,5.6c-0.3,1.9-0.2,3.8,0.1,5.6c0.2,1.6,0.7,3.2,1.3,4.7c0.6,1.5,1.6,2.8,2.8,3.9
			C341.5,49.9,344,50.7,346.5,50.5L346.5,50.5z M183,49.1c-0.1,0.3-0.2,0.6-0.1,0.9v15.8c0,1.2,0,1.2-1.2,1.2h-2.2
			c-0.7,0-0.8-0.1-0.8-0.8V20.8c0-1.6,0-1.4,1.4-1.4h1.7c1.1,0,1.1,0,1.1,1.1v3.2c0,0.2,0,0.5,0.1,0.7c0.3,0,0.4-0.2,0.5-0.4
			c1.3-1.8,3-3.2,4.9-4.1c1.7-0.9,3.6-1.4,5.6-1.4h2.2c3.2,0,6.3,1.2,8.6,3.4c1.9,1.6,3.2,3.7,4,6.1c0.8,2.4,1.2,4.9,1.2,7.4
			c0,1.2,0,2.4-0.1,3.6c-0.1,1.7-0.5,3.5-1.1,5.1c-0.5,1.6-1.2,3.1-2.2,4.4c-1.5,2.1-3.5,3.8-5.9,4.8c-1.2,0.5-2.4,0.9-3.7,1
			c-1,0.1-2,0.1-3,0.1c-3.8,0-7.4-1.5-10.1-4.2C183.7,49.8,183.4,49.4,183,49.1z M205.4,36.1c0-1.5-0.1-3-0.4-4.4
			c-0.3-1.5-0.9-2.9-1.7-4.2c-1.7-2.9-4.8-4.7-8.1-5c-1.7-0.2-3.5,0-5.1,0.7c-2.4,0.9-4.3,2.6-5.4,4.9c-0.6,1.1-1,2.2-1.3,3.4
			c-0.3,1.4-0.6,2.9-0.7,4.3c-0.1,2,0.2,4,0.7,5.9c0.6,2.4,1.9,4.6,3.7,6.3c1.4,1.3,3.2,2.1,5.1,2.4c1.6,0.2,3.2,0.1,4.8-0.3
			c1.7-0.5,3.3-1.4,4.5-2.7c1.5-1.7,2.6-3.7,3-5.9C205.3,39.8,205.6,38,205.4,36.1L205.4,36.1z M307.8,18.6h1.3
			c3.2,0,6.2,1.2,8.6,3.2c2,1.7,3.6,3.9,4.5,6.4c0.5,1.3,0.8,2.7,1,4.1c0.2,1.7,0.3,3.4,0.3,5.1c0,1.8-0.3,3.5-0.7,5.2
			c-0.4,1.7-1.1,3.4-2,4.9c-1.7,2.8-4.3,5-7.4,6.1c-2.2,0.7-4.5,1.1-6.8,0.9c-3.2-0.1-6.3-1.3-8.8-3.3c-1.6-1.4-2.9-3-3.9-4.9
			c-0.7-1.3-1.2-2.7-1.5-4.2c-0.2-0.9-0.4-1.8-0.4-2.7c-0.2-1.9-0.2-3.8,0-5.7c0.3-2.9,1.2-5.7,2.7-8.2c1.6-2.7,4.1-4.8,7.1-5.9
			C303.7,18.7,305.8,18.4,307.8,18.6z M318.9,36.2c0-1.8-0.2-3.5-0.7-5.2c-0.4-1.7-1.1-3.2-2.1-4.6c-1.2-1.7-3-2.9-5-3.4
			c-1.4-0.4-2.9-0.5-4.4-0.4c-1.2,0.1-2.5,0.4-3.6,0.9c-2.7,1.3-4.7,3.6-5.5,6.4c-0.4,1.2-0.7,2.4-0.9,3.7c-0.3,1.9-0.3,3.8-0.1,5.7
			c0.2,2.1,0.8,4.1,1.8,6c1.6,3.4,5.1,5.5,8.8,5.4h1.6c1.3,0,2.6-0.4,3.8-1c2.4-1.2,4.3-3.4,5.2-6C318.7,41.3,319,38.7,318.9,36.2z
			 M237.7,36.6c-0.2-1.7,0-3.4,0.4-5c1-4.4,2.9-8.2,6.8-10.7c2.2-1.5,4.9-2.3,7.6-2.3h2.4c3.9,0,7.6,1.7,10.2,4.7c1.7,2,3,4.4,3.6,7
			c0.7,3,1,6.1,0.6,9.1c-0.2,2.9-1.2,5.7-2.7,8.1c-1.7,2.8-4.3,5-7.4,6.1c-2.5,0.9-5.2,1.1-7.8,0.8c-2.9-0.3-5.6-1.4-7.9-3.2
			c-1.6-1.3-2.9-2.9-3.8-4.8c-0.7-1.5-1.3-3-1.6-4.6C237.8,40.1,237.6,38.3,237.7,36.6z M264.7,36.5c0-0.9,0-1.9-0.2-2.8
			c-0.2-1.9-0.7-3.7-1.4-5.4c-1.5-3.4-4.7-5.6-8.4-5.8c-1.3-0.1-2.5,0-3.8,0.2c-2.6,0.5-4.8,2.1-6.2,4.3c-1.5,2.4-2.3,5.2-2.4,8.1
			c-0.2,2.3,0,4.6,0.6,6.8c0.3,1.5,0.9,2.9,1.8,4.1c1.7,2.8,4.8,4.5,8.1,4.5h1.8c1.3,0,2.6-0.4,3.8-1c1.9-1,3.5-2.5,4.4-4.5
			C264.2,42.4,264.8,39.5,264.7,36.5z M397.4,36.5v16.4c0,0.6-0.1,0.7-0.7,0.7h-2.8c-0.7,0-0.8-0.1-0.8-0.8v-2.7
			c0-0.2,0.1-0.4-0.1-0.4s-0.3,0.1-0.4,0.2c-1,1.2-2.3,2.3-3.7,3c-1.8,1.1-3.9,1.6-6,1.6c-1.3,0-2.5,0-3.8-0.2
			c-3.2-0.4-6-2.4-7.4-5.3c-0.7-1.4-1.2-3-1.3-4.6c-0.1-1-0.1-2-0.1-2.9V20.8c0-1.3,0-1.3,1.4-1.3h2.1c0.7,0,0.8,0.1,0.9,0.8V41
			c0,0.9,0,1.9,0.1,2.8c0.1,1.9,0.9,3.7,2.3,5.1c0.8,0.6,1.6,1.1,2.6,1.4c1.5,0.4,3.1,0.5,4.7,0.3c2.4-0.2,4.5-1.4,5.9-3.3
			c1.3-1.7,2.2-3.7,2.5-5.9c0.2-1.6,0.3-3.1,0.3-4.7V20.2c0-0.6,0.1-0.7,0.8-0.8h2.8c0.6,0,0.7,0.1,0.7,0.8V36.5z M412.5,38.3v14.5
			c0,0.6-0.1,0.7-0.7,0.7h-3c-0.3,0-0.6-0.2-0.6-0.4c0-0.1,0-0.1,0-0.2v-29c0-0.9,0-0.9-0.9-0.9h-3.2c-1,0-1.1-0.1-1.1-1v-1.9
			c0-0.6,0.1-0.7,0.8-0.7h3.5c0.8,0,0.8,0,0.8-0.8v-6.1c0-1.8,0.6-3.6,1.7-5.1c0.8-1.1,2.1-1.8,3.5-2c1.6-0.3,3.2-0.3,4.8,0
			c0.4,0.1,0.7,0.3,0.7,0.7v2.8c0,0.5-0.2,0.6-0.7,0.5c-0.8-0.1-1.6-0.2-2.4-0.2c-1.5,0-2.8,1-3.1,2.5c-0.2,1.4-0.4,2.9-0.4,4.3v2.7
			c0,0.6,0,0.7,0.7,0.7h4.5c1.4,0,1.4,0,1.4,1.3v1.5c0,0.7-0.2,0.9-0.9,0.9h-4.6c-1,0-1,0-1,1C412.5,28.9,412.5,33.6,412.5,38.3z
			 M277.5,36.5V24.1c0-1,0-1-1-1h-2.9c-0.7,0-0.8-0.1-0.9-0.8v-2.2c0-0.6,0.2-0.7,0.7-0.7h3.3c0.8,0,0.8,0,0.8-0.8v-8.1
			c0-0.3,0.2-0.6,0.4-0.6c0.1,0,0.1,0,0.2,0h3c0.3,0,0.5,0.2,0.5,0.4c0,0,0,0,0,0.1v8.1c0,0.9,0,0.9,0.9,0.9h4.5
			c0.8,0,0.9,0,0.9,0.9v1.8c0,0.9-0.1,1-1,1H282c-0.4,0-0.6,0.2-0.5,0.6v20.7c0,1.2,0.2,2.5,0.2,3.7v0.2c0.2,1.4,0.8,2.2,2.5,2.1
			c1.1,0.1,2.2,0,3.2-0.3c0.6-0.2,0.8,0,0.8,0.6V53c0,0.4-0.1,0.7-0.5,0.8c-0.8,0.1-1.6,0.4-2.4,0.5c-1.3,0.2-2.5,0.2-3.8,0
			c-1.9-0.3-3.4-1.7-3.9-3.5c-0.2-1-0.3-1.9-0.3-2.9C277.5,44.1,277.5,40.3,277.5,36.5z M222.5,24.8c0.5-0.3,0.6-0.8,0.8-1.2
			c1.1-2.1,3-3.7,5.3-4.4c1.5-0.5,3-0.7,4.6-0.6c0.3,0,0.6,0.2,0.6,0.4c0,0.1,0,0.1,0,0.2v3.4c0,0.4-0.3,0.7-0.7,0.7c0,0,0,0,0,0
			c-1.1,0-2.2,0.1-3.2,0.4c-1.1,0.3-2.2,0.7-3.1,1.4c-1.5,1.1-2.7,2.8-3.2,4.6c-0.5,1.4-0.7,2.8-0.8,4.2c-0.4,4-0.3,8.1-0.3,12.1
			v7.3c0,0.2-0.1,0.4-0.3,0.4c0,0,0,0-0.1,0h-3.3c-0.3,0-0.5-0.2-0.5-0.4c0,0,0,0,0-0.1V20.9c0-1.3,0-1.3,1.3-1.3h2.1
			c0.8,0,0.8,0.1,0.8,0.8v3.7C222.3,24.2,222.3,24.5,222.5,24.8z M242.7,79.1V74c0-0.9,0.1-1,1-1c1.5,0,3-0.1,4.5,0s2.6,0.5,3.2,1.9
			c0.5,1.1,0.3,2.4-0.6,3.3c-0.4,0.4-0.4,0.4,0.1,0.7c1.9,1.2,1.7,4.6-0.7,5.7c-0.6,0.3-1.2,0.4-1.9,0.4h-4.7c-0.9,0-0.9-0.1-0.9-1
			L242.7,79.1L242.7,79.1z M246.9,83.3c0.6,0,1.1,0,1.7-0.1c0.9-0.1,1.6-0.9,1.6-1.8c0-0.8-0.6-1.4-1.6-1.6
			c-1.1-0.1-2.3-0.2-3.4-0.1c-0.3,0-0.6,0.2-0.6,0.4c0,0.1,0,0.1,0,0.2v2.3c0,0.3,0.2,0.6,0.4,0.6c0.1,0,0.1,0,0.2,0
			C245.8,83.3,246.4,83.3,246.9,83.3z M246.7,74.7h-1.5c-0.3,0-0.4,0.1-0.4,0.5v2.4c0,0.3,0.2,0.5,0.5,0.4h2.8
			c0.4,0,0.8-0.2,1.1-0.4c0.5-0.3,0.7-0.9,0.6-1.4c0-0.6-0.3-1.1-0.8-1.3C248.3,74.8,247.5,74.7,246.7,74.7z M267.1,81.3v-2.9
			c0-0.4-0.1-0.6-0.5-0.6c-0.5-0.1-1.1-0.1-1.6,0c-0.4,0-0.5,0.2-0.5,0.6v5.7c0,0.8-0.1,0.9-0.9,0.9h-0.2c-0.6,0-0.7-0.1-0.7-0.7
			v-5.8c0-0.4-0.1-0.7-0.6-0.7s-0.6-0.2-0.6-0.8s0.1-0.7,0.6-0.8s0.6-0.3,0.6-0.7v-0.8c0.2-1.2,1.4-2.1,2.6-1.9
			c0.1,0,0.3,0.1,0.4,0.1c0.3,0.1,0.3,0.4,0.3,0.7c0.1,0.3-0.1,0.7-0.4,0.8c-0.1,0-0.2,0-0.2,0.1c-0.6,0.1-1,0.6-1,1.2
			c0,0.1,0,0.2,0.1,0.3c0.1,0.2,0.2,0.3,0.4,0.3c0.6,0,1.2,0,1.8,0c0.3,0,0.4-0.2,0.4-0.5v-0.9c0.2-1.3,1.3-2.2,2.5-2
			c0.2,0,0.3,0.1,0.5,0.1c0.3,0.1,0.4,0.3,0.4,0.6c0,0.3,0,0.7-0.3,0.9c-0.1,0-0.2,0-0.3,0.1c-0.8,0.2-0.8,0.2-0.8,1s0,0.7,0.8,0.8
			c0.6,0.1,0.7,0.2,0.7,0.8s-0.1,0.7-0.7,0.8h-0.3c-0.3,0-0.6,0.2-0.6,0.4c0,0.1,0,0.1,0,0.2v5.8c0,0.3,0,0.7-0.4,0.7
			c-0.4,0.2-0.9,0.1-1.3-0.1c-0.2-0.1-0.1-0.4-0.1-0.6C267.1,83.4,267,82.3,267.1,81.3L267.1,81.3z M178.6,79v-5c0-0.9,0.1-1,1-1
			h4.4c0.7,0,1.3,0.2,1.9,0.5c1.2,0.6,1.9,1.9,1.7,3.2c0.1,1.9-1.4,3.5-3.4,3.6c-0.1,0-0.2,0-0.3,0h-2.5c-0.9,0-0.9,0-0.8,0.9v3
			c0,0.8-0.1,0.9-0.9,0.9h-0.3c-0.7,0-0.8-0.1-0.8-0.9L178.6,79L178.6,79z M182.6,78.5h1.5c1,0,1.8-0.8,1.8-1.8c0-1-0.8-1.8-1.8-1.8
			c-1-0.1-2,0-3,0c-0.3,0-0.4,0.2-0.4,0.5v2.7c0,0.4,0.2,0.6,0.5,0.6C181.7,78.5,182.2,78.5,182.6,78.5z M275.7,81.4h-2.4
			c-0.6,0-0.6,0.1-0.5,0.6c0.1,0.9,0.8,1.7,1.7,1.8c0.9,0.2,1.8-0.3,2.3-1.1c0.3-0.6,1.1-0.9,1.7-0.6c0.2,0.1,0.4,0.3,0.3,0.5
			c0,0.1,0,0.1-0.1,0.2c-0.6,1.5-2,2.6-3.6,2.7c-2,0.1-3.7-1.2-4.2-3.1c-0.4-1.3-0.3-2.6,0.2-3.8c0.6-1.6,2.2-2.7,3.9-2.6
			c1.7,0,3.1,1.1,3.6,2.7c0.2,0.7,0.2,1.5,0.1,2.2c0,0.4-0.3,0.5-0.7,0.5L275.7,81.4z M274.9,79.7h1.7c0.4,0,0.5-0.2,0.4-0.5
			c-0.2-0.8-0.8-1.4-1.6-1.6c-1.1-0.2-2.2,0.5-2.5,1.6c-0.1,0.4,0,0.6,0.4,0.6C273.9,79.7,274.4,79.7,274.9,79.7z M289.1,85.5
			c-1,0.1-1.9-0.3-2.7-0.9c-0.5-0.4-0.8-1-0.9-1.7c-0.2-0.6,0-0.8,0.7-0.9c0.9,0,1-0.1,1.3,0.7c0.2,0.6,0.6,0.8,1.2,1
			c0.6,0.2,1.3,0.1,1.9-0.2c0.4-0.2,0.6-0.6,0.6-1c0-0.4-0.2-0.6-0.6-0.8c-0.8-0.3-1.7-0.6-2.6-0.7c-0.2-0.1-0.5-0.2-0.7-0.3
			c-1-0.3-1.6-1.3-1.5-2.3c0.1-1.2,0.9-2.1,2-2.5c1-0.3,2.1-0.3,3.1,0c1,0.3,1.7,1.1,2,2.1c0.1,0.5,0,0.7-0.5,0.8
			c-0.7,0.1-1,0-1.3-0.6c-0.3-0.6-0.9-0.9-1.5-0.9h-0.9c-0.4,0.1-0.8,0.4-0.9,0.8c-0.1,0.4,0.1,0.7,0.6,1c0.8,0.4,1.7,0.4,2.6,0.8
			c0.3,0.1,0.6,0.2,0.9,0.4c1.1,0.6,1.6,2,1,3.2c0,0,0,0.1-0.1,0.1C292,84.8,290.6,85.6,289.1,85.5z M202.3,80.4
			c0,0.9-0.1,1.8-0.4,2.6c-0.8,2.1-3.1,3.1-5.2,2.3c-1.4-0.5-2.3-1.8-2.5-3.2c-0.3-1.4-0.1-2.9,0.6-4.2c0.7-1.3,2.1-2.1,3.6-1.9
			c1.5,0,2.9,0.8,3.5,2.2C202.3,78.9,202.4,79.6,202.3,80.4z M200.5,80.6c0.1-0.6,0-1.3-0.3-1.9c-0.4-0.8-1.2-1.3-2.1-1.2
			c-0.8,0.1-1.4,0.7-1.7,1.4c-0.4,1.2-0.4,2.5,0,3.7c0.3,0.8,1,1.4,1.9,1.3c1.1,0,1.5-0.2,1.9-1.2C200.4,82,200.5,81.3,200.5,80.6z
			 M233,80.5c0.1,0.9-0.1,1.8-0.4,2.6c-0.9,1.9-3,2.8-5,2.2c-1.4-0.4-2.4-1.6-2.6-3c-0.4-1.4-0.2-3,0.5-4.3c0.8-1.5,2.4-2.3,4.1-2
			c1.9,0.2,3.3,1.7,3.5,3.6C233,79.9,233,80.2,233,80.5z M231.1,80.6c0.1-0.7,0-1.4-0.3-2c-0.4-0.8-1.3-1.3-2.2-1.1
			c-0.8,0.1-1.4,0.7-1.6,1.4c-0.5,1.2-0.5,2.5,0,3.7c0.3,0.8,1,1.4,1.9,1.3c1.1,0,1.5-0.2,1.9-1.2C231.1,82,231.2,81.3,231.1,80.6
			L231.1,80.6z M215.9,80.5c0,0.9-0.1,1.8-0.4,2.6c-0.9,1.9-3,2.8-5,2.2c-1.3-0.4-2.2-1.4-2.5-2.7c-0.6-1.8-0.3-3.9,0.9-5.4
			c1.1-1.3,2.9-1.7,4.5-1.1c1.4,0.6,2.4,1.9,2.5,3.4V80.5z M214,80.7c0-1.3,0-1.4-0.3-2c-0.3-0.8-1.2-1.3-2.1-1.2
			c-0.8,0.1-1.5,0.6-1.7,1.4c-0.4,1.2-0.4,2.5,0,3.7c0.3,0.8,1,1.4,1.9,1.3c0.8,0.2,1.7-0.4,1.9-1.2C214,82.1,214.1,81.4,214,80.7
			L214,80.7z M260.5,80.7v3.4c0,1-0.3,1.2-1.3,1c-0.1,0-0.2-0.1-0.3-0.1c-0.3-0.3-0.5-0.2-0.8,0c-0.9,0.6-2.1,0.8-3.1,0.3
			c-1.1-0.4-1.8-1.5-1.7-2.6c-0.1-1.9,0-3.8,0-5.6c0-0.7,0.2-0.8,0.9-0.8s0.9,0.1,0.9,0.8v5.6c0.1,0.9,0.6,1.3,1.6,1.2
			c1,0,1.9-0.8,1.9-1.8c0.1-0.7,0.1-1.4,0.1-2.1v-2.9c0-0.3,0-0.6,0.3-0.7c0.4-0.2,0.8-0.2,1.2,0c0.3,0.1,0.2,0.5,0.2,0.8
			C260.5,78.3,260.5,79.5,260.5,80.7L260.5,80.7z M216.4,80.8c-0.1-1.1,0.2-2.2,0.8-3.1c1.2-1.8,3.6-2.3,5.4-1.2
			c0.2,0.1,0.4,0.2,0.5,0.4c0.5,0.6,0.8,1.3,0.9,2c0.1,0.2,0,0.4-0.2,0.5c0,0,0,0,0,0c-0.7,0.3-1.4,0-1.8-0.6c0,0,0-0.1,0-0.1
			c-0.3-0.9-1.2-1.4-2.1-1.1c-0.3,0.1-0.5,0.2-0.7,0.4c-0.2,0.2-0.4,0.5-0.5,0.8c-0.5,1.2-0.6,2.6-0.1,3.9c0.2,0.7,0.9,1.2,1.7,1.2
			c0.8,0.1,1.5-0.4,1.7-1.2c0.3-0.7,1.1-1,1.8-0.7c0,0,0,0,0,0c0.2,0.1,0.3,0.3,0.2,0.5c0,0,0,0.1,0,0.1c-0.3,1.6-1.7,2.8-3.3,2.9
			c-1.8,0.1-3.4-0.9-4-2.6C216.5,82.2,216.4,81.5,216.4,80.8z M203.7,80.9v-2.4c0-0.4-0.1-0.6-0.6-0.6s-0.7-0.2-0.6-0.9
			s0.1-0.7,0.6-0.8c0.3,0,0.6-0.2,0.6-0.4c0-0.1,0-0.1,0-0.2v-1.1c0-0.5,0.1-0.6,0.7-0.7h0.5c0.3,0,0.6,0.2,0.6,0.4
			c0,0.1,0,0.1,0,0.2v1.3c0,0.4,0.2,0.5,0.5,0.5h0.2c0.7,0.1,0.9,0.2,0.8,0.8s-0.1,0.7-0.8,0.8s-0.7,0.1-0.7,0.7v4.4
			c0,0.7,0,0.7,0.7,0.8s0.8,0.2,0.8,0.7s-0.2,0.8-0.8,0.9c-1.4,0.2-2.5-0.3-2.5-2.1V80.9z M234.6,79.1v-5.2c0-0.7,0.2-0.9,0.9-0.9
			s0.9,0.2,0.9,0.9v10.4c0,0.3,0,0.7-0.4,0.8c-0.4,0.2-0.9,0.1-1.3-0.1c-0.2-0.2-0.2-0.5-0.2-0.8C234.5,82.4,234.6,80.7,234.6,79.1z
			 M191,76.9c0.3,0,0.5-0.3,0.7-0.4c0.2-0.2,0.4-0.3,0.7-0.4c1-0.2,1.4,0.1,1.3,1.1c0,0.4-0.3,0.6-0.7,0.7c-0.3,0-0.5,0-0.8,0.1
			c-0.6,0.2-1.1,0.8-1.2,1.4c-0.1,0.6-0.1,1.3-0.1,1.9v2.9c0,0.3,0,0.7-0.3,0.8c-0.4,0.2-0.9,0.1-1.3-0.1c-0.2-0.1-0.2-0.4-0.2-0.6
			V77c0-0.6,0.1-0.8,0.6-0.9c0.7-0.1,0.9,0,1.2,0.6C190.9,76.8,190.9,76.8,191,76.9z M282.3,76.9c0.3-0.1,0.5-0.3,0.7-0.5
			c0.2-0.2,0.4-0.3,0.7-0.3c1.1-0.3,1.5,0.1,1.3,1.2c0,0.3-0.2,0.6-0.6,0.6c0,0,0,0,0,0h-0.6c-0.7,0.1-1.2,0.6-1.4,1.3
			c-0.1,0.4-0.1,0.8-0.1,1.2v3.9c0,0.7-0.1,0.8-0.9,0.8s-0.9-0.1-0.9-0.8v-7.2c0-0.6,0.1-0.8,0.5-0.9c0.6-0.1,1,0,1.2,0.5
			C282.2,76.8,282.2,76.8,282.3,76.9z"/>
		<path class="st0" d="M9.3,60.5l-4.4-5.7c0.2,0.3,0.5,0.5,0.9,0.6C5.9,55.7,5.9,56,6,56.1C7.1,57.6,8.2,59.1,9.3,60.5z"/>
	</g>
</g>
</svg>
