<?xml version="1.0" encoding="utf-8"?>
<!-- Generator: Adobe Illustrator 16.0.3, SVG Export Plug-In . SVG Version: 6.00 Build 0)  -->
<!DOCTYPE svg PUBLIC "-//W3C//DTD SVG 1.1//EN" "http://www.w3.org/Graphics/SVG/1.1/DTD/svg11.dtd">
<svg version="1.1" id="katman_1" xmlns="http://www.w3.org/2000/svg" xmlns:xlink="http://www.w3.org/1999/xlink" x="0px" y="0px"
	 width="210.25px" height="74.3px" viewBox="50.6 109.7 210.25 74.3" enable-background="new 50.6 109.7 210.25 74.3"
	 xml:space="preserve">
<g>
	<path fill="#F8AD25" d="M87.75,146.85v-17.1h-13.1l-6.95-7V109.7H50.6v17.1h13.1l7,7v9.05l-7,7H50.6v17.1h17.1V153.9l7-7
		L87.75,146.85L87.75,146.85z M56.3,115.35H62v5.7h-5.7V115.35z M62,161.2h-5.7v-5.7H62V161.2z"/>
	<path fill="#1A1A1A" d="M106.7,184h-7.55v-37.15h7.55v2.25c1.2-1.45,3.9-2.85,6.8-2.85c7.9,0,12.4,6.55,12.4,14.2
		c0,7.649-4.5,14.149-12.4,14.149c-2.9,0-5.6-1.399-6.8-2.85V184z M106.7,164.85c0.95,1.95,2.95,3.15,5.1,3.15
		c4.1,0,6.5-3.25,6.5-7.55c0-4.4-2.45-7.65-6.5-7.65c-2.15,0-4.1,1.25-5.1,3.15V164.85z M153.2,174h-7.55v-2.5
		c-1.9,2-4.5,3.15-7.3,3.1c-6.05,0-9.55-4-9.55-10v-17.75h7.55v16.2c0,2.851,1.4,4.8,4.4,4.8c2.3,0,4.3-1.399,4.9-3.75v-17.25h7.55
		V174L153.2,174z M165.75,184h-7.55v-37.15h7.55v2.25c1.2-1.45,3.9-2.85,6.8-2.85c7.9,0,12.4,6.55,12.4,14.2
		c0,7.649-4.5,14.149-12.4,14.149c-2.899,0-5.6-1.399-6.8-2.85V184z M165.75,164.85c0.95,1.95,2.95,3.15,5.1,3.15
		c4.101,0,6.5-3.25,6.5-7.55c0-4.4-2.449-7.65-6.5-7.65c-2.149,0-4.1,1.25-5.1,3.15V164.85z M195.75,184h-7.55v-37.15h7.55v2.25
		c1.2-1.45,3.9-2.85,6.8-2.85c7.9,0,12.4,6.55,12.4,14.2c0,7.649-4.5,14.149-12.4,14.149c-2.899,0-5.6-1.399-6.8-2.85V184z
		 M195.75,164.85c0.95,1.95,2.95,3.15,5.1,3.15c4.101,0,6.5-3.25,6.5-7.55c0-4.4-2.449-7.65-6.5-7.65c-2.149,0-4.1,1.25-5.1,3.15
		V164.85z M241.95,165.1c-0.95,5.75-5.2,9.5-12.05,9.5c-7.9,0-13.15-5.8-13.15-14.149c0-8.2,5.45-14.2,13.05-14.2
		c7.95,0,12.351,5.5,12.351,13.5v2.3H224c0.2,4.101,2.55,6.5,5.9,6.5c2.55,0,4.449-1.1,5.05-3.399L241.95,165.1L241.95,165.1z
		 M224.2,157.45h10.5c-0.101-2.851-1.75-5.101-4.9-5.101C226.95,152.35,224.85,154.1,224.2,157.45L224.2,157.45z M247.05,152.9h-4.1
		V146.8h4.1v-7.3h7.45v7.35h5.95v6.1h-5.95v11.899c0,2.15,1.15,3.101,3.1,3.101c1.15,0,2.25-0.3,3.25-0.9v6.65
		c-1.05,0.55-2.85,0.85-4.85,0.85c-5.5,0-9-2.75-9-8.75L247.05,152.9L247.05,152.9z"/>
</g>
</svg>
