<?xml version="1.0" encoding="utf-8"?>
<!-- Generator: Adobe Illustrator 16.0.3, SVG Export Plug-In . SVG Version: 6.00 Build 0)  -->
<!DOCTYPE svg PUBLIC "-//W3C//DTD SVG 1.1//EN" "http://www.w3.org/Graphics/SVG/1.1/DTD/svg11.dtd">
<svg version="1.1" id="Layer_1" xmlns="http://www.w3.org/2000/svg" xmlns:xlink="http://www.w3.org/1999/xlink" x="0px" y="0px"
	 width="78.25px" height="90.952px" viewBox="3.098 1.431 78.25 90.952" enable-background="new 3.098 1.431 78.25 90.952"
	 xml:space="preserve">
<xpacket></xpacket>
<path fill="#646464" d="M12.589,78.438c0-3.742-1.091-5.664-3.274-5.769c-0.866-0.041-1.731,0.099-2.542,0.408
	c-0.659,0.231-1.101,0.458-1.334,0.688v8.932c1.396,0.858,2.637,1.256,3.717,1.201c2.288-0.147,3.433-1.973,3.433-5.453V78.438z
	 M15.283,78.592c0,1.9-0.457,3.479-1.373,4.734c-1.022,1.421-2.439,2.151-4.25,2.191c-1.366,0.043-2.772-0.375-4.22-1.252v8.117
	l-2.342-0.816V73.549c0.384-0.461,0.879-0.858,1.478-1.201c1.394-0.795,3.088-1.203,5.081-1.223l0.034,0.033
	c1.822-0.023,3.225,0.708,4.203,2.191c0.92,1.359,1.373,3.104,1.373,5.234L15.283,78.592z M29.592,83.921
	c0,2.55-0.262,4.314-0.784,5.298c-0.522,0.982-1.524,1.767-3,2.35c-1.197,0.461-2.49,0.713-3.879,0.755l-0.386-1.442
	c1.412-0.189,2.406-0.376,2.982-0.563c1.135-0.376,1.913-0.944,2.342-1.716c0.343-0.629,0.512-1.828,0.512-3.604v-0.597
	c-1.602,0.712-3.279,1.063-5.035,1.063c-1.109,0.017-2.188-0.361-3.046-1.064c-0.984-0.773-1.475-1.756-1.475-2.945v-9.537
	l2.341-0.783v9.59c0,1.023,0.338,1.813,1.015,2.367c0.677,0.554,1.544,0.818,2.626,0.799c1.083-0.02,2.225-0.429,3.446-1.222V71.48
	h2.342v12.442L29.592,83.921z M38.736,85.394l-0.772,0.032c-1.324,0-2.357-0.309-3.095-0.926s-1.104-1.473-1.104-2.563V72.92h-1.604
	v-1.44h1.604v-3.825l2.339-0.815v4.639h2.631v1.44h-2.625v8.955c0,0.859,0.236,1.459,0.707,1.824
	c0.405,0.293,1.048,0.461,1.924,0.504v1.2L38.736,85.394z M52.912,85.205H50.57V76.37c0-0.899-0.214-1.673-0.643-2.319
	c-0.444-0.705-1.229-1.123-2.063-1.097c-1.073,0-2.416,0.553-4.027,1.66v10.593h-2.341V64.085l2.341-0.721v9.609
	c1.496-1.063,3.131-1.599,4.907-1.599c1.24,0,2.245,0.408,3.013,1.223c0.77,0.814,1.156,1.829,1.156,3.041v9.558L52.912,85.205z
	 M65.36,78.086c0-1.438-0.28-2.625-0.835-3.564c-0.661-1.145-1.688-1.748-3.077-1.801c-2.567,0.146-3.849,1.943-3.849,5.39
	c0,1.581,0.258,2.901,0.805,3.96c0.687,1.351,1.716,2.016,3.09,1.994c2.578-0.02,3.866-2.01,3.866-5.971V78.086z M67.934,78.102
	c0,2.047-0.535,3.75-1.604,5.109c-1.176,1.522-2.801,2.287-4.873,2.287c-2.054,0-3.655-0.772-4.803-2.287
	c-1.049-1.36-1.57-3.063-1.57-5.109c0-1.924,0.566-3.543,1.699-4.859c1.196-1.398,2.77-2.1,4.714-2.1c1.943,0,3.528,0.702,4.747,2.1
	c1.133,1.317,1.699,2.936,1.699,4.859H67.934z M81.349,85.214h-2.351v-9.338c0-1.024-0.314-1.823-0.945-2.399
	c-0.63-0.576-1.47-0.852-2.518-0.83c-1.111,0.02-2.17,0.376-3.174,1.064v11.493H70.02V73.419c1.347-0.959,2.588-1.585,3.721-1.888
	c1.068-0.272,2.011-0.408,2.823-0.408c0.556,0,1.078,0.052,1.569,0.158c0.92,0.207,1.668,0.594,2.245,1.16
	c0.644,0.625,0.963,1.377,0.963,2.256v10.498L81.349,85.214z"/>
<g transform="matrix(.343916 0 0 .336234 -217.70259 437.9201)">
	
		<linearGradient id="SVGID_1_" gradientUnits="userSpaceOnUse" x1="4823.7144" y1="-5337.438" x2="4677.4424" y2="-5336.2749" gradientTransform="matrix(0.295 0 0 -0.2884 -636.8456 -2774.1855)">
		<stop  offset="0" style="stop-color:#366A96"/>
		<stop  offset="1" style="stop-color:#3679B0"/>
	</linearGradient>
	<path fill="url(#SVGID_1_)" d="M704.414-1275.459c0-11.686,3.132-18.042,20.432-21.069c11.746-2.059,26.805-2.316,40.851,0
		c11.097,1.831,20.433,10.096,20.433,21.069v38.55c0,11.307-9.064,20.569-20.433,20.569h-40.851
		c-13.864,0-25.549,11.822-25.549,25.187v18.495H685.25c-11.881,0-18.799-8.567-21.705-20.555c-3.92-16.105-3.752-25.701,0-41.125
		c3.256-13.455,13.654-20.555,25.536-20.555h56.199v-5.147h-40.867v-15.422L704.414-1275.459z"/>
	
		<linearGradient id="SVGID_2_" gradientUnits="userSpaceOnUse" x1="4972.9233" y1="-5487.1577" x2="4683.3755" y2="-5487.1577" gradientTransform="matrix(0.295 0 0 -0.2884 -636.8456 -2774.1855)">
		<stop  offset="0" style="stop-color:#FFC836"/>
		<stop  offset="1" style="stop-color:#FFE873"/>
	</linearGradient>
	<path fill="url(#SVGID_2_)" d="M786.133-1152.088c0,11.687-10.14,17.607-20.433,20.557c-15.484,4.45-27.911,3.767-40.852,0
		c-10.807-3.148-20.433-9.582-20.433-20.557v-38.55c0-11.095,9.248-20.569,20.433-20.569H765.7c13.607,0,25.547-11.76,25.547-25.701
		v-17.981h15.319c11.898,0,17.5,8.84,20.433,20.555c4.086,16.272,4.268,28.441,0,41.125c-4.131,12.321-8.55,20.556-20.433,20.556
		h-61.286v5.147h40.852V-1152.088L786.133-1152.088z"/>
	<path fill="#FFFFFF" d="M714.629-1278.018c0-4.268,3.422-7.72,7.66-7.72c4.224,0,7.661,3.452,7.661,7.72
		c0,4.255-3.437,7.705-7.661,7.705C718.052-1270.313,714.629-1273.763,714.629-1278.018z M760.597-1149.527
		c0-4.258,3.436-7.705,7.661-7.705c4.237,0,7.658,3.45,7.658,7.705c0,4.267-3.422,7.717-7.658,7.717
		C764.033-1141.81,760.597-1145.26,760.597-1149.527z"/>
</g>
</svg>
