<?xml version="1.0" encoding="utf-8"?>
<!-- Generator: Adobe Illustrator 16.0.3, SVG Export Plug-In . SVG Version: 6.00 Build 0)  -->
<!DOCTYPE svg PUBLIC "-//W3C//DTD SVG 1.1//EN" "http://www.w3.org/Graphics/SVG/1.1/DTD/svg11.dtd">
<svg version="1.1" id="Layer_1" xmlns="http://www.w3.org/2000/svg" xmlns:xlink="http://www.w3.org/1999/xlink" x="0px" y="0px"
	 width="175.748px" height="46.994px" viewBox="0 0 175.748 46.994" enable-background="new 0 0 175.748 46.994"
	 xml:space="preserve">
<polygon fill-rule="evenodd" clip-rule="evenodd" points="0,0.803 46.191,0.803 46.191,46.994 0,46.994 0,0.803 "/>
<polygon fill-rule="evenodd" clip-rule="evenodd" fill="#FFF200" points="1.336,2.138 44.855,2.138 44.855,45.658 1.336,45.658 
	1.336,2.138 "/>
<path fill-rule="evenodd" clip-rule="evenodd" d="M3.645,36.865l5.677,5.787l13.301-13.495l13.746,13.773l5.76-5.704L28.521,23.62
	l2.616-2.532v-5.398l1.642-1.391v4.229l2.115,1.725l6.316-6.316l2.031,1.558c1.197-4.424-5.732-14.469-11.464-8.904l-6.679,6.622
	l1.364,1.642l-3.395,3.311l-3.283-3.228l1.725-1.559l-7.318-7.067C8.682,1.776,3.033,8.678,2.838,15.411l2.003-1.669l6.149,6.623
	l2.198-1.836v-4.063l1.363,1.029v5.315l2.671,2.671L3.645,36.865L3.645,36.865z"/>
<path fill-rule="evenodd" clip-rule="evenodd" d="M57.989,6.34v4.007h1.725c2.365-0.445,1.725-3.84,0-4.007H57.989L57.989,6.34z
	 M53.092,2.361v18.143h4.897v-5.899l4.174,5.899h5.788l-5.147-7.262c5.955-2.894,3.729-10.797-2.532-10.88H53.092L53.092,2.361z
	 M75.742,11.432c1.614,0,2.921,1.224,2.921,2.727c0,1.502-1.308,2.727-2.921,2.727c-1.586,0-2.894-1.225-2.894-2.727
	C72.848,12.656,74.156,11.432,75.742,11.432L75.742,11.432z M74.712,7.425c1.336,0,2.588,0.445,3.617,1.168V7.898h4.786
	l0.028,12.605h-4.842l0.028-0.779c-1.029,0.723-2.281,1.141-3.617,1.141c-3.562,0-6.483-3.005-6.483-6.706
	C68.229,10.458,71.151,7.425,74.712,7.425L74.712,7.425z M85.676,7.898h5.092v12.605h-5.092V7.898L85.676,7.898z M88.235,0.691
	c1.476,0,2.672,1.224,2.672,2.699c0,1.475-1.196,2.699-2.672,2.699c-1.502,0-2.699-1.225-2.699-2.699
	C85.537,1.916,86.733,0.691,88.235,0.691L88.235,0.691z M126.886,7.898h5.092v12.605h-5.092V7.898L126.886,7.898z M129.418,0.691
	c1.503,0,2.699,1.224,2.699,2.699c0,1.475-1.196,2.699-2.699,2.699c-1.475,0-2.671-1.225-2.671-2.699
	C126.747,1.916,127.943,0.691,129.418,0.691L129.418,0.691z M91.714,7.898v4.007h1.753v8.598h4.926v-8.598h4.619v8.598h5.092V11.85
	h3.172V7.954h-3.312V5.144c-0.083-1.029,2.338-1.447,3.173-0.612V0.413c-4.675-1.475-8.459,1.169-8.432,5.259v2.226h-4.341V5.144
	c-0.056-1.029,2.06-1.447,3.283-0.612V0.413c-4.063-1.196-8.403,0.779-8.375,5.231v2.226L91.714,7.898L91.714,7.898z
	 M118.538,20.865c4.369-0.028,5.982-1.836,6.929-4.48h-4.424c-2.004,2.56-4.926,0.696-4.786-1.391h9.35
	c0-5.12-2.728-7.541-7.068-7.541s-7.067,3.061-7.067,6.79S114.643,20.893,118.538,20.865L118.538,20.865z M116.896,12.017
	c0.056-1.531,3.395-1.531,3.617,0H116.896L116.896,12.017z M153.209,20.865c4.396-0.028,6.011-1.836,6.956-4.48h-4.452
	c-2.003,2.56-4.925,0.696-4.785-1.391h9.35c0-5.12-2.699-7.541-7.068-7.541c-4.341,0-7.067,3.061-7.067,6.79
	S149.313,20.893,153.209,20.865L153.209,20.865z M151.567,12.017c0.056-1.531,3.395-1.531,3.617,0H151.567L151.567,12.017z
	 M144.806,8.149l-1.503,3.061c-1.892-0.585-3.729-0.473-3.673,0.055c0.056,0.334-0.25,0.918,2.699,1.336
	c4.396,0.695,4.035,8.876-3.339,8.264c-2.031-0.139-3.673-0.668-5.036-1.475l1.642-3.284c2.31,1.141,4.535,1.809,4.702,0.668
	c0.195-1.419-2.421-0.918-4.007-2.115c-2.838-1.753-1.225-7.179,3.423-7.235C141.355,7.314,143.053,7.592,144.806,8.149
	L144.806,8.149z M162.225,7.898v12.605h4.759v-7.708c0.139-1.92,3.923-2.254,3.951,0v7.708h4.813v-7.902
	c-0.111-4.424-4.758-6.567-8.96-3.757V7.898H162.225L162.225,7.898z M55.902,28.211L52.73,46.91h8.988
	c6.094,0,8.598-7.568,4.257-10.156c3.701-3.423,1.809-8.57-2.17-8.626L55.902,28.211L55.902,28.211z M59.547,39.369l-0.64,3.089
	h2.087c2.365,0.111,2.087-3.089,0.724-3.089H59.547L59.547,39.369z M60.605,32.663l-0.529,2.505l0.64,0.027
	c1.92,0.111,3.033-2.532,0.723-2.532H60.605L60.605,32.663z M68.006,46.938h5.454l1.642-3.284h6.177l0.918,3.34h5.036l-4.368-18.672
	h-5.148L68.006,46.938L68.006,46.938z M76.883,39.731h3.395l-1.085-4.926L76.883,39.731L76.883,39.731z M88.959,46.994h5.037
	l1.279-11.715l7.207,11.659h5.398l2.254-18.728h-5.036l-1.42,11.715l-7.207-11.771h-5.203L88.959,46.994L88.959,46.994z
	 M113.752,28.155l-3.534,18.783h5.315l1.419-7.013l4.758,7.013h6.984l-6.817-9.851l8.71-8.96h-6.762l-5.955,6.622l0.946-6.622
	L113.752,28.155L113.752,28.155z"/>
</svg>
