<?xml version="1.0" encoding="utf-8"?>
<!-- Generator: Adobe Illustrator 16.0.3, SVG Export Plug-In . SVG Version: 6.00 Build 0)  -->
<!DOCTYPE svg PUBLIC "-//W3C//DTD SVG 1.1//EN" "http://www.w3.org/Graphics/SVG/1.1/DTD/svg11.dtd">
<svg version="1.1" id="Layer_1" xmlns="http://www.w3.org/2000/svg" xmlns:xlink="http://www.w3.org/1999/xlink" x="0px" y="0px"
	 width="247.007px" height="126.189px" viewBox="26.479 86.922 247.007 126.189"
	 enable-background="new 26.479 86.922 247.007 126.189" xml:space="preserve">
<path fill="#fff" d="M26.479,171.193h16.982c8.054,0,13.525,3.927,13.525,11.479c0,6.175-4.229,9.9-8.29,11.176
	c1.242,1.04,2.148,2.449,2.886,3.926c1.678,3.49,2.886,7.35,6.444,7.35c0.57,0,1.107-0.1,1.644-0.301l-0.805,7.282
	c-1.342,0.335-2.685,0.503-4.061,0.536c-4.866,0-7.719-1.879-10.572-8.457c-1.242-2.92-2.919-8.055-5.202-8.055h-2.349v16.277
	H26.479V171.193z M36.682,178.577v10.136h3.691c2.92,0,6.343-0.906,6.343-5.303c0-3.625-2.35-4.833-5.102-4.833H36.682z
	 M70.813,171.193H81.15l13.928,41.246H84.741l-2.584-7.785h-13.76l-2.483,7.785h-8.927L70.813,171.193L70.813,171.193z
	 M70.813,197.035h8.86l-2.819-8.691c-1.006-2.92-1.376-7.115-1.376-7.115h-0.235c0,0-0.604,4.229-1.543,7.014L70.813,197.035z
	 M95.514,212.439h8.39v-19.834c0-2.248-0.302-5.034-0.503-7.35h0.269c0.839,2.182,1.946,4.866,2.987,6.712l11.243,20.438h10.672
	v-41.279h-8.39v19.834c0,2.383,0.302,5.672,0.437,7.987h-0.235c-1.007-2.45-2.182-5.571-3.122-7.35l-10.84-20.472H95.48v41.313
	H95.514L95.514,212.439z M130.753,191.498c0,15.068,7.215,21.613,18.391,21.613c10.975,0,17.049-6.176,16.412-14.565l-8.927-0.906
	c0.738,5.37-2.686,7.987-6.914,7.987c-4.464,0-8.39-2.887-8.39-14.129c0-10.639,3.625-13.928,8.054-13.928
	c4.632,0,7.216,2.651,6.176,9.195l9.531-0.839c1.342-8.961-3.49-15.505-15.505-15.505
	C138.17,170.422,130.753,176.597,130.753,191.498 M167.637,212.439h10.202v-17.484h12.519v17.484h10.202v-41.246h-10.202v15.605
	h-12.519v-15.605h-10.202V212.439L167.637,212.439z M204.654,212.439h27.922v-7.617h-17.754v-9.633h14.398v-7.584h-14.364v-8.861
	h17.082v-7.617h-27.353v41.313H204.654L204.654,212.439z M234.59,171.193h16.982c8.055,0,13.524,3.927,13.524,11.479
	c0,6.175-4.229,9.9-8.29,11.176c1.209,1.107,2.216,2.449,2.887,3.926c1.678,3.49,2.887,7.35,6.443,7.35
	c0.57,0,1.107-0.1,1.645-0.301l-0.805,7.282c-1.343,0.335-2.686,0.503-4.061,0.536c-4.867,0-7.72-1.879-10.572-8.457
	c-1.242-2.92-2.92-8.055-5.202-8.055h-2.349v16.277H234.59V171.193z M244.759,178.577v10.136h3.692c2.92,0,6.376-0.906,6.376-5.303
	c0-3.625-2.349-4.833-5.135-4.833H244.759z"/>
<path fill="#0075A8" d="M221.099,102.192l-1.577-9.632c-0.504-3.087-1.746-5.604-2.686-5.604s-1.744,2.584-1.744,5.705v2.551
	c-0.034,3.155-2.551,5.672-5.706,5.706h-3.087v6.914h10.034C219.488,107.797,221.602,105.247,221.099,102.192 M198.412,94.037
	h-31.548c-0.168,0-0.369,0-0.537,0.034v-1.443c0-3.121-0.806-5.706-1.745-5.706s-2.182,2.551-2.685,5.605l-1.577,9.632
	c-0.504,3.087,1.645,5.604,4.766,5.604h9.498c0.905,0,1.812-0.134,2.684-0.403c-0.301,1.645-1.744,2.853-3.423,2.819h-13.323
	c-1.947,0-3.49-1.578-3.49-3.49c0-0.202,0.033-0.403,0.066-0.604l1.343-8.088c0.302-1.913-0.974-3.692-2.886-4.027
	c-0.168-0.034-0.336-0.034-0.537-0.034H88.802c-1.376,0-2.618,0.806-3.188,2.047L73.196,115.08c-0.202,0.335-0.202,0.738,0.033,1.04
	l2.45,2.853c0.302,0.335,0.839,0.403,1.208,0.101l8.458-6.645v40.542c0,1.912,1.51,3.456,3.423,3.49l0,0h18.827
	c1.913,0,3.457-1.511,3.491-3.424l0,0v-14.229c0-1.913,1.51-3.457,3.423-3.49l0,0h46.952c1.913,0,3.457,1.51,3.49,3.423v14.162
	c0,1.914,1.51,3.457,3.424,3.491l0,0h18.827c1.913,0,3.456-1.511,3.49-3.423l0,0v-15.204h-10.001
	c-3.154-0.034-5.672-2.551-5.705-5.706v-9.732c0-1.813,0.839-3.49,2.281-4.564v11.646c0.034,3.154,2.551,5.671,5.706,5.705h15.37
	c3.155-0.034,5.672-2.551,5.706-5.705V99.776C204.05,96.622,201.533,94.071,198.412,94.037"/>
<path fill="#fff" d="M267.916,173.207c0-1.946,1.443-2.785,2.785-2.785c1.343,0,2.785,0.839,2.785,2.785
	c0,1.88-1.442,2.719-2.785,2.719C269.359,175.926,267.916,175.12,267.916,173.207z M272.85,173.207c0-1.543-1.008-2.182-2.081-2.182
	c-1.074,0-2.147,0.639-2.147,2.182c-0.067,1.141,0.771,2.115,1.879,2.182c0.067,0,0.168,0,0.234,0
	C271.842,175.389,272.85,174.718,272.85,173.207L272.85,173.207z M269.795,171.831h1.008c0.503,0,1.006,0.168,1.006,0.839
	c0,0.369-0.268,0.672-0.637,0.738l0.637,1.142h-0.604l-0.604-1.107h-0.235v1.107h-0.57V171.831z M270.803,173.073
	c0.234,0.033,0.436-0.134,0.436-0.369v-0.034c0-0.302-0.234-0.335-0.436-0.335h-0.504v0.738H270.803z"/>
</svg>
