<?xml version="1.0" encoding="utf-8"?>
<!-- Generator: Adobe Illustrator 27.3.1, SVG Export Plug-In . SVG Version: 6.00 Build 0)  -->
<svg version="1.1" id="Layer_1" xmlns="http://www.w3.org/2000/svg" xmlns:xlink="http://www.w3.org/1999/xlink" x="0px" y="0px"
	 viewBox="0 0 192 192" style="enable-background:new 0 0 192 192;" xml:space="preserve">
<style type="text/css">
	.st0{fill-rule:evenodd;clip-rule:evenodd;fill:#F5F5F5;}
	.st1{fill-rule:evenodd;clip-rule:evenodd;}
</style>
<rect x="5.9" y="5.9" class="st0" width="180.3" height="180.3"/>
<g>
	<g>
		<path class="st1" d="M145.5,143.3h-3.8V162h3.8V143.3z M145.5,135.8h-3.8v3.8h3.8V135.8z M138,158.3h-3.8v-22.5h-3.8V162h7.5
			V158.3z M168,143.3h-15v-7.5h-3.8V162H168V143.3z M164.3,158.3H153V147h11.3V158.3z M126.8,143.3H123v15h-11.3v-15H108V162h15v3.8
			h-15v3.8h18.8V143.3z M66.8,147h15v-3.8H63V162h3.8V147z M104.3,143.3H85.5v3.8h15v3.8h-15V162h18.8V143.3z M100.5,158.3H89.3
			v-3.8h11.3V158.3z M0,0v192h192V0H0z M180,180H12V12h168V180z"/>
	</g>
</g>
</svg>
