<?xml version="1.0" encoding="utf-8"?>
<!-- Generator: Adobe Illustrator 27.3.1, SVG Export Plug-In . SVG Version: 6.00 Build 0)  -->
<svg version="1.1" id="Layer_1" xmlns="http://www.w3.org/2000/svg" xmlns:xlink="http://www.w3.org/1999/xlink" x="0px" y="0px"
	 viewBox="0 0 3151.8 1080" style="enable-background:new 0 0 3151.8 1080;" xml:space="preserve">
<style type="text/css">
	.st0{fill-rule:evenodd;clip-rule:evenodd;fill:#00D8FF;}
	.st1{fill:#00D8FF;}
	.st2{fill:none;stroke:#00D7FE;stroke-width:57.1429;stroke-miterlimit:228.5714;}
</style>
<path class="st0" d="M1782.8,812.2l-130.6-197.3c66-5.8,125.5-53.6,125.5-141c0-88.9-63.1-145.8-151.6-145.8h-194.3v483.7h60.2
	V619.6h96.5l123.3,192.2L1782.8,812.2z M1618.9,567.1H1492V382.1h126.9c57.3,0,96.5,37.7,96.5,92.1S1676.2,567.1,1618.9,567.1
	L1618.9,567.1z M2006.9,820.8c57.3,0,104.4-18.8,139.2-53.6l-26.1-35.6c-27.6,28.3-68.2,44.2-108,44.2
	c-75.4,0-121.8-55.1-126.2-121.1h283.5V641c0-105.1-62.4-187.8-168.3-187.8c-100.1,0-172.6,82-172.6,183.5
	c0,109.5,74.7,183.9,178.4,183.9L2006.9,820.8z M2115.7,614.9h-229.9c2.9-53.6,39.8-116.8,114.6-116.8
	C2080.1,498.1,2114.9,562.6,2115.7,614.9z M2530.5,812.1V571.4c0-84.8-61.6-118.2-135.6-118.2c-57.3,0-102.2,18.8-139.9,58
	l25.4,37.7c31.2-33.3,65.3-48.6,107.3-48.6c50.8,0,88.5,26.8,88.5,74v63.1c-28.3-32.6-68.2-47.9-116-47.9
	c-59.5,0-122.6,37-122.6,115.3c0,76.1,63.1,116,122.6,116c47.1,0,87-16.7,116-48.6v39.8L2530.5,812.1z M2379.7,781.7
	c-50.8,0-86.3-31.9-86.3-76.1c0-45,35.6-76.9,86.3-76.9c38.4,0,75.4,14.5,96.5,43.5v66C2455.1,767.2,2418.1,781.7,2379.7,781.7
	L2379.7,781.7z M2793.5,820.8c63.8,0,101.5-26.1,128.4-60.9l-36.3-33.3c-23.2,31.2-52.9,45.7-88.9,45.7
	c-74.7,0-121.1-58-121.1-135.6s46.4-134.9,121.1-134.9c36.3,0,66,13.8,88.9,45.7l36.3-33.3c-26.8-34.8-64.5-60.9-128.4-60.9
	c-104.4,0-174.8,79.8-174.8,183.5c0,104.4,70.3,183.9,174.8,183.9V820.8z M3086.5,820.8c31.9,0,51.5-9.4,65.3-22.5l-15.9-40.6
	c-7.3,8-21.5,14.5-37,14.5c-23.9,0-35.6-18.8-35.6-45V509.7h71.1v-47.8h-71.1v-95.7h-54.4v95.7h-58v47.9h58v229.2
	C3008.9,791.2,3035,820.9,3086.5,820.8L3086.5,820.8z"/>
<circle class="st1" cx="600" cy="540" r="114.3"/>
<g>
	<ellipse class="st2" cx="600" cy="540" rx="571.4" ry="257.1"/>
	<ellipse transform="matrix(0.866 -0.5 0.5 0.866 -189.6136 372.3458)" class="st2" cx="600" cy="540" rx="257.1" ry="571.4"/>
	<ellipse transform="matrix(0.5 -0.866 0.866 0.5 -167.6508 789.6135)" class="st2" cx="600" cy="540" rx="571.4" ry="257.1"/>
</g>
</svg>
