<?xml version="1.0" encoding="utf-8"?>
<!-- Generator: Adobe Illustrator 27.3.1, SVG Export Plug-In . SVG Version: 6.00 Build 0)  -->
<svg version="1.1" id="Layer_1" xmlns="http://www.w3.org/2000/svg" xmlns:xlink="http://www.w3.org/1999/xlink" x="0px" y="0px"
	 viewBox="0 0 355.9 79.7" style="enable-background:new 0 0 355.9 79.7;" xml:space="preserve">
<style type="text/css">
	.st0{fill:#FFFFFF;}
</style>
<g>
	<g>
		<g>
			<polygon class="st0" points="63.4,34.3 62.3,27.2 0,78.5 10.9,78.5 			"/>
			<polygon class="st0" points="14.7,78.5 25.3,78.5 65.2,45.9 63.8,36.9 			"/>
		</g>
		<g>
			<polygon class="st0" points="104.6,25.8 103.4,17.8 29.8,78.5 40.7,78.5 			"/>
			<polygon class="st0" points="44.8,78.5 54.4,78.5 106.6,37.9 105.1,28.6 			"/>
		</g>
		<g>
			<polygon class="st0" points="160.6,9.8 158.5,0.2 58.8,78.5 73.2,78.5 			"/>
			<polygon class="st0" points="77.5,78.5 92.2,78.5 163.4,22.8 161.2,12.5 			"/>
		</g>
	</g>
	<g>
		<path class="st0" d="M220.7,27.9l-0.4,2.3h-11.7l0.3-1.7c0.2-1.2,0.4-2.4,0.4-3.5c0-2.9-1.2-5.4-6-5.4c-5.1,0-7.3,2.8-7.9,6
			c0,0.4-0.1,0.8-0.1,1.2c0,9.5,20.6,16.7,20.6,32.6c0,1.1-0.1,2.2-0.3,3.4c-2,11-8.9,16.9-23.2,16.9c-9.6,0-15.8-4.8-15.8-14
			c0-1.3,0.1-2.7,0.4-4.2l0.7-3.8h11.6l-0.5,2.9c-0.2,1.2-0.3,2.2-0.3,3.2c0,4.3,2.3,6,6.6,6c4.6,0,7.8-2.2,8.5-6.4
			c0.1-0.5,0.2-1.1,0.2-1.6c0-10.8-20.2-16.5-20.2-32.1c0-1.1,0.1-2.2,0.3-3.4c1.9-10.9,9.5-16.4,22.2-16.4c9.6,0,15,4.7,15,13.6
			C221.1,24.8,221,26.3,220.7,27.9L220.7,27.9z"/>
		<path class="st0" d="M246.7,78.5l-0.2-16.8h-13.7l-6,16.8h-11.8l25.8-67.5h15.9l2.2,67.5H246.7z M246.8,32.3c0-4.6,0-9.1,0.1-12.5
			c-3.6,11-11.2,32.5-11.2,32.5H247C247,52.2,246.8,42.1,246.8,32.3L246.8,32.3z"/>
		<path class="st0" d="M305.2,20.8h-18.8l-3.2,18.1h16.2l-1.7,9.7h-16.2l-5.2,29.9h-12l11.9-67.5h30.8L305.2,20.8z"/>
		<path class="st0" d="M339.7,42.8l-2.2,12.7h-24l-1.4,8.2c-0.1,0.5-0.1,1-0.1,1.5c0,3.1,2,4.8,5.3,4.8c4.2,0,7-1.6,7.7-7.2l0.1-0.8
			h11.3l-0.1,0.8c-1.3,10.8-8.9,16.9-20.7,16.9c-9.6,0-14.8-4.8-14.8-13.3c0-1.4,0.1-2.8,0.4-4.4l3.3-18.6
			c2.2-12.2,9.3-18.2,20.7-18.2s15.1,4.7,15.1,12.3C340.3,39.1,340,40.9,339.7,42.8L339.7,42.8z M323.6,34.3c-4.1,0-6.9,2.6-7.6,6.9
			l-0.9,5.4h12.8l0.9-5.4c0.1-0.7,0.2-1.3,0.2-1.8C329,36,327.1,34.3,323.6,34.3z"/>
		<path class="st0" d="M349.8,22.7c1,0,2,0.3,3,0.8c1,0.5,1.7,1.3,2.3,2.2c0.5,1,0.8,2,0.8,3.1s-0.3,2.1-0.8,3.1s-1.3,1.7-2.2,2.3
			s-2,0.8-3,0.8s-2.1-0.3-3-0.8c-1-0.5-1.7-1.3-2.2-2.3s-0.8-2-0.8-3.1s0.3-2.1,0.8-3.1c0.5-1,1.3-1.7,2.3-2.2
			C347.7,23,348.7,22.7,349.8,22.7L349.8,22.7z M349.8,23.9c-0.8,0-1.6,0.2-2.4,0.6s-1.4,1-1.8,1.8c-0.4,0.8-0.7,1.6-0.7,2.5
			s0.2,1.7,0.6,2.4s1,1.4,1.8,1.8c0.8,0.4,1.6,0.7,2.4,0.7s1.7-0.2,2.4-0.7c0.8-0.4,1.4-1,1.8-1.8c0.4-0.8,0.6-1.6,0.6-2.4
			s-0.2-1.7-0.7-2.5c-0.4-0.8-1-1.4-1.8-1.8C351.5,24.1,350.6,23.9,349.8,23.9L349.8,23.9z M347,32.1v-6.5h1.3c1.2,0,1.9,0,2.1,0
			c0.4,0,0.8,0.1,1,0.3c0.2,0.1,0.4,0.3,0.6,0.6c0.2,0.3,0.2,0.6,0.2,0.9c0,0.5-0.1,0.9-0.5,1.2c-0.3,0.3-0.7,0.5-1.3,0.6
			c0.2,0.1,0.4,0.2,0.5,0.2c0.1,0.1,0.2,0.2,0.4,0.5c0,0.1,0.2,0.3,0.5,0.8l0.8,1.3H351l-0.5-1.1c-0.4-0.7-0.7-1.2-0.9-1.3
			c-0.2-0.2-0.5-0.3-0.9-0.3h-0.3v2.7H347L347,32.1z M348.3,28.4h0.5c0.8,0,1.2,0,1.4-0.1s0.3-0.2,0.4-0.3c0.1-0.2,0.2-0.3,0.2-0.5
			s0-0.3-0.2-0.5c-0.1-0.1-0.2-0.2-0.4-0.3c-0.2-0.1-0.7-0.1-1.4-0.1h-0.5L348.3,28.4L348.3,28.4z"/>
	</g>
	<path class="st0" d="M171.6,65.8c0-1.8,0.2-3.5,0.5-5.2l0.7-3.8l0.8-4.2h18.1c-5.8-5.4-13.1-12.1-13.1-22.8c0-1.4,0.1-2.8,0.4-4.3
		c1.9-10.6,8.4-17.4,18.7-19.7L196.3,0L96.7,78.5H176C173.1,75.3,171.6,71,171.6,65.8L171.6,65.8z"/>
</g>
</svg>
