<?xml version="1.0" encoding="utf-8"?>
<!-- Generator: Adobe Illustrator 27.3.1, SVG Export Plug-In . SVG Version: 6.00 Build 0)  -->
<svg version="1.1" id="Layer_1" xmlns="http://www.w3.org/2000/svg" xmlns:xlink="http://www.w3.org/1999/xlink" x="0px" y="0px"
	 viewBox="0 0 103.8 28.5" style="enable-background:new 0 0 103.8 28.5;" xml:space="preserve">
<style type="text/css">
	.st0{fill-rule:evenodd;clip-rule:evenodd;fill:#474747;}
	.st1{fill:#8EB43F;}
	.st2{fill:#BF1919;}
</style>
<path class="st0" d="M35.8,15.6h1.6c0.1,0.7,0.7,1.1,1.5,1.1c0.7,0,1.2-0.3,1.2-0.8c0-0.4-0.3-0.6-0.9-0.8l-1.4-0.4
	c-1.2-0.3-1.8-0.9-1.8-2c0-1.5,1.3-2,2.7-2c1.5,0,2.7,0.7,2.8,2.2h-1.6c0-0.7-0.6-1-1.3-1c-0.6,0-1,0.3-1,0.7c0,0.4,0.2,0.6,0.9,0.8
	l1.4,0.4c1.1,0.3,1.8,0.9,1.8,2c0,1.6-1.4,2.1-2.8,2.1C37.1,17.9,35.9,17.1,35.8,15.6L35.8,15.6z M43.4,17.7v-7h5v1.3H45v1.4h2.8
	v1.3H45v1.5h3.4v1.3H43.4z M50.3,17.7v-7h1.9l1.6,3.2l1.6-3.2h1.8v7h-1.5v-4.9l-1.6,3h-0.9l-1.6-3v4.9H50.3L50.3,17.7z M58.8,17.7
	l2.6-7h1.7l2.6,7H64l-0.4-1.3h-2.7l-0.4,1.3H58.8z M61.2,15.3h2l-1-2.9L61.2,15.3L61.2,15.3z M67.2,17.7v-7h2.4c2,0,3.2,0.7,3.2,2.4
	s-1.2,2.4-3.2,2.4h-0.8v2.2H67.2z M68.8,14.2h0.8c1.1,0,1.5-0.3,1.5-1.1c0-0.7-0.4-1.1-1.5-1.1h-0.8V14.2z M74.5,17.7v-7h1.6v2.7
	h2.8v-2.7h1.6v7h-1.6v-2.9h-2.8v2.9L74.5,17.7L74.5,17.7z M85.9,16.5c1.4,0,1.7-1.1,1.7-2.2S87.3,12,85.9,12s-1.7,1.1-1.7,2.2
	S84.5,16.5,85.9,16.5z M85.9,17.9c-2.3,0-3.4-1.4-3.4-3.6s1.1-3.6,3.4-3.6s3.4,1.4,3.4,3.6S88.1,17.9,85.9,17.9z M91.2,17.7v-7h2.4
	c2,0,3.2,0.7,3.2,2.4c0,1.1-0.6,1.7-1.4,2l1.8,2.6h-1.8l-1.4-2.2h-1.1v2.2H91.2z M92.8,14.2h0.8c1.1,0,1.5-0.3,1.5-1.1
	c0-0.7-0.4-1.1-1.5-1.1h-0.8V14.2z M98.8,17.7v-7h5v1.3h-3.4v1.4h2.8v1.3h-2.8v1.5h3.4v1.3H98.8z"/>
<path class="st1" d="M26,6.1c0.3-0.1,0.6,0.1,0.7,0.3c0,0,0.6,0.9,0.9,1.6s0.7,1.7,0.7,1.7c0.1,0.3,0,0.6-0.2,0.8l-1.8,1.3
	c-0.2,0.2-0.4,0.5-0.3,0.8c0,0,0.1,0.7,0.1,1.3c0,0.6,0,1.3,0,1.3c0,0.3,0.1,0.6,0.4,0.8l1.9,1.2c0.2,0.2,0.4,0.5,0.3,0.7
	c0,0-0.3,1-0.6,1.8s-0.8,1.7-0.8,1.7c-0.1,0.2-0.4,0.4-0.7,0.3l-2.2-0.4c-0.3,0-0.6,0.1-0.8,0.3c0,0-0.5,0.6-0.9,1
	c-0.5,0.5-1.2,1-1.2,1C21.1,23.7,21,24,21,24.3l0.4,2.2c0,0.3-0.1,0.6-0.4,0.7c0,0-0.9,0.5-1.7,0.8s-1.8,0.5-1.8,0.5
	c-0.3,0.1-0.6-0.1-0.7-0.3l-1.2-1.9c-0.2-0.2-0.5-0.4-0.7-0.4c0,0-0.6,0-1.1,0c-0.6,0-1.2-0.1-1.2-0.1c-0.3,0-0.6,0.1-0.8,0.3
	L10.5,28c-0.2,0.2-0.5,0.3-0.8,0.2c0,0-1-0.3-1.7-0.7s-1.6-0.9-1.6-0.9c-0.2-0.2-0.4-0.4-0.3-0.7L6.5,24c0.1-0.5,0.4-0.9,0.7-1.2
	L12,18c3.9,2.1,8.2-2.1,6-6l4.8-4.8c0.4-0.3,0.8-0.6,1.2-0.7L26,6.1z"/>
<path class="st2" d="M2.5,22.5c-0.3,0.1-0.6-0.1-0.7-0.3c0,0-0.6-0.9-0.9-1.6s-0.6-1.7-0.6-1.7c-0.1-0.3,0-0.6,0.2-0.8l1.8-1.3
	c0.2-0.2,0.4-0.5,0.3-0.8c0,0-0.1-0.7-0.1-1.3c0-0.6,0-1.3,0-1.3c0-0.3-0.1-0.6-0.4-0.8l-1.9-1.2C0.1,11.3,0,11,0,10.7
	c0,0,0.3-1,0.6-1.8s0.8-1.7,0.8-1.7C1.5,7,1.8,6.9,2.1,6.9l2.2,0.4c0.3,0,0.6-0.1,0.8-0.3c0,0,0.5-0.6,0.9-1c0.5-0.5,1.2-1,1.2-1
	c0.2-0.2,0.3-0.5,0.3-0.8L7.1,2c0-0.3,0.1-0.6,0.4-0.7c0,0,0.9-0.5,1.7-0.8S10.9,0,10.9,0c0.3-0.1,0.6,0.1,0.7,0.3l1.2,1.9
	c0.2,0.2,0.5,0.4,0.7,0.4c0,0,0.6,0,1.1,0c0.6,0,1.2,0.1,1.2,0.1c0.3,0,0.6-0.1,0.8-0.3L18,0.5c0.2-0.2,0.5-0.3,0.8-0.2
	c0.6,0.2,1.2,0.5,1.7,0.7c0.7,0.3,1.6,0.9,1.6,0.9c0.2,0.1,0.4,0.5,0.3,0.7L22,4.5c-0.1,0.5-0.4,0.9-0.7,1.2l-4.8,4.8
	c-3.9-2.1-8.2,2.1-6,6l-4.8,4.8c-0.4,0.3-0.8,0.6-1.2,0.7L2.5,22.5z"/>
</svg>
