<?xml version="1.0" encoding="utf-8"?>
<!-- Generator: Adobe Illustrator 16.0.3, SVG Export Plug-In . SVG Version: 6.00 Build 0)  -->
<!DOCTYPE svg PUBLIC "-//W3C//DTD SVG 1.1//EN" "http://www.w3.org/Graphics/SVG/1.1/DTD/svg11.dtd">
<svg version="1.1" id="Layer_1" xmlns="http://www.w3.org/2000/svg" xmlns:xlink="http://www.w3.org/1999/xlink" x="0px" y="0px"
	 width="298.951px" height="72.792px" viewBox="0 105.213 298.951 72.792" enable-background="new 0 105.213 298.951 72.792"
	 xml:space="preserve">
<g>
	<path fill="#4B9FD5" d="M290.133,168.654h-3.658c0-29.433-24.318-53.487-54.357-53.487v-3.777
		c31.998,0,58.092,25.847,58.092,57.264H290.133L290.133,168.654z"/>
	<path fill="#4B9FD5" d="M292.678,148.959c-4.41-18.48-19.378-34.008-38.273-39.361l0.849-3.004
		c19.887,5.787,35.729,22.092,40.309,41.787L292.678,148.959L292.678,148.959z M296.819,131.664
		c-4.554-9.955-12.185-18.506-21.729-24.271l1.214-2.179c9.907,5.957,18.068,15.116,22.647,25.457L296.819,131.664z"/>
	<path fill="#FFFFFF" d="M0,167.273c2.18,1.189,5.57,2.18,9.351,2.18c8.165,0,12.329-3.973,12.329-9.351
		c-0.072-4.164-2.396-7.146-7.75-8.938c-3.539-1.211-4.58-1.984-4.58-3.391c-0.072-1.381,1.186-2.18,3.369-2.18
		c2.371,0,4.988,0.799,6.177,1.576l1.55-6.155c-1.771-0.799-4.724-1.793-8.118-1.793c-7.048,0-11.53,4.167-11.53,9.546
		c-0.145,3.391,2.18,6.564,8.14,8.552c3.271,1.186,4.189,1.793,4.189,3.39c-0.022,1.598-1.186,2.375-3.777,2.375
		c-2.714,0-6.177-1.189-7.753-2.18L0,167.273z M39.221,145.786c4.044,0,5.74,4.167,5.74,8.552c-0.047,5.186-2.205,8.551-5.765,8.551
		c-3.803,0-5.791-3.585-5.791-8.551c-0.047-4.165,1.598-8.552,5.791-8.552 M39.51,139.222c-9.278,0-15.43,5.96-15.43,15.312
		c0.047,9.35,6.539,14.92,14.899,14.92c7.702,0,15.115-4.967,15.115-15.502c0.047-8.552-5.765-14.729-14.512-14.729H39.51
		 M56.928,168.654h8.938v-16.496c0-0.799-0.025-1.598,0.361-2.205c0.561-1.572,1.988-3.365,4.58-3.365
		c3.148,0,4.384,2.592,4.384,6.152l0.072,15.914h8.917v-16.908c0-8.552-4.41-12.329-10.2-12.329c-4.894,0-7.753,2.787-8.939,4.58
		h-0.195l-0.412-3.976h-7.75c0.119,2.595,0.191,5.573,0.191,9.159L56.928,168.654z M103.897,158.31c0,0.412-0.072,0.994-0.268,1.406
		c-0.506,1.987-2.396,3.368-4.576,3.368c-1.962,0-3.585-1.189-3.585-3.368c0.072-3.391,3.777-4.579,8.356-4.579L103.897,158.31
		 M112.521,151.746c0-6.759-2.931-12.524-12.477-12.524c-5.328,0-9.351,1.601-11.335,2.592l1.721,5.765
		c1.887-1.186,5.039-2.179,8.017-2.179c4.337,0,5.183,2.179,5.183,3.781l-0.021,0.387c-10.175,0-16.887,3.586-16.887,10.948
		c0.025,4.554,3.585,8.938,9.351,8.938c3.343,0,6.372-1.381,8.14-3.586h0.195l0.531,2.787h8.067
		c-0.361-1.572-0.437-4.168-0.437-6.951L112.521,151.746z M116.906,168.654h8.913v-14.508c0-0.607,0.076-1.406,0.076-1.988
		c0.701-2.787,3.004-4.58,6.177-4.58c1.041,0,1.793,0.195,2.371,0.195l0.072-8.356c-0.629,0-1.063-0.195-1.84-0.195
		c-2.859,0-6.372,1.793-7.774,5.96h-0.242l-0.365-5.162h-7.63c0.169,2.375,0.292,5.162,0.292,9.351L116.906,168.654L116.906,168.654
		z M194.184,160.709c0,2.979,0.145,5.766,0.145,7.945h-4.605l-0.289-4.771h-0.119c-1.385,2.396-4.533,5.57-9.716,5.57
		c-4.456,0-9.933-2.592-9.933-12.716v-17.129h5.307v16.135c0,5.548,1.648,9.325,6.419,9.325c3.61,0,5.981-2.566,6.976-4.966
		c0.34-0.799,0.582-1.598,0.582-2.592l-0.047-17.902h5.281V160.709L194.184,160.709z M203.508,157.319
		c0,0.604,0.17,1.186,0.17,1.793c1.113,3.776,4.168,6.368,7.945,6.368c5.596,0,8.964-4.576,8.964-11.334
		c-0.072-5.766-2.979-10.757-8.769-10.757c-3.561,0-6.955,2.396-7.948,6.564c-0.167,0.607-0.387,1.211-0.387,2.205L203.508,157.319
		 M198.058,168.85c0.12-1.988,0.242-4.771,0.242-7.342v-35.222h5.208V144.6h0.12c1.864-3.199,5.208-5.378,9.983-5.378
		c7.146,0,12.328,5.96,12.133,14.925c0.051,10.34-6.563,15.502-12.91,15.502c-4.262,0-7.559-1.576-9.763-5.57h-0.217l-0.242,4.771
		H198.058L198.058,168.85z M249.221,151.359c0.047-3.391-1.381-8.552-7.367-8.552c-5.302,0-7.748,4.966-8.139,8.552H249.221
		 M233.715,155.137c0.123,7.17,4.774,10.152,9.932,10.152c3.828,0,6.178-0.803,8.166-1.602l0.824,3.781
		c-1.865,0.799-5.018,1.793-9.572,1.793c-9.057,0-14.338-5.766-14.338-14.534c-0.051-8.747,5.184-15.697,13.539-15.697
		c9.521,0,12.139,8.356,12.139,13.71c-0.098,0.994-0.218,1.793-0.218,2.396H233.715L233.715,155.137z M157.385,163.084
		c-4.916,3.391-11.578,2.205-14.972-2.786c-3.292-4.966-1.984-11.53,2.787-14.899c4.991-3.391,11.726-2.01,15.115,2.787
		c3.246,4.967,1.988,11.725-2.978,14.898 M164.023,145.594c-4.748-6.976-14.244-8.747-21.415-3.972
		c-6.904,4.771-8.743,14.317-3.972,21.267c4.214,6.178,12.137,8.357,18.893,5.574l5.862,9.542l4.724-3.173l-5.935-9.764
		c5.136-4.966,6.079-13.105,1.915-19.475H164.023"/>
</g>
</svg>
