<svg width="154" height="36" viewBox="0 0 154 36" fill="none" xmlns="http://www.w3.org/2000/svg">
<g clip-path="url(#clip0_1564_107)">
<path d="M44.6847 18.3367C43.9387 18.0093 43.3526 17.545 42.9263 16.9513C42.5533 16.4184 42.3402 15.8171 42.2945 15.1244C42.2869 14.9798 42.4087 14.8504 42.5609 14.8504H43.5429C44.1214 14.8504 44.6923 15.1472 44.9435 15.6725C45.0653 15.916 45.2252 16.1368 45.4383 16.3347C45.8569 16.7229 46.4431 16.9132 47.2043 16.9132C47.9655 16.9132 48.6049 16.7229 49.0388 16.3423C49.4803 15.9617 49.701 15.4745 49.701 14.8732C49.701 14.4089 49.564 14.0283 49.29 13.7314C49.0159 13.4421 48.681 13.2138 48.27 13.0539C47.8665 12.8941 47.3032 12.719 46.5801 12.5363C45.6743 12.2927 44.9359 12.0568 44.3726 11.8056C43.8093 11.562 43.3221 11.1738 42.9263 10.6561C42.5229 10.1385 42.325 9.44584 42.325 8.57807C42.325 7.77881 42.5229 7.07851 42.9263 6.48477C43.3298 5.88342 43.8854 5.4267 44.601 5.107C45.3165 4.78729 46.1538 4.62744 47.0977 4.62744C48.445 4.62744 49.5412 4.96237 50.4013 5.63984C51.1853 6.25641 51.6497 7.07851 51.7943 8.11374C51.8171 8.26598 51.6877 8.403 51.5355 8.403H49.5335C49.4041 8.403 49.3052 8.30404 49.2747 8.18225C49.191 7.7712 48.9626 7.41344 48.5897 7.10895C48.1482 6.75119 47.5696 6.5685 46.8541 6.5685C46.1995 6.5685 45.6666 6.73597 45.2556 7.07089C44.8445 7.40582 44.639 7.88538 44.639 8.50956C44.639 8.93584 44.7684 9.28599 45.0272 9.56002C45.286 9.83405 45.6134 10.0472 46.0168 10.207C46.4126 10.3669 46.9607 10.542 47.6534 10.7247C48.5744 10.9759 49.3204 11.227 49.8989 11.4859C50.4774 11.7447 50.9722 12.1253 51.3757 12.6505C51.7791 13.1757 51.9846 13.876 51.9846 14.759C51.9846 15.4669 51.7943 16.1292 51.4137 16.7534C51.0331 17.3775 50.485 17.8799 49.7543 18.2605C49.0312 18.6411 48.171 18.8314 47.189 18.8314C46.2604 18.8314 45.4155 18.6716 44.6771 18.3443L44.6847 18.3367Z" fill="#FFFFFF"/>
<path d="M56.3768 18.1614C55.5395 17.6895 54.8772 17.0196 54.3977 16.1671C53.9181 15.3069 53.6821 14.3097 53.6821 13.1831C53.6821 12.0566 53.9257 11.0746 54.4205 10.2069C54.9153 9.33909 55.5851 8.67684 56.4377 8.21251C57.2902 7.74818 58.2417 7.51221 59.2922 7.51221C60.3426 7.51221 61.2941 7.74818 62.1467 8.21251C62.9992 8.67684 63.6691 9.3467 64.1639 10.2069C64.6586 11.0746 64.9022 12.0642 64.9022 13.1831C64.9022 14.3021 64.651 15.2917 64.141 16.1594C63.6386 17.0272 62.9459 17.6971 62.0706 18.169C61.1952 18.641 60.2361 18.8769 59.1856 18.8769C58.1351 18.8769 57.2065 18.641 56.3692 18.169L56.3768 18.1614ZM60.845 16.4715C61.355 16.1899 61.7737 15.7712 62.0934 15.2156C62.4131 14.6599 62.573 13.9748 62.573 13.1755C62.573 12.3763 62.4207 11.6988 62.1162 11.1507C61.8117 10.5951 61.4007 10.184 60.8983 9.90238C60.3959 9.62073 59.8478 9.48372 59.2617 9.48372C58.6756 9.48372 58.1351 9.62073 57.6328 9.90238C57.1304 10.184 56.7345 10.5951 56.4453 11.1507C56.1484 11.7064 56.0038 12.3763 56.0038 13.1755C56.0038 14.363 56.3083 15.2765 56.9096 15.9235C57.5186 16.5705 58.2798 16.8902 59.1932 16.8902C59.7793 16.8902 60.3274 16.7532 60.8374 16.4715H60.845Z" fill="#FFFFFF"/>
<path d="M79.624 10.2C80.0807 9.34748 80.7125 8.68523 81.5041 8.21329C82.2958 7.74134 83.1712 7.50537 84.1303 7.50537C84.998 7.50537 85.7516 7.67284 86.3986 8.01538C87.0457 8.35792 87.5633 8.77658 87.9439 9.28658V9.24852C87.9439 8.38836 88.6442 7.68806 89.5043 7.68806H89.9839C90.1285 7.68806 90.2427 7.80224 90.2427 7.94687V18.4286C90.2427 18.5732 90.1285 18.6874 89.9839 18.6874H88.2103C88.0657 18.6874 87.9515 18.5732 87.9515 18.4286V17.0508C87.5633 17.5684 87.0381 18.0023 86.3758 18.3525C85.706 18.695 84.9524 18.8701 84.0998 18.8701C83.1559 18.8701 82.2882 18.6265 81.5041 18.1393C80.7201 17.6522 80.0959 16.9747 79.6392 16.0993C79.1825 15.2239 78.9541 14.242 78.9541 13.1306C78.9541 12.0193 79.1825 11.045 79.6392 10.1924L79.624 10.2ZM87.4719 11.1972C87.1598 10.6415 86.7488 10.2152 86.2464 9.91838C85.744 9.62912 85.1959 9.47688 84.6098 9.47688C84.0237 9.47688 83.4756 9.62151 82.9732 9.90315C82.4708 10.1924 82.0598 10.6111 81.7477 11.1591C81.4356 11.7148 81.2758 12.3694 81.2758 13.123C81.2758 13.8766 81.4356 14.5465 81.7477 15.1174C82.0598 15.6883 82.4709 16.1298 82.9885 16.4266C83.4985 16.7235 84.0465 16.8757 84.6174 16.8757C85.1883 16.8757 85.7516 16.7311 86.254 16.4343C86.7564 16.145 87.1675 15.7111 87.4795 15.1478C87.7916 14.5845 87.9515 13.9223 87.9515 13.1611C87.9515 12.3999 87.7916 11.7453 87.4795 11.182L87.4719 11.1972Z" fill="#FFFFFF"/>
<path d="M96.9869 7.97654C97.4741 7.70251 98.0374 7.55027 98.6844 7.51221C98.829 7.51221 98.9584 7.62639 98.9584 7.77101V9.8567H98.3799C97.4893 9.8567 96.8118 10.0851 96.3551 10.5342C95.8984 10.9833 95.67 11.7749 95.67 12.8939V18.4278C95.67 18.5725 95.5559 18.6866 95.4112 18.6866H93.6528C93.5082 18.6866 93.394 18.5725 93.394 18.4278V7.94609C93.394 7.80146 93.5082 7.68728 93.6528 7.68728H94.1096C94.9697 7.68728 95.67 8.38759 95.67 9.24774V9.2858C96.005 8.73013 96.4465 8.28863 96.9945 7.97654H96.9869Z" fill="#FFFFFF"/>
<path d="M76.3278 9.64434C75.9396 8.93643 75.4068 8.40359 74.7217 8.04582C74.0366 7.68806 73.2602 7.50537 72.3924 7.50537C72.3163 7.50537 72.2402 7.50537 72.1641 7.51298C72.1564 7.51298 72.1488 7.51298 72.1412 7.51298C72.1032 7.51298 72.0727 7.52059 72.0346 7.52059C71.9433 7.52059 71.8596 7.53582 71.7758 7.54343C71.7149 7.55104 71.6464 7.55866 71.5855 7.57388C71.479 7.59672 71.3724 7.61194 71.2658 7.64239C71.2506 7.64239 71.2278 7.65 71.2126 7.65761C70.9385 7.73373 70.6797 7.8403 70.4437 7.9697C69.8881 8.2818 69.4466 8.71568 69.1192 9.27897V9.24091C69.1192 8.38075 68.4189 7.68045 67.5588 7.68045H67.1021C66.9574 7.68045 66.8433 7.79463 66.8433 7.93926V18.421C66.8433 18.5656 66.9574 18.6798 67.1021 18.6798H68.8604C69.0051 18.6798 69.1192 18.5656 69.1192 18.421V12.8871C69.1192 12.8871 69.1192 12.8642 69.1192 12.8566V12.5293C69.1192 11.5473 69.3704 10.7861 69.8652 10.2609C70.3676 9.73569 71.0375 9.46927 71.89 9.46927C72.7426 9.46927 73.4124 9.73569 73.9072 10.2609C74.402 10.7861 74.6456 11.5397 74.6456 12.5293V18.421C74.6456 18.5656 74.7597 18.6798 74.9044 18.6798H76.6399C76.7845 18.6798 76.8987 18.5656 76.8987 18.421V12.1868C76.8987 11.1896 76.7084 10.337 76.3202 9.62912L76.3278 9.64434Z" fill="#FFFFFF"/>
<path d="M112.28 21.0239L110.011 18.5652C109.41 18.7403 108.755 18.824 108.032 18.824C106.738 18.824 105.551 18.5196 104.47 17.9182C103.381 17.3092 102.529 16.4643 101.897 15.3834C101.265 14.2949 100.945 13.077 100.945 11.722C100.945 10.3671 101.265 9.14917 101.897 8.06827C102.529 6.98736 103.389 6.15004 104.47 5.54108C105.551 4.93212 106.746 4.63525 108.032 4.63525C109.319 4.63525 110.529 4.93973 111.617 5.54108C112.706 6.15004 113.558 6.98736 114.183 8.06827C114.807 9.14917 115.119 10.3671 115.119 11.722C115.119 13.0008 114.845 14.1579 114.289 15.1855C113.733 16.2207 112.972 17.0428 112.006 17.6746L112.934 18.6946C113.543 19.3569 113.459 20.3997 112.759 20.963L112.637 21.062C112.531 21.1457 112.379 21.1381 112.287 21.0391L112.28 21.0239ZM103.891 14.4243C104.295 15.2007 104.858 15.8021 105.581 16.2207C106.297 16.6394 107.119 16.8525 108.04 16.8525C108.961 16.8525 109.775 16.6394 110.498 16.2207C111.222 15.8021 111.777 15.2007 112.188 14.4243C112.592 13.6479 112.797 12.742 112.797 11.722C112.797 10.702 112.592 9.79619 112.188 9.02738C111.785 8.25857 111.222 7.66483 110.498 7.24617C109.783 6.83512 108.961 6.6296 108.04 6.6296C107.119 6.6296 106.304 6.83512 105.581 7.24617C104.865 7.65722 104.302 8.25096 103.891 9.02738C103.48 9.80381 103.282 10.6944 103.282 11.722C103.282 12.7497 103.488 13.6479 103.891 14.4243Z" fill="#126ED3"/>
<path d="M127.481 9.24064V18.4283C127.481 18.573 127.366 18.6871 127.222 18.6871H125.463C125.319 18.6871 125.205 18.573 125.205 18.4283V17.3931C124.847 17.8422 124.375 18.2 123.796 18.4588C123.218 18.7176 122.601 18.847 121.947 18.847C121.079 18.847 120.31 18.6643 119.617 18.3065C118.932 17.9488 118.392 17.4159 117.996 16.708C117.6 16.0001 117.41 15.1476 117.41 14.1504V7.93898C117.41 7.79436 117.524 7.68018 117.669 7.68018H118.11C118.97 7.68018 119.671 8.38048 119.671 9.24064V13.8155C119.671 14.7974 119.914 15.5586 120.409 16.0838C120.904 16.6091 121.574 16.8755 122.426 16.8755C123.279 16.8755 123.956 16.6091 124.451 16.0838C124.946 15.5586 125.197 14.805 125.197 13.8155V7.9466C125.197 7.80197 125.311 7.68779 125.456 7.68779H125.913C126.773 7.68779 127.473 8.38809 127.473 9.24825L127.481 9.24064Z" fill="#126ED3"/>
<path d="M133.898 8.01498C134.568 7.67244 135.321 7.50498 136.143 7.50498C137.118 7.50498 137.993 7.74095 138.777 8.20528C139.561 8.66961 140.185 9.33186 140.634 10.192C141.083 11.0522 141.312 12.0341 141.312 13.1379C141.312 14.2416 141.083 15.2312 140.634 16.1065C140.185 16.9819 139.561 17.6594 138.769 18.1466C137.978 18.6337 137.102 18.8773 136.143 18.8773C135.291 18.8773 134.537 18.7098 133.875 18.3749C133.213 18.04 132.695 17.6137 132.307 17.0961V18.4358C132.307 18.5804 132.193 18.6946 132.048 18.6946H130.29C130.145 18.6946 130.031 18.5804 130.031 18.4358V4.17092C130.031 4.02629 130.145 3.91211 130.29 3.91211H130.746C131.606 3.91211 132.307 4.61241 132.307 5.47257V9.32425C132.695 8.7914 133.22 8.35752 133.898 8.01498ZM138.533 11.1664C138.221 10.6107 137.81 10.192 137.293 9.91037C136.783 9.62111 136.227 9.4841 135.641 9.4841C135.055 9.4841 134.529 9.62873 134.012 9.92559C133.502 10.2225 133.083 10.6411 132.771 11.2044C132.459 11.7601 132.299 12.4223 132.299 13.1835C132.299 13.9447 132.459 14.607 132.771 15.1703C133.083 15.7336 133.494 16.1674 134.012 16.4567C134.522 16.7536 135.07 16.8982 135.641 16.8982C136.212 16.8982 136.775 16.746 137.293 16.4491C137.803 16.1522 138.221 15.7107 138.533 15.1398C138.845 14.5689 139.005 13.8991 139.005 13.1455C139.005 12.3919 138.845 11.7296 138.533 11.1816V11.1664Z" fill="#126ED3"/>
<path d="M153.491 14.0357H145.316C145.384 14.9111 145.712 15.619 146.298 16.1518C146.884 16.6847 147.599 16.9511 148.452 16.9511C149.624 16.9511 150.461 16.4868 150.979 15.5505C151.025 15.4668 151.108 15.4135 151.2 15.4135H153.506C153.171 16.4259 152.57 17.2556 151.702 17.9026C150.834 18.5496 149.746 18.8693 148.459 18.8693C147.409 18.8693 146.465 18.6333 145.635 18.1614C144.806 17.6895 144.151 17.0196 143.679 16.1671C143.207 15.3145 142.971 14.3097 142.971 13.1832C142.971 12.0566 143.2 11.0594 143.656 10.1992C144.113 9.33909 144.76 8.67684 145.597 8.21251C146.427 7.74818 147.386 7.51221 148.459 7.51221C149.533 7.51221 150.423 7.74057 151.238 8.18968C152.052 8.63878 152.684 9.27819 153.133 10.1003C153.582 10.9224 153.811 11.8587 153.811 12.9243C153.811 13.244 153.795 13.5485 153.765 13.8149C153.75 13.9444 153.636 14.0357 153.506 14.0357H153.491ZM151.421 12.2012C151.405 11.3639 151.108 10.694 150.522 10.184C149.936 9.68163 149.213 9.42282 148.345 9.42282C147.561 9.42282 146.891 9.67402 146.328 10.1688C145.772 10.6712 145.437 11.341 145.331 12.1936H151.421V12.2012Z" fill="#126ED3"/>
<path d="M43.2003 26.5806C43.5048 26.0097 43.9311 25.5682 44.4715 25.2561C45.012 24.944 45.6362 24.7842 46.3289 24.7842C47.2347 24.7842 47.9807 25.0049 48.5668 25.4388C49.1529 25.8803 49.5411 26.4893 49.7314 27.2657H48.4146C48.2851 26.8166 48.0416 26.4664 47.6838 26.2076C47.3184 25.9488 46.8693 25.8194 46.3365 25.8194C45.6362 25.8194 45.0729 26.0554 44.6466 26.5349C44.2203 27.0145 43.9996 27.692 43.9996 28.5673C43.9996 29.4427 44.2127 30.1354 44.6466 30.6226C45.0805 31.1098 45.6362 31.3457 46.3365 31.3457C46.8769 31.3457 47.3184 31.2163 47.6762 30.9727C48.034 30.7215 48.2775 30.3638 48.4146 29.8994H49.7314C49.5335 30.653 49.1377 31.2544 48.5516 31.7035C47.9578 32.1526 47.2195 32.381 46.3365 32.381C45.6362 32.381 45.0196 32.2211 44.4791 31.909C43.9387 31.5969 43.5124 31.1554 43.2079 30.5769C42.9035 30.006 42.7512 29.3362 42.7512 28.5597C42.7512 27.7833 42.9035 27.1363 43.2079 26.5654L43.2003 26.5806Z" fill="#126ED3"/>
<path d="M52.7082 22.3257V32.2594H51.4902V22.3257H52.7082Z" fill="#126ED3"/>
<path d="M56.2552 31.9166C55.6919 31.6045 55.258 31.1554 54.9383 30.5845C54.6186 30.006 54.4587 29.3362 54.4587 28.575C54.4587 27.8138 54.6186 27.1591 54.9459 26.5806C55.2732 26.0021 55.7147 25.5606 56.278 25.2485C56.8413 24.9364 57.4731 24.7842 58.1734 24.7842C58.8737 24.7842 59.5055 24.9364 60.0688 25.2485C60.6321 25.5606 61.0812 25.9945 61.4009 26.573C61.7282 27.1439 61.8881 27.8138 61.8881 28.575C61.8881 29.3362 61.7206 30.006 61.3857 30.5845C61.0507 31.163 60.594 31.6045 60.0231 31.9166C59.4522 32.2287 58.8128 32.3886 58.1201 32.3886C57.4274 32.3886 56.8032 32.2287 56.2476 31.9166H56.2552ZM59.3609 31.0032C59.7491 30.7977 60.0536 30.4856 60.2971 30.0745C60.5331 29.6635 60.6549 29.1611 60.6549 28.5673C60.6549 27.9736 60.5407 27.4788 60.3048 27.0678C60.0688 26.6567 59.7643 26.3523 59.3913 26.1467C59.0183 25.9488 58.6073 25.8422 58.1658 25.8422C57.7243 25.8422 57.3056 25.9412 56.9403 26.1467C56.5673 26.3446 56.2704 26.6567 56.0497 27.0678C55.8289 27.4788 55.7147 27.9812 55.7147 28.5673C55.7147 29.1535 55.8213 29.6711 56.042 30.0821C56.2628 30.4932 56.552 30.7977 56.925 31.0032C57.2904 31.2011 57.6938 31.3077 58.1353 31.3077C58.5768 31.3077 58.9879 31.2011 59.3685 30.9956L59.3609 31.0032Z" fill="#126ED3"/>
<path d="M70.1697 24.9058V32.2666H68.9441V31.1781C68.7082 31.551 68.3885 31.8479 67.9698 32.061C67.5511 32.2742 67.0944 32.3731 66.592 32.3731C66.0211 32.3731 65.5035 32.2513 65.0468 32.0154C64.5901 31.7794 64.2323 31.4216 63.9659 30.9497C63.6995 30.4777 63.5701 29.8992 63.5701 29.2142V24.9058H64.7804V29.0543C64.7804 29.7774 64.9631 30.3331 65.3284 30.7289C65.6938 31.1248 66.1962 31.3151 66.8356 31.3151C67.475 31.3151 68.0003 31.1172 68.3809 30.7137C68.7538 30.3103 68.9441 29.7242 68.9441 28.9553V24.9134H70.1697V24.9058Z" fill="#126ED3"/>
<path d="M72.3696 26.581C72.6741 26.0101 73.0927 25.5686 73.6256 25.2565C74.1584 24.9444 74.7522 24.7846 75.4144 24.7846C75.9853 24.7846 76.5181 24.914 77.0129 25.1804C77.5077 25.4468 77.8807 25.7893 78.1395 26.2232V22.3335H79.3727V32.2672H78.1395V30.8818C77.8959 31.3233 77.5382 31.681 77.0662 31.9627C76.5943 32.2443 76.0386 32.389 75.3992 32.389C74.7598 32.389 74.1508 32.2291 73.618 31.9018C73.0851 31.5821 72.6665 31.1254 72.362 30.5468C72.0575 29.9683 71.9053 29.3061 71.9053 28.5601C71.9053 27.8141 72.0575 27.1519 72.362 26.581H72.3696ZM77.8122 27.1214C77.5914 26.7104 77.287 26.3907 76.9064 26.1776C76.5258 25.9568 76.1071 25.8502 75.6504 25.8502C75.1937 25.8502 74.775 25.9568 74.402 26.1699C74.029 26.3831 73.7245 26.6952 73.5038 27.1062C73.2831 27.5173 73.1689 28.0044 73.1689 28.5525C73.1689 29.1006 73.2831 29.603 73.5038 30.0216C73.7245 30.4403 74.029 30.7524 74.402 30.9731C74.775 31.1939 75.1937 31.3004 75.6504 31.3004C76.1071 31.3004 76.5258 31.1939 76.9064 30.9731C77.287 30.7524 77.5914 30.4327 77.8122 30.0216C78.0329 29.6106 78.1471 29.1234 78.1471 28.5677C78.1471 28.0121 78.0329 27.5325 77.8122 27.1214Z" fill="#126ED3"/>
<path d="M22.0469 11.311C21.0725 10.3518 19.7937 9.83422 18.4159 9.84945C17.7841 9.84945 17.2817 10.3747 17.2817 10.9989C17.2817 11.623 17.7994 12.133 18.4235 12.133C18.4312 12.133 18.4464 12.133 18.4616 12.133C20.0068 12.133 21.278 13.389 21.2933 14.9343C21.2933 15.5585 21.8109 16.0685 22.4351 16.0685H22.4427C23.0745 16.0685 23.5769 15.5432 23.5769 14.919C23.5616 13.5565 23.0212 12.2701 22.0469 11.3186V11.311Z" fill="#126ED3"/>
<path d="M18.5908 2.93009C18.6364 2.93009 18.6745 2.93009 18.7126 2.93009C24.589 2.93009 29.6206 7.28415 30.4503 13.0997C30.534 13.6706 31.0212 14.0817 31.5769 14.0817C31.6301 14.0817 31.6834 14.0817 31.7367 14.0741C32.3609 13.9827 32.7948 13.4042 32.7034 12.78C31.7291 5.83787 25.7232 0.646484 18.7202 0.646484C18.6745 0.646484 18.6288 0.646484 18.5832 0.646484C17.9514 0.646484 17.449 1.17171 17.449 1.7959C17.449 2.42008 17.9666 2.93009 18.5908 2.93009Z" fill="#126ED3"/>
<path d="M28.2352 15.6957C28.3418 12.9706 27.3675 10.2151 25.2894 8.14461C21.3388 4.19398 14.9142 4.19398 10.9712 8.14461C8.9388 10.177 7.90356 12.9021 8.02535 15.7338C6.33549 16.1677 4.72936 17.0354 3.40487 18.3599C-0.545763 22.3106 -0.545763 28.7351 3.40487 32.6781C5.37638 34.6496 7.97207 35.6392 10.5678 35.6392C13.1635 35.6392 15.7515 34.6496 17.7307 32.6781C17.8905 32.5183 18.0351 32.3432 18.1874 32.1757C20.0447 34.2995 22.7622 35.6468 25.7994 35.6468C31.3866 35.6468 35.9234 31.1024 35.9234 25.5228C35.9234 20.8643 32.6806 16.7995 28.2352 15.6957ZM25.7994 33.3632C21.4758 33.3632 17.959 29.8464 17.959 25.5228C17.959 24.891 17.449 24.381 16.8172 24.381C16.1854 24.381 15.6754 24.891 15.6754 25.5228C15.6754 27.2203 16.1017 28.8188 16.8401 30.227C16.6193 30.5239 16.3833 30.8056 16.1169 31.072C13.0569 34.132 8.07864 34.132 5.02622 31.072C1.9662 28.0119 1.9662 23.0413 5.02622 19.9813C8.08625 16.9213 13.0569 16.9213 16.1169 19.9813C16.566 20.4304 17.2892 20.4304 17.7307 19.9813C18.1722 19.5322 18.1798 18.809 17.7307 18.3675C15.683 16.3199 12.9732 15.3456 10.2861 15.4217C10.2557 13.3056 11.0625 11.2808 12.5849 9.76597C15.645 6.70594 20.6156 6.70594 23.6756 9.76597C26.7357 12.826 26.7357 17.8042 23.6756 20.8567C23.2265 21.3058 23.2265 22.0289 23.6756 22.4704C23.8964 22.6912 24.1933 22.8053 24.4825 22.8053C24.7718 22.8053 25.0686 22.6912 25.2894 22.4704C26.5834 21.1764 27.4436 19.6235 27.8851 17.9793C31.2191 18.908 33.6398 21.9985 33.6398 25.5304C33.6398 29.8541 30.123 33.3708 25.7994 33.3708V33.3632Z" fill="#126ED3"/>
</g>
<defs>
<clipPath id="clip0_1564_107">
<rect width="153.351" height="35" fill="white" transform="translate(0.443848 0.646484)"/>
</clipPath>
</defs>
</svg>
