<?xml version="1.0" encoding="utf-8"?>
<!-- Generator: Adobe Illustrator 27.3.1, SVG Export Plug-In . SVG Version: 6.00 Build 0)  -->
<svg version="1.1" id="katman_1" xmlns="http://www.w3.org/2000/svg" xmlns:xlink="http://www.w3.org/1999/xlink" x="0px" y="0px"
	 viewBox="0 0 410.7 475.2" style="enable-background:new 0 0 410.7 475.2;" xml:space="preserve">
<style type="text/css">
	.st0{fill-rule:evenodd;clip-rule:evenodd;fill:url(#Shape_00000026874097461923048320000005567784678836365749_);}
	.st1{fill-rule:evenodd;clip-rule:evenodd;fill:url(#SVGID_1_);}
	.st2{fill:#119DB6;}
</style>
<g id="Home-page">
	<g id="Desktop" transform="translate(-809.000000, -414.000000)">
		<g id="Group-3" transform="translate(75.000000, 402.000000)">
			<g id="Group-2" transform="translate(734.000000, 12.000000)">
				
					<linearGradient id="Shape_00000158013574287593618180000017181322526837908115_" gradientUnits="userSpaceOnUse" x1="54.9554" y1="403.4891" x2="53.5597" y2="406.8607" gradientTransform="matrix(112 0 0 120 -5847.5479 -48419.418)">
					<stop  offset="0" style="stop-color:#2A3D8F"/>
					<stop  offset="0.16" style="stop-color:#2063A8"/>
					<stop  offset="0.32" style="stop-color:#1985BE"/>
					<stop  offset="0.49" style="stop-color:#07A0CC"/>
					<stop  offset="0.66" style="stop-color:#0DB4D6"/>
					<stop  offset="0.83" style="stop-color:#2ABADA"/>
					<stop  offset="1" style="stop-color:#36BCD9"/>
				</linearGradient>
				
					<path id="Shape" style="fill-rule:evenodd;clip-rule:evenodd;fill:url(#Shape_00000158013574287593618180000017181322526837908115_);" d="
					M35.1,350.2c158.6,15.7,285.9-78,317.8-118.4S336.4,0,336.4,0C284.2,128.1,189.3,322.6,35.1,350.2L35.1,350.2z"/>
				
					<linearGradient id="SVGID_1_" gradientUnits="userSpaceOnUse" x1="-875.8751" y1="404.8317" x2="-527.86" y2="404.8317" gradientTransform="matrix(64 0 0 73 -3297.7466 -29360.5918)">
					<stop  offset="0" style="stop-color:#2A3D8F"/>
					<stop  offset="0.16" style="stop-color:#2063A8"/>
					<stop  offset="0.32" style="stop-color:#1985BE"/>
					<stop  offset="0.49" style="stop-color:#07A0CC"/>
					<stop  offset="0.66" style="stop-color:#0DB4D6"/>
					<stop  offset="0.83" style="stop-color:#2ABADA"/>
					<stop  offset="1" style="stop-color:#36BCD9"/>
				</linearGradient>
				<path class="st1" d="M108.3,299.1c93.5,3.4,164.8-55.3,181.9-79.8C307.3,194.8,281,85,281,85C255.2,161.2,182.9,272,108.3,299.1
					z"/>
				<path class="st2" d="M6,433c3,3,6.4,5.4,10.1,7.2s8,2.8,12.1,2.8c4.4,0.2,8.8-1,12.3-3.6c3-2.2,4.6-5.8,4.4-9.4
					c0-1.8-0.4-3.6-1-5.2c-0.6-1.4-1.6-2.6-2.8-3.6c-1.4-1-2.8-2-4.2-2.8l-5.2-2.6l-11.5-5c-2-0.8-4-1.8-5.8-3
					c-2-1.2-3.8-2.6-5.4-4.2c-1.6-1.6-3-3.6-3.8-5.8c-2.2-5.2-2-10.9,0.4-15.9c1.2-2.6,3-4.8,5.4-6.8s5-3.4,8-4.4
					c3.2-1,6.8-1.6,10.1-1.6c4.6,0,9.2,1,13.3,2.8c4,1.6,7.4,4.2,10.5,7.2l-5.6,6.6c-2.4-2.2-5.2-4.2-8.2-5.6c-3.2-1.4-6.6-2-10.1-2
					c-3.8-0.2-7.8,0.8-10.9,3c-2.8,2-4.2,5.2-4.2,8.6c0,1.8,0.4,3.4,1.2,5c0.8,1.4,2,2.6,3.2,3.4c1.4,1,2.8,2,4.4,2.6
					c1.6,0.8,3.2,1.6,4.8,2.2l11.5,4.8c2.2,1,4.4,2,6.6,3.4c2,1.2,3.8,2.6,5.4,4.4c1.6,1.8,2.8,3.6,3.6,5.8c1,2.4,1.4,5,1.2,7.8
					c0,3-0.6,6-2,8.8c-1.2,2.8-3.2,5.2-5.6,7.2c-2.6,2.2-5.4,3.8-8.6,4.8c-3.8,1.2-7.6,1.8-11.3,1.8c-10.7,0-20.9-4.2-28.3-11.7
					L6,433z"/>
				<path class="st2" d="M65.3,455.3v19.9h-9.6v-83.6h8l0.8,6.8h0.4c2.6-2.2,5.4-4.2,8.6-5.8c3-1.6,6.4-2.4,9.8-2.4s6.8,0.8,9.8,2.2
					c2.8,1.4,5.2,3.4,7,6c2,2.8,3.4,6,4.2,9.4c1,4,1.6,8.2,1.4,12.3c0,4.6-0.6,9.2-2,13.3c-1.2,3.6-3,7-5.4,9.9
					c-2.2,2.6-4.8,4.8-8,6.2c-3,1.4-6.2,2.2-9.4,2.2c-2.8,0-5.4-0.6-8-1.8c-2.8-1.4-5.6-3-8-5L65.3,455.3z M65.3,437.4
					c2.2,2,4.8,3.6,7.6,4.8c2,0.8,4.2,1.4,6.4,1.4s4.6-0.6,6.6-1.6c2-1.2,3.8-2.8,5.2-4.6c1.6-2.2,2.8-4.8,3.4-7.4
					c0.8-3.2,1.2-6.6,1.2-9.8c0-3-0.2-5.8-0.8-8.8c-0.4-2.4-1.4-4.8-2.6-6.8c-1.2-1.8-2.8-3.4-4.8-4.4c-2.2-1.2-4.6-1.6-7-1.6
					c-2.6,0-5.2,0.8-7.4,2c-2.8,1.6-5.6,3.6-8,6L65.3,437.4z"/>
				<path class="st2" d="M115.7,379.3c-2,0-3.8-0.6-5.2-1.8c-1.4-1.2-2.2-2.8-2.2-4.6s0.8-3.4,2.2-4.6c3-2.4,7.4-2.4,10.3,0
					c1.4,1.2,2.2,2.8,2.2,4.6c0,1.8-0.8,3.4-2.2,4.6C119.5,378.7,117.7,379.3,115.7,379.3z M110.3,391h10.5v57.7h-10.5V391z"/>
				<path class="st2" d="M129,391.6h8.2l0.8,8.2h0.4c2.6-2.6,5.6-5,8.8-7c3.2-2,7-2.8,10.7-2.8c6.2,0,10.7,1.8,13.5,5.6
					c2.8,3.8,4.4,9.4,4.4,16.7v36.2h-9.9v-35c0-5.4-0.8-9.4-2.6-11.7c-2-2.6-5.2-3.8-8.4-3.6c-2.8,0-5.6,0.8-8,2.2
					c-2.8,2-5.6,4.2-8,6.6v41.4H129V391.6L129,391.6z"/>
				<path class="st2" d="M181.7,391.6h8.2l0.8,8.2h0.4c2.6-2.6,5.6-5,8.8-7c3.2-2,7-2.8,10.9-2.8c6.2,0,10.7,1.8,13.5,5.6
					c2.8,3.8,4.4,9.4,4.4,16.7v36.2h-10.1v-35c0-5.4-0.8-9.4-2.6-11.7c-2-2.6-5.2-3.8-8.4-3.6c-2.8,0-5.6,0.8-8,2.2
					c-2.8,2-5.6,4.2-8,6.6v41.4h-9.8v-56.7L181.7,391.6L181.7,391.6z"/>
				<path class="st2" d="M234.7,435c-0.2-6.2,3.4-11.9,9-14.7c6-3.4,15.1-5.8,27.9-7.2c0-1.8-0.2-3.6-0.6-5.4c-0.4-1.6-1-3.2-2-4.8
					c-1-1.4-2.2-2.6-3.8-3.4c-1.8-1-4-1.4-6-1.2c-3.4,0-6.8,0.6-9.8,2c-2.8,1.2-5.6,2.6-8,4.4l-4-7c3.2-2,6.6-3.8,10.1-5.2
					c4.2-1.8,8.8-2.6,13.3-2.4c7.4,0,12.5,2.2,15.9,6.6c3.6,5.2,5.2,11.3,5,17.5v36h-8.4l-0.8-7h-0.2c-2.8,2.4-6,4.4-9.4,6
					c-3.2,1.6-6.8,2.6-10.5,2.4c-4.6,0.2-9.2-1.4-12.5-4.4C236.3,444.1,234.3,439.8,234.7,435z M244.6,434.4c-0.2,2.8,0.8,5.6,3,7.2
					s4.8,2.2,7.4,2.2c2.8,0,5.6-0.6,8.2-2c3-1.6,5.8-3.6,8.2-5.8v-16.3c-4.2,0.6-8.6,1.2-12.7,2.4c-3,0.6-5.8,1.8-8.4,3.2
					c-1.8,1-3.4,2.4-4.4,4.2C245,430.8,244.6,432.6,244.6,434.4L244.6,434.4z"/>
				<polygon class="st2" points="284.4,363.7 294.4,363.7 294.4,421.2 294.8,421.2 320.2,390.8 331.4,390.8 311.5,414.1 
					334.4,448.7 323.2,448.7 305.7,420.8 294.6,433.4 294.6,448.7 284.6,448.7 				"/>
				<path class="st2" d="M325.6,421.2c-0.2-4.4,0.6-9,2.2-13.1c1.4-3.6,3.4-7,6-9.8c2.4-2.6,5.2-4.6,8.4-6.2c3-1.4,6.4-2.2,9.8-2.2
					c3.4,0,6.8,0.6,9.9,2c2.8,1.2,5.4,3.2,7.4,5.6c2,2.6,3.6,5.6,4.6,8.8c1,3.8,1.6,7.6,1.6,11.3c0,1.8-0.2,3.6-0.4,5.4h-39.6
					c0,5.6,2.2,10.9,6,15.1c3.6,3.8,8.6,5.8,13.7,5.6c2.6,0,5.4-0.4,7.8-1.2c2.4-0.8,4.8-2,6.8-3.4l3.6,6.6
					c-2.8,1.6-5.6,3.2-8.6,4.2c-3.4,1.2-7.2,1.8-10.7,1.8c-3.8,0-7.6-0.8-11.1-2.2c-3.4-1.4-6.4-3.4-9-6c-2.6-2.8-4.6-6-6-9.6
					C326.2,429.8,325.4,425.4,325.6,421.2L325.6,421.2z M366.8,416.7c0-6-1.2-10.7-3.8-13.7c-2.6-3.2-6.6-5-10.7-4.8
					c-2,0-4.2,0.4-6,1.2c-2,0.8-3.8,2.2-5.2,3.6c-1.6,1.6-3,3.6-3.8,5.8c-1,2.6-1.8,5.2-2,8L366.8,416.7z"/>
				<path class="st2" d="M378.3,391.4h8.2l0.8,10.3h0.4c1.8-3.4,4.2-6.2,7.4-8.6c2.6-2,6-3.2,9.4-3.2c2.2,0,4.2,0.4,6.2,1.2l-2,8.6
					c-0.8-0.2-1.8-0.6-2.6-0.8c-1-0.2-2-0.2-3-0.2c-2.8,0.2-5.6,1.2-7.8,3c-3.2,2.8-5.6,6.4-7,10.3v36.6h-9.9L378.3,391.4z"/>
			</g>
		</g>
	</g>
</g>
</svg>
