<?xml version="1.0" encoding="utf-8"?>
<!-- Generator: Adobe Illustrator 16.0.3, SVG Export Plug-In . SVG Version: 6.00 Build 0)  -->
<!DOCTYPE svg PUBLIC "-//W3C//DTD SVG 1.1//EN" "http://www.w3.org/Graphics/SVG/1.1/DTD/svg11.dtd">
<svg version="1.1" id="Layer_1" xmlns="http://www.w3.org/2000/svg" xmlns:xlink="http://www.w3.org/1999/xlink" x="0px" y="0px"
	 width="100.795px" height="30.162px" viewBox="9.518 14.834 100.795 30.162" enable-background="new 9.518 14.834 100.795 30.162"
	 xml:space="preserve">
<path d="M20.7,33.113c0,0.644-0.13,1.287-0.43,1.846c-0.289,0.545-0.684,1.025-1.16,1.417c-0.515,0.386-1.116,0.687-1.803,0.901
	c-0.687,0.216-1.46,0.344-2.276,0.344c-0.988,0-1.9-0.13-2.662-0.387c-0.762-0.256-1.546-0.729-2.362-1.33l1.288-2.104
	c0.644,0.516,1.202,0.902,1.675,1.16c0.515,0.258,1.03,0.344,1.546,0.344c0.644,0,1.16-0.173,1.546-0.516
	c0.386-0.344,0.6-0.773,0.6-1.33c0-0.258-0.043-0.473-0.086-0.688c-0.097-0.232-0.227-0.449-0.386-0.644
	c-0.227-0.274-0.486-0.52-0.773-0.729l-1.288-0.945l-1.16-0.86c-0.386-0.3-0.73-0.644-1.03-0.988
	c-0.306-0.352-0.565-0.742-0.773-1.16c-0.172-0.43-0.3-0.902-0.3-1.46c0-0.644,0.13-1.202,0.386-1.717
	c0.256-0.517,0.622-0.971,1.073-1.33c0.43-0.343,0.988-0.644,1.632-0.86c0.644-0.216,1.33-0.3,2.06-0.3
	c0.773,0,1.546,0.086,2.276,0.3s1.417,0.515,2.018,0.902l-1.16,1.9c-0.816-0.558-1.632-0.86-2.533-0.86
	c-0.558,0-0.988,0.13-1.33,0.43c-0.342,0.3-0.515,0.644-0.515,1.073c0,0.386,0.172,0.773,0.472,1.073
	c0.3,0.343,0.86,0.773,1.6,1.374l1.9,1.46c0.515,0.43,0.902,0.816,1.202,1.202c0.3,0.386,0.515,0.729,0.6,1.116
	c0.086,0.516,0.172,0.945,0.172,1.374 M34.032,29.602c0-1.632-0.343-2.963-0.988-3.907c-0.687-0.945-1.6-1.417-2.748-1.417
	c-1.202,0-2.2,0.515-2.877,1.503c-0.73,0.988-1.073,2.362-1.073,4.122c0,1.675,0.343,3.006,1.03,3.994
	c0.687,0.986,1.675,1.459,2.877,1.459c0.73,0,1.33-0.172,1.803-0.558c0.477-0.391,0.871-0.872,1.16-1.417
	c0.315-0.588,0.519-1.228,0.601-1.889c0.172-0.688,0.215-1.33,0.215-1.9 M38.24,29.42c0,1.202-0.172,2.275-0.558,3.264
	c-0.343,0.987-0.86,1.846-1.503,2.619c-0.644,0.73-1.417,1.33-2.32,1.717c-0.902,0.431-1.846,0.601-2.877,0.601
	c-0.433,0.004-0.865-0.04-1.288-0.129c-0.386-0.087-0.773-0.216-1.16-0.386c-0.343-0.172-0.73-0.431-1.073-0.73
	c-0.393-0.35-0.766-0.723-1.116-1.116v9.575H22.45V22.207h3.864v2.2c0.687-0.902,1.46-1.546,2.276-1.932
	c0.816-0.43,1.803-0.6,2.877-0.6c0.988,0,1.9,0.172,2.705,0.558c0.794,0.375,1.508,0.9,2.104,1.546c0.6,0.644,1.03,1.46,1.374,2.362
	c0.386,0.945,0.558,1.975,0.558,3.1 M56.93,37.277V35.26c-0.773,0.86-1.546,1.461-2.362,1.846c-0.816,0.387-1.76,0.559-2.8,0.559
	c-1.202,0-2.2-0.215-3.006-0.688c-0.806-0.472-1.417-1.16-1.76-2.104c-0.091-0.223-0.163-0.452-0.215-0.688l-0.13-0.815
	c-0.054-0.355-0.083-0.714-0.086-1.073V22.25h3.993v8.63l0.086,1.761c0.086,0.385,0.215,0.772,0.386,1.072
	c0.472,0.86,1.288,1.288,2.447,1.288c1.503,0,2.533-0.644,3.1-1.899c0.13-0.344,0.258-0.688,0.3-1.074
	c0.06-0.556,0.088-1.115,0.086-1.674v-8.158h3.993V37.32H56.93V37.277z M74.063,37.277V28.7l-0.086-1.76
	c-0.086-0.386-0.215-0.773-0.387-1.073c-0.472-0.86-1.288-1.245-2.447-1.245c-0.673-0.007-1.338,0.155-1.932,0.472
	c-0.516,0.3-0.945,0.773-1.202,1.374c-0.13,0.343-0.258,0.688-0.3,1.116c-0.043,0.386-0.086,0.945-0.086,1.632v8.115H63.63V22.207
	h3.993v2.018c0.773-0.86,1.546-1.46,2.361-1.846c0.816-0.386,1.761-0.558,2.801-0.558c1.201,0,2.199,0.258,3.006,0.73
	c0.807,0.472,1.417,1.202,1.76,2.104c0.086,0.215,0.172,0.43,0.215,0.687l0.172,0.816c0.056,0.355,0.084,0.713,0.086,1.073v10.046
	H74.063z"/>
<path d="M80.803,37.277h3.993v-7.985l6,8.287L94.5,36.3l-6.055-7.514l5.101-5.496l-3.006-1.288l-5.324,6.183h-0.43v-13h-3.993
	L80.803,37.277z M39.927,38.139h3.993V16.024h-3.993V38.139z"/>
<path fill="#989898" d="M97.936,25.084V22.38L110,28.433v2.447l-12.064,6.011v-2.66l9.359-4.595L97.936,25.084z"/>
</svg>
