<?xml version="1.0" encoding="utf-8"?>
<!-- Generator: Adobe Illustrator 16.0.3, SVG Export Plug-In . SVG Version: 6.00 Build 0)  -->
<!DOCTYPE svg PUBLIC "-//W3C//DTD SVG 1.1//EN" "http://www.w3.org/Graphics/SVG/1.1/DTD/svg11.dtd">
<svg version="1.1" id="Layer_1" xmlns="http://www.w3.org/2000/svg" xmlns:xlink="http://www.w3.org/1999/xlink" x="0px" y="0px"
	 width="112.095px" height="36.344px" viewBox="3.952 11.828 112.095 36.344" enable-background="new 3.952 11.828 112.095 36.344"
	 xml:space="preserve">
<path fill="#1ED760" d="M22.123,11.828C12.07,11.828,3.952,19.97,3.952,30c0,10.052,8.14,18.172,18.172,18.172
	c10.052,0,18.172-8.14,18.172-18.172S32.156,11.828,22.123,11.828L22.123,11.828z M30.46,38.055
	c-0.326,0.543-1.02,0.694-1.563,0.369c-4.277-2.605-9.64-3.189-15.98-1.76c-0.608,0.13-1.216-0.24-1.346-0.848
	c-0.13-0.606,0.24-1.215,0.847-1.346c6.926-1.585,12.874-0.912,17.65,2.021c0.543,0.325,0.716,1.02,0.39,1.563H30.46z
	 M32.674,33.104c-0.412,0.674-1.28,0.869-1.954,0.479c-4.885-2.996-12.33-3.864-18.106-2.128c-0.76,0.217-1.54-0.195-1.76-0.935
	c-0.217-0.76,0.195-1.54,0.955-1.76c6.6-1.997,14.806-1.042,20.43,2.4c0.65,0.39,0.847,1.26,0.434,1.932L32.674,33.104z
	 M32.869,27.937c-5.862-3.474-15.523-3.8-21.124-2.106c-0.9,0.282-1.845-0.24-2.128-1.13c-0.283-0.89,0.24-1.845,1.13-2.128
	c6.426-1.954,17.108-1.563,23.838,2.432c0.803,0.478,1.064,1.52,0.586,2.323c-0.434,0.825-1.498,1.086-2.3,0.608L32.869,27.937z"/>
<g transform="matrix(.21375 0 0 .21375 .138028 12.655604)">
	<path fill="#1ED760" d="M232.1,78.599c-14.501-3.399-17-5.898-17-10.999c0-4.799,4.5-8,11.2-8c6.499,0,13,2.501,19.799,7.5
		c0.201,0.201,0.5,0.201,0.701,0.201c0.299,0,0.5-0.201,0.601-0.4l7.1-10.001c0.292-0.416,0.203-0.989-0.201-1.3
		c-8.1-6.499-17.199-9.599-27.801-9.599c-15.6,0-26.499,9.398-26.499,22.798c0,14.401,9.4,19.499,25.699,23.401
		c13.8,3.198,16.201,5.903,16.201,10.599c0,5.3-4.701,8.598-12.301,8.598c-8.4,0-15.298-2.796-22.999-9.498
		c-0.201-0.196-0.5-0.196-0.701-0.196c-0.299,0-0.498,0.1-0.599,0.297l-7.899,9.398c-0.302,0.402-0.302,1.005,0.098,1.302
		c9,8,20.002,12.203,31.901,12.203c16.799,0,27.7-9.201,27.7-23.401C256.899,89.5,249.699,82.9,232.1,78.599z M295,64.301
		c-7.301,0-13.299,2.899-18.199,8.799v-6.599c0-0.5-0.4-0.9-0.9-0.9h-12.9c-0.5,0-0.9,0.4-0.9,0.9v73.597
		c0,0.503,0.4,0.905,0.9,0.905h12.9c0.5,0,0.9-0.402,0.9-0.905v-23.2c4.9,5.501,10.899,8.201,18.199,8.201
		c13.501,0,27.298-10.398,27.298-30.4C322.198,74.8,308.501,64.301,295,64.301z M307.203,94.699
		c0,10.202-6.305,17.201-15.205,17.201s-15.499-7.401-15.499-17.201c0-9.8,6.7-17.199,15.499-17.199S307.203,84.698,307.203,94.699z
		 M357.4,64.301c-17.402,0-31.099,13.4-31.099,30.599c0,17,13.596,30.3,30.903,30.3c17.498,0,31.195-13.4,31.195-30.501
		C388.398,77.701,374.802,64.301,357.4,64.301z M357.4,112c-9.297,0-16.297-7.502-16.297-17.302c0-9.9,6.798-17.098,16.1-17.098
		c9.297,0,16.397,7.5,16.397,17.4C373.5,104.8,366.697,112,357.4,112z M425.597,65.5h-14.2V50.901c0-0.5-0.397-0.9-0.895-0.9H397.6
		c-0.503,0-0.9,0.4-0.9,0.9V65.5h-6.2c-0.503,0-0.9,0.4-0.9,0.9v11.1c0,0.5,0.397,0.9,0.9,0.9h6.2v28.799
		c0,11.6,5.798,17.503,17.201,17.503c4.596,0,8.498-1.001,12.098-3.002c0.302-0.201,0.503-0.498,0.503-0.8v-10.599
		c0-0.302-0.201-0.603-0.402-0.804c-0.302-0.196-0.599-0.196-0.9,0c-2.499,1.302-4.902,1.8-7.598,1.8
		c-4.203,0-6.003-1.896-6.003-6.095V78.5h14.2c0.503,0,0.905-0.4,0.905-0.9v-11.1C426.602,65.9,426.2,65.5,425.597,65.5z
		 M475.3,65.601v-1.8c0-5.3,2.001-7.6,6.501-7.6c2.696,0,4.898,0.5,7.301,1.3c0.297,0.101,0.598,0,0.895-0.101
		c0.201-0.201,0.402-0.5,0.402-0.799V45.699c0-0.4-0.302-0.8-0.699-0.9c-2.6-0.8-5.798-1.499-10.8-1.499
		c-12.002,0-18.298,6.7-18.298,19.499v2.7h-6.204c-0.498,0-0.996,0.4-0.996,0.9v11.2c0,0.5,0.397,0.9,0.996,0.9h6.204v44.401
		c0,0.498,0.397,0.896,0.895,0.896H474.4c0.503,0,0.9-0.398,0.9-0.896V78.5h12.103l18.494,44.401
		c-2.097,4.697-4.194,5.601-6.999,5.601c-2.298,0-4.697-0.704-7.1-2.001c-0.196-0.101-0.498-0.101-0.795-0.101
		c-0.201,0.101-0.503,0.302-0.603,0.498l-4.4,9.599c-0.196,0.503,0,1.005,0.397,1.202c4.605,2.499,8.703,3.5,13.802,3.5
		c9.599,0,14.798-4.5,19.504-16.397L542.2,66.8c0.101-0.299,0.101-0.601-0.1-0.9c-0.201-0.299-0.498-0.4-0.8-0.4h-13.501
		c-0.402,0-0.799,0.299-0.9,0.599l-13.802,39.401L498.002,66c-0.101-0.4-0.503-0.601-0.905-0.601H475.3V65.601z M446.503,65.5
		h-12.902c-0.503,0-0.905,0.4-0.905,0.9v56.501c0,0.498,0.402,0.896,0.905,0.896h12.902c0.493,0,0.895-0.398,0.895-0.896V66.501
		C447.499,65.9,446.997,65.5,446.503,65.5z"/>
	<circle fill="#1ED760" cx="440.098" cy="49.101" r="9.3"/>
</g>
</svg>
