<?xml version="1.0" encoding="utf-8"?>
<!-- Generator: Adobe Illustrator 16.0.3, SVG Export Plug-In . SVG Version: 6.00 Build 0)  -->
<!DOCTYPE svg PUBLIC "-//W3C//DTD SVG 1.1//EN" "http://www.w3.org/Graphics/SVG/1.1/DTD/svg11.dtd">
<svg version="1.1" id="Layer_1" xmlns="http://www.w3.org/2000/svg" xmlns:xlink="http://www.w3.org/1999/xlink" x="0px" y="0px"
	 width="109.115px" height="35.988px" viewBox="5.441 12.006 109.115 35.988" enable-background="new 5.441 12.006 109.115 35.988"
	 xml:space="preserve">
<g transform="translate(.934)">
	
		<linearGradient id="SVGID_1_" gradientUnits="userSpaceOnUse" x1="1615.6539" y1="-2012.8794" x2="1615.6539" y2="-2245.8794" gradientTransform="matrix(0.1545 0 0 -0.1545 -227.0468 -298.8941)">
		<stop  offset="0" style="stop-color:#111D2E"/>
		<stop  offset="0.212" style="stop-color:#051839"/>
		<stop  offset="0.407" style="stop-color:#0A1B48"/>
		<stop  offset="0.581" style="stop-color:#132E62"/>
		<stop  offset="0.738" style="stop-color:#144B7E"/>
		<stop  offset="0.873" style="stop-color:#136497"/>
		<stop  offset="1" style="stop-color:#1387B8"/>
	</linearGradient>
	<path fill="url(#SVGID_1_)" d="M5.241,35.174c2.223,7.414,9.1,12.82,17.237,12.82c9.939,0,17.996-8.057,17.996-17.994
		S32.417,12.006,22.48,12.006c-9.536,0-17.339,7.418-17.956,16.799C5.69,30.76,6.143,31.969,5.241,35.174L5.241,35.174z"/>
	<path fill="#FFFFFF" d="M21.553,25.493l0.002,0.09l-4.403,6.396c-0.713-0.031-1.43,0.094-2.108,0.373
		c-0.3,0.121-0.58,0.271-0.843,0.444l-9.67-3.98c0,0-0.224,3.68,0.71,6.424l6.835,2.82c0.343,1.533,1.395,2.879,2.948,3.525
		c2.54,1.061,5.468-0.148,6.524-2.689c0.271-0.65,0.403-1.352,0.385-2.057l6.3-4.502l0.154,0.003c3.77,0,6.835-3.074,6.835-6.848
		c-0.002-3.776-3.06-6.838-6.835-6.846C24.611,18.655,21.554,21.717,21.553,25.493L21.553,25.493z M20.497,38.455
		c-0.818,1.963-3.074,2.895-5.035,2.077c-0.905-0.378-1.588-1.067-1.982-1.89l2.225,0.922c1.446,0.602,3.105-0.084,3.706-1.53
		c0.602-1.446-0.081-3.107-1.526-3.712l-2.3-0.953c0.887-0.337,1.896-0.35,2.84,0.043c0.945,0.391,1.694,1.144,2.079,2.091
		c0.39,0.95,0.39,2.002-0.006,2.95 M28.388,30.053c-2.5,0-4.553-2.047-4.553-4.562c0-2.515,2.043-4.56,4.553-4.56
		c2.51,0,4.555,2.047,4.555,4.56C32.943,28.004,30.9,30.053,28.388,30.053 M24.976,25.483c0-1.893,1.532-3.428,3.42-3.428
		c1.888,0,3.42,1.535,3.42,3.428s-1.532,3.426-3.42,3.426C26.508,28.909,24.976,27.375,24.976,25.483z"/>
	<path d="M113.623,36.721h-2.443V28.9l-2.85,5.09h-1.631l-2.443-5.09v7.821h-2.851V23.28h2.851l3.258,7.25l3.666-7.25h2.443V36.721z
		 M97.739,36.721h-2.85l-0.815-2.363h-4.48l-0.814,2.363h-2.85l4.887-13.44h2.036L97.739,36.721z M93.666,32.118l-1.629-4.887
		l-1.631,4.887H93.666z M81.856,36.721h-8.96V23.28h8.96v2.32h-6.11v3.177h5.295V31.1h-5.295V34.4h6.11V36.721z M68.82,25.6h-3.258
		v11.121h-2.85V25.6h-3.667v-2.32h9.775L68.82,25.6z M55.787,32.77c0,2.771-2.444,4.032-4.887,4.073
		c-2.444,0-4.073-0.569-4.887-1.792l1.63-1.67c0.815,0.733,1.63,1.141,3.258,1.141s2.444-0.57,2.444-1.67
		c0-1.019-0.815-1.467-1.63-1.631l-1.63-0.203c-2.444-0.326-3.666-1.588-3.666-3.789c0-1.222,0.407-2.2,1.222-2.973
		c0.815-0.733,2.036-1.1,3.258-1.1c2.036,0,3.258,0.53,4.48,1.548l-1.63,1.67c-0.815-0.61-1.63-0.937-2.85-0.937
		c-1.222,0.08-2.036,0.53-2.036,1.71c0,0.937,0.815,1.385,1.63,1.466l1.63,0.244c2.036,0.244,3.666,1.63,3.666,3.9L55.787,32.77z"/>
</g>
</svg>
