<?xml version="1.0" encoding="utf-8"?>
<!-- Generator: Adobe Illustrator 27.3.1, SVG Export Plug-In . SVG Version: 6.00 Build 0)  -->
<svg version="1.1" id="Layer_1" xmlns:serif="http://www.serif.com/"
	 xmlns="http://www.w3.org/2000/svg" xmlns:xlink="http://www.w3.org/1999/xlink" x="0px" y="0px" viewBox="0 0 525.6 88.3"
	 style="enable-background:new 0 0 525.6 88.3;" xml:space="preserve">
<style type="text/css">
	.st0{fill:#484848;}
	.st1{fill:#20A7C9;}
</style>
<path class="st0" d="M125.5,0.1c-14.5,0-27.8,8.1-40.7,22.4C72.1,8,58.5,0.1,43.4,0.1C18.3,0.1,0,18,0,42.1s18.3,41.8,43.4,41.8
	c15.4,0,27.4-7.2,40.7-21.6c12.9,14.5,26,21.7,41.4,21.7c25.1,0,43.4-17.7,43.4-41.8S150.6,0.1,125.5,0.1z M43.6,58.6
	c-10.6,0-17-7-17-16.3c0-9.3,6.3-16.5,17-16.5c9,0,16.3,7.2,24.2,16.9C60.3,51.8,52.4,58.6,43.6,58.6z M124.7,58.6
	c-8.8,0-16.3-7-24.2-16.3c8.1-9.7,15.2-16.5,24.2-16.5c10.6,0,16.9,7.3,16.9,16.5S135.3,58.6,124.7,58.6z"/>
<path class="st1" d="M103,77.9l16.9-20.1c-6.7-2-12.9-8.1-19.3-15.6l-16.4,20C89.5,68.5,95.9,73.8,103,77.9z"/>
<g id="Main">
	<g id="Superset">
		<g id="Full-Lockup-With-Text">
			<g id="Group-7">
				<g id="Group-17">
					<g id="Superset-Copy">
						<g>
							<path class="st0" d="M221.5,56.4c0.1-2-0.8-4-2.4-5.3c-2.5-1.8-5.3-3.1-8.3-3.8c-5.6-1.4-10.9-3.8-15.7-7.1
								c-3.5-2.6-5.5-6.8-5.3-11.2c0-4.7,2.2-9.1,6.1-11.7c4.6-3.2,10.1-4.8,15.7-4.5c5.7-0.3,11.2,1.6,15.7,5.1
								c3.8,3,6,7.7,5.8,12.6v0.2h-11.3c0.1-2.5-0.9-4.9-2.7-6.5c-2.1-1.8-4.8-2.7-7.6-2.5c-2.6-0.2-5.1,0.6-7.3,2.1
								c-1.6,1.3-2.6,3.3-2.6,5.3c0,1.9,1,3.6,2.6,4.7c2.9,1.7,6.1,3.1,9.4,4c5.3,1.2,10.3,3.7,14.6,7.1c3.3,2.9,5.1,7.2,5,11.6
								c0.2,4.7-2.1,9.1-5.9,11.8c-4.6,3.1-10.1,4.6-15.7,4.3c-5.9,0.1-11.7-1.6-16.6-4.9c-4.6-3-7.2-8.3-6.9-13.7v-0.2h11.6
								c-0.2,2.9,0.9,5.8,3.2,7.6c2.6,1.8,5.8,2.6,9,2.4c2.6,0.2,5.1-0.5,7.3-2C220.8,60.3,221.6,58.4,221.5,56.4z"/>
							<path class="st0" d="M266.9,65.4c-1.2,2.1-3,3.9-5.1,5.2c-5.8,3.2-13.2,2.2-17.9-2.6c-2.6-3-3.8-7.5-3.8-13.6V28.4h11.6v26.3
								c-0.2,2.3,0.4,4.7,1.6,6.7c1.2,1.4,2.9,2.2,4.7,2.1c1.6,0,3.3-0.3,4.8-0.9c1.3-0.6,2.4-1.5,3.3-2.7V28.4h11.7v43.3h-10
								L266.9,65.4z"/>
							<path class="st0" d="M324.8,51.2c0.3,5.5-1.3,10.9-4.5,15.4c-2.9,3.9-7.6,6.1-12.4,5.8c-2.1,0-4.1-0.4-6-1.3
								c-1.8-0.9-3.3-2.1-4.5-3.7v20.8h-11.6V28.4h10.5l0.7,5.1c1.2-1.8,2.8-3.3,4.6-4.4c1.9-1.1,4.1-1.6,6.3-1.5
								c5-0.2,9.7,2.2,12.5,6.3c3.2,4.9,4.8,10.7,4.5,16.5L324.8,51.2z M313.1,50.3c0.1-3.4-0.6-6.8-2-9.9c-1.1-2.4-3.6-3.9-6.2-3.8
								c-1.6,0-3.1,0.3-4.5,1.1c-1.2,0.7-2.3,1.8-3,3.1v19c0.7,1.2,1.7,2.2,3,2.8c1.4,0.7,2.9,1,4.5,1c2.5,0.2,4.9-1.1,6.2-3.3
								c1.4-2.8,2.1-5.8,2-9L313.1,50.3z"/>
							<path class="st0" d="M350.2,72.5c-5.6,0.3-11.1-1.9-15-6c-3.8-4.1-5.8-9.6-5.6-15.2v-1.6c-0.2-5.8,1.7-11.4,5.3-15.9
								c7.4-7.8,19.9-8.3,27.8-0.9c3.4,4,5.1,9.1,4.9,14.3v6.4h-25.9v0.2c0.1,2.6,1.1,5.1,2.9,7c1.8,1.9,4.3,2.9,6.9,2.8
								c2.2,0,4.3-0.2,6.4-0.8c1.9-0.6,3.8-1.5,5.6-2.5l3.2,7.2c-2.1,1.6-4.4,2.8-6.9,3.6C356.7,72,353.5,72.5,350.2,72.5z
								 M349.2,36.7c-2-0.1-3.9,0.9-5.1,2.5c-1.3,1.9-2.1,4.2-2.2,6.5l0.1,0.2h14.3v-1c0.1-2.1-0.5-4.2-1.7-6
								c-1.3-1.6-3.3-2.5-5.3-2.3V36.7z"/>
							<path class="st0" d="M397.4,38.4h-4.3c-1.5-0.1-3,0.3-4.3,1.1c-1.1,0.7-2,1.8-2.6,3v29.1h-11.6V28.4h10.9l0.5,6.4
								c0.9-2.1,2.2-3.9,4-5.3c1.6-1.3,3.6-1.9,5.6-1.9c0.5,0,1.1,0,1.6,0.1l1.5,0.3L397.4,38.4z"/>
							<path class="st0" d="M426.5,59.7c0-1.3-0.7-2.6-1.9-3.3c-2.1-1.3-4.5-2.1-6.9-2.5c-4.2-0.7-8.1-2.2-11.6-4.6
								c-2.6-2-4-5.1-3.9-8.3c0-3.7,1.7-7.3,4.7-9.5c3.6-2.7,8.1-4.1,12.6-3.9c4.7-0.2,9.4,1.1,13.2,3.9c3.1,2.3,4.9,6,4.7,9.8v0.2
								h-11.2c0.1-1.6-0.5-3.1-1.7-4.3c-1.3-1.2-3.1-1.8-4.9-1.6c-1.6-0.1-3.2,0.4-4.5,1.4c-1,0.8-1.6,2.1-1.6,3.4
								c0,1.3,0.6,2.5,1.7,3.3c2.1,1.2,4.5,2,6.9,2.2c4.3,0.6,8.3,2.2,11.9,4.7c2.6,2.1,4,5.2,3.9,8.5c0,3.8-1.8,7.4-5,9.6
								c-3.9,2.6-8.5,3.9-13.2,3.7c-4.9,0.3-9.8-1.3-13.7-4.5c-3.1-2.3-5-6-4.9-9.8v-0.2h10.7c-0.1,1.9,0.7,3.8,2.2,5
								c1.7,1.1,3.6,1.7,5.6,1.6c1.7,0.1,3.5-0.3,4.9-1.3C425.9,62.4,426.6,61.1,426.5,59.7z"/>
							<path class="st0" d="M463.6,72.5c-5.6,0.3-11.1-1.9-14.9-6c-3.8-4.1-5.8-9.6-5.6-15.2v-1.6c-0.2-5.8,1.7-11.4,5.3-15.9
								c7.4-7.8,19.9-8.3,27.8-0.9c3.4,3.9,5.1,9.1,4.9,14.3v6.4h-25.8v0.2c0.1,2.6,1.1,5.1,2.8,7c1.8,1.9,4.3,2.9,6.9,2.8
								c2.2,0,4.3-0.2,6.4-0.8c2-0.6,3.8-1.4,5.6-2.5l3.2,7.2c-2.1,1.6-4.4,2.8-6.9,3.6C470.1,72,466.8,72.5,463.6,72.5z
								 M462.5,36.7c-2-0.1-3.9,0.9-5.1,2.5c-1.3,1.9-2.1,4.2-2.2,6.5l0.1,0.2h14.3v-1c0.1-2.1-0.5-4.2-1.7-6
								c-1.3-1.6-3.3-2.5-5.3-2.3V36.7z"/>
							<path class="st0" d="M502.7,17.7v10.6h7.3v8.2h-7.3v22c-0.1,1.3,0.3,2.6,1.1,3.6c0.7,0.7,1.8,1.1,2.8,1.1c0.5,0,1,0,1.6-0.1
								c0.5-0.1,1-0.2,1.5-0.3l1,8.4c-1.1,0.4-2.3,0.7-3.4,0.9c-1.2,0.2-2.4,0.3-3.6,0.3c-3.4,0.2-6.8-1-9.3-3.3
								c-2.4-2.9-3.6-6.7-3.3-10.5V36.5h-6.3v-8.2h6.3V17.7H502.7z"/>
						</g>
					</g>
				</g>
			</g>
		</g>
	</g>
</g>
<path class="st1" d="M84.8,22.5c-5.3-6.3-11.7-11.7-18.8-16L49.1,26.8c6.4,2.2,12.1,8,18.1,15.4l0.7,0.5L84.8,22.5z"/>
<path class="st0" d="M251.8,14h-6.2l-1.2,3.5h-3.6l6-16.3h3.6l6.1,16.3h-3.6L251.8,14z M246.4,11.4h4.5L248.7,5L246.4,11.4z"/>
<path class="st0" d="M269.8,11.8c0.1,1.6-0.4,3.1-1.4,4.3c-1.4,1.6-3.6,2.1-5.6,1.3c-0.5-0.2-1-0.6-1.4-1.1v5.8H258V5.4h3.2l0.2,1.4
	c0.4-0.5,0.8-0.9,1.4-1.2c0.6-0.3,1.3-0.4,1.9-0.4c1.5-0.1,2.9,0.6,3.8,1.7c1,1.3,1.4,3,1.4,4.6L269.8,11.8z M266.3,11.5
	c0-1-0.2-1.9-0.6-2.8c-0.4-0.7-1.1-1.1-1.9-1.1c-0.5,0-0.9,0.1-1.4,0.3c-0.4,0.2-0.7,0.5-0.9,0.9v5.3c0.2,0.3,0.5,0.6,0.9,0.8
	c0.4,0.2,0.9,0.3,1.4,0.3c0.8,0.1,1.5-0.3,1.9-0.9c0.4-0.8,0.7-1.6,0.6-2.5V11.5z"/>
<path class="st0" d="M279.7,17.5c-0.1-0.3-0.2-0.6-0.3-0.9c-0.1-0.3-0.2-0.6-0.2-0.9c-0.4,0.6-0.9,1.1-1.5,1.5
	c-0.7,0.4-1.4,0.6-2.2,0.6c-1.2,0.1-2.3-0.3-3.2-1c-0.8-0.7-1.2-1.7-1.1-2.7c0-1.1,0.5-2.2,1.5-2.8c1.3-0.7,2.8-1.1,4.4-1h2v-1
	c0-0.5-0.2-1-0.5-1.4c-0.4-0.3-0.9-0.5-1.5-0.5c-0.5,0-1,0.1-1.3,0.4c-0.3,0.3-0.5,0.7-0.5,1.1h-3.4c0-1.1,0.5-2.1,1.5-2.6
	c1.2-0.8,2.6-1.2,4-1.1c1.4-0.1,2.7,0.3,3.8,1.1c1,0.7,1.5,1.9,1.5,3.2v5c0,0.5,0,1.1,0.2,1.6c0.1,0.5,0.2,1,0.4,1.5L279.7,17.5z
	 M276.5,15.3c0.6,0,1.2-0.1,1.7-0.4c0.4-0.2,0.8-0.6,1-1v-1.7h-2c-0.6,0-1.2,0.1-1.7,0.5c-0.4,0.3-0.6,0.8-0.6,1.3
	c0,0.4,0.2,0.7,0.4,1C275.6,15.2,276.1,15.3,276.5,15.3z"/>
<path class="st0" d="M290.9,15.3c0.6,0,1.1-0.2,1.5-0.5c0.4-0.3,0.6-0.8,0.6-1.3h3.2c0,1.2-0.5,2.4-1.5,3.1
	c-1.1,0.9-2.5,1.3-3.8,1.3c-1.7,0.1-3.3-0.5-4.5-1.7c-1.1-1.2-1.7-2.8-1.6-4.5v-0.3c-0.1-1.6,0.5-3.3,1.6-4.5
	c2.4-2.1,5.9-2.3,8.5-0.4c1,0.8,1.5,2.1,1.4,3.4h-3.2c0-0.6-0.2-1.1-0.6-1.6c-0.4-0.4-1-0.7-1.5-0.6c-0.8-0.1-1.6,0.3-2,1
	c-0.4,0.8-0.6,1.7-0.6,2.6v0.3c0,0.9,0.2,1.8,0.6,2.6C289.4,14.7,290.1,15.2,290.9,15.3z"/>
<path class="st0" d="M301.8,6.9c0.8-1.1,2.2-1.8,3.6-1.8c1.2,0,2.3,0.5,3.1,1.3c0.9,1.1,1.3,2.5,1.2,3.9v7.2h-3.6v-7.2
	c0.1-0.7-0.1-1.4-0.5-2c-0.4-0.4-1-0.7-1.6-0.6c-0.4,0-0.9,0.1-1.3,0.2c-0.4,0.2-0.7,0.4-0.9,0.7v9h-3.5V0h3.6L301.8,6.9z"/>
<path class="st0" d="M318.2,17.7c-1.7,0-3.3-0.6-4.5-1.7c-1.1-1.1-1.8-2.7-1.7-4.3v-0.4c-0.1-1.6,0.5-3.2,1.6-4.5
	c1.1-1.2,2.7-1.8,4.3-1.7c1.5-0.1,3,0.4,4.1,1.5c1,1.1,1.6,2.5,1.5,4v1.8h-7.9c0,0.7,0.3,1.4,0.9,2c0.6,0.5,1.3,0.8,2.1,0.8
	c0.7,0,1.3-0.1,2-0.2c0.6-0.2,1.2-0.4,1.7-0.7l1,2c-0.6,0.5-1.3,0.8-2.1,1C320.3,17.6,319.2,17.7,318.2,17.7z M317.9,7.7
	c-0.6,0-1.2,0.2-1.5,0.7c-0.4,0.5-0.7,1.2-0.7,1.8h4.5V9.9c0-0.6-0.2-1.2-0.5-1.7C319.1,7.8,318.5,7.6,317.9,7.7z"/>
<path class="st0" d="M517.1,18.9h-1.9v6h-1.2v-6H512v-1.1h5V18.9z M524.1,20.3l-2,4.5h-0.7l-2-4.7v4.7h-1.2v-7h1.5l2.1,5.1l2.2-5.1
	h1.5v7h-1.2L524.1,20.3z"/>
</svg>
