<?xml version="1.0" encoding="utf-8"?>
<!-- Generator: Adobe Illustrator 27.3.1, SVG Export Plug-In . SVG Version: 6.00 Build 0)  -->
<svg version="1.1" id="Layer_1" xmlns="http://www.w3.org/2000/svg" xmlns:xlink="http://www.w3.org/1999/xlink" x="0px" y="0px"
	 viewBox="0 0 312.4 69.9" style="enable-background:new 0 0 312.4 69.9;" xml:space="preserve">
<style type="text/css">
	.st0{fill:#FFFFFF;}
	.st1{fill-rule:evenodd;clip-rule:evenodd;fill:#7B42BC;}
</style>
<path class="st0" d="M98.5,26.2H87.2v-6.7h30.1v6.7h-11.2v33.6h-7.6V26.2z"/>
<path class="st0" d="M125.3,54.4c3.1,0,6.1-0.5,9-1.4l1.1,5.6c-3.5,1.3-7.2,1.9-10.9,1.9c-9.2,0-12.5-4.3-12.5-11.4v-7.8
	c0-6.2,2.8-11.5,12.2-11.5s11.6,5.5,11.6,11.9v6.3h-16.3v1.5C119.6,53,120.8,54.4,125.3,54.4z M119.6,42h9.4v-1.5
	c0-2.8-0.9-4.7-4.5-4.7c-3.6,0-4.9,1.9-4.9,4.7V42z"/>
<path class="st0" d="M155.7,36.5c-2.7,1.2-5.3,2.7-7.8,4.3v19h-7.4V30.3h6.2l0.5,3.3c2.4-1.6,5-2.9,7.7-3.9L155.7,36.5z"/>
<path class="st0" d="M173.7,36.5c-2.7,1.2-5.3,2.7-7.8,4.3v19h-7.4V30.3h6.2l0.5,3.3c2.4-1.6,5-2.9,7.8-3.9L173.7,36.5z"/>
<path class="st0" d="M198.4,59.8h-6l-0.5-2c-2.6,1.7-5.7,2.6-8.8,2.6c-5.4,0-7.7-3.7-7.7-8.8c0-6,2.6-8.3,8.6-8.3h7.1v-3.1
	c0-3.3-0.9-4.4-5.6-4.4c-2.7,0-5.5,0.3-8.2,0.9l-0.9-5.6c3.3-0.9,6.7-1.4,10.1-1.4c9.3,0,12,3.3,12,10.6L198.4,59.8z M191,48.7h-5.4
	c-2.4,0-3.1,0.7-3.1,2.9c0,2,0.7,3,3,3c1.9,0,3.9-0.6,5.6-1.5L191,48.7z"/>
<path class="st0" d="M221.1,23.6c-1.4-0.3-2.8-0.5-4.2-0.5c-2.9,0-3.3,1.3-3.3,3.5v3.7h7.5l-0.4,5.9h-7.1v23.6h-7.4V36.2h-4.7v-5.9
	h4.7v-4.1c0-6.1,2.8-9.1,9.4-9.1c2.1,0,4.3,0.3,6.4,0.9L221.1,23.6z"/>
<path class="st0" d="M235.4,60.4c-10.1,0-12.9-5.6-12.9-11.6v-7.5c0-6,2.7-11.6,12.8-11.6c10.1,0,12.8,5.6,12.8,11.6v7.5
	C248.3,54.8,245.6,60.4,235.4,60.4z M235.4,36c-3.9,0-5.4,1.8-5.4,5.1V49c0,3.3,1.5,5.1,5.4,5.1c3.9,0,5.4-1.8,5.4-5.1v-7.9
	C240.9,37.8,239.4,36,235.4,36z"/>
<path class="st0" d="M267.3,36.5c-2.7,1.2-5.3,2.7-7.8,4.3v19h-7.4V30.3h6.2l0.5,3.3c2.4-1.6,5-2.9,7.8-3.9L267.3,36.5z"/>
<path class="st0" d="M287.6,59.8V39.2c0-1.6-0.7-2.4-2.4-2.4s-5,1.1-7.7,2.5v20.5h-7.4V30.3h5.6l0.7,2.5c3.7-1.8,7.7-2.9,11.8-3.1
	c2.9,0,4.6,1.2,5.6,3.1c3.7-1.9,7.7-3,11.9-3.1c4.9,0,6.6,3.4,6.6,8.7v21.4H305V39.2c0-1.6-0.7-2.4-2.4-2.4
	c-2.7,0.3-5.3,1.1-7.7,2.5v20.5H287.6z"/>
<path class="st1" d="M21.2,12.3l19.1,11v22.1l-19.1-11V12.3z"/>
<path class="st1" d="M42.4,23.3v22.1l19.1-11V12.3L42.4,23.3z"/>
<path class="st1" d="M0,0v22.1l19.1,11V11L0,0z"/>
<path class="st1" d="M21.2,58.9l19.1,11V48v-0.1l-19.1-11V58.9z"/>
</svg>
