<svg width="170" height="38" viewBox="0 0 170 38" xmlns="http://www.w3.org/2000/svg" class="block max-h-8 w-auto sm:hidden xl:block xl:max-h-none"><g clip-path="url(#clip0_780_5442)"><path d="M16.5485 17.1023L16.5466 13.9712C16.5466 13.7848 16.4727 13.606 16.3408 13.4741L13.6301 10.7583L11.739 12.8447L16.1585 17.2639C16.3025 17.4079 16.5488 17.3057 16.5488 17.1021L16.5485 17.1023Z" fill="url(#paint0_linear_780_5442)"></path><path d="M10.5604 24.6514L5.23341 19.3359L3.32964 21.404L10.3765 28.4441C10.5205 28.5878 10.7665 28.4859 10.7665 28.2823V25.1487C10.7665 24.962 10.6923 24.7832 10.5604 24.6514V24.6514Z" fill="url(#paint1_linear_780_5442)"></path><path d="M17.6566 0.115661C8.09568 0.776144 0.454682 8.69007 0.0946394 18.2669C-0.256773 27.6175 6.17329 35.529 14.8548 37.4697L3.28081 25.8942C3.11495 25.7283 3.02191 25.5031 3.02245 25.2685L3.03108 21.5289C3.03135 21.3727 3.2204 21.2945 3.33071 21.4051L5.23448 19.3371C5.11501 19.2176 5.11501 19.0237 5.23448 18.9045L7.06571 17.0776C7.18519 16.9584 7.37856 16.9586 7.49776 17.0776L13.6846 23.2644C13.9475 23.5273 14.095 23.8839 14.095 24.2555V30.7107C14.095 31.6406 14.4645 32.5324 15.122 33.19L19.8393 37.9072C21.0375 37.8559 22.2056 37.692 23.3351 37.4271L17.3592 31.4493C17.0636 31.1538 16.8974 30.7527 16.8974 30.3347V24.0967C16.8974 23.074 16.4913 22.0931 15.768 21.37L9.48865 15.0907C9.36917 14.9713 9.36917 14.7774 9.48892 14.6579L11.3075 12.845C11.4269 12.7258 11.6203 12.7261 11.7395 12.8453L13.6306 10.7589C13.5953 10.7184 13.5618 10.6742 13.5284 10.6284C12.9885 9.89965 12.6603 8.69789 13.043 7.34267C13.2722 6.47507 13.7482 5.82079 14.6258 5.02573C14.7029 4.95587 14.8246 4.95237 14.903 5.02033L17.176 6.98964L17.6237 7.37827C17.7958 7.52741 18.0013 7.63314 18.2227 7.68573L25.3095 9.37024C25.3923 9.38966 25.4683 9.432 25.5282 9.49025L32.8075 16.7521C32.9346 16.8737 33.0068 17.0433 33.0068 17.2197V18.7637C33.0068 19.001 32.947 19.2349 32.8326 19.4428L29.2303 26.0061C29.0733 26.2936 28.7219 26.4139 28.422 26.2831L26.7615 25.5595H20.6929C20.3029 25.5595 19.9871 25.8756 19.9871 26.2653V28.9711C19.9871 29.3436 20.1343 29.7012 20.3967 29.9655L26.6822 36.299C33.3016 33.352 37.918 26.7132 37.918 18.9962C37.918 8.09755 28.7117 -0.648924 17.6555 0.114852L17.6566 0.115661Z" fill="#F5FF80"></path></g><path fill-rule="evenodd" clip-rule="evenodd" d="M67.0599 12.9882C67.4463 13.3578 67.9095 13.5424 68.4501 13.5424C68.9906 13.5424 69.4463 13.3578 69.817 12.9882C70.1874 12.6033 70.373 12.1338 70.373 11.5796C70.373 11.0253 70.1877 10.5942 69.817 10.2403C69.4463 9.87067 68.9906 9.68604 68.4501 9.68604C67.9095 9.68604 67.4463 9.87067 67.0599 10.2403C66.6895 10.5942 66.504 11.041 66.504 11.5796C66.504 12.1182 66.6892 12.6033 67.0599 12.9882Z" fill="#FFFFFF"></path><path d="M70.1215 15.1782H66.7552V28.1618H70.1215V15.1782Z" fill="#FFFFFF"></path><path fill-rule="evenodd" clip-rule="evenodd" d="M55.9993 28.1618H59.3904V13.1205H64.6573V10.1074H50.7324V13.1205H55.9993V28.1618Z" fill="#FFFFFF"></path><path fill-rule="evenodd" clip-rule="evenodd" d="M72.8199 28.162V15.1784H75.5228L75.7685 16.9176C76.1618 16.2809 76.7352 15.7663 77.4887 15.3742C78.2422 14.9659 79.0942 14.7617 80.0443 14.7617C80.9945 14.7617 81.7564 14.9659 82.4283 15.3742C83.0999 15.7825 83.6158 16.3622 83.9766 17.1134C84.3533 16.4274 84.9267 15.8641 85.6968 15.4231C86.4831 14.9821 87.376 14.7617 88.3753 14.7617C89.7187 14.7617 90.7914 15.2028 91.5943 16.0845C92.4135 16.9501 92.8231 18.1095 92.8231 19.5632V28.1617H89.4811V19.7103C89.4811 19.0733 89.2929 18.5671 88.9158 18.1915C88.5557 17.7994 88.0642 17.6037 87.4417 17.6037C86.5734 17.6037 85.8609 17.8568 85.3037 18.3629C84.7632 18.8691 84.493 19.5143 84.493 20.2982V28.1617H81.1511V19.7103C81.1511 19.0733 80.9629 18.5671 80.5858 18.1915C80.2256 17.7994 79.7341 17.6037 79.1117 17.6037C78.2431 17.6037 77.539 17.8568 76.9984 18.3629C76.4579 18.8691 76.1877 19.5143 76.1877 20.2982V28.1617H72.8211L72.8199 28.162Z" fill="#FFFFFF"></path><path fill-rule="evenodd" clip-rule="evenodd" d="M107.452 21.6212C107.435 20.2332 107.157 19.0245 106.616 17.9956C106.076 16.9506 105.33 16.1502 104.38 15.595C103.43 15.0399 102.332 14.7622 101.087 14.7622C99.8418 14.7622 98.6953 15.0561 97.6961 15.6443C96.6968 16.2159 95.9102 17.0322 95.3368 18.0941C94.78 19.1392 94.5014 20.3479 94.5014 21.7197C94.5014 23.0914 94.7881 24.2262 95.3615 25.2716C95.9349 26.3005 96.7375 27.1087 97.7696 27.6969C98.8182 28.2685 100.006 28.5543 101.333 28.5543C102.889 28.5543 104.2 28.1622 105.264 27.3786C106.025 26.8073 106.605 26.0738 107.006 25.1783L104.001 24.3755C103.786 24.779 103.487 25.102 103.102 25.3455C102.627 25.6394 102.045 25.7862 101.358 25.7862C100.391 25.7862 99.5883 25.4758 98.9495 24.8552C98.3104 24.2349 97.9256 23.418 97.7943 22.4057H107.452V21.6215V21.6212ZM97.9415 20.1759C98.1547 19.3593 98.5396 18.7225 99.0968 18.2649C99.6536 17.7912 100.317 17.5546 101.087 17.5546C101.857 17.5546 102.472 17.7834 102.979 18.2406C103.487 18.6979 103.831 19.3428 104.011 20.1759H97.9418H97.9415Z" fill="#FFFFFF"></path><path fill-rule="evenodd" clip-rule="evenodd" d="M114.634 28.554C112.75 28.554 111.3 28.1619 110.284 27.378C109.579 26.8343 109.1 26.1255 108.844 25.2518L111.906 24.434C112.016 24.845 112.237 25.1732 112.569 25.4181C113.028 25.7286 113.634 25.8835 114.388 25.8835C115.027 25.8835 115.518 25.7691 115.862 25.5406C116.206 25.2956 116.378 24.9609 116.378 24.5364C116.378 24.2587 116.305 24.0464 116.157 23.8996C116.026 23.7363 115.871 23.6219 115.69 23.5567C115.51 23.4751 115.15 23.3445 114.609 23.1646L112.963 22.6257C112.078 22.348 111.341 22.0622 110.752 21.7683C110.178 21.4582 109.711 21.058 109.351 20.568C109.007 20.0618 108.835 19.4328 108.835 18.6817C108.835 17.4895 109.277 16.5422 110.162 15.84C111.046 15.1213 112.291 14.7622 113.897 14.7622C115.503 14.7622 116.739 15.1624 117.706 15.9625C118.452 16.5576 118.962 17.3499 119.236 18.34L116.299 19.1245C116.203 18.5967 115.968 18.1959 115.592 17.9224C115.166 17.5957 114.601 17.4324 113.897 17.4324C113.339 17.4324 112.905 17.5387 112.594 17.751C112.283 17.9632 112.127 18.2571 112.127 18.6327C112.127 18.8939 112.209 19.1146 112.373 19.2941C112.553 19.4574 112.741 19.5799 112.938 19.6616C113.135 19.7433 113.479 19.8658 113.97 20.0291L115.469 20.5437C116.485 20.8703 117.288 21.197 117.877 21.5236C118.467 21.8337 118.917 22.2339 119.229 22.7239C119.556 23.1977 119.72 23.8182 119.72 24.5856C119.72 25.8267 119.27 26.7986 118.369 27.5008C117.468 28.203 116.223 28.5543 114.633 28.5543" fill="#FFFFFF"></path><path fill-rule="evenodd" clip-rule="evenodd" d="M124.371 27.6717C125.403 28.2599 126.616 28.5538 128.008 28.5538C129.761 28.5538 131.203 28.0557 132.333 27.0596C133.037 26.4396 133.553 25.687 133.882 24.8013L130.749 23.9643C130.572 24.3795 130.322 24.7334 129.999 25.0262C129.475 25.4999 128.811 25.7365 128.008 25.7365C126.976 25.7365 126.141 25.3609 125.502 24.6097C124.863 23.8586 124.543 22.8459 124.543 21.5721C124.543 20.2982 124.855 19.3753 125.477 18.6569C126.1 17.9219 126.919 17.5544 127.935 17.5544C128.754 17.5544 129.442 17.7994 129.999 18.2894C130.392 18.6238 130.675 19.0393 130.848 19.5365L134.014 18.6908C133.867 18.2245 133.659 17.7886 133.39 17.383C132.85 16.5502 132.112 15.905 131.178 15.4477C130.245 14.9905 129.172 14.7617 127.959 14.7617C126.649 14.7617 125.477 15.0394 124.445 15.5945C123.429 16.1497 122.627 16.942 122.037 17.9708C121.464 18.9997 121.177 20.2 121.177 21.5721C121.177 22.9441 121.447 24.1117 121.988 25.1733C122.545 26.2349 123.339 27.0677 124.371 27.6721" fill="#FFFFFF"></path><path fill-rule="evenodd" clip-rule="evenodd" d="M145.588 15.1783L145.293 17.1382C144.916 16.4032 144.327 15.8235 143.524 15.399C142.737 14.9745 141.845 14.7622 140.845 14.7622C139.699 14.7622 138.666 15.0561 137.749 15.6443C136.848 16.2159 136.144 17.0241 135.636 18.0695C135.128 19.0984 134.874 20.2741 134.874 21.5969C134.874 22.9197 135.136 24.1611 135.66 25.2224C136.184 26.2678 136.905 27.0841 137.823 27.6722C138.756 28.2604 139.805 28.5543 140.968 28.5543C141.853 28.5543 142.639 28.3829 143.327 28.0397C144.016 27.6969 144.556 27.2231 144.949 26.6187V28.1622H148.291V15.1786H145.588V15.1783ZM144.016 24.6345C143.409 25.4184 142.606 25.8102 141.608 25.8102C140.609 25.8102 139.822 25.4262 139.199 24.6589C138.577 23.8747 138.266 22.8623 138.266 21.6209C138.266 20.3794 138.577 19.4322 139.199 18.6811C139.822 17.9134 140.633 17.5297 141.632 17.5297C142.631 17.5297 143.41 17.9053 144.016 18.6564C144.638 19.4079 144.949 20.3878 144.949 21.5963C144.949 22.8047 144.638 23.8501 144.016 24.6342" fill="#FFFFFF"></path><path d="M154.095 10.1074H150.753V28.1618H154.095V10.1074Z" fill="#FFFFFF"></path><path fill-rule="evenodd" clip-rule="evenodd" d="M169.03 21.6212C169.013 20.2332 168.735 19.0245 168.194 17.9956C167.654 16.9506 166.909 16.1502 165.958 15.595C165.008 15.0399 163.911 14.7622 162.665 14.7622C161.42 14.7622 160.274 15.0561 159.274 15.6443C158.275 16.2159 157.488 17.0322 156.915 18.0941C156.358 19.1392 156.08 20.3479 156.08 21.7197C156.08 23.0914 156.366 24.2262 156.94 25.2716C157.513 26.3005 158.316 27.1087 159.348 27.6969C160.396 28.2685 161.584 28.5543 162.911 28.5543C164.467 28.5543 165.778 28.1622 166.843 27.3786C167.603 26.8073 168.184 26.0738 168.585 25.1783L165.579 24.3755C165.365 24.779 165.065 25.102 164.68 25.3455C164.205 25.6394 163.624 25.7862 162.936 25.7862C161.969 25.7862 161.167 25.4758 160.528 24.8552C159.889 24.2349 159.504 23.418 159.373 22.4057H169.03V21.6215V21.6212ZM159.52 20.1759C159.733 19.3593 160.118 18.7225 160.675 18.2649C161.232 17.7912 161.895 17.5546 162.665 17.5546C163.435 17.5546 164.05 17.7834 164.558 18.2406C165.066 18.6979 165.41 19.3428 165.59 20.1759H159.52H159.52Z" fill="#FFFFFF"></path><defs><linearGradient id="paint0_linear_780_5442" x1="16.5938" y1="14.0688" x2="13.5295" y2="14.0232" gradientUnits="userSpaceOnUse"><stop stop-color="#F5FF80" stop-opacity="0"></stop><stop offset="1" stop-color="#F5FF80"></stop></linearGradient><linearGradient id="paint1_linear_780_5442" x1="10.7023" y1="23.9234" x2="6.88394" y2="23.9234" gradientUnits="userSpaceOnUse"><stop stop-color="#F5FF80" stop-opacity="0"></stop><stop offset="0.96" stop-color="#F5FF80"></stop></linearGradient><clipPath id="clip0_780_5442"><rect width="38" height="38" rx="19" fill="#FFFFFF"></rect></clipPath></defs></svg>