<?xml version="1.0" encoding="utf-8"?>
<!-- Generator: Adobe Illustrator 16.0.3, SVG Export Plug-In . SVG Version: 6.00 Build 0)  -->
<!DOCTYPE svg PUBLIC "-//W3C//DTD SVG 1.1//EN" "http://www.w3.org/Graphics/SVG/1.1/DTD/svg11.dtd">
<svg version="1.1" id="logo-typescript" xmlns="http://www.w3.org/2000/svg" xmlns:xlink="http://www.w3.org/1999/xlink" x="0px"
	 y="0px" width="300px" height="73.715px" viewBox="0 113.148 300 73.715" enable-background="new 0 113.148 300 73.715"
	 xml:space="preserve">
<g>
	<path fill="#007ACC" d="M37.069,121.149H21.65v47.762h-6.263v-47.762H0v-5.67h37.069V121.149z"/>
	<path fill="#007ACC" d="M61.401,130.761l-17.549,44.255c-3.126,7.895-7.524,11.848-13.193,11.848c-1.59,0-2.915-0.159-3.985-0.488
		v-5.479c1.314,0.445,2.522,0.668,3.614,0.668c3.084,0,5.394-1.834,6.931-5.511l3.052-7.228l-14.9-38.065h6.782l10.322,29.354
		c0.127,0.371,0.381,1.346,0.784,2.903h0.223c0.127-0.593,0.371-1.536,0.742-2.829l10.841-29.429H61.401z"/>
	<path fill="#007ACC" d="M71.394,163.4h-0.148v23.06h-6.115v-55.699h6.115v6.708h0.148c3.01-5.065,7.397-7.599,13.194-7.599
		c4.917,0,8.753,1.707,11.509,5.119c2.755,3.413,4.133,7.991,4.133,13.734c0,6.379-1.547,11.498-4.652,15.333
		c-3.105,3.837-7.354,5.755-12.738,5.755C77.891,169.801,74.075,167.671,71.394,163.4z M71.246,148.013v5.331
		c0,3.158,1.028,5.828,3.073,8.032c2.045,2.204,4.652,3.296,7.81,3.296c3.698,0,6.602-1.42,8.7-4.25
		c2.099-2.829,3.147-6.771,3.147-11.805c0-4.25-0.985-7.577-2.946-9.983s-4.621-3.614-7.969-3.614c-3.55,0-6.412,1.24-8.573,3.709
		C72.327,141.188,71.246,144.283,71.246,148.013z"/>
	<path fill="#007ACC" d="M137.299,151.361h-26.938c0.095,4.25,1.24,7.524,3.423,9.835c2.183,2.31,5.192,3.465,9.018,3.465
		c4.292,0,8.245-1.42,11.848-4.249v5.732c-3.349,2.438-7.789,3.656-13.3,3.656c-5.394,0-9.623-1.727-12.706-5.192
		c-3.084-3.466-4.621-8.34-4.621-14.625c0-5.934,1.685-10.777,5.044-14.507c3.37-3.741,7.545-5.606,12.537-5.606
		s8.849,1.611,11.583,4.843c2.734,3.232,4.101,7.715,4.101,13.448v3.2H137.299z M131.036,146.18
		c-0.021-3.529-0.88-6.273-2.554-8.234c-1.674-1.96-4.006-2.946-6.983-2.946c-2.882,0-5.331,1.028-7.344,3.094
		c-2.013,2.066-3.253,4.758-3.73,8.086H131.036z"/>
	<path fill="#007ACC" d="M142.64,166.749v-7.376c0.773,0.742,1.696,1.42,2.776,2.014c1.081,0.594,2.215,1.102,3.413,1.505
		c1.197,0.403,2.396,0.731,3.593,0.954c1.207,0.223,2.32,0.339,3.338,0.339c3.518,0,6.156-0.71,7.895-2.141s2.607-3.487,2.607-6.168
		c0-1.44-0.286-2.691-0.869-3.762s-1.377-2.045-2.406-2.925c-1.027-0.88-2.235-1.728-3.635-2.533
		c-1.398-0.806-2.903-1.653-4.514-2.554c-1.707-0.943-3.296-1.897-4.769-2.872c-1.473-0.964-2.766-2.035-3.847-3.2
		c-1.092-1.166-1.95-2.49-2.575-3.963c-0.625-1.473-0.933-3.211-0.933-5.193c0-2.437,0.487-4.546,1.462-6.348
		s2.257-3.285,3.857-4.451c1.59-1.166,3.401-2.035,5.437-2.607s4.111-0.858,6.221-0.858c4.822,0,8.33,0.636,10.533,1.897v7.037
		c-2.882-2.183-6.592-3.275-11.116-3.275c-1.251,0-2.501,0.148-3.751,0.424c-1.251,0.286-2.363,0.752-3.339,1.399
		c-0.975,0.646-1.77,1.473-2.384,2.501c-0.615,1.018-0.922,2.257-0.922,3.73c0,1.367,0.233,2.543,0.7,3.54
		c0.466,0.996,1.154,1.897,2.066,2.723c0.911,0.816,2.014,1.611,3.327,2.385c1.304,0.773,2.809,1.611,4.515,2.533
		c1.748,0.943,3.412,1.939,4.98,2.978s2.946,2.194,4.123,3.465c1.176,1.272,2.119,2.671,2.809,4.208
		c0.688,1.537,1.038,3.306,1.038,5.288c0,2.629-0.478,4.864-1.409,6.688c-0.943,1.822-2.215,3.307-3.815,4.451
		s-3.444,1.971-5.542,2.479c-2.088,0.51-4.293,0.764-6.613,0.764c-0.773,0-1.728-0.063-2.861-0.201s-2.299-0.34-3.476-0.594
		c-1.187-0.265-2.299-0.582-3.359-0.965C144.124,167.65,143.287,167.215,142.64,166.749z"/>
	<path fill="#007ACC" d="M204.793,167.162c-2.936,1.76-6.41,2.649-10.428,2.649c-5.436,0-9.834-1.77-13.172-5.31
		c-3.338-3.539-5.013-8.128-5.013-13.766c0-6.284,1.802-11.328,5.405-15.144c3.603-3.815,8.403-5.723,14.422-5.723
		c3.35,0,6.307,0.625,8.871,1.865v6.263c-2.83-1.992-5.861-2.978-9.094-2.978c-3.899,0-7.1,1.399-9.59,4.197
		c-2.49,2.797-3.741,6.464-3.741,11.011c0,4.471,1.177,8,3.519,10.576s5.5,3.879,9.442,3.879c3.327,0,6.454-1.103,9.39-3.317v5.797
		H204.793z"/>
	<path fill="#007ACC" d="M228.436,136.939c-1.07-0.816-2.606-1.229-4.619-1.229c-2.607,0-4.791,1.229-6.539,3.688
		s-2.629,5.807-2.629,10.057V168.9h-6.114v-38.15h6.114v7.863h0.148c0.869-2.681,2.194-4.779,3.985-6.274
		c1.79-1.505,3.783-2.257,5.998-2.257c1.589,0,2.808,0.17,3.655,0.52V136.939z"/>
	<path fill="#007ACC" d="M235.451,121.075c-1.092,0-2.023-0.371-2.797-1.113s-1.155-1.685-1.155-2.83s0.382-2.087,1.155-2.851
		c0.773-0.752,1.705-1.134,2.797-1.134c1.113,0,2.066,0.381,2.852,1.134c0.783,0.763,1.176,1.706,1.176,2.851
		c0,1.091-0.393,2.024-1.176,2.798C237.518,120.683,236.564,121.075,235.451,121.075z M238.43,168.911h-6.115v-38.15h6.115V168.911z
		"/>
	<path fill="#007ACC" d="M248.285,163.4h-0.148v23.06h-6.115v-55.699h6.115v6.708h0.148c3.01-5.065,7.396-7.599,13.193-7.599
		c4.918,0,8.754,1.707,11.509,5.119c2.755,3.413,4.133,7.991,4.133,13.734c0,6.379-1.547,11.498-4.651,15.333
		c-3.105,3.837-7.355,5.755-12.738,5.755C254.781,169.801,250.967,167.671,248.285,163.4z M248.137,148.013v5.331
		c0,3.158,1.027,5.828,3.073,8.032c2.045,2.204,4.652,3.296,7.81,3.296c3.699,0,6.603-1.42,8.701-4.25
		c2.098-2.829,3.147-6.771,3.147-11.805c0-4.25-0.985-7.577-2.946-9.983s-4.621-3.614-7.969-3.614c-3.551,0-6.412,1.24-8.574,3.709
		C249.218,141.188,248.137,144.283,248.137,148.013z"/>
	<path fill="#007ACC" d="M300,168.54c-1.441,0.795-3.338,1.187-5.701,1.187c-6.677,0-10.025-3.73-10.025-11.18v-22.572h-6.56v-5.214
		h6.56v-9.315l6.115-1.971v11.286H300v5.214h-9.611v21.491c0,2.554,0.434,4.388,1.303,5.479c0.869,1.091,2.311,1.643,4.324,1.643
		c1.536,0,2.871-0.425,3.984-1.272V168.54z"/>
</g>
</svg>
