<?xml version="1.0" encoding="utf-8"?>
<!-- Generator: Adobe Illustrator 16.0.3, SVG Export Plug-In . SVG Version: 6.00 Build 0)  -->
<!DOCTYPE svg PUBLIC "-//W3C//DTD SVG 1.1//EN" "http://www.w3.org/Graphics/SVG/1.1/DTD/svg11.dtd">
<svg version="1.1" id="Layer_1" xmlns="http://www.w3.org/2000/svg" xmlns:xlink="http://www.w3.org/1999/xlink" x="0px" y="0px"
	 width="106px" height="23.805px" viewBox="6.576 17.951 106 23.805" enable-background="new 6.576 17.951 106 23.805"
	 xml:space="preserve">
<g transform="matrix(.139961 0 0 .139959 6.576 33.486497)">
	<circle fill="#DD4814" cx="712.028" cy="-65.677" r="45.325"/>
	<path fill="#FFFFFF" d="M681.202-71.726c-3.342,0-6.049,2.714-6.049,6.049c0,3.349,2.714,6.056,6.049,6.056
		c3.349,0,6.056-2.707,6.056-6.056l0,0c0-3.342-2.707-6.056-6.056-6.056V-71.726z M724.413-44.228
		c-2.91,1.647-3.928,5.345-2.282,8.247c1.647,2.91,5.331,3.935,8.247,2.289c0.028-0.014,0.056-0.035,0.084-0.056
		c2.889-1.668,3.879-5.366,2.219-8.261C731.007-44.898,727.309-45.889,724.413-44.228z M694.347-65.677
		c0-5.973,2.972-11.262,7.522-14.457l-4.424-7.403c-5.303,3.538-9.238,8.952-10.871,15.281c1.982,1.612,3.133,4.04,3.126,6.594
		c0,2.658-1.221,5.024-3.126,6.601c1.633,6.336,5.568,11.743,10.871,15.281l4.424-7.41c-4.549-3.196-7.522-8.485-7.522-14.457
		V-65.677z M712.028-83.351c9.154,0.007,16.788,6.991,17.597,16.111l8.624-0.126c-0.419-6.67-3.335-12.657-7.808-17.053
		c-2.296,0.865-4.961,0.74-7.25-0.586c-2.303-1.326-3.754-3.573-4.145-6.001c-2.233-0.614-4.605-0.956-7.019-0.956
		c-4.187,0-8.143,0.984-11.652,2.714l4.2,7.536C706.837-82.758,709.363-83.351,712.028-83.351z M712.028-47.996
		c-2.665,0-5.191-0.593-7.452-1.647l-4.2,7.536c3.621,1.8,7.605,2.728,11.652,2.721c2.372,0,4.731-0.321,7.019-0.956
		c0.74-4.626,5.087-7.78,9.713-7.04c0.572,0.098,1.137,0.244,1.689,0.454c4.465-4.403,7.382-10.39,7.801-17.046l-8.624-0.133
		c-0.795,9.036-8.366,16.097-17.597,16.097V-47.996L712.028-47.996z M724.406-87.126c2.903,1.675,6.601,0.684,8.268-2.219
		c1.668-2.889,0.677-6.587-2.212-8.261l0,0c-2.896-1.675-6.594-0.677-8.268,2.219C720.527-92.498,721.517-88.8,724.406-87.126z"/>
	<path fill="#DD4814" d="M90.65,53.261c-4.605,1.144-10.682,2.372-18.239,3.67c-7.549,1.284-16.292,1.94-26.221,1.94
		c-8.638,0-15.901-1.256-21.804-3.782c-5.896-2.512-10.648-6.07-14.241-10.676c-3.6-4.605-6.189-10.048-7.773-16.299
		C0.788,21.849,0,14.913,0,7.28v-63.021h20.074V2.968c0,13.676,2.156,23.458,6.475,29.347c4.319,5.903,11.582,8.861,21.797,8.861
		c2.233-0.014,4.466-0.084,6.691-0.223c2.302-0.14,4.458-0.321,6.475-0.544l5.505-0.642c1.654-0.223,2.84-0.461,3.558-0.754v-94.754
		H90.65V53.261L90.65,53.261z M139.645-50.773c2.442-1.577,6.147-3.238,11.115-4.968c4.961-1.723,10.682-2.596,17.157-2.596
		c8.059,0,15.218,1.437,21.476,4.312s11.548,6.908,15.867,12.085c4.312,5.184,7.584,11.373,9.817,18.567
		c2.233,7.194,3.349,15.106,3.349,23.744c0,9.057-1.333,17.234-3.998,24.491c-2.658,7.278-6.426,13.425-11.331,18.462
		c-4.898,5.038-10.787,8.931-17.695,11.652c-6.908,2.735-14.68,4.103-23.298,4.103c-9.357,0-17.632-0.642-24.826-1.94
		c-7.194-1.298-13.09-2.596-17.695-3.879v-160.803l20.074-3.447v60.216H139.645L139.645-50.773z M139.645,39.013
		c2.01,0.572,4.856,1.116,8.526,1.619s8.233,0.754,13.704,0.754c10.794,0,19.425-3.559,25.9-10.69
		c6.475-7.117,9.713-17.22,9.713-30.324c0-5.749-0.579-11.15-1.723-16.188c-1.151-5.038-3.021-9.385-5.603-13.048
		c-2.582-3.67-5.938-6.552-10.04-8.638c-4.096-2.093-9.029-3.126-14.785-3.126c-5.463,0-10.501,0.935-15.106,2.805
		c-4.605,1.863-8.129,3.824-10.585,5.819V39.013L139.645,39.013z M330.442,53.261c-4.612,1.144-10.682,2.372-18.239,3.67
		c-7.557,1.284-16.299,1.94-26.228,1.94c-8.631,0-15.895-1.27-21.797-3.782c-5.903-2.512-10.648-6.07-14.248-10.676
		c-3.593-4.605-6.182-10.048-7.766-16.299c-1.584-6.266-2.372-13.201-2.372-20.835v-63.021h20.067V2.968
		c0,13.676,2.163,23.458,6.475,29.347c4.319,5.903,11.582,8.861,21.804,8.861c2.233-0.014,4.459-0.084,6.691-0.223
		c2.296-0.14,4.452-0.321,6.475-0.544l5.498-0.642c1.654-0.223,2.84-0.461,3.565-0.754v-94.754h20.067V53.261H330.442z
		 M359.363-52.503c4.598-1.144,10.717-2.372,18.344-3.67c7.626-1.291,16.404-1.94,26.326-1.94c8.924,0,16.334,1.263,22.23,3.782
		c5.903,2.512,10.606,6.042,14.143,10.578c3.537,4.528,6.007,9.964,7.445,16.292c1.437,6.329,2.149,13.306,2.149,20.925v63.035
		h-20.074V-2.21c0-6.908-0.468-12.811-1.402-17.695c-0.935-4.898-2.484-8.854-4.64-11.876c-2.156-3.014-5.038-5.219-8.631-6.587
		c-3.6-1.368-8.066-2.051-13.383-2.051c-2.163,0-4.396,0.084-6.698,0.223c-2.309,0.14-4.5,0.321-6.587,0.537
		c-1.877,0.188-3.747,0.44-5.603,0.754l-3.565,0.649v94.74h-20.053V-52.503z M496.413-55.741h42.52v16.837h-42.52V12.89
		c0,5.61,0.433,10.257,1.298,13.927c0.865,3.67,2.149,6.545,3.879,8.638c1.688,2.051,3.935,3.586,6.475,4.424
		c2.603,0.865,5.603,1.298,9.064,1.298c6.189,0,11.08-0.684,14.681-2.051c3.593-1.368,6.042-2.344,7.333-2.917l4.319,16.397
		c-2.016,1.019-5.575,2.303-10.682,3.893c-5.108,1.577-10.899,2.372-17.374,2.372c-7.633,0-13.927-0.977-18.888-2.917
		c-4.961-1.94-8.952-4.856-11.98-8.736c-3.021-3.893-5.149-8.666-6.363-14.36c-1.228-5.687-1.842-12.266-1.842-19.746V-87.035
		l20.081-3.454V-55.741L496.413-55.741z M648.143,53.261c-4.605,1.144-10.689,2.372-18.239,3.67
		c-7.55,1.284-16.306,1.94-26.221,1.94c-8.638,0-15.908-1.256-21.804-3.782c-5.896-2.512-10.655-6.07-14.248-10.676
		c-3.593-4.605-6.189-10.048-7.766-16.299c-1.584-6.266-2.379-13.201-2.379-20.835v-63.021h20.074V2.968
		c0,13.676,2.163,23.458,6.475,29.347c4.319,5.903,11.583,8.861,21.797,8.861c2.233-0.014,4.466-0.084,6.698-0.223
		c2.163-0.126,4.319-0.307,6.475-0.544l5.498-0.642c1.654-0.223,2.847-0.461,3.558-0.754v-94.754h20.081V53.261L648.143,53.261z"/>
</g>
</svg>
