<?xml version="1.0" encoding="utf-8"?>
<!-- Generator: Adobe Illustrator 16.0.3, SVG Export Plug-In . SVG Version: 6.00 Build 0)  -->
<!DOCTYPE svg PUBLIC "-//W3C//DTD SVG 1.1//EN" "http://www.w3.org/Graphics/SVG/1.1/DTD/svg11.dtd">
<svg version="1.1" id="Layer_1" xmlns="http://www.w3.org/2000/svg" xmlns:xlink="http://www.w3.org/1999/xlink" x="0px" y="0px"
	 width="255.532px" height="72.543px" viewBox="0 112.89 255.532 72.543" enable-background="new 0 112.89 255.532 72.543"
	 xml:space="preserve">
<path fill="#645A53" d="M235.514,175.21h7.332l12.687-32.149h-7.258l-5.243,16.012l-5.524-16.012h-8.101l9.646,23.223
	L235.514,175.21z M199.121,150.692v16.479h-7.396v-24.11h5.197l1.545,2.105c2.014-1.689,4.166-2.668,6.648-2.668
	c3.324,0,5.852,0.984,7.397,3.419c2.247-2.062,4.636-3.419,7.679-3.419c5.711,0,9.035,2.95,9.035,10.957v13.717h-7.396v-12.874
	c0-3.698-1.499-4.776-3.887-4.776c-1.404,0-2.574,0.374-3.887,1.218c0.096,0.842,0.142,1.731,0.142,2.711v13.717h-7.397v-12.87
	c0-3.698-1.498-4.776-3.934-4.776C201.51,149.522,200.387,149.85,199.121,150.692L199.121,150.692z M173.322,152.752h9.504
	c-0.516-3.136-2.2-4.635-4.729-4.635C175.943,148.117,173.885,149.382,173.322,152.752L173.322,152.752z M178.613,167.641
	c-7.117,0-12.83-3.512-12.83-12.782c0-8.663,5.526-12.407,11.894-12.407c7.678,0,11.096,5.383,11.096,13.858h-15.497
	c0.515,4.166,3.09,5.384,6.509,5.384c3.306,0,5.892-0.814,7.892-2.161l-1.004,5.867C184.762,166.875,182.47,167.64,178.613,167.641
	L178.613,167.641z M151.068,161.414c1.689,0,2.949-0.282,4.26-1.265v-10.487c-1.17-0.703-2.34-1.03-4.025-1.03
	c-3.604,0-5.665,2.434-5.665,6.506C145.638,159.119,147.744,161.414,151.068,161.414L151.068,161.414z M156.779,165.393
	c-1.919,1.451-4.118,2.342-7.256,2.342c-6.602,0-11.377-4.073-11.377-12.455c0-8.333,5.479-12.828,12.5-12.828
	c1.639,0,3.232,0.234,4.682,0.8v-10.238h7.398v34.159h-4.682L156.779,165.393z M106.803,152.893v-17.87h7.678v17.729
	c0,6.367,2.855,7.678,6.788,7.678c4.262,0,6.461-1.873,6.461-7.678v-17.729h7.726v17.869c0,10.535-4.587,14.936-14.56,14.936
	C111.625,167.827,106.803,164.035,106.803,152.893L106.803,152.893z"/>
<path fill="#EA5252" d="M87.235,154.232c-0.302-0.248-0.66-0.416-1.043-0.49c-2.252,2.244-5,4.608-7.44,6.197
	c-1.126,0.748-2.542,1.123-3.48,1.123c-2.158,0-3.096-2.059-3.378-5.334c-0.375-4.394-0.629-9.656-0.629-17.79
	c0-8.342-1.893-14.013-6.937-14.458c-0.213-0.019-0.429-0.032-0.653-0.032c-3.096,0-4.598,1.589-6.567,5.609
	c-1.689,3.459-4.311,8.507-9.194,18.042c-4.222,8.228-8.912,15.52-12.947,20.568c-1.124,1.398-2.012,2.359-2.846,2.908
	c-0.558,0.367-1.094,0.551-1.657,0.551c-1.592,0-2.754-1.344-3.143-4.473c-0.092-0.744-0.141-1.588-0.141-2.539
	c0-6.45,2.444-16.921,6.661-32.347c3.097-11.214,1.783-18.879-4.973-18.879h-0.076l-0.004,0.001c-1.53,0.018-2.798,0.572-4.02,1.533
	c-1.203,0.947-2.407,2.993-3.53,5.744c-1.267,3.098-8.97,18.549-21.229,26.508c-0.145,3.026,1.569,6.051,5.04,6.379
	c3.156,0.299,5.404-1.032,8.293-2.973c-0.387,1.727-0.769,3.456-1.145,5.186l-0.402,1.84c-0.381,1.733-0.672,3.485-0.873,5.249
	c-1.733,15.452,5.433,23.076,13.82,23.076c1.402,0,2.791-0.167,4.17-0.517c9.241-2.344,18.138-12.943,28.667-37.345
	c-0.16,2.654-0.176,5.134-0.061,7.435c0.693,13.984,6.225,18.18,14.044,18.18c5.911,0,11.445-3.084,14.26-6.917
	c2.064-2.712,2.909-5.703,2.909-8.044c0-1.814-0.575-3.263-1.49-3.998"/>
</svg>
