<svg xmlns="http://www.w3.org/2000/svg" width="269" height="88" fill="none" viewBox="0 0 269 88"><path fill="#000" d="M114.32 23.68h7.93L110.17 64H98.92l-12-40.29h7.92l9.74 33.58 9.74-33.61ZM144.23 64h-6l-.55-2a16.116 16.116 0 0 1-8.77 2.6c-5.38 0-7.68-3.69-7.68-8.77 0-6 2.6-8.29 8.59-8.29h7.08v-3.11c0-3.26-.91-4.41-5.63-4.41a41.55 41.55 0 0 0-8.17.9l-.9-5.62a38.26 38.26 0 0 1 10.1-1.39c9.25 0 12 3.26 12 10.64L144.23 64Zm-7.38-11.13h-5.45c-2.42 0-3.08.67-3.08 2.91 0 2 .66 3 3 3a11.716 11.716 0 0 0 5.57-1.51l-.04-4.4ZM158.319 56.05a3.155 3.155 0 0 0-1.75 2.36c0 .78.48 1.15 1.63 1.27 3.27.36 5.08.54 8.53.9 4.78.55 6.29 2.91 6.29 7.14 0 6.3-2.3 8.78-13.31 8.78a42.817 42.817 0 0 1-11.39-1.5l.91-5.5a41.148 41.148 0 0 0 9.92 1.27c5.87 0 7-.42 7-2.36s-.54-2.12-2.78-2.36c-3.39-.36-4.78-.54-8.53-1-4.17-.48-5.81-1.87-5.81-5.62a6.264 6.264 0 0 1 3.09-5c-2.72-1.63-4-4.35-4-7.92v-2.8c.12-6.11 3.32-9.8 11.85-9.8a20.273 20.273 0 0 1 5 .6h9.07v3.69c-1 .3-2.24.61-3.27.91a9.989 9.989 0 0 1 1 4.6v2.78c0 6-3.63 9.62-11.86 9.62a15.344 15.344 0 0 1-1.59-.06Zm1.69-16.21c-3.63 0-4.9 1.33-4.9 4.11v2.24c0 2.9 1.46 4 4.9 4 3.44 0 5-1.15 5-4V44c-.04-2.83-1.31-4.16-5-4.16ZM192.619 40.68a57.244 57.244 0 0 0-7.8 4.3V64h-7.38V34.51h6.23l.48 3.27c2.397-1.627 5-2.929 7.74-3.87l.73 6.77ZM217.32 64h-6l-.54-2a16.17 16.17 0 0 1-8.77 2.6c-5.39 0-7.69-3.69-7.69-8.77 0-6 2.6-8.29 8.59-8.29h7.08v-3.11c0-3.26-.91-4.41-5.63-4.41a41.45 41.45 0 0 0-8.16.9l-.91-5.62a38.318 38.318 0 0 1 10.03-1.39c9.26 0 12 3.26 12 10.64V64Zm-7.4-11.16h-5.44c-2.42 0-3.09.67-3.09 2.91 0 2 .67 3 3 3a11.69 11.69 0 0 0 5.57-1.51l-.04-4.4ZM239.26 64V43.4c0-1.57-.67-2.36-2.36-2.36s-5 1.09-7.68 2.49V64h-7.38V34.51h5.62l.73 2.48a29.587 29.587 0 0 1 11.8-3.08c4.9 0 6.65 3.44 6.65 8.71V64h-7.38ZM268.32 63.43a20.677 20.677 0 0 1-6.48 1.15c-5.38 0-8.1-2.54-8.1-7.81V40.38h-4.42v-5.87h4.42v-7.32l7.38-1v8.35h7.56l-.48 5.87h-7.08v15.4c0 1.57.72 2.6 2.66 2.6a13.923 13.923 0 0 0 3.69-.61l.85 5.63Z"></path><path fill="#0E67ED" d="m53.44 13.06-13.96 8.06v4.96l-8.51 20.01-8.51-20.01v-4.96L8.5 13.06 0 17.97v5.7L18.92 70l12.05 6.96L43.02 70l18.92-46.33v-5.7l-8.5-4.91Z"></path><path fill="#0850C5" d="m61.939 17.97-13.96 8.06v4.95l-11.35 25.35-5.66 3.27v17.36L43.019 70l18.92-46.33v-5.7ZM22.459 26.08v-4.96l-8.49 4.91v4.95l11.34 25.35 5.66-3.27v-6.97l-8.51-20.01Z"></path><path fill="#000" d="M94.76 13.81V8.16h-5.17v5.65h-2.64V.23h2.64v5.69h5.17V.23h2.64v13.58h-2.64Zm12.329 0h-2.1l-.19-.66a5.77 5.77 0 0 1-3 .86c-1.86 0-2.66-1.22-2.66-2.91 0-2 .9-2.76 3-2.76h2.45v-1c0-1.08-.31-1.47-2-1.47-.951.013-1.898.117-2.83.31l-.31-1.88a13.904 13.904 0 0 1 3.5-.46c3.2 0 4.15 1.09 4.15 3.54l-.01 6.43Zm-2.56-3.7h-1.89c-.83 0-1.06.22-1.06 1s.23 1 1 1a4.148 4.148 0 0 0 1.93-.5l.02-1.5Zm7.91 3.9a12.589 12.589 0 0 1-3.52-.56l.36-1.87a11.94 11.94 0 0 0 3 .42c1.13 0 1.3-.24 1.3-1s-.13-.91-1.78-1.29c-2.5-.59-2.79-1.19-2.79-3.08 0-1.89.9-2.84 3.81-2.84 1.03 0 2.056.115 3.06.34l-.25 2a17.604 17.604 0 0 0-2.81-.29c-1.11 0-1.3.25-1.3.85 0 .78.07.84 1.45 1.19 2.85.72 3.12 1.08 3.12 3.1s-.57 3.02-3.65 3.02v.01Zm11.71-.2V7c0-.52-.23-.78-.82-.78-.931.1-1.834.378-2.66.82v6.8h-2.56V0l2.56.38v4.34a9.195 9.195 0 0 1 3.73-.95c1.7 0 2.3 1.15 2.3 2.9v7.1l-2.55.04Zm4.7-11.19V.23h2.56v2.39h-2.56Zm0 11.19V4h2.56v9.8l-2.56.01Zm4.6-9.72c0-2.45 1.49-3.88 5-3.88 1.276 0 2.548.147 3.79.44l-.29 2.2a20.457 20.457 0 0 0-3.42-.35c-1.82 0-2.41.61-2.41 2v5.15c0 1.43.59 2 2.41 2a21.481 21.481 0 0 0 3.42-.34l.29 2.19c-1.242.293-2.514.44-3.79.44-3.48 0-5-1.42-5-3.88V4.09Zm14.41 9.91c-3.5 0-4.44-1.85-4.44-3.86V7.68c0-2 .94-3.87 4.44-3.87 3.5 0 4.46 1.85 4.46 3.87v2.47c0 2.01-1 3.85-4.46 3.85Zm0-8.11c-1.36 0-1.89.59-1.89 1.69v2.64c0 1.11.53 1.69 1.89 1.69 1.36 0 1.89-.58 1.89-1.69V7.59c0-1.1-.53-1.69-1.89-1.69v-.01Zm11.64.17c-.934.405-1.836.88-2.7 1.42v6.32h-2.56V4h2.16l.17 1.09a11.546 11.546 0 0 1 2.68-1.29l.25 2.26Zm10.22 4.48c0 2.18-1 3.46-3.37 3.46a14.864 14.864 0 0 1-2.73-.28v4l-2.55.38V4h2l.25.83a5.482 5.482 0 0 1 3.23-1c2.05 0 3.14 1.17 3.14 3.4l.03 3.31Zm-6.1 1.11c.747.159 1.507.246 2.27.26.92 0 1.28-.42 1.28-1.31V7.15c0-.8-.32-1.25-1.26-1.25a3.741 3.741 0 0 0-2.29.89v4.86Z"></path></svg>