<?xml version="1.0" encoding="utf-8"?>
<!-- Generator: Adobe Illustrator 16.0.3, SVG Export Plug-In . SVG Version: 6.00 Build 0)  -->
<!DOCTYPE svg PUBLIC "-//W3C//DTD SVG 1.1//EN" "http://www.w3.org/Graphics/SVG/1.1/DTD/svg11.dtd">
<svg version="1.1" id="Layer_1" xmlns="http://www.w3.org/2000/svg" xmlns:xlink="http://www.w3.org/1999/xlink" x="0px" y="0px"
	 width="107.897px" height="35.486px" viewBox="0 0 107.897 35.486" enable-background="new 0 0 107.897 35.486"
	 xml:space="preserve">
<path d="M47.757,11.831h3.099l-4.699,15.7h-4.384l-4.7-15.7h3.1l3.793,13.077L47.757,11.831z M59.413,27.52h-2.357l-0.201-0.748
	c-1.018,0.659-2.205,1-3.419,1c-2.094,0-2.991-1.437-2.991-3.42c0-2.334,1-3.226,3.344-3.226h2.752v-1.203
	c0-1.271-0.354-1.721-2.191-1.721c-1.07,0.01-2.134,0.13-3.18,0.352l-0.353-2.19c1.283-0.354,2.605-0.535,3.935-0.539
	c3.605,0,4.668,1.271,4.668,4.145v7.541L59.413,27.52z M56.532,23.188h-2.1c-0.943,0-1.205,0.262-1.205,1.13s0.263,1.15,1.152,1.15
	c0.762-0.01,1.51-0.213,2.17-0.59l-0.006-1.701L56.532,23.188z M64.903,24.438c-0.365,0.177-0.619,0.52-0.682,0.92
	c0,0.307,0.188,0.448,0.637,0.494l3.322,0.352c1.863,0.2,2.445,1.131,2.445,2.783c0,2.454-0.898,3.42-5.186,3.42
	c-1.494,0.002-2.984-0.196-4.428-0.591l0.354-2.147c1.262,0.322,2.557,0.488,3.857,0.494c2.283,0,2.73-0.165,2.73-0.92
	s-0.199-0.822-1.086-0.92l-3.32-0.374c-1.623-0.188-2.244-0.748-2.244-2.192c0.051-0.813,0.506-1.546,1.211-1.953
	c-1.055-0.657-1.654-1.85-1.557-3.09v-1.086c0.047-2.381,1.295-3.814,4.617-3.814c0.658-0.006,1.314,0.072,1.953,0.231h3.529v1.437
	l-1.271,0.352c0.273,0.556,0.412,1.171,0.402,1.788v1.085c0,2.334-1.412,3.74-4.615,3.74C65.35,24.455,65.125,24.452,64.903,24.438z
	 M65.559,18.123c-1.414,0-1.906,0.515-1.906,1.599v0.875c0,1.132,0.568,1.558,1.906,1.558s1.932-0.45,1.932-1.558v-0.875
	C67.491,18.638,67.004,18.123,65.559,18.123z M78.225,18.453c-1.037,0.48-2.039,1.037-2.992,1.668v7.4h-2.877V16.051h2.426
	l0.188,1.272c0.928-0.627,1.936-1.13,2.99-1.496l0.277,2.626H78.225z M87.87,27.52h-2.355l-0.201-0.748c-1.018,0.659-2.205,1-3.42,1
	c-2.094,0-2.99-1.437-2.99-3.42c0-2.334,1-3.226,3.344-3.226H85v-1.203c0-1.271-0.354-1.721-2.193-1.721
	c-1.068,0.01-2.133,0.13-3.18,0.352l-0.344-2.213c1.281-0.354,2.604-0.535,3.936-0.539c3.605,0,4.668,1.272,4.668,4.146
	l-0.008,7.563L87.87,27.52z M84.997,23.187h-2.117c-0.943,0-1.203,0.262-1.203,1.13s0.262,1.151,1.152,1.151
	c0.762-0.01,1.508-0.213,2.17-0.592v-1.699L84.997,23.187z M96.42,27.519v-8.013c0-0.611-0.262-0.92-0.92-0.92
	c-1.051,0.12-2.07,0.447-2.992,0.965v7.961h-2.871v-11.46h2.191l0.285,0.966c1.43-0.718,2.992-1.128,4.592-1.204
	c1.908,0,2.588,1.34,2.588,3.399v8.319H96.42V27.519z M107.754,27.274c-0.811,0.283-1.66,0.437-2.521,0.448
	c-2.094,0-3.154-0.986-3.154-3.035v-6.4h-1.723v-2.244h1.723v-2.857l2.873-0.404v3.262h2.945l-0.188,2.244h-2.76v5.985
	c-0.037,0.282,0.063,0.565,0.268,0.765s0.5,0.3,0.773,0.245c0.486-0.014,0.969-0.092,1.436-0.232l0.33,2.215L107.754,27.274z"/>
<path fill="#1159CC" d="M34.315,5.991v-3.25l-7.8,4.537v2.74l-6.242,13.46l-3.116,2.153v9.854l6.686-3.854L34.315,5.991z
	 M17.157,18.613l-4.68-10.926V4.586l-0.032-0.018l-4.647,2.7v2.739l6.237,14.05l3.12-1.539L17.157,18.613z"/>
<path fill="#127EFF" d="M29.637,0.011l-7.8,4.57v3.105l-4.68,10.926v3.646l-3.12,1.802L7.8,10.01V7.265l4.68-2.694L4.68,0L0,2.731
	v3.355l10.53,25.577l6.627,3.823v-9.605l3.116-1.801l-0.037-0.023l6.278-14.026V7.285l7.8-4.532L29.637,0.011z"/>
</svg>
