<?xml version="1.0" encoding="utf-8"?>
<!-- Generator: Adobe Illustrator 27.3.1, SVG Export Plug-In . SVG Version: 6.00 Build 0)  -->
<svg version="1.1" id="Layer_1" xmlns="http://www.w3.org/2000/svg" xmlns:xlink="http://www.w3.org/1999/xlink" x="0px" y="0px"
	 viewBox="0 0 207.5 74.9" style="enable-background:new 0 0 207.5 74.9;" xml:space="preserve">
<style type="text/css">
	.st0{fill:#FFD814;}
</style>
<path fill="#fff" d="M114.9,23.7h7.9L110.7,64H99.5l-12-40.3h7.9l9.7,33.6L114.9,23.7z M144.8,64h-6l-0.6-2c-2.6,1.7-5.7,2.6-8.8,2.6
	c-5.4,0-7.7-3.7-7.7-8.8c0-6,2.6-8.3,8.6-8.3h7.1v-3.1c0-3.3-0.9-4.4-5.6-4.4c-2.7,0-5.5,0.3-8.2,0.9l-0.9-5.6
	c3.3-0.9,6.7-1.4,10.1-1.4c9.2,0,12,3.3,12,10.6L144.8,64z M137.4,52.9H132c-2.4,0-3.1,0.7-3.1,2.9c0,2,0.7,3,3,3
	c2,0,3.9-0.6,5.6-1.5L137.4,52.9z M156.4,34.5v20.6c0,1.6,0.7,2.4,2.4,2.4s5-1.1,7.7-2.5V34.5h7.4V64h-5.6l-0.7-2.5
	c-3.7,1.8-7.7,2.9-11.8,3.1c-4.9,0-6.6-3.4-6.6-8.7V34.5H156.4z M177.8,64V22.5l7.4-1V64H177.8z M207.1,63.4
	c-2.1,0.7-4.3,1.1-6.5,1.2c-5.4,0-8.1-2.5-8.1-7.8V40.4h-4.4v-5.9h4.4v-7.3l7.4-1v8.4h7.6l-0.5,5.9h-7.1v15.4
	c-0.2,1.3,0.7,2.4,2,2.6c0.2,0,0.4,0,0.6,0c1.3,0,2.5-0.2,3.7-0.6L207.1,63.4z M95.3,13.8V8.2h-5.2v5.7h-2.6V0.2h2.6v5.7h5.2V0.2
	h2.6v13.6L95.3,13.8z M107.6,13.8h-2.1l-0.2-0.7c-0.9,0.6-1.9,0.9-3,0.9c-1.9,0-2.7-1.2-2.7-2.9c0-2,0.9-2.8,3-2.8h2.5v-1
	c0-1.1-0.3-1.5-1.9-1.5c-1,0-1.9,0.1-2.8,0.3L100,4.3c1.1-0.3,2.3-0.5,3.5-0.5c3.2,0,4.1,1.1,4.1,3.5L107.6,13.8z M105.1,10.1h-1.9
	c-0.8,0-1.1,0.2-1.1,1s0.2,1,1,1c0.7,0,1.3-0.2,1.9-0.5L105.1,10.1z M113,14c-1.2,0-2.4-0.2-3.5-0.6l0.4-1.9c1,0.3,2,0.4,3,0.4
	c1.1,0,1.3-0.2,1.3-1s-0.1-0.9-1.8-1.3c-2.5-0.6-2.8-1.2-2.8-3.1s0.9-2.8,3.8-2.8c1,0,2.1,0.1,3.1,0.3l-0.2,2
	c-0.9-0.2-1.9-0.3-2.8-0.3c-1.1,0-1.3,0.2-1.3,0.8c0,0.8,0.1,0.8,1.4,1.2c2.9,0.7,3.1,1.1,3.1,3.1S116.1,14,113,14z M124.7,13.8V7
	c0-0.5-0.2-0.8-0.8-0.8c-0.9,0.1-1.8,0.4-2.7,0.8v6.8h-2.6V0l2.6,0.4v4.3c1.2-0.6,2.4-0.9,3.7-1c1.7,0,2.3,1.2,2.3,2.9v7.1
	L124.7,13.8z M129.4,2.6V0.2h2.6v2.4L129.4,2.6z M129.4,13.8V4h2.6v9.8H129.4z M134,4.1c0-2.5,1.5-3.9,5-3.9c1.3,0,2.6,0.1,3.8,0.4
	l-0.3,2.2c-1.1-0.2-2.3-0.3-3.4-0.3c-1.8,0-2.4,0.6-2.4,2v5.2c0,1.4,0.6,2,2.4,2c1.1,0,2.3-0.1,3.4-0.3l0.3,2.2
	c-1.2,0.3-2.5,0.4-3.8,0.4c-3.5,0-5-1.4-5-3.9V4.1z M148.4,14c-3.5,0-4.4-1.8-4.4-3.9V7.7c0-2,1-3.9,4.4-3.9s4.5,1.8,4.5,3.9v2.5
	C152.9,12.2,151.9,14,148.4,14z M148.4,5.9c-1.4,0-1.9,0.6-1.9,1.7v2.6c0,1.1,0.5,1.7,1.9,1.7s1.9-0.6,1.9-1.7V7.6
	C150.3,6.5,149.8,5.9,148.4,5.9L148.4,5.9z M160.1,6c-0.9,0.4-1.8,0.9-2.7,1.4v6.3h-2.6V4h2.2l0.2,1.1c0.8-0.5,1.7-1,2.7-1.3
	L160.1,6z M170.3,10.5c0,2.2-1,3.5-3.4,3.5c-0.9,0-1.8-0.1-2.7-0.3v4l-2.6,0.4V4h2l0.2,0.8c0.9-0.7,2.1-1,3.2-1c2,0,3.1,1.2,3.1,3.4
	L170.3,10.5z M164.2,11.7c0.7,0.2,1.5,0.2,2.3,0.3c0.9,0,1.3-0.4,1.3-1.3V7.1c0-0.8-0.3-1.2-1.2-1.2c-0.8,0-1.6,0.3-2.3,0.9V11.7z"
	/>
<path class="st0" d="M0,12.8l31.9,62.1L64,12.8H0z M26.9,37.4h-5v-5.1h5V37.4z M26.9,29.8h-5v-5.1h5V29.8z M34.5,45.1h-5V40h5.1
	L34.5,45.1z M34.5,37.4h-5v-5.1h5.1L34.5,37.4z M34.5,29.8h-5v-5.1h5.1L34.5,29.8z M42.1,37.4H37v-5.1h5.1L42.1,37.4z M37,29.8v-5.1
	h5.1v5.1L37,29.8z"/>
</svg>
