<?xml version="1.0" encoding="utf-8"?>
<!-- Generator: Adobe Illustrator 27.3.1, SVG Export Plug-In . SVG Version: 6.00 Build 0)  -->
<svg version="1.1" id="v0" xmlns="http://www.w3.org/2000/svg" xmlns:xlink="http://www.w3.org/1999/xlink" x="0px" y="0px"
	 viewBox="0 0 39.9 19.9" style="enable-background:new 0 0 39.9 19.9;" xml:space="preserve">
<path d="M13.8,19.1L0,3.7h5.5l8.1,9v-9h4.1v13.9C17.8,19.7,15.2,20.7,13.8,19.1z"/>
<path d="M23.4,0h9.5c3.9,0,7,3.1,7,7v9.1H36V7c0-0.1,0-0.2,0-0.3l-9.5,9.4c0,0,0.1,0,0.1,0H36v3.7h-9.4c-3.9,0-7.1-3.2-7.1-7V3.7
	h3.9v9.1c0,0.2,0,0.3,0,0.5l9.7-9.6c-0.1,0-0.2,0-0.2,0h-9.5V0z"/>
</svg>
