<?xml version="1.0" encoding="utf-8"?>
<!-- Generator: Adobe Illustrator 16.0.3, SVG Export Plug-In . SVG Version: 6.00 Build 0)  -->
<!DOCTYPE svg PUBLIC "-//W3C//DTD SVG 1.1//EN" "http://www.w3.org/Graphics/SVG/1.1/DTD/svg11.dtd">
<svg version="1.1" id="Layer_1" xmlns="http://www.w3.org/2000/svg" xmlns:xlink="http://www.w3.org/1999/xlink" x="0px" y="0px"
	 width="109.078px" height="49.396px" viewBox="5.375 5.292 109.078 49.396" enable-background="new 5.375 5.292 109.078 49.396"
	 xml:space="preserve">
<g transform="matrix(.415849 0 0 .415849 -2.93669 37.699447)">
	<g>
		<path fill="#fff" d="M43.685,40.278h-3.966l-3.75-13.172c-0.161-0.575-0.363-1.409-0.605-2.501
			c-0.242-1.08-0.389-1.834-0.44-2.254c-0.103,0.646-0.268,1.479-0.493,2.508c-0.224,1.024-0.414,1.792-0.569,2.299l-3.66,13.12
			h-3.916l-2.852-11.061l-2.905-11.033h3.701l3.155,12.864l1.054,5.467c0.109-0.857,0.276-1.813,0.5-2.87
			c0.224-1.052,0.426-1.916,0.605-2.593L33.13,18.15h3.578l3.701,12.965c0.472,1.771,0.844,3.565,1.114,5.375
			c0.234-1.839,0.598-3.656,1.1-5.446l3.146-12.843h3.656L43.685,40.278z M67.81,40.278H55.3V18.185h12.5v3.051h-8.886v6.052h8.325
			v3.025h-8.325v6.914H67.8L67.81,40.278z M75.372,18.185h6.56c3.042,0,5.24,0.444,6.594,1.332c1.381,0.937,2.155,2.539,2.031,4.201
			c0.043,1.153-0.308,2.287-0.993,3.213c-0.716,0.888-1.742,1.465-2.871,1.618v0.148c1.321,0.155,2.541,0.766,3.458,1.728
			c0.766,0.986,1.154,2.212,1.098,3.457c0.085,1.794-0.685,3.523-2.075,4.659c-1.673,1.214-3.717,1.799-5.783,1.686h-8.02V18.185z
			 M78.985,27.316h3.457c1.146,0.087,2.293-0.162,3.301-0.719c0.755-0.582,1.154-1.515,1.054-2.463
			c0.068-0.899-0.364-1.764-1.124-2.247c-1.1-0.54-2.34-0.777-3.571-0.7h-3.129L78.985,27.316z M78.985,30.244v6.993h3.838
			c1.215,0.096,2.429-0.207,3.457-0.864c0.793-0.674,1.2-1.693,1.114-2.731c0.087-1-0.359-1.991-1.175-2.593
			c-1.079-0.641-2.326-0.942-3.578-0.864L78.985,30.244z M114.45,40.278l-2.75-7.026h-8.86l-2.723,7.026h-2.593l8.73-22.197h2.159
			l8.688,22.183L114.45,40.278z M110.897,30.946l-2.593-6.848c-0.333-0.864-0.677-1.93-1.031-3.198
			c-0.244,1.09-0.553,2.168-0.924,3.222l-2.594,6.848L110.897,30.946z"/>
		<g>
			<path id="B" fill="#fff" d="M137.253,34.401c0.08,1.771-0.712,3.469-2.118,4.546c-1.678,1.169-3.698,1.745-5.739,1.634
				c-2.065,0.101-4.13-0.242-6.049-1.01v-2.473c0.957,0.385,1.949,0.672,2.965,0.864c1.043,0.216,2.105,0.329,3.171,0.329
				c1.362,0.094,2.721-0.249,3.872-0.977c0.857-0.634,1.343-1.651,1.296-2.715c0.031-0.66-0.129-1.313-0.458-1.883
				c-0.396-0.571-0.924-1.036-1.538-1.357c-1.054-0.557-2.153-1.024-3.285-1.4c-1.66-0.488-3.175-1.378-4.408-2.593
				c-0.916-1.104-1.387-2.513-1.322-3.941c-0.055-1.585,0.66-3.1,1.919-4.063c1.47-1.066,3.26-1.602,5.075-1.512
				c2.078-0.023,4.139,0.39,6.051,1.209l-0.804,2.24c-1.677-0.735-3.485-1.125-5.316-1.151c-1.131-0.068-2.25,0.237-3.19,0.864
				c-0.76,0.571-1.2,1.482-1.15,2.431c-0.027,0.653,0.12,1.303,0.424,1.883c0.355,0.564,0.845,1.024,1.425,1.348
				c0.98,0.549,2.01,1.005,3.078,1.357c1.774,0.512,3.409,1.423,4.78,2.663c0.906,1.014,1.381,2.346,1.322,3.706V34.401z"/>
		</g>
		<g>
			<path id="B_1_" fill="#fff" d="M158.879,34.401c0.08,1.771-0.712,3.469-2.118,4.546c-1.677,1.169-3.696,1.745-5.739,1.634
				c-2.067,0.101-4.13-0.242-6.051-1.01v-2.473c0.958,0.385,1.95,0.672,2.966,0.864c1.043,0.216,2.105,0.329,3.171,0.329
				c1.362,0.094,2.722-0.249,3.872-0.977c0.857-0.634,1.343-1.651,1.296-2.715c0.031-0.66-0.129-1.313-0.458-1.883
				c-0.397-0.571-0.923-1.036-1.538-1.357c-1.054-0.557-2.153-1.024-3.285-1.4c-1.66-0.488-3.175-1.378-4.408-2.593
				c-0.916-1.104-1.387-2.513-1.322-3.941c-0.055-1.585,0.66-3.1,1.919-4.063c1.47-1.066,3.26-1.602,5.075-1.512
				c2.078-0.023,4.14,0.39,6.052,1.209l-0.805,2.24c-1.677-0.735-3.485-1.125-5.316-1.151c-1.131-0.068-2.251,0.237-3.19,0.864
				c-0.76,0.571-1.2,1.482-1.15,2.431c-0.027,0.653,0.12,1.303,0.424,1.883c0.355,0.564,0.845,1.024,1.425,1.348
				c0.98,0.549,2.01,1.005,3.079,1.357c1.773,0.512,3.407,1.423,4.779,2.663c0.906,1.014,1.381,2.346,1.322,3.706V34.401z"/>
		</g>
		<path fill="#fff" d="M180.35,40.278h-12.298V18.185h12.315v2.283h-9.75V27.6h9.154v2.266h-9.154v8.107h9.75L180.35,40.278z
			 M199.667,40.278l-7.494-19.604h-0.122c0.141,1.55,0.211,3.396,0.216,5.533V40.26H189.9V18.185h3.87l6.993,18.221h0.12
			l7.029-18.221h3.837v22.093h-2.593V26.043c0-1.63,0.07-3.403,0.216-5.317h-0.122l-7.552,19.552H199.667z M222.47,18.185h6.24
			c2.935,0,5.054,0.439,6.364,1.315c1.343,0.942,2.088,2.522,1.961,4.157c0.045,1.179-0.345,2.334-1.097,3.241
			c-0.841,0.909-1.973,1.494-3.198,1.651v0.148c3.353,0.573,5.03,2.341,5.03,5.298c0.089,1.771-0.653,3.48-2.006,4.626
			c-1.613,1.193-3.598,1.782-5.601,1.658h-7.7L222.47,18.185z M225.065,27.642h4.225c1.362,0.106,2.726-0.195,3.917-0.864
			c0.855-0.7,1.303-1.78,1.193-2.877c0.082-1.071-0.43-2.099-1.332-2.682c-1.31-0.658-2.771-0.953-4.234-0.864h-3.779
			L225.065,27.642z M225.065,29.819v8.264h4.605c1.421,0.101,2.834-0.263,4.027-1.036c0.949-0.798,1.451-2.006,1.348-3.241
			c0.087-1.179-0.434-2.32-1.381-3.025c-1.277-0.737-2.743-1.073-4.211-0.97L225.065,29.819z M247.163,40.278V18.185h2.593v19.778
			h9.75v2.325L247.163,40.278z M273.483,29.232l5.894-11.047h2.785l-7.374,13.52v8.567h-2.593v-8.447l-7.357-13.646h2.802
			L273.483,29.232z"/>
	</g>
	<path fill="#654FF0" d="M159.978-77.63v0.407c0,4.78-3.875,8.654-8.654,8.654s-8.654-3.875-8.654-8.654v-0.407h-29.063v75.476
		h75.476V-77.63H159.978z M149.628-10.232l-3.675-18.186h-0.063l-3.976,18.186h-5.064l-5.737-26.721h5l3.423,18.186h0.063
		l4.124-18.186h4.678l3.703,18.401h0.062l3.906-18.401h4.901l-6.376,26.721H149.628z M177.163-10.232l-1.705-5.948h-8.999
		l-1.299,5.948h-5l6.465-26.721h7.9l7.862,26.721H177.163z M174.23-20.563l-2.503-9.804h-2.104l-2.182,9.804H174.23z"/>
</g>
</svg>
