<?xml version="1.0" encoding="utf-8"?>
<!-- Generator: Adobe Illustrator 27.3.1, SVG Export Plug-In . SVG Version: 6.00 Build 0)  -->
<svg version="1.1" id="Logo" xmlns="http://www.w3.org/2000/svg" xmlns:xlink="http://www.w3.org/1999/xlink" x="0px" y="0px"
	 viewBox="0 0 711.2 579.6" style="enable-background:new 0 0 711.2 579.6;" xml:space="preserve">
<style type="text/css">
	.st0{fill-rule:evenodd;clip-rule:evenodd;fill:#0086E8;stroke:#0086E8;stroke-linejoin:round;}
	.st1{fill-rule:evenodd;clip-rule:evenodd;fill:#0093FF;stroke:#0093FF;stroke-linejoin:round;}
	.st2{fill-rule:evenodd;clip-rule:evenodd;fill:#0076CC;stroke:#0076CC;stroke-linejoin:round;}
	.st3{fill-rule:evenodd;clip-rule:evenodd;fill:#0066B0;stroke:#0066B0;stroke-linejoin:round;}
	.st4{fill-rule:evenodd;clip-rule:evenodd;fill:#005A9C;stroke:#005A9C;stroke-linejoin:round;}
	.st5{fill-rule:evenodd;clip-rule:evenodd;fill:#EEEEEE;}
</style>
<path id="Triangle_4" class="st0" d="M602.4,209l-60.2-104.2h120.5L602.4,209z"/>
<path id="Triangle_5" class="st1" d="M602.4,0.5l-60.2,104.3h120.5L602.4,0.5z"/>
<path id="Triangle_3" class="st2" d="M482,417.5L361.6,209l240.8,0L482,417.5z"/>
<path id="Triangle_2" class="st3" d="M482,0.5L361.6,209l240.8,0L482,0.5z"/>
<path id="Triangle_1" class="st4" d="M241.3,417.5L0.5,0.5H482L241.3,417.5z"/>
<path id="WebGPU" class="st5" d="M144.4,461l-25.7,98.9L91.8,461H74.7l-28.2,99.3L20.9,461H4.6l32.8,117.3l17-0.2l28.2-94.2
	l27.2,94.2h17.1L160.8,461L144.4,461L144.4,461z M261.6,528.5c0.1-7.9-1.8-15.6-5.5-22.6c-3.6-6.6-9-12.1-15.5-15.7
	c-7.1-3.9-15.1-5.9-23.2-5.7c-8.3-0.2-16.5,1.8-23.8,5.8c-6.9,3.8-12.4,9.6-16,16.5c-3.8,7.2-5.7,15.5-5.7,25s2,17.9,5.9,25.1
	c3.7,7,9.3,12.8,16.2,16.7c7.2,4,15.2,6,23.4,5.9c11,0,20.2-2.8,27.5-8.3c7.2-5.3,12.4-12.9,14.8-21.6h-16.5c-1.7,5-5,9.3-9.3,12.3
	c-4.4,3.1-9.9,4.6-16.5,4.6c-7.6,0.2-15-2.6-20.6-7.6c-5.7-5.1-8.8-12.2-9.3-21.2h73.6C261.5,534.7,261.6,531.6,261.6,528.5
	L261.6,528.5L261.6,528.5z M245.8,525.3h-58.1c0.8-8.7,3.9-15.6,9.3-20.5c5.4-4.9,12.5-7.6,19.7-7.4c5.1-0.1,10.1,1.1,14.7,3.3
	c4.3,2.1,8,5.4,10.5,9.6C244.7,514.8,246,520,245.8,525.3L245.8,525.3L245.8,525.3z M297.1,503.1v-49.4h-15.3v124.3h15.3v-17
	c3.2,5.6,7.9,10.2,13.5,13.3c6.4,3.6,13.6,5.4,20.9,5.2c16,0.2,30.8-8.7,38-23c3.9-7.7,5.9-16.2,5.7-24.9c0-9.4-1.9-17.7-5.7-24.8
	c-3.6-6.9-9-12.6-15.6-16.5c-6.8-4-14.5-6-22.3-5.9c-7.2-0.1-14.4,1.7-20.7,5.2C305.1,492.8,300.4,497.5,297.1,503.1L297.1,503.1
	L297.1,503.1z M359.6,531.7c0.2,6.4-1.3,12.7-4.2,18.4c-2.6,5-6.5,9.1-11.3,11.9c-4.8,2.7-10.2,4.2-15.7,4.1
	c-5.5,0-10.8-1.4-15.5-4.1c-4.8-2.8-8.8-7-11.4-11.9c-5.7-11.4-5.7-24.9,0-36.3c2.6-5,6.6-9.1,11.4-11.9c4.7-2.7,10.1-4.2,15.5-4.1
	c5.5-0.1,10.9,1.3,15.7,4c4.8,2.8,8.8,6.8,11.3,11.8C358.3,519.1,359.7,525.4,359.6,531.7L359.6,531.7L359.6,531.7z M502.4,494.9
	c-4-10.7-11.3-19.8-20.9-26c-9.6-6.2-20.6-9.2-33-9.2c-10.4-0.1-20.7,2.5-29.7,7.6c-8.9,5-16.2,12.4-21.2,21.3
	c-10.4,19.2-10.4,42.4,0,61.6c5,8.9,12.4,16.2,21.2,21.2c9.1,5.1,19.3,7.8,29.7,7.6c9.8,0.1,19.5-2.3,28.1-7
	c8.3-4.5,15.3-11,20.3-19c5.1-7.9,8.2-17,9.1-26.5v-11.8h-63v12.4h46.7c-1.2,11.7-5.5,20.9-12.9,27.7s-16.8,10.2-28.2,10.2
	c-7.7,0.1-15.4-1.8-22.1-5.6c-6.6-3.8-11.9-9.3-15.5-16c-3.8-6.9-5.6-15-5.6-24.2c0-9.2,1.9-17.3,5.6-24.3
	c3.5-6.7,8.9-12.3,15.5-16.1c6.7-3.8,14.4-5.7,22.1-5.6c7.6-0.2,15,1.8,21.5,5.6c6.2,3.8,11.1,9.3,14.1,15.9H502.4z M604.3,495.2
	c0-10.1-3.4-18.3-10.3-24.7s-16.9-9.6-30.2-9.6H526v117.1h15.3v-48.9h22.5c13.7,0,23.8-3.2,30.5-9.7S604.3,505,604.3,495.2
	L604.3,495.2L604.3,495.2z M563.8,516.6h-22.5v-43h22.5c16.6,0,24.9,7.2,24.9,21.7c0,6.8-2,12.1-6,15.8
	C578.6,514.7,572.4,516.6,563.8,516.6L563.8,516.6L563.8,516.6z M623,461v73.9c0,9.7,1.9,17.9,5.8,24.6c3.6,6.4,9.1,11.6,15.8,14.9
	c14.2,6.5,30.6,6.5,44.9,0c6.7-3.2,12.2-8.4,15.9-14.9c3.9-6.7,5.9-14.9,5.9-24.6V461h-15.3V535c0,10.4-2.5,18.1-7.6,23.2
	c-5.1,5-12.1,7.6-21.1,7.6c-9.1,0-16.2-2.5-21.2-7.6c-5.1-5-7.6-12.8-7.6-23.2V461L623,461L623,461z"/>
</svg>
