<?xml version="1.0" encoding="utf-8"?>
<!-- Generator: Adobe Illustrator 27.3.1, SVG Export Plug-In . SVG Version: 6.00 Build 0)  -->
<svg version="1.1" id="Layer_1" xmlns="http://www.w3.org/2000/svg" xmlns:xlink="http://www.w3.org/1999/xlink" x="0px" y="0px"
	 viewBox="0 0 105.8 29.2" style="enable-background:new 0 0 105.8 29.2;" xml:space="preserve">
<style type="text/css">
	.st0{fill:#0052FF;}
</style>
<path class="st0" d="M54.8,0c-5.9,0.1-9.2,3.5-10.9,6.9c-1.5,2.9-1.9,5.4-1.9,6.1H0.2v1.2h42.2c0.3,0,0.5-0.2,0.6-0.5
	c0,0,0.3-3.1,1.9-6.2c1.5-2.9,4.1-5.7,8.9-6.2C50.8,7.1,54,13.9,54,13.9c0.1,0.2,0.3,0.3,0.5,0.3h51.3v-1.2H55
	c-0.4-0.9-2.9-7.1,0.3-12.2c0.2-0.3,0.1-0.6-0.2-0.8C55,0,54.9,0,54.8,0L54.8,0z M3.1,29L0,16h1.6l1.8,8.5c0.2,0.9,0.4,1.8,0.5,2.7
	l0.5-2.4L6.6,16h1.9l1.7,6.6c0.4,1.6,0.7,3.2,0.9,4.6c0.1-0.8,0.3-1.8,0.6-2.8l1.8-8.4H15l-3.2,13h-1.5l-2.5-9.9l-0.4-1.5
	c-0.1,0.6-0.2,1.1-0.3,1.5L4.7,29H3.1z M16.7,29V16h1.5v13H16.7z M21,29V16h5.2c1,0,1.9,0.1,2.4,0.4c0.5,0.2,1,0.6,1.3,1.2
	c0.3,0.6,0.5,1.2,0.5,2c0,0.9-0.3,1.7-0.8,2.3c-0.5,0.6-1.4,1-2.5,1.2c0.4,0.2,0.7,0.4,0.9,0.6c0.5,0.5,0.9,1,1.3,1.7l2,3.5h-1.9
	l-1.5-2.7c-0.4-0.8-0.8-1.4-1.1-1.8c-0.3-0.4-0.5-0.7-0.8-0.9c-0.2-0.2-0.5-0.3-0.7-0.3c-0.2,0-0.5-0.1-0.9-0.1h-1.8V29H21z
	 M22.5,21.7h3.3c0.7,0,1.3-0.1,1.7-0.3c0.4-0.2,0.7-0.4,0.9-0.8c0.2-0.4,0.3-0.8,0.3-1.2c0-0.6-0.2-1.1-0.6-1.5s-1-0.6-1.9-0.6h-3.7
	L22.5,21.7z M32.8,29V16h8.4v1.5h-6.9v4h6.4V23h-6.4v4.4h7.2V29H32.8z M43,24.7l2.3-0.2c0.2,0.9,0.4,1.5,0.9,1.9
	c0.4,0.4,1,0.6,1.7,0.6c0.8,0,1.3-0.2,1.7-0.5c0.4-0.4,0.5-0.8,0.5-1.3c0-0.3-0.1-0.6-0.2-0.8c-0.2-0.2-0.5-0.4-0.9-0.6
	c-0.3-0.1-0.9-0.3-1.9-0.6c-1.3-0.4-2.2-0.8-2.7-1.3c-0.7-0.7-1.1-1.6-1.1-2.6c0-0.7,0.2-1.3,0.5-1.9c0.3-0.6,0.8-1,1.5-1.3
	s1.4-0.5,2.3-0.5c1.5,0,2.6,0.4,3.3,1.1c0.7,0.7,1.1,1.7,1.2,2.9l-2.4,0.1c-0.1-0.7-0.3-1.1-0.6-1.4c-0.3-0.3-0.8-0.4-1.5-0.4
	s-1.2,0.2-1.6,0.5c-0.3,0.2-0.4,0.5-0.4,0.8c0,0.3,0.1,0.6,0.3,0.8c0.3,0.3,1,0.6,2.2,0.9c1.2,0.3,2,0.6,2.6,0.9
	c0.5,0.3,1,0.8,1.3,1.3c0.3,0.6,0.5,1.2,0.5,2.1c0,0.7-0.2,1.4-0.6,2.1c-0.4,0.6-0.9,1.1-1.6,1.4c-0.7,0.4-1.5,0.5-2.6,0.5
	c-1.5,0-2.6-0.4-3.4-1.1C43.6,27.3,43.1,26.2,43,24.7z M54.5,29V16h2.4v5.1h4.6V16h2.4v13h-2.4v-5.7h-4.6V29H54.5z M76.8,29h-2.6
	l-1-2.9h-4.6l-1,2.9h-2.5l4.5-13h2.5L76.8,29z M72.5,23.8L70.8,19l-1.6,4.8H72.5z M78,29V16h5c1.3,0,2.2,0.1,2.7,0.4
	c0.5,0.2,1,0.6,1.3,1.2c0.3,0.6,0.5,1.3,0.5,2c0,1-0.3,1.8-0.8,2.4c-0.5,0.6-1.3,1-2.3,1.2c0.5,0.3,0.9,0.7,1.3,1.1
	c0.3,0.4,0.8,1.1,1.3,2.1l1.4,2.5h-2.8L84,26.1c-0.6-1-1-1.6-1.2-1.9c-0.2-0.2-0.5-0.4-0.7-0.5c-0.2-0.1-0.6-0.1-1.2-0.1h-0.5V29H78
	z M80.4,21.5h1.7c1.2,0,1.8-0.1,2.1-0.2c0.3-0.1,0.5-0.3,0.6-0.6c0.2-0.3,0.3-0.6,0.3-1c0-0.4-0.1-0.8-0.3-1.1
	c-0.2-0.3-0.5-0.4-0.9-0.5c-0.2,0-0.8,0-1.7,0h-1.9L80.4,21.5z M89.9,29V16h2.3v5.8L97,16h3.2L95.8,21l4.6,7.9h-3.1l-3.2-6.1
	L92.2,25V29H89.9z"/>
</svg>
