<?xml version="1.0" encoding="utf-8"?>
<!-- Generator: Adobe Illustrator 16.0.3, SVG Export Plug-In . SVG Version: 6.00 Build 0)  -->
<!DOCTYPE svg PUBLIC "-//W3C//DTD SVG 1.1//EN" "http://www.w3.org/Graphics/SVG/1.1/DTD/svg11.dtd">
<svg version="1.1"
	 id="svg4390" xmlns:dc="http://purl.org/dc/elements/1.1/" xmlns:cc="http://creativecommons.org/ns#" xmlns:rdf="http://www.w3.org/1999/02/22-rdf-syntax-ns#" xmlns:svg="http://www.w3.org/2000/svg" xmlns:sodipodi="http://sodipodi.sourceforge.net/DTD/sodipodi-0.dtd" xmlns:inkscape="http://www.inkscape.org/namespaces/inkscape"
	 xmlns="http://www.w3.org/2000/svg" xmlns:xlink="http://www.w3.org/1999/xlink" x="0px" y="0px" width="396.587px"
	 height="120.088px" viewBox="36.522 40.355 396.587 120.088" enable-background="new 36.522 40.355 396.587 120.088"
	 xml:space="preserve">
<filter  inkscape:label="Drop Shadow" style="color-interpolation-filters:sRGB" id="filter5529">
	<feFlood  result="flood" flood-color="rgb(0,0,0)" flood-opacity="0.498039" id="feFlood5519"></feFlood>
	<feComposite  operator="in" in2="SourceGraphic" in="flood" result="composite1" id="feComposite5521"></feComposite>
	<feGaussianBlur  in="composite1" stdDeviation="0.2" result="blur" id="feGaussianBlur5523"></feGaussianBlur>
	<feOffset  dy="1" dx="1" result="offset" id="feOffset5525"></feOffset>
	<feComposite  operator="over" in2="offset" in="SourceGraphic" result="composite2" id="feComposite5527"></feComposite>
</filter>
<sodipodi:namedview  fit-margin-left="10" fit-margin-top="10" objecttolerance="20" showgrid="false" inkscape:cy="151.96925" inkscape:cx="51.001529" inkscape:zoom="2.8" borderopacity="1.0" bordercolor="#666666" pagecolor="#ffffff" id="base" fit-margin-bottom="10" fit-margin-right="10" inkscape:snap-object-midpoints="true" inkscape:pagecheckerboard="true" inkscape:snap-text-baseline="true" inkscape:window-width="3840" inkscape:window-maximized="1" inkscape:pageshadow="2" inkscape:window-y="0" inkscape:pageopacity="0" inkscape:document-rotation="0" inkscape:current-layer="layer1" inkscape:window-x="0" inkscape:window-height="2056" inkscape:document-units="mm">
	</sodipodi:namedview>
<g id="layer2" transform="translate(-27.262614,-96.950894)" inkscape:label="Layer 2" inkscape:groupmode="layer">
	<g id="g5073" inkscape:export-ydpi="49.963245" inkscape:export-xdpi="49.963245" filter="url(#filter5529)">
		
			<path id="path4883_1_" sodipodi:type="star" sodipodi:sides="6" sodipodi:cx="60.563801" sodipodi:cy="146.29434" sodipodi:r1="8.3519926" sodipodi:r2="6.0473599" sodipodi:arg1="1.0530778" sodipodi:arg2="1.5766766" inkscape:flatsided="true" inkscape:rounded="0" inkscape:randomized="0" inkscape:transform-center-x="3.3564472e-06" fill="#FFFFFF" d="
			M133.376,257.394l-23.674-0.14l-11.717-20.572l11.958-20.433l23.675,0.14l11.717,20.572L133.376,257.394z"/>
		
			<path id="path4883-4_1_" sodipodi:type="star" sodipodi:sides="6" sodipodi:cx="48.498745" sodipodi:cy="139.29562" sodipodi:r1="8.3519926" sodipodi:r2="6.0473604" sodipodi:arg1="1.0530778" sodipodi:arg2="1.5766766" inkscape:flatsided="true" inkscape:rounded="0" inkscape:randomized="0" inkscape:transform-center-x="3.3564472e-06" fill="#FFFFFF" d="
			M99.176,237.555l-23.674-0.139l-11.717-20.572l11.958-20.434l23.675,0.139l11.717,20.572L99.176,237.555z"/>
		
			<path id="path4883-4-2_1_" sodipodi:type="star" sodipodi:sides="6" sodipodi:cx="60.637871" sodipodi:cy="132.33142" sodipodi:r1="8.3519926" sodipodi:r2="6.0473609" sodipodi:arg1="1.0530778" sodipodi:arg2="1.5766766" inkscape:flatsided="true" inkscape:rounded="0" inkscape:randomized="0" inkscape:transform-center-x="3.3564472e-06" fill="#FFFFFF" d="
			M133.586,217.815l-23.674-0.14l-11.717-20.573l11.958-20.433l23.675,0.139l11.717,20.573L133.586,217.815z"/>
		
			<path id="path4883-4-2-0_1_" sodipodi:type="star" sodipodi:sides="6" sodipodi:cx="60.632095" sodipodi:cy="118.44481" sodipodi:r1="8.3519926" sodipodi:r2="6.0473609" sodipodi:arg1="1.0530778" sodipodi:arg2="1.5766766" inkscape:flatsided="true" inkscape:rounded="0" inkscape:randomized="0" inkscape:transform-center-x="3.3564472e-06" fill="#FFFFFF" d="
			M133.57,178.451l-23.674-0.139l-11.717-20.572l11.958-20.433l23.674,0.139l11.717,20.572L133.57,178.451z"/>
		
			<path id="path4883-4-2-0-0_1_" sodipodi:type="star" sodipodi:sides="6" sodipodi:cx="48.562645" sodipodi:cy="125.41864" sodipodi:r1="8.3519926" sodipodi:r2="6.0473609" sodipodi:arg1="1.0530778" sodipodi:arg2="1.5766766" inkscape:flatsided="true" inkscape:rounded="0" inkscape:randomized="0" inkscape:transform-center-x="3.3564472e-06" fill="#FFFFFF" d="
			M99.357,198.219l-23.674-0.14l-11.717-20.572l11.958-20.433l23.675,0.139l11.717,20.572L99.357,198.219z"/>
	</g>
</g>
<g id="layer1" transform="translate(-27.262614,-96.950894)" inkscape:label="Layer 1" inkscape:groupmode="layer">
	
		<path id="path5019-02-9" sodipodi:type="star" sodipodi:sides="6" sodipodi:cx="1782.9229" sodipodi:cy="566.77936" sodipodi:r1="98.982559" sodipodi:r2="49.49128" sodipodi:arg1="0.83798123" sodipodi:arg2="1.36158" inkscape:export-ydpi="49.963245" inkscape:export-xdpi="49.963245" inkscape:flatsided="true" inkscape:rounded="0" inkscape:randomized="0" fill="#C12766" d="
		M132.155,215.186l-20.682-0.064l-10.286-17.944l10.396-17.879l20.683,0.064l10.285,17.943L132.155,215.186z"/>
	
		<path id="path5019-0-5-1" sodipodi:type="star" sodipodi:sides="6" sodipodi:cx="1782.9229" sodipodi:cy="566.77936" sodipodi:r1="98.982559" sodipodi:r2="49.49128" sodipodi:arg1="0.83798123" sodipodi:arg2="1.36158" inkscape:export-ydpi="49.963245" inkscape:export-xdpi="49.963245" inkscape:flatsided="true" inkscape:rounded="0" inkscape:randomized="0" fill="#3E489F" d="
		M97.745,234.926l-20.682-0.064l-10.286-17.943l10.396-17.879l20.683,0.064l10.285,17.943L97.745,234.926z"/>
	
		<path id="path5019-4-1-2" sodipodi:type="star" sodipodi:sides="6" sodipodi:cx="1782.9229" sodipodi:cy="566.77936" sodipodi:r1="98.982559" sodipodi:r2="49.49128" sodipodi:arg1="0.83798123" sodipodi:arg2="1.36158" inkscape:transform-center-y="-96.786465" inkscape:export-ydpi="49.963245" inkscape:export-xdpi="49.963245" inkscape:flatsided="true" inkscape:rounded="0" inkscape:randomized="0" inkscape:transform-center-x="198.10335" fill="#714099" d="
		M131.941,254.764l-20.682-0.064l-10.286-17.943l10.396-17.879l20.683,0.064l10.285,17.943L131.941,254.764z"/>
	
		<path id="path5019-0-4-9-8" sodipodi:type="star" sodipodi:sides="6" sodipodi:cx="1782.9229" sodipodi:cy="566.77936" sodipodi:r1="98.982559" sodipodi:r2="49.49128" sodipodi:arg1="0.83798123" sodipodi:arg2="1.36158" inkscape:export-ydpi="49.963245" inkscape:export-xdpi="49.963245" inkscape:flatsided="true" inkscape:rounded="0" inkscape:randomized="0" fill="#78932C" d="
		M97.926,195.591l-20.682-0.064l-10.286-17.943l10.396-17.879l20.683,0.064l10.286,17.943L97.926,195.591z"/>
	
		<path id="path5019-0-0-7-9" sodipodi:type="star" sodipodi:sides="6" sodipodi:cx="1782.9229" sodipodi:cy="566.77936" sodipodi:r1="98.982559" sodipodi:r2="49.49128" sodipodi:arg1="0.83798123" sodipodi:arg2="1.36158" inkscape:export-ydpi="49.963245" inkscape:export-xdpi="49.963245" inkscape:flatsided="true" inkscape:rounded="0" inkscape:randomized="0" fill="#CF242A" d="
		M132.139,175.822l-20.682-0.064l-10.286-17.944l10.397-17.879l20.682,0.064l10.286,17.943L132.139,175.822z"/>
	
		<circle id="path5553-7" inkscape:export-ydpi="49.963245" inkscape:export-xdpi="49.963245" fill="#FFFFFF" cx="121.66" cy="236.822" r="4.536">
	</circle>
	
		<path id="path5592" inkscape:connector-type="polyline" inkscape:connector-curvature="0" inkscape:export-ydpi="49.963245" inkscape:export-xdpi="49.963245" fill="none" stroke="#FFFFFF" stroke-width="0.5238" d="
		M125.016,155.797l-40.441,23.17"/>
	
		<path id="path5592-7" inkscape:connector-type="polyline" inkscape:connector-curvature="0" inkscape:export-ydpi="49.963245" inkscape:export-xdpi="49.963245" fill="none" stroke="#FFFFFF" stroke-width="0.5238" d="
		M87.502,174.183l0.136,46.608"/>
	
		<path id="path5592-7-1" inkscape:connector-type="polyline" inkscape:connector-curvature="0" inkscape:export-ydpi="49.963245" inkscape:export-xdpi="49.963245" fill="none" stroke="#FFFFFF" stroke-width="0.5238" d="
		M84.698,215.337l40.072,23.804"/>
	
		<path id="path5592-7-7" inkscape:connector-type="polyline" inkscape:connector-curvature="0" inkscape:export-ydpi="49.963245" inkscape:export-xdpi="49.963245" fill="none" stroke="#FFFFFF" stroke-width="0.5238" d="
		M121.734,154.158l0.136,46.608"/>
	
		<path id="path5592-7-4" inkscape:connector-type="polyline" inkscape:connector-curvature="0" inkscape:export-ydpi="49.963245" inkscape:export-xdpi="49.963245" fill="none" stroke="#FFFFFF" stroke-width="0.5238" d="
		M121.925,193.731l0.137,46.608"/>
	
		<path id="path5592-5" inkscape:connector-type="polyline" inkscape:connector-curvature="0" inkscape:export-ydpi="49.963245" inkscape:export-xdpi="49.963245" fill="none" stroke="#FFFFFF" stroke-width="0.5238" d="
		M125.066,195.475l-40.441,23.17"/>
	
		<path id="path5592-7-1-3" inkscape:connector-type="polyline" inkscape:connector-curvature="0" inkscape:export-ydpi="49.963245" inkscape:export-xdpi="49.963245" fill="none" stroke="#FFFFFF" stroke-width="0.5238" d="
		M84.809,176.009l40.072,23.804"/>
	<g enable-background="new    ">
		<path d="M192.07,216.463h-8.109l-3.224-8.386h-14.758l-3.047,8.386h-7.908l14.38-36.92h7.882L192.07,216.463z M178.345,201.856
			l-5.087-13.701l-4.986,13.701H178.345z"/>
		<path d="M219.647,202.888l7.228,2.292c-1.108,4.029-2.951,7.021-5.528,8.979c-2.578,1.955-5.847,2.934-9.809,2.934
			c-4.903,0-8.932-1.675-12.088-5.024c-3.157-3.35-4.735-7.929-4.735-13.738c0-6.145,1.586-10.917,4.76-14.317s7.345-5.1,12.517-5.1
			c4.516,0,8.185,1.335,11.005,4.004c1.679,1.579,2.938,3.845,3.778,6.8l-7.379,1.763c-0.437-1.914-1.348-3.425-2.732-4.533
			c-1.385-1.108-3.069-1.662-5.05-1.662c-2.737,0-4.957,0.982-6.661,2.947s-2.556,5.146-2.556,9.545
			c0,4.668,0.839,7.992,2.519,9.973c1.679,1.981,3.861,2.972,6.548,2.972c1.981,0,3.685-0.63,5.112-1.889
			C218.001,207.573,219.026,205.592,219.647,202.888z"/>
		<path d="M241.583,216.463v-30.674h-10.956v-6.246h29.34v6.246h-10.93v30.674H241.583z"/>
		<path d="M264.55,216.463v-36.92h7.455v36.92H264.55z"/>
		<path d="M288.526,216.463l-13.196-36.92h8.084l9.344,27.325l9.041-27.325h7.907l-13.222,36.92H288.526z"/>
		<path d="M313.509,216.463v-36.92h27.375v6.246h-19.921v8.185h18.534v6.221h-18.534v10.048h20.626v6.221H313.509z"/>
	</g>
	<g enable-background="new    ">
		<path d="M162.479,172.213l5.838-15.202h2.167l6.222,15.202h-2.292l-1.773-4.604h-6.357l-1.669,4.604H162.479z M166.866,165.97
			h5.154l-1.587-4.21c-0.484-1.279-0.843-2.33-1.078-3.152c-0.194,0.975-0.467,1.942-0.819,2.903L166.866,165.97z"/>
		<path d="M178.314,172.213V157.01h5.734c1.009,0,1.78,0.048,2.313,0.145c0.747,0.125,1.372,0.361,1.877,0.71
			c0.504,0.349,0.911,0.838,1.218,1.467c0.308,0.629,0.461,1.321,0.461,2.074c0,1.292-0.411,2.387-1.234,3.282
			c-0.823,0.896-2.309,1.343-4.459,1.343h-3.899v6.181H178.314z M180.326,164.238h3.93c1.299,0,2.222-0.242,2.769-0.726
			c0.546-0.484,0.819-1.165,0.819-2.043c0-0.636-0.161-1.18-0.482-1.633c-0.321-0.453-0.745-0.752-1.27-0.897
			c-0.339-0.09-0.965-0.135-1.877-0.135h-3.889V164.238z"/>
		<path d="M189.234,172.213l5.838-15.202h2.167l6.222,15.202h-2.292l-1.773-4.604h-6.357l-1.669,4.604H189.234z M193.621,165.97
			h5.154l-1.587-4.21c-0.484-1.279-0.843-2.33-1.078-3.152c-0.194,0.975-0.467,1.942-0.819,2.903L193.621,165.97z"/>
		<path d="M215.915,166.883l2.012,0.508c-0.422,1.652-1.181,2.912-2.276,3.78s-2.435,1.301-4.018,1.301
			c-1.639,0-2.971-0.333-3.998-1c-1.027-0.667-1.808-1.633-2.344-2.898s-0.804-2.624-0.804-4.076c0-1.583,0.302-2.964,0.907-4.143
			s1.466-2.074,2.583-2.686c1.116-0.612,2.345-0.918,3.687-0.918c1.521,0,2.8,0.387,3.836,1.162
			c1.037,0.774,1.759,1.863,2.167,3.266l-1.98,0.467c-0.353-1.106-0.864-1.912-1.535-2.416c-0.67-0.505-1.514-0.757-2.53-0.757
			c-1.168,0-2.145,0.28-2.93,0.84c-0.785,0.56-1.336,1.312-1.654,2.255c-0.318,0.943-0.477,1.917-0.477,2.919
			c0,1.293,0.188,2.421,0.565,3.386s0.963,1.685,1.758,2.162s1.656,0.716,2.582,0.716c1.127,0,2.081-0.325,2.862-0.975
			C215.11,169.126,215.639,168.161,215.915,166.883z"/>
		<path d="M220.468,172.213V157.01h2.012v6.243h7.902v-6.243h2.012v15.202h-2.012v-7.166h-7.902v7.166H220.468z"/>
		<path d="M235.784,172.213V157.01h10.992v1.794h-8.98v4.656h8.41v1.783h-8.41v5.175h9.333v1.794H235.784z"/>
	</g>
	<g enable-background="new    ">
		<path fill="#C12766" d="M365.335,216.463v-36.92h11.158l6.697,25.185l6.625-25.185h11.182v36.92h-6.926V187.4l-7.328,29.063
			h-7.178l-7.305-29.063v29.063H365.335z"/>
		<path fill="#C12766" d="M438.119,211.778c1.83,1.311,3.818,2.352,5.969,3.123l-2.746,5.264c-1.125-0.336-2.225-0.798-3.299-1.385
			c-0.234-0.118-1.889-1.209-4.961-3.274c-2.418,1.058-5.096,1.587-8.033,1.587c-5.676,0-10.121-1.671-13.336-5.012
			s-4.822-8.034-4.822-14.078c0-6.027,1.611-10.716,4.836-14.065c3.223-3.35,7.596-5.024,13.119-5.024
			c5.475,0,9.814,1.675,13.021,5.024s4.811,8.038,4.811,14.065c0,3.189-0.445,5.994-1.336,8.412
			C440.669,208.261,439.595,210.05,438.119,211.778z M432.124,207.573c0.957-1.125,1.674-2.484,2.152-4.08s0.719-3.426,0.719-5.49
			c0-4.265-0.941-7.45-2.82-9.558c-1.881-2.106-4.342-3.161-7.379-3.161c-3.039,0-5.504,1.058-7.393,3.173
			c-1.889,2.116-2.832,5.297-2.832,9.545c0,4.314,0.943,7.543,2.832,9.684s4.277,3.211,7.166,3.211c1.074,0,2.09-0.177,3.047-0.529
			c-1.512-0.99-3.047-1.763-4.609-2.316l2.09-4.256C427.548,204.634,429.892,205.893,432.124,207.573z"/>
	</g>
	<text transform="matrix(1 0 0 1 451.517 181.9782)" font-family="'ArialMT'" font-size="12">®</text>
	
		<circle id="path5553-7-1" inkscape:export-ydpi="49.963245" inkscape:export-xdpi="49.963245" fill="#FFFFFF" cx="86.992" cy="216.832" r="4.536">
	</circle>
	
		<circle id="path5553-7-3" inkscape:export-ydpi="49.963245" inkscape:export-xdpi="49.963245" fill="#FFFFFF" cx="122.617" cy="197.68" r="4.537">
	</circle>
	
		<circle id="path5553-7-0" inkscape:export-ydpi="49.963245" inkscape:export-xdpi="49.963245" fill="#FFFFFF" cx="87.641" cy="177.647" r="4.536">
	</circle>
	
		<circle id="path5553-7-39" inkscape:export-ydpi="49.963245" inkscape:export-xdpi="49.963245" fill="#FFFFFF" cx="121.853" cy="157.878" r="4.536">
	</circle>
</g>
</svg>
