<svg fill="none" height="78" viewBox="0 0 211 78" width="211" xmlns="http://www.w3.org/2000/svg" xmlns:xlink="http://www.w3.org/1999/xlink"><linearGradient id="a" gradientUnits="userSpaceOnUse" x1="33.9988" x2="72.2325" y1="11.6464" y2="75.4472"><stop offset="0" stop-color="#16a34a"/><stop offset=".218" stop-color="#22c55e"/><stop offset=".5304" stop-color="#22c55e"/><stop offset=".8019" stop-color="#4ade80"/><stop offset="1" stop-color="#4ade80"/></linearGradient><linearGradient id="b" gradientUnits="userSpaceOnUse" x1="28.2767" x2="44.8616" y1="1.22239" y2="64.8149"><stop offset="0" stop-color="#4ade80"/><stop offset=".4911" stop-color="#4ade80"/><stop offset=".8259" stop-color="#86efac"/><stop offset="1" stop-color="#86efac"/></linearGradient><linearGradient id="c" gradientUnits="userSpaceOnUse" x1="4.70878" x2="61.2485" y1="61.6337" y2="47.3179"><stop offset="0" stop-color="#4ade80"/><stop offset=".2803" stop-color="#4ade80"/><stop offset=".4913" stop-color="#22c55e"/><stop offset=".6796" stop-color="#22c55e"/><stop offset="1" stop-color="#16a34a"/></linearGradient><path d="m76.0002 37.9998v28.5778c0 5.1991-4.2146 9.4222-9.4223 9.4222-3.7913 0-6.9523-2.6859-7.6863-6.2527-.1037-.5182-.1641-1.0536-.1641-1.5977v-30.1496c0-1.2004-.1037-2.3836-.3023-3.5409-.7168-4.1886-2.7032-8.0491-5.7691-11.115-3.9123-3.9122-9.12-6.0713-14.6559-6.0713s-10.7436 2.1591-14.6559 6.0713c-3.0659 3.0659-5.0523 6.9264-5.7691 11.115 1.3904-11.5986 9.5604-21.1072 20.425-24.47543 2.7464-.84636 5.6568-1.30409 8.6795-1.30409 16.1328 0 29.2255 13.03232 29.3205 29.14772v.0864z" fill="url(#a)"/><path d="m76 37.8273c-.095-16.1155-13.1877-29.14776-29.3205-29.14776-3.0227 0-5.9331.45773-8.6795 1.3041-10.8645 3.36816-19.0345 12.87686-20.425 24.47546-.1986 1.1573-.3023 2.3404-.3023 3.5409s.1037 2.3836.3023 3.5409c.7168 4.1886 2.7032 8.0491 5.7691 11.115 3.9123 3.9123 9.12 6.0714 14.6559 6.0714s10.7436-2.1591 14.6559-6.0714c3.0659-3.0659 5.0523-6.9264 5.7691-11.115-1.3905 11.5986-9.5605 21.1073-20.425 24.4755-2.7464.8463-5.6568 1.304-8.6795 1.304-16.1932 0-29.3205-13.1272-29.3205-29.3204 0-5.13 1.01045-10.1045 2.98818-14.7941 1.91727-4.5254 4.655-8.5932 8.13542-12.0736 3.4891-3.48912 7.5482-6.22685 12.0737-8.13548 4.6982-1.98637 9.6727-2.99682 14.8027-2.99682s10.1045 1.01045 14.7941 2.98818c4.5254 1.91727 8.5932 4.655 12.0736 8.13542 3.4891 3.4891 6.2268 7.5482 8.1355 12.0737 1.9691 4.6463 2.9709 9.5604 2.9968 14.63z" fill="url(#b)"/><path d="m58.8914 69.7471c-1.9173 1.2696-3.9555 2.3578-6.0973 3.2646-4.6896 1.9777-9.6641 2.9882-14.7941 2.9882s-10.1045-1.0105-14.7941-2.9882c-4.5254-1.9173-8.5932-4.655-12.0736-8.1355-3.48912-3.489-6.22685-7.5481-8.13548-12.0736-1.98637-4.6982-2.99682-9.6727-2.99682-14.8027 0 16.1932 13.1273 29.3204 29.3205 29.3204 3.0227 0 5.9331-.4577 8.6795-1.3041 10.8645-3.3681 19.0345-12.8768 20.425-24.4754.1986-1.1573.3023-2.3405.3023-3.5409v30.1495c0 .5441.0604 1.0796.1641 1.5977z" fill="url(#c)"/><path d="m91.8291 32.3001h3.762l1.9836-5.472h10.5683l1.983 5.472h3.762l-8.892-23.93999h-4.275zm6.9084-8.721 4.0355-11.115h.171l4.036 11.115z" fill="#22c55e"/><path d="m114.678 32.3001h3.249v-23.93999h-3.249z" fill="#22c55e"/><path d="m121.302 32.3001h3.249v-23.93999h-3.249z" fill="#22c55e"/><path d="m134.424 32.6421c1.984 0 3.967-.8208 5.13-2.736h.171l.513 2.394h2.565v-18.126h-3.249v10.944c0 2.394-1.881 4.446-4.446 4.446-2.394 0-4.104-1.539-4.104-4.446v-10.944h-3.249v11.115c0 4.446 2.736 7.353 6.669 7.353z" fill="#22c55e"/><path d="m145.835 32.3001h3.249v-10.602c0-2.565 1.881-4.446 4.788-4.446h1.881v-3.078h-2.052c-2.052 0-3.591.684-4.617 2.394h-.171l-.513-2.394h-2.565z" fill="#22c55e"/><path d="m164.095 32.6421c3.933 0 6.669-2.223 7.866-5.301h-3.591c-1.026 1.539-2.394 2.223-4.275 2.223-2.907 0-4.959-1.881-5.164-5.301h13.201s.171-.855.171-1.881c0-4.104-2.907-8.55-8.379-8.55-4.959 0-8.379 3.42-8.379 9.405s3.42 9.405 8.55 9.405zm-5.164-11.115c.376-2.907 2.257-4.617 4.993-4.617s4.617 1.71 5.027 4.617z" fill="#22c55e"/><g fill="#334155"><path d="m99.6947 70.3001h5.1303v-19.323h7.182v-4.617h-19.4943v4.617h7.182z"/><path d="m118.432 70.6421c5.13 0 7.524-2.907 8.379-5.985h-5.13c-.684 1.026-1.368 1.71-3.249 1.71-2.394 0-3.591-1.539-3.933-3.591h12.483s.171-.855.171-1.881c0-5.301-3.42-9.063-8.721-9.063-5.472 0-8.892 3.42-8.892 9.405s3.42 9.405 8.892 9.405zm-3.933-11.457c.513-1.71 1.71-3.078 3.933-3.078s3.42 1.539 3.762 3.078z"/><path d="m135.644 70.6421c6.156 0 8.037-2.736 8.037-5.643 0-7.524-10.431-4.959-10.431-7.695 0-.684.855-1.197 2.394-1.197 1.881 0 2.565.684 2.736 1.368h5.13c-.513-3.078-2.736-5.643-7.866-5.643-4.788 0-7.353 2.394-7.353 5.472 0 7.524 10.431 4.959 10.431 7.695 0 .684-.684 1.368-3.078 1.368-1.71 0-2.736-.855-2.907-1.71h-5.13c.513 3.249 2.736 5.985 8.037 5.985z"/><path d="m152.333 70.3001h3.42v-4.446h-2.565c-1.026 0-1.71-.684-1.71-1.71v-7.524h4.275v-4.446h-4.275v-4.788h-4.104l-.684 4.788h-2.907v4.446h2.907v8.379c0 3.42 1.881 5.301 5.643 5.301z"/><path d="m165.457 70.6421c5.472 0 8.892-3.42 8.892-9.405s-3.42-9.405-8.892-9.405-8.892 3.42-8.892 9.405 3.42 9.405 8.892 9.405zm0-4.275c-2.223 0-4.104-1.539-4.104-5.13s1.881-5.13 4.104-5.13 4.104 1.539 4.104 5.13-1.881 5.13-4.104 5.13z"/><path d="m176.167 77.1401h4.788v-8.721h.171c.684.855 2.223 2.223 4.959 2.223 4.617 0 7.866-3.249 7.866-9.405s-3.249-9.405-7.866-9.405c-2.565 0-4.104 1.197-5.13 2.394h-.171l-.513-2.052h-4.104zm8.892-10.773c-2.223 0-4.104-1.539-4.104-5.13s1.881-5.13 4.104-5.13 4.104 1.539 4.104 5.13-1.881 5.13-4.104 5.13z"/><path d="m202.452 70.6421c6.156 0 8.037-2.736 8.037-5.643 0-7.524-10.431-4.959-10.431-7.695 0-.684.855-1.197 2.394-1.197 1.881 0 2.565.684 2.736 1.368h5.13c-.513-3.078-2.736-5.643-7.866-5.643-4.788 0-7.353 2.394-7.353 5.472 0 7.524 10.431 4.959 10.431 7.695 0 .684-.684 1.368-3.078 1.368-1.71 0-2.736-.855-2.907-1.71h-5.13c.513 3.249 2.736 5.985 8.037 5.985z"/></g></svg>