<?xml version="1.0" encoding="utf-8"?>
<!-- Generator: Adobe Illustrator 27.3.1, SVG Export Plug-In . SVG Version: 6.00 Build 0)  -->
<svg version="1.1" id="Layer_1" xmlns="http://www.w3.org/2000/svg" xmlns:xlink="http://www.w3.org/1999/xlink" x="0px" y="0px"
	 viewBox="0 0 211 78" style="enable-background:new 0 0 211 78;" xml:space="preserve">
<style type="text/css">
	.st0{fill:url(#SVGID_1_);}
	.st1{fill:url(#SVGID_00000115484169438139609080000015051024103861009570_);}
	.st2{fill:url(#SVGID_00000040543960613485675100000006114264697030346641_);}
	.st3{fill:#22C55E;}
	.st4{fill:#FFFFFF;}
</style>
<linearGradient id="SVGID_1_" gradientUnits="userSpaceOnUse" x1="34.3595" y1="66.4596" x2="72.5932" y2="2.6588" gradientTransform="matrix(1 0 0 -1 0 77.8898)">
	<stop  offset="0" style="stop-color:#16A34A"/>
	<stop  offset="0.218" style="stop-color:#22C55E"/>
	<stop  offset="0.5304" style="stop-color:#22C55E"/>
	<stop  offset="0.8019" style="stop-color:#4ADE80"/>
	<stop  offset="1" style="stop-color:#4ADE80"/>
</linearGradient>
<path class="st0" d="M76,38v28.6c0,5.2-4.2,9.4-9.4,9.4c-3.8,0-7-2.7-7.7-6.3c-0.1-0.5-0.2-1.1-0.2-1.6V38c0-1.2-0.1-2.4-0.3-3.5
	c-0.7-4.2-2.7-8-5.8-11.1c-3.9-3.9-9.1-6.1-14.7-6.1s-10.7,2.2-14.7,6.1c-3.1,3.1-5.1,6.9-5.8,11.1C19,22.9,27.1,13.4,38,10
	c2.7-0.8,5.7-1.3,8.7-1.3c16.1,0,29.2,13,29.3,29.1V38L76,38z"/>
<linearGradient id="SVGID_00000017482469960708195270000008675623061360070590_" gradientUnits="userSpaceOnUse" x1="28.5451" y1="76.7021" x2="45.13" y2="13.1096" gradientTransform="matrix(1 0 0 -1 0 77.8898)">
	<stop  offset="0" style="stop-color:#4ADE80"/>
	<stop  offset="0.4911" style="stop-color:#4ADE80"/>
	<stop  offset="0.8259" style="stop-color:#86EFAC"/>
	<stop  offset="1" style="stop-color:#86EFAC"/>
</linearGradient>
<path style="fill:url(#SVGID_00000017482469960708195270000008675623061360070590_);" d="M76,37.8C75.9,21.7,62.8,8.7,46.7,8.7
	c-3,0-5.9,0.5-8.7,1.3c-10.9,3.4-19,12.9-20.4,24.5c-0.2,1.2-0.3,2.3-0.3,3.5s0.1,2.4,0.3,3.5c0.7,4.2,2.7,8,5.8,11.1
	c3.9,3.9,9.1,6.1,14.7,6.1s10.7-2.2,14.7-6.1c3.1-3.1,5.1-6.9,5.8-11.1C57,53.1,48.9,62.6,38,66c-2.7,0.8-5.7,1.3-8.7,1.3
	C13.1,67.3,0,54.2,0,38c0-5.1,1-10.1,3-14.8c1.9-4.5,4.7-8.6,8.1-12.1c3.5-3.5,7.5-6.2,12.1-8.1c4.7-2,9.7-3,14.8-3s10.1,1,14.8,3
	c4.5,1.9,8.6,4.7,12.1,8.1c3.5,3.5,6.2,7.5,8.1,12.1C75,27.8,76,32.8,76,37.8z"/>
<linearGradient id="SVGID_00000012461120506344764680000005252868460649851523_" gradientUnits="userSpaceOnUse" x1="4.6109" y1="16.6427" x2="61.1506" y2="30.9585" gradientTransform="matrix(1 0 0 -1 0 77.8898)">
	<stop  offset="0" style="stop-color:#4ADE80"/>
	<stop  offset="0.2803" style="stop-color:#4ADE80"/>
	<stop  offset="0.4913" style="stop-color:#22C55E"/>
	<stop  offset="0.6796" style="stop-color:#22C55E"/>
	<stop  offset="1" style="stop-color:#16A34A"/>
</linearGradient>
<path style="fill:url(#SVGID_00000012461120506344764680000005252868460649851523_);" d="M58.9,69.7c-1.9,1.3-4,2.4-6.1,3.3
	c-4.7,2-9.7,3-14.8,3s-10.1-1-14.8-3c-4.5-1.9-8.6-4.7-12.1-8.1C7.6,61.4,4.9,57.3,3,52.8C1,48.1,0,43.1,0,38
	c0,16.2,13.1,29.3,29.3,29.3c3,0,5.9-0.5,8.7-1.3c10.9-3.4,19-12.9,20.4-24.5c0.2-1.2,0.3-2.3,0.3-3.5v30.1
	C58.7,68.7,58.8,69.2,58.9,69.7z"/>
<path class="st3" d="M91.8,32.3h3.8l2-5.5h10.6l2,5.5h3.8L105,8.4h-4.3L91.8,32.3z M98.7,23.6l4-11.1h0.2l4,11.1H98.7z"/>
<path class="st3" d="M114.7,32.3h3.2V8.4h-3.2V32.3z"/>
<path class="st3" d="M121.3,32.3h3.2V8.4h-3.2V32.3z"/>
<path class="st3" d="M134.4,32.6c2,0,4-0.8,5.1-2.7h0.2l0.5,2.4h2.6V14.2h-3.2v10.9c0,2.4-1.9,4.4-4.4,4.4c-2.4,0-4.1-1.5-4.1-4.4
	V14.2h-3.2v11.1C127.8,29.7,130.5,32.6,134.4,32.6L134.4,32.6z"/>
<path class="st3" d="M145.8,32.3h3.2V21.7c0-2.6,1.9-4.4,4.8-4.4h1.9v-3.1h-2.1c-2.1,0-3.6,0.7-4.6,2.4h-0.2l-0.5-2.4h-2.6
	L145.8,32.3z"/>
<path class="st3" d="M164.1,32.6c3.9,0,6.7-2.2,7.9-5.3h-3.6c-1,1.5-2.4,2.2-4.3,2.2c-2.9,0-5-1.9-5.2-5.3h13.2c0,0,0.2-0.9,0.2-1.9
	c0-4.1-2.9-8.6-8.4-8.6c-5,0-8.4,3.4-8.4,9.4S159,32.6,164.1,32.6L164.1,32.6z M158.9,21.5c0.4-2.9,2.3-4.6,5-4.6s4.6,1.7,5,4.6
	H158.9z"/>
<g>
	<path class="st4" d="M99.7,70.3h5.1V51h7.2v-4.6H92.5V51h7.2V70.3z"/>
	<path class="st4" d="M118.4,70.6c5.1,0,7.5-2.9,8.4-6h-5.1c-0.7,1-1.4,1.7-3.2,1.7c-2.4,0-3.6-1.5-3.9-3.6H127c0,0,0.2-0.9,0.2-1.9
		c0-5.3-3.4-9.1-8.7-9.1c-5.5,0-8.9,3.4-8.9,9.4S113,70.6,118.4,70.6z M114.5,59.2c0.5-1.7,1.7-3.1,3.9-3.1s3.4,1.5,3.8,3.1H114.5z"
		/>
	<path class="st4" d="M135.6,70.6c6.2,0,8-2.7,8-5.6c0-7.5-10.4-5-10.4-7.7c0-0.7,0.9-1.2,2.4-1.2c1.9,0,2.6,0.7,2.7,1.4h5.1
		c-0.5-3.1-2.7-5.6-7.9-5.6c-4.8,0-7.4,2.4-7.4,5.5c0,7.5,10.4,5,10.4,7.7c0,0.7-0.7,1.4-3.1,1.4c-1.7,0-2.7-0.9-2.9-1.7h-5.1
		C128.1,67.9,130.3,70.6,135.6,70.6L135.6,70.6z"/>
	<path class="st4" d="M152.3,70.3h3.4v-4.4h-2.6c-1,0-1.7-0.7-1.7-1.7v-7.5h4.3v-4.4h-4.3v-4.8h-4.1l-0.7,4.8h-2.9v4.4h2.9V65
		C146.7,68.4,148.6,70.3,152.3,70.3L152.3,70.3z"/>
	<path class="st4" d="M165.5,70.6c5.5,0,8.9-3.4,8.9-9.4s-3.4-9.4-8.9-9.4s-8.9,3.4-8.9,9.4S160,70.6,165.5,70.6z M165.5,66.4
		c-2.2,0-4.1-1.5-4.1-5.1s1.9-5.1,4.1-5.1s4.1,1.5,4.1,5.1S167.7,66.4,165.5,66.4z"/>
	<path class="st4" d="M176.2,77.1h4.8v-8.7h0.2c0.7,0.9,2.2,2.2,5,2.2c4.6,0,7.9-3.2,7.9-9.4s-3.2-9.4-7.9-9.4
		c-2.6,0-4.1,1.2-5.1,2.4h-0.2l-0.5-2.1h-4.1L176.2,77.1z M185.1,66.4c-2.2,0-4.1-1.5-4.1-5.1s1.9-5.1,4.1-5.1s4.1,1.5,4.1,5.1
		S187.3,66.4,185.1,66.4z"/>
	<path class="st4" d="M202.5,70.6c6.2,0,8-2.7,8-5.6c0-7.5-10.4-5-10.4-7.7c0-0.7,0.9-1.2,2.4-1.2c1.9,0,2.6,0.7,2.7,1.4h5.1
		c-0.5-3.1-2.7-5.6-7.9-5.6c-4.8,0-7.4,2.4-7.4,5.5c0,7.5,10.4,5,10.4,7.7c0,0.7-0.7,1.4-3.1,1.4c-1.7,0-2.7-0.9-2.9-1.7h-5.1
		C194.9,67.9,197.2,70.6,202.5,70.6z"/>
</g>
</svg>
