<?xml version="1.0" encoding="utf-8"?>
<!-- Generator: Adobe Illustrator 16.0.3, SVG Export Plug-In . SVG Version: 6.00 Build 0)  -->
<!DOCTYPE svg PUBLIC "-//W3C//DTD SVG 1.1//EN" "http://www.w3.org/Graphics/SVG/1.1/DTD/svg11.dtd">
<svg version="1.1" id="Layer_1" xmlns="http://www.w3.org/2000/svg" xmlns:xlink="http://www.w3.org/1999/xlink" x="0px" y="0px"
	 width="612px" height="598.68px" viewBox="0 96.817 612 598.68" enable-background="new 0 96.817 612 598.68" xml:space="preserve"
	>
<path id="path22" fill="#86DA2F" d="M562.717,434.766c26.073-2.006,47.133,15.042,49.139,41.115
	c2.006,27.076-17.048,49.138-43.121,51.144c-25.07,2.005-47.133-17.048-49.138-42.118
	C517.591,457.83,535.642,437.773,562.717,434.766L562.717,434.766z"/>
<path id="path24" fill="#24C2FF" d="M245.828,648.364c0-26.073,20.056-46.129,44.124-46.129c24.068,0,47.132,22.062,47.132,47.132
	c0,24.067-20.057,45.127-43.121,46.13C264.881,695.497,245.828,677.446,245.828,648.364z"/>
<path id="path26" fill="#FFCB12" d="M317.027,355.543c-4.011,2.005-6.017-1.003-7.02-4.011
	c-37.104-69.194-26.073-156.439,39.11-208.585c17.048-14.04,49.138-17.048,63.177-3.008c6.018,5.014,7.02,11.031,8.022,18.05
	c2.006,15.042,5.015,30.084,15.043,42.118c11.03,13.037,25.07,18.051,41.115,17.048c14.039,0,28.078-2.005,37.104,14.04
	c5.015,9.025,3.009,44.124-5.014,51.144c-4.012,3.008-7.02,1.003-10.028,0c-23.064-9.025-47.132-9.025-71.199-5.014
	c-8.023,1.003-12.034-1.003-12.034-10.028c-1.003-15.042-4.012-29.082-12.034-42.119c-15.042-27.076-43.121-28.079-61.171-3.008
	c-15.043,20.056-19.054,44.124-23.065,68.191C315.022,311.419,316.025,333.481,317.027,355.543
	C317.027,355.543,316.025,355.543,317.027,355.543L317.027,355.543z"/>
<path id="path28" fill="#86DA2F" d="M342.099,370.585c-2.006-3.008-1.003-6.017,2.005-8.022
	c57.161-52.146,142.4-62.174,208.586-11.031c17.048,14.039,28.078,43.121,19.053,60.168c-4.011,7.02-9.025,10.028-15.042,12.034
	c-14.039,6.017-27.076,12.033-36.101,25.07c-9.025,13.036-11.031,28.079-7.021,44.124c3.009,13.036,8.022,27.076-5.014,39.109
	c-7.02,7.02-41.115,13.037-50.141,7.02c-4.012-3.008-3.009-6.017-2.006-10.028c3.009-25.07-3.009-48.135-12.034-70.196
	c-3.008-8.022-2.005-12.034,6.018-14.04c14.039-4.011,27.076-11.03,37.104-21.059c22.063-21.06,17.048-48.135-12.033-60.169
	c-23.064-10.028-47.133-8.022-70.197-6.017C383.214,358.551,362.154,364.568,342.099,370.585L342.099,370.585z"/>
<path id="path30" fill="#24C2FF" d="M329.062,396.658c3.009-3.008,5.015-2.005,8.022,0
	c66.186,40.112,100.281,119.335,70.197,196.552c-8.022,20.056-34.096,40.112-53.149,35.099c-8.022-2.006-12.033-6.018-16.045-11.031
	c-9.025-12.034-19.054-23.064-34.096-28.079c-16.045-5.014-30.084-2.005-44.124,6.018c-12.034,7.02-24.068,16.045-39.11,7.02
	c-9.025-5.015-24.067-36.102-21.059-46.13c2.005-4.011,6.017-4.011,10.028-4.011c25.07-4.012,45.127-16.045,64.18-32.09
	c6.017-5.015,11.031-5.015,16.045,2.005c8.023,12.034,18.051,22.063,31.087,29.082c26.073,15.042,51.144,2.006,54.152-28.079
	c3.008-25.07-6.018-47.132-14.04-69.194C352.126,433.763,341.096,414.709,329.062,396.658L329.062,396.658z"/>
<path id="path32" fill="#0069DA" d="M296.972,402.675c-4.011,20.057-13.037,39.11-25.07,56.158
	c-36.102,54.151-88.248,76.214-152.428,70.196c-23.065-2.005-42.118-21.059-44.124-40.112c-1.003-8.022,1.003-14.039,6.017-20.056
	c7.02-9.025,13.037-17.048,16.045-28.079c6.017-22.063-2.006-40.112-18.051-56.158c-22.062-22.062-19.053-42.118,7.02-58.163
	c3.009-2.006,7.02-4.011,11.031-6.017c6.017-3.008,11.031-3.008,13.037,4.011c9.025,23.065,27.076,40.113,47.132,54.152
	c7.02,6.017,7.02,10.028,1.002,17.048c-12.034,13.037-19.053,29.082-20.056,47.133c-2.005,22.062,11.031,36.101,33.093,36.101
	c14.04,0,27.076-5.014,39.11-11.03c31.087-16.045,55.155-39.11,78.22-63.178C291.958,403.678,292.96,401.672,296.972,402.675
	L296.972,402.675z"/>
<path id="path34" fill="#FF4649" d="M132.51,192.084c2.005,0,7.02,1.003,12.034,2.006c37.104,7.02,60.169-6.017,72.203-41.115
	c8.022-23.065,25.07-30.084,47.132-18.051c1.002,0,1.002,1.003,2.005,1.003c23.065,13.036,23.065,15.042,9.025,35.098
	c-12.034,16.045-18.051,34.096-21.059,53.149c-2.006,11.031-6.017,13.037-16.045,9.025c-16.045-6.017-33.093-6.017-50.141,0
	c-19.054,6.017-27.076,23.064-21.059,42.118c8.022,25.07,30.084,36.101,49.138,49.138c19.053,13.037,41.115,20.056,62.174,29.082
	c3.009,1.003,8.022,1.003,7.02,6.017c-1.003,3.008-5.014,3.008-9.025,3.008c-45.127,2.006-88.248-5.014-123.346-35.099
	c-33.093-27.076-57.161-60.169-53.149-106.298C102.426,206.124,113.457,195.093,132.51,192.084L132.51,192.084z"/>
<path id="path36" fill="#0069DA" d="M50.279,473.875c-24.067,3.009-48.135-17.048-50.141-42.118
	c-2.006-24.067,18.051-48.135,41.115-50.141c26.073-3.009,50.141,15.042,52.146,39.109
	C94.403,443.791,79.361,471.869,50.279,473.875z"/>
<path id="path38" fill="#FFCB12" d="M471.461,116.873c25.07-2.005,49.139,18.051,51.144,43.121
	c2.006,24.067-18.051,47.132-42.118,49.138c-26.073,2.006-49.138-17.048-51.144-42.118
	C427.338,141.943,445.388,118.879,471.461,116.873z"/>
<path id="path40" fill="#FF4649" d="M209.727,135.927c3.009,26.073-15.042,48.135-42.118,52.146
	c-23.064,3.009-47.132-16.045-50.141-38.107c-3.008-29.082,13.037-50.141,40.113-53.149
	C182.651,93.809,206.718,112.862,209.727,135.927L209.727,135.927z"/>
</svg>
