<?xml version="1.0" encoding="utf-8"?>
<!-- Generator: Adobe Illustrator 16.0.3, SVG Export Plug-In . SVG Version: 6.00 Build 0)  -->
<!DOCTYPE svg PUBLIC "-//W3C//DTD SVG 1.1//EN" "http://www.w3.org/Graphics/SVG/1.1/DTD/svg11.dtd">
<svg version="1.1" id="Layer_1" xmlns="http://www.w3.org/2000/svg" xmlns:xlink="http://www.w3.org/1999/xlink" x="0px" y="0px"
	 width="800px" height="179px" viewBox="0 109.5 800 179" enable-background="new 0 109.5 800 179" xml:space="preserve">
<g>
	<path fill="#77C159" d="M0.4,221.602c0-9.034,1.513-17.464,4.538-25.289c3.025-7.823,7.259-14.641,12.705-20.448
		c5.445-5.808,11.959-10.366,19.542-13.672c7.583-3.308,15.891-4.963,24.925-4.963c6.858,0,13.089,1.01,18.695,3.025
		c5.606,2.017,11.031,5.325,16.273,9.922V159.65h30.734v123.905H97.078v-10.528c-5.242,4.599-10.667,7.906-16.273,9.922
		c-5.606,2.018-11.837,3.025-18.695,3.025c-9.034,0-17.344-1.653-24.925-4.961c-7.583-3.307-14.097-7.864-19.542-13.672
		c-5.445-5.81-9.68-12.625-12.705-20.45C1.913,239.067,0.4,230.638,0.4,221.602z M66.103,257.055c2.42,0,4.961-0.261,7.624-0.786
		c2.661-0.525,5.344-1.412,8.047-2.662c2.702-1.25,5.344-2.924,7.925-5.022c2.582-2.097,5.041-4.678,7.38-7.744v-38.479
		c-2.339-3.064-4.798-5.625-7.38-7.683c-2.583-2.056-5.223-3.731-7.926-5.022s-5.384-2.198-8.047-2.722
		c-2.661-0.525-5.203-0.786-7.622-0.788c-4.759,0-9.217,0.888-13.37,2.663c-4.156,1.775-7.766,4.256-10.83,7.442
		c-3.066,3.186-5.466,6.938-7.2,11.253c-1.734,4.315-2.602,9.014-2.602,14.095c0,5.083,0.867,9.781,2.602,14.097
		c1.734,4.316,4.134,8.067,7.2,11.253c3.065,3.188,6.675,5.667,10.828,7.442C56.888,256.167,61.344,257.055,66.103,257.055z
		 M204.641,187.817c-14.563,0.106-27.214,10.254-27.214,25.315v70.422h-30.734v-69.575c0.172-29.012,25.297-56.359,57.508-56.75
		h0.859c32.211,0.391,57.336,27.738,57.508,56.75v69.575h-30.734v-70.422c0-15.061-12.65-25.209-27.214-25.315 M277.116,221.602
		c0-9.034,1.512-17.464,4.538-25.289c3.025-7.823,7.261-14.641,12.705-20.448c5.445-5.808,11.959-10.366,19.542-13.672
		c7.582-3.308,15.891-4.963,24.926-4.963c6.856,0,13.108,1.01,18.755,3.025c5.647,2.017,11.052,5.284,16.214,9.801v-47.553h30.734
		v161.052h-30.734v-10.406c-5.162,4.597-10.566,7.884-16.214,9.861c-5.646,1.977-11.898,2.964-18.755,2.964
		c-9.035,0-17.344-1.653-24.926-4.961c-7.583-3.307-14.097-7.864-19.542-13.672c-5.444-5.808-9.68-12.625-12.703-20.45
		C278.628,239.067,277.116,230.638,277.116,221.602z M342.818,257.055c2.421,0,4.961-0.261,7.624-0.786
		c2.661-0.525,5.344-1.412,8.047-2.662c2.701-1.25,5.344-2.924,7.925-5.022c2.581-2.097,5.041-4.678,7.381-7.744v-38.479
		c-2.34-3.064-4.8-5.625-7.381-7.683c-2.581-2.056-5.224-3.731-7.925-5.022c-2.703-1.291-5.386-2.198-8.047-2.722
		c-2.663-0.525-5.203-0.786-7.624-0.788c-4.759,0-9.215,0.888-13.37,2.663c-4.154,1.775-7.766,4.256-10.828,7.442
		c-3.067,3.186-5.467,6.938-7.201,11.253c-1.734,4.315-2.602,9.014-2.601,14.095c0,5.083,0.866,9.781,2.601,14.097
		c1.734,4.316,4.134,8.067,7.2,11.253c3.065,3.188,6.675,5.667,10.829,7.442C333.604,256.167,338.06,257.055,342.818,257.055
		L342.818,257.055z M548.455,257.055c4.598,0,8.934-0.867,13.008-2.602c4.01-1.69,7.633-4.182,10.648-7.32
		c3.024-3.146,5.404-6.876,7.139-11.192c1.734-4.315,2.602-9.094,2.602-14.339c0-5.163-0.888-9.901-2.662-14.217
		c-1.775-4.315-4.195-8.047-7.26-11.192c-3.038-3.127-6.654-5.634-10.648-7.381c-4.033-1.775-8.31-2.661-12.826-2.663
		c-4.598,0-8.934,0.888-13.008,2.663c-4.005,1.728-7.625,4.237-10.647,7.381c-3.024,3.145-5.425,6.876-7.2,11.192
		c-1.774,4.316-2.662,9.055-2.662,14.219c0,5.242,0.867,10.022,2.602,14.337c1.734,4.316,4.114,8.047,7.141,11.192
		c3.015,3.139,6.637,5.629,10.646,7.32C539.4,256.188,543.776,257.055,548.455,257.055z M548.455,285.974
		c-8.953,0-17.383-1.613-25.289-4.839s-14.822-7.723-20.75-13.492c-5.93-5.767-10.609-12.584-14.038-20.448
		c-3.428-7.866-5.141-16.396-5.141-25.592c0-8.953,1.713-17.344,5.141-25.167c3.43-7.825,8.088-14.641,13.977-20.449
		c5.888-5.809,12.805-10.386,20.75-13.734c7.947-3.347,16.397-5.022,25.351-5.022s17.384,1.675,25.289,5.022
		c7.906,3.349,14.803,7.925,20.69,13.734c5.891,5.808,10.547,12.625,13.977,20.449c3.428,7.825,5.141,16.214,5.141,25.167
		c0,9.197-1.713,17.727-5.141,25.592c-3.429,7.864-8.108,14.681-14.036,20.448c-5.93,5.769-12.826,10.266-20.692,13.492
		C565.818,284.361,557.409,285.974,548.455,285.974z M642.69,149.948c-2.49,0-4.844-0.486-7.063-1.459
		c-2.177-0.945-4.155-2.292-5.834-3.969c-1.678-1.679-3.024-3.659-3.969-5.836c-0.975-2.227-1.472-4.632-1.46-7.063
		c0-2.489,0.486-4.863,1.46-7.119c0.935-2.2,2.281-4.2,3.969-5.894c1.679-1.677,3.659-3.023,5.836-3.969
		c2.227-0.975,4.632-1.472,7.063-1.459c2.489,0,4.862,0.486,7.118,1.459c2.2,0.935,4.201,2.282,5.895,3.969
		c1.687,1.693,3.033,3.694,3.969,5.894c0.973,2.256,1.459,4.63,1.459,7.121c0,2.489-0.486,4.844-1.459,7.063
		c-0.945,2.176-2.292,4.156-3.969,5.834c-1.693,1.687-3.694,3.034-5.895,3.969C647.563,149.46,645.139,149.957,642.69,149.948
		L642.69,149.948z M627.322,159.65h30.734v123.905h-30.734V159.65z M672.188,221.602c0-9.034,1.513-17.464,4.537-25.289
		c3.025-7.823,7.26-14.641,12.705-20.448c5.445-5.808,11.959-10.366,19.542-13.672c7.581-3.308,15.891-4.963,24.925-4.963
		c6.856,0,13.109,1.01,18.755,3.025c5.647,2.017,11.052,5.284,16.214,9.801v-47.553H799.6v161.052h-30.734v-10.406
		c-5.162,4.597-10.566,7.884-16.214,9.861c-5.646,1.977-11.898,2.964-18.755,2.964c-9.034,0-17.344-1.653-24.925-4.961
		c-7.583-3.307-14.097-7.864-19.542-13.672c-5.445-5.808-9.68-12.625-12.705-20.45C673.7,239.067,672.188,230.638,672.188,221.602z
		 M737.891,257.055c2.419,0,4.961-0.261,7.622-0.786c2.662-0.525,5.344-1.412,8.047-2.662s5.344-2.924,7.925-5.022
		c2.581-2.097,5.042-4.678,7.381-7.744v-38.479c-2.339-3.064-4.8-5.625-7.381-7.683c-2.581-2.056-5.222-3.731-7.925-5.022
		s-5.385-2.198-8.047-2.722c-2.661-0.525-5.203-0.786-7.622-0.788c-4.76,0-9.217,0.888-13.37,2.663
		c-4.156,1.775-7.766,4.256-10.83,7.442c-3.065,3.186-5.466,6.938-7.2,11.253c-1.734,4.315-2.602,9.014-2.602,14.095
		c0,5.083,0.867,9.781,2.602,14.097c1.734,4.316,4.135,8.067,7.2,11.253c3.065,3.188,6.675,5.667,10.828,7.442
		C728.675,256.167,733.131,257.055,737.891,257.055z M480.308,187.445c-20.597,0-29.68,10.626-29.68,25.688v70.422h-30.734v-69.575
		c0.172-29.012,16.932-57.534,60.414-57.534"/>
</g>
</svg>
