<?xml version="1.0" encoding="utf-8"?>
<!-- Generator: Adobe Illustrator 27.3.1, SVG Export Plug-In . SVG Version: 6.00 Build 0)  -->
<svg version="1.1" id="Layer_1" xmlns="http://www.w3.org/2000/svg" xmlns:xlink="http://www.w3.org/1999/xlink" x="0px" y="0px"
	 viewBox="0 0 293.6 95.9" style="enable-background:new 0 0 293.6 95.9;" xml:space="preserve">
<style type="text/css">
	.st0{fill:#1A1918;}
	.st1{fill:#FFFFFF;}
</style>
<path class="st0" d="M95.9,47.9c0,26.5-21.5,47.9-47.9,47.9C21.5,95.9,0,74.4,0,47.9C0,21.5,21.5,0,47.9,0S95.9,21.5,95.9,47.9"/>
<path class="st1" d="M48.7,29.3l12.4,30.6L42.4,45.1L48.7,29.3z M70.8,67L51.7,21c-0.5-1.3-1.6-2-3-2c-1.3,0-2.5,0.7-3,2L24.8,71.4
	h7.2l8.3-20.8l24.7,20c1,0.8,1.7,1.2,2.6,1.2c1.9,0,3.5-1.4,3.5-3.4C71.1,68,71,67.5,70.8,67L70.8,67z"/>
<path class="st0" d="M161.6,62.3c-0.5,0-1-0.1-1.4-0.6l-15.9-20.9v21.3h-3.6V35.8c0-1.1,0.9-1.9,1.9-1.9c0.6,0,1.1,0.2,1.4,0.7
	l15.8,20.9V34.2h3.6v26.2C163.5,61.4,162.6,62.3,161.6,62.3C161.6,62.3,161.6,62.3,161.6,62.3 M182.5,62.5c-3.6,0-7.4-0.7-10.9-2.1
	l0.9-3c3.2,1.1,6.8,1.8,10.1,1.8c4.6,0,7-1.6,7-3.9c0-2.1-1.9-3.1-8.2-6.1c-6.4-3-8.9-4.9-8.9-8.7c0-4.7,3.6-6.6,10.5-6.6
	c2.8,0,7.2,0.6,9.7,1.3l-0.6,3.1c-3-0.7-6-1.1-9.1-1.1c-4.8,0-6.8,0.9-6.8,3.2c0,2.3,1.4,3.2,8.2,6.4c7.1,3.3,8.9,5,8.9,8.4
	C193.3,60.1,188.6,62.5,182.5,62.5 M201.4,34.2h3.7V62h-3.7C201.4,62,201.4,34.2,201.4,34.2z M230.2,49.1h-9.3v9.4h9.3
	c3.2,0,5.1-2,5.1-4.8C235.3,51.1,233.3,49.1,230.2,49.1 M228.4,37.1h-7.5V46h7.5c3,0,5.2-1.9,5.2-4.6
	C233.6,38.7,231.7,37.1,228.4,37.1 M230.2,61.7H219c-1.1,0-1.9-0.8-1.9-1.9V35.8c0-1,0.9-1.9,1.9-1.9h9.3c5.7,0,9.1,2.8,9.1,7.2
	c0,2.4-1.4,4.6-3.5,5.9c3.2,1,5.3,3.6,5.3,6.8C239.1,58.2,235.5,61.7,230.2,61.7 M250,61.4c-1,0-1.9-0.9-1.9-1.9v-26h3.7V58h15v3.4
	L250,61.4z M284.3,61.5c-7.7,0-12.3-2.8-12.3-8.6c0-2.7,1.5-5.3,4.5-6.5c-2.4-1.5-3.6-3.6-3.6-6c0-5.2,4-7.6,11.5-7.6
	c3,0,6.1,0.3,9,1l-0.4,3.1c-3.1-0.5-6.1-0.8-8.9-0.8c-4.9,0-7.5,1.3-7.5,4.6c0,2.5,2.4,4.6,5.6,4.6h6.4c0.9,0,1.6,0.7,1.6,1.6
	c0,0,0,0,0,0c0,0.9-0.7,1.6-1.6,1.6h-6.9c-3.6,0-5.9,1.8-5.9,4.6c0,4.1,3.7,5.3,8.4,5.3c2.6,0,6-0.3,8.8-1l0.5,3.1
	C290.6,61.1,287.5,61.5,284.3,61.5 M120.2,39.7l6.6,16.4l-9.9-7.9L120.2,39.7z M131.8,59.9l-10.1-24.7c-0.3-0.7-0.9-1.1-1.6-1.1
	c-0.7,0-1.4,0.4-1.6,1.1l-11,27.8l3.7-0.7l4.4-11.1l13.1,10.7c0.5,0.4,0.9,0.6,1.4,0.6c1,0,1.8-0.8,1.9-1.8c0,0,0,0,0-0.1
	C132,60.4,131.9,60.2,131.8,59.9L131.8,59.9z"/>
</svg>
