<?xml version="1.0" encoding="utf-8"?>
<!-- Generator: Adobe Illustrator 16.0.3, SVG Export Plug-In . SVG Version: 6.00 Build 0)  -->
<!DOCTYPE svg PUBLIC "-//W3C//DTD SVG 1.1//EN" "http://www.w3.org/Graphics/SVG/1.1/DTD/svg11.dtd">
<svg version="1.1" id="Layer_1" xmlns="http://www.w3.org/2000/svg" xmlns:xlink="http://www.w3.org/1999/xlink" x="0px" y="0px"
	 width="109.62px" height="36.31px" viewBox="0 -0.49 109.62 36.31" enable-background="new 0 -0.49 109.62 36.31"
	 xml:space="preserve">
<path fill="#1A1918" d="M35.798,17.896c0,9.886-8.014,17.899-17.9,17.899C8.013,35.796,0,27.782,0,17.896C0,8.014,8.014,0,17.898,0
	c9.884,0,17.898,8.014,17.898,17.9"/>
<path fill="#FFFFFF" d="M18.2,10.934l4.632,11.432l-6.996-5.51L18.2,10.934z M26.428,24.997L19.303,7.852
	c-0.203-0.494-0.6-0.757-1.104-0.757s-0.93,0.263-1.134,0.757l-7.82,18.808h2.675l3.095-7.755l9.238,7.464
	c0.372,0.301,0.64,0.437,0.988,0.437c0.698,0,1.308-0.523,1.308-1.277C26.549,25.402,26.505,25.208,26.428,24.997L26.428,24.997z"/>
<path fill="#1A1918" d="M60.331,23.251c-0.186,0-0.385-0.047-0.523-0.233l-5.932-7.802v7.958h-1.354v-9.8
	c0-0.399,0.323-0.702,0.692-0.702c0.215,0,0.399,0.063,0.538,0.25l5.917,7.785v-7.926h1.355v9.783
	c0.004,0.377-0.297,0.685-0.674,0.688C60.34,23.251,60.336,23.251,60.331,23.251 M68.157,23.345c-1.354,0-2.768-0.278-4.088-0.778
	l0.324-1.123c1.213,0.399,2.533,0.67,3.764,0.67c1.707,0,2.6-0.607,2.6-1.467c0-0.779-0.693-1.17-3.074-2.293
	c-2.383-1.125-3.32-1.84-3.32-3.246c0-1.763,1.352-2.479,3.904-2.479c1.059,0,2.699,0.22,3.627,0.5l-0.215,1.154
	c-1.107-0.265-2.242-0.406-3.381-0.421c-1.799,0-2.537,0.344-2.537,1.203c0,0.842,0.539,1.199,3.059,2.371
	c2.66,1.234,3.334,1.857,3.334,3.137c0,1.857-1.752,2.779-3.996,2.779 M75.202,12.764H76.6v10.393h-1.398V12.764z M85.942,18.328
	h-3.477v3.527h3.477c1.184,0,1.904-0.75,1.904-1.795C87.846,19.077,87.092,18.328,85.942,18.328 M85.262,13.834h-2.797v3.324h2.797
	c1.123,0,1.939-0.719,1.939-1.719C87.202,14.458,86.495,13.834,85.262,13.834 M85.958,23.04h-4.182
	c-0.398,0-0.707-0.313-0.707-0.701V13.35c0.006-0.388,0.318-0.699,0.707-0.701h3.459c2.119,0,3.379,1.045,3.379,2.684
	c0,0.898-0.521,1.716-1.32,2.2c1.184,0.358,1.982,1.342,1.982,2.528c0,1.653-1.367,2.979-3.32,2.979 M93.356,22.925
	c-0.387,0-0.701-0.327-0.701-0.7v-9.701h1.398v9.129h5.584v1.264L93.356,22.925z M106.153,22.98c-2.859,0-4.58-1.059-4.58-3.198
	c0-1.015,0.57-1.983,1.676-2.435c-0.9-0.563-1.354-1.357-1.354-2.231c0-1.935,1.49-2.856,4.301-2.856
	c1.131,0.006,2.26,0.125,3.365,0.359l-0.154,1.154c-1.168-0.187-2.26-0.295-3.318-0.295c-1.814,0-2.783,0.5-2.783,1.7
	c0,0.951,0.893,1.699,2.076,1.699h2.398c0.326-0.005,0.594,0.256,0.6,0.581c0,0.005,0,0.009,0,0.014c0,0.342-0.26,0.606-0.602,0.606
	h-2.582c-1.354,0-2.213,0.67-2.213,1.7c0,1.514,1.396,1.967,3.148,1.967c0.953,0,2.244-0.125,3.303-0.375l0.197,1.139
	c-1.127,0.305-2.291,0.463-3.459,0.469 M44.871,14.82l2.45,6.138l-3.7-2.96L44.871,14.82z M49.223,22.372l-3.768-9.207
	c-0.108-0.265-0.323-0.406-0.584-0.406c-0.266-0.005-0.506,0.158-0.6,0.406l-4.122,10.373l1.4-0.274l1.637-4.162l4.885,4.006
	c0.197,0.16,0.338,0.233,0.523,0.233c0.375,0.007,0.685-0.293,0.691-0.668c0-0.006,0-0.014,0-0.021
	c-0.007-0.096-0.028-0.19-0.064-0.282L49.223,22.372z"/>
</svg>
