<?xml version="1.0" encoding="utf-8"?>
<!-- Generator: Adobe Illustrator 16.0.3, SVG Export Plug-In . SVG Version: 6.00 Build 0)  -->
<!DOCTYPE svg PUBLIC "-//W3C//DTD SVG 1.1//EN" "http://www.w3.org/Graphics/SVG/1.1/DTD/svg11.dtd">
<svg version="1.1" id="katman_1" xmlns="http://www.w3.org/2000/svg" xmlns:xlink="http://www.w3.org/1999/xlink" x="0px" y="0px"
	 width="164.222px" height="164.517px" viewBox="67.89 67.569 164.222 164.517"
	 enable-background="new 67.89 67.569 164.222 164.517" xml:space="preserve">
<path fill="#00ACD2" d="M197.266,83.846c-19.746-17.049-63.44-25.491-96.186-1.016c-30.721,20.591-32.238,58.23-32.238,58.23
	c5.23,20.59,25.992,40.336,65.992,30.721C130.112,144.094,139.378,74.059,197.266,83.846L197.266,83.846z"/>
<path fill="#C8E9EB" d="M176.701,150.795c-21.606,17.933-87.381,45.297-107.853-9.735c-4.887,25.623,8.68,68.274,46.246,84.393
	c33.194,16.304,67.78-2.578,67.78-2.578C198.09,208.049,205.027,180.625,176.701,150.795"/>
<path fill="#662D91" d="M137.67,125.64c26.335,9.748,82.626,51.991,45.204,97.235c24.634-8.581,53.527-41.406,48.706-81.993
	c-2.473-36.9-34.314-57.036-34.314-57.036C176.82,78.082,149.337,86.188,137.67,125.64"/>
</svg>
