<?xml version="1.0" encoding="utf-8"?>
<!-- Generator: Adobe Illustrator 27.3.1, SVG Export Plug-In . SVG Version: 6.00 Build 0)  -->
<svg version="1.1" id="Layer_1" xmlns="http://www.w3.org/2000/svg" xmlns:xlink="http://www.w3.org/1999/xlink" x="0px" y="0px"
	 viewBox="0 0 399.6 84.7" style="enable-background:new 0 0 399.6 84.7;" xml:space="preserve">
<style type="text/css">
	.st0{fill:#EC366D;}
	.st1{fill:#FCBA11;}
	.st2{fill:#61C2D9;}
	.st3{fill:url(#SVGID_1_);}
	.st4{fill:url(#SVGID_00000011732576496675290460000008629321527379078798_);}
	.st5{fill:url(#SVGID_00000055673593476371759980000002506890099161962420_);}
	.st6{fill:url(#SVGID_00000048477585531219931290000000829255994635739784_);}
</style>
<g>
	<path class="st0" d="M122,21.1c-4.4,0.1-8.8,0.6-13.1,1.4c-0.7,0.1-1.1,0.7-1,1.4l0.4,3.8c0.1,0.7,0.7,1.2,1.4,1.2c0,0,0.1,0,0.1,0
		c3.4-0.7,7.4-1.5,11.2-1.5c6.5,0,8.8,2.4,8.8,9.8v1.8c-2.5-0.6-5-0.8-7.5-0.8c-9.5,0-17.3,3.6-17.3,12.7C105,60,111.4,64,121,64
		c5.4-0.1,10.7-0.7,16-1.6V36.8C137,25.6,132.9,21.1,122,21.1z M121.8,57.8c-5.8,0-9.4-1.7-9.4-7c0-4.9,4.5-6.7,10.5-6.7
		c2.3,0,4.6,0.2,6.9,0.6v12.5C127.2,57.6,124.5,57.8,121.8,57.8z M185.9,42.6c0-12.7-6.8-21.4-21.4-21.4c-6.1,0-11.3,1.3-14.7,2.1
		v53c0,0.7,0.6,1.3,1.3,1.3h4.8c0.7,0,1.3-0.6,1.3-1.3V61.2c1.8,1.2,5.6,2.8,10.3,2.8C179.3,64,185.9,55.1,185.9,42.6z M178.3,42.6
		c0,8.8-3.6,14.9-11.7,14.9c-3.4,0-6.7-1.1-9.4-3.2V28.5c2.4-0.6,4.8-0.8,7.3-0.8C173.1,27.7,178.3,33.1,178.3,42.6z M233.3,42.6
		c0-12.7-6.8-21.4-21.4-21.4c-6.1,0-11.3,1.3-14.7,2.1v53c0,0.7,0.6,1.3,1.3,1.3h4.8c0.7,0,1.3-0.6,1.3-1.3V61.2
		c1.8,1.2,5.6,2.8,10.3,2.8C226.6,64,233.3,55.1,233.3,42.6z M225.6,42.6c0,8.8-3.6,14.9-11.7,14.9c-3.4,0-6.7-1.1-9.4-3.2V28.5
		c2.4-0.6,4.8-0.8,7.3-0.8C220.5,27.7,225.6,33.1,225.6,42.6L225.6,42.6z M248.2,14c2.9,0,5.2-2.3,5.3-5.1c0-2.9-2.3-5.2-5.1-5.3
		c-2.9,0-5.2,2.3-5.3,5.1c0,0,0,0.1,0,0.1c-0.1,2.8,2,5.1,4.8,5.2C247.9,14,248,14,248.2,14z M250.6,22h-4.8c-0.7,0-1.3,0.6-1.3,1.3
		v38.4c0,0.7,0.6,1.3,1.3,1.3h4.8c0.7,0,1.3-0.6,1.3-1.3V23.3C251.9,22.6,251.3,22,250.6,22z M299.4,23.4v38.7
		c-3.4,0.8-9,1.8-17.8,1.8c-11.7,0-16.9-6.7-16.9-18.8V23.4c0-0.7,0.6-1.3,1.3-1.3h4.8c0.7,0,1.3,0.6,1.3,1.3v20.1
		c0,10,2.8,14,10.3,14c3.3,0,6.5-0.3,9.7-0.8V23.4c0-0.7,0.6-1.3,1.3-1.3h4.8C298.8,22.1,299.4,22.7,299.4,23.4z M312.2,61.7V23.2
		c3.4-0.9,11.3-2,18.6-2c5.3,0,8.7,1.4,10.6,3.5c5.1-2,10.4-3.5,15.9-3.5c11.2,0,15.3,6.6,15.3,18.8v21.7c0,0.7-0.6,1.3-1.3,1.3
		h-4.8c-0.7,0-1.3-0.6-1.3-1.3V41.6c0-8.9-1.2-14-8.7-14c-5,0-10.6,1.7-11.8,2.7c1,3.1,1.4,6.4,1.3,9.7v21.7c0,0.7-0.6,1.3-1.3,1.3
		h-4.8c-0.7,0-1.3-0.6-1.3-1.3V41.6c0-9.1-1.5-14-8.7-14c-2.7,0-7.9,0.2-10.5,0.8v33.3c0,0.7-0.6,1.3-1.3,1.3h-4.8
		C312.8,63.1,312.2,62.5,312.2,61.7C312.2,61.8,312.2,61.8,312.2,61.7L312.2,61.7z"/>
	<path class="st0" d="M388.5,22v1.9h-2.4V30h-2.2v-6.1h-2.4V22H388.5z M398.9,22c0.1,0.8,0.3,1.9,0.3,3.1c0.1,1.3,0.2,2.9,0.3,4.8
		h-2c0-0.8-0.1-1.7-0.1-2.7c0-0.9-0.1-1.8-0.2-2.6c-0.2,0.3-0.4,0.7-0.6,1.1c-0.2,0.4-0.4,0.8-0.6,1.2c-0.2,0.4-0.4,0.8-0.6,1.1
		c-0.2,0.3-0.3,0.6-0.4,0.8h-1.2c-0.1-0.2-0.2-0.5-0.4-0.8c-0.2-0.3-0.4-0.7-0.6-1.1l-0.6-1.2c-0.2-0.4-0.4-0.8-0.6-1.1
		c-0.1,0.8-0.1,1.7-0.2,2.6c0,0.9-0.1,1.8-0.1,2.7h-2.1c0.2-2,0.3-3.6,0.4-4.8c0.1-1.3,0.2-2.3,0.3-3.1h2.2c0.3,0.6,0.6,1.2,1,2
		c0.4,0.8,0.8,1.6,1.2,2.5c0.4-0.8,0.8-1.7,1.3-2.5c0.4-0.8,0.8-1.5,1-2L398.9,22z"/>
	<path class="st1" d="M62.4,38.6c-0.5,1.2-1.1,2.4-1.7,3.5C53.9,33.5,44,27.8,33,26.4c-1.8-0.2-3.7-0.4-5.6-0.4
		c-9.9,0-19.4,3.4-27,9.7C4.1,12.6,25.8-3.1,48.9,0.5c4.6,0.7,9.1,2.2,13.2,4.4v0c0.9,2,1.6,4.1,2.2,6.3
		C66.8,20.3,66.1,30,62.4,38.6z"/>
	<path class="st2" d="M57.3,82C35.4,90.2,11,79.2,2.7,57.4C1.1,53.2,0.2,48.9,0,44.5l0,0c5.7-8,14-13.8,23.6-16.4
		c1.8-0.5,3.6-0.8,5.5-1.1c1.3-0.2,2.6-0.3,3.9-0.3c-8.7,21.7,1.9,46.4,23.6,55C56.8,81.8,57,81.9,57.3,82L57.3,82z"/>
	<path class="st0" d="M84.6,42.4C84.7,55,79,67,69.3,75c-1.6,1.3-3.5,2.7-4.3,3.1c-11.7-1.2-22.5-7.2-29.6-16.6
		c-0.8-1-1.5-2.1-2.2-3.2c21-2.8,36.7-20.8,36.7-42c0-2.2-0.2-4.4-0.5-6.6C79,17.8,84.7,29.7,84.6,42.4z"/>
	
		<linearGradient id="SVGID_1_" gradientUnits="userSpaceOnUse" x1="82.8246" y1="28.0536" x2="18.977" y2="5.4505" gradientTransform="matrix(1 0 0 -1 0 82.0566)">
		<stop  offset="0" style="stop-color:#EE376D;stop-opacity:0"/>
		<stop  offset="0.14" style="stop-color:#E9376D;stop-opacity:6.000000e-02"/>
		<stop  offset="0.37" style="stop-color:#DB386E;stop-opacity:0.22"/>
		<stop  offset="0.68" style="stop-color:#C6396F;stop-opacity:0.48"/>
		<stop  offset="1" style="stop-color:#AB3B70;stop-opacity:0.8"/>
	</linearGradient>
	<path class="st3" d="M84.6,42.4C84.7,55,79,67,69.3,75c-1.6,1.3-3.5,2.7-4.3,3.1c-11.7-1.2-22.5-7.2-29.6-16.6
		c-0.8-1-1.5-2.1-2.2-3.2c20.2,6.3,42-3.3,51-22.5l0,0C84.5,37.9,84.6,40.1,84.6,42.4z"/>
	<path class="st2" d="M19.6,55.4c-0.5,9.5,2.3,18.8,7.7,26.6C11.5,76,0.7,61.1,0,44.1c0,0.1,0,0.2,0,0.3c5.7-8,14-13.8,23.6-16.4
		c1.8-0.5,3.6-0.8,5.5-1.1c1.3-0.2,2.6-0.3,3.9-0.3C25,34.2,20.2,44.5,19.6,55.4L19.6,55.4z"/>
	
		<linearGradient id="SVGID_00000013904460401241854140000013244946782714674866_" gradientUnits="userSpaceOnUse" x1="10.8669" y1="9.4794" x2="29.5057" y2="72.1364" gradientTransform="matrix(1 0 0 -1 0 82.0566)">
		<stop  offset="0" style="stop-color:#65C9D3;stop-opacity:0"/>
		<stop  offset="1" style="stop-color:#65C9D3"/>
	</linearGradient>
	<path style="fill:url(#SVGID_00000013904460401241854140000013244946782714674866_);" d="M19.6,55.4c-0.5,9.5,2.3,18.8,7.7,26.6
		C11.5,76,0.7,61.1,0,44.1c0,0.1,0,0.2,0,0.3c5.7-8,14-13.8,23.6-16.4c1.8-0.5,3.6-0.8,5.5-1.1c1.3-0.2,2.6-0.3,3.9-0.3
		C25,34.2,20.2,44.5,19.6,55.4L19.6,55.4z"/>
	
		<linearGradient id="SVGID_00000083058329839759019450000010141166860903956915_" gradientUnits="userSpaceOnUse" x1="15.3915" y1="60.9738" x2="65.7635" y2="60.9738" gradientTransform="matrix(1 0 0 -1 0 82.0566)">
		<stop  offset="0" style="stop-color:#FFCA04;stop-opacity:0"/>
		<stop  offset="0.1" style="stop-color:#FFCA04;stop-opacity:7.000000e-02"/>
		<stop  offset="0.31" style="stop-color:#FFCA04;stop-opacity:0.25"/>
		<stop  offset="0.59" style="stop-color:#FFCA04;stop-opacity:0.54"/>
		<stop  offset="0.95" style="stop-color:#FFCA04;stop-opacity:0.94"/>
		<stop  offset="1" style="stop-color:#FFCA04"/>
	</linearGradient>
	<path style="fill:url(#SVGID_00000083058329839759019450000010141166860903956915_);" d="M62.4,38.6c-0.5,1.2-1.1,2.4-1.7,3.5
		c-2.5-10.7-9.1-20.1-18.4-26c-1.6-1-3.2-1.9-4.9-2.7c-6.9-3.2-14.5-4.5-22-3.8C28.6-1.2,47-3.1,62.1,4.9v0c0.9,2,1.6,4.1,2.2,6.3
		C66.8,20.3,66.1,30,62.4,38.6z"/>
	
		<linearGradient id="SVGID_00000087394962240425941550000002161404021304985986_" gradientUnits="userSpaceOnUse" x1="82.8246" y1="28.0536" x2="18.977" y2="5.4505" gradientTransform="matrix(1 0 0 -1 0 82.0566)">
		<stop  offset="0" style="stop-color:#EE376D;stop-opacity:0"/>
		<stop  offset="0.14" style="stop-color:#E9376D;stop-opacity:6.000000e-02"/>
		<stop  offset="0.37" style="stop-color:#DB386E;stop-opacity:0.22"/>
		<stop  offset="0.68" style="stop-color:#C6396F;stop-opacity:0.48"/>
		<stop  offset="1" style="stop-color:#AB3B70;stop-opacity:0.8"/>
	</linearGradient>
	<path style="fill:url(#SVGID_00000087394962240425941550000002161404021304985986_);" d="M84.6,42.4C84.7,55,79,67,69.3,75
		c-1.6,1.3-3.5,2.7-4.3,3.1c-11.7-1.2-22.5-7.2-29.6-16.6c-0.8-1-1.5-2.1-2.2-3.2c20.2,6.3,42-3.3,51-22.5l0,0
		C84.5,37.9,84.6,40.1,84.6,42.4z"/>
</g>
</svg>
