<?xml version="1.0" encoding="utf-8"?>
<!-- Generator: Adobe Illustrator 27.3.1, SVG Export Plug-In . SVG Version: 6.00 Build 0)  -->
<svg version="1.1"
	 id="svg2424" xmlns:rdf="http://www.w3.org/1999/02/22-rdf-syntax-ns#" xmlns:cc="http://creativecommons.org/ns#" xmlns:inkscape="http://www.inkscape.org/namespaces/inkscape" xmlns:dc="http://purl.org/dc/elements/1.1/" xmlns:svg="http://www.w3.org/2000/svg" xmlns:sodipodi="http://sodipodi.sourceforge.net/DTD/sodipodi-0.dtd"
	 xmlns="http://www.w3.org/2000/svg" xmlns:xlink="http://www.w3.org/1999/xlink" x="0px" y="0px" viewBox="0 0 597.7 121"
	 style="enable-background:new 0 0 597.7 121;" xml:space="preserve">
<style type="text/css">
	.st0{fill-rule:evenodd;clip-rule:evenodd;fill:#FFFFFF;}
	.st1{fill-rule:evenodd;clip-rule:evenodd;fill:#1793D1;}
	.st2{fill:#808080;}
</style>
<sodipodi:namedview  bordercolor="#666666" borderopacity="1" gridtolerance="10" guidetolerance="10" id="namedview112" inkscape:current-layer="g2424" inkscape:cx="335.62219" inkscape:cy="55.090984" inkscape:pageopacity="0" inkscape:pageshadow="2" inkscape:window-height="726" inkscape:window-maximized="0" inkscape:window-width="1362" inkscape:window-x="0" inkscape:window-y="16" inkscape:zoom="2.015" objecttolerance="10" pagecolor="#ffffff" showgrid="false">
	</sodipodi:namedview>
<g id="layer1" transform="matrix(0.7,0,0,0.7,-37.866513,-100.53407)">
	<g id="g2424" transform="matrix(0.8746356,0,0,0.8746356,14.730518,23.408954)">
		<g id="g2809" transform="matrix(1.0033516,0,0,1.0033516,-35.47395,-116.45699)">
			<path id="path2284" inkscape:connector-curvature="0" class="st0" d="M337.7,306.2c-14.5,0-26.5,2.9-31.1,4.6l-4.8,25.8
				c0,0.1,23.8-6.3,34.3-6c17.4,0.6,19,6.6,18.7,14.8c0.3,0.5-4.5-7.3-19.5-7.6c-18.9-0.3-45.7,6.7-45.7,35.3
				c-0.5,32.2,24,41.6,40.7,41.8c15-0.3,22.1-5.7,25.9-8.6c5.1-5.3,10.9-10.6,16.4-17c-5.2,9.5-9.8,16.1-14.5,21.1v4.2l22.8-3.8
				l0.2-62.1C380.9,339.9,386.2,306.3,337.7,306.2z M334.4,360.3c9.5,0.1,20.3,4.8,20.3,16c0,10.2-12.8,15.7-21.2,15.6
				c-8.4-0.1-19.5-6.6-19.5-16.5C314.2,366.5,324.5,360,334.4,360.3z"/>
			<path id="path2286" inkscape:connector-curvature="0" class="st0" d="M396.2,311.9l-0.2,102.8l26.6-5.1l0-58.3
				c0-8.7,12.4-18.8,28-18.7c3.3-6,9.5-21.2,11-24.7c-34.8-0.1-35.2,10-41.2,14.9c-0.1-9.5,0-15.1,0-15.1L396.2,311.9L396.2,311.9z"
				/>
			<path id="path2288" inkscape:connector-curvature="0" class="st0" d="M546,325.4c-0.3-0.1-13.9-15.9-41.3-16.1
				c-25.7-0.4-54.4,9.5-54.9,52.5c0.2,37.8,27.6,52.6,55,52.9c29.3,0.3,41-18.3,41.7-18.8c-3.5-3-16.6-16-16.6-16
				s-8.2,11.7-24.1,11.8c-15.9,0.2-29.7-12.3-29.9-29.6c-0.2-17.3,12.7-26.7,30-27.5c15,0,23.6,9.7,23.6,9.7L546,325.4z"/>
			<path id="path2290" inkscape:connector-curvature="0" class="st0" d="M579.5,275.9l-25.1,5.9l0.2,133.9l24.8-4.5l0.3-63
				c0.1-6.6,9.6-16.8,25.4-16.4c15.2,0.2,18.6,10.1,18.5,11.4l0.4,73l24.4-4.3l0.1-77.4c0.2-7.4-16.3-23.2-42.8-23.3
				c-12.6,0-19.5,2.9-23.1,5c-6.1,4.7-13,9.2-19.8,14.9c6.3-8.1,11.6-13.7,16.8-17.8L579.5,275.9L579.5,275.9z"/>
		</g>
		<g id="g5326" transform="matrix(1.4854426,0,0.02102071,1.4854426,24.809906,-769.96118)">
			<path id="path2292" inkscape:connector-curvature="0" class="st1" d="M399.2,627.8l7.7-1.9l-0.9,91.2l-7.8,1.3L399.2,627.8z"/>
			<path id="path2294" inkscape:connector-curvature="0" class="st1" d="M419.6,655.1l6.8-3l-0.9,65.4l-6.5,1.3L419.6,655.1z
				 M418.3,631.5l5.5-4.4l4.4,5l-5.5,4.5L418.3,631.5z"/>
			<path id="path2296" inkscape:connector-curvature="0" class="st1" d="M438.9,653.9l7.7-1.6l-0.2,13.7c0,0.6,4.4-15.3,24.7-14.9
				c19.7,0.1,22.7,15.3,22.5,18.8l-0.4,48.1l-6.7,1.5l0.6-47.5c0.1-1.4-2.9-13.1-16.8-13.2c-13.9,0-23.7,10.1-23.8,16.6l-0.5,41.8
				l-7.8,2L438.9,653.9z"/>
			<path id="path2298" inkscape:connector-curvature="0" class="st1" d="M560,718.2l-7.7,1.6l0.2-13.7c0-0.6-4.4,15.3-24.7,14.9
				c-19.7-0.1-22.7-15.3-22.5-18.8l0.4-48.1l8.2-1.6l-0.5,47.5c0,1.3,1.4,13.3,15.3,13.3c13.9,0,23.8-8.4,24-21l0.4-37.5l7.6-1.9
				L560,718.2z"/>
			<path id="path2300" inkscape:connector-curvature="0" class="st1" d="M575.9,653.3l-5.4,4.2l20.2,26.9l-22.4,31.1l5.6,4.2
				l21-28.9l20.9,29.6l5.3-4.2l-22.4-31.6l18.6-25.6l-5.5-4.7L594.9,678L575.9,653.3z"/>
		</g>
		<path id="path2518" inkscape:connector-curvature="0" class="st1" d="M143.8,137.4c-8.8,21.6-14.1,35.7-23.9,56.6
			c6,6.4,13.4,13.8,25.3,22.1c-12.9-5.3-21.6-10.6-28.2-16.1c-12.5,26.2-32.2,63.4-72,135c31.3-18.1,55.6-29.2,78.2-33.5
			c-1-4.2-1.5-8.7-1.5-13.4l0-1c0.5-20.1,10.9-35.5,23.3-34.4s22,18.2,21.5,38.2c-0.1,3.8-0.5,7.4-1.3,10.8
			c22.4,4.4,46.4,15.5,77.3,33.3c-6.1-11.2-11.5-21.3-16.7-31c-8.2-6.3-16.7-14.6-34.1-23.5c12,3.1,20.5,6.7,27.2,10.7
			C166.2,193,161.9,179.9,143.8,137.4L143.8,137.4z"/>
		<g id="text2634" transform="matrix(3.8808,0,0,3.8808,-1673.0935,-734.12067)">
			<path id="path3660" inkscape:connector-curvature="0" class="st2" d="M684.9,263.1v-5.3h-2V257h4.8v0.7h-2v5.3H684.9"/>
			<path id="path3662" inkscape:connector-curvature="0" class="st2" d="M688.5,263.1v-6h1.2l1.4,4.3c0.1,0.4,0.2,0.7,0.3,0.9
				c0.1-0.2,0.2-0.5,0.3-1l1.4-4.2h1.1v6h-0.8V258l-1.8,5.1H691l-1.7-5.1v5.1H688.5"/>
		</g>
	</g>
</g>
</svg>
