<?xml version="1.0" encoding="utf-8"?>
<!-- Generator: Adobe Illustrator 16.0.3, SVG Export Plug-In . SVG Version: 6.00 Build 0)  -->
<!DOCTYPE svg PUBLIC "-//W3C//DTD SVG 1.1//EN" "http://www.w3.org/Graphics/SVG/1.1/DTD/svg11.dtd">
<svg version="1.1" id="Layer_1" xmlns="http://www.w3.org/2000/svg" xmlns:xlink="http://www.w3.org/1999/xlink" x="0px" y="0px"
	 width="101.229px" height="32.002px" viewBox="9.006 14.209 101.229 32.002" enable-background="new 9.006 14.209 101.229 32.002"
	 xml:space="preserve">
<path fill="#4D4D4D" d="M42.597,24.207c-1.472-0.002-2.694,0.3-3.166,0.464l-0.486,2.626c-0.001,0.01,2.42-0.646,3.487-0.607
	c1.766,0.063,1.93,0.675,1.898,1.5c0.03,0.048-0.456-0.746-1.984-0.772c-1.928-0.033-4.648,0.682-4.644,3.592
	c-0.052,3.273,2.445,4.236,4.145,4.254c1.53-0.029,2.246-0.58,2.638-0.875l1.67-1.731c-0.533,0.968-0.994,1.637-1.475,2.149v0.433
	l2.324-0.4l0.016-6.316c-0.024-0.894,0.513-4.315-4.422-4.323L42.597,24.207z M42.263,29.707c0.963,0.013,2.068,0.488,2.07,1.63
	c0.005,1.04-1.302,1.599-2.152,1.601c-0.85,0.002-1.98-0.668-1.984-1.683c0.016-0.906,1.064-1.562,2.066-1.54V29.707z M48.55,24.8
	l-0.016,10.46l2.707-0.521l0.005-5.93c0.001-0.883,1.262-1.915,2.844-1.898c0.336-0.608,0.967-2.16,1.12-2.514
	c-3.535-0.008-3.58,1.016-4.195,1.52l-0.002-1.54L48.55,24.8L48.55,24.8z M63.785,26.164c-0.026-0.012-1.412-1.62-4.198-1.634
	c-2.6-0.043-5.536,0.968-5.583,5.344c0.023,3.847,2.812,5.351,5.598,5.38c2.982,0.03,4.167-1.863,4.24-1.9
	c-0.355-0.308-1.688-1.629-1.688-1.629s-0.832,1.185-2.447,1.199c-1.615,0.016-3.02-1.248-3.04-3.012
	c-0.02-1.764,1.3-2.72,3.05-2.796c1.524,0,2.404,0.984,2.404,0.984L63.785,26.164z M67.198,21.13l-2.556,0.6l0.02,13.624
	l2.518-0.455l0.03-6.412c0.005-0.672,0.974-1.705,2.588-1.672c1.544,0.016,1.899,1.03,1.886,1.157l0.045,7.422l2.482-0.44l0.01-7.87
	c0.016-0.757-1.66-2.357-4.352-2.368c-1.28,0.002-1.988,0.292-2.35,0.505l-2.021,1.52c0.64-0.823,1.178-1.392,1.704-1.815
	L67.198,21.13L67.198,21.13z"/>
<path fill="#1793D1" d="M76.373,21.484l1.152-0.3l0.056,13.735l-1.17,0.2L76.373,21.484z M79.507,25.584l1-0.45l0.011,9.851
	l-0.977,0.201L79.507,25.584z M79.268,22.032l0.814-0.665l0.677,0.753l-0.815,0.683L79.268,22.032z M82.417,25.404l1.153-0.235
	l0.005,2.06c0,0.088,0.633-2.3,3.687-2.247c2.963,0.016,3.449,2.3,3.432,2.826l0.037,7.24l-1,0.22l-0.006-7.151
	c0.012-0.2-0.461-1.975-2.556-1.98c-2.094-0.005-3.545,1.521-3.543,2.497l0.017,6.301l-1.17,0.306L82.417,25.404z M100.8,35.098
	l-1.153,0.235l-0.004-2.06c0-0.088-0.634,2.3-3.687,2.246c-2.964-0.016-3.45-2.3-3.433-2.826l-0.037-7.239l1.225-0.247l0.02,7.152
	c0.002,0.195,0.234,2.002,2.33,2c2.097-0.004,3.561-1.26,3.572-3.17l-0.015-5.644l1.14-0.3L100.8,35.098z M103.05,25.322
	l-0.808,0.633l3.1,4.056l-3.306,4.687l0.858,0.636L106,30.982l3.207,4.455L110,34.805l-3.438-4.763l2.742-3.852l-0.843-0.713
	l-2.498,3.564L103.05,25.322z M25.145,14.85l-3.664,8.678c0.92,0.976,2.05,2.112,3.886,3.396c-1.973-0.812-3.32-1.627-4.325-2.473
	c-1.922,4-4.932,9.722-11.042,20.699c4.802-2.771,8.525-4.481,11.994-5.133c-0.157-0.675-0.233-1.365-0.228-2.058l0.006-0.153
	c0.076-3.078,1.677-5.442,3.573-5.283c1.896,0.16,3.37,2.787,3.293,5.863c-0.012,0.556-0.077,1.109-0.194,1.652
	c3.432,0.67,7.114,2.376,11.85,5.1l-2.564-4.746c-1.254-0.972-2.562-2.236-5.23-3.606c1.834,0.478,3.147,1.026,4.17,1.64
	c-8.095-15.072-8.75-17.074-11.527-23.6L25.145,14.85z"/>
</svg>
