<?xml version="1.0" encoding="utf-8"?>
<!-- Generator: Adobe Illustrator 27.3.1, SVG Export Plug-In . SVG Version: 6.00 Build 0)  -->
<svg version="1.1" id="Layer_1" xmlns="http://www.w3.org/2000/svg" xmlns:xlink="http://www.w3.org/1999/xlink" x="0px" y="0px"
	 viewBox="0 0 400.6 121.5" style="enable-background:new 0 0 400.6 121.5;" xml:space="preserve">
<style type="text/css">
	.st0{fill:#4D4D4D;}
	.st1{fill:#1793D1;}
</style>
<path class="st0" d="M130.6,37.6c-5.9,0-10.8,1.2-12.7,1.9L116,50c0,0,9.7-2.6,14-2.4c7.1,0.3,7.7,2.7,7.6,6c0.1,0.2-1.8-3-7.9-3.1
	c-7.7-0.1-18.6,2.7-18.6,14.4c-0.2,13.1,9.8,17,16.6,17c6.1-0.1,9-2.3,10.6-3.5l6.7-6.9c-2.1,3.9-4,6.6-5.9,8.6v1.7l9.3-1.6
	l0.1-25.3C148.2,51.3,150.4,37.6,130.6,37.6L130.6,37.6z M129.3,59.6c3.9,0.1,8.3,2,8.3,6.5c0,4.2-5.2,6.4-8.6,6.4
	c-3.4,0-7.9-2.7-7.9-6.7C121,62.2,125.2,59.6,129.3,59.6L129.3,59.6z M154.4,40l-0.1,41.9l10.8-2.1l0-23.8c0-3.5,5.1-7.7,11.4-7.6
	c1.3-2.4,3.9-8.7,4.5-10.1c-14.2,0-14.3,4.1-16.8,6.1l0-6.2L154.4,40L154.4,40z M215.5,45.4c-0.1,0-5.7-6.5-16.8-6.5
	c-10.4-0.2-22.2,3.9-22.4,21.4c0.1,15.4,11.3,21.4,22.4,21.6c11.9,0.1,16.7-7.5,17-7.6c-1.4-1.2-6.8-6.5-6.8-6.5s-3.3,4.7-9.8,4.8
	c-6.5,0.1-12.1-5-12.2-12.1c-0.1-7.1,5.2-10.9,12.2-11.2c6.1,0,9.6,3.9,9.6,3.9L215.5,45.4z M229.2,25.3l-10.2,2.4l0.1,54.6
	l10.1-1.8l0.1-25.7c0-2.7,3.9-6.8,10.4-6.7c6.2,0.1,7.6,4.1,7.6,4.6l0.2,29.7l9.9-1.8l0-31.5c0.1-3-6.7-9.4-17.4-9.5
	c-5.1,0-8,1.2-9.4,2l-8.1,6.1c2.6-3.3,4.7-5.6,6.8-7.3L229.2,25.3L229.2,25.3z"/>
<path class="st1" d="M265.9,26.7l4.6-1.2l0.2,55l-4.7,0.8L265.9,26.7z M278.5,43.1l4-1.8l0,39.5l-3.9,0.8L278.5,43.1z M277.5,28.9
	l3.3-2.7l2.7,3l-3.3,2.7L277.5,28.9z M290.1,42.4l4.6-0.9l0,8.3c0,0.4,2.5-9.2,14.8-9c11.9,0.1,13.8,9.2,13.7,11.3l0.1,29l-4,0.9
	l0-28.6c0-0.8-1.8-7.9-10.2-7.9c-8.4,0-14.2,6.1-14.2,10l0.1,25.2l-4.7,1.2L290.1,42.4z M363.8,81.2l-4.6,0.9l0-8.3
	c0-0.4-2.5,9.2-14.8,9c-11.9-0.1-13.8-9.2-13.8-11.3l-0.1-29l4.9-1l0.1,28.7c0,0.8,0.9,8,9.3,8c8.4,0,14.3-5,14.3-12.7L359,42.9
	l4.6-1.2L363.8,81.2z M372.8,42.1l-3.2,2.5L382,60.8l-13.2,18.8l3.4,2.5l12.4-17.4l12.8,17.8l3.2-2.5L386.9,61l11-15.4l-3.4-2.9
	l-10,14.3L372.8,42.1z M60.7,0.1L46,34.9c3.7,3.9,8.2,8.5,15.6,13.6c-7.9-3.3-13.3-6.5-17.3-9.9c-7.7,16-19.8,38.9-44.2,82.9
	c19.2-11.1,34.2-18,48.1-20.6c-0.6-2.7-0.9-5.5-0.9-8.2l0-0.6c0.3-12.3,6.7-21.8,14.3-21.2c7.6,0.6,13.5,11.2,13.2,23.5
	c0,2.2-0.3,4.4-0.8,6.6c13.7,2.7,28.5,9.5,47.5,20.4l-10.3-19c-5-3.9-10.3-9-21-14.4c7.3,1.9,12.6,4.1,16.7,6.6
	C74.4,34.2,71.8,26.1,60.7,0.1L60.7,0.1z"/>
</svg>
