<?xml version="1.0" encoding="utf-8"?>
<!-- Generator: Adobe Illustrator 27.3.1, SVG Export Plug-In . SVG Version: 6.00 Build 0)  -->
<svg version="1.1" id="Layer_1" xmlns="http://www.w3.org/2000/svg" xmlns:xlink="http://www.w3.org/1999/xlink" x="0px" y="0px"
	 viewBox="0 0 110 36.8" style="enable-background:new 0 0 110 36.8;" xml:space="preserve">
<style type="text/css">
	.st0{fill:#283343;}
	.st1{fill:url(#SVGID_1_);}
</style>
<path class="st0" d="M51.3,22.3c-2.1,0-3.9-1.8-3.9-3.9s1.7-3.9,3.9-3.9s3.9,1.8,3.9,3.9S53.4,22.3,51.3,22.3L51.3,22.3z M55.2,22.8
	c0,0.4,0.6,1.4,1.4,1.4h0.5c0.2,0,0.3-0.2,0.3-0.3V13.1c0-0.2-0.2-0.3-0.3-0.3h-1.5c-0.2,0-0.3,0.1-0.3,0.3h0v0.9
	c-0.9-1.1-2.4-1.6-3.9-1.6c-3.4,0-6.1,2.7-6.1,6.1s2.7,6.1,6.1,6.1C52.8,24.5,54.4,23.9,55.2,22.8L55.2,22.8z M61,21.3
	c1,0.7,2.1,1,3.2,1c1,0,2.1-0.5,2.1-1.4c0-1.2-2.3-1.4-3.7-1.9c-1.4-0.5-2.7-1.5-2.7-3.1c0-2.5,2.2-3.5,4.3-3.5
	c1.3,0,2.7,0.4,3.6,1.1c0.3,0.2,0.1,0.5,0.1,0.5l-0.8,1.2c-0.1,0.1-0.3,0.2-0.5,0.1c-0.6-0.4-1.2-0.7-2.3-0.7c-1.4,0-2,0.6-2,1.3
	c0,0.9,1,1.1,2.2,1.4c2,0.5,4.2,1.2,4.2,3.7c0,2.2-2.1,3.6-4.3,3.6c-1.7,0-3.2-0.5-4.4-1.4c-0.3-0.3-0.1-0.5-0.1-0.5l0.8-1.2
	C60.7,21.2,61,21.2,61,21.3L61,21.3z M80,22.8c0,0.4,0.6,1.4,1.4,1.4h0.5c0.2,0,0.3-0.2,0.3-0.3l0-10.8c0-0.2-0.2-0.3-0.3-0.3h-1.5
	c-0.2,0-0.3,0.1-0.3,0.3h0v0.9c-0.9-1.1-2.4-1.6-3.9-1.6c-3.4,0-6.1,2.7-6.1,6.1s2.7,6.1,6.1,6.1C77.6,24.5,79.2,23.9,80,22.8
	L80,22.8z M76.1,22.3c-2.1,0-3.9-1.8-3.9-3.9s1.7-3.9,3.9-3.9s3.9,1.8,3.9,3.9S78.3,22.3,76.1,22.3L76.1,22.3z M95.9,23.2l0-5.6
	c0-3.2-2-5.3-5.2-5.3c-1.5,0-2.8,0.9-3.2,1.6v0l0,0c0-0.8-0.6-1.2-1.4-1.2h-0.5c-0.2,0-0.3,0.2-0.3,0.3l0,10.8
	c0,0.2,0.2,0.3,0.3,0.3h1.5c0,0,0,0,0.1,0c0,0,0,0,0,0l0,0c0,0,0,0,0,0l0,0c0,0,0,0,0,0c0,0,0,0,0-0.1c0-0.1,0.1-0.1,0.1-0.2h0v-6.4
	c0-1.7,1.4-3.1,3.1-3.1s3.1,1.4,3.1,3.1l0,6.4c0,0.2,0.2,0.3,0.3,0.3h1.5c0,0,0,0,0.1,0c0,0,0,0,0,0l0,0c0,0,0,0,0,0l0,0
	c0,0,0,0,0,0c0,0,0,0,0.1-0.1c0-0.1,0.1-0.1,0.1-0.2l0,0L95.9,23.2L95.9,23.2z M107.8,22.8c0,0.4,0.6,1.4,1.4,1.4h0.5
	c0.2,0,0.3-0.2,0.3-0.3l0-10.8c0-0.2-0.2-0.3-0.3-0.3h-1.5c-0.2,0-0.3,0.1-0.3,0.3h0v0.9c-0.9-1.1-2.4-1.6-3.9-1.6
	c-3.4,0-6.1,2.7-6.1,6.1s2.7,6.1,6.1,6.1C105.4,24.5,107,23.9,107.8,22.8L107.8,22.8z M103.9,22.3c-2.1,0-3.9-1.8-3.9-3.9
	s1.7-3.9,3.9-3.9s3.9,1.8,3.9,3.9S106,22.3,103.9,22.3z"/>
<radialGradient id="SVGID_1_" cx="435.4716" cy="-600.5009" r="61.6636" gradientTransform="matrix(0.4278 0 0 -0.3954 -166.369 -217.3191)" gradientUnits="userSpaceOnUse">
	<stop  offset="0" style="stop-color:#FFB900"/>
	<stop  offset="0.6" style="stop-color:#F95D8F"/>
	<stop  offset="0.9991" style="stop-color:#F95353"/>
</radialGradient>
<path class="st1" d="M31.2,19.5c-4.8,0-8.7,3.9-8.7,8.7c0,4.8,3.9,8.7,8.7,8.7c4.8,0,8.7-3.9,8.7-8.7C39.8,23.4,35.9,19.5,31.2,19.5
	z M8.7,19.5c-4.8,0-8.7,3.9-8.7,8.7c0,4.8,3.9,8.7,8.7,8.7c4.8,0,8.7-3.9,8.7-8.7C17.3,23.4,13.4,19.5,8.7,19.5z M28.6,8.7
	c0,4.8-3.9,8.7-8.7,8.7c-4.8,0-8.7-3.9-8.7-8.7c0-4.8,3.9-8.7,8.7-8.7C24.7,0,28.6,3.9,28.6,8.7z"/>
</svg>
