<?xml version="1.0" encoding="utf-8"?>
<!-- Generator: Adobe Illustrator 16.0.3, SVG Export Plug-In . SVG Version: 6.00 Build 0)  -->
<!DOCTYPE svg PUBLIC "-//W3C//DTD SVG 1.1//EN" "http://www.w3.org/Graphics/SVG/1.1/DTD/svg11.dtd">
<svg version="1.1" id="Layer_1" xmlns="http://www.w3.org/2000/svg" xmlns:xlink="http://www.w3.org/1999/xlink" x="0px" y="0px"
	 width="800px" height="534px" viewBox="0 87.5 800 534" enable-background="new 0 87.5 800 534" xml:space="preserve">
<g>
	<path fill="#283343" d="M75.127,591.285c-26.363,0-47.734-21.842-47.734-48.789c0-26.943,21.371-48.788,47.734-48.788
		c26.364,0,47.73,21.845,47.73,48.788C122.857,569.443,101.491,591.285,75.127,591.285L75.127,591.285z M123.011,597.474
		c0,4.467,7.654,17.018,17.036,17.018h6.076c2.355,0,4.283-1.93,4.283-4.284V476.695h-0.025c-0.122-2.248-1.984-4.05-4.258-4.05
		h-18.826c-2.277,0-4.136,1.802-4.264,4.05h-0.021v10.85c-11.535-14.208-29.721-20.103-47.958-20.103
		C33.6,467.442,0,501.042,0,542.496c0,41.453,33.6,75.059,75.053,75.059c18.237,0,38.112-7.074,47.956-20.1L123.011,597.474z
		 M195.383,578.353c12.567,8.704,26.285,12.933,39.466,12.933c12.561,0,25.542-6.512,25.542-17.842
		c0-15.129-28.291-17.484-46.064-23.524c-17.779-6.04-33.092-18.531-33.092-38.755c0-30.944,27.574-43.727,53.309-43.727
		c16.308,0,33.132,5.378,44.04,13.081c3.759,2.845,1.469,6.114,1.469,6.114l-10.412,14.871c-1.17,1.674-3.596,3.013-6.153,1.308
		c-7.014-4.637-14.828-9.104-28.943-9.104c-17.473,0-25.16,7.253-25.16,16.238c0,10.78,12.293,14.17,26.692,17.845
		c25.094,6.761,52.465,14.894,52.465,45.653c0,27.265-25.505,44.116-53.693,44.116c-21.359,0-39.546-6.091-54.799-17.283
		c-3.176-3.18-0.958-6.133-0.958-6.133l10.362-14.793C191.562,576.582,194.22,577.549,195.383,578.353z M429.727,597.474
		c0,4.467,7.654,17.018,17.036,17.018h6.073c2.357,0,4.287-1.93,4.287-4.284V476.695h-0.025c-0.126-2.248-1.985-4.05-4.262-4.05
		h-18.825c-2.277,0-4.137,1.802-4.261,4.05h-0.023v10.85c-11.534-14.208-29.722-20.103-47.955-20.103
		c-41.453,0-75.058,33.6-75.058,75.054c0,41.453,33.604,75.059,75.058,75.059c18.233,0,38.109-7.074,47.953-20.1L429.727,597.474z
		 M381.843,591.285c-26.364,0-47.734-21.842-47.734-48.789c0-26.943,21.37-48.788,47.734-48.788
		c26.362,0,47.732,21.845,47.732,48.788C429.575,569.443,408.205,591.285,381.843,591.285z M625.791,602.063l-0.008-69.084h0.002
		c0-38.945-24.569-65.217-63.75-65.217c-18.7,0-34.002,10.814-39.417,20.104v-0.13l-0.032,0.106
		c-0.011-9.401-7.636-14.875-17.035-14.875h-6.044c-2.359,0-4.286,1.93-4.286,4.286v120.555v0.021v12.944h0.025
		c0.121,2.248,1.985,4.053,4.261,4.053h18.825c0.287,0,0.571-0.034,0.846-0.086c0.125-0.026,0.238-0.075,0.359-0.11
		c0.143-0.042,0.288-0.076,0.42-0.132c0.17-0.068,0.32-0.163,0.478-0.25c0.075-0.046,0.156-0.079,0.23-0.125
		c0.185-0.122,0.359-0.269,0.525-0.418c0.028-0.028,0.061-0.047,0.087-0.073c0.188-0.18,0.358-0.376,0.51-0.586l0.003-0.003
		c0.471-0.647,0.756-1.426,0.803-2.27h0.025v-78.866c0-20.916,16.957-37.873,37.874-37.873c20.918,0,37.876,16.957,37.876,37.873
		l0.015,65.925l0.006-0.023c0,0.058,0.01,0.119,0.01,0.18v12.785h0.025c0.125,2.248,1.984,4.053,4.262,4.053h18.825
		c0.29,0,0.568-0.034,0.843-0.086c0.112-0.025,0.215-0.069,0.321-0.096c0.158-0.046,0.315-0.086,0.463-0.146
		c0.152-0.065,0.294-0.152,0.438-0.233c0.089-0.049,0.183-0.087,0.268-0.142c0.177-0.117,0.335-0.255,0.491-0.39
		c0.04-0.035,0.085-0.066,0.122-0.103c0.18-0.172,0.335-0.358,0.482-0.552c0.01-0.018,0.022-0.029,0.034-0.043
		c0.465-0.641,0.746-1.413,0.797-2.251c0-0.005,0.002-0.012,0.002-0.012h0.022v-8.707L625.791,602.063z M772.607,597.474
		c0,4.467,7.646,17.018,17.027,17.018h6.08c2.354,0,4.285-1.93,4.285-4.284V476.695h-0.022c-0.126-2.248-1.989-4.05-4.263-4.05
		h-18.822c-2.285,0-4.137,1.802-4.263,4.05h-0.022v10.85c-11.542-14.208-29.724-20.103-47.963-20.103
		c-41.449,0-75.054,33.6-75.054,75.054c0,41.453,33.604,75.059,75.054,75.059c18.239,0,38.112-7.074,47.951-20.1L772.607,597.474z
		 M724.725,591.285c-26.364,0-47.734-21.842-47.734-48.789c0-26.943,21.37-48.788,47.734-48.788
		c26.353,0,47.723,21.845,47.723,48.788C772.447,569.443,751.077,591.285,724.725,591.285z"/>
	
		<radialGradient id="SVGID_1_" cx="250.687" cy="549.9688" r="0.6629" gradientTransform="matrix(302.4377 0 0 -279.5446 -75416.1328 153986.3281)" gradientUnits="userSpaceOnUse">
		<stop  offset="0" style="stop-color:#FFB900"/>
		<stop  offset="0.6" style="stop-color:#F95D8F"/>
		<stop  offset="0.9991" style="stop-color:#F95353"/>
	</radialGradient>
	<path fill="url(#SVGID_1_)" d="M486.664,240.431c-36.33,0-65.775,29.447-65.775,65.773c0,36.329,29.445,65.778,65.775,65.778
		c36.325,0,65.773-29.449,65.773-65.778C552.438,269.878,522.989,240.431,486.664,240.431L486.664,240.431z M315.774,240.435
		c-36.325,0-65.774,29.443-65.774,65.772c0,36.325,29.449,65.774,65.774,65.774c36.328,0,65.778-29.449,65.778-65.774
		C381.553,269.878,352.103,240.435,315.774,240.435L315.774,240.435z M466.992,158.211c0,36.326-29.446,65.78-65.771,65.78
		c-36.329,0-65.776-29.454-65.776-65.78c0-36.324,29.447-65.773,65.776-65.773C437.546,92.438,466.992,121.887,466.992,158.211
		L466.992,158.211z"/>
</g>
</svg>
