<?xml version="1.0" encoding="utf-8"?>
<!-- Generator: Adobe Illustrator 27.3.1, SVG Export Plug-In . SVG Version: 6.00 Build 0)  -->
<svg version="1.1" id="Layer_1" xmlns="http://www.w3.org/2000/svg" xmlns:xlink="http://www.w3.org/1999/xlink" x="0px" y="0px"
	 viewBox="0 0 358 94.8" style="enable-background:new 0 0 358 94.8;" xml:space="preserve">
<style type="text/css">
	.st0{fill-rule:evenodd;clip-rule:evenodd;fill:#FF5D01;}
</style>
<path d="M50.1,9.1l16.8,54.9c-6.5-3.4-13.5-5.7-20.8-7L34.9,19c-0.2-0.8-1.1-1.2-1.8-1c-0.5,0.1-0.8,0.5-1,1L20.9,56.9
	c-7.3,1.3-14.3,3.6-20.9,7L16.9,9c1-3.2,1.5-4.9,2.5-6.1c0.9-1.1,2-1.9,3.2-2.4C24,0,25.7,0,29.1,0h8.8c3.4,0,5.1,0,6.5,0.6
	c1.3,0.5,2.4,1.3,3.2,2.4C48.6,4.2,49.1,5.8,50.1,9.1L50.1,9.1z"/>
<path class="st0" d="M49.7,66.6c-2.9,2.4-8.6,4.1-15.2,4.1c-8.1,0-14.9-2.5-16.6-5.9c-0.6,1.9-0.8,4.1-0.8,5.5c0,0-0.4,6.9,4.4,11.7
	c0-2.5,2-4.5,4.6-4.5c4.3,0,4.3,3.7,4.3,6.8v0.3c0,4.6,2.8,8.5,6.9,10.2c-0.6-1.3-0.9-2.7-0.9-4.1c0-4.4,2.6-6,5.6-7.9
	c2.4-1.5,5.1-3.2,6.9-6.6c1-1.8,1.5-3.8,1.5-5.9C50.3,69.1,50,67.8,49.7,66.6z"/>
<path d="M121.6,63.8c13.1,0,21-3.1,25.7-9.7c0,2.9,0.2,5.7,0.6,8.2h7.8c-0.7-4.1-0.9-6.8-0.9-14.1v-10c0-10.8-8.4-16.6-24.4-16.6
	c-15.5,0-25.5,6-26.8,14.6h8.2c1.3-5.8,7.8-8.9,18.5-8.9c10.6,0,16.9,3.7,16.9,10v0.8l-24.5,1.4c-10,0.5-13.7,2-16.5,4
	c-2.7,2-4.2,5-4.2,8.6C102,59.5,109.7,63.8,121.6,63.8z M124.1,58.3c-9.1,0-14.1-2.1-14.1-6.4c0-4.6,3.1-6.6,14.2-7.3l23-1.4V45
	C147.2,53.2,137.5,58.3,124.1,58.3L124.1,58.3z M191.1,63.8c16.3,0,22.8-5.3,22.8-13.1c0-6.4-4-9.7-14.2-10.6l-19.1-1.5
	c-5.2-0.4-8.1-1.9-8.1-5.1c0-4.1,4.5-6.2,14.1-6.2c11,0,16.7,2.2,20.5,7.1l6.4-3.1c-3.9-6.1-12.6-9.7-26.2-9.7
	c-13.9,0-22.2,4.6-22.2,12.2c0,6.8,4.9,10.1,14.3,10.9l18.9,1.5c6.2,0.5,8.1,1.7,8.1,4.9c0,4.6-4.8,6.8-14.3,6.8
	c-11.5,0-18.8-3.1-22.4-8.9l-6.2,3.4C168.4,59.8,176.8,63.8,191.1,63.8z M230,29v18.9c0,7.8,2.7,15.5,17.2,15.5
	c3.7,0,8.2-0.7,10.1-1.6v-6.4c-2.7,0.6-6,1.1-9.3,1.1c-6.8,0-10.5-2.7-10.5-9.4V29h19.6v-5.9h-19.6V9.8l-7.5,3.1v10.2h-12.3V29H230
	L230,29z M275.9,23.1H269v39.2h7.5V47.7c0-5.7,1.1-10.4,4.2-13.7c2.7-3.1,6.3-4.8,12.5-4.8c2.1,0,3.5,0.2,5.3,0.5v-7.2
	c-1.6-0.4-3.1-0.5-5.2-0.5c-8.4,0-15.1,4.9-17.4,12.6L275.9,23.1L275.9,23.1z M329.9,63.8c16.7,0,28.2-8.5,28.2-21.1
	c0-12.6-11.5-21.1-28.2-21.1s-28.2,8.5-28.2,21.1C301.7,55.4,313.1,63.8,329.9,63.8z M329.9,57.6c-12.3,0-20.3-5.8-20.3-14.9
	c0-9.1,7.9-14.9,20.3-14.9c12.3,0,20.3,5.8,20.3,14.9C350.1,51.8,342.1,57.6,329.9,57.6L329.9,57.6z"/>
</svg>
