<?xml version="1.0" encoding="utf-8"?>
<!-- Generator: Adobe Illustrator 27.3.1, SVG Export Plug-In . SVG Version: 6.00 Build 0)  -->
<svg version="1.1" id="Layer_1" xmlns="http://www.w3.org/2000/svg" xmlns:xlink="http://www.w3.org/1999/xlink" x="0px" y="0px"
	 viewBox="0 0 286 101.7" style="enable-background:new 0 0 286 101.7;" xml:space="preserve">
<style type="text/css">
	.st0{fill:#EB5424;}
	.st1{fill:#21264C;}
</style>
<path class="st0" d="M73.1,82.3L62.7,50.9l27-19.4H56.3L46,0h33.4l10.3,31.4C95.8,49.7,89.6,70.4,73.1,82.3L73.1,82.3z M19,82.3
	l27,19.4l27.1-19.4L46,62.9L19,82.3z M2.3,31.4C-4.1,50.7,3.3,71,19,82.3v0l10.3-31.4L2.3,31.4l33.4,0L46,0H12.5L2.3,31.4z"/>
<path class="st1" d="M268,24.6c-5.4,0-9.9,2.5-13.2,7.3c-3.2,4.7-4.9,11.3-4.9,19.1s1.7,14.3,4.9,19.1c3.2,4.7,7.8,7.3,13.2,7.3
	c5.4,0,9.9-2.5,13.2-7.3c3.2-4.7,4.9-11.3,4.9-19.1s-1.7-14.3-4.9-19.1C277.9,27.1,273.3,24.6,268,24.6z M268,70.6
	c-2.6,0-4.6-1.4-6.2-4.4c-1.9-3.6-3-9-3-15.4s1.1-11.8,3-15.4c1.6-3,3.7-4.4,6.2-4.4c2.6,0,4.6,1.4,6.2,4.4c1.9,3.6,3,9,3,15.4
	s-1.1,11.8-3,15.4C272.6,69.2,270.5,70.6,268,70.6z M151.2,43.7v22.6c0,6,4.9,10.8,10.9,10.8c5.2,0,9.2-2.6,10.7-3.7
	c0.1-0.1,0.2-0.1,0.3,0c0.1,0,0.2,0.1,0.2,0.2l0.9,2.9h6.6V43.7h-8.4v24.5c0,0.1-0.1,0.2-0.2,0.3c-1.6,0.8-4.7,2.1-7.8,2.1
	c-2.7,0-4.8-2.1-4.8-4.8V43.7L151.2,43.7z M235.1,76.5h8.4V53.8c0-6-4.9-10.8-10.9-10.8c-4.4,0-8,1.9-9.7,3c-0.1,0.1-0.2,0.1-0.3,0
	s-0.2-0.2-0.2-0.3V25.2h-8.4v51.3h8.4V52c0-0.1,0.1-0.2,0.2-0.3c1.6-0.8,4.7-2.1,7.8-2.1c1.3,0,2.5,0.5,3.4,1.4
	c0.9,0.9,1.4,2.1,1.4,3.4L235.1,76.5z M186.8,50.3h5.1c0.2,0,0.3,0.1,0.3,0.3v18c0,4.7,3.9,8.6,8.7,8.6c1.7,0,3.5-0.3,5.1-0.7v-5.9
	l-2.9,0.1c-1.4,0-2.6-1.1-2.6-2.5V50.6c0-0.2,0.1-0.3,0.3-0.3h5.1v-6.5h-5.1c-0.2,0-0.3-0.1-0.3-0.3V32.6h-8.4v10.8
	c0,0.2-0.1,0.3-0.3,0.3h-5.1L186.8,50.3z M137.8,76.5h8.7l-13.3-45.7c-1.1-3.7-4.5-6.2-8.4-6.2c-3.9,0-7.3,2.6-8.4,6.2l-13.3,45.7
	h8.7l3.8-13.2c0-0.1,0.2-0.2,0.3-0.2h17.5c0.1,0,0.3,0.1,0.3,0.2L137.8,76.5z M131.6,56.5h-13.4c-0.1,0-0.2,0-0.3-0.1
	c-0.1-0.1-0.1-0.2,0-0.3l6.7-23.1c0-0.1,0.2-0.2,0.3-0.2c0.1,0,0.3,0.1,0.3,0.2l6.7,23.1c0,0.1,0,0.2,0,0.3
	C131.8,56.5,131.7,56.5,131.6,56.5L131.6,56.5z"/>
</svg>
