<?xml version="1.0" encoding="utf-8"?>
<!-- Generator: Adobe Illustrator 16.0.3, SVG Export Plug-In . SVG Version: 6.00 Build 0)  -->
<!DOCTYPE svg PUBLIC "-//W3C//DTD SVG 1.1//EN" "http://www.w3.org/Graphics/SVG/1.1/DTD/svg11.dtd">
<svg version="1.1" id="Layer_1" xmlns="http://www.w3.org/2000/svg" xmlns:xlink="http://www.w3.org/1999/xlink" x="0px" y="0px"
	 width="109.192px" height="38.84px" viewBox="5.409 10.58 109.192 38.84" enable-background="new 5.409 10.58 109.192 38.84"
	 xml:space="preserve">
<path fill="#EB5424" d="M33.3,42l-3.944-12l10.32-7.415H26.914L22.97,10.58h12.763l3.948,12.004c2.286,6.96-0.072,14.88-6.4,19.414
	L33.3,42z M12.654,42l10.32,7.42L33.3,42l-10.32-7.415L12.654,42z M6.274,22.58c-2.413,7.343,0.388,15.12,6.377,19.423V42l3.944-12
	L6.274,22.58l12.761,0.004L22.97,10.58H10.2L6.274,22.58z"/>
<path fill="#21264C" d="M107.695,19.955c-2.057,0-3.795,0.96-5.03,2.772c-1.226,1.803-1.877,4.318-1.877,7.273
	s0.647,5.471,1.877,7.273c1.233,1.813,2.974,2.771,5.03,2.771c2.056,0,3.795-0.96,5.029-2.771c1.226-1.803,1.877-4.318,1.877-7.273
	s-0.646-5.47-1.877-7.273C111.491,20.914,109.752,19.955,107.695,19.955z M107.695,37.548c-0.982,0-1.762-0.55-2.377-1.684
	c-0.743-1.367-1.152-3.45-1.152-5.874c0-2.424,0.408-4.506,1.152-5.874c0.615-1.133,1.399-1.684,2.377-1.684
	c0.977,0,1.762,0.55,2.377,1.684c0.742,1.367,1.152,3.45,1.152,5.874c0,2.424-0.408,4.506-1.152,5.874
	C109.452,37.002,108.677,37.548,107.695,37.548z M63.12,27.27v8.636c0,2.275,1.872,4.13,4.176,4.13c2,0,3.53-0.987,4.084-1.4
	c0.032-0.022,0.073-0.032,0.101-0.018c0.026,0.014,0.063,0.04,0.078,0.077l0.334,1.093H74.4V27.27h-3.198v9.352
	c0,0.046-0.022,0.083-0.063,0.106c-0.601,0.307-1.801,0.819-2.979,0.819c-1.014,0-1.84-0.817-1.84-1.817v-8.459L63.12,27.27z
	 M95.145,39.77h3.198v-8.636c0-2.276-1.872-4.13-4.176-4.13c-1.692,0-3.056,0.72-3.717,1.152c-0.038,0.024-0.085,0.026-0.124,0.005
	c-0.039-0.021-0.064-0.062-0.064-0.106v-7.847h-3.197v19.565h3.197v-9.355c0-0.046,0.023-0.083,0.064-0.106
	c0.6-0.307,1.8-0.82,2.979-0.82c0.5,0,0.953,0.188,1.299,0.532c0.347,0.344,0.537,0.798,0.537,1.285L95.145,39.77z M76.703,29.77
	h1.945c0.064,0,0.121,0.055,0.121,0.12v6.883c0,1.808,1.486,3.279,3.317,3.279c0.665,0,1.317-0.096,1.946-0.279v-2.258l-1.088,0.049
	c-0.541,0-0.978-0.436-0.978-0.967v-6.714c0-0.064,0.056-0.12,0.12-0.12h1.946V27.27h-1.946c-0.064,0-0.12-0.055-0.12-0.12v-4.13
	H78.77v4.13c0,0.064-0.055,0.12-0.119,0.12h-1.946L76.703,29.77z M58,39.777h3.327l-5.06-17.445c-0.404-1.4-1.716-2.377-3.2-2.377
	s-2.785,0.977-3.2,2.377l-5.06,17.445h3.327l1.464-5.051c0.014-0.051,0.06-0.088,0.115-0.088H56.4c0.054,0,0.101,0.036,0.115,0.088
	L58,39.777z M55.628,32.156H50.53c-0.037,0-0.073-0.018-0.096-0.047c-0.023-0.027-0.028-0.069-0.018-0.1l2.55-8.8
	c0.014-0.05,0.06-0.087,0.115-0.087c0.053,0,0.1,0.036,0.115,0.087l2.55,8.8c0.01,0.037,0.005,0.073-0.018,0.1
	c-0.023,0.027-0.055,0.047-0.092,0.047H55.628z"/>
</svg>
