<?xml version="1.0" encoding="utf-8"?>
<!-- Generator: Adobe Illustrator 16.0.3, SVG Export Plug-In . SVG Version: 6.00 Build 0)  -->
<!DOCTYPE svg PUBLIC "-//W3C//DTD SVG 1.1//EN" "http://www.w3.org/Graphics/SVG/1.1/DTD/svg11.dtd">
<svg version="1.1" id="Layer_1" xmlns="http://www.w3.org/2000/svg" xmlns:xlink="http://www.w3.org/1999/xlink" x="0px" y="0px"
	 width="280.1px" height="118px" viewBox="9.9 92.2 280.1 118" enable-background="new 9.9 92.2 280.1 118" xml:space="preserve">
<g>
	<g>
		<g>
			<path fill="#FFFFFF" d="M105.9,116.3L68.7,94.2c-4.4-2.6-9.9-2.6-14.4,0l-37.2,22.1c-4.4,2.6-7.2,7.5-7.2,12.8v44.2
				c0,5.3,2.7,10.101,7.2,12.8L54.3,208.2c2.2,1.3,4.7,2,7.2,2s5-0.7,7.2-2l37.2-22.101c4.4-2.6,7.2-7.5,7.2-12.8V129
				C113.1,123.8,110.4,118.9,105.9,116.3z"/>
		</g>
		<g>
			<g>
				<path fill="#2A3238" d="M105.9,116.3L68.7,94.2c-2.2-1.3-4.7-2-7.2-2s-5,0.7-7.2,2l-37.2,22.1c-4.4,2.6-7.2,7.5-7.2,12.8v44.2
					c0,5.3,2.7,10.101,7.2,12.8L54.3,208.2c2.2,1.3,4.7,2,7.2,2s5-0.7,7.2-2l37.2-22.101c4.4-2.6,7.2-7.5,7.2-12.8V129
					C113.1,123.8,110.4,118.9,105.9,116.3z M55.6,205.8l-37.2-22.1c-3.6-2.2-5.9-6.2-5.9-10.5V129c0-4.3,2.3-8.4,5.9-10.5l37.2-22.1
					c1.8-1.1,3.8-1.6,5.9-1.6s4.1,0.6,5.9,1.6l37.2,22.1c3.1,1.8,5.1,5,5.7,8.5c-1.2-2.6-4-3.4-7.3-1.5l-35.1,21.8
					c-4.4,2.6-7.6,5.4-7.6,10.7v43.4c0,3.199,1.3,5.199,3.2,5.8c-0.6,0.1-1.3,0.2-2,0.2C59.5,207.5,57.4,206.9,55.6,205.8z"/>
			</g>
		</g>
		<g>
			<path fill="#4DA925" d="M96.2,177.5l-9.3,5.5c-0.2,0.1-0.4,0.3-0.4,0.6v2.4c0,0.3,0.2,0.4,0.4,0.3l9.4-5.7
				c0.2-0.1,0.3-0.399,0.3-0.699V177.8C96.6,177.5,96.4,177.4,96.2,177.5z"/>
		</g>
		<g>
			<path fill="#FFFFFF" d="M76.4,157.1c0.3-0.199,0.5,0,0.6,0.4v3.2c1.3-0.5,2.5-0.7,3.6-0.4c0.2,0.101,0.3,0.4,0.2,0.7l-0.7,2.8
				c-0.1,0.2-0.2,0.4-0.3,0.601c-0.1,0.1-0.1,0.1-0.2,0.1s-0.2,0.1-0.3,0c-0.5-0.1-1.6-0.4-3.4,0.6c-1.9,1-2.6,2.601-2.5,3.801
				c0,1.5,0.8,1.899,3.3,1.899c3.4,0.101,4.9,1.601,5,5c0,3.4-1.8,7.101-4.6,9.3l0.1,3.2c0,0.4-0.2,0.8-0.5,1l-1.9,1.101
				c-0.3,0.199-0.5,0-0.6-0.4v-3.1c-1.6,0.699-3.2,0.8-4.3,0.399c-0.2-0.1-0.3-0.399-0.2-0.7l0.7-2.899c0.1-0.2,0.2-0.5,0.3-0.601
				c0.1-0.1,0.1-0.1,0.2-0.1c0.1-0.1,0.2-0.1,0.3,0c1.1,0.4,2.6,0.2,3.9-0.5c1.8-0.9,2.9-2.7,2.9-4.5c0-1.6-0.9-2.3-3-2.3
				c-2.7,0-5.2-0.5-5.3-4.5c0-3.3,1.7-6.7,4.4-8.8v-3.2c0-0.4,0.2-0.8,0.5-1L76.4,157.1z"/>
		</g>
	</g>
	<g>
		<path fill="#2A3238" d="M161.2,152.8c-0.9-1.1-2-2.1-3.3-2.9c-0.2-0.1-0.301-0.2-0.5-0.3c1-0.7,1.899-1.5,2.699-2.4
			c0.801-1,1.5-2.1,2-3.3c0.5-1.2,0.7-2.6,0.801-4c0-2.5-0.5-4.7-1.601-6.6c-1.1-1.8-2.5-3.4-4.3-4.5c-1.7-1.1-3.7-2-5.9-2.5
			c-2.1-0.5-4.3-0.8-6.5-0.8h-14.9c-1,0-1.9,0.8-1.9,1.8V174.9c0,1,0.8,1.8,1.9,1.8h16.1c2.3,0,4.6-0.4,6.8-1
			c2.2-0.7,4.2-1.7,5.9-2.9c1.7-1.3,3.2-2.899,4.2-4.899c1.1-2,1.6-4.2,1.5-6.7c0-1.601-0.3-3.101-0.8-4.5
			C162.9,155.2,162.2,154,161.2,152.8z M152.1,142.4c-0.399,0.7-1,1.3-1.7,1.8s-1.6,0.9-2.5,1.2c-1,0.3-2,0.4-3,0.5h-7v-11.6h6.8
			c1.1,0,2.2,0.2,3.2,0.4c1,0.2,1.8,0.6,2.5,1.1c0.7,0.4,1.2,1,1.6,1.7s0.6,1.5,0.6,2.5C152.7,140.9,152.5,141.7,152.1,142.4z
			 M138,154.5h8.2c1.2,0,2.2,0.2,3.2,0.6c0.9,0.301,1.8,0.801,2.4,1.301c0.7,0.6,1.2,1.199,1.601,2.1c0.399,0.8,0.6,1.8,0.5,2.9
			c0,1-0.2,2-0.601,2.8c-0.399,0.8-1,1.5-1.7,2.1c-0.699,0.601-1.6,1-2.6,1.4c-1,0.3-2.1,0.5-3.2,0.5H138V154.5z"/>
		<path fill="#2A3238" d="M192.2,126.8c-0.2-0.7-1-1.2-1.8-1.2H185.1c-0.8,0-1.5,0.5-1.8,1.2L167.1,174.4
			c-0.199,0.5-0.1,1.1,0.301,1.6c0.399,0.5,0.899,0.7,1.5,0.7h6.399c0.8,0,1.601-0.5,1.8-1.3L180.7,164.3H194.6L198.2,175.4
			c0.2,0.8,1,1.3,1.8,1.3h6.3c0.601,0,1.2-0.3,1.5-0.7c0.4-0.5,0.5-1.1,0.3-1.6L192.2,126.8z M191.8,155.5h-8.2l4.101-12.8
			L191.8,155.5z"/>
		<path fill="#2A3238" d="M246.3,154.7c-0.899-1.101-1.899-2.101-3-2.9c-1.1-0.8-2.3-1.6-3.5-2.2s-2.5-1.2-3.899-1.7
			c-1.301-0.5-2.601-0.9-3.9-1.3c-1.1-0.3-2.3-0.7-3.5-1.1c-1.1-0.4-2.2-0.9-3.2-1.5c-0.899-0.5-1.6-1.2-2.2-1.9
			c-0.5-0.7-0.699-1.5-0.8-2.4c0-1,0.2-1.8,0.601-2.5c0.399-0.7,1-1.3,1.6-1.8c0.7-0.5,1.6-0.9,2.5-1.2c2.2-0.6,4.6-0.5,6.4,0.1
			c1,0.4,1.8,0.9,2.5,1.5c0.699,0.6,1.3,1.4,1.699,2.3c0.4,1,0.801,2,0.9,3.2c0.1,0.9,0.9,1.6,1.9,1.6h6.5c0.5,0,1-0.2,1.3-0.5
			c0.399-0.3,0.5-0.8,0.5-1.3c-0.101-2.4-0.601-4.7-1.7-6.7s-2.5-3.7-4.2-5.1c-1.7-1.4-3.7-2.5-5.899-3.2c-4.2-1.4-8.9-1.5-13.4-0.2
			c-2.2,0.6-4.1,1.6-5.8,2.8c-1.7,1.3-3.2,2.8-4.2,4.6c-1.1,1.9-1.7,4-1.7,6.4c0,2.4,0.601,4.5,1.7,6.3c1.1,1.7,2.5,3.2,4.1,4.4
			c1.601,1.2,3.4,2.2,5.4,3c1.9,0.8,3.7,1.5,5.6,2c1.2,0.399,2.4,0.8,3.7,1.199c1.2,0.4,2.3,0.9,3.2,1.5c0.9,0.601,1.6,1.2,2.2,2
			c0.5,0.7,0.7,1.601,0.7,2.7c0,1-0.2,1.8-0.601,2.5c-0.5,0.7-1,1.3-1.8,1.8s-1.6,0.9-2.6,1.101c-2.4,0.6-4.9,0.5-6.9-0.101
			c-1.1-0.3-2-0.8-2.9-1.5c-0.8-0.6-1.5-1.399-2-2.399c-0.5-0.9-0.899-2.101-1.1-3.3c-0.1-0.9-0.9-1.601-1.9-1.601h-6.5
			c-0.5,0-1,0.2-1.399,0.5c-0.4,0.3-0.5,0.8-0.5,1.3c0.1,2.601,0.7,4.9,1.899,6.9c1.2,2,2.7,3.7,4.601,5.1c1.8,1.4,4,2.4,6.3,3.101
			s4.7,1.1,7.1,1.1c2.2,0,4.301-0.3,6.5-0.899c2.2-0.601,4.2-1.5,5.9-2.601c1.8-1.2,3.3-2.7,4.4-4.5c1.199-1.899,1.8-4.1,1.8-6.5
			c0-1.6-0.2-3.1-0.7-4.5C247.9,157,247.2,155.8,246.3,154.7z"/>
		<path fill="#2A3238" d="M288.1,125.5h-6c-1,0-1.899,0.8-1.899,1.8V146h-16.8v-18.7c0-1-0.801-1.8-1.9-1.8h-6c-1,0-1.9,0.8-1.9,1.8
			V174.9c0,1,0.801,1.8,1.9,1.8h6c1,0,1.9-0.8,1.9-1.8v-20.2h16.8v20.2c0,1,0.8,1.8,1.899,1.8h6c1,0,1.9-0.8,1.9-1.8V127.3
			C289.9,126.3,289.1,125.5,288.1,125.5z"/>
	</g>
	<g>
		<path fill="#2A3238" d="M133.6,185h-2.3v6.1h-1.2V185h-2.3v-1h5.8V185z"/>
		<path fill="#2A3238" d="M140.6,191.1h-1.2V188h-2.5v3.1h-1.2V184h1.2v3h2.5v-3h1.2V191.1z"/>
		<path fill="#2A3238" d="M147.6,187.9h-3.1v2.199h3.6v0.9h-4.8v-7h4.8v1h-3.5v2h3.1v0.9H147.6z"/>
		<path fill="#2A3238" d="M158.2,191.1V184h2.399c0.4,0,0.7,0,1,0.1c0.301,0.101,0.601,0.2,0.801,0.301
			c0.199,0.199,0.399,0.399,0.5,0.6c0.1,0.2,0.199,0.5,0.199,0.9c0,0.3-0.1,0.6-0.3,0.899c-0.2,0.2-0.5,0.4-0.8,0.601
			c0.2,0.1,0.4,0.1,0.6,0.199c0.2,0.101,0.301,0.2,0.4,0.4c0.1,0.1,0.2,0.3,0.3,0.5c0.101,0.2,0.101,0.4,0.101,0.6
			c0,0.301-0.101,0.601-0.2,0.9c-0.101,0.3-0.3,0.5-0.5,0.6c-0.2,0.2-0.5,0.301-0.8,0.4c-0.301,0.1-0.7,0.1-1,0.1H158.2z M159.4,187
			h1.199c0.2,0,0.4,0,0.5-0.1c0.2,0,0.301-0.101,0.4-0.2c0.1-0.101,0.2-0.2,0.3-0.3c0.101-0.101,0.101-0.301,0.101-0.4
			c0-0.2,0-0.3-0.101-0.5c-0.1-0.1-0.2-0.2-0.3-0.3c-0.1-0.101-0.3-0.101-0.4-0.2c-0.199,0-0.3-0.1-0.5-0.1H159.4V187z M159.4,187.9
			v2.199h1.3c0.2,0,0.399,0,0.5-0.1c0.2-0.1,0.3-0.1,0.399-0.2c0.101-0.1,0.2-0.2,0.301-0.3c0.1-0.1,0.1-0.3,0.1-0.5s0-0.3-0.1-0.5
			c-0.101-0.1-0.101-0.3-0.2-0.4c-0.101-0.1-0.2-0.199-0.4-0.199c-0.2-0.101-0.3-0.101-0.5-0.101H159.4V187.9z"/>
		<path fill="#2A3238" d="M170.7,188c0,0.4-0.101,0.8-0.2,1.2c-0.1,0.399-0.3,0.7-0.5,1s-0.5,0.5-0.8,0.7
			c-0.3,0.199-0.7,0.3-1.2,0.3c-0.4,0-0.8-0.101-1.2-0.3c-0.3-0.2-0.6-0.4-0.8-0.7s-0.4-0.601-0.5-1c-0.1-0.4-0.2-0.8-0.2-1.2v-0.9
			c0-0.3,0-0.5,0.101-0.8c0-0.3,0.1-0.5,0.199-0.7c0.101-0.199,0.2-0.5,0.4-0.6c0.1-0.2,0.3-0.4,0.5-0.5s0.4-0.3,0.7-0.3
			c0.2-0.101,0.5-0.101,0.8-0.101c0.4,0,0.8,0.101,1.2,0.301c0.3,0.199,0.6,0.399,0.8,0.699c0.2,0.301,0.4,0.601,0.5,1
			c0.1,0.4,0.2,0.801,0.2,1.2V188z M169.5,187.1c0-0.3,0-0.5-0.1-0.8c0-0.3-0.101-0.5-0.2-0.7c-0.101-0.199-0.3-0.399-0.4-0.5
			c-0.2-0.1-0.399-0.199-0.7-0.199c-0.3,0-0.5,0.1-0.699,0.199c-0.2,0.101-0.301,0.301-0.4,0.5c-0.1,0.2-0.2,0.4-0.2,0.7
			s-0.1,0.5-0.1,0.8v0.9c0,0.3,0,0.5,0.1,0.8c0,0.3,0.101,0.5,0.2,0.7s0.3,0.4,0.4,0.5c0.199,0.1,0.399,0.2,0.699,0.2
			c0.301,0,0.5-0.101,0.7-0.2s0.3-0.3,0.4-0.5c0.1-0.2,0.2-0.4,0.2-0.7s0.1-0.5,0.1-0.8V187.1z"/>
		<path fill="#2A3238" d="M177.9,184v4.7c0,0.399-0.101,0.7-0.2,1c-0.101,0.3-0.3,0.6-0.5,0.8s-0.5,0.4-0.8,0.5
			c-0.301,0.1-0.601,0.2-1,0.2c-0.4,0-0.7-0.101-1-0.2c-0.301-0.1-0.601-0.3-0.801-0.5c-0.199-0.2-0.399-0.5-0.5-0.8
			c-0.1-0.3-0.199-0.601-0.199-1V184h1.199v4.7c0,0.2,0,0.399,0.101,0.6c0.1,0.2,0.1,0.3,0.2,0.5c0.1,0.101,0.199,0.2,0.399,0.3
			c0.2,0.101,0.3,0.101,0.5,0.101s0.4,0,0.5-0.101c0.2-0.1,0.3-0.199,0.4-0.3c0.1-0.1,0.2-0.3,0.2-0.5c0.1-0.2,0.1-0.399,0.1-0.6
			V184H177.9z"/>
		<path fill="#2A3238" d="M183.1,188.3H181.9v2.8h-1.2V184h2.3c0.4,0,0.7,0,1.1,0.1c0.301,0.101,0.601,0.2,0.801,0.4
			c0.199,0.2,0.399,0.4,0.5,0.7c0.1,0.3,0.199,0.6,0.199,0.899c0,0.2,0,0.5-0.1,0.7s-0.2,0.4-0.3,0.5c-0.101,0.2-0.3,0.3-0.4,0.4
			c-0.2,0.1-0.3,0.2-0.5,0.3l1.601,3v0.1H184.6L183.1,188.3z M181.8,187.4h1.101c0.199,0,0.399,0,0.6-0.101c0.2-0.1,0.3-0.1,0.4-0.2
			c0.1-0.1,0.199-0.199,0.3-0.399c0.1-0.101,0.1-0.3,0.1-0.5s0-0.4-0.1-0.5c-0.101-0.2-0.2-0.3-0.3-0.4
			c-0.101-0.1-0.301-0.2-0.4-0.2c-0.2-0.1-0.4-0.1-0.6-0.1H181.8V187.4z"/>
		<path fill="#2A3238" d="M192.9,191.1h-1.2l-2.4-4.899v4.899H188V184h1.2l2.399,4.8V184h1.2v7.1H192.9z"/>
		<path fill="#2A3238" d="M199.9,187.9H196.8v2.199h3.601v0.9H195.6v-7h4.801v1h-3.5v2h3.1v0.9H199.9z"/>
		<path fill="#2A3238" d="M207.6,188.5h-4.1v-0.9h4.1V188.5z"/>
		<path fill="#2A3238" d="M214,189.4h-2.3l-0.5,1.6h-1.3l2.399-7.1h1.101l2.399,7.1h-1.3L214,189.4z M212,188.5h1.7l-0.8-2.8
			L212,188.5z"/>
		<path fill="#2A3238" d="M222.9,190.2c-0.101,0.1-0.301,0.3-0.4,0.399c-0.2,0.101-0.4,0.2-0.6,0.301c-0.2,0.1-0.4,0.199-0.7,0.199
			c-0.2,0-0.5,0.101-0.8,0.101c-0.4,0-0.801-0.101-1.2-0.2c-0.3-0.2-0.601-0.4-0.9-0.7c-0.2-0.3-0.399-0.6-0.5-1
			c-0.1-0.399-0.2-0.8-0.2-1.3v-0.9c0-0.399,0.101-0.899,0.2-1.3c0.101-0.399,0.3-0.7,0.5-1s0.5-0.5,0.8-0.7
			c0.301-0.199,0.7-0.3,1.101-0.3c0.399,0,0.7,0.101,1,0.2s0.6,0.2,0.8,0.4c0.2,0.199,0.4,0.399,0.5,0.699
			c0.1,0.301,0.2,0.601,0.2,0.9h-1.2c0-0.2-0.1-0.4-0.1-0.5c-0.101-0.2-0.2-0.3-0.301-0.4C221,185,220.9,184.9,220.7,184.9
			s-0.3-0.101-0.5-0.101c-0.3,0-0.5,0.101-0.7,0.2s-0.3,0.3-0.5,0.5c-0.1,0.2-0.2,0.4-0.3,0.7c-0.101,0.3-0.101,0.6-0.101,0.8v0.9
			c0,0.3,0,0.6,0.101,0.8c0.1,0.3,0.2,0.5,0.3,0.7c0.1,0.199,0.3,0.399,0.5,0.5c0.2,0.1,0.4,0.199,0.7,0.199c0.1,0,0.2,0,0.399,0
			c0.101,0,0.2,0,0.301-0.1c0.1,0,0.199-0.1,0.3-0.1c0.1-0.101,0.2-0.101,0.2-0.2v-1.4H220.1V187.4h2.5L222.9,190.2z"/>
		<path fill="#2A3238" d="M229,189.4h-2.3l-0.5,1.6h-1.3l2.399-7.1h1.101l2.399,7.1h-1.3L229,189.4z M227,188.5h1.7l-0.8-2.8
			L227,188.5z"/>
		<path fill="#2A3238" d="M233,184h4.4v1H235.8v5.1h1.601v1H233v-1h1.6V185H233V184z"/>
		<path fill="#2A3238" d="M245.1,191.1H243.9l-2.4-4.899v4.899h-1.2V184h1.2l2.4,4.8V184h1.199V191.1z"/>
		<path fill="#2A3238" d="M259.1,189.3c0-0.2,0-0.3-0.1-0.399c-0.1-0.101-0.2-0.2-0.3-0.301c-0.101-0.1-0.3-0.199-0.5-0.3
			c-0.2-0.1-0.4-0.1-0.601-0.2c-0.3-0.1-0.6-0.199-0.899-0.3c-0.3-0.1-0.5-0.3-0.8-0.399c-0.2-0.2-0.4-0.4-0.5-0.601
			c-0.101-0.2-0.2-0.5-0.2-0.8s0.1-0.6,0.2-0.8c0.1-0.2,0.3-0.4,0.6-0.601c0.2-0.199,0.5-0.3,0.8-0.399
			c0.3-0.101,0.601-0.101,1-0.101c0.4,0,0.7,0.101,1,0.2c0.3,0.101,0.601,0.3,0.8,0.4c0.2,0.2,0.4,0.399,0.601,0.7
			c0.1,0.3,0.2,0.6,0.2,0.899h-1.2c0-0.2-0.101-0.3-0.101-0.5c-0.1-0.1-0.199-0.3-0.3-0.399c-0.1-0.101-0.3-0.2-0.399-0.2
			c-0.2-0.101-0.4-0.101-0.601-0.101s-0.399,0-0.5,0.101c-0.2,0-0.3,0.1-0.399,0.2c-0.101,0.1-0.2,0.199-0.301,0.3
			c-0.1,0.1-0.1,0.3-0.1,0.399c0,0.2,0,0.301,0.1,0.4c0.101,0.1,0.2,0.2,0.301,0.3c0.1,0.101,0.3,0.2,0.5,0.2
			c0.199,0.1,0.399,0.1,0.6,0.2c0.3,0.1,0.6,0.2,0.9,0.3c0.3,0.1,0.5,0.3,0.699,0.5c0.2,0.2,0.4,0.4,0.5,0.6
			c0.101,0.2,0.2,0.5,0.2,0.801c0,0.3-0.1,0.6-0.2,0.8c-0.1,0.2-0.3,0.399-0.6,0.6c-0.2,0.2-0.5,0.3-0.8,0.4
			c-0.3,0.1-0.601,0.1-1,0.1c-0.2,0-0.5,0-0.7-0.1c-0.2,0-0.4-0.101-0.6-0.2c-0.2-0.1-0.4-0.2-0.601-0.3c-0.2-0.101-0.3-0.3-0.5-0.4
			c-0.1-0.2-0.2-0.3-0.3-0.5s-0.1-0.399-0.1-0.7h1.199c0,0.2,0.101,0.4,0.101,0.601c0.1,0.2,0.2,0.3,0.3,0.399
			c0.1,0.101,0.3,0.2,0.5,0.2c0.2,0.101,0.4,0.101,0.6,0.101c0.2,0,0.4,0,0.5-0.101c0.2,0,0.301-0.1,0.4-0.2
			c0.1-0.1,0.2-0.199,0.3-0.3C259,189.6,259.1,189.4,259.1,189.3z"/>
		<path fill="#2A3238" d="M267.5,191.1h-1.2V188h-2.5v3.1h-1.2V184h1.2v3h2.5v-3h1.2V191.1z"/>
		<path fill="#2A3238" d="M274.5,187.9h-3.1v2.199h3.6v0.9h-4.8v-7h4.8v1h-3.5v2h3.1v0.9H274.5z"/>
		<path fill="#2A3238" d="M278.9,190.1h3.5v0.9H277.6v-7h1.2v6.1H278.9z"/>
		<path fill="#2A3238" d="M286.4,190.1h3.5v0.9H285.1v-7h1.2v6.1H286.4z"/>
	</g>
</g>
</svg>
