<?xml version="1.0" encoding="utf-8"?>
<!-- Generator: Adobe Illustrator 27.3.1, SVG Export Plug-In . SVG Version: 6.00 Build 0)  -->
<svg version="1.1" id="Layer_1" xmlns="http://www.w3.org/2000/svg" xmlns:xlink="http://www.w3.org/1999/xlink" x="0px" y="0px"
	 viewBox="0 0 107.4 37.6" style="enable-background:new 0 0 107.4 37.6;" xml:space="preserve">
<style type="text/css">
	.st0{fill:#76D275;}
	.st1{fill:#43A047;}
	.st2{fill:#00701A;}
	.st3{fill:#004300;}
	.st4{fill:#5F5C5C;}
</style>
<path class="st0" d="M9.4,0l9.4,9.4l-9.4,9.4L0,9.4L9.4,0z"/>
<path class="st1" d="M0,9.4v9.4l9.4,9.4v-9.4L0,9.4z"/>
<path class="st0" d="M28.2,0l9.4,9.4l-9.4,9.4l-9.4-9.4L28.2,0z"/>
<g>
	<path class="st1" d="M37.6,9.4v9.4l-9.4,9.4v-9.4L37.6,9.4z"/>
	<path class="st1" d="M18.8,9.4l9.4,9.4l-9.4,9.4l-9.4-9.4L18.8,9.4z"/>
</g>
<path class="st2" d="M18.8,28.2v9.4l-9.4-9.4v-9.4L18.8,28.2z"/>
<path class="st3" d="M18.8,28.2l9.4-9.4v9.4l-9.4,9.4V28.2z"/>
<path class="st4" d="M45.5,28.8V8.4h7.3c1.6,0,3,0.5,4.1,1.6s1.8,2.4,1.8,4c0,1-0.2,1.8-0.7,2.6c-0.5,0.7-1.2,1.3-2,1.7v0.1
	c1,0.3,1.8,0.9,2.5,1.8c0.6,0.8,1,1.8,1,2.9c0,1.7-0.6,3.1-1.8,4.2c-1.2,1.1-2.7,1.7-4.3,1.6H45.5z M48,17.1h4.8c1,0,1.8-0.3,2.4-1
	c0.6-0.6,0.9-1.4,0.9-2.2c0-0.8-0.3-1.5-0.9-2.1s-1.3-1-2.3-1H48L48,17.1z M48,26.2h5.2c1,0,1.8-0.3,2.4-1s0.9-1.5,0.9-2.3
	s-0.3-1.6-1-2.3c-0.7-0.7-1.6-1.1-2.5-1H48L48,26.2L48,26.2z M66.3,29.2c-1.5,0-2.7-0.4-3.7-1.3c-1-0.9-1.5-2-1.5-3.4
	c0-1.5,0.6-2.7,1.8-3.6c1.2-0.9,2.6-1.3,4.4-1.3c1.5,0,2.8,0.3,3.8,0.9v-0.4c0-1-0.3-1.9-1.1-2.5s-1.6-0.9-2.6-0.9
	c-0.7,0-1.4,0.2-2.1,0.6c-0.6,0.4-1.1,0.9-1.3,1.5l-2.4-1c0.3-0.8,1-1.6,1.9-2.3c1-0.7,2.2-1.1,3.8-1.1c1.8,0,3.3,0.5,4.4,1.6
	c1.2,1,1.8,2.5,1.8,4.4v8.4H71v-1.9h-0.1C69.8,28.4,68.3,29.2,66.3,29.2L66.3,29.2z M66.7,26.8c1.1,0,2.1-0.4,2.9-1.2
	c0.9-0.8,1.3-1.8,1.3-2.9c-0.7-0.6-1.9-0.9-3.3-0.9c-1.3,0-2.2,0.3-2.9,0.8s-1,1.2-1,1.9c0,0.7,0.3,1.2,0.9,1.6
	C65.3,26.6,66,26.8,66.7,26.8L66.7,26.8z M76,28.8v-2.3l7.9-9.3h-7.7v-2.4h10.9v2.3l-7.9,9.3h8.1v2.4L76,28.8L76,28.8z M95.8,29.2
	c-2.1,0-3.8-0.7-5.1-2.1c-1.3-1.4-2-3.2-2-5.3c0-2,0.6-3.8,1.9-5.2c1.3-1.4,2.9-2.2,4.9-2.2c2.1,0,3.7,0.7,5,2
	c1.2,1.4,1.9,3.1,1.9,5.4l0,0.5h-11c0.1,1.4,0.6,2.5,1.4,3.3c0.9,0.8,1.9,1.2,3,1.2c1.9,0,3.2-0.8,3.8-2.4l2.3,1
	c-0.5,1.1-1.2,2-2.3,2.7C98.6,28.8,97.3,29.2,95.8,29.2L95.8,29.2z M99.6,20.1c-0.1-0.8-0.4-1.5-1.1-2.3c-0.7-0.7-1.7-1.1-3-1.1
	c-0.9,0-1.8,0.3-2.5,0.9c-0.7,0.6-1.2,1.4-1.4,2.4L99.6,20.1L99.6,20.1z M107.4,28.8h-2.6V8.4h2.6V28.8z"/>
</svg>
