<?xml version="1.0" encoding="utf-8"?>
<!-- Generator: Adobe Illustrator 16.0.3, SVG Export Plug-In . SVG Version: 6.00 Build 0)  -->
<!DOCTYPE svg PUBLIC "-//W3C//DTD SVG 1.1//EN" "http://www.w3.org/Graphics/SVG/1.1/DTD/svg11.dtd">
<svg version="1.1" id="Layer_1" xmlns="http://www.w3.org/2000/svg" xmlns:xlink="http://www.w3.org/1999/xlink" x="0px" y="0px"
	 width="256.015px" height="36.535px" viewBox="-0.015 131.736 256.015 36.535"
	 enable-background="new -0.015 131.736 256.015 36.535" xml:space="preserve">
<path fill="#253858" d="M67.471,134.381c6.813,0,10.103,3.348,10.103,8.74c0,4.042-1.83,6.501-5.588,7.419
	c4.93,0.808,7.367,3.504,7.367,8.227c0,5.335-3.608,8.995-11.073,8.995H54.516v-33.381H67.471z M59.088,138.751v9.959h7.771
	c4.318,0,6.096-1.98,6.096-5.196c0-3.215-1.928-4.774-6.096-4.774L59.088,138.751z M59.088,152.779v10.393h9.353
	c4.371,0,6.351-1.576,6.351-4.931c0-3.556-1.882-5.484-6.449-5.484L59.088,152.779z M86.829,132.603
	c1.571-0.112,2.936,1.07,3.048,2.641c0.01,0.136,0.01,0.271,0,0.407c-0.001,1.684-1.367,3.047-3.051,3.046
	c-1.682-0.001-3.044-1.364-3.046-3.046c-0.112-1.571,1.07-2.936,2.641-3.048C86.557,132.593,86.693,132.593,86.829,132.603z
	 M84.594,142.359h4.371v25.402h-4.371V142.359z M105.649,163.489c0.924-0.028,1.843-0.147,2.743-0.358v4.215
	c-0.958,0.273-1.949,0.41-2.944,0.404c-5.438,0-8.083-3.199-8.083-7.927v-13.405h-4.116v-4.042h4.116v-5.409h4.243v5.386h6.754
	v4.041h-6.754v13.336c0,2.234,1.328,3.753,4.041,3.753V163.489z M126.404,168.264c-3.707,0-6.553-1.674-8.083-4.977v4.469h-4.37
	v-36.02h4.399v15.184c1.628-3.348,4.676-5.08,8.585-5.08c6.754,0,10.161,5.738,10.161,13.209
	c-0.023,7.158-3.58,13.209-10.692,13.209V168.264z M125.74,145.91c-3.926,0-7.39,2.482-7.39,8.129v2.031
	c0,5.641,3.198,8.129,6.928,8.129c4.93,0,7.47-3.25,7.47-9.145C132.702,148.958,130.266,145.91,125.74,145.91z M141.645,142.354
	h4.371v15.362c0,4.572,1.83,6.604,5.992,6.604c4.041,0,6.858-2.69,6.858-7.822v-14.139h4.37v25.402h-4.37v-4.169
	c-1.587,2.94-4.685,4.746-8.024,4.677c-5.843,0-9.197-4.041-9.197-11.027V142.354z M187.772,167.098
	c-1.524,0.808-3.868,1.154-6.2,1.154c-9.041,0-13.278-5.484-13.278-13.278c0-7.678,4.214-13.163,13.278-13.163
	c2.088-0.059,4.162,0.37,6.057,1.253v4.042c-1.806-0.842-3.783-1.251-5.773-1.195c-6.605,0-9.295,4.157-9.295,9.092
	c0,4.937,2.742,9.094,9.398,9.094c1.964,0.052,3.921-0.258,5.773-0.912L187.772,167.098z M192.755,167.756v-36.02h4.37v22.516
	l10.923-11.893h5.692l-11.945,12.47l12.447,12.933h-5.945l-11.178-11.893v11.893L192.755,167.756z M228.722,168.264
	c-9.503,0-13.665-5.484-13.665-13.278c0-7.679,4.271-13.163,11.99-13.163c7.823,0,10.97,5.438,10.97,13.163v1.979h-18.544
	c0.612,4.318,3.406,7.113,9.399,7.113c2.635-0.001,5.249-0.464,7.724-1.369v4.042C234.518,167.859,231.314,168.264,228.722,168.264
	L228.722,168.264z M219.427,153.254H233.6c-0.254-4.723-2.39-7.419-6.754-7.419c-4.631-0.023-6.963,2.973-7.419,7.39V153.254z
	 M253.258,163.489c0.924-0.028,1.842-0.147,2.742-0.358v4.215c-0.957,0.273-1.949,0.41-2.944,0.404
	c-5.438,0-8.083-3.199-8.083-7.927v-13.405h-4.115v-4.042h4.115v-5.409h4.272v5.386H256v4.041h-6.755v13.336
	c0.006,2.234,1.316,3.753,4.019,3.753L253.258,163.489z"/>
<path fill="#2684FF" d="M1.155,135.351c-0.638-0.008-1.161,0.502-1.169,1.14c-0.001,0.067,0.004,0.134,0.015,0.2l4.907,29.755
	c0.126,0.751,0.773,1.304,1.536,1.311h23.52c0.572,0.007,1.063-0.406,1.154-0.971l4.907-30.083c0.103-0.629-0.325-1.223-0.955-1.325
	c-0.066-0.011-0.133-0.016-0.2-0.015L1.155,135.351z M21.794,156.85h-7.505l-2.032-10.623h11.356L21.794,156.85z"/>
<linearGradient id="SVGID_1_" gradientUnits="userSpaceOnUse" x1="349.9746" y1="-155.0259" x2="318.9551" y2="-179.2355" gradientTransform="matrix(0.5773 0 0 -0.5773 -165.0877 59.7203)">
	<stop  offset="0.18" style="stop-color:#0052CC"/>
	<stop  offset="1" style="stop-color:#2684FF"/>
</linearGradient>
<path fill="url(#SVGID_1_)" d="M34.449,146.239H23.612l-1.818,10.623h-7.505l-8.862,10.514c0.281,0.242,0.639,0.377,1.01,0.381
	h23.526c0.572,0.007,1.063-0.406,1.154-0.971L34.449,146.239z"/>
</svg>
