<?xml version="1.0" encoding="UTF-8"?>
<svg width="977px" height="401px" viewBox="0 0 977 401" version="1.1" xmlns="http://www.w3.org/2000/svg" xmlns:xlink="http://www.w3.org/1999/xlink">
    <!-- Generator: Sketch 63.1 (92452) - https://sketch.com -->
    <title>Logo by VMware</title>
    <desc>Created with Sketch.</desc>
    <g id="Logo-by-VMware" stroke="none" stroke-width="1" fill="none" fill-rule="evenodd">
        <g id="Bitnami-Logo" transform="translate(26.000000, 26.000000)" fill="#FFFFFE">
            <g id="Text" transform="translate(331.816000, 79.702000)">
                <path d="M66.02,97.813 C66.02,108.854 64.543,117.552 61.624,123.665 C58.743,129.731 53.167,132.68 44.579,132.68 C38.67,132.68 34.079,131.173 30.938,128.202 C27.76,125.156 25.617,121.127 24.572,116.225 C23.484,111.154 22.934,104.96 22.934,97.813 C22.934,90.675 23.484,84.505 24.572,79.473 C25.617,74.569 27.758,70.577 30.932,67.606 C34.087,64.654 38.677,63.157 44.579,63.157 C50.496,63.157 54.905,64.588 58.055,67.536 C61.199,70.481 63.329,74.474 64.382,79.4 C65.47,84.481 66.02,90.677 66.02,97.813 Z M84.514,64.628 C82.704,59.724 80.069,55.522 76.689,52.145 C73.765,49.149 69.917,46.74 65.257,44.983 C60.661,43.251 55.61,42.372 50.24,42.372 C44.198,42.372 38.821,43.313 34.261,45.166 C30.156,46.836 26.352,49.574 22.934,53.319 L22.934,2.84217094e-14 L-5.68434189e-14,12.095 L-5.68434189e-14,152.025 L22.511,152.025 L22.511,141.791 C26.191,145.883 29.977,148.716 34.043,150.425 C38.522,152.304 43.901,153.257 50.03,153.257 C55.474,153.257 60.582,152.377 65.219,150.644 C69.976,148.865 73.727,146.546 76.682,143.562 C80.069,140.209 82.704,136.005 84.511,131.069 C86.358,126.14 87.576,120.984 88.137,115.744 C88.675,110.465 88.948,104.42 88.948,97.777 C88.948,91.135 88.675,85.09 88.137,79.808 C87.569,74.575 86.35,69.466 84.514,64.628 L84.514,64.628 Z" id="b"></path>
                <g id="i" transform="translate(103.771000, 10.332000)">
                    <polygon id="Fill-1" points="0 22.053 22.895 22.053 22.895 0 0 0"></polygon>
                    <polygon id="Fill-2" points="0 141.693 22.895 141.693 22.895 33.372 0 33.372"></polygon>
                </g>
                <path d="M166.265,12.657 L143.334,24.751 L143.334,121.542 C143.334,127.021 144.468,132.106 146.706,136.652 C148.936,141.25 152.362,145.003 156.884,147.807 C161.405,150.605 166.959,152.025 173.39,152.025 L186.971,152.025 L186.971,132.262 L177.403,132.262 C169.909,132.262 166.265,128.421 166.265,120.521 L166.265,63.472 L186.971,63.472 L186.971,45.57 L166.265,45.57 L166.265,12.657" id="t"></path>
                <path d="M253.073,42.372 C247.606,42.372 242.289,43.431 237.264,45.516 C232.756,47.376 228.752,50.039 225.339,53.443 L225.339,43.704 L202.835,43.704 L202.835,152.025 L225.763,152.025 L225.763,86.213 C225.763,78.621 227.784,72.819 231.762,68.969 C235.796,65.112 240.988,63.157 247.199,63.157 C251.247,63.157 254.753,63.958 257.917,65.611 C261.012,67.194 263.488,69.74 265.283,73.184 C267.114,76.631 268.044,81.015 268.044,86.213 L268.044,152.025 L290.971,152.025 L290.971,82.944 C290.971,69.713 287.254,59.418 279.931,52.346 C273.17,45.728 264.134,42.372 253.073,42.372" id="n"></path>
                <path d="M367.32,105.966 L367.32,112.838 C367.32,127.395 355.071,133.913 342.93,133.913 C330.025,133.913 323.756,129.567 323.756,120.629 C323.756,115.918 325.548,111.664 328.433,109.526 C331.61,107.163 336.343,105.966 342.5,105.966 L367.32,105.966 Z M345.46,42.372 C336.332,42.372 328.735,43.536 322.88,45.831 C316.978,48.142 311.478,52.29 306.529,58.159 L306.096,58.673 L321.251,72.916 L321.73,72.31 C324.675,68.575 327.791,65.948 330.988,64.499 C334.194,63.05 338.793,62.313 344.656,62.313 C352.586,62.313 358.423,63.877 362.008,66.955 C365.533,70.042 367.32,74.937 367.32,81.5 L367.32,86.96 L339.735,86.96 C331.782,86.96 324.902,88.282 319.287,90.892 C313.66,93.506 309.345,97.242 306.468,101.995 C303.763,106.423 302.148,113.113 302.148,119.89 C302.148,129.526 305.054,137.427 310.797,143.385 C314.126,146.673 318.237,149.165 323.017,150.792 C327.811,152.427 333.528,153.257 340.013,153.257 C346.596,153.257 352.125,152.388 356.444,150.675 C360.345,149.127 364.143,146.643 367.746,143.284 L367.746,152.025 L390.254,152.025 L390.254,79.848 C390.254,54.98 375.183,42.372 345.46,42.372 L345.46,42.372 Z" id="a"></path>
                <path d="M517.769,42.372 C504.123,42.372 492.854,47.509 484.259,57.642 C477.343,47.509 467.096,42.372 453.785,42.372 C448.144,42.372 442.753,43.455 437.762,45.59 C433.317,47.481 429.387,50.119 426.061,53.44 L426.061,43.704 L403.551,43.704 L403.551,152.025 L426.481,152.025 L426.481,86.213 C426.481,78.622 428.501,72.82 432.482,68.969 C436.515,65.112 441.708,63.157 447.92,63.157 C451.972,63.157 455.475,63.958 458.632,65.611 C461.722,67.19 464.198,69.735 465.996,73.185 C467.829,76.621 468.759,81.005 468.759,86.213 L468.759,152.025 L491.689,152.025 L491.689,85.192 C491.689,78.226 493.776,72.759 497.893,68.944 C502.102,65.049 507.072,63.157 513.092,63.157 C519.223,63.157 524.275,65.063 528.1,68.825 C531.926,72.581 533.864,78.432 533.864,86.213 L533.864,152.025 L556.793,152.025 L556.793,82.944 C556.793,70.002 552.911,59.706 545.256,52.343 C538.393,45.728 529.145,42.372 517.769,42.372" id="m"></path>
                <g id="i" transform="translate(569.951000, 10.332000)">
                    <polygon id="Fill-6" points="-5.68434189e-14 141.693 22.899 141.693 22.899 33.372 -5.68434189e-14 33.372"></polygon>
                    <polygon id="Fill-7" points="0.002 22.053 22.899 22.053 22.899 0 0.002 0"></polygon>
                </g>
            </g>
            <g id="Logo">
                <polyline id="Fill-10" points="171.608 174.64 171.608 135.818 137.993 116.411 104.378 135.818 104.378 174.64 137.992 194.055 171.608 174.64"></polyline>
                <path d="M272.117,78.407 C269.512,73.675 265.623,69.756 260.51,66.805 C224.845,46.213 189.178,25.623 153.513,5.03 C143.595,-0.694 131.958,-0.448 122.506,5.009 C116.448,8.507 110.388,12.007 104.326,15.506 L104.326,82.359 L137.992,62.922 L218.084,109.161 L218.084,201.649 L137.992,247.889 L57.894,201.649 C57.894,201.603 57.894,201.555 57.894,201.51 C57.894,148.442 57.894,94.803 57.894,41.739 L15.221,66.38 C5.298,72.109 0,77.78 0,89.013 C0,161.136 0,144.764 0,216.886 C0,222.728 1.558,227.987 4.076,232.435 C6.896,237.414 10.922,241.375 15.379,243.948 C50.896,264.453 86.411,284.962 121.932,305.466 C132.356,311.487 143.574,311.514 153.94,305.53 C189.543,284.973 225.15,264.416 260.751,243.861 C270.722,238.106 275.98,228.971 275.98,217.355 C275.98,176.391 275.98,135.431 275.98,94.464 C275.98,88.417 274.659,83.025 272.117,78.407" id="Fill-12"></path>
            </g>
        </g>
        <g id="Vmware-Logo" transform="translate(482.000000, 295.000000)" fill="#FFFFFF" fill-rule="nonzero">
            <path d="M201.477255,66.5689079 L180.934555,8.98540537 C180.657885,8.21948212 180.312049,7.10541194 180.312049,6.20022992 C180.312049,3.69357201 182.387069,1.32617288 185.430432,1.32617288 C188.058791,1.32617288 189.787974,3.06690753 190.548815,5.50393606 L207.563981,55.0800591 L224.717482,5.36467728 C225.478323,2.99727815 227.069172,1.32617288 229.697531,1.32617288 L230.25087,1.32617288 C233.017563,1.32617288 234.67758,3.06690753 235.507588,5.36467728 L252.522754,55.0104297 L269.81459,5.15578912 C270.506263,3.06690753 271.88961,1.1869141 274.656304,1.1869141 C277.561332,1.1869141 279.636352,3.41505447 279.636352,5.92171237 C279.636352,6.8268944 279.221348,7.87133519 279.013846,8.70688783 L258.332811,66.3600197 C257.295301,69.3540833 255.22028,70.9555592 252.799423,70.9555592 L252.384419,70.9555592 C249.75606,70.9555592 247.819375,69.3540833 246.851032,66.3600197 L229.9742,17.4801905 L212.959034,66.3600197 C212.059859,69.3540833 210.054006,70.9555592 207.494814,70.9555592 L207.218145,70.9555592 C204.589786,71.1644474 202.514765,69.5629715 201.477255,66.5689079 M351.155384,6.26985931 C351.155384,3.48468385 353.368739,1.11728472 356.135433,1.11728472 C359.040461,1.11728472 361.253816,3.34542508 361.253816,6.26985931 L361.253816,17.9675962 C366.233865,6.61800624 377.231472,1.25654349 384.563211,1.25654349 C387.606574,1.25654349 389.543259,3.48468385 389.543259,6.40911808 C389.543259,9.19429353 387.675741,11.1439163 385.047382,11.5616927 C371.974754,13.1631686 361.184649,23.0505414 361.184649,42.6860284 L361.184649,65.8029846 C361.184649,68.5881601 359.109629,70.9555592 356.2046,70.9555592 C353.299572,70.9555592 351.086217,68.7274188 351.086217,65.8029846 L351.155384,6.26985931 Z M421.913576,71.5822237 C403.653397,71.5822237 388.782419,57.3778289 388.782419,36.489013 L388.782419,36.2104954 C388.782419,16.7838966 402.27005,1.11728472 420.599396,1.11728472 C440.242921,1.11728472 451.448031,17.4105611 451.448031,35.3053134 C451.448031,38.0208595 449.234676,40.0401117 446.813819,40.0401117 L398.811683,40.0401117 C400.19503,54.6622828 410.362629,62.8785504 422.190245,62.8785504 C430.421159,62.8785504 436.438717,59.6059692 441.349599,55.0104297 C442.11044,54.3837653 443.009615,53.8267302 444.18546,53.8267302 C446.606317,53.8267302 448.543002,55.776353 448.543002,58.1437521 C448.543002,59.3274517 448.058831,60.5111513 447.021321,61.4163333 C440.657925,67.4740899 433.187852,71.5822237 421.913576,71.5822237 M441.557101,32.520138 C440.519591,20.265366 433.602856,9.54244046 420.391894,9.54244046 C408.840948,9.54244046 400.125863,19.2905545 398.811683,32.520138 L441.557101,32.520138 Z M279.567185,50.4845196 L279.567185,50.2060021 C279.567185,35.8623485 291.325633,28.2727454 308.409967,28.2727454 C317.055884,28.2727454 323.142611,29.456445 329.229337,31.1971796 L329.229337,28.8297805 C329.229337,16.5750085 321.759264,10.3083637 309.10164,10.3083637 C302.323241,10.3083637 298.380702,11.2135457 293.400653,13.4416861 C292.778147,13.7202036 292.086474,13.8594624 291.602302,13.8594624 C289.250613,13.8594624 287.175593,11.9098396 287.175593,9.54244046 C287.175593,7.45355887 288.074768,6.13060053 289.942286,5.2950479 C296.582351,2.37061367 301.631567,1.39580226 310.208318,1.39580226 C319.753411,1.39580226 327.085149,3.90246017 331.99603,8.91577599 C336.561075,13.5113155 338.912765,20.1261072 338.912765,28.7601511 L338.912765,66.2903903 C338.912765,69.1451952 336.837744,71.3037061 334.071051,71.3037061 C331.23519,71.3037061 329.298504,69.2148245 329.298504,66.5689079 L329.298504,60.0933749 C324.595125,66.2903903 316.710048,71.7911118 304.882432,71.7911118 C292.293976,71.6518531 279.567185,64.4103969 279.567185,50.4845196 M329.367671,45.1926863 L329.367671,38.6475239 C324.387623,37.1853068 317.747558,35.7230897 309.516644,35.7230897 C296.859021,35.7230897 289.803952,41.2238112 289.803952,49.7882258 L289.803952,50.0667433 C289.803952,58.6311578 297.619861,63.6444736 306.819118,63.6444736 C319.200072,63.6444736 329.367671,55.9852411 329.367671,45.1926863 M18.4604673,5.71282422 C16.2471124,0.838767172 10.7828923,-1.38937319 5.66450897,0.908396559 C0.546125633,3.20616631 -1.32139261,8.91577599 0.961129687,13.789833 L22.4030058,60.7200394 C25.7922056,68.1007544 29.3197401,71.9303706 36.0289723,71.9303706 C43.1532086,71.9303706 46.265739,67.7526074 49.6549387,60.7200394 C49.6549387,60.7200394 68.3301212,19.7083309 68.5376232,19.2905545 C68.7451252,18.8727782 69.298464,17.5498199 71.2351496,17.5498199 C72.8259984,17.5498199 74.2093453,18.8727782 74.2093453,20.6135129 L74.2093453,60.7200394 C74.2093453,66.9170548 77.5985451,72 84.1694426,72 C90.7403401,72 94.2678746,66.9170548 94.2678746,60.7200394 L94.2678746,27.9245985 C94.2678746,21.5883243 98.7637519,17.4801905 104.919645,17.4801905 C111.075539,17.4801905 115.156412,21.7275831 115.156412,27.9245985 L115.156412,60.7200394 C115.156412,66.9170548 118.545612,72 125.116509,72 C131.687407,72 135.214941,66.9170548 135.214941,60.7200394 L135.214941,27.9245985 C135.214941,21.5883243 139.710819,17.4801905 145.866712,17.4801905 C152.022606,17.4801905 156.103479,21.7275831 156.103479,27.9245985 L156.103479,60.7200394 C156.103479,66.9170548 159.492678,72 166.063576,72 C172.634474,72 176.162008,66.9170548 176.162008,60.7200394 L176.162008,23.3986883 C176.162008,9.68169924 165.233568,0.0728439226 152.022606,0.0728439226 C138.88081,0.0728439226 130.580729,9.26392292 130.580729,9.26392292 C126.223187,3.48468385 120.136461,0.00321453631 109.899694,0.00321453631 C99.1095886,0.00321453631 89.6336627,9.19429353 89.6336627,9.19429353 C85.2761201,3.48468385 77.8060471,0.00321453631 71.5809863,0.00321453631 C62.035893,0.0728439226 54.4274854,4.32023649 49.7932734,14.9735326 L36.0981396,47.490456 L18.4604673,5.71282422 Z M452.208872,9.54244046 C452.208872,4.87727158 455.874741,1.04765533 460.57812,1.04765533 C465.281499,1.04765533 468.947368,4.80764219 468.947368,9.40318169 L468.947368,9.47281108 C468.947368,14.0683506 465.281499,17.9675962 460.57812,17.9675962 C455.874741,17.9675962 452.208872,14.13798 452.208872,9.54244046 M467.35652,9.47281108 C467.35652,5.64319483 464.451491,2.57950183 460.57812,2.57950183 C456.773916,2.57950183 453.79972,5.71282422 453.79972,9.47281108 L453.79972,9.54244046 C453.79972,13.3024273 456.704749,16.4357497 460.57812,16.4357497 C464.382324,16.4357497 467.35652,13.2327979 467.35652,9.47281108" id="Shape"></path>
            <path d="M457.646617,5.66828837 C457.646617,5.16674038 458.052632,4.73684211 458.526316,4.73684211 L461.233083,4.73684211 C462.24812,4.73684211 463.06015,5.02344096 463.533835,5.59663866 C464.007519,6.02653693 464.210526,6.74303406 464.210526,7.53118089 C464.210526,8.82087572 463.601504,9.68067227 462.654135,10.1105705 L463.87218,11.6868642 C464.007519,11.9018134 464.142857,12.1167625 464.142857,12.4033613 C464.142857,12.9049093 463.736842,13.2631579 463.330827,13.2631579 C462.924812,13.2631579 462.654135,13.0482088 462.451128,12.7616099 L460.759398,10.4688191 L459.338346,10.4688191 L459.338346,12.2600619 C459.338346,12.7616099 458.932331,13.1915082 458.458647,13.1915082 C457.984962,13.1915082 457.578947,12.7616099 457.578947,12.2600619 L457.646617,5.66828837 Z M461.165414,8.82087572 C462.045113,8.82087572 462.451128,8.31932773 462.451128,7.60283061 C462.451128,6.81468377 461.977444,6.38478549 461.097744,6.38478549 L459.338346,6.38478549 L459.338346,8.82087572 L461.165414,8.82087572 Z" id="Shape"></path>
        </g>
        <text id="by" font-family="Metropolis-Regular, Metropolis" font-size="84" font-weight="normal" fill="#FFFFFF">
            <tspan x="352" y="365">by</tspan>
        </text>
    </g>
</svg>