<?xml version="1.0" encoding="utf-8"?>
<!-- Generator: Adobe Illustrator 16.0.3, SVG Export Plug-In . SVG Version: 6.00 Build 0)  -->
<!DOCTYPE svg PUBLIC "-//W3C//DTD SVG 1.1//EN" "http://www.w3.org/Graphics/SVG/1.1/DTD/svg11.dtd">
<svg version="1.1" id="Layer_1" xmlns="http://www.w3.org/2000/svg" xmlns:xlink="http://www.w3.org/1999/xlink" x="0px" y="0px"
	 width="924.947px" height="355.852px" viewBox="26 26.826 924.947 355.852" enable-background="new 26 26.826 924.947 355.852"
	 xml:space="preserve">
<title>Logo by VMware</title>
<desc>Created with Sketch.</desc>
<g id="Logo-by-VMware">
	<path id="b" fill="#FFFFFE" d="M423.836,203.516c0,11.041-1.477,19.738-4.396,25.852c-2.882,6.066-8.457,9.015-17.046,9.015
		c-5.908,0-10.5-1.507-13.641-4.478c-3.178-3.047-5.321-7.075-6.366-11.978c-1.088-5.071-1.638-11.265-1.638-18.411
		c0-7.139,0.55-13.309,1.638-18.341c1.045-4.904,3.187-8.896,6.36-11.867c3.155-2.952,7.745-4.449,13.646-4.449
		c5.918,0,10.326,1.431,13.477,4.379c3.144,2.945,5.273,6.938,6.327,11.864C423.286,190.183,423.836,196.379,423.836,203.516z
		 M442.33,170.33c-1.811-4.904-4.445-9.106-7.825-12.483c-2.924-2.996-6.771-5.405-11.432-7.162
		c-4.597-1.732-9.647-2.611-15.018-2.611c-6.042,0-11.419,0.941-15.979,2.794c-4.105,1.67-7.909,4.408-11.327,8.153v-53.319
		l-22.934,12.095v139.93h22.511v-10.233c3.68,4.092,7.466,6.925,11.532,8.634c4.479,1.879,9.857,2.832,15.986,2.832
		c5.444,0,10.553-0.88,15.189-2.613c4.757-1.779,8.508-4.098,11.463-7.082c3.387-3.353,6.021-7.557,7.829-12.492
		c1.847-4.93,3.064-10.086,3.626-15.326c0.538-5.278,0.811-11.323,0.811-17.967c0-6.642-0.272-12.687-0.811-17.969
		C445.385,180.277,444.166,175.168,442.33,170.33L442.33,170.33z"/>
	<g id="i" transform="translate(103.771000, 10.332000)">
		<polygon id="Fill-1" fill="#FFFFFE" points="357.816,127.755 380.711,127.755 380.711,105.702 357.816,105.702 		"/>
		<polygon id="Fill-2" fill="#FFFFFE" points="357.816,247.395 380.711,247.395 380.711,139.074 357.816,139.074 		"/>
	</g>
	<path id="t" fill="#FFFFFE" d="M524.081,118.359l-22.931,12.094v96.791c0,5.479,1.134,10.564,3.372,15.109
		c2.229,4.599,5.655,8.352,10.178,11.155c4.521,2.798,10.075,4.218,16.506,4.218h13.581v-19.763h-9.568
		c-7.494,0-11.138-3.841-11.138-11.741v-57.049h20.706v-17.902h-20.706V118.359"/>
	<path id="n" fill="#FFFFFE" d="M610.889,148.074c-5.467,0-10.783,1.059-15.809,3.144c-4.508,1.86-8.512,4.523-11.925,7.927v-9.739
		h-22.504v108.32h22.928v-65.812c0-7.592,2.021-13.394,5.999-17.244c4.034-3.857,9.226-5.812,15.437-5.812
		c4.048,0,7.555,0.801,10.719,2.454c3.095,1.583,5.57,4.129,7.365,7.573c1.831,3.447,2.762,7.831,2.762,13.029v65.812h22.927
		v-69.081c0-13.231-3.717-23.526-11.04-30.598C630.986,151.43,621.95,148.074,610.889,148.074"/>
	<path id="a" fill="#FFFFFE" d="M725.136,211.668v6.872c0,14.558-12.249,21.075-24.39,21.075c-12.905,0-19.174-4.346-19.174-13.284
		c0-4.711,1.792-8.965,4.677-11.103c3.177-2.363,7.91-3.561,14.067-3.561H725.136z M703.276,148.074
		c-9.128,0-16.726,1.164-22.58,3.459c-5.902,2.311-11.402,6.459-16.352,12.328l-0.433,0.514l15.155,14.243l0.479-0.606
		c2.945-3.735,6.062-6.362,9.258-7.811c3.206-1.449,7.806-2.186,13.668-2.186c7.931,0,13.768,1.564,17.353,4.642
		c3.524,3.087,5.312,7.982,5.312,14.545v5.46h-27.585c-7.953,0-14.833,1.322-20.447,3.932c-5.628,2.614-9.942,6.35-12.819,11.104
		c-2.705,4.428-4.32,11.117-4.32,17.895c0,9.637,2.906,17.537,8.649,23.495c3.329,3.288,7.439,5.78,12.22,7.407
		c4.794,1.635,10.511,2.465,16.996,2.465c6.583,0,12.112-0.869,16.431-2.582c3.901-1.548,7.699-4.031,11.303-7.391v8.74h22.508
		V185.55C748.07,160.682,732.999,148.074,703.276,148.074L703.276,148.074z"/>
	<path id="m" fill="#FFFFFE" d="M875.585,148.074c-13.646,0-24.915,5.137-33.51,15.27c-6.916-10.133-17.163-15.27-30.475-15.27
		c-5.641,0-11.031,1.083-16.022,3.218c-4.445,1.891-8.375,4.529-11.701,7.85v-9.736h-22.51v108.32h22.93v-65.812
		c0-7.591,2.021-13.393,6.001-17.244c4.033-3.857,9.227-5.812,15.438-5.812c4.052,0,7.555,0.801,10.712,2.454
		c3.09,1.579,5.565,4.124,7.364,7.574c1.832,3.436,2.763,7.82,2.763,13.028v65.812h22.93v-66.833c0-6.966,2.087-12.433,6.204-16.248
		c4.209-3.895,9.179-5.787,15.199-5.787c6.131,0,11.183,1.906,15.008,5.668c3.826,3.756,5.764,9.607,5.764,17.388v65.812h22.93
		v-69.081c0-12.942-3.883-23.238-11.537-30.601C896.209,151.43,886.961,148.074,875.585,148.074"/>
	<g id="i_1_" transform="translate(569.951000, 10.332000)">
		<polygon id="Fill-6" fill="#FFFFFE" points="357.816,247.395 380.715,247.395 380.715,139.074 357.816,139.074 		"/>
		<polygon id="Fill-7" fill="#FFFFFE" points="357.818,127.755 380.715,127.755 380.715,105.702 357.818,105.702 		"/>
	</g>
	<polyline id="Fill-10" fill="#FFFFFE" points="197.608,200.64 197.608,161.818 163.993,142.411 130.378,161.818 130.378,200.64 
		163.992,220.055 197.608,200.64 	"/>
	<path id="Fill-12" fill="#FFFFFE" d="M298.117,104.407c-2.605-4.732-6.494-8.651-11.607-11.602
		c-35.665-20.592-71.332-41.182-106.997-61.775c-9.918-5.724-21.555-5.479-31.007-0.021c-6.058,3.498-12.118,6.998-18.18,10.497
		v66.853l33.666-19.437l80.092,46.239v92.487l-80.092,46.24l-80.098-46.24c0-0.045,0-0.094,0-0.139c0-53.068,0-106.707,0-159.771
		L41.221,92.38C31.298,98.109,26,103.78,26,115.013c0,72.123,0,55.751,0,127.873c0,5.843,1.558,11.101,4.076,15.55
		c2.82,4.979,6.846,8.939,11.303,11.513c35.517,20.505,71.032,41.014,106.553,61.518c10.424,6.021,21.642,6.048,32.008,0.063
		c35.603-20.557,71.21-41.113,106.811-61.668c9.971-5.756,15.229-14.891,15.229-26.506c0-40.965,0-81.924,0-122.892
		C301.98,114.417,300.659,109.025,298.117,104.407"/>
	<path id="Shape" fill="#FFFFFF" d="M683.478,361.568l-20.543-57.583c-0.276-0.766-0.622-1.88-0.622-2.785
		c0-2.507,2.074-4.874,5.118-4.874c2.628,0,4.357,1.74,5.118,4.178l17.016,49.576l17.153-49.715
		c0.761-2.368,2.352-4.039,4.979-4.039h0.554c2.767,0,4.427,1.74,5.257,4.039l17.015,49.645l17.292-49.854
		c0.691-2.09,2.075-3.969,4.842-3.969c2.905,0,4.98,2.228,4.98,4.734c0,0.904-0.415,1.949-0.623,2.785l-20.681,57.652
		c-1.038,2.994-3.112,4.596-5.533,4.596h-0.415c-2.629,0-4.565-1.602-5.534-4.596l-16.876-48.879l-17.016,48.879
		c-0.899,2.994-2.905,4.596-5.464,4.596h-0.277C686.59,366.164,684.515,364.563,683.478,361.568 M833.155,301.27
		c0-2.785,2.214-5.152,4.98-5.152c2.904,0,5.118,2.229,5.118,5.152v11.698c4.98-11.35,15.978-16.712,23.31-16.712
		c3.043,0,4.979,2.229,4.979,5.153c0,2.785-1.867,4.735-4.496,5.152c-13.072,1.602-23.862,11.489-23.862,31.124v23.117
		c0,2.785-2.075,5.152-4.979,5.152c-2.905,0-5.119-2.228-5.119-5.152L833.155,301.27z M903.914,366.582
		c-18.261,0-33.132-14.204-33.132-35.093v-0.278c0-19.428,13.487-35.094,31.817-35.094c19.644,0,30.849,16.293,30.849,34.188
		c0,2.717-2.214,4.735-4.635,4.735h-48.002c1.384,14.622,11.551,22.839,23.379,22.839c8.23,0,14.248-3.273,19.159-7.869
		c0.761-0.626,1.66-1.184,2.836-1.184c2.421,0,4.357,1.95,4.357,4.317c0,1.185-0.484,2.368-1.521,3.272
		C922.658,362.475,915.188,366.582,903.914,366.582 M923.557,327.52c-1.037-12.254-7.954-22.977-21.165-22.977
		c-11.551,0-20.266,9.748-21.58,22.977H923.557z M761.567,345.484v-0.278c0-14.344,11.758-21.933,28.843-21.933
		c8.646,0,14.732,1.184,20.819,2.924v-2.367c0-12.255-7.47-18.521-20.128-18.521c-6.778,0-10.721,0.904-15.701,3.133
		c-0.622,0.279-1.313,0.418-1.798,0.418c-2.352,0-4.427-1.949-4.427-4.316c0-2.09,0.899-3.412,2.767-4.248
		c6.64-2.924,11.689-3.898,20.266-3.898c9.546,0,16.877,2.506,21.788,7.52c4.564,4.596,6.917,11.21,6.917,19.844v37.531
		c0,2.854-2.075,5.013-4.842,5.013c-2.836,0-4.772-2.089-4.772-4.735v-6.475c-4.704,6.197-12.589,11.697-24.416,11.697
		C774.294,366.652,761.567,359.41,761.567,345.484 M811.367,340.193v-6.546c-4.979-1.462-11.619-2.925-19.851-2.925
		c-12.657,0-19.713,5.501-19.713,14.065v0.278c0,8.564,7.816,13.578,17.016,13.578C801.2,358.645,811.367,350.985,811.367,340.193
		 M500.461,300.713c-2.214-4.874-7.678-7.102-12.797-4.805c-5.118,2.298-6.985,8.008-4.703,12.882l21.442,46.931
		c3.389,7.38,6.916,11.209,13.626,11.209c7.124,0,10.236-4.178,13.626-11.209c0,0,18.675-41.012,18.883-41.43
		c0.207-0.418,0.761-1.741,2.697-1.741c1.591,0,2.974,1.323,2.974,3.063v40.107c0,6.196,3.39,11.279,9.961,11.279
		c6.57,0,10.098-5.083,10.098-11.279v-32.796c0-6.337,4.496-10.444,10.652-10.444c6.155,0,10.236,4.247,10.236,10.444v32.796
		c0,6.196,3.39,11.279,9.96,11.279c6.571,0,10.099-5.083,10.099-11.279v-32.796c0-6.337,4.496-10.444,10.652-10.444
		c6.155,0,10.236,4.247,10.236,10.444v32.796c0,6.196,3.389,11.279,9.96,11.279s10.099-5.083,10.099-11.279v-37.322
		c0-13.717-10.929-23.326-24.14-23.326c-13.142,0-21.441,9.191-21.441,9.191c-4.357-5.779-10.444-9.26-20.682-9.26
		c-10.79,0-20.266,9.19-20.266,9.19c-4.357-5.71-11.828-9.19-18.053-9.19c-9.545,0.068-17.153,4.316-21.788,14.97l-13.695,32.517
		L500.461,300.713z M934.209,304.543c0-4.666,3.666-8.495,8.369-8.495s8.369,3.76,8.369,8.355v0.069
		c0,4.596-3.666,8.495-8.369,8.495S934.209,309.139,934.209,304.543 M949.356,304.473c0-3.83-2.905-6.893-6.778-6.893
		c-3.805,0-6.778,3.133-6.778,6.893v0.07c0,3.76,2.905,6.893,6.778,6.893C946.383,311.436,949.356,308.232,949.356,304.473"/>
	<path id="Shape_1_" fill="#FFFFFF" d="M939.646,300.668c0-0.501,0.406-0.932,0.88-0.932h2.707c1.015,0,1.827,0.287,2.301,0.86
		c0.474,0.43,0.677,1.146,0.677,1.935c0,1.289-0.609,2.149-1.557,2.579l1.218,1.577c0.136,0.215,0.271,0.43,0.271,0.716
		c0,0.501-0.406,0.86-0.812,0.86c-0.406,0-0.677-0.215-0.88-0.502l-1.691-2.293h-1.422v1.791c0,0.502-0.405,0.932-0.879,0.932
		s-0.88-0.43-0.88-0.932L939.646,300.668z M943.165,303.82c0.88,0,1.286-0.501,1.286-1.217c0-0.789-0.474-1.219-1.354-1.219h-1.76
		v2.436H943.165z"/>
	<g enable-background="new    ">
		<path fill="#FFFFFF" d="M364.346,365h-6.85v-60.129h7.383v21.451c3.117-3.91,7.096-5.865,11.936-5.865
			c2.68,0,5.215,0.54,7.608,1.62c2.393,1.08,4.361,2.598,5.906,4.553c1.544,1.955,2.754,4.313,3.63,7.075
			c0.875,2.762,1.313,5.715,1.313,8.859c0,7.465-1.846,13.234-5.537,17.309s-8.121,6.111-13.289,6.111
			c-5.141,0-9.174-2.146-12.1-6.439V365z M364.264,342.893c0,5.223,0.711,8.996,2.133,11.32c2.324,3.801,5.469,5.701,9.434,5.701
			c3.226,0,6.015-1.401,8.367-4.204c2.352-2.803,3.527-6.979,3.527-12.53c0-5.688-1.128-9.885-3.384-12.592
			s-4.983-4.061-8.183-4.061c-3.227,0-6.016,1.401-8.367,4.204C365.439,333.534,364.264,337.588,364.264,342.893z"/>
		<path fill="#FFFFFF" d="M403.926,381.775l-0.82-6.932c1.613,0.438,3.021,0.656,4.225,0.656c1.641,0,2.953-0.273,3.938-0.82
			s1.791-1.313,2.42-2.297c0.465-0.738,1.216-2.57,2.256-5.496c0.137-0.41,0.355-1.012,0.656-1.805l-16.529-43.641h7.957
			l9.064,25.225c1.175,3.199,2.229,6.563,3.158,10.09c0.847-3.391,1.859-6.699,3.035-9.926l9.311-25.389h7.383l-16.57,44.297
			c-1.778,4.785-3.158,8.08-4.143,9.885c-1.313,2.434-2.816,4.218-4.512,5.353c-1.696,1.135-3.719,1.702-6.07,1.702
			C407.262,382.678,405.675,382.377,403.926,381.775z"/>
	</g>
</g>
</svg>
