<?xml version="1.0" encoding="utf-8"?>
<!-- Generator: Adobe Illustrator 27.3.1, SVG Export Plug-In . SVG Version: 6.00 Build 0)  -->
<svg version="1.1" id="Layer_1" xmlns="http://www.w3.org/2000/svg" xmlns:xlink="http://www.w3.org/1999/xlink" x="0px" y="0px"
	 viewBox="0 0 319.5 39.2" style="enable-background:new 0 0 319.5 39.2;" xml:space="preserve">
<style type="text/css">
	.st0{fill:#00ADEE;}
</style>
<path class="st0" d="M189.3,0.7h-12.4v37.8h12.4c11.9,0,19.2-7.3,19.2-18.9C208.5,7.9,201.2,0.7,189.3,0.7z M204.7,19.6
	c0,9.6-5.8,15.4-15.7,15.4h-8.3V4.2h8.2C198.8,4.3,204.7,10,204.7,19.6L204.7,19.6L204.7,19.6z M241,24.7c0,6.3-4.2,10.3-10.9,10.3
	c-6.6,0-10.8-3.9-10.8-10.2V0.7h-3.8v24.2c0,8.2,5.9,13.6,14.6,13.6c8.7,0,14.6-5.5,14.6-13.6V0.7H241L241,24.7L241,24.7z
	 M281.3,30.8c-0.1,0.1-4.5,4.7-12,4.7c-8.8,0-15.4-6.9-15.4-16.2c0-8.9,6.6-15.7,15.3-15.7c7,0,11.2,3.9,11.3,3.9l0.6,0.6l2.3-2.8
	l-0.5-0.4c-0.2-0.2-4.8-4.8-13.7-4.8c-10.9,0-19.1,8.3-19.1,19.3c0,11.3,8.3,19.8,19.3,19.8c9.3,0,14.3-5.5,14.5-5.8l0.4-0.5
	l-2.4-2.6L281.3,30.8z M318.9,0.7H314l-17.2,16.2h-2.3V0.7h-3.8v37.8h3.8V20.5h2.3l17.9,18.1h4.8l-19.4-19.9L318.9,0.7z"/>
<path d="M0,0.7h15.3c7.6,0,12.8,3.4,12.8,9.9c0,3.1-1.5,6.4-4.4,8v0.1c4.4,1.3,5.9,5.2,5.9,8.5c0,8.2-6.9,11.2-14.4,11.2H0V0.7z
	 M15.4,15.3c2.3,0,3.3-1.7,3.3-3.5c0-1.7-1-3.2-3.5-3.2h-6v6.7L15.4,15.3L15.4,15.3z M16.1,30.6c2.7,0,4-1.9,4-4
	c0-2.1-1.3-3.9-4-3.9H9.3v7.8L16.1,30.6z M34.4,0.7h9.3v29.9h15.4v8H34.4V0.7z M86.2,30.6H74.3l-2.2,8h-9.6L75.4,0.7h9.8L98,38.5
	h-9.5L86.2,30.6z M80.2,9.3l-1.5,6.5l-2.2,7.3h7.5l-2.1-7.3C81.1,13.4,80.2,9.3,80.2,9.3L80.2,9.3z M119,0c9.4,0,14.2,5.3,14.2,5.3
	l-4.3,7c0,0-4.2-3.8-9.4-3.8c-7.3,0-10.7,5.3-10.7,10.8c0,5.6,3.7,11.4,10.7,11.4c5.7,0,10-4.6,10-4.6l4.8,6.7c0,0-5.3,6.4-15.2,6.4
	c-11.8,0-19.9-8.4-19.9-19.7C99.1,8.5,107.6,0,119,0L119,0z M139.8,0.7h9.3v14.6h1.3l9.7-14.6h10L158,18.8v0.1l12.7,19.7h-10.3
	l-9.9-15.4h-1.3v15.4h-9.3V0.7L139.8,0.7z"/>
</svg>
