<?xml version="1.0" encoding="utf-8"?>
<!-- Generator: Adobe Illustrator 16.0.3, SVG Export Plug-In . SVG Version: 6.00 Build 0)  -->
<!DOCTYPE svg PUBLIC "-//W3C//DTD SVG 1.1//EN" "http://www.w3.org/Graphics/SVG/1.1/DTD/svg11.dtd">
<svg version="1.1" id="Layer_1" xmlns="http://www.w3.org/2000/svg" xmlns:xlink="http://www.w3.org/1999/xlink" x="0px" y="0px"
	 width="110.168px" height="13.5px" viewBox="4.165 24.263 110.168 13.5" enable-background="new 4.165 24.263 110.168 13.5"
	 xml:space="preserve">
<path fill="#00ADEE" d="M69.445,24.495H65.17v13.047h4.275c4.098,0,6.623-2.503,6.623-6.512C76.068,27,73.543,24.495,69.445,24.495z
	 M74.738,31.008c0,3.322-2.016,5.294-5.404,5.294h-2.86V25.713h2.835c3.4,0.022,5.428,1.994,5.428,5.294H74.738z M87.255,32.777
	c0,2.17-1.44,3.544-3.744,3.544c-2.282,0-3.72-1.35-3.72-3.5v-8.33h-1.307v8.351c0,2.813,2.017,4.695,5.051,4.695
	c3.013,0,5.027-1.883,5.027-4.695v-8.351h-1.308V32.777z M101.142,34.884C101.119,34.905,99.592,36.5,97,36.5
	c-3.035,0-5.316-2.392-5.316-5.582c0-3.08,2.26-5.405,5.272-5.405c2.413,0,3.876,1.33,3.899,1.35l0.2,0.2l0.798-0.952l-0.156-0.155
	c-0.065-0.066-1.64-1.66-4.739-1.66c-3.767,0-6.601,2.857-6.601,6.645c0,3.899,2.857,6.821,6.668,6.821
	c3.199,0,4.939-1.904,5.006-1.994l0.154-0.176l-0.842-0.908L101.142,34.884z M114.122,24.495h-1.683l-5.925,5.583h-0.797v-5.582
	h-1.308v13.048h1.308v-6.226h0.797l6.158,6.224h1.66l-6.7-6.866L114.122,24.495z"/>
<path d="M4.165,24.495h5.272c2.614,0,4.43,1.174,4.43,3.4c0,1.085-0.532,2.215-1.506,2.77v0.044
	c1.506,0.465,2.038,1.795,2.038,2.946c0,2.835-2.37,3.876-4.962,3.876H4.165V24.495z M9.459,29.545c0.797,0,1.152-0.576,1.152-1.195
	c0-0.599-0.354-1.108-1.196-1.108h-2.06v2.326h2.104V29.545z M9.715,34.796c0.93,0,1.396-0.643,1.396-1.374
	c0-0.73-0.443-1.33-1.373-1.33H7.355v2.702L9.715,34.796z M16.015,24.495h3.2v10.301h5.316v2.746h-8.516V24.495z M33.87,34.796
	h-4.075l-0.775,2.746h-3.3l4.43-13.047h3.365l4.43,13.047h-3.278L33.87,34.796z M31.81,27.463L31.278,29.7l-0.753,2.524h2.57
	l-0.73-2.524c-0.244-0.819-0.532-2.237-0.532-2.237H31.81z M45.19,24.263c3.234,0,4.895,1.84,4.895,1.84l-1.484,2.414
	c0,0-1.463-1.319-3.256-1.319c-2.503,0-3.677,1.84-3.677,3.72c0,1.928,1.285,3.921,3.677,3.921c1.97,0,3.456-1.596,3.456-1.596
	l1.64,2.326c0,0-1.84,2.193-5.25,2.193c-4.076,0-6.845-2.902-6.845-6.778c0-3.788,2.924-6.712,6.845-6.712L45.19,24.263z
	 M52.365,24.495h3.201v5.028h0.442l3.345-5.028h3.434l-4.164,6.247v0.044l4.386,6.778h-3.565l-3.4-5.294h-0.443v5.294h-3.2v-13.07
	L52.365,24.495z"/>
</svg>
