<?xml version="1.0" encoding="utf-8"?>
<!-- Generator: Adobe Illustrator 27.3.1, SVG Export Plug-In . SVG Version: 6.00 Build 0)  -->
<svg version="1.1" id="Layer_1" xmlns="http://www.w3.org/2000/svg" xmlns:xlink="http://www.w3.org/1999/xlink" x="0px" y="0px"
	 viewBox="0 0 182.4 46.1" style="enable-background:new 0 0 182.4 46.1;" xml:space="preserve">
<style type="text/css">
	.st0{fill:#FFFFFF;}
	.st1{fill:#F4792B;}
</style>
<path class="st0" d="M29.6,25.9c0.1-1.9,1-3.6,2.4-4.7c1.4-1.2,3.2-1.9,5.2-1.9c2,0,3.9,0.7,5.2,1.9c1.4,1.2,2.3,2.8,2.4,4.7
	c0.1,1.9-0.7,3.7-2,5.1c-1.4,1.4-3.4,2.2-5.6,2.2S33,32.3,31.6,31C30.2,29.6,29.4,27.8,29.6,25.9z"/>
<path class="st1" d="M17.4,29.7c0,0.7,0.2,2.2,0.6,3.3c0.7,2.4,2,4.6,3.8,6.5c1.8,2,4,3.6,6.6,4.7c2.7,1.2,5.6,1.8,8.6,1.8
	c3,0,5.9-0.6,8.6-1.8c2.6-1.1,4.8-2.8,6.6-4.7c1.8-1.9,3-4.1,3.8-6.5c0.4-1.2,0.6-2.4,0.7-3.6c0.1-1.2,0.1-2.4-0.1-3.6
	c-0.3-2.3-1.1-4.6-2.4-6.6c-1.2-1.9-2.6-3.5-4.4-4.8l0,0L32,0.7c0,0,0,0,0,0c-1.2-0.9-3.1-0.9-4.4,0c-1.3,0.9-1.4,2.4-0.3,3.3l0,0
	l7.4,6l-22.5,0h0c-1.9,0-3.6,1.2-4,2.8c-0.4,1.6,0.9,2.9,2.8,2.9l0,0l11.4,0L2,31.3L2,31.4c-1.9,1.5-2.5,3.9-1.3,5.5
	c1.2,1.6,3.8,1.6,5.8,0l11.1-9.1C17.5,27.8,17.4,29,17.4,29.7z M45.9,33.8c-2.3,2.3-5.5,3.7-9,3.7c-3.5,0-6.7-1.3-9-3.6
	c-1.1-1.1-1.9-2.4-2.4-3.8c-0.5-1.4-0.7-2.8-0.6-4.3c0.1-1.4,0.5-2.8,1.2-4c0.7-1.2,1.6-2.3,2.7-3.2c2.2-1.8,5.1-2.8,8-2.8
	c3,0,5.8,1,8,2.8c1.1,0.9,2,2,2.7,3.2c0.7,1.2,1.1,2.6,1.2,4c0.1,1.5-0.1,2.9-0.6,4.3C47.8,31.4,47,32.7,45.9,33.8z"/>
<path class="st0" d="M150.9,25.9c0.2-1.9,1.6-3.1,3.9-3.1c2.3,0,3.7,1.2,3.9,3.1H150.9z M158.5,30.6c-0.6,1.4-1.9,2.3-3.8,2.3
	c-2.3,0-3.9-1.4-3.9-3.7H164v-0.7c0-5.7-3.4-8.9-9.4-8.9c-5.8,0-9.4,3.2-9.4,8.3c0,5.1,3.6,8.3,9.4,8.3c3.5,0,6.2-1.2,7.8-3.3
	L158.5,30.6z M91.9,25.9c0.2-1.9,1.7-3.1,3.9-3.1c2.3,0,3.7,1.2,3.9,3.1H91.9z M99.5,30.6c-0.6,1.4-1.9,2.3-3.8,2.3
	c-2.3,0-3.9-1.4-3.9-3.7H105v-0.7c0-5.7-3.4-8.9-9.4-8.9c-5.8,0-9.4,3.2-9.4,8.3c0,5.1,3.6,8.4,9.4,8.4c3.5,0,6.2-1.2,7.8-3.3
	C103.5,32.9,99.5,30.6,99.5,30.6z M80.3,16.1h4.8v19.6h-4.8V16.1z M106.2,21.3h4.8v1.2c1.7-1.8,3.8-2.7,6.1-2.7
	c2.7,0,4.7,0.9,5.7,2.5c0.9,1.3,0.9,2.9,0.9,4.9v8.6h-4.8v-7.5c0-3.1-0.6-4.6-3.4-4.6c-2.8,0-4.5,1.7-4.5,4.4v7.7h-4.8L106.2,21.3
	L106.2,21.3z M139.3,28.1c0,2.7-1.8,4.4-4.6,4.4c-2.8,0-4.6-1.7-4.6-4.4c0-2.8,1.8-4.5,4.6-4.5C137.5,23.6,139.3,25.4,139.3,28.1z
	 M139.3,21.9c-1.2-1.3-3-2-5.4-2c-5.3,0-8.9,3.3-8.9,8.2c0,4.8,3.6,8.1,8.8,8.1c2.4,0,4.2-0.6,5.5-2v1.4h4.8V14.8l-4.8,1.2
	C139.3,16.1,139.3,21.9,139.3,21.9z M69.4,23.6c2.8,0,4.6,1.7,4.6,4.5c0,2.7-1.8,4.4-4.6,4.4c-2.8,0-4.6-1.8-4.6-4.4
	C64.8,25.4,66.6,23.6,69.4,23.6z M64.8,16.1L60,14.8v20.9h4.8v-1.4c1.4,1.4,3.1,2,5.5,2c5.2,0,8.8-3.4,8.8-8.1
	c0-4.9-3.6-8.2-8.9-8.2c-2.5,0-4.2,0.7-5.4,2C64.8,21.9,64.8,16.1,64.8,16.1z M165.2,35.7V21.3h4.8v0.9c1.4-1.7,3-2.6,4.7-2.6
	c0.3,0,0.8,0.1,1.4,0.1v4.1c-0.5-0.1-1-0.1-1.5-0.1c-2.8,0-4.5,1.9-4.5,5v7H165.2z M182.4,19.6H182l0-1.3l0-0.4l-0.1,0.4l-0.4,1.4
	h-0.3l-0.4-1.4l-0.1-0.4l0,0.4l0,1.3h-0.4v-2.1h0.5l0.5,1.7l0.5-1.7h0.5L182.4,19.6L182.4,19.6z M179.4,19.6h-0.4v-1.8h-0.7v-0.3
	h1.7v0.3h-0.7L179.4,19.6L179.4,19.6z"/>
</svg>
