<?xml version="1.0" encoding="utf-8"?>
<!-- Generator: Adobe Illustrator 16.0.3, SVG Export Plug-In . SVG Version: 6.00 Build 0)  -->
<!DOCTYPE svg PUBLIC "-//W3C//DTD SVG 1.1//EN" "http://www.w3.org/Graphics/SVG/1.1/DTD/svg11.dtd">
<svg version="1.1" id="Layer_1" xmlns="http://www.w3.org/2000/svg" xmlns:xlink="http://www.w3.org/1999/xlink" x="0px" y="0px"
	 width="296.091px" height="94.675px" viewBox="1.99 5.136 296.091 94.675" enable-background="new 1.99 5.136 296.091 94.675"
	 xml:space="preserve">
<path fill="#000023" d="M77.328,49.091H59.772V5.562h16.916c8.031,0,13.148,4.544,13.148,11.93c0.042,1.949-0.497,3.867-1.547,5.51
	c-1.05,1.644-2.565,2.938-4.352,3.721c3.34,1.349,6.539,4.544,6.539,10.083C90.476,44.76,85.075,49.091,77.328,49.091z
	 M76.119,11.527h-9.737v12.427h9.808c4.193,0,7.107-2.201,7.107-6.249C83.298,13.657,80.384,11.527,76.119,11.527L76.119,11.527z
	 M76.759,29.848H66.382v13.279h10.376c4.549,0,7.179-2.84,7.179-6.675C83.938,32.617,81.308,29.848,76.759,29.848L76.759,29.848z"/>
<path fill="#000023" d="M113.362,49.091v-3.125c-2.075,2.11-4.876,3.351-7.834,3.47s-5.85-0.894-8.086-2.831
	c-2.417-2.343-3.127-5.255-3.127-8.734V18.131h6.255V37.02c0,4.829,2.771,6.888,6.254,6.888c3.483,0,6.397-2.13,6.397-6.888V18.131
	h6.254v30.96H113.362z"/>
<path fill="#000023" d="M141.72,25.374c-1.422-1.42-2.488-2.06-4.62-2.06c-3.34,0-6.183,2.699-6.183,6.959v18.818h-6.255v-30.96
	h6.113v3.337c1.563-2.201,4.762-3.692,8.244-3.692c1.369-0.07,2.737,0.153,4.012,0.655c1.275,0.502,2.427,1.271,3.38,2.256
	L141.72,25.374z"/>
<path fill="#000023" d="M170.078,46.677c-2.044,1.885-4.754,2.881-7.534,2.77c-3.269,0-5.899-0.781-8.103-3.551V61.59h-6.253V18.131
	h6.112v3.267c2.345-2.84,4.904-3.692,8.173-3.692c3.271,0,5.899,1.065,7.605,2.77c2.984,3.053,3.482,8.024,3.482,13.066
	C173.561,38.582,173.063,43.624,170.078,46.677z M160.91,23.315c-5.686,0-6.469,4.758-6.469,10.226s0.783,10.296,6.469,10.296
	s6.396-4.829,6.396-10.296S166.525,23.315,160.91,23.315z"/>
<path fill="#000023" d="M196.73,49.447c-6.539,0-11.158-1.563-15.422-5.752l4.334-4.332c3.199,3.195,6.752,4.189,11.159,4.189
	c5.757,0,8.955-2.415,8.955-6.746c0-1.988-0.498-3.479-1.706-4.544c-1.066-0.994-2.558-1.563-4.762-1.846l-5.117-0.71
	c-3.554-0.568-6.326-1.634-8.173-3.479c-2.133-1.989-3.199-4.758-3.199-8.379c0-7.598,5.474-12.711,14.57-12.711
	c5.828,0,9.808,1.491,13.504,4.971l-4.192,4.119c-2.701-2.557-5.828-3.337-9.596-3.337c-5.117,0-7.889,2.84-7.889,6.746
	c-0.034,0.735,0.088,1.47,0.357,2.155s0.68,1.306,1.205,1.822c1.067,0.994,2.417,1.563,4.762,1.988l5.189,0.781
	c3.98,0.639,6.184,1.491,8.102,3.267c2.346,2.13,3.555,5.113,3.555,8.947C212.367,44.618,205.898,49.447,196.73,49.447z"/>
<path fill="#000023" d="M234.613,49.091v-3.125c-2.074,2.11-4.877,3.351-7.834,3.47c-2.959,0.119-5.85-0.894-8.088-2.831
	c-2.344-2.343-3.127-5.255-3.127-8.734V18.131h6.256V37.02c0,4.829,2.771,6.888,6.254,6.888c3.482,0,6.396-2.13,6.396-6.888V18.131
	h6.254v30.96H234.613z"/>
<path fill="#000023" d="M245.7,11.953V5.42h6.61v6.604L245.7,11.953z M245.913,49.092v-30.96h6.255v30.96H245.913z"/>
<path fill="#000023" d="M266.809,49.092c-5.828,0-8.529-4.119-8.529-8.592V22.818h-3.553V18.06h3.553V9.255h6.256v8.876h5.97v4.757
	h-5.97v17.256c0,2.272,1.066,3.622,3.41,3.622h2.56v5.326H266.809z"/>
<path fill="#000023" d="M277.896,35.386c0,5.397,2.771,8.664,7.889,8.664c3.482,0,5.331-0.994,7.533-3.196l3.98,3.693
	c-3.197,3.195-6.183,4.829-11.585,4.829c-7.747,0-13.93-4.119-13.93-15.906c0-10.083,5.188-15.835,13.147-15.835
	c8.316,0,13.149,5.965,13.149,14.983v2.627L277.896,35.386z M290.975,26.865c-0.379-0.808-0.91-1.533-1.568-2.134
	c-0.658-0.602-1.43-1.067-2.268-1.371c-0.839-0.303-1.729-0.438-2.619-0.397c-0.891,0.041-1.765,0.256-2.572,0.635
	c-1.432,0.684-2.584,1.837-3.27,3.267c-0.572,1.32-0.84,2.752-0.781,4.189h13.931C291.839,29.614,291.549,28.187,290.975,26.865z"/>
<path fill="#00A2B9" d="M45.913,5.349H1.99v43.884h43.923V5.349z"/>
<path fill="#FFFFFF" d="M25.729,43.198h-3.412v-5.113l4.549-5.61h-4.549v-6.888H13.93l8.387-10.296v-3.834h3.412v5.042l-4.62,5.681
	h4.62v6.888h8.315l-8.315,10.297V43.198z"/>
<path fill="#00A2B9" d="M67.093,92.691c-1.073,0.023-2.141-0.165-3.141-0.555c-1-0.391-1.913-0.974-2.687-1.717
	c-2.203-2.201-2.345-4.048-2.345-9.8s0.142-7.599,2.345-9.8c0.77-0.748,1.683-1.335,2.684-1.726c1.001-0.39,2.07-0.576,3.145-0.546
	c4.264,0,7.32,2.698,8.102,6.959h-1.848c-0.711-3.338-3.056-5.326-6.254-5.326c-0.84-0.036-1.679,0.104-2.462,0.408
	c-0.783,0.307-1.494,0.771-2.087,1.367c-1.706,1.704-1.848,3.621-1.848,8.663s0.143,6.959,1.848,8.663
	c0.599,0.592,1.31,1.061,2.09,1.377c0.781,0.316,1.616,0.477,2.459,0.47c3.198,0,5.615-2.06,6.325-5.325h1.777
	C74.414,90.064,71.287,92.691,67.093,92.691z"/>
<path fill="#00A2B9" d="M88.984,90.916c-1.217,1.129-2.817,1.757-4.478,1.757c-1.661,0-3.26-0.628-4.478-1.757
	c-1.706-1.703-1.99-4.189-1.99-6.461c0-2.273,0.284-4.758,1.99-6.463c1.217-1.129,2.817-1.756,4.478-1.756
	c1.661,0,3.261,0.627,4.478,1.756c1.706,1.705,1.99,4.189,1.99,6.463C90.974,86.727,90.689,89.283,88.984,90.916z M87.847,79.059
	c-0.438-0.439-0.959-0.787-1.532-1.025c-0.573-0.237-1.188-0.359-1.809-0.359c-0.62,0-1.235,0.122-1.808,0.359
	c-0.573,0.238-1.094,0.586-1.532,1.025c-1.35,1.349-1.421,3.55-1.421,5.396c0,1.846,0.142,4.047,1.421,5.396
	c0.438,0.438,0.959,0.787,1.532,1.024s1.188,0.36,1.808,0.36c0.621,0,1.235-0.123,1.809-0.36s1.094-0.586,1.532-1.024
	c1.35-1.35,1.421-3.551,1.421-5.396C89.268,82.608,89.197,80.407,87.847,79.059L87.847,79.059z"/>
<path fill="#00A2B9" d="M115.636,92.55V82.537c0-3.125-1.564-4.828-4.478-4.828c-2.914,0-4.548,1.703-4.548,4.545V92.55h-1.706
	V82.537c0-3.125-1.564-4.828-4.478-4.828c-2.914,0-4.548,1.703-4.548,4.828V92.55h-1.706V76.43h1.706v1.918
	c0.582-0.691,1.312-1.241,2.136-1.61c0.825-0.368,1.722-0.546,2.626-0.521c1.063-0.07,2.123,0.176,3.046,0.707
	s1.669,1.322,2.142,2.275c0.564-0.938,1.369-1.709,2.331-2.232c0.962-0.525,2.046-0.783,3.142-0.75
	c1.477-0.094,2.932,0.398,4.05,1.368c1.117,0.97,1.807,2.341,1.92,3.815V92.55H115.636z"/>
<path fill="#00A2B9" d="M142.644,92.55V82.537c0-3.125-1.564-4.828-4.478-4.828s-4.548,1.703-4.548,4.545V92.55h-1.706V82.537
	c0-3.125-1.564-4.828-4.478-4.828s-4.548,1.703-4.548,4.828V92.55h-1.706V76.43h1.706v1.918c0.581-0.691,1.312-1.241,2.136-1.61
	c0.825-0.368,1.722-0.546,2.625-0.521c1.063-0.07,2.123,0.176,3.047,0.707c0.923,0.531,1.668,1.322,2.142,2.275
	c0.564-0.938,1.369-1.709,2.331-2.232c0.962-0.525,2.046-0.783,3.141-0.75c1.478-0.094,2.933,0.398,4.05,1.368
	c1.118,0.97,1.808,2.341,1.921,3.815V92.55H142.644z"/>
<path fill="#00A2B9" d="M158.777,92.55v-1.917c-1.141,1.238-2.717,1.988-4.398,2.095c-1.682,0.105-3.34-0.44-4.628-1.526
	c-0.566-0.596-1.009-1.299-1.302-2.066s-0.43-1.586-0.403-2.408V76.431h1.705v9.941c0,3.124,1.563,4.829,4.478,4.829
	s4.549-1.705,4.549-4.829v-9.941h1.705V92.55H158.777z"/>
<path fill="#00A2B9" d="M175.195,92.55V82.537c0-3.125-1.563-4.828-4.478-4.828c-2.913,0-4.549,1.703-4.549,4.828V92.55h-1.706
	V76.43h1.706v1.918c0.772-1.017,1.849-1.76,3.074-2.119c1.226-0.361,2.534-0.32,3.733,0.117c1.2,0.437,2.229,1.246,2.936,2.309
	c0.706,1.063,1.053,2.324,0.988,3.6V92.55H175.195z"/>
<path fill="#00A2B9" d="M180.525,70.82v-2.13h2.133v2.13H180.525z M180.738,92.55V76.431h1.707V92.55H180.738z"/>
<path fill="#00A2B9" d="M190.975,92.55c-2.56,0-3.91-1.775-3.91-4.189V77.709h-2.203V76.43h2.203v-5.184h1.705v5.184h3.625v1.279
	h-3.625V88.36c0,1.704,0.782,2.698,2.488,2.698h1.208v1.491H190.975z"/>
<path fill="#00A2B9" d="M199.787,96.882c-0.223,0.899-0.762,1.688-1.52,2.222c-0.756,0.535-1.681,0.779-2.603,0.689h-0.782v-1.491
	h0.639c1.849,0,2.347-0.64,2.985-2.201l1.28-3.551l-5.898-16.119h1.848l4.832,14.131l4.834-14.131h1.847L199.787,96.882z"/>
<path fill="#00A2B9" d="M215.777,92.55V68.69h14.5v1.634h-12.651v9.373h10.804v1.633h-10.804v9.586h12.651v1.634H215.777z"/>
<path fill="#00A2B9" d="M242.786,92.55v-2.06c-0.509,0.631-1.14,1.154-1.853,1.54s-1.496,0.624-2.305,0.704
	c-0.807,0.079-1.622-0.003-2.396-0.242c-0.775-0.238-1.496-0.629-2.117-1.149c-1.635-1.634-2.061-4.331-2.061-6.888
	s0.426-5.184,2.061-6.889c0.523-0.485,1.139-0.861,1.811-1.105s1.385-0.351,2.098-0.314c0.925-0.078,1.853,0.092,2.689,0.491
	s1.553,1.015,2.073,1.781V68.69h1.706v23.788L242.786,92.55z M238.236,77.709c-3.979,0-4.547,3.408-4.547,6.746
	c0,3.337,0.567,6.746,4.547,6.746c3.98,0,4.55-3.409,4.55-6.746C242.786,81.117,242.146,77.709,238.236,77.709L238.236,77.709z"/>
<path fill="#00A2B9" d="M248.259,70.82v-2.13h2.132v2.13H248.259z M248.473,92.55V76.431h1.705V92.55H248.473z"/>
<path fill="#00A2B9" d="M258.707,92.55c-2.559,0-3.909-1.775-3.909-4.189V77.709h-2.204V76.43h2.204v-5.184h1.776v5.184h3.625v1.279
	h-3.625V88.36c0,1.704,0.781,2.698,2.488,2.698h1.207v1.491H258.707z"/>
<path fill="#00A2B9" d="M262.688,70.82v-2.13h2.131v2.13H262.688z M262.9,92.55V76.431h1.705V92.55H262.9z"/>
<path fill="#00A2B9" d="M278.749,90.916c-1.217,1.129-2.817,1.757-4.478,1.757s-3.261-0.628-4.478-1.757
	c-1.706-1.703-1.989-4.189-1.989-6.461c0-2.273,0.283-4.758,1.989-6.463c1.217-1.129,2.817-1.756,4.478-1.756
	s3.261,0.627,4.478,1.756c1.706,1.705,1.99,4.189,1.99,6.463C280.739,86.727,280.455,89.283,278.749,90.916z M277.611,79.059
	c-0.438-0.439-0.959-0.787-1.531-1.025c-0.573-0.237-1.188-0.359-1.809-0.359s-1.235,0.122-1.809,0.359
	c-0.572,0.238-1.094,0.586-1.531,1.025c-1.351,1.349-1.422,3.55-1.422,5.396c0,1.846,0.071,4.047,1.422,5.396
	c0.438,0.438,0.959,0.787,1.531,1.024c0.573,0.237,1.188,0.36,1.809,0.36s1.235-0.123,1.809-0.36
	c0.572-0.237,1.094-0.586,1.531-1.024c1.351-1.35,1.422-3.551,1.422-5.396C279.033,82.608,278.962,80.407,277.611,79.059
	L277.611,79.059z"/>
<path fill="#00A2B9" d="M294.741,92.55V82.537c0-3.125-1.564-4.828-4.478-4.828c-2.914,0-4.55,1.703-4.55,4.828V92.55h-1.705V76.43
	h1.705v1.918c0.466-0.627,1.05-1.156,1.72-1.557s1.414-0.664,2.188-0.776s1.561-0.07,2.316,0.122
	c0.758,0.193,1.469,0.535,2.092,1.004c0.781,0.595,1.404,1.372,1.813,2.264c0.409,0.892,0.592,1.87,0.533,2.85V92.55H294.741z"/>
</svg>
