<?xml version="1.0" encoding="utf-8"?>
<!-- Generator: Adobe Illustrator 16.0.3, SVG Export Plug-In . SVG Version: 6.00 Build 0)  -->
<!DOCTYPE svg PUBLIC "-//W3C//DTD SVG 1.1//EN" "http://www.w3.org/Graphics/SVG/1.1/DTD/svg11.dtd">
<svg version="1.1" id="Layer_1" xmlns:serif="http://www.serif.com/"
	 xmlns="http://www.w3.org/2000/svg" xmlns:xlink="http://www.w3.org/1999/xlink" x="0px" y="0px" width="291.097px"
	 height="73.601px" viewBox="8.224 113.402 291.097 73.601" enable-background="new 8.224 113.402 291.097 73.601"
	 xml:space="preserve">
<g transform="matrix(1,0,0,1,-35.5985,-67.948)">
	<g transform="matrix(1.16548,0,0,1.10195,-124,-68.27)">
		<g id="Light-Logo" transform="matrix(0.858013,0,0,0.907485,-3243.42,-1469.17)" serif:id="Light Logo">
			<g id="Logo" transform="matrix(1,0,0,1,21.4759,36.7359)">
				<g id="Icon">
					<g>
						<g transform="matrix(-0.191794,-0.715786,0.715786,-0.191794,4329.14,4673.64)">
							<path fill="#1F88C0" d="M3784.444,550.312c-6.357-0.375-12.269-2.085-17.7-4.636c-5.509-2.588-10.416-6.162-14.564-10.483
								c-1.655-1.722-3.198-3.549-4.615-5.481c-1.4-1.922-2.691-3.939-3.831-6.05c-3.357-6.208-5.478-13.207-5.732-20.737
								c-0.252-5.974,0.594-11.725,2.415-17.067c1.924-5.623,4.86-10.773,8.621-15.243l-0.823-0.755
								c-4.275,4.31-7.734,9.408-10.204,15.063c-2.421,5.541-3.854,11.601-4.131,18.003c-0.27,8.329,1.448,16.272,4.836,23.302
								c1.172,2.434,2.564,4.748,4.132,6.921c1.583,2.182,3.348,4.227,5.287,6.089c4.797,4.612,10.536,8.27,16.892,10.574
								c6.04,2.19,12.61,3.134,19.417,2.733V550.312z"/>
						</g>
						<g transform="matrix(-0.191794,-0.715786,0.715786,-0.191794,4329.14,4673.64)">
							<path fill="#1F88C0" d="M3763.966,459.947c3.111-1.611,6.42-2.91,9.902-3.789c3.395-0.856,6.934-1.315,10.574-1.388
								c1.79,0.078,3.538,0.237,5.264,0.519c7.062,1.155,13.441,4.058,19.078,7.912c3.023,2.067,5.762,4.474,8.311,7.073
								c3.388,3.452,6.396,7.28,8.739,11.567c3.443,6.305,5.628,13.42,5.913,21.084c0.229,6.238-0.681,12.251-2.723,17.774
								c-1.417,3.836-3.308,7.465-5.715,10.699c-2.723,3.659-6.095,6.798-9.808,9.444c-3.649,2.602-7.709,4.631-12.016,6.102
								c-0.57,0.192-1.179,0.259-1.71,0.545c-0.404,0.223-0.625,0.544-0.981,0.837l0.539,1.714c0.483,0.034,0.87,0.146,1.346,0.067
								c0.625-0.103,1.171-0.468,1.749-0.719c6.102-2.652,11.509-6.499,16.061-11.19c1.939-1.999,3.705-4.159,5.335-6.419
								c1.805-2.494,3.443-5.119,4.844-7.893c3.198-6.339,5.209-13.398,5.486-20.96c0.3-8.198-1.346-16.021-4.655-22.955
								c-2.304-4.824-5.351-9.266-9.127-12.974c-2.833-2.783-6.087-5.135-9.586-7.057c-6.301-3.459-13.433-5.384-20.952-5.804
								c-1.781-0.099-3.57-0.139-5.391-0.06c-3.713-0.075-7.33,0.289-10.821,0.984c-3.633,0.722-7.124,1.809-10.433,3.267
								L3763.966,459.947z"/>
						</g>
					</g>
					<g>
						<g transform="matrix(-3.37109,-0.514565,0.514565,-3.37109,4078.07,1806.88)">
							<path fill="none" stroke="#1F88C0" stroke-width="1.05" stroke-linecap="round" stroke-linejoin="round" d="M23.245-17.034
								c0-0.868-0.715-1.583-1.583-1.583c-0.458,0-0.873,0.199-1.164,0.514c-0.26,0.283-0.419,0.659-0.419,1.069
								c0,0.868,0.715,1.583,1.583,1.583C22.53-15.451,23.245-16.166,23.245-17.034z"/>
						</g>
						<g transform="matrix(-5.33921,-5.26159,-3.12106,-6.96393,4073.87,1861.55)">
							<path fill="#1F88C0" d="M30.327-23.3c0,0-0.449,0.466-1.017,1.061c-0.999,1.046-2.356,2.479-2.356,2.479l0.145,0.043
								c0,0,1.431-1.411,2.472-2.445c0.591-0.588,1.052-1.05,1.052-1.05L30.327-23.3z"/>
						</g>
					</g>
					<g id="Padlock" transform="matrix(3.11426,0,0,3.11426,3938.31,1737.25)">
						<g>
							<path fill="none" stroke="#22B638" stroke-width="1.89" d="M6.476,49.041h6.559c0.366,0,0.663-0.297,0.663-0.663v-6.589
								c0-0.366-0.297-0.663-0.663-0.663H3.28c-0.366,0-0.663,0.297-0.663,0.663v3.894"/>
							<path fill="none" stroke="#22B638" stroke-width="1.89" stroke-linecap="round" stroke-linejoin="round" d="M4.991,41.125
								v-3.166c0-1.737,1.43-3.166,3.166-3.166c1.737,0,3.166,1.43,3.166,3.166v3.166"/>
						</g>
					</g>
					<g>
						<g transform="matrix(5.30977,0.697415,-0.697415,5.30977,3852.72,1727.97)">
							<path fill="none" stroke="#1F88C0" stroke-width="0.98" stroke-linecap="round" stroke-linejoin="round" d="M22.446,28.216
								c0-0.27-0.069-0.525-0.19-0.748c-0.268-0.496-0.795-0.835-1.393-0.835c-0.868,0-1.583,0.715-1.583,1.583
								c0,0.868,0.715,1.583,1.583,1.583C21.731,29.799,22.446,29.084,22.446,28.216z"/>
						</g>
						<g transform="matrix(4.93114,2.49604,1.11018,5.44847,3921.41,1726.72)">
							<path fill="#1F88C0" d="M2.146,26.536c0,0-1.32,1.174-2.276,2.055c-0.541,0.499-0.956,0.899-0.956,0.899l0.555,0.524
								c0,0,0.397-0.417,0.891-0.96c0.873-0.959,2.037-2.282,2.037-2.282L2.146,26.536z"/>
						</g>
					</g>
				</g>
				<g id="Wordmark" transform="matrix(1.54159,0,0,2.8744,2710.6,709.804)">
					<g id="y" transform="matrix(0.50291,0,0,0.281607,905.533,304.987)">
						<path fill="#2F2F2F" d="M101.476,390.633l8.293-14.434c-11.735,1.161-15.224-2.266-17.798-4.155
							c-2.577-1.889-4.576-4.276-6.001-7.159c-1.423-2.883-2.134-6.06-2.134-9.532v-27.07h10.562v26.997
							c0,2.354,0.543,4.44,1.629,6.255c1.086,1.816,2.531,3.231,4.333,4.242c1.805,1.012,3.766,1.518,5.89,1.518
							c2.146,0,4.124-0.509,5.934-1.527c1.81-1.018,3.261-2.432,4.352-4.241c1.093-1.811,1.639-3.893,1.639-6.247v-26.997H128.7
							v27.07c0,3.485-0.923,12.787-6.701,20.846c-1.855,2.587-8.108,14.434-8.108,14.434H101.476z"/>
					</g>
					<g id="add" transform="matrix(0.525075,0,0,0.281607,801.871,304.987)">
						<g transform="matrix(116.242,0,0,116.242,161.846,267.39)">
							<path fill="#2F2F2F" d="M-0.135,0.937c-0.039,0-0.071-0.009-0.1-0.029C-0.262,0.89-0.284,0.864-0.299,0.833
								C-0.314,0.8-0.322,0.765-0.322,0.726c0-0.04,0.009-0.076,0.025-0.108c0.017-0.032,0.042-0.058,0.074-0.077
								c0.032-0.018,0.07-0.028,0.115-0.028c0.044,0,0.082,0.01,0.112,0.029c0.031,0.018,0.055,0.044,0.071,0.076
								C0.092,0.65,0.1,0.686,0.1,0.725v0.203H0.009V0.852H0.008C0,0.867-0.011,0.882-0.023,0.894
								C-0.036,0.907-0.052,0.917-0.07,0.925C-0.088,0.933-0.11,0.937-0.135,0.937z M-0.11,0.859c0.024,0,0.044-0.006,0.063-0.017
								C-0.03,0.83-0.016,0.814-0.007,0.793c0.009-0.02,0.014-0.043,0.014-0.068c0-0.025-0.005-0.048-0.014-0.068
								c-0.009-0.02-0.023-0.036-0.04-0.047C-0.064,0.597-0.086,0.592-0.11,0.592c-0.025,0-0.047,0.006-0.065,0.017
								c-0.017,0.012-0.032,0.029-0.041,0.048C-0.225,0.678-0.23,0.7-0.23,0.726c0,0.025,0.005,0.047,0.014,0.068
								c0.009,0.02,0.023,0.036,0.041,0.048C-0.157,0.854-0.136,0.859-0.11,0.859z"/>
						</g>
						<g transform="matrix(116.242,0,0,116.242,226.592,267.39)">
							<path fill="#2F2F2F" d="M-0.227,0.937c-0.032,0-0.061-0.005-0.087-0.016c-0.026-0.01-0.048-0.025-0.066-0.044
								c-0.018-0.019-0.032-0.042-0.042-0.069c-0.01-0.027-0.015-0.056-0.015-0.089c0-0.041,0.009-0.077,0.025-0.108
								c0.017-0.03,0.04-0.055,0.069-0.071c0.029-0.017,0.063-0.026,0.101-0.026c0.019,0,0.036,0.003,0.054,0.009
								c0.017,0.006,0.032,0.014,0.046,0.025c0.014,0.011,0.025,0.023,0.033,0.037h0.001V0.35h0.091v0.371
								c0,0.044-0.009,0.083-0.027,0.116c-0.017,0.032-0.042,0.057-0.074,0.074C-0.149,0.928-0.186,0.937-0.227,0.937z
								 M-0.227,0.859c0.023,0,0.044-0.006,0.062-0.017c0.017-0.012,0.031-0.027,0.041-0.047c0.01-0.02,0.015-0.043,0.015-0.07
								c0-0.026-0.006-0.049-0.015-0.07c-0.01-0.02-0.024-0.036-0.042-0.047c-0.017-0.012-0.038-0.017-0.062-0.017
								c-0.023,0-0.043,0.006-0.061,0.017c-0.017,0.012-0.032,0.027-0.042,0.047C-0.34,0.677-0.346,0.7-0.346,0.726
								c0,0.026,0.006,0.049,0.015,0.07c0.01,0.02,0.025,0.036,0.043,0.047C-0.271,0.854-0.25,0.859-0.227,0.859z"/>
						</g>
						<g transform="matrix(116.242,0,0,116.242,290.293,267.39)">
							<path fill="#2F2F2F" d="M-0.341,0.937c-0.032,0-0.061-0.005-0.087-0.016c-0.026-0.01-0.048-0.025-0.066-0.044
								c-0.018-0.019-0.032-0.042-0.042-0.069c-0.01-0.027-0.015-0.056-0.015-0.089c0-0.041,0.009-0.077,0.025-0.108
								c0.017-0.03,0.04-0.055,0.069-0.071c0.029-0.017,0.063-0.026,0.101-0.026c0.019,0,0.036,0.003,0.054,0.009
								c0.017,0.006,0.032,0.014,0.046,0.025c0.014,0.011,0.025,0.023,0.033,0.037h0.001V0.35h0.091v0.371
								c0,0.044-0.009,0.083-0.027,0.116c-0.017,0.032-0.042,0.057-0.074,0.074C-0.263,0.928-0.3,0.937-0.341,0.937z M-0.341,0.859
								c0.023,0,0.044-0.006,0.062-0.017c0.017-0.012,0.031-0.027,0.041-0.047c0.009-0.02,0.015-0.043,0.015-0.07
								c0-0.026-0.006-0.049-0.015-0.07c-0.01-0.02-0.024-0.036-0.042-0.047c-0.017-0.012-0.038-0.017-0.062-0.017
								c-0.023,0-0.043,0.006-0.061,0.017c-0.017,0.012-0.032,0.027-0.042,0.047C-0.455,0.677-0.46,0.7-0.46,0.726
								c0,0.026,0.006,0.049,0.015,0.07c0.01,0.02,0.025,0.036,0.043,0.047C-0.385,0.854-0.364,0.859-0.341,0.859z"/>
						</g>
					</g>
					<g id="c" transform="matrix(-0.0716462,0.31304,-0.583685,-0.0384251,1489.76,-444.051)">
						<path fill="#2E2E2E" d="M2778.769,724.812c-1.045,2.611-1.575,5.395-1.575,8.205c0,12.271,9.965,22.233,22.234,22.233
							c12.269,0,22.235-9.963,22.235-22.233c0-5.268-1.876-10.365-5.28-14.382l-6.333,5.368c2.138,2.518,3.119,5.718,3.309,9.014
							c0.308,5.235-4.116,10.887-11.509,12.563c-10.583,1.539-16.354-4.872-16.354-12.563c0-1.761,0.333-3.507,0.981-5.143
							L2778.769,724.812z"/>
					</g>
				</g>
			</g>
			<g id="R" transform="matrix(0.497016,0,0,0.497016,2390.38,823.152)">
				<g transform="matrix(1,0,0,1,-0.10786,0.450801)">
					<g transform="matrix(12.1247,0,0,12.1247,3862.61,1929.9)">
						<path fill="#2E2E2E" d="M-12.753,16.456v-0.554h0.245c0.036,0,0.068,0.008,0.097,0.024c0.029,0.015,0.052,0.037,0.07,0.065
							c0.018,0.028,0.026,0.06,0.026,0.097s-0.01,0.07-0.028,0.097c-0.018,0.028-0.042,0.05-0.072,0.066l0.055,0.104
							c0.003,0.006,0.007,0.01,0.011,0.014c0.005,0.003,0.009,0.004,0.017,0.004h0.047v0.084h-0.061
							c-0.021,0-0.041-0.006-0.058-0.016c-0.017-0.011-0.03-0.025-0.041-0.044l-0.065-0.124c-0.005,0.001-0.01,0.001-0.016,0.001
							s-0.011,0-0.017,0h-0.117v0.183H-12.753z M-12.659,16.19h0.139c0.021,0,0.039-0.004,0.055-0.012
							c0.017-0.008,0.03-0.02,0.041-0.036c0.009-0.015,0.014-0.033,0.014-0.055c0-0.021-0.005-0.04-0.015-0.055
							c-0.01-0.015-0.023-0.027-0.04-0.035c-0.017-0.009-0.035-0.013-0.054-0.013h-0.14V16.19z"/>
					</g>
				</g>
				<g transform="matrix(1,0,0,1,0.278569,0.101881)">
					<circle fill="none" stroke="#2E2E2E" stroke-width="2" cx="3710.23" cy="2126.525" r="3.812"/>
				</g>
			</g>
		</g>
	</g>
</g>
</svg>
