<?xml version="1.0" encoding="utf-8"?>
<!-- Generator: Adobe Illustrator 16.0.3, SVG Export Plug-In . SVG Version: 6.00 Build 0)  -->
<!DOCTYPE svg PUBLIC "-//W3C//DTD SVG 1.1//EN" "http://www.w3.org/Graphics/SVG/1.1/DTD/svg11.dtd">
<svg version="1.1"
	 id="svg2" xmlns:dc="http://purl.org/dc/elements/1.1/" xmlns:cc="http://creativecommons.org/ns#" xmlns:rdf="http://www.w3.org/1999/02/22-rdf-syntax-ns#" xmlns:svg="http://www.w3.org/2000/svg"
	 xmlns="http://www.w3.org/2000/svg" xmlns:xlink="http://www.w3.org/1999/xlink" x="0px" y="0px" width="1082.332px"
	 height="1158.284px" viewBox="0 0.516 1082.332 1158.284" enable-background="new 0 0.516 1082.332 1158.284" xml:space="preserve"
	>
<path id="path8" fill="#435363" d="M0,1022.547v-0.755C0,946.48,56.759,884.8,138.125,884.8c49.967,0,79.856,16.666,104.447,40.864
	l-37.09,42.766c-20.439-18.537-41.256-29.89-67.749-29.89c-44.653,0-76.822,37.09-76.822,82.513v0.755
	c0,45.423,31.414,83.268,76.822,83.268c30.282,0,48.819-12.122,69.636-31.037l37.09,37.468
	c-27.232,29.119-57.499,47.294-108.598,47.294C57.907,1158.8,0,1098.629,0,1022.547"/>
<path id="path10" fill="#435363" d="M307.5,889h58.288v104.858h107.517V889h58.318v265h-58.318v-106.384H365.788V1154H307.5V889z"/>
<path id="path12" fill="#435363" d="M602.5,889h199.91v51.861H660.426v53.749H785.36v51.876H660.426v55.652h143.872V1154H602.5V889z
	"/>
<path id="path14" fill="#435363" d="M880.573,889h201.759v53.003H938.847v56.4h126.452v53.003H938.846V1154h-58.272V889L880.573,889
	z"/>
<path id="path16" fill="#435363" d="M548.453,538.595c-92.128,0-167.093-74.951-167.093-167.079
	c0-92.143,74.965-167.108,167.093-167.108c76.059,0,140.35,51.085,160.505,120.728h64.65
	c-21.521-104.601-114.282-183.494-225.155-183.494c-126.74,0-229.859,103.119-229.859,229.874
	c0,126.741,103.119,229.859,229.859,229.859c110.873,0,203.634-78.878,225.155-183.479h-64.65
	C688.803,487.524,624.512,538.595,548.453,538.595"/>
<path id="path18" fill="#435363" d="M435.812,484.144c28.857,28.858,68.707,46.74,112.642,46.74v-66.621
	c-25.606,0-48.797-10.401-65.586-27.176L435.812,484.144L435.812,484.144z"/>
<path id="path20" fill="#F38B00" d="M389.085,371.501c0,22.802,4.863,44.496,13.523,64.133l60.938-26.802
	c-5.035-11.422-7.854-24.039-7.854-37.332c0-51.229,41.532-92.747,92.747-92.747v-66.621
	C460.569,212.134,389.085,283.632,389.085,371.501"/>
<path id="path22" fill="#435363" d="M606.228,222.995L582.059,285.1c19.738,7.696,36.21,21.895,46.683,40.021h72.16
	C686.659,278.353,651.442,240.646,606.228,222.995"/>
<path id="path24" fill="#F38B00" d="M582.088,457.904l24.154,62.104c45.215-17.651,80.432-55.371,94.688-102.141h-72.16
	C618.269,436.009,601.811,450.222,582.088,457.904"/>
<path id="path26" fill="#435363" d="M253.613,460.651c-1.05-3.481-2.058-6.991-2.993-10.53c-0.057-0.216-0.115-0.432-0.172-0.647
	c-0.863-3.28-1.654-6.56-2.417-9.869c-0.158-0.676-0.302-1.352-0.446-2.028c-0.633-2.834-1.208-5.696-1.77-8.56
	c-0.245-1.28-0.46-2.561-0.676-3.841c-0.403-2.287-0.806-4.561-1.165-6.877c-0.302-1.971-0.561-3.927-0.82-5.897
	c-1.813-13.437-2.791-27.089-2.776-40.914h-62.938c-0.015,15.076,0.935,29.966,2.705,44.668l0,0c0.029,0.317,0.086,0.634,0.129,0.95
	c0.489,3.999,1.036,7.998,1.654,11.954c0.172,1.094,0.359,2.188,0.546,3.295c0.547,3.251,1.108,6.502,1.741,9.739
	c0.317,1.727,0.691,3.424,1.05,5.136c0.532,2.575,1.079,5.15,1.669,7.711c0.518,2.244,1.079,4.488,1.654,6.732
	c0.503,2,0.993,3.999,1.525,5.999c0.719,2.647,1.482,5.266,2.244,7.898c0.316,1.093,0.604,2.215,0.935,3.294h0.029
	c4.345,14.372,9.495,28.397,15.479,41.979l57.673-25.362C261.511,484.23,257.224,472.577,253.613,460.651L253.613,460.651
	L253.613,460.651z"/>
<path id="path28" fill="#F38B00" d="M548.453,679.592c-84.935,0-161.929-34.584-217.703-90.373l-44.582,44.582
	c67.14,67.14,159.843,108.716,262.285,108.716c189.19,0,345.278-141.616,368.108-324.62h-63.514
	C830.605,565.827,702.57,679.592,548.453,679.592"/>
<path id="path30" fill="#F38B00" d="M548.453,63.44c69.01,0,132.754,22.802,184.17,61.285l37.705-50.538
	C708.439,27.921,631.647,0.516,548.453,0.516c-157.426,0-291.935,98.055-345.796,236.434l58.709,22.845
	C306.179,144.98,417.973,63.44,548.453,63.44"/>
<path id="path32" fill="#435363" d="M853.048,325.136h63.514c-6.804-54.595-25.478-105.507-53.357-150.075l-53.487,33.375
	C831.555,243.293,846.617,282.812,853.048,325.136"/>
<path id="path34" fill="#F38B00" d="M781.492,325.136h63.729c-16.63-106.859-89.812-195.218-187.881-233.499l-22.759,58.522
	C709.159,179.276,765.566,244.977,781.492,325.136"/>
<path id="path36" fill="#435363" d="M548.453,133.917L548.453,133.917l0.015-62.751h-0.015
	c-127.215,0-236.188,79.497-279.894,191.434l58.479,22.759C361.622,196.813,447.823,133.917,548.453,133.917"/>
<path id="path38" fill="#F38B00" d="M310.869,371.501L310.869,371.501h-62.752c0,126.208,78.274,234.434,188.816,278.8
	l23.305-58.249C372.786,556.951,310.869,471.34,310.869,371.501"/>
<path id="path40" fill="#435363" d="M548.453,609.086v62.767c149.845,0,274.398-110.313,296.769-253.985h-63.744
	C759.855,526.77,663.599,609.086,548.453,609.086"/>
</svg>
