<?xml version="1.0" encoding="utf-8"?>
<!-- Generator: Adobe Illustrator 16.0.3, SVG Export Plug-In . SVG Version: 6.00 Build 0)  -->
<!DOCTYPE svg PUBLIC "-//W3C//DTD SVG 1.1//EN" "http://www.w3.org/Graphics/SVG/1.1/DTD/svg11.dtd">
<svg version="1.1" id="Layer_1" xmlns="http://www.w3.org/2000/svg" xmlns:xlink="http://www.w3.org/1999/xlink" x="0px" y="0px"
	 width="107.386px" height="37.62px" viewBox="-16.359 -11.99 107.386 37.62" enable-background="new -16.359 -11.99 107.386 37.62"
	 xml:space="preserve">
<g>
	<path fill="#435363" d="M28,6.864V6.82c0-4.385,3.305-7.976,8.042-7.976c2.9,0,4.65,0.97,6.08,2.38l-2.16,2.5
		c-1.2-1.08-2.402-1.74-3.944-1.74c-2.6,0-4.473,2.16-4.473,4.804v0.044c0,2.645,1.83,4.848,4.473,4.848
		c1.763,0,2.842-0.706,4.054-1.807l2.16,2.18c-1.586,1.695-3.348,2.754-6.323,2.754c-4.54,0-7.9-3.503-7.9-7.933 M45.904-0.912
		h3.394v6.105h6.26v-6.105h3.395v15.43h-3.395V8.323h-6.26v6.194h-3.394V-0.912z M63.08-0.912h11.641v3.02h-8.268v3.13h7.273v3.02
		h-7.273v3.24h8.376v3.02H63.08V-0.912z M79.279-0.912h11.748v3.086h-8.354v3.284h7.362v3.086h-7.362v5.973H79.27L79.279-0.912z
		 M2.474,15.3c-4.67,0-8.472-3.8-8.472-8.47s3.8-8.473,8.472-8.473c3.856,0,7.116,2.6,8.138,6.12H13.9
		C12.8-0.835,8.096-4.835,2.474-4.835C-3.959-4.826-9.172,0.387-9.18,6.82c0.009,6.433,5.222,11.646,11.654,11.654
		c5.62,0,10.324-4,11.416-9.303h-3.278c-1.022,3.53-4.28,6.12-8.138,6.12"/>
	<path fill="#435363" d="M-3.237,12.53c1.463,1.463,3.484,2.37,5.7,2.37v-3.378c-1.248,0.001-2.444-0.495-3.325-1.378L-3.237,12.53z
		"/>
</g>
<path fill="#F38B00" d="M-5.606,6.82c0,1.12,0.233,2.228,0.686,3.252l3.1-1.36c-0.263-0.596-0.399-1.241-0.398-1.893
	c0-2.597,2.106-4.702,4.702-4.702V-1.26c-4.459,0.006-8.073,3.62-8.079,8.08"/>
<path fill="#435363" d="M5.403-0.7L4.178,2.44c1,0.4,1.836,1.1,2.367,2.03h3.66C9.48,2.097,7.696,0.185,5.403-0.7"/>
<path fill="#F38B00" d="M4.18,11.2l1.225,3.15c2.307-0.904,4.075-2.811,4.801-5.179h-3.66C6.014,10.091,5.179,10.811,4.18,11.2"/>
<path fill="#435363" d="M-12.475,11.34l-0.152-0.534l-0.01-0.033l-0.123-0.5l-0.023-0.103l-0.1-0.434l-0.034-0.195l-0.06-0.35
	l-0.042-0.3c-0.092-0.68-0.142-1.373-0.14-2.074h-3.2c-0.001,0.764,0.047,1.52,0.137,2.265l0.007,0.048l0.084,0.606l0.028,0.167
	l0.088,0.494l0.053,0.26l0.085,0.4l0.084,0.34l0.077,0.304l0.16,0.567c0.22,0.73,0.48,1.44,0.786,2.128l2.924-1.286
	c-0.252-0.57-0.47-1.16-0.652-1.766L-12.475,11.34z"/>
<path fill="#F38B00" d="M2.474,22.44c-4.306,0-8.2-1.753-11.038-4.582l-2.26,2.26C-7.42,23.522-2.72,25.63,2.474,25.63
	c9.592,0,17.506-7.18,18.663-16.46h-3.22c-1.174,7.625-7.729,13.256-15.443,13.268 M2.474-8.8c3.367-0.004,6.645,1.086,9.338,3.107
	l1.912-2.562c-3.247-2.431-7.194-3.742-11.25-3.735c-7.982,0-14.8,4.97-17.532,11.987l2.977,1.158C-9.8-4.666-4.14-8.8,2.474-8.8"/>
<path fill="#435363" d="M17.917,4.47h3.22c-0.337-2.703-1.26-5.3-2.705-7.61L15.72-1.448C16.85,0.354,17.597,2.367,17.917,4.47"/>
<path fill="#F38B00" d="M14.3,4.47h3.23c-0.843-5.42-4.553-9.9-9.525-11.84L6.84-4.403c3.83,1.498,6.635,4.839,7.448,8.87"/>
<path fill="#435363" d="M2.474-5.226v-3.182c-6.45,0-11.975,4.03-14.2,9.706l2.965,1.154c1.753-4.5,6.124-7.678,11.226-7.678"/>
<path fill="#F38B00" d="M-9.572,6.82h-3.182c0,6.4,3.97,11.886,9.573,14.135L-1.998,18C-6.432,16.22-9.57,11.88-9.57,6.818"/>
<path fill="#435363" d="M2.474,18.865v3.182c7.597,0,13.912-5.593,15.046-12.877H14.3c-1.096,5.52-5.977,9.695-11.815,9.695"/>
</svg>
