<?xml version="1.0" encoding="utf-8"?>
<!-- Generator: Adobe Illustrator 16.0.3, SVG Export Plug-In . SVG Version: 6.00 Build 0)  -->
<!DOCTYPE svg PUBLIC "-//W3C//DTD SVG 1.1//EN" "http://www.w3.org/Graphics/SVG/1.1/DTD/svg11.dtd">
<svg version="1.1" id="Layer_1" xmlns="http://www.w3.org/2000/svg" xmlns:xlink="http://www.w3.org/1999/xlink" x="0px" y="0px"
	 width="113.698px" height="32.001px" viewBox="3.159 13.993 113.698 32.001" enable-background="new 3.159 13.993 113.698 32.001"
	 xml:space="preserve">
<path fill="#161616" d="M49.902,34.76h-1.524c-0.102,0-0.198,0.049-0.26,0.131c-0.885,1.308-2.38,2.168-4.08,2.168
	c-2.72,0-4.923-2.205-4.923-4.924s2.204-4.923,4.923-4.923c1.636,0,3.165,0.813,4.08,2.169c0.062,0.08,0.158,0.13,0.26,0.13h1.524
	c0.183-0.001,0.329-0.151,0.327-0.333c0-0.049-0.012-0.098-0.034-0.142c-1.17-2.326-3.552-3.793-6.156-3.792
	c-3.806,0-6.893,3.086-6.893,6.893s3.086,6.893,6.893,6.893c2.603,0.001,4.984-1.466,6.155-3.791
	c0.024-0.047,0.036-0.096,0.036-0.147c-0.001-0.181-0.148-0.327-0.329-0.327L49.902,34.76z M54.497,22.944
	c0,1.75-2.626,1.75-2.626,0S54.497,21.194,54.497,22.944z M54.17,38.37v-12.8H52.2v12.8c0.001,0.181,0.147,0.327,0.328,0.328h1.313
	C54.021,38.697,54.168,38.551,54.17,38.37L54.17,38.37z M62.71,25.25c-1.985,0.094-3.573,1.043-4.6,2.492v-1.844
	c-0.001-0.181-0.147-0.327-0.328-0.328H56.47c-0.181,0.001-0.327,0.147-0.328,0.328V38.37c0,0.18,0.146,0.328,0.328,0.328h1.313
	c0.181-0.001,0.327-0.147,0.328-0.328v-6.236c0-2.6,2.03-4.743,4.595-4.912c0.182,0,0.329-0.148,0.329-0.329v-1.316
	c-0.001-0.179-0.145-0.324-0.323-0.328L62.71,25.25z M75.79,34.75h-1.524c-0.102,0-0.197,0.048-0.26,0.13
	c-0.885,1.308-2.38,2.168-4.08,2.168c-2.72,0-4.923-2.204-4.923-4.923s2.204-4.923,4.923-4.923c1.698,0,3.194,0.86,4.08,2.17
	c0.063,0.08,0.158,0.13,0.26,0.13H75.8c0.181,0,0.328-0.147,0.329-0.328c0-0.051-0.012-0.102-0.036-0.147
	c-1.171-2.325-3.552-3.792-6.155-3.792c-3.807,0-6.893,3.086-6.893,6.893c0,3.808,3.086,6.894,6.893,6.894
	c2.604,0,4.984-1.467,6.155-3.793c0.024-0.045,0.036-0.096,0.036-0.146c-0.001-0.182-0.148-0.328-0.329-0.328L75.79,34.75z
	 M79.73,21.293h-1.313c-0.181,0.001-0.327,0.147-0.328,0.328v16.74c0.001,0.18,0.147,0.326,0.328,0.328h1.313
	c0.18-0.002,0.326-0.148,0.328-0.328V21.63c-0.002-0.181-0.148-0.327-0.328-0.328V21.293z M88.93,25.233
	c-3.807,0-6.893,3.086-6.893,6.893c0,3.808,3.086,6.894,6.893,6.894c2.604,0,4.984-1.467,6.155-3.793
	c0.113-0.218-0.047-0.478-0.292-0.475H93.26c-0.105,0-0.203,0.05-0.265,0.135c-0.886,1.305-2.38,2.162-4.075,2.162
	c-2.496,0-4.559-1.857-4.88-4.267h11.435c0.174-0.001,0.316-0.138,0.326-0.313l0.01-0.345c0-3.807-3.086-6.893-6.892-6.893
	L88.93,25.233z M84.186,30.813c0.574-2.08,2.479-3.6,4.744-3.6c2.266,0,4.17,1.53,4.745,3.6H84.186z M114.887,20.966
	c-2.625,0-2.625,3.94,0,3.94C117.514,24.906,117.514,20.966,114.887,20.966z M116.527,25.561v12.8
	c-0.002,0.18-0.147,0.326-0.328,0.328h-2.627c-0.18-0.002-0.326-0.148-0.327-0.328v-12.8H116.527z M104.67,39.025
	c3.219,0,5.917-2.205,6.678-5.185c0.006-0.022,0.008-0.044,0.008-0.067c0-0.18-0.146-0.326-0.328-0.328h-2.777
	c-0.129,0.002-0.244,0.076-0.298,0.193c-0.572,1.241-1.825,2.104-3.282,2.104c-1.994,0.001-3.61-1.616-3.611-3.609
	c0-1.994,1.616-3.61,3.609-3.611c1.412,0,2.695,0.823,3.283,2.106c0.054,0.116,0.17,0.19,0.298,0.191h2.778
	c0.18-0.002,0.326-0.147,0.328-0.328c-0.001-0.022-0.004-0.044-0.008-0.066c-0.761-2.98-3.461-5.186-6.679-5.186
	c-3.806,0-6.894,3.086-6.894,6.893S100.863,39.025,104.67,39.025L104.67,39.025z"/>
<g transform="matrix(1.395722 0 0 1.395722 38.606163 59.796655)">
	<circle fill="#161616" cx="-14.275" cy="-21.349" r="2.73"/>
	<path fill="#161616" d="M-14.275-32.813c-5.342,0-9.83,3.654-11.103,8.598c-0.012,0.044-0.018,0.09-0.019,0.136
		c0,0.3,0.244,0.546,0.546,0.546h4.623c0.214,0.001,0.408-0.125,0.495-0.32c0,0,0.007-0.013,0.01-0.02
		c0.953-2.056,3.034-3.483,5.45-3.483c3.317,0,6.006,2.688,6.006,6.005c0,3.317-2.688,6.005-6.005,6.005
		c-2.415,0-4.496-1.427-5.45-3.483c-0.003-0.007-0.01-0.02-0.01-0.02c-0.088-0.194-0.282-0.32-0.495-0.32h-4.623
		c-0.302,0-0.546,0.244-0.546,0.546c0.001,0.045,0.007,0.091,0.019,0.136c1.273,4.944,5.762,8.598,11.103,8.598
		C-7.942-9.89-2.8-15.022-2.8-21.353s-5.133-11.464-11.464-11.464L-14.275-32.813z"/>
</g>
</svg>
