<?xml version="1.0" encoding="utf-8"?>
<!-- Generator: Adobe Illustrator 27.3.1, SVG Export Plug-In . SVG Version: 6.00 Build 0)  -->
<svg version="1.1" id="Layer_1" xmlns="http://www.w3.org/2000/svg" xmlns:xlink="http://www.w3.org/1999/xlink" x="0px" y="0px"
	 viewBox="0 0 254.6 71.6" style="enable-background:new 0 0 254.6 71.6;" xml:space="preserve">
<style type="text/css">
	.st0{fill:#161616;}
</style>
<path class="st0" d="M104.7,46.5h-3.4c-0.2,0-0.4,0.1-0.6,0.3c-2,2.9-5.3,4.9-9.1,4.9c-6.1,0-11-4.9-11-11s4.9-11,11-11
	c3.7,0,7.1,1.8,9.1,4.9c0.1,0.2,0.4,0.3,0.6,0.3h3.4c0.4,0,0.7-0.3,0.7-0.7c0-0.1,0-0.2-0.1-0.3c-2.6-5.2-8-8.5-13.8-8.5
	c-8.5,0-15.4,6.9-15.4,15.4S83,56.1,91.5,56.1c5.8,0,11.2-3.3,13.8-8.5c0.1-0.1,0.1-0.2,0.1-0.3C105.4,46.8,105.1,46.5,104.7,46.5
	L104.7,46.5z M114.9,20c0,3.9-5.9,3.9-5.9,0S114.9,16.1,114.9,20z M114.2,54.6V25.9h-4.4v28.7c0,0.4,0.3,0.7,0.7,0.7h2.9
	C113.9,55.3,114.2,55,114.2,54.6L114.2,54.6z M133.3,25.2c-4.4,0.2-8,2.3-10.3,5.6v-4.1c0-0.4-0.3-0.7-0.7-0.7h-2.9
	c-0.4,0-0.7,0.3-0.7,0.7v27.9c0,0.4,0.3,0.7,0.7,0.7h2.9c0.4,0,0.7-0.3,0.7-0.7v-14c0-5.8,4.5-10.6,10.3-11c0.4,0,0.7-0.3,0.7-0.7
	v-2.9C134.1,25.5,133.7,25.2,133.3,25.2L133.3,25.2z M162.6,46.5h-3.4c-0.2,0-0.4,0.1-0.6,0.3c-2,2.9-5.3,4.9-9.1,4.9
	c-6.1,0-11-4.9-11-11s4.9-11,11-11c3.8,0,7.2,1.9,9.1,4.9c0.1,0.2,0.4,0.3,0.6,0.3h3.4c0.4,0,0.7-0.3,0.7-0.7c0-0.1,0-0.2-0.1-0.3
	c-2.6-5.2-8-8.5-13.8-8.5c-8.5,0-15.4,6.9-15.4,15.4c0,8.5,6.9,15.4,15.4,15.4c5.8,0,11.2-3.3,13.8-8.5c0.1-0.1,0.1-0.2,0.1-0.3
	C163.4,46.8,163,46.5,162.6,46.5L162.6,46.5z M171.4,16.3h-2.9c-0.4,0-0.7,0.3-0.7,0.7v37.5c0,0.4,0.3,0.7,0.7,0.7h2.9
	c0.4,0,0.7-0.3,0.7-0.7V17.1C172.2,16.7,171.8,16.4,171.4,16.3L171.4,16.3z M192,25.2c-8.5,0-15.4,6.9-15.4,15.4
	c0,8.5,6.9,15.4,15.4,15.4c5.8,0,11.2-3.3,13.8-8.5c0.3-0.5-0.1-1.1-0.7-1.1h-3.4c-0.2,0-0.5,0.1-0.6,0.3c-2,2.9-5.3,4.8-9.1,4.8
	c-5.6,0-10.2-4.2-10.9-9.6h25.6c0.4,0,0.7-0.3,0.7-0.7l0-0.8C207.4,32.1,200.5,25.2,192,25.2L192,25.2z M181.4,37.7
	c1.3-4.7,5.6-8.1,10.6-8.1c5.1,0,9.3,3.4,10.6,8.1H181.4z M250.2,15.6c-5.9,0-5.9,8.8,0,8.8C256,24.4,256,15.6,250.2,15.6z
	 M253.8,25.9v28.7c0,0.4-0.3,0.7-0.7,0.7h-5.9c-0.4,0-0.7-0.3-0.7-0.7V25.9H253.8z M227.3,56c7.2,0,13.2-4.9,15-11.6
	c0,0,0-0.1,0-0.2c0-0.4-0.3-0.7-0.7-0.7h-6.2c-0.3,0-0.5,0.2-0.7,0.4c-1.3,2.8-4.1,4.7-7.3,4.7c-4.5,0-8.1-3.6-8.1-8.1
	c0-4.5,3.6-8.1,8.1-8.1c3.2,0,6,1.8,7.4,4.7c0.1,0.3,0.4,0.4,0.7,0.4h6.2c0.4,0,0.7-0.3,0.7-0.7c0,0,0-0.1,0-0.1
	c-1.7-6.7-7.7-11.6-15-11.6c-8.5,0-15.4,6.9-15.4,15.4S218.8,56,227.3,56L227.3,56z"/>
<g transform="matrix(1.395722 0 0 1.395722 38.606163 59.796655)">
	<circle class="st0" cx="-2.8" cy="-17.2" r="6.1"/>
	<path class="st0" d="M-2.8-42.8c-12,0-22,8.2-24.9,19.3c0,0.1,0,0.2,0,0.3c0,0.7,0.5,1.2,1.2,1.2h10.4c0.5,0,0.9-0.3,1.1-0.7
		c0,0,0,0,0,0c2.1-4.6,6.8-7.8,12.2-7.8c7.4,0,13.4,6,13.4,13.4S4.7-3.7-2.8-3.7c-5.4,0-10.1-3.2-12.2-7.8c0,0,0,0,0,0
		c-0.2-0.4-0.6-0.7-1.1-0.7h-10.4c-0.7,0-1.2,0.5-1.2,1.2c0,0.1,0,0.2,0,0.3C-24.8,0.3-14.7,8.5-2.8,8.5C11.4,8.5,22.9-3,22.9-17.2
		S11.4-42.8-2.8-42.8L-2.8-42.8z"/>
</g>
</svg>
