<?xml version="1.0" encoding="utf-8"?>
<!-- Generator: Adobe Illustrator 27.3.1, SVG Export Plug-In . SVG Version: 6.00 Build 0)  -->
<svg version="1.1" id="Layer_1" xmlns="http://www.w3.org/2000/svg" xmlns:xlink="http://www.w3.org/1999/xlink" x="0px" y="0px"
	 viewBox="0 0 267.5 141" style="enable-background:new 0 0 267.5 141;" xml:space="preserve">
<style type="text/css">
	.st0{fill:#0096D6;}
</style>
<g transform="matrix(1.199534 0 0 1.199534 15.237208 6.249314)">
	<path class="st0" d="M50.7,72.7h9.9v38.7h-9.9V72.7z M139.2,83.9c-0.3-0.3-3.4-2.2-8.4-2.2c-6.2,0-10.8,4.3-10.8,10.2
		s4.3,10.2,10.8,10.2c4.6,0,7.7-1.9,8.4-2.2v10.5c-1.2,0.3-4.6,1.2-9,1.2c-11.1,0-20.7-7.4-20.7-20.1c0-11.4,8.7-20.1,20.7-20.1
		c4.6,0,8,1.2,9,1.2L139.2,83.9L139.2,83.9z M37.1,83.9c-0.3-0.3-3.4-2.2-8.4-2.2c-6.2,0-10.8,4.3-10.8,10.2
		c0,5.9,4.3,10.2,10.8,10.2c4.6,0,7.7-1.9,8.4-2.2v10.5c-1.2,0.3-4.6,1.2-9,1.2c-10.8,0-20.7-7.4-20.7-20.1
		c0-11.4,8.7-20.1,20.7-20.1c4.6,0,8,1.2,9,1.2V83.9z M190.2,92.2c0,11.1-8.7,20.1-20.4,20.1c-11.8,0-20.4-9-20.4-20.1
		s8.7-20.1,20.4-20.1C181.8,72.1,190.2,81.1,190.2,92.2z M169.8,82c-5.9,0-10.2,4.6-10.2,10.2c0,5.6,4.3,10.2,10.2,10.2
		c5.9,0,10.2-4.6,10.2-10.2C180,86.6,175.7,82,169.8,82z M97.4,81.7c0,0-4.3-1.2-7.7-1.2c-4,0-6.2,1.2-6.2,3.1
		c0,2.5,2.8,3.1,4.3,3.7l2.8,0.9c6.2,2.2,9.3,6.5,9.3,11.1c0,9.6-8.7,13-16.1,13c-5.3,0-10.2-0.9-10.5-0.9v-9
		c0.9,0.3,4.9,1.5,9.3,1.5c4.9,0,7.1-1.5,7.1-3.7c0-1.9-1.9-3.1-4.3-3.7c-0.6-0.3-1.5-0.6-2.2-0.6c-5.6-1.9-9.9-5-9.9-11.4
		c0-7.1,5.6-12.1,14.5-12.1c4.6,0,9.3,1.2,9.6,1.2V81.7z"/>
	<g>
		<path id="A" class="st0" d="M-2.8,31.3c0-2.7-2.1-4.9-4.8-4.9c0,0-0.1,0-0.1,0c-2.7,0-4.9,2.1-4.9,4.8c0,0,0,0.1,0,0.1v10.2
			c0,2.7,2.1,4.9,4.8,4.9c0,0,0.1,0,0.1,0c2.7,0,4.9-2.1,4.9-4.8c0,0,0-0.1,0-0.1V31.3z"/>
	</g>
	<path class="st0" d="M23.8,18c0-2.7-2.1-4.9-4.8-4.9c0,0-0.1,0-0.1,0c-2.8,0-4.6,2.2-4.6,4.9v23.5c0,2.7,2.1,4.9,4.8,4.9
		c0,0,0.1,0,0.1,0c2.7,0,4.9-2.1,4.9-4.8c0,0,0-0.1,0-0.1V18H23.8z M50.7-0.3c0-2.7-2.1-4.9-4.8-4.9c0,0-0.1,0-0.1,0
		c-2.7,0-4.9,2.1-4.9,4.8c0,0,0,0.1,0,0.1v51.3c0,2.7,2.1,4.9,4.8,4.9c0,0,0.1,0,0.1,0c2.7,0,4.9-2.1,4.9-4.8c0,0,0-0.1,0-0.1
		L50.7-0.3L50.7-0.3z M77.3,18c0-2.7-2.1-4.9-4.8-4.9c0,0-0.1,0-0.1,0c-2.7,0-4.9,2.1-4.9,4.8c0,0,0,0.1,0,0.1v23.5
		c0,2.7,2.1,4.9,4.8,4.9c0,0,0.1,0,0.1,0c2.7,0,4.9-2.1,4.9-4.8c0,0,0-0.1,0-0.1V18z"/>
	<g>
		<path id="A_1_" class="st0" d="M103.9,31.3c0-2.7-2.1-4.9-4.8-4.9c0,0-0.1,0-0.1,0c-2.7,0-4.9,2.1-4.9,4.8c0,0,0,0.1,0,0.1v10.2
			c0,2.7,2.1,4.9,4.8,4.9c0,0,0.1,0,0.1,0c2.7,0,4.9-2.1,4.9-4.8c0,0,0-0.1,0-0.1L103.9,31.3L103.9,31.3z"/>
	</g>
	<path class="st0" d="M130.5,18c0-2.7-2.2-4.9-5-4.9c-2.7,0-4.9,2.2-4.9,4.9v23.5c0,2.7,2.2,4.9,4.9,4.9s5-2.2,5-4.9V18z M157.1-0.3
		c0-2.7-2.2-4.9-5-4.9c-2.7,0-5,2.2-5,4.9v51.3c0,2.7,2.2,4.9,5,4.9c2.7,0,5-2.2,5-4.9V-0.3z M183.7,18c0-2.7-2.2-4.9-4.9-4.9
		c-2.7,0-5,2.2-5,4.9v23.5c0,2.7,2.2,4.9,5,4.9c2.7,0,4.9-2.2,4.9-4.9V18z M210.3,31.3c0-2.7-2.2-4.9-4.9-4.9s-4.9,2.2-4.9,4.9v10.2
		c0,2.7,2.2,4.9,4.9,4.9s4.9-2.2,4.9-4.9V31.3z"/>
</g>
</svg>
