<?xml version="1.0" encoding="utf-8"?>
<!-- Generator: Adobe Illustrator 16.0.3, SVG Export Plug-In . SVG Version: 6.00 Build 0)  -->
<!DOCTYPE svg PUBLIC "-//W3C//DTD SVG 1.1//EN" "http://www.w3.org/Graphics/SVG/1.1/DTD/svg11.dtd">
<svg version="1.1" id="Layer_1" xmlns="http://www.w3.org/2000/svg" xmlns:xlink="http://www.w3.org/1999/xlink" x="0px" y="0px"
	 width="86.486px" height="45.583px" viewBox="16.316 7.449 86.486 45.583" enable-background="new 16.316 7.449 86.486 45.583"
	 xml:space="preserve">
<g transform="matrix(1.199534 0 0 1.199534 15.237208 6.249314)">
	<path fill="#0096D6" d="M21.4,26.201h3.2v12.5h-3.2V26.201z M50,29.801c-0.1-0.101-1.1-0.7-2.7-0.7C45.3,29.1,43.8,30.5,43.8,32.4
		c0,1.9,1.399,3.3,3.499,3.3c1.5,0,2.501-0.599,2.7-0.7V38.4c-0.4,0.1-1.5,0.4-2.9,0.4c-3.6,0-6.7-2.4-6.7-6.5
		c0-3.699,2.8-6.5,6.7-6.5c1.5,0,2.599,0.401,2.9,0.401V29.801z M17,29.801c-0.1-0.101-1.1-0.7-2.7-0.7c-2,0-3.5,1.399-3.5,3.3
		c0,1.9,1.4,3.3,3.5,3.3c1.5,0,2.5-0.599,2.7-0.7V38.4c-0.4,0.1-1.5,0.4-2.9,0.4c-3.5,0-6.7-2.4-6.7-6.5c0-3.699,2.8-6.5,6.7-6.5
		c1.5,0,2.6,0.401,2.9,0.401V29.801z M66.5,32.5c0,3.6-2.8,6.5-6.599,6.5c-3.8,0-6.601-2.9-6.601-6.5S56.1,26,59.9,26
		C63.8,26,66.5,28.9,66.5,32.5z M59.9,29.2c-1.9,0-3.3,1.5-3.3,3.3c0,1.8,1.4,3.3,3.3,3.3s3.3-1.5,3.3-3.3
		C63.2,30.7,61.801,29.2,59.9,29.2z M36.5,29.1c0,0-1.4-0.401-2.5-0.401c-1.3,0-2,0.401-2,1c0,0.8,0.9,1.001,1.4,1.2l0.9,0.3
		c2,0.7,3,2.1,3,3.6c0,3.1-2.8,4.2-5.2,4.2c-1.7,0-3.3-0.3-3.4-0.3v-2.9c0.3,0.099,1.6,0.5,3,0.5c1.6,0,2.3-0.5,2.3-1.2
		c0-0.601-0.6-1.001-1.4-1.2c-0.2-0.101-0.5-0.2-0.7-0.2c-1.8-0.6-3.2-1.601-3.2-3.7c0-2.3,1.8-3.9,4.7-3.9c1.5,0,3,0.401,3.1,0.401
		V29.1z"/>
	<g>
		<path id="A" fill="#0096D6" d="M4.1,12.8c0.011-0.873-0.687-1.589-1.56-1.6c-0.013,0-0.027,0-0.04,0
			c-0.872-0.011-1.589,0.687-1.6,1.56c0,0.013,0,0.027,0,0.04v3.3c-0.011,0.872,0.687,1.589,1.56,1.6c0.013,0,0.026,0,0.04,0
			c0.873,0.011,1.589-0.687,1.6-1.559c0-0.014,0-0.027,0-0.04V12.8z"/>
	</g>
	<path fill="#0096D6" d="M12.7,8.5c0.011-0.872-0.687-1.589-1.56-1.6c-0.013,0-0.026,0-0.04,0c-0.9,0-1.5,0.7-1.5,1.6v7.6
		c-0.011,0.872,0.687,1.589,1.559,1.6c0.013,0,0.027,0,0.04,0c0.873,0.011,1.589-0.687,1.6-1.559c0-0.014,0-0.027,0-0.04V8.5H12.7z
		 M21.4,2.6c0.011-0.873-0.687-1.589-1.56-1.6c-0.013,0-0.027,0-0.04,0c-0.872-0.011-1.589,0.688-1.6,1.56c0,0.013,0,0.027,0,0.04
		v16.6c-0.011,0.873,0.687,1.589,1.559,1.6c0.013,0,0.027,0,0.04,0c0.873,0.011,1.589-0.687,1.6-1.559c0-0.013,0-0.027,0-0.04V2.6z
		 M30,8.5c0.011-0.872-0.687-1.589-1.56-1.6c-0.013,0-0.026,0-0.04,0c-0.873-0.011-1.589,0.687-1.6,1.559c0,0.013,0,0.027,0,0.04
		v7.6c-0.011,0.872,0.687,1.589,1.56,1.6c0.013,0,0.027,0,0.04,0c0.872,0.011,1.589-0.687,1.6-1.559c0-0.014,0-0.027,0-0.04V8.5z"/>
	<g>
		<path id="A_1_" fill="#0096D6" d="M38.6,12.8c0.011-0.873-0.687-1.589-1.559-1.6c-0.013,0-0.027,0-0.04,0
			c-0.873-0.011-1.589,0.687-1.6,1.56c0,0.013,0,0.027,0,0.04v3.3c-0.011,0.872,0.687,1.589,1.56,1.6c0.013,0,0.027,0,0.04,0
			c0.872,0.011,1.588-0.687,1.6-1.559c0-0.014,0-0.027,0-0.04V12.8z"/>
	</g>
	<path fill="#0096D6" d="M47.2,8.5c0-0.884-0.716-1.6-1.601-1.6c-0.883,0-1.6,0.716-1.6,1.6v7.6c0,0.884,0.716,1.6,1.6,1.6
		c0.884,0,1.601-0.716,1.601-1.6V8.5z M55.801,2.6c0-0.884-0.716-1.6-1.601-1.6c-0.884,0-1.601,0.716-1.601,1.6v16.6
		c0,0.884,0.716,1.6,1.601,1.6c0.884,0,1.601-0.716,1.601-1.6V2.6z M64.4,8.5c0-0.884-0.716-1.6-1.6-1.6
		c-0.884,0-1.601,0.716-1.601,1.6v7.6c0,0.884,0.716,1.6,1.601,1.6c0.883,0,1.6-0.716,1.6-1.6V8.5z M73,12.8
		c0-0.884-0.716-1.6-1.6-1.6s-1.6,0.716-1.6,1.6v3.3c0,0.884,0.716,1.6,1.6,1.6s1.6-0.716,1.6-1.6V12.8z"/>
</g>
</svg>
