<?xml version="1.0" encoding="utf-8"?>
<!-- Generator: Adobe Illustrator 27.3.1, SVG Export Plug-In . SVG Version: 6.00 Build 0)  -->
<svg version="1.1" id="Layer_1" xmlns="http://www.w3.org/2000/svg" xmlns:xlink="http://www.w3.org/1999/xlink" x="0px" y="0px"
	 viewBox="0 0 403.4 64.1" style="enable-background:new 0 0 403.4 64.1;" xml:space="preserve">
<style type="text/css">
	.st0{fill:#446CA9;}
	.st1{fill:#76C4D5;}
</style>
<path d="M95.8,28c3.3,0,5.9-1.3,8-3.9l4.2,4.4c-3.4,3.8-7.3,5.7-11.9,5.7s-8.3-1.4-11.3-4.3s-4.4-6.5-4.4-10.9s1.5-8.1,4.5-11
	S91.6,3.6,96,3.6c4.9,0,9,1.9,12.2,5.6l-4.1,4.7c-2.1-2.6-4.7-3.9-7.8-3.9c-2.5,0-4.6,0.8-6.4,2.4s-2.7,3.8-2.7,6.6s0.8,5,2.5,6.7
	C91.4,27.1,93.4,28,95.8,28L95.8,28z M113.3,33.8V4.1h6.6v23.8h12.7v5.9H113.3z M161.6,29.7c-3,2.9-6.7,4.4-11.1,4.4
	c-4.4,0-8.1-1.5-11.1-4.4s-4.5-6.6-4.5-10.9s1.5-8,4.5-10.9s6.7-4.4,11.1-4.4c4.4,0,8.1,1.5,11.1,4.4s4.5,6.6,4.5,10.9
	S164.6,26.8,161.6,29.7z M159.3,18.8c0-2.6-0.9-4.9-2.5-6.8c-1.7-1.9-3.8-2.8-6.3-2.8s-4.6,0.9-6.3,2.8s-2.6,4.1-2.6,6.8
	s0.9,4.9,2.6,6.8c1.7,1.9,3.8,2.8,6.3,2.8s4.6-0.9,6.3-2.8S159.3,21.5,159.3,18.8z M179.6,26.2c1.1,1.4,2.6,2.1,4.5,2.1
	s3.4-0.7,4.4-2.1c1.1-1.4,1.6-3.3,1.6-5.6V4.1h6.6v16.6c0,4.3-1.2,7.6-3.6,9.9c-2.4,2.3-5.4,3.5-9.1,3.5c-3.7,0-6.8-1.2-9.2-3.5
	s-3.6-5.6-3.6-9.9V4.1h6.6v16.4C177.9,22.9,178.5,24.8,179.6,26.2z M226.3,8c2.8,2.6,4.3,6.2,4.3,10.8s-1.4,8.3-4.1,11
	c-2.8,2.7-7,4-12.6,4h-10.3V4.1h10.5C219.4,4.1,223.5,5.4,226.3,8z M221.5,25.7c1.6-1.5,2.4-3.8,2.4-6.7s-0.8-5.2-2.4-6.7
	c-1.6-1.6-4.1-2.4-7.5-2.4h-3.7V28h4.2C217.5,28,219.8,27.2,221.5,25.7z M268.3,4.1h6.7v29.7h-6.7l-14.1-18.6v18.6h-6.7V4.1h6.3
	l14.5,19.2V4.1z M303.4,33.8l-2.8-6.4h-12.5l-2.8,6.4h-7.1L291,4.1h6.4l12.8,29.7H303.4z M294.5,13l-3.7,8.6h7.4L294.5,13L294.5,13z
	 M324.4,9.9v23.9h-6.7V9.9h-8.4V4.1h23.5v5.8L324.4,9.9z M337.6,4.1h6.6v29.7h-6.6V4.1z M362.5,23l7.6-18.9h7.2l-12,29.7h-5.6
	L347.8,4.1h7.2L362.5,23z M402.2,4.1V10h-14.8v6.2h13.3v5.6h-13.3V28h15.3v5.8h-21.9V4.1H402.2z M88.2,59.1c1.8,0,3.3-0.7,4.5-2.2
	l2.4,2.5c-1.9,2.1-4.1,3.2-6.7,3.2s-4.7-0.8-6.3-2.4c-1.7-1.6-2.5-3.7-2.5-6.1c0-2.5,0.8-4.5,2.5-6.2s3.8-2.5,6.2-2.5
	c2.7,0,5,1,6.9,3.1l-2.3,2.6c-1.2-1.5-2.6-2.2-4.4-2.2c-1.4,0-2.6,0.5-3.6,1.4s-1.5,2.1-1.5,3.7s0.5,2.8,1.4,3.7
	C85.7,58.7,86.9,59.1,88.2,59.1z M111.6,60.1c-1.7,1.6-3.8,2.5-6.2,2.5s-4.5-0.8-6.2-2.5c-1.7-1.6-2.5-3.7-2.5-6.1s0.8-4.5,2.5-6.1
	s3.8-2.5,6.2-2.5s4.5,0.8,6.2,2.5c1.7,1.6,2.5,3.7,2.5,6.1S113.3,58.5,111.6,60.1z M110.4,54c0-1.5-0.5-2.8-1.4-3.8
	c-1-1-2.1-1.6-3.5-1.6s-2.6,0.5-3.5,1.6c-1,1-1.4,2.3-1.4,3.8s0.5,2.7,1.4,3.8c1,1,2.1,1.6,3.5,1.6s2.6-0.5,3.5-1.6
	C109.9,56.8,110.4,55.5,110.4,54z M132.2,51.9l-4.5,9.2h-2.2l-4.5-9.2v10.5h-3.7V45.8h5l4.3,9.1l4.3-9.1h5v16.6h-3.7L132.2,51.9z
	 M151.5,47.3c1.2,1,1.8,2.5,1.8,4.6s-0.6,3.6-1.8,4.5c-1.2,1-3,1.4-5.5,1.4h-2.2v4.6h-3.7V45.8h5.9
	C148.5,45.8,150.3,46.3,151.5,47.3z M148.8,53.8c0.4-0.5,0.7-1.2,0.7-2.2s-0.3-1.6-0.9-2c-0.6-0.4-1.5-0.6-2.7-0.6h-2.1v5.6h2.5
	C147.5,54.6,148.3,54.3,148.8,53.8z M160.6,58.1c0.6,0.8,1.5,1.2,2.5,1.2s1.9-0.4,2.5-1.2s0.9-1.8,0.9-3.2v-9.2h3.7V55
	c0,2.4-0.7,4.3-2,5.6c-1.3,1.3-3,1.9-5.1,1.9s-3.8-0.7-5.1-2s-2-3.2-2-5.6v-9.3h3.7V55C159.7,56.3,160,57.4,160.6,58.1L160.6,58.1z
	 M181.1,49v13.4h-3.7V49h-4.7v-3.2h13.1V49H181.1z M188.6,45.8h3.7v16.7h-3.7L188.6,45.8z M208,45.8h3.7v16.6H208L200.1,52v10.4
	h-3.7V45.8h3.4l8.2,10.7L208,45.8z M226.7,54h3.7v5.9c-1.7,1.8-3.9,2.8-6.9,2.8c-2.4,0-4.5-0.8-6.2-2.4s-2.5-3.7-2.5-6.1
	c0-2.5,0.8-4.5,2.5-6.2s3.7-2.5,6.1-2.5c2.4,0,4.5,0.8,6.2,2.4l-1.9,2.8c-0.7-0.7-1.4-1.1-2.1-1.3c-0.6-0.2-1.3-0.4-2-0.4
	c-1.4,0-2.6,0.5-3.6,1.4c-1,1-1.5,2.2-1.5,3.8s0.5,2.8,1.4,3.8c0.9,0.9,2,1.4,3.3,1.4s2.4-0.2,3.2-0.7C226.4,58.7,226.7,54,226.7,54
	z M251.4,45.8V49h-7.7v3.6h7.4v3.3h-7.4v6.5H240V45.8H251.4z M268.6,60.1c-1.7,1.6-3.8,2.5-6.2,2.5c-2.5,0-4.5-0.8-6.2-2.5
	c-1.7-1.6-2.5-3.7-2.5-6.1s0.8-4.5,2.5-6.1s3.8-2.5,6.2-2.5c2.5,0,4.5,0.8,6.2,2.5c1.7,1.6,2.5,3.7,2.5,6.1S270.3,58.5,268.6,60.1z
	 M267.3,54c0-1.5-0.5-2.8-1.4-3.8c-1-1-2.1-1.6-3.5-1.6s-2.6,0.5-3.5,1.6c-1,1-1.4,2.3-1.4,3.8s0.5,2.7,1.4,3.8c1,1,2.1,1.6,3.5,1.6
	s2.6-0.5,3.5-1.6C266.9,56.8,267.3,55.5,267.3,54z M278.7,58.1c0.6,0.8,1.5,1.2,2.5,1.2s1.9-0.4,2.5-1.2s0.9-1.8,0.9-3.2v-9.2h3.7
	V55c0,2.4-0.7,4.3-2,5.6c-1.3,1.3-3,1.9-5.1,1.9s-3.8-0.7-5.1-2c-1.3-1.3-2-3.2-2-5.6v-9.3h3.7V55C277.7,56.3,278.1,57.4,278.7,58.1
	z M303.8,45.8h3.7v16.6h-3.7L295.9,52v10.4h-3.7V45.8h3.4l8.2,10.7L303.8,45.8z M324.3,48c1.6,1.5,2.4,3.5,2.4,6.1s-0.8,4.6-2.3,6.1
	s-3.9,2.3-7.1,2.3h-5.7V45.8h5.9C320.5,45.8,322.8,46.5,324.3,48L324.3,48z M321.6,57.9c0.9-0.9,1.4-2.1,1.4-3.7s-0.5-2.9-1.4-3.8
	c-0.9-0.9-2.3-1.3-4.2-1.3h-2.1v10.1h2.4C319.4,59.1,320.7,58.7,321.6,57.9L321.6,57.9z M341.3,62.4l-1.5-3.6h-7l-1.5,3.6h-4
	l7.2-16.7h3.6l7.2,16.7H341.3L341.3,62.4z M336.3,50.7l-2.1,4.8h4.2L336.3,50.7z M353.1,49v13.4h-3.8V49h-4.7v-3.2h13.2V49H353.1z
	 M360.5,45.8h3.7v16.7h-3.7V45.8z M382.3,60.1c-1.7,1.6-3.8,2.5-6.2,2.5c-2.5,0-4.5-0.8-6.2-2.5c-1.7-1.6-2.5-3.7-2.5-6.1
	s0.8-4.5,2.5-6.1s3.8-2.5,6.2-2.5c2.5,0,4.5,0.8,6.2,2.5c1.7,1.6,2.5,3.7,2.5,6.1S384,58.5,382.3,60.1z M381.1,54
	c0-1.5-0.5-2.8-1.4-3.8c-1-1-2.1-1.6-3.5-1.6s-2.6,0.5-3.5,1.6c-1,1-1.4,2.3-1.4,3.8s0.5,2.7,1.4,3.8c1,1,2.1,1.6,3.5,1.6
	s2.6-0.5,3.5-1.6C380.6,56.8,381.1,55.5,381.1,54z M399.6,45.8h3.8v16.6h-3.8L391.7,52v10.4H388V45.8h3.5l8.1,10.7L399.6,45.8z"/>
<path class="st0" d="M9.1,42.7H0v21.4h21.3v-9.2H9.1V42.7z M54.9,42.8v12.1H42.7v-0.1v9.3H64V42.7h-9.2L54.9,42.8z M0,21.4h9.2
	l-0.1-0.1V9.2h12.2V0H0V21.4z M42.7,0v9.2h12.2v12.2H64V0H42.7z"/>
<path class="st1" d="M41.5,21.4L29.3,9.2h13.4V0H21.3v9.2l12.2,12.2H41.5z M30.5,42.7h-8l10.1,10.1l2,2.1H21.3v9.2h21.4v-9.3l-6.1-6
	L30.5,42.7z M54.9,21.4v13.3l-2.1-2.1L42.7,22.5v8.1l6,6l6.1,6.1H64V21.4L54.9,21.4z M21.3,33.5L9.2,21.4H0v21.3h9.1V29.4l12.2,12.2
	V33.5z"/>
</svg>
