<?xml version="1.0" encoding="utf-8"?>
<!-- Generator: Adobe Illustrator 16.0.3, SVG Export Plug-In . SVG Version: 6.00 Build 0)  -->
<!DOCTYPE svg PUBLIC "-//W3C//DTD SVG 1.1//EN" "http://www.w3.org/Graphics/SVG/1.1/DTD/svg11.dtd">
<svg version="1.1" id="Layer_1" xmlns="http://www.w3.org/2000/svg" xmlns:xlink="http://www.w3.org/1999/xlink" x="0px" y="0px"
	 width="107.87px" height="36.02px" viewBox="70.8 30.982 107.87 36.02" enable-background="new 70.8 30.982 107.87 36.02"
	 xml:space="preserve">
<path d="M115.352,45.592c0-3.044,1.773-4.808,5.914-4.808c1.522-0.001,3.041,0.182,4.52,0.546l-0.348,2.72
	c-1.343-0.255-2.703-0.398-4.069-0.427c-2.17,0-2.851,0.75-2.851,2.523v6.373c0,1.771,0.697,2.516,2.866,2.516
	c1.365-0.03,2.728-0.172,4.07-0.428l0.348,2.721c-1.479,0.363-2.997,0.547-4.52,0.546c-4.14,0-5.913-1.771-5.913-4.808
	L115.352,45.592z M132.521,57.88c-4.164,0-5.287-2.293-5.287-4.784v-3.068c0-2.5,1.123-4.783,5.287-4.783s5.289,2.293,5.289,4.783
	v3.068C137.811,55.596,136.727,57.88,132.521,57.88z M132.521,47.837c-1.582,0-2.248,0.72-2.248,2.097V53.2
	c0,1.368,0.625,2.096,2.248,2.096s2.248-0.72,2.248-2.096v-3.267C134.77,48.566,134.145,47.838,132.521,47.837L132.521,47.837z
	 M147.064,57.635v-8.477c0-0.648-0.277-0.973-0.975-0.973c-1.113,0.127-2.199,0.473-3.166,1.02v8.422h-3.031v-12.13h2.319l0.3,1.021
	c1.517-0.76,3.175-1.193,4.868-1.273c2.021,0,2.747,1.423,2.747,3.6v8.801L147.064,57.635z M156.363,57.88
	c-1.424-0.021-2.838-0.256-4.194-0.696l0.427-2.316c1.178,0.336,2.395,0.512,3.618,0.521c1.347,0,1.583-0.3,1.583-1.218
	c0-0.75-0.15-1.123-2.12-1.582c-2.968-0.72-3.317-1.47-3.317-3.8s1.078-3.5,4.545-3.5c1.226,0.002,2.447,0.146,3.641,0.427
	l-0.3,2.42c-1.103-0.203-2.22-0.319-3.341-0.348c-1.321,0-1.582,0.3-1.582,1.044c0,0.973,0.07,1.044,1.726,1.47
	c3.396,0.894,3.72,1.345,3.72,3.835c-0.01,2.356-0.735,3.764-4.399,3.764L156.363,57.88z M165.792,45.497v8.478
	c0,0.647,0.276,0.973,0.974,0.973c1.113-0.127,2.2-0.473,3.166-1.021v-8.43H173v12.138h-2.32l-0.3-1.02
	c-1.517,0.758-3.175,1.191-4.868,1.273c-2.02,0-2.746-1.424-2.746-3.601v-8.8L165.792,45.497z M175.6,57.635V40.529l3.07-0.42
	v17.523L175.6,57.635z"/>
<path fill="#961D59" d="M89.044,52.857c-2.146,0.002-3.887-1.729-3.894-3.873c-0.006-2.143,1.727-3.885,3.871-3.895
	c2.144-0.01,3.892,1.719,3.904,3.86c0.01,1.034-0.396,2.028-1.126,2.763C91.07,52.448,90.077,52.859,89.044,52.857"/>
<path fill="#D62783" d="M96.6,50.747c-1,0-1.793-0.802-1.793-1.8s0.803-1.801,1.793-1.801c0.988-0.001,1.791,0.799,1.793,1.787
	c0,0.002,0,0.003,0,0.004c0.002,0.477-0.187,0.932-0.523,1.268s-0.794,0.524-1.27,0.523 M103.159,52.416
	c-0.28,0.891-1.221,1.396-2.118,1.137c-0.896-0.26-1.421-1.188-1.184-2.09c0.242-0.902,1.16-1.447,2.067-1.227
	c0.9,0.222,1.474,1.128,1.271,2.039C103.195,52.323,103.195,52.364,103.159,52.416 M101.893,47.802
	c-0.708,0.177-1.451-0.091-1.885-0.678c-0.432-0.586-0.467-1.375-0.088-1.997c0.521-0.848,1.629-1.111,2.477-0.592
	c0.406,0.25,0.696,0.65,0.808,1.113c0.045,0.232,0.045,0.471,0,0.703c-0.099,0.721-0.639,1.303-1.351,1.455 M108.27,52.221
	c-0.17,0.975-1.1,1.625-2.074,1.454s-1.626-1.099-1.455-2.073c0.17-0.974,1.099-1.625,2.072-1.455l0,0
	c0.926,0.147,1.584,0.979,1.514,1.912c-0.021,0.051-0.034,0.104-0.037,0.158 M106.809,47.725c-0.973,0.16-1.893-0.497-2.056-1.47
	c-0.162-0.972,0.496-1.892,1.47-2.054c0.973-0.161,1.893,0.496,2.057,1.468c0.021,0.154,0.021,0.311,0,0.465
	c-0.072,0.802-0.676,1.455-1.469,1.601 M105.563,58.432c-0.453,0.809-1.441,1.147-2.295,0.787c-0.856-0.359-1.302-1.309-1.031-2.197
	c0.269-0.896,1.166-1.428,2.078-1.254s1.547,1.008,1.471,1.931c-0.014,0.259-0.09,0.512-0.223,0.735 M104.915,41.977
	c-0.864,0.485-1.959,0.18-2.447-0.684c-0.487-0.863-0.18-1.958,0.685-2.445c0.863-0.484,1.958-0.18,2.447,0.682
	c0.185,0.313,0.263,0.677,0.223,1.037c-0.055,0.586-0.393,1.106-0.903,1.396 M89.113,66.992c-6.505,0.105-12.563-3.303-15.85-8.917
	c-3.285-5.612-3.285-12.561,0-18.173c3.287-5.615,9.345-9.023,15.85-8.918c3.959-0.006,7.809,1.303,10.943,3.722l-2.203,2.87
	c-4.35-3.326-10.209-3.898-15.119-1.475c-4.92,2.422-8.021,7.42-8.021,12.899c0.005,5.474,3.113,10.471,8.021,12.894
	c4.911,2.422,10.77,1.856,15.125-1.461l2.199,2.875c-3.138,2.408-6.986,3.707-10.942,3.693L89.113,66.992z"/>
</svg>
