<?xml version="1.0" encoding="utf-8"?>
<!-- Generator: Adobe Illustrator 27.3.1, SVG Export Plug-In . SVG Version: 6.00 Build 0)  -->
<svg version="1.1" id="Layer_1" xmlns="http://www.w3.org/2000/svg" xmlns:xlink="http://www.w3.org/1999/xlink" x="0px" y="0px"
	 viewBox="0 0 240.9 63.5" style="enable-background:new 0 0 240.9 63.5;" xml:space="preserve">
<style type="text/css">
	.st0{fill:#FFFFFF;}
	.st1{fill:#E03875;}
</style>
<path class="st0" d="M87.5,22.7c0-7.4,4.3-11.7,14.3-11.7c3.7,0,7.4,0.4,11,1.3l-0.8,6.6c-3.3-0.6-6.6-0.9-9.9-1c-5.3,0-7,1.8-7,6.1
	v15.5c0,4.3,1.7,6.1,7,6.1c3.3-0.1,6.6-0.4,9.9-1l0.8,6.6c-3.6,0.9-7.3,1.3-11,1.3c-10,0-14.3-4.3-14.3-11.7V22.7z"/>
<path class="st0" d="M129.1,52.5c-10.1,0-12.8-5.6-12.8-11.6v-7.5c0-6,2.7-11.6,12.8-11.6s12.8,5.6,12.8,11.6v7.5
	C141.9,46.9,139.2,52.5,129.1,52.5z M129.1,28.1c-3.9,0-5.4,1.8-5.4,5.1v7.9c0,3.3,1.5,5.1,5.4,5.1s5.4-1.8,5.4-5.1v-7.9
	C134.5,29.9,133,28.1,129.1,28.1z"/>
<path class="st0" d="M164.4,51.9V31.3c0-1.6-0.7-2.4-2.4-2.4s-5,1.1-7.7,2.5v20.5h-7.4V22.4h5.6l0.7,2.5c3.7-1.8,7.7-2.9,11.8-3.1
	c4.9,0,6.7,3.5,6.7,8.7v21.4H164.4z"/>
<path class="st0" d="M186.9,52.5c-3.5-0.1-6.9-0.6-10.2-1.7l1-5.6c2.9,0.8,5.8,1.2,8.8,1.3c3.3,0,3.8-0.7,3.8-3
	c0-1.8-0.4-2.7-5.1-3.9c-7.2-1.8-8-3.6-8-9.3c0-5.9,2.6-8.5,11-8.5c3,0,5.9,0.3,8.8,1l-0.6,5.9c-2.7-0.5-5.4-0.8-8.1-0.9
	c-3.2,0-3.8,0.7-3.8,2.5c0,2.4,0.2,2.5,4.2,3.6c8.2,2.2,9,3.3,9,9.3C197.6,49,195.8,52.5,186.9,52.5z"/>
<path class="st0" d="M209.8,22.4V43c0,1.6,0.7,2.4,2.4,2.4c1.7,0,5-1.1,7.7-2.5V22.4h7.4v29.5h-5.6l-0.7-2.5
	c-3.7,1.8-7.7,2.9-11.8,3.1c-4.9,0-6.6-3.5-6.6-8.7V22.4H209.8z"/>
<path class="st0" d="M233.6,51.9V10.4l7.4-1v42.5H233.6z"/>
<path class="st1" d="M31.8,63.5c-5.2,0-10.3-1.3-14.8-3.7C12.4,57.4,8.5,54,5.5,49.7c-2.9-4.3-4.7-9.2-5.3-14.3s0.1-10.3,2-15.2
	C4,15.4,7.1,11.1,11,7.7S19.6,2,24.6,0.8c5-1.2,10.3-1.1,15.3,0.2s9.6,3.8,13.4,7.3l-7.5,7.9c-3-2.7-6.7-4.5-10.7-5.1
	c-4-0.6-8.1-0.1-11.8,1.5c-3.7,1.6-6.8,4.3-9,7.7c-2.2,3.4-3.4,7.3-3.4,11.4s1.2,8,3.4,11.4c2.2,3.4,5.3,6.1,9,7.7
	c3.7,1.6,7.8,2.2,11.8,1.5c4-0.6,7.7-2.4,10.7-5.1l7.5,7.9C47.4,60.5,39.7,63.5,31.8,63.5z"/>
<path class="st1" d="M57.3,47.6c-0.5,0-1-0.2-1.4-0.4c-0.4-0.3-0.8-0.7-1-1.2c-0.2-0.5-0.2-1-0.1-1.5c0.1-0.5,0.3-1,0.7-1.3
	c0.4-0.4,0.8-0.6,1.3-0.7c0.5-0.1,1,0,1.5,0.1c0.5,0.2,0.9,0.5,1.2,1c0.3,0.4,0.4,0.9,0.4,1.4c0,0.7-0.3,1.4-0.8,1.8
	C58.7,47.4,58,47.6,57.3,47.6z"/>
<path class="st1" d="M31.6,38.6c-1.4,0-2.7-0.4-3.8-1.2c-1.1-0.8-2-1.8-2.5-3.1c-0.5-1.3-0.7-2.6-0.4-4c0.3-1.3,0.9-2.6,1.9-3.5
	s2.2-1.6,3.5-1.9c1.3-0.3,2.7-0.1,4,0.4c1.3,0.5,2.3,1.4,3.1,2.5c0.8,1.1,1.2,2.5,1.2,3.8c0,1.8-0.7,3.6-2,4.9
	C35.2,37.9,33.4,38.6,31.6,38.6z"/>
<path class="st1" d="M60.3,38.7c-0.5,0-1-0.2-1.4-0.4c-0.4-0.3-0.8-0.7-1-1.2c-0.2-0.5-0.2-1-0.1-1.5c0.1-0.5,0.3-1,0.7-1.3
	c0.4-0.4,0.8-0.6,1.3-0.7c0.5-0.1,1,0,1.5,0.1c0.5,0.2,0.9,0.5,1.2,1c0.3,0.4,0.4,0.9,0.4,1.4c0,0.7-0.3,1.3-0.8,1.8
	C61.7,38.5,61,38.7,60.3,38.7z"/>
<path class="st1" d="M52.6,38.4c-0.5,0-1-0.2-1.4-0.4c-0.4-0.3-0.8-0.7-1-1.2c-0.2-0.5-0.2-1-0.1-1.5c0.1-0.5,0.3-1,0.7-1.3
	c0.4-0.4,0.8-0.6,1.3-0.7c0.5-0.1,1,0,1.5,0.1c0.5,0.2,0.9,0.5,1.2,1c0.3,0.4,0.4,0.9,0.4,1.4c0,0.7-0.3,1.4-0.8,1.8
	C53.9,38.2,53.3,38.4,52.6,38.4z"/>
<path class="st1" d="M60.3,30c-0.5,0-1-0.2-1.4-0.4c-0.4-0.3-0.8-0.7-1-1.2c-0.2-0.5-0.2-1-0.1-1.5c0.1-0.5,0.3-1,0.7-1.3
	c0.4-0.4,0.8-0.6,1.3-0.7c0.5-0.1,1,0,1.5,0.1c0.5,0.2,0.9,0.5,1.2,1c0.3,0.4,0.4,0.9,0.4,1.4c0,0.7-0.3,1.3-0.8,1.8
	C61.7,29.7,61,30,60.3,30z"/>
<path class="st1" d="M52.6,30.3c-0.5,0-1-0.2-1.4-0.4c-0.4-0.3-0.8-0.7-1-1.2s-0.2-1-0.1-1.5c0.1-0.5,0.3-1,0.7-1.3
	c0.4-0.4,0.8-0.6,1.3-0.7c0.5-0.1,1,0,1.5,0.1c0.5,0.2,0.9,0.5,1.2,1c0.3,0.4,0.4,0.9,0.4,1.4c0,0.7-0.3,1.4-0.8,1.8
	C53.9,30,53.3,30.3,52.6,30.3z"/>
<path class="st1" d="M57.5,21.2c-0.5,0-1-0.2-1.4-0.4c-0.4-0.3-0.8-0.7-1-1.2c-0.2-0.5-0.2-1-0.1-1.5c0.1-0.5,0.3-1,0.7-1.3
	c0.4-0.4,0.8-0.6,1.3-0.7c0.5-0.1,1,0,1.5,0.1c0.5,0.2,0.9,0.5,1.2,1c0.3,0.4,0.4,0.9,0.4,1.4c0,0.7-0.3,1.4-0.8,1.8
	C58.8,21,58.2,21.2,57.5,21.2z"/>
</svg>
