<?xml version="1.0" encoding="utf-8"?>
<!-- Generator: Adobe Illustrator 27.3.1, SVG Export Plug-In . SVG Version: 6.00 Build 0)  -->
<svg version="1.1" id="Layer_1" xmlns="http://www.w3.org/2000/svg" xmlns:xlink="http://www.w3.org/1999/xlink" x="0px" y="0px"
	 viewBox="0 0 180 43" style="enable-background:new 0 0 180 43;" xml:space="preserve">
<style type="text/css">
	.st0{fill:#FFFFFF;}
	.st1{opacity:0.66;fill:#FFFFFF;enable-background:new    ;}
</style>
<path class="st0" d="M150,0v43h30V0H150z M175,38h-20V19h14v-7h6V38z"/>
<path class="st0" d="M161,24h8v9h-8V24z"/>
<path class="st1" d="M64,13h-4v7h-3v4h3v14h8v-4h-4V24h4v-4h-4V13z M74,24h10v3H70v11h18V20H74V24z M84,34H74v-3h10V34z M90,20h4v18
	h-4V20z M43,20h-3v18h4V24h7v14h4V20h-3H43z M0,20v18h18v-4H4V24h14v-4H3H0z M20,23.5V38h18V20H20V23.5z M24,24h10v10H24V24z M90,13
	h4v4h-4V13z M136,20h-4v18h4V24h11v-4H136z M99.5,20H96v18h4V24h7v14h4V20h-3.5H99.5z M113,20v18h15v-4h-11v-3h13V20H113z M117,24h9
	v3h-9V24z"/>
</svg>
