<?xml version="1.0" encoding="utf-8"?>
<!-- Generator: Adobe Illustrator 16.0.3, SVG Export Plug-In . SVG Version: 6.00 Build 0)  -->
<!DOCTYPE svg PUBLIC "-//W3C//DTD SVG 1.1//EN" "http://www.w3.org/Graphics/SVG/1.1/DTD/svg11.dtd">
<svg version="1.1" id="Layer_1" xmlns="http://www.w3.org/2000/svg" xmlns:xlink="http://www.w3.org/1999/xlink" x="0px" y="0px"
	 width="800px" height="212px" viewBox="0 102.5 800 212" enable-background="new 0 102.5 800 212" xml:space="preserve">
<g>
	<path fill="#444444" d="M358.098,170.982c21.392,0,31.464,14.585,31.464,37.02c0,21.669-10.072,36.673-31.464,36.673
		c-21.462,0-31.533-15.004-31.533-36.673C326.564,185.568,336.636,170.982,358.098,170.982z M420.052,171.816v40.701
		c0,16.113,3.194,22.433,13.474,22.433c5.835,0,10.764-1.602,14.309-3.263c1.821-0.854,3.486-1.809,4.944-2.872l0.611-0.462v-56.536
		h12.848v71.608l-9.308,0.764l-1.735-8.959c-1.805,1.734-3.97,3.311-6.459,4.722c-4.249,2.41-10.347,4.723-18.197,4.723
		c-15.941,0-23.114-9.718-23.267-30.974l-0.003-0.697v-41.187H420.052z M514.857,170.979c6.111,0,11.169,0.939,14.792,1.942
		c1.876,0.521,3.556,1.036,5.063,1.668l0.636,0.278l1.041,9.376c-1.807-0.625-3.753-1.242-5.904-1.736
		c-3.613-0.827-8.473-1.738-13.753-1.738c-12.431,0-19.137,7.92-19.099,27.298c0.032,18.683,6.666,27.074,19.099,26.878
		c5.278-0.083,10.208-0.838,13.823-1.667c1.844-0.421,3.538-0.885,5.12-1.403l0.782-0.264l-1.109,9.238
		c-1.667,0.766-3.553,1.357-5.627,1.944c-3.553,1.009-8.612,1.797-14.517,1.876c-15.278,0.201-30.699-9.169-30.699-36.395
		C484.505,179.591,499.856,170.98,514.857,170.979z M565.908,144.865v35.562c7.571-5.902,14.588-8.195,23.962-8.195
		c16.019,0,22.308,8.916,22.435,31.725l0.002,0.71v40.007h-12.853v-39.033c0-18.892-4.515-23.615-12.85-23.615
		c-8.416,0-16.963,6.037-20.459,7.348l-0.235,0.084v55.217h-12.852v-98.557L565.908,144.865z M664.186,144.865
		c11.811,0,23.017,1.426,31.744,8.128c8.637,6.633,14.377,17.989,14.377,39.728c0,31.08-8.1,51.54-41.96,51.946l-1.034,0.006
		h-31.739v-99.809H664.186z M731.489,144.865h27.436c25.837,0,35.211,7.294,35.211,26.186c0,14.656-12.499,19.447-17.78,20.003
		c4.24,0.347,7.981,1.399,11.254,3.263c5.619,3.206,11.252,9.101,11.252,21.529c0,19.734-11.298,28.646-33.961,28.824l-0.697,0.002
		h-32.714V144.865h27.436H731.489z M285.795,141.325c7.5,0,14.101,1.034,18.821,2.086c2.781,0.616,5.28,1.25,7.503,2.013l0,0
		l1.111,10.766c-2.293-0.833-4.852-1.646-7.64-2.293c-4.712-1.089-11.183-2.212-18.337-2.153
		c-17.921,0.151-28.999,9.793-28.894,40.633c0.104,29.933,9.099,41.908,27.573,41.811c7.711-0.04,14.366-1.082,19.378-2.501
		c2.838-0.802,5.487-1.596,7.919-2.501l0,0l-1.181,10.834c-2.293,0.903-4.861,1.677-7.711,2.362
		c-4.928,1.188-11.807,2.292-19.933,2.292c-11.183,0-21.045-2.779-28.199-10.834c-7.154-8.058-11.575-21.394-11.598-41.327
		C244.563,153.966,262.111,141.325,285.795,141.325z M358.098,180.844c-13.891,0-18.546,9.725-18.546,27.018
		c0,15.972,4.655,27.087,18.546,27.087s18.544-11.114,18.544-27.087C376.642,190.569,371.78,180.844,358.098,180.844z
		 M667.799,154.936h-18.892v79.736h14.03c27.089,0,34.272-9.376,34.311-41.395C697.278,167.439,690.788,154.936,667.799,154.936z
		 M760.662,196.194h-16.601v38.478h16.808c16.947,0,25.629-2.917,25.631-18.96C786.5,200.362,778.444,196.194,760.662,196.194z
		 M757.187,154.938h-13.129v32.437h16.184c15.906,0,21.358-5.975,21.394-16.878C781.671,157.855,774.622,154.938,757.187,154.938z"
		/>
	<path fill="#777777" d="M738.81,270.695c12.627,0,15.757,4.537,15.84,16.947l0.001,0.515v16.004c0,1.896,0.199,2.878,0.871,3.158
		c0.675,0.281,1.927,0.184,2.98,0.158l0.342-0.005l-0.517,4.823l-1.263,0.356c-0.783,0.222-1.896,0.358-3.16,0.358
		c-2.172,0-3.637-0.871-4.584-1.938c-0.947-1.064-1.384-2.764-1.384-3.396c-0.712,0.986-1.703,1.889-2.962,2.688
		c-2.177,1.376-5.571,2.595-10.827,2.646c-7.19,0.067-12.05-4.427-12.05-11.577c0-9.443,8.93-11.577,18.096-11.577
		c1.65,0,3.246,0.062,4.545,0.215l0.474,0.062l2.172,0.316v-4.463c0-8.417-2.373-9.718-9.127-9.718
		c-3.278,0-6.402,0.585-8.891,1.185c-1.171,0.28-2.264,0.592-3.302,0.949l-0.769,0.276l0.79-5.493
		c0.987-0.435,2.136-0.859,3.438-1.225C731.741,271.336,734.859,270.695,738.81,270.695z M680.216,270.379
		c9.956-0.059,14.881,6.835,15.053,14.065c0.027,1.106-0.096,2.961-0.239,4.385c-0.124,1.265-0.22,2.435-0.355,3.018l-0.038,0.144
		h-24.534v1.42c0,9.958,4.857,13.439,12.166,13.355c3.003-0.037,5.807-0.404,7.902-0.831c0.98-0.197,1.91-0.407,2.788-0.645
		l0.649-0.184l-0.75,5.294c-0.949,0.356-2.014,0.676-3.162,0.947c-2.011,0.479-4.738,0.949-7.938,0.949
		c-12.762,0-19.202-6.875-19.202-20.505C662.555,276.739,670.182,270.437,680.216,270.379z M712.614,255.522v56.775h-7.271v-56.061
		L712.614,255.522z M771.284,271.564l9.956,16.356l9.878-16.356h7.743l-13.589,20.467l13.589,20.266h-8.176l-9.445-15.881
		l-9.52,15.881h-8.102l13.514-20.266l-13.514-20.467H771.284z M652.955,270.379c1.068,0,2.096,0.237,2.884,0.435
		c0.315,0.08,0.614,0.177,0.896,0.279l0.408,0.155l-0.869,5.65l-0.553-0.275c-0.433-0.121-1.185-0.28-2.45-0.28
		c-3.001,0-5.565,0.953-7.428,1.858c-0.851,0.414-1.653,0.898-2.406,1.419l-0.556,0.397v31.567h-7.31v-40.81l5.097-0.396
		l1.384,4.978C645.095,272.194,648.965,270.379,652.955,270.379z M728.775,301.711c0,4.069,2.725,5.965,7.506,5.965
		c3.316,0,6.076-0.804,8.02-1.699c0.948-0.439,1.824-0.887,2.616-1.413l0.465-0.325h0.002v-9.6l-1.937-0.117l-4.069-0.121
		C736.716,294.267,728.775,294.796,728.775,301.711z M680.373,275.79c-2.486,0-4.817,0.712-6.674,2.492
		c-1.784,1.707-3.057,4.322-3.435,8.725l-0.043,0.56h18.688c0-0.435,0.012-0.749,0.04-0.988c0.05-0.436,0.048-0.869,0.038-1.227
		C688.8,278.634,685.234,275.79,680.373,275.79z"/>
	<path fill="#E42528" d="M170.608,198.741c0,8.702-4.583,12.966-13.123,13.118v0.005H52.496v-0.005
		c-8.54-0.151-13.124-4.416-13.124-13.118c0-8.701,4.584-12.967,13.124-13.116v-0.007h104.99v0.007
		C166.025,185.774,170.608,190.041,170.608,198.741 M157.485,218.435v-0.007H52.496v0.007c-8.54,0.149-13.124,4.416-13.124,13.118
		c0,8.702,4.584,12.964,13.124,13.116v0.005h104.99v-0.007c8.54-0.149,13.123-4.414,13.123-13.116
		C170.608,222.848,166.025,218.584,157.485,218.435 M190.295,146.261v-0.008c-8.54,0.151-13.124,4.416-13.124,13.118v72.18
		c0,8.702,4.583,12.964,13.124,13.116v-0.014c12.81-0.45,19.686-13.244,19.686-39.349v-32.81
		C209.981,155.091,203.104,146.563,190.295,146.261 M19.686,146.253v0.008C6.876,146.563,0,155.091,0,172.494v32.81
		c0,26.105,6.876,38.897,19.686,39.349v0.014c8.54-0.149,13.124-4.414,13.124-13.116v-72.18
		C32.81,150.668,28.226,146.404,19.686,146.253 M190.295,139.685c0-21.755-11.46-32.416-32.81-32.792v-0.017H52.496v0.017
		c-21.347,0.377-32.81,11.038-32.81,32.792v0.012c12.81,0.226,19.686,6.622,19.686,19.674s6.877,19.449,19.687,19.675v0.009h91.866
		v-0.009c12.808-0.226,19.684-6.622,19.684-19.675s6.877-19.449,19.687-19.674V139.685z"/>
</g>
</svg>
