<?xml version="1.0" encoding="utf-8"?>
<!-- Generator: Adobe Illustrator 27.3.1, SVG Export Plug-In . SVG Version: 6.00 Build 0)  -->
<svg version="1.1"
	 id="svg2" xmlns:inkscape="http://www.inkscape.org/namespaces/inkscape" xmlns:sodipodi="http://sodipodi.sourceforge.net/DTD/sodipodi-0.dtd" xmlns:rdf="http://www.w3.org/1999/02/22-rdf-syntax-ns#" xmlns:dc="http://purl.org/dc/elements/1.1/" xmlns:cc="http://creativecommons.org/ns#" xmlns:svg="http://www.w3.org/2000/svg" inkscape:version="0.48.3.1 r9886" sodipodi:docname="htmlcss.svg"
	 xmlns="http://www.w3.org/2000/svg" xmlns:xlink="http://www.w3.org/1999/xlink" x="0px" y="0px" viewBox="0 0 362.7 512"
	 style="enable-background:new 0 0 362.7 512;" xml:space="preserve">
<style type="text/css">
	.st0{fill:#264DE4;}
	.st1{fill:#2965F1;}
	.st2{fill:#EBEBEB;}
	.st3{fill:#FFFFFF;}
</style>
<sodipodi:namedview  bordercolor="#666666" borderopacity="1.0" fit-margin-bottom="0" fit-margin-left="0" fit-margin-right="0" fit-margin-top="0" id="base" inkscape:current-layer="layer1" inkscape:cx="-276.49014" inkscape:cy="244.10462" inkscape:document-units="px" inkscape:pageopacity="0.0" inkscape:pageshadow="2" inkscape:window-height="938" inkscape:window-maximized="1" inkscape:window-width="1280" inkscape:window-x="0" inkscape:window-y="31" inkscape:zoom="0.35" pagecolor="#ffffff" showgrid="false">
	</sodipodi:namedview>
<g id="g3013" transform="translate(95.428571,270.18109)">
	<polygon id="polygon2989" class="st0" points="85.7,241.8 -62.4,200.7 -95.4,-169.6 267.3,-169.6 234.3,200.6 	"/>
	<polygon id="polygon2991" class="st1" points="206,177.1 234.2,-139.3 85.9,-139.3 85.9,210.3 	"/>
	<polygon id="polygon2993" class="st2" points="-19.8,-2 -15.7,43.4 85.9,43.4 85.9,-2 	"/>
	<polygon id="polygon2995" class="st2" points="-27.9,-93.9 -23.8,-48.5 85.9,-48.5 85.9,-93.9 85.8,-93.9 	"/>
	<polygon id="polygon2997" class="st2" points="85.9,116 85.7,116 35.2,102.4 31.9,66.2 7.4,66.2 -13.7,66.2 -7.3,137.5 85.7,163.3 
		85.9,163.2 	"/>
	<path id="path2999" inkscape:connector-curvature="0" d="M-10.1-270.2h55v23h-32v23h32v23h-55V-270.2z"/>
	<path id="path3001" inkscape:connector-curvature="0" d="M55.9-270.2h55v20h-32v4h32v46h-55v-21h32v-4h-32V-270.2z"/>
	<path id="path3003" inkscape:connector-curvature="0" d="M121.9-270.2h55v20h-32v4h32v46h-55v-21h32v-4h-32V-270.2z"/>
	<polygon id="polygon3005" class="st3" points="191.3,-2 199.5,-93.9 85.8,-93.9 85.8,-48.5 149.8,-48.5 145.6,-2 85.8,-2 
		85.8,43.4 141.7,43.4 136.4,102.3 85.8,116 85.8,163.3 178.9,137.5 179.6,129.8 190.2,10.2 	"/>
</g>
</svg>
