<?xml version="1.0" encoding="utf-8"?>
<!-- Generator: Adobe Illustrator 16.0.3, SVG Export Plug-In . SVG Version: 6.00 Build 0)  -->
<!DOCTYPE svg PUBLIC "-//W3C//DTD SVG 1.1//EN" "http://www.w3.org/Graphics/SVG/1.1/DTD/svg11.dtd">
<svg version="1.1"
	 id="svg3476" xmlns:inkscape="http://www.inkscape.org/namespaces/inkscape" xmlns:sodipodi="http://sodipodi.sourceforge.net/DTD/sodipodi-0.dtd" xmlns:svg="http://www.w3.org/2000/svg" xmlns:rdf="http://www.w3.org/1999/02/22-rdf-syntax-ns#" xmlns:cc="http://creativecommons.org/ns#" xmlns:dc="http://purl.org/dc/elements/1.1/" inkscape:version="0.92.4 (5da689c313, 2019-01-14)" sodipodi:docname="w3_css-official.svg"
	 xmlns="http://www.w3.org/2000/svg" xmlns:xlink="http://www.w3.org/1999/xlink" x="0px" y="0px" width="181.367px" height="256px"
	 viewBox="38.5 0 181.367 256" enable-background="new 38.5 0 181.367 256" xml:space="preserve">
<sodipodi:namedview  units="px" id="base" fit-margin-top="0" fit-margin-left="0" inkscape:cx="-678.633" inkscape:cy="244.57143" showgrid="false" inkscape:zoom="0.35" bordercolor="#666666" borderopacity="1.0" pagecolor="#ffffff" inkscape:window-x="70" inkscape:pageshadow="2" inkscape:window-height="1016" inkscape:window-width="1850" inkscape:document-units="px" fit-margin-bottom="0" inkscape:window-maximized="1" inkscape:window-y="27" inkscape:current-layer="layer1" inkscape:pageopacity="0.0" fit-margin-right="0">
	</sodipodi:namedview>
<g id="layer1" transform="translate(-193.633,-548.36217)" inkscape:label="Calque 1" inkscape:groupmode="layer">
	<g id="g3013" transform="matrix(0.46875001,0,0,0.46875001,194.74253,548.36217)">
		<polygon id="polygon2989" fill="#264DE4" points="114.978,502.269 79.766,107.328 466.683,107.328 431.433,502.206 
			272.987,546.133 		"/>
		<polygon id="polygon2991" fill="#2965F1" points="401.256,477.063 431.379,139.62 273.225,139.62 273.225,512.558 		"/>
		<polygon id="polygon2993" fill="#EBEBEB" points="160.488,286.098 164.83,334.535 273.225,334.535 273.225,286.098 		"/>
		<polygon id="polygon2995" fill="#EBEBEB" points="156.168,236.497 273.225,236.497 273.225,188.058 273.058,188.058 
			151.765,188.058 		"/>
		<polygon id="polygon2997" fill="#EBEBEB" points="273.002,462.354 273.225,462.292 273.225,411.896 273.012,411.954 
			219.066,397.388 215.618,358.754 189.405,358.754 166.994,358.754 173.78,434.808 		"/>
		<path id="path2999" inkscape:connector-curvature="0" d="M170.825,0h58.667v24.533h-34.133v24.533h34.133V73.6h-58.667V0z"/>
		<path id="path3001" inkscape:connector-curvature="0" d="M241.225,0h58.667v21.333h-34.133V25.6h34.133v49.067h-58.667v-22.4
			h34.133V48h-34.133V0z"/>
		<path id="path3003" inkscape:connector-curvature="0" d="M311.625,0h58.667v21.333h-34.133V25.6h34.133v49.067h-58.667v-22.4
			h34.133V48h-34.133V0z"/>
		<polygon id="polygon3005" fill="#FFFFFF" points="394.396,188.058 273.058,188.058 273.058,236.497 341.312,236.497 
			336.904,286.098 273.058,286.098 273.058,334.535 332.704,334.535 327.079,397.354 273.058,411.938 273.058,462.329 
			372.358,434.808 373.087,426.625 384.468,299.104 385.65,286.098 		"/>
	</g>
</g>
</svg>
