<?xml version="1.0" encoding="utf-8"?>
<!-- Generator: Adobe Illustrator 16.0.3, SVG Export Plug-In . SVG Version: 6.00 Build 0)  -->
<!DOCTYPE svg PUBLIC "-//W3C//DTD SVG 1.1//EN" "http://www.w3.org/Graphics/SVG/1.1/DTD/svg11.dtd">
<svg version="1.1" id="Layer_1" xmlns="http://www.w3.org/2000/svg" xmlns:xlink="http://www.w3.org/1999/xlink" x="0px" y="0px"
	 width="192.856px" height="50.893px" viewBox="53.572 124.554 192.856 50.893"
	 enable-background="new 53.572 124.554 192.856 50.893" xml:space="preserve">
<g transform="matrix(.276285 0 0 .274019 100 131.63245315)">
	<path fill="#10363D" d="M40.154,103.297c4.839,0,8.964-1.08,12.371-3.243c3.333-2.078,5.991-5.082,7.642-8.646
		c3.372-7.406,3.372-15.916,0-23.318c-1.654-3.557-4.312-6.557-7.642-8.635c-3.407-2.142-7.532-3.215-12.371-3.215h-8.377
		c-0.647,0.004-1.177,0.535-1.181,1.18v44.701c0,0.649,0.534,1.176,1.181,1.176H40.154z M12.768,117.078V42.451
		c0-0.645,0.534-1.176,1.181-1.176h0.004h27.856c7.988,0,14.951,1.739,20.893,5.221c5.758,3.293,10.484,8.133,13.64,13.967
		c6.299,12.106,6.299,26.554,0,38.657c-3.135,5.852-7.868,10.695-13.64,13.97c-5.935,3.443-12.898,5.168-20.893,5.168H13.952h-0.004
		C13.302,118.258,12.768,117.723,12.768,117.078z"/>
	<path fill="#10363D" d="M156.532,113.254c-5.093-4.569-7.769-10.888-8.034-18.953c0-0.021,0-0.032,0-0.046
		c0-0.649,0.534-1.187,1.184-1.187l0,0h15.485c0.626,0,1.145,0.492,1.181,1.115c0.18,3.646,1.29,6.536,3.326,8.674
		c2.237,2.345,5.298,3.518,9.183,3.518c3.294,0,5.843-0.734,7.645-2.202c1.799-1.465,2.69-3.557,2.676-6.269
		c0-2.345-0.679-4.234-2.029-5.659c-1.354-1.433-3.793-2.84-7.313-4.234l-13.859-5.389c-5.132-1.907-9.017-4.64-11.657-8.19
		c-2.64-3.557-3.959-7.826-3.959-12.816c-0.081-4.188,1.085-8.304,3.354-11.825c2.354-3.507,5.68-6.258,9.565-7.919
		c4.146-1.871,8.967-2.805,14.467-2.805c5.578,0,10.491,1.009,14.739,3.026c4.044,1.839,7.479,4.797,9.897,8.525
		c2.184,3.489,3.393,7.505,3.492,11.625c0,0.018,0,0.036,0,0.057c0,0.649-0.53,1.183-1.181,1.183h-15.453
		c-0.622,0-1.142-0.492-1.181-1.112c-0.17-3.054-1.075-5.435-2.715-7.138c-1.831-1.907-4.471-2.858-7.918-2.855
		c-2.863,0-5.111,0.674-6.765,2.031c-1.651,1.358-2.566,3.418-2.471,5.556c-0.025,2.078,0.859,4.063,2.414,5.442
		c1.612,1.508,4.323,3.029,8.14,4.562l12.76,5.057c5.274,2.056,9.176,4.879,11.71,8.471c2.531,3.589,3.793,7.99,3.793,13.201
		c0.092,4.433-1.131,8.799-3.517,12.538c-2.432,3.664-5.867,6.543-9.897,8.304c-4.259,1.939-9.204,2.908-14.849,2.915
		C169.292,120.46,161.886,118.058,156.532,113.254"/>
	<path fill="#10363D" d="M286.333,40.096h15.443h0.003c0.643,0,1.174,0.527,1.174,1.173v0.007v59.969
		c0.004,0.645,0.537,1.176,1.188,1.176h26.248c0.647,0,1.181,0.531,1.184,1.18v13.478c0,0.645-0.534,1.18-1.177,1.18
		c-0.004,0-0.007,0-0.007,0h-44.056c-0.003,0-0.007,0-0.007,0c-0.643,0-1.174-0.531-1.174-1.176c0,0,0,0,0-0.004V41.275
		c0-0.004,0-0.007,0-0.007c0-0.645,0.53-1.173,1.174-1.173H286.333z"/>
	<path fill="#10363D" d="M414.347,41.275h16.369c0.438,0,0.834,0.239,1.039,0.62l24.17,45.058c0.205,0.381,0.604,0.62,1.039,0.62
		c0.647,0,1.177-0.535,1.181-1.183V42.462c0-0.645,0.53-1.176,1.181-1.176h14.683h0.007c0.647,0,1.177,0.531,1.177,1.176v74.627
		c0,0.649-0.53,1.176-1.177,1.176h-0.007h-16.337c-0.445,0.014-0.859-0.221-1.075-0.609l-24.17-45.058
		c-0.205-0.385-0.608-0.624-1.039-0.624c-0.636,0-1.166,0.52-1.181,1.158v43.928c0,0.649-0.537,1.18-1.184,1.18H414.34
		c-0.65,0-1.181-0.531-1.181-1.18V42.451c0-0.645,0.53-1.176,1.181-1.176"/>
	<path fill="#10363D" d="M484.102,41.275h44.706c0.647,0,1.181,0.527,1.181,1.176v11.935c0,0.652-0.534,1.187-1.181,1.187h-26.891
		c-0.647,0-1.181,0.527-1.181,1.176v15.125c0,0.649,0.534,1.183,1.181,1.183h26.891h0.004c0.647,0,1.177,0.531,1.177,1.18v0.029
		v11.607c0,0.645-0.53,1.18-1.177,1.18h-0.004h-26.891c-0.647,0-1.181,0.527-1.181,1.176v14.576c0,0.649,0.53,1.18,1.177,1.18h0.004
		h26.891c0.647,0,1.181,0.535,1.181,1.187v11.932c0,0.649-0.534,1.18-1.181,1.18h-44.706c-0.65,0-1.181-0.531-1.181-1.18V42.455
		C482.922,41.806,483.452,41.275,484.102,41.275"/>
	<path fill="#10363D" d="M104.322,90.574l7.61-26.882c0.103-0.371,0.445-0.631,0.834-0.631s0.732,0.26,0.838,0.631l7.607,26.882
		c0.028,0.107,0.046,0.21,0.046,0.321c0,0.62-0.516,1.133-1.138,1.133c-0.003,0-0.003,0-0.007,0h-14.69
		c-0.626,0-1.142-0.513-1.142-1.14C104.279,90.781,104.293,90.677,104.322,90.574 M147.458,117.121l-25.587-75.258
		c-0.117-0.353-0.449-0.592-0.82-0.588h-16.68c-0.371-0.004-0.703,0.235-0.82,0.588l-25.478,75.258
		c-0.032,0.089-0.049,0.182-0.049,0.278c0,0.474,0.392,0.866,0.866,0.866h16.705c0.527,0.004,0.993-0.349,1.135-0.855l3.216-11.397
		h25.619l3.213,11.397c0.145,0.506,0.612,0.855,1.135,0.855h16.705c0.474,0,0.866-0.392,0.866-0.866
		c0-0.096-0.018-0.189-0.046-0.278"/>
	<path fill="#10363D" d="M363.169,90.574l7.607-26.882c0.106-0.371,0.452-0.631,0.834-0.631c0.389,0,0.735,0.26,0.838,0.631
		l7.614,26.882c0.025,0.1,0.042,0.207,0.042,0.306c0,0.627-0.52,1.148-1.149,1.148h-14.686c-0.619-0.014-1.113-0.527-1.113-1.14
		c0-0.107,0.014-0.21,0.042-0.314 M406.305,117.121l-25.587-75.247c-0.117-0.353-0.449-0.592-0.817-0.588h-16.683
		c-0.375-0.004-0.707,0.235-0.82,0.588l-25.478,75.247c-0.032,0.089-0.049,0.182-0.049,0.278c0,0.474,0.396,0.866,0.87,0.866h0.004
		h16.698c0.527,0.004,0.993-0.349,1.142-0.855l3.22-11.397h25.612l3.213,11.397c0.145,0.506,0.608,0.855,1.135,0.855h16.705
		c0.477,0,0.87-0.392,0.87-0.866c0-0.096-0.018-0.189-0.049-0.278"/>
	<path fill="#10363D" d="M275.85,41.275h-15.457c-0.647,0-1.177,0.531-1.177,1.176v28.764c0,0.649-0.537,1.183-1.188,1.183h-24.247
		c-0.65,0-1.181-0.531-1.181-1.176c0-0.004,0-0.007,0-0.007V41.863c-0.004-0.649-0.537-1.18-1.184-1.18h-15.457
		c-0.643,0.004-1.173,0.535-1.177,1.18v75.215c0.004,0.645,0.534,1.176,1.177,1.18h15.457c0.647,0,1.181-0.535,1.184-1.18V88.863
		c0-0.649,0.53-1.18,1.181-1.18h24.247c0.65,0,1.181,0.531,1.188,1.18v28.215c0,0.645,0.53,1.18,1.177,1.18h15.457
		c0.643,0,1.177-0.535,1.177-1.18V42.451C277.027,41.806,276.493,41.275,275.85,41.275"/>
	<path fill="#10363D" d="M-93.242,50.32l19.525,7.17c3.156,1.112,6.995-0.378,6.995-2.712V5.312c0-1.133-0.947-2.145-2.474-2.68
		l-19.525-7.167c-3.156-1.115-6.999,0.367-6.999,2.676v49.47C-95.72,48.741-94.766,49.782-93.242,50.32"/>
	<path fill="#10363D" d="M-93.242,139.121l19.525,7.17c3.156,1.112,6.995-0.371,6.995-2.709V94.116c0-1.13-0.947-2.167-2.474-2.709
		l-19.525-7.17c-3.156-1.112-6.999,0.378-6.999,2.712v49.456c0,1.133,0.954,2.17,2.478,2.709"/>
	<path fill="#10363D" d="M-129.405,33.78l19.529,7.167c3.153,1.115,6.963-0.374,6.963-2.709v-53.821c0-1.13-0.947-2.167-2.474-2.709
		l-19.497-7.163c-3.16-1.112-6.995,0.371-6.995,2.68v53.843C-131.879,32.198-130.932,33.242-129.405,33.78"/>
	<path fill="#10363D" d="M-129.405,152.35l19.529,7.167c3.153,1.115,6.963-0.367,6.963-2.712v-53.679
		c0-1.126-0.947-2.167-2.474-2.709l-19.497-7.163c-3.16-1.112-6.995,0.371-6.995,2.709v53.679
		C-131.879,150.767-130.932,151.808-129.405,152.35"/>
	<path fill="#10363D" d="M-139.048-13.562c0-1.13-0.954-2.142-2.481-2.712l-19.522-7.167c-3.153-1.115-6.995,0.374-6.995,2.712
		v168.353c0,1.13,0.947,2.174,2.474,2.709l19.529,7.178c3.153,1.105,6.995-0.378,6.995-2.712V-13.562L-139.048-13.562z"/>
	<path fill="#10363D" d="M-33.044,31.132l-19.529-7.167c-3.156-1.115-6.963,0.374-6.963,2.709v81.249
		c0,1.13,0.947,2.167,2.474,2.705l19.525,7.167c3.156,1.115,6.999-0.371,6.999-2.705V33.845c0-1.133-0.954-2.17-2.481-2.712"/>
</g>
</svg>
