<?xml version="1.0" encoding="utf-8"?>
<!-- Generator: Adobe Illustrator 16.0.3, SVG Export Plug-In . SVG Version: 6.00 Build 0)  -->
<!DOCTYPE svg PUBLIC "-//W3C//DTD SVG 1.1//EN" "http://www.w3.org/Graphics/SVG/1.1/DTD/svg11.dtd">
<svg version="1.1" id="Layer_1" xmlns="http://www.w3.org/2000/svg" xmlns:xlink="http://www.w3.org/1999/xlink" x="0px" y="0px"
	 width="813.151px" height="813.184px" viewBox="311.914 93.652 813.151 813.184"
	 enable-background="new 311.914 93.652 813.151 813.184" xml:space="preserve">
<circle fill="#FFFFFF" cx="717" cy="498.5" r="381"/>
<g transform="matrix(0.1,0,0,-0.1,0,1024)">
	<path d="M6864.901,9301.391c-19.004-2.002-80-8.999-135-13.999c-782.011-82.002-1552.011-413.003-2180-939.004
		c-115.996-95.996-380-360-476.001-475.996c-520-621.001-824.004-1318.002-936.006-2142.998c-25-183.008-25-801.006,0-984.004
		c112.002-825,416.006-1522.002,936.006-2142.998c96.001-116.006,360.005-380,476.001-476.006
		c620.996-520,1317.988-823.994,2142.988-935.996c183.008-25,801.016-25,984.004,0c825,112.002,1522.012,415.996,2143.008,935.996
		c115.996,96.006,380,360,475.996,476.006c520,620.996,824.004,1317.998,935.996,2142.998c25,182.998,25,800.996,0,984.004
		c-111.992,824.995-415.996,1521.997-935.996,2142.998c-95.996,115.996-360,380-475.996,475.996
		c-619.004,518.003-1323.008,826.001-2137.012,935c-87.988,12.002-215.996,17.002-452.988,19.004
		C7048.905,9304.389,6883.905,9303.388,6864.901,9301.391z M6914.901,8869.389c0-116.997,7.988-371.001,19.004-611.997
		c5.996-118.003,12.988-287.002,15.996-375c10.996-312.002,44.004-1131.001,49.004-1204.004l5-72.998l-45,5
		c-25,2.002-48.008,7.998-52.012,11.001c-2.988,3.999-10,72.998-14.004,153.999c-17.988,356.001-76.992,1737.002-82.988,1938.999
		l-5.996,222.002l27.988,3.999c15,2.002,40,5,55.996,6.001l27.012,1.001V8869.389z M7871.894,8893.388
		c0.996-0.996,4.004-302.998,7.012-670.996c3.984-369.004,8.984-700,11.992-736.001c3.008-37.002,1.992-68.999-3.008-71.001
		c-3.984-2.998-28.984-2.998-53.984,0l-46.016,3.999l-6.992,291.001c-4.004,161.001-9.004,338.999-10.996,397.002
		c-8.008,176.997-15,777.998-9.004,792.998c4.004,11.001,15,12.002,56.992,5C7846.894,8899.389,7870.897,8894.389,7871.894,8893.388
		z M5558.906,8558.388c5.996-8.999,52.988-560,110.996-1280.996c19.004-245,37.988-469.004,40.996-497.002
		c5-51.001,4.004-52.998-28.008-72.998c-17.988-11.001-35.996-20-40-20c-2.988,0-8.984,25.996-11.992,57.998
		c-14.004,130-68.008,757.998-105.996,1212.002c-22.012,266.997-42.012,505.996-45,531.997c-5,43.999-4.004,48.003,21.992,62.002
		C5533.906,8568.388,5551.894,8571.391,5558.906,8558.388z M8311.894,8357.392c28.008-10,30.996-15,37.012-72.002
		c10-100,6.992-577.998-4.004-577.998c-29.004,0-89.004,33.999-94.004,52.998c-3.008,12.002-5.996,153.999-5.996,315
		C8244.901,8400.39,8240.897,8381.391,8311.894,8357.392z M6464.901,8310.39c0-27.002,6.992-176.001,15-332.998
		c7.988-157.002,16.992-356.001,20.996-442.002c6.992-173.999,9.004-167.998-58.008-172.002c-32.988-0.996-32.988-0.996-35,49.004
		c-1.992,27.998-6.992,115-12.988,195c-5,80-17.012,252.998-25,385c-8.008,131.997-18.008,262.998-20.996,290.996
		c-6.016,50-5,52.002,21.992,62.002c15.996,6.001,44.004,11.001,61.992,11.001
		C6464.901,8357.392,6464.901,8357.392,6464.901,8310.39z M9238.905,8173.388l33.984-13.999l7.012-133.999
		c2.988-72.998,5-231.001,2.988-350l-2.988-217.998l-42.012,20.996l-41.992,20l-3.008,332.002
		c-1.992,182.998-0.996,337.998,1.016,345C9197.89,8190.39,9197.89,8190.39,9238.905,8173.388z M7412.89,8042.392
		c6.016-6.001,20-491.001,21.016-737.002l0.996-147.998l-47.012,6.997c-26.992,3.003-48.984,6.001-50,7.002
		c-2.988,1.997-32.988,742.998-32.988,815v73.999l50.996-6.001C7384.901,8050.39,7409.901,8045.39,7412.89,8042.392z
		 M9715.897,7971.391c11.992-13.999,14.004-233.003,16.992-1441c3.008-1387.002,3.008-1422.998-15-1422.998
		c-10.996,0-25.996,5.996-35,12.998c-15,10.996-16.992,132.002-21.992,1317.002c-4.004,717.998-9.004,1370-11.992,1448.994
		l-6.016,144.004l29.004-21.006C9688.905,7997.392,9707.89,7980.39,9715.897,7971.391z M8818.905,7766.391
		c5-3.999,10-61.001,10.996-126.001c5-221.001,5.996-1575.996,0.996-1580c-1.992-2.002-20,2.998-40,10.996l-35.996,15v851.005v850
		l27.988-6.001C8797.89,7777.392,8813.905,7771.391,8818.905,7766.391z M6058.906,7710.39c2.988-27.002,7.988-87.998,10.996-137.998
		c2.988-49.004,10-161.001,15.996-248.003c11.992-176.001,10-186.997-46.992-186.997c-30,0-34.004,2.998-38.008,32.998
		c-10,58.999-45,551.001-40,558.999c5,7.002,56.992,25,80.996,27.002C6047.89,7757.392,6055.898,7736.391,6058.906,7710.39z
		 M4404.902,7455.39c10.996-106.001,32.988-327.998,49.004-492.998c16.992-165,30.996-305,30.996-311.001
		c0-12.002-77.012-50-85-42.002c-5,5-105,890-105,930c0,23.999,76.992,125,86.992,113.999
		C4384.902,7651.391,4394.902,7562.392,4404.902,7455.39z M8325.897,7350.39l29.004-17.002l0.996-215.996
		c0.996-118.003,3.008-250,3.008-293.003c1.992-90-9.004-105-63.008-86.001l-30.996,11.001v86.001c0,47.998-3.008,187.002-7.012,310
		l-5.996,222.002h23.008C8286.894,7367.392,8309.901,7359.389,8325.897,7350.39z M4843.906,6962.392
		c17.988-192.002,46.992-516,65.996-720l34.004-370l-39.004-39.004l-38.008-38.994l-6.992,78.994
		c-4.004,44.004-24.004,247.998-45,454.004c-20.996,205.996-50.996,505-65.996,663.999l-28.008,287.998l39.004,36.001
		c35,32.998,39.004,33.999,45.996,16.001C4809.902,7321.391,4826.894,7155.39,4843.906,6962.392z M4094.897,6841.391
		c21.997-197.002,80.005-721,130.005-1163.999s96.992-870,105.996-950c8.008-80,21.992-201.006,30-270
		c14.004-117.002,14.004-125-1.992-137.002c-24.004-17.998-34.004-15.996-34.004,5c0,9.004-9.004,85-20,167.002
		c-18.008,137.002-48.008,368.994-115,890c-14.004,105-40.996,313.994-60,465c-20,150.996-49.009,375.996-65.005,500
		c-15.996,123.999-42.998,335.996-60,472.998c-17.998,136.001-29.004,257.002-25.996,270c6.992,27.002,65.996,121.001,71.992,115
		C4052.895,7202.392,4072.895,7039.389,4094.897,6841.391z M3788.901,6410.39c15-120,42.998-339.004,61.992-487.998
		c19.004-147.998,43.008-332.998,54.004-410l19.004-140l-21.006-17.998c-12.002-10-23.994-14.004-27.998-10
		c-4.004,3.994-12.002,43.994-17.998,87.998c-6.006,43.994-42.998,300.996-82.998,570l-71.006,490l22.998,67.998
		c12.002,37.002,25,67.002,28.008,67.002C3757.895,6627.392,3772.895,6529.389,3788.901,6410.39z M9278.905,6541.391
		c13.984-13.999,15.996-76.001,15.996-535.005v-518.994h-28.008c-60.996,0-60-15-64.004,552.998l-2.988,517.001h31.992
		C9248.905,6557.392,9270.897,6550.39,9278.905,6541.391z M7089.901,6362.392c225.996-34.004,422.988-97.002,617.988-197.002
		c126.016-65,186.016-110,326.016-244.004c207.988-198.994,335.996-372.998,455.996-618.994c175-357.998,242.988-675,329.004-1525
		c38.984-381.006,90-1072.002,100.996-1355c2.988-82.002,10-217.002,15.996-300c10.996-176.006,24.004-152.002-130.996-227.002
		c-215-104.004-422.012-175.996-695-242.998c-334.004-82.002-550-107.998-880-109.004l-240-0.996l1.992,115
		c0,62.998,5.996,210,12.012,325c30,557.002,23.984,1260-15,1650c-22.012,223.994-65,495.996-89.004,555.996
		c-5,12.998,17.988,24.004,116.992,57.998c180.996,63.008,338.008,142.002,362.012,181.006c42.988,73.994-34.004,180-132.012,180
		c-16.992,0-67.988-17.998-115-39.004c-224.004-102.998-672.988-223.994-931.992-250.996c-179.004-19.004-457.012-7.998-650,27.002
		c-105,18.994-293.008,90-450,170.996c-180.996,94.004-292.012,219.004-325,367.002c-18.008,80-13.008,240,10,330
		c25,98.994,95,242.998,159.004,327.002c285,375,872.988,700,1475.996,813.994
		C6611.894,6389.394,6883.905,6393.388,7089.901,6362.392z M10174.901,6331.386c35.996-15,40-18.994,40-52.998
		c1.992-272.998-4.004-897.002-9.004-922.998c-0.996-9.004-53.008-10-75-2.002c-14.004,5-15.996,59.004-15.996,500
		c0,316.006,4.004,494.004,10,494.004C10129.901,6347.392,10152.89,6340.39,10174.901,6331.386z M10611.894,5782.392l35.996-15
		l-6.992-827.998c-8.008-1055-9.004-1086.006-46.992-1177.002c-62.012-149.004-59.004-179.004-53.008,475
		c1.992,327.002,6.992,657.998,9.004,735c1.992,77.002,4.004,293.994,5,482.998c0,227.998,2.988,342.002,10,342.002
		C10570.897,5797.392,10591.894,5790.39,10611.894,5782.392z M4597.89,5533.388c6.016-80.996,4.004-88.994-25-152.998
		l-31.992-67.998l-11.992,100c-19.004,160-19.004,167.002,18.984,190.996c17.012,12.002,35,20,38.008,17.998
		C4588.906,5619.394,4594.902,5579.394,4597.89,5533.388z M3979.897,4930.39c9.004-82.002,79.004-625.996,115-892.998
		c54.009-412.998,57.993-472.002,34.009-447.002c-3.008,2.998-26.016,142.002-50.005,309.004
		c-156.006,1077.998-155,1070.996-142.002,1078.994C3963.901,4996.386,3972.895,4986.386,3979.897,4930.39z M4699.902,4472.392
		c5.996-25,35-296.006,35-329.004c0-27.998-35.996-53.994-52.012-37.998c-5,5-17.988,90-27.988,187.998
		c-10.996,99.004-22.012,202.002-25,229.004l-5.996,50l35-40C4678.906,4510.39,4696.894,4483.388,4699.902,4472.392z
		 M5506.894,4095.39c10.996-10,18.008-50,27.012-157.998c15-195,16.992-180-24.004-180c-42.012,0-40.996-2.998-55,172.998
		c-14.004,179.004-14.004,177.002,12.988,177.002C5480.898,4107.392,5497.89,4101.386,5506.894,4095.39z M6298.906,4080.39
		c1.992-10,6.992-70,10.996-132.998c2.988-62.998,11.992-205,20-315c27.988-404.004,29.004-455,11.992-455
		c-19.004,0-20.996,15-42.988,300c-8.008,117.998-23.008,303.994-33.008,412.998c-9.004,109.004-15,200-11.992,202.002
		C6264.902,4104.394,6293.906,4095.39,6298.906,4080.39z M4418.906,3888.388c5.996-8.994,43.984-328.994,90.996-765.996
		c14.004-132.002,27.988-259.004,30.996-282.998l5-43.008l-25,16.006c-19.004,12.998-25.996,25.996-25.996,48.994
		c0,63.008-43.008,478.008-75.996,732.002c-19.004,144.004-34.004,271.006-34.004,282.998
		C4384.902,3897.392,4408.906,3905.39,4418.906,3888.388z M10189.901,3470.39l-7.012-417.998l-25-37.002
		c-56.992-84.004-53.984-100-50.996,367.998l2.012,429.004l36.992,37.998c20,20,40,37.002,44.004,37.002
		C10192.89,3887.392,10192.89,3699.394,10189.901,3470.39z M9264.901,2807.392c5-581.006,4.004-626.006-12.012-644.004
		c-10-10.996-18.984-17.998-21.992-15c-6.992,7.998-16.992,1275-9.004,1282.002c4.004,4.004,14.004,5.996,23.008,5
		C9257.89,3432.392,9260.897,3361.386,9264.901,2807.392z M5998.906,3205.39c6.992-62.002,31.992-359.004,41.992-499.004
		c5.996-93.994,5.996-96.992-15.996-103.994c-12.012-4.004-25.996-2.998-30,2.002c-7.012,6.992-29.004,228.994-55.996,570.996
		l-7.012,82.002h30.996C5991.894,3257.392,5993.906,3255.39,5998.906,3205.39z M5212.89,2855.39
		c7.012-7.002,12.012-32.002,12.012-57.002c0-25.996,11.992-160.996,25-300.996c37.988-382.998,40.996-435,24.004-425
		c-26.016,15-49.004,37.998-44.004,43.994c1.992,4.004-2.012,54.004-10,111.006c-7.012,57.998-15.996,152.002-20,210
		s-13.008,163.994-20.996,235c-19.004,175-18.008,195,3.984,195C5192.89,2867.392,5205.898,2862.392,5212.89,2855.39z
		 M5685.898,2182.392c3.008-22.002,9.004-104.004,13.008-182.002c6.992-150,3.984-160.996-37.012-130
		c-11.992,9.004-20,47.002-31.992,160.996c-20.996,206.006-22.012,198.008,16.992,194.004
		C5675.898,2222.392,5679.902,2218.388,5685.898,2182.392z"/>
	<path d="M5328.906,5883.388c-104.004-45-112.012-185.996-14.004-235.996c70.996-36.006,142.988-19.004,180,42.998
		C5564.902,5804.394,5450.898,5936.386,5328.906,5883.388z"/>
	<path d="M6006.894,5787.392c-95.996-59.004-95.996-201.006,0-260c95-57.002,218.008,17.998,218.008,132.002
		C6224.902,5769.394,6098.906,5843.388,6006.894,5787.392z"/>
</g>
</svg>
