<?xml version="1.0" encoding="utf-8"?>
<!-- Generator: Adobe Illustrator 27.3.1, SVG Export Plug-In . SVG Version: 6.00 Build 0)  -->
<svg version="1.1" id="Layer_1" xmlns="http://www.w3.org/2000/svg" xmlns:xlink="http://www.w3.org/1999/xlink" x="0px" y="0px"
	 viewBox="0 0 151.1 40.6" style="enable-background:new 0 0 151.1 40.6;" xml:space="preserve">
<style type="text/css">
	.st0{clip-path:url(#SVGID_00000067227104770639471660000017052568195626266521_);}
	.st1{clip-path:url(#SVGID_00000108284587959001209790000009220848926207245446_);}
	.st2{fill:#FFFFFF;}
</style>
<g>
	<defs>
		<rect id="SVGID_1_" x="56.4" y="8.8" width="94.7" height="24"/>
	</defs>
	<clipPath id="SVGID_00000156545811646533665590000018024810054898690692_">
		<use xlink:href="#SVGID_1_"  style="overflow:visible;"/>
	</clipPath>
	<g style="clip-path:url(#SVGID_00000156545811646533665590000018024810054898690692_);">
		<path fill="#fff" d="M56.4,32.4V8.8H68c2.7,0,5.1,0.4,7,1.3c1.9,0.9,3.4,2.2,4.4,3.9c1,1.8,1.5,3.9,1.5,6.5s-0.5,4.8-1.5,6.5
			c-1,1.8-2.5,3.1-4.4,4c-1.9,0.9-4.3,1.3-7,1.3H56.4z M63,27.4h4.7c1,0,1.9-0.1,2.7-0.4c0.8-0.3,1.5-0.7,2-1.2c0.6-0.5,1-1.2,1.3-2
			c0.3-0.8,0.4-1.7,0.4-2.6v-1.1c0-1-0.1-1.9-0.4-2.7c-0.3-0.8-0.7-1.4-1.3-2c-0.6-0.5-1.2-0.9-2-1.2c-0.8-0.3-1.7-0.4-2.7-0.4H63
			V27.4z"/>
		<path fill="#fff" d="M94.2,32.8c-2.3,0-4.2-0.3-5.9-1c-1.6-0.7-2.9-1.7-3.8-3.1c-0.9-1.4-1.3-3.2-1.3-5.4s0.4-3.9,1.3-5.3
			c0.9-1.4,2.1-2.4,3.7-3.1c1.6-0.7,3.5-1,5.7-1s4.2,0.3,5.7,1c1.6,0.7,2.8,1.7,3.6,3.1c0.8,1.4,1.2,3.1,1.2,5.3v1.3H89.4
			c0,1,0.2,1.8,0.6,2.4c0.4,0.6,0.9,1.1,1.6,1.4c0.7,0.3,1.6,0.5,2.6,0.5c0.6,0,1.1-0.1,1.6-0.2c0.5-0.1,1-0.3,1.3-0.6
			c0.4-0.3,0.7-0.5,0.9-0.9c0.2-0.3,0.3-0.7,0.4-1.2h6c0,1.1-0.2,2-0.7,2.9c-0.5,0.8-1.2,1.6-2.1,2.1c-0.9,0.6-2,1-3.2,1.3
			C97.2,32.7,95.7,32.8,94.2,32.8L94.2,32.8z M89.4,21.3h8.8c0-0.6-0.1-1.1-0.3-1.5c-0.2-0.4-0.5-0.8-0.8-1.1
			c-0.4-0.3-0.8-0.5-1.3-0.7c-0.5-0.1-1.1-0.2-1.6-0.2c-1,0-1.8,0.1-2.4,0.4c-0.7,0.3-1.2,0.7-1.6,1.2C89.8,20,89.5,20.6,89.4,21.3
			L89.4,21.3z"/>
		<path fill="#fff" d="M107.5,32.4V14.3h4.9l0.4,2.8h0.3c0.5-0.7,1.2-1.3,1.9-1.8c0.7-0.5,1.5-0.8,2.4-1s1.7-0.3,2.6-0.3c1.5,0,2.8,0.3,3.9,0.8
			c1,0.5,1.8,1.3,2.4,2.3c0.5,1,0.8,2.4,0.8,4v11.4h-6V21.8c0-0.5-0.1-1-0.2-1.5c-0.1-0.4-0.4-0.8-0.6-1c-0.3-0.3-0.6-0.5-1-0.6
			c-0.4-0.1-0.9-0.2-1.4-0.2c-0.8,0-1.5,0.2-2.1,0.5c-0.6,0.3-1.1,0.8-1.5,1.4c-0.4,0.6-0.5,1.3-0.5,2v10L107.5,32.4L107.5,32.4z"/>
		<path fill="#fff" d="M140.3,32.8c-2.2,0-4.1-0.3-5.8-1c-1.6-0.7-2.9-1.7-3.7-3.1c-0.9-1.4-1.3-3.2-1.3-5.3c0-2.1,0.4-3.9,1.3-5.3
			c0.9-1.4,2.1-2.4,3.7-3.1c1.6-0.7,3.5-1,5.8-1c2.2,0,4.1,0.3,5.8,1c1.6,0.7,2.9,1.7,3.7,3.1c0.9,1.4,1.3,3.2,1.3,5.3
			c0,2.1-0.4,3.9-1.3,5.3c-0.9,1.4-2.1,2.4-3.7,3.1C144.5,32.5,142.6,32.8,140.3,32.8z M140.3,28.6c1.1,0,1.9-0.2,2.6-0.6
			c0.7-0.4,1.2-0.9,1.6-1.6c0.3-0.7,0.5-1.6,0.5-2.5v-1c0-1-0.2-1.8-0.5-2.6c-0.3-0.7-0.8-1.3-1.6-1.6s-1.6-0.6-2.6-0.6
			c-1,0-2,0.2-2.6,0.6c-0.7,0.4-1.2,0.9-1.5,1.6c-0.3,0.7-0.5,1.6-0.5,2.6v1c0,1,0.2,1.8,0.5,2.5c0.3,0.7,0.8,1.3,1.5,1.6
			C138.4,28.5,139.3,28.6,140.3,28.6z"/>
	</g>
</g>
<g>
	<defs>
		<rect id="SVGID_00000183965431825132223440000015271707990887209114_" width="40.6" height="40.6"/>
	</defs>
	<clipPath id="SVGID_00000139999828124763141140000015066388374631398540_">
		<use xlink:href="#SVGID_00000183965431825132223440000015271707990887209114_"  style="overflow:visible;"/>
	</clipPath>
	<g style="clip-path:url(#SVGID_00000139999828124763141140000015066388374631398540_);">
		<path d="M20.3,0c11.2,0,20.3,9.1,20.3,20.3c0,11.2-9.1,20.3-20.3,20.3C9.1,40.6,0,31.5,0,20.3C0,9.1,9.1,0,20.3,0z"/>
		<path class="st2" d="M19.9,30.3c-0.5-0.1-1.1,0.2-1.2,0.7l0,0l-1.3,5l0,0c-0.1,0.5,0.2,1.1,0.7,1.2c0.5,0.1,1.1-0.2,1.2-0.7l0,0
			l1.3-5l0,0c0,0,0-0.1,0-0.1l0,0l0-0.2l0-0.2l0-0.1c-0.1-0.1-0.2-0.2-0.3-0.3C20.1,30.4,20,30.3,19.9,30.3z M10.5,25.1
			c0,0,0,0.1-0.1,0.2l0,0l-1.3,5l0,0c-0.1,0.5,0.2,1.1,0.7,1.2c0.5,0.1,1.1-0.2,1.2-0.7l0,0l1.2-4.5C11.5,25.9,11,25.5,10.5,25.1z
			 M7.2,19.4C6.7,19.2,6.2,19.5,6,20l0,0l-1.3,5l0,0c-0.1,0.5,0.2,1.1,0.7,1.2c0.5,0.1,1.1-0.2,1.2-0.7l0,0l1.3-5l0,0
			C8.1,20,7.8,19.5,7.2,19.4z M37.5,18.2c-0.5-0.1-1.1,0.2-1.2,0.7l0,0l-1.3,5l0,0c-0.1,0.5,0.2,1.1,0.7,1.2
			c0.5,0.1,1.1-0.2,1.2-0.7l0,0l1.3-5l0,0C38.3,18.9,38,18.4,37.5,18.2z M4.3,11.5c-1.1,2.1-1.8,4.3-2.1,6.6
			c0.1,0.1,0.3,0.3,0.5,0.3c0.5,0.1,1.1-0.2,1.2-0.7l0,0l1.3-5l0,0c0.1-0.5-0.2-1.1-0.7-1.2C4.5,11.6,4.4,11.5,4.3,11.5z M34.1,11.6
			c-0.5-0.1-1.1,0.2-1.2,0.7l0,0l-1.3,5l0,0c-0.1,0.5,0.2,1.1,0.7,1.2c0.5,0.1,1.1-0.2,1.2-0.7l0,0l1.3-5l0,0
			C34.9,12.3,34.6,11.7,34.1,11.6z"/>
		<path class="st2" d="M10.2,6.8C9.7,6.7,9.1,7,9,7.5l0,0l-1.3,5l0,0c-0.1,0.5,0.2,1.1,0.7,1.2c0.5,0.1,1.1-0.2,1.2-0.7l0,0l1.3-5
			l0,0C11,7.5,10.7,7,10.2,6.8z M27.5,7.8c-0.5-0.1-1.1,0.2-1.2,0.7l0,0l-0.9,3.4c0.6,0.3,1.1,0.6,1.7,1l0.1,0.1L28.2,9l0,0
			C28.3,8.4,28,7.9,27.5,7.8z M18.7,2.1c-0.6,0.1-1.3,0.1-1.9,0.3l-0.1,0l-1.3,4.7l0,0c-0.1,0.5,0.2,1.1,0.7,1.2
			c0.5,0.1,1.1-0.2,1.2-0.7l0,0l1.3-5l0,0C18.7,2.4,18.7,2.3,18.7,2.1z M31.1,5.6l-0.3,1l0,0c-0.1,0.5,0.2,1.1,0.7,1.2
			c0.5,0.1,1.1-0.2,1.2-0.7l0,0l0-0.1c-0.5-0.5-1-0.9-1.6-1.3L31.1,5.6z M23.3,2.3l-0.5,1.8l0,0c-0.1,0.5,0.2,1.1,0.7,1.2
			c0.5,0.1,1.1-0.2,1.2-0.7l0,0l0.5-1.9c-0.6-0.2-1.2-0.3-1.8-0.4L23.3,2.3z"/>
		<path class="st2" d="M13.1,33.4c0.2-0.5,0.7-0.8,1.2-0.7c0.5,0.1,0.8,0.7,0.7,1.2l0,0l-1,3.6l-0.1,0c-0.6-0.2-1.2-0.5-1.7-0.7
			L13.1,33.4L13.1,33.4z"/>
		<path class="st2" d="M19.5,11.5C13.6,11.5,9,15.2,9,19.8c0,4.4,4.2,7.2,10.8,7c0.6,0,0.7,0.4,0.9,0.9c0.2,0.5,0.7,3.2,1.1,5.2
			c0.3,1.8,0.7,3.6,1,5.5c4.3-0.6,8.2-2.7,11.1-5.9L30.8,21c-0.8-2.8-1.7-5.4-4.1-7.2C24.8,12.3,22.4,11.5,19.5,11.5z"/>
		<path d="M20.8,14.8c0.7,0,1.3,0.6,1.3,1.3c0,0.7-0.6,1.3-1.3,1.3s-1.3-0.6-1.3-1.3C19.5,15.4,20.1,14.8,20.8,14.8z"/>
	</g>
</g>
</svg>
