<?xml version="1.0" encoding="utf-8"?>
<!-- Generator: Adobe Illustrator 16.0.3, SVG Export Plug-In . SVG Version: 6.00 Build 0)  -->
<!DOCTYPE svg PUBLIC "-//W3C//DTD SVG 1.1//EN" "http://www.w3.org/Graphics/SVG/1.1/DTD/svg11.dtd">
<svg version="1.1" id="Layer_1" xmlns="http://www.w3.org/2000/svg" xmlns:xlink="http://www.w3.org/1999/xlink" x="0px" y="0px"
	 width="255.68px" height="214.51px" viewBox="0 0 255.68 214.51" enable-background="new 0 0 255.68 214.51" xml:space="preserve">
<path fill="#364548" d="M38.617,173.984v-16.362c0-2.149,1.344-3.877,3.57-3.877h0.616c2.225,0,3.563,1.729,3.563,3.877v34.446
	c0,8.4-4.15,15.084-11.382,19.343c-3.313,1.962-7.094,2.994-10.945,2.985h-1.537c-8.402,0-15.077-4.153-19.342-11.381
	c-1.966-3.313-2.997-7.096-2.984-10.947v-1.534c0-8.403,4.152-15.083,11.378-19.351c3.312-1.967,7.096-2.998,10.948-2.984h1.537
	c5.686,0,10.5,2.203,14.578,5.783V173.984z M7.924,191.3c0,6.068,2.94,10.63,8.258,13.54c2.15,1.176,4.484,1.809,6.937,1.809
	c5.956,0,10.374-2.801,13.42-7.857c1.417-2.348,2.077-4.917,2.077-7.648c0-5.26-2.5-9.365-6.73-12.414
	c-2.57-1.848-5.463-2.774-8.618-2.774c-6.492,0-11.164,3.28-13.968,9.106c-0.946,1.97-1.378,4.06-1.378,6.239H7.924z M73.248,168.2
	h1.074c8.978,0,15.806,4.354,20.133,12.192c1.73,3.135,2.656,6.557,2.656,10.142v1.534c0,8.4-4.142,15.094-11.385,19.344
	c-3.353,1.967-7.057,2.984-10.943,2.984h-1.535c-8.402,0-15.08-4.153-19.342-11.381c-1.966-3.312-2.999-7.095-2.987-10.947v-1.534
	c0-8.404,4.17-15.062,11.377-19.347C65.607,169.215,69.394,168.182,73.248,168.2L73.248,168.2z M58.668,191.3
	c0,5.9,2.9,10.224,7.865,13.271c2.336,1.43,4.9,2.078,7.638,2.078c5.82,0,10.122-2.95,13.116-7.863
	c1.428-2.342,2.074-4.915,2.074-7.643c0-5.477-2.638-9.66-7.148-12.692c-2.416-1.645-5.275-2.515-8.198-2.496
	c-6.492,0-11.164,3.28-13.967,9.106C59.1,187.03,58.668,189.12,58.668,191.3L58.668,191.3z M129.324,176.573
	c-1.17-0.548-3.36-0.73-4.624-0.778c-6.474-0.244-11.158,3.402-13.906,9.113c-0.95,1.97-1.382,4.055-1.382,6.234
	c0,6.637,3.485,11.284,9.4,14.117c2.164,1.034,4.958,1.23,7.323,1.23c2.08,0,5.02-1.274,6.866-2.15l0.319-0.152h1.434l0.158,0.033
	c1.762,0.366,3.092,1.483,3.092,3.379v0.768c0,4.718-8.622,5.798-11.912,6.027c-11.6,0.804-20.293-5.572-23.603-16.646
	c-0.575-1.923-0.834-3.833-0.834-5.837v-1.533c0-8.403,4.17-15.06,11.377-19.34c3.308-1.981,7.094-3.019,10.95-3h1.536
	c4.13,0,7.934,1.173,11.343,3.502l0.281,0.194l0.176,0.291c0.369,0.601,0.686,1.316,0.686,2.043v0.767
	c0,1.978-1.48,3.042-3.266,3.386l-0.148,0.026h-0.458c-1.155,0-3.784-1.197-4.817-1.683L129.324,176.573z M154.458,181.82
	l9.085-8.986c0.85-0.827,4.074-4.327,5.344-4.327h1.387l0.158,0.033c1.769,0.367,3.092,1.485,3.092,3.386v0.766
	c0,1.297-1.518,2.803-2.354,3.701c-1.78,1.887-3.653,3.711-5.476,5.56l-9.362,9.504l12.056,12.153
	c1.109,1.125,2.209,2.256,3.301,3.396c0.386,0.405,0.953,0.9,1.276,1.471c0.347,0.525,0.56,1.119,0.56,1.752v0.799l-0.045,0.186
	c-0.435,1.768-1.557,3.194-3.516,3.194h-0.617c-1.281,0-2.729-1.45-3.607-2.28c-1.801-1.706-3.557-3.5-5.33-5.243l-5.95-5.84v9.334
	c0,2.149-1.347,3.878-3.569,3.878h-0.601c-2.226,0-3.57-1.729-3.57-3.878v-52.596c0-2.15,1.345-3.87,3.57-3.87h0.601
	c2.223,0,3.569,1.72,3.569,3.87v24.048V181.82z M251.035,168.507h0.77c2.324,0,3.875,1.566,3.875,3.877
	c0,3.208-3.066,4.03-5.72,4.03c-3.479,0-6.803,2.107-9.202,4.47c-3,2.95-4.3,6.726-4.3,10.878v18.76c0,2.15-1.343,3.877-3.569,3.877
	h-0.613c-2.227,0-3.569-1.726-3.569-3.877v-19.836c0-7.617,3.708-13.834,9.899-18.195c3.701-2.605,7.92-3.98,12.438-3.98
	L251.035,168.507z M195.961,205.684c2.82,0.984,6.035,0.844,8.928,0.34c1.48-0.631,5.264-2.28,6.656-2.039l0.217,0.037l0.2,0.099
	c0.851,0.412,1.66,0.995,2.095,1.86c1.014,2.026,0.527,4.064-1.465,5.215l-0.662,0.384c-7.351,4.241-15.168,3.653-22.496-0.308
	c-3.502-1.895-6.183-4.705-8.16-8.133l-0.461-0.8c-4.721-8.172-4.082-16.769,1.239-24.54c1.837-2.686,4.238-4.76,7.046-6.384
	l1.062-0.613c6.922-3.995,14.34-3.722,21.45-0.215c3.822,1.886,6.92,4.697,9.054,8.394l0.384,0.666
	c1.551,2.687-0.458,5.026-2.529,6.627c-2.406,1.855-4.836,4.1-7.141,6.08l-15.414,13.33H195.961z M189.307,201.009l23.299-20.036
	c-1.56-1.967-4.166-3.384-6.379-4.229c-4.471-1.703-8.877-1.131-12.977,1.234c-5.365,3.099-7.65,8.03-7.45,14.17
	c0.08,2.418,0.729,4.748,2.013,6.806c0.453,0.726,0.957,1.405,1.504,2.055H189.307z M147.488,45.732h22.865v23.375h11.561
	c5.34,0,10.83-0.95,15.887-2.664c2.485-0.843,5.273-2.015,7.725-3.5c-3.229-4.214-4.877-9.535-5.36-14.78
	c-0.66-7.135,0.78-16.42,5.608-22.005l2.403-2.78l2.864,2.303c7.2,5.793,13.275,13.9,14.346,23.118
	c8.682-2.554,18.877-1.95,26.529,2.467l3.141,1.812l-1.652,3.226C246.934,68.946,233.4,72.86,220.17,72.167
	c-19.797,49.3-62.898,72.653-115.157,72.653c-27,0-51.77-10.094-65.876-34.047l-0.23-0.4l-2.055-4.182
	c-4.768-10.544-6.352-22.095-5.278-33.637l0.323-3.457H51.45V45.732h22.865V22.866h45.733V0h27.44V45.732"/>
<path fill="#22A0C8" d="M221.57,54.38c1.533-11.916-7.385-21.275-12.914-25.72c-6.373,7.368-7.363,26.678,2.635,34.808
	c-5.58,4.956-17.337,9.448-29.376,9.448H35.37c-1.17,12.567,1.036,24.14,6.075,34.045l1.667,3.05
	c1.056,1.79,2.209,3.521,3.455,5.185c6.025,0.387,11.58,0.52,16.662,0.408h0.002c9.987-0.221,18.136-1.4,24.312-3.541
	c0.929-0.289,1.916,0.23,2.205,1.159c0.276,0.887-0.185,1.835-1.052,2.167c-0.822,0.286-1.678,0.553-2.562,0.805h-0.003
	c-4.863,1.4-10.078,2.324-16.806,2.738c0.4,0.008-0.416,0.061-0.418,0.061c-0.23,0.015-0.517,0.048-0.747,0.06
	c-2.648,0.15-5.506,0.181-8.428,0.181c-3.196,0-6.343-0.061-9.862-0.24l-0.1,0.06c12.2,13.724,31.302,21.955,55.234,21.955
	c50.648,0,93.607-22.452,112.633-72.857c13.495,1.385,26.467-2.057,32.366-13.575c-9.397-5.423-21.483-3.694-28.442-0.196"/>
<path fill="#37B1D9" d="M221.57,54.38c1.533-11.916-7.385-21.275-12.914-25.72c-6.373,7.368-7.363,26.678,2.635,34.808
	c-5.58,4.956-17.337,9.448-29.376,9.448H44.048c-0.598,19.246,6.544,33.855,19.18,42.688h0.003c9.987-0.221,18.136-1.4,24.312-3.541
	c0.929-0.289,1.916,0.23,2.205,1.159c0.276,0.887-0.185,1.835-1.052,2.167c-0.822,0.286-1.678,0.553-2.562,0.805h-0.003
	c-4.863,1.4-10.526,2.443-17.254,2.858c-0.002,0-0.163-0.155-0.165-0.155c17.237,8.843,42.23,8.801,70.886-2.196
	c32.129-12.344,62.029-35.86,82.899-62.757c-0.309,0.139-0.614,0.285-0.917,0.436"/>
<path fill="#1B81A5" d="M35.645,88.186c0.9,6.732,2.88,13.035,5.8,18.776l1.667,3.05c1.056,1.791,2.209,3.521,3.455,5.184
	c6.026,0.388,11.58,0.521,16.664,0.408c9.987-0.22,18.136-1.399,24.312-3.539c0.929-0.289,1.916,0.229,2.205,1.158
	c0.276,0.887-0.185,1.835-1.052,2.168c-0.822,0.285-1.678,0.551-2.562,0.805h-0.003c-4.863,1.4-10.496,2.383-17.224,2.8
	c-0.23,0.014-0.634,0.017-0.867,0.03c-2.646,0.147-5.475,0.24-8.398,0.24c-3.328,0.006-6.656-0.074-9.98-0.24
	C61.862,132.75,81.082,141,105.014,141c43.36,0,81.083-16.458,102.98-52.822H35.645"/>
<path fill="#1D91B4" d="M45.367,88.186c2.592,11.82,8.82,21.1,17.864,27.417c9.987-0.22,18.136-1.399,24.312-3.539
	c0.929-0.289,1.916,0.229,2.205,1.158c0.276,0.887-0.185,1.835-1.052,2.168c-0.822,0.285-1.678,0.551-2.562,0.805h-0.003
	c-4.863,1.4-10.615,2.383-17.344,2.8c17.236,8.84,42.157,8.713,70.8-2.293c17.334-6.66,34.017-16.574,48.983-28.515L45.367,88.186"
	/>
<path fill="#23A3C2" d="M55.26,49.543h19.818V69.36H55.26V49.543z M56.91,51.195h1.564V67.7H56.9V51.195H56.91z M59.85,51.195h1.627
	V67.7H59.85V51.195z M62.852,51.195h1.627V67.7h-1.627V51.195z M65.856,51.195h1.626V67.7h-1.626V51.195z M68.859,51.195h1.626V67.7
	H68.86L68.859,51.195L68.859,51.195z M71.861,51.195h1.565V67.7H71.86L71.861,51.195L71.861,51.195z M78.125,26.677h19.82v19.817
	h-19.82V26.677z M79.777,28.329h1.563v16.514h-1.563V28.329L79.777,28.329z M82.717,28.329h1.626v16.514H82.72V28.33L82.717,28.329z
	 M85.719,28.329h1.626v16.514H85.72V28.33L85.719,28.329z M88.722,28.329h1.626v16.514h-1.626V28.329L88.722,28.329z M91.725,28.329
	h1.627v16.514h-1.627V28.329L91.725,28.329z M94.727,28.329h1.566v16.514h-1.566V28.329L94.727,28.329z"/>
<path fill="#34BBDE" d="M78.126,49.543h19.82V69.36h-19.82V49.543z M79.778,51.195h1.563V67.7h-1.563V51.195z M82.718,51.195h1.626
	V67.7H82.72V51.195H82.718z M85.72,51.195h1.626V67.7H85.72V51.195z M88.723,51.195h1.626V67.7h-1.626V51.195z M91.726,51.195h1.627
	V67.7h-1.627V51.195z M94.728,51.195h1.566V67.7h-1.566V51.195z"/>
<path fill="#23A3C2" d="M100.993,49.543h19.818V69.36h-19.818V49.543z M102.643,51.195h1.563V67.7h-1.563V51.195z M105.583,51.195
	h1.626V67.7h-1.626V51.195z M108.586,51.195h1.626V67.7h-1.626V51.195z M111.589,51.195h1.626V67.7H111.6V51.195H111.589z
	 M114.591,51.195h1.628V67.7h-1.628V51.195z M117.594,51.195h1.564V67.7h-1.564V51.195z"/>
<path fill="#34BBDE" d="M100.993,26.677h19.818v19.817h-19.818V26.677z M102.643,28.329h1.563v16.514h-1.563V28.329L102.643,28.329z
	 M105.583,28.329h1.626v16.514h-1.626V28.329L105.583,28.329z M108.586,28.329h1.626v16.514h-1.626V28.329L108.586,28.329z
	 M111.589,28.329h1.626v16.514H111.6V28.33L111.589,28.329z M114.591,28.329h1.628v16.514h-1.628V28.329L114.591,28.329z
	 M117.594,28.329h1.564v16.514h-1.564V28.329L117.594,28.329z M123.858,49.543h19.818V69.36H123.86V49.543H123.858z M125.51,51.195
	h1.563V67.7H125.5V51.195H125.51z M128.45,51.195h1.626V67.7h-1.626V51.195z M131.452,51.195h1.626V67.7h-1.626V51.195z
	 M134.455,51.195h1.627V67.7h-1.627V51.195z M137.458,51.195h1.627V67.7h-1.627V51.195z M140.461,51.195h1.564V67.7h-1.564V51.195z"
	/>
<path fill="#23A3C2" d="M123.86,26.677h19.818v19.817H123.86V26.677z M125.512,28.329h1.563v16.514h-1.563V28.329L125.512,28.329z
	 M128.452,28.329h1.626v16.514h-1.626V28.329L128.452,28.329z M131.454,28.329h1.626v16.514h-1.626V28.329L131.454,28.329z
	 M134.457,28.329h1.627v16.514h-1.627V28.329L134.457,28.329z M137.46,28.329h1.627v16.514h-1.627V28.329L137.46,28.329z
	 M140.463,28.329h1.564v16.514h-1.564V28.329L140.463,28.329z"/>
<path fill="#34BBDE" d="M123.86,3.8h19.818v19.82H123.86V3.8z M125.512,5.45h1.563v16.516h-1.563V5.46V5.45z M128.452,5.45h1.626
	v16.516h-1.626V5.46V5.45z M131.454,5.45h1.626v16.516h-1.626V5.46V5.45z M134.457,5.45h1.627v16.516h-1.627V5.46V5.45z
	 M137.46,5.45h1.627v16.516h-1.627V5.46V5.45z M140.463,5.45h1.564v16.516h-1.564V5.46V5.45z"/>
<path fill="#23A3C2" d="M146.725,49.543h19.818V69.36h-19.818V49.543z M148.375,51.195h1.564V67.7h-1.563L148.375,51.195
	L148.375,51.195z M151.314,51.195h1.627V67.7h-1.625V51.195H151.314z M154.318,51.195h1.627V67.7h-1.627V51.195z M157.32,51.195
	h1.628V67.7h-1.628V51.195z M160.325,51.195h1.626V67.7h-1.626V51.195z M163.327,51.195h1.563V67.7h-1.563V51.195z"/>
<path fill="#D3ECEC" d="M96.704,101.492c3.02-0.04,5.5,2.375,5.54,5.395c0.04,3.019-2.375,5.5-5.395,5.541
	c-0.049,0-0.098,0-0.147-0.001c-3.02-0.04-5.435-2.521-5.394-5.541C91.349,103.923,93.741,101.531,96.704,101.492"/>
<path fill="#364548" d="M96.704,103.043c0.484,0,0.965,0.089,1.417,0.265c-0.763,0.443-1.023,1.421-0.58,2.184
	c0.285,0.491,0.81,0.794,1.377,0.796c0.605,0,1.13-0.335,1.402-0.83c0.829,1.997-0.118,4.288-2.115,5.116
	c-1.997,0.83-4.288-0.117-5.117-2.114s0.118-4.288,2.115-5.117C95.68,103.146,96.189,103.044,96.704,103.043 M0,90.162h254.327
	c-5.537-1.404-17.521-3.302-15.544-10.56c-10.07,11.652-34.354,8.175-40.482,2.43c-6.824,9.898-46.554,6.135-49.324-1.576
	c-8.557,10.04-35.067,10.04-43.624,0c-2.773,7.7-42.502,11.474-49.327,1.575c-6.128,5.746-30.4,9.223-40.48-2.428
	C17.522,86.86,5.54,88.758,0,90.162"/>
<path fill="#BDD9D7" d="M111.237,140.9c-13.54-6.426-20.97-15.16-25.106-24.694c-5.03,1.435-11.075,2.353-18.1,2.747
	c-2.646,0.148-5.43,0.224-8.35,0.224c-3.368,0-6.917-0.1-10.643-0.297c12.417,12.399,27.692,21.964,55.976,22.138
	C107.102,141.018,109.174,140.979,111.237,140.9"/>
<path fill="#D3ECEC" d="M91.16,124.994c-1.873-2.543-3.7-5.74-5.026-8.801c-5.03,1.438-11.077,2.355-18.103,2.75
	C72.857,121.564,79.758,123.99,91.16,124.994"/>
</svg>
