<?xml version="1.0" encoding="utf-8"?>
<!-- Generator: Adobe Illustrator 16.0.3, SVG Export Plug-In . SVG Version: 6.00 Build 0)  -->
<!DOCTYPE svg PUBLIC "-//W3C//DTD SVG 1.1//EN" "http://www.w3.org/Graphics/SVG/1.1/DTD/svg11.dtd">
<svg version="1.1" id="Layer_1" xmlns="http://www.w3.org/2000/svg" xmlns:xlink="http://www.w3.org/1999/xlink" x="0px" y="0px"
	 width="112.375px" height="38.007px" viewBox="2.026 11.006 112.375 38.007" enable-background="new 2.026 11.006 112.375 38.007"
	 xml:space="preserve">
<path fill="#F69221" d="M112.873,46.025l-3.618-4.584h-1.13v7.394h1.393V43.85l3.881,4.984h0.865v-7.395h-1.392v4.584
	L112.873,46.025z M99.355,42.57c1.74,0,2.437,1.392,2.416,2.636c-0.022,1.213-0.676,2.522-2.416,2.522
	c-1.742,0-2.395-1.299-2.426-2.5c-0.031-1.244,0.684-2.647,2.426-2.647 M99.355,41.314c-2.553,0-3.797,1.951-3.797,3.893
	s1.203,3.807,3.797,3.807s3.765-1.899,3.785-3.818c0.022-1.93-1.244-3.879-3.785-3.879 M90.499,41.453h-1.38v7.393h1.38V41.453z
	 M80.674,48.846h1.393V42.71h2.34v-1.267H78.33v1.267h2.34L80.674,48.846z M72.8,46.156h-2.743l1.371-3.15L72.8,46.156z
	 M73.98,48.844h1.52l-3.313-7.393H70.66l-3.313,7.393h1.508l0.634-1.4h3.86L73.98,48.844z M58.123,42.76h1.518
	c1.604,0,2.278,1.152,2.3,2.305c0.031,1.205-0.633,2.43-2.3,2.43h-1.518V42.76z M59.641,41.439h-2.9v7.394h2.9
	c2.585,0,3.722-1.886,3.692-3.76C63.301,43.243,62.173,41.439,59.641,41.439 M50.311,46.023l-3.617-4.584h-1.128v7.393h1.392V43.85
	l3.88,4.984h0.865v-7.395H50.31L50.311,46.023L50.311,46.023z M38.86,41.46v4.229c0,1.267-0.654,2.037-1.803,2.037
	s-1.9-0.707-1.9-2.037V41.46h-1.38v4.229c0,2.226,1.508,3.301,3.28,3.301c1.856,0,3.195-1.12,3.195-3.301V41.46H38.86z M25.1,42.568
	c1.74,0,2.436,1.392,2.416,2.636c-0.02,1.213-0.675,2.522-2.416,2.522c-1.741,0-2.394-1.299-2.425-2.5
	c-0.03-1.244,0.686-2.647,2.425-2.647 M25.1,41.313c-2.552,0-3.797,1.951-3.797,3.893s1.202,3.807,3.797,3.807
	c2.595,0,3.765-1.9,3.786-3.818c0.02-1.93-1.244-3.879-3.786-3.879 M12.68,48.844v-2.732h3.702v-1.286H12.68V42.8h3.913v-1.338H11.3
	v7.37L12.68,48.844z"/>
<path fill="#3E3D3B" d="M114.4,33.703h-9.244v-3.716h8.916v-2.894h-8.916v-3.8h9.244v-3h-12.325V36.76H114.4V33.703z M97.727,23
	c-1.246-2.54-3.904-3.27-6.47-3.27c-3.034,0.024-6.374,1.4-6.374,4.8c0,3.693,3.105,4.587,6.471,4.987
	c2.187,0.234,3.799,0.87,3.799,2.422c0,1.789-1.834,2.471-3.785,2.471c-2,0-3.905-0.801-4.635-2.6l-2.588,1.34
	c1.224,3,3.801,4.045,7.174,4.045c3.67,0,6.916-1.576,6.916-5.245c0-3.928-3.199-4.822-6.633-5.246
	c-1.976-0.235-3.67-0.634-3.67-2.07c0-1.224,1.106-2.188,3.4-2.188c1.788,0,3.34,0.894,3.904,1.835L97.727,23z M75.48,20.27
	c-2.588-0.024-5.176,0-7.763,0v16.5h3.105v-4.844h4.657c8.07,0,8.045-11.644,0-11.644 M70.824,23.246h4.658
	c3.951,0,3.975,5.834,0,5.834h-4.658V23.246z M63.327,20.282h-3.082V36.76h3.082V20.282z M44.987,20.282V36.76H56.56V33.9H48.1
	V20.27L44.987,20.282z M39.887,32.561c-1.082,1.082-2.705,1.67-4.14,1.67c-4.07,0-5.645-2.846-5.67-5.574
	c-0.024-2.752,1.694-5.716,5.67-5.716c1.435,0,2.893,0.494,3.976,1.552l2.07-2c-1.693-1.67-3.8-2.517-6.045-2.517
	c-5.95,0-8.75,4.375-8.726,8.68c0.023,4.28,2.6,8.499,8.726,8.499c2.376,0,4.563-0.776,6.257-2.445L39.887,32.561z M23.617,33.713
	h-9.244v-3.716h8.915v-2.894h-8.915v-3.8h9.244v-3H11.3V36.76h12.326v-3.057L23.617,33.713z"/>
<path fill="#F69221" d="M6.152,18.596c3.772-5.882,11.324-7.936,17.622-5.1l-0.423-0.287c-6.45-4.136-15.02-2.277-19.142,4.15
	C0.087,23.786,1.973,32.342,8.422,36.48c0.144,0.093,0.29,0.18,0.437,0.265C3.663,32.2,2.38,24.478,6.152,18.596"/>
</svg>
