<svg xmlns:dc="http://purl.org/dc/elements/1.1/" xmlns:cc="http://creativecommons.org/ns#" xmlns:rdf="http://www.w3.org/1999/02/22-rdf-syntax-ns#" xmlns:svg="http://www.w3.org/2000/svg" xmlns="http://www.w3.org/2000/svg" xmlns:sodipodi="http://sodipodi.sourceforge.net/DTD/sodipodi-0.dtd" xmlns:inkscape="http://www.inkscape.org/namespaces/inkscape" id="Layer_1" data-name="Layer 1" viewBox="0 0 704.56704 249.16756" sodipodi:docname="logo.svg" inkscape:version="1.0.1 (3bc2e813f5, 2020-09-07)" width="704.56702" height="249.16757"><sodipodi:namedview pagecolor="#00aec700aec7" bordercolor="#666666" borderopacity="1" objecttolerance="10" gridtolerance="10" guidetolerance="10" inkscape:pageopacity="0" inkscape:pageshadow="2" inkscape:window-width="2560" inkscape:window-height="1380" id="namedview110" showgrid="false" inkscape:zoom="1.8350955" inkscape:cx="219.80511" inkscape:cy="80.521527" inkscape:window-x="0" inkscape:window-y="32" inkscape:window-maximized="1" inkscape:current-layer="fqqZXT"></sodipodi:namedview><defs id="defs82"><style id="style80">.cls-1{fill:#00b4c8}</style></defs><title id="title84">Falco horizontal logo_teal2</title><g id="fqqZXT" transform="translate(-1.8527785,-35.942587)"><path class="cls-1" d="M176.16169 141.03427Q109.1407 208.57188 41.7291 275.66846a61.01065 61.01065.0 01-6.640358 6.13636c-3.213076 2.38145-6.72856 2.52005-9.639229-.56702-2.910669-3.08708-1.902645-6.30015.516613-8.89581 5.796137-6.22455 11.78128-12.27269 17.804223-18.27043Q109.99752 188.15939 176.24989 122.28502c4.22111-4.20849 22.74355 9.47543 27.19146 13.98633" id="path86" style="fill:#00aec7;stroke-width:1.26003"></path><path class="cls-1" d="m189.2282 162.40437c-.189 2.69647-1.94044 4.47311-3.69189 6.22456L74.880488 279.24695c-3.465083 3.45248-7.56018 6.82936-11.919883 2.11686-3.969095-4.27151-.630015-8.1146 2.595661-11.34028q54.735704-54.73569 109.483994-109.4588c2.78467-2.79727 5.77094-5.32992 10.08024-3.78009a5.8087381 5.8087381.0 014.1077 5.61973z" id="path88" style="fill:#00aec7;stroke-width:1.26003"></path><path class="cls-1" d="m7.6200895 35.947772c3.0492725-.113403 5.1535225 1.65064 7.1065685 3.616286Q67.421111 92.22071 120.07776 144.88996c3.27609 3.28867 6.30015 7.23257 2.12945 11.34027-4.1707 4.10769-8.07679 1.26002-11.34027-2.09165Q58.10949 101.46932 5.503239 48.800078C2.8697767 46.154015.8159274 43.268546 2.4161662 39.312052a5.46853 5.46853.0 015.2039233-3.36428z" id="path90" style="fill:#00aec7;stroke-width:1.26003"></path><path class="cls-1" d="m174.56145 284.17367c-6.30014 1.26003-11.21426-1.68844-15.68737-6.30015-8.00118-8.3288-16.21658-16.38039-24.45718-24.52018-4.85112-4.78812-5.04012-9.33682-.1764-14.21314 14.03674-13.94853 27.98527-27.98527 42.022-41.94639 3.08706-3.07449 6.84195-5.65754 10.77326-1.95305 4.38489 4.14549 1.49943 8.07678-1.75145 11.34026-11.01266 11.13867-21.97492 22.34033-33.26479 33.20179-4.2841 4.1203-4.95192 7.20737-.23941 11.41588 5.31733 4.76291 10.24404 9.96683 15.12037 15.12035 3.20047 3.37688 6.74116 5.35513 11.56707 5.17872 4.82591-.1764 10.43304-.1512 10.28185 6.41356-.15121 6.30015-5.97254 6.04815-10.58425 6.47655a26.460629 26.460629.0 01-3.6037-.2142z" id="path92" style="fill:#00aec7;stroke-width:1.26003"></path><path class="cls-1" d="m105.61262 171.22459c-.94502 4.3975-3.37688 7.05616-8.101994 5.49372a16.38039 16.38039.0 01-5.972542-4.1707Q53.598582 134.74672 15.810285 96.945821a29.157093 29.157093.0 01-3.225677-3.780089c-2.167252-3.049273-2.368857-6.30015.378008-8.958813 2.746866-2.658664 6.098545-2.217653 8.82021.327608 4.59911 4.309302 9.034415 8.820209 13.494921 13.268116Q67.597514 130.1098 99.892082 162.44218c2.469658 2.49486 5.455928 4.7125 5.720538 8.78241z" id="path94" style="fill:#00aec7;stroke-width:1.26003"></path><path class="cls-1" d="m86.76257 189.58322a6.1741467 6.1741467.0 01-3.187876 5.40553 6.7663608 6.7663608.0 01-8.353998-1.19703c-4.2211-3.90609-8.278397-7.98859-12.348293-12.05849q-18.06883-18.01842-36.049457-36.07465a43.181227 43.181227.0 01-5.254325-6.30015 5.7583368 5.7583368.0 01.45361-7.56019 6.3001498 6.3001498.0 017.56018-1.41123 14.679349 14.679349.0 014.662112 3.25088q24.494982 24.35638 48.876561 48.83876c1.953046 1.96565 3.679287 4.0951 3.641486 7.10657z" id="path96" style="fill:#00aec7;stroke-width:1.26003"></path></g><path class="cls-1" d="m432.97476 151.03237a32.218966 32.218966.0 00-13.04132-8.354 58.944201 58.944201.0 00-20.16047-2.98627 105.0235 105.0235.0 00-18.64844 1.58764 94.703851 94.703851.0 00-13.33112 3.18787l2.98627 19.50526a67.373801 67.373801.0 0111.34027-2.78466 91.276569 91.276569.0 0115.38497-1.15923 28.489277 28.489277.0 0110.24403 1.58764 16.38039 16.38039.0 016.57736 4.4857 16.670197 16.670197.0 013.47768 6.66557 30.996737 30.996737.0 01.99543 7.96339v3.98169a77.680846 77.680846.0 00-9.34942-1.68844 72.36352 72.36352.0 00-8.3666-.50401 77.42884 77.42884.0 00-16.38039 1.70104 40.648566 40.648566.0 00-13.86033 5.56933 28.60268 28.60268.0 00-9.46282 10.08024 30.354121 30.354121.0 00-3.47769 15.12036 35.772251 35.772251.0 003.06188 15.66217 27.216646 27.216646.0 008.55559 10.35745 35.986455 35.986455.0 0013.24293 5.77094 75.904204 75.904204.0 0017.1112 1.78924 172.93911 172.93911.0 0025.3518-1.68845c7.48458-1.13403 13.10431-2.09164 16.8214-2.88546v-63.1023a64.059923 64.059923.0 00-2.09165-16.8214 31.412546 31.412546.0 00-6.98056-13.04131zm-14.23834 77.23984a89.966139 89.966139.0 01-16.9222 1.18443q-9.14783.0-14.52814-3.27609-5.38034-3.27608-5.36774-11.84428a12.600299 12.600299.0 011.97825-7.27037 13.44452 13.44452.0 015.27953-4.47311 25.427405 25.427405.0 017.37117-2.19245 54.723101 54.723101.0 018.05159-.59222 53.211064 53.211064.0 018.3666.59222 46.621108 46.621108.0 015.77094 1.26003z" id="path99" style="fill:#00aec7;stroke-width:1.26003"></path><path class="cls-1" d="m493.746 223.58489a11.680477 11.680477.0 01-2.52006-5.04011 32.974984 32.974984.0 01-.69302-7.37118V91.911773l-24.09177 3.98169V215.7223a51.33362 51.33362.0 001.70105 13.86033 22.138726 22.138726.0 005.87173 10.15585 27.355251 27.355251.0 0011.23947 6.30015 65.521558 65.521558.0 0017.81682 2.38145l3.38949-19.90848a37.523692 37.523692.0 01-7.86259-1.68843 11.037863 11.037863.0 01-4.85112-3.23828z" id="path101" style="fill:#00aec7;stroke-width:1.26003"></path><path class="cls-1" d="m582.98132 226.87357a62.043875 62.043875.0 01-12.14669 1.19702q-16.51899.0-23.48695-9.0596-6.96797-9.05962-6.96797-24.58319.0-16.12838 7.37117-24.9864 7.37118-8.85801 21.49612-8.8202a50.90521 50.90521.0 0111.23946 1.19702 54.660099 54.660099.0 019.46283 2.98627l5.16612-19.70686a72.930534 72.930534.0 00-27.85926-5.36773 53.110262 53.110262.0 00-21.49612 4.1707 47.062118 47.062118.0 00-16.22918 11.55448 51.207617 51.207617.0 00-10.25664 17.41361 64.034722 64.034722.0 00-3.57849 21.59691 71.607502 71.607502.0 003.18787 21.79852 46.898314 46.898314.0 009.66444 17.275 43.874242 43.874242.0 0016.38039 11.34028 60.267233 60.267233.0 0023.18455 4.0825 85.745038 85.745038.0 0016.61979-1.60024 50.199593 50.199593.0 0012.04589-3.57849l-3.38948-19.90847a56.701348 56.701348.0 01-10.40785 2.99887z" id="path103" style="fill:#00aec7;stroke-width:1.26003"></path><path class="cls-1" d="m700.88233 171.83547a51.283219 51.283219.0 00-10.25664-17.22462 44.390855 44.390855.0 00-15.82598-11.03786 51.573025 51.573025.0 00-20.16048-3.88089 50.829608 50.829608.0 00-20.16048 3.88089 45.764288 45.764288.0 00-15.82598 11.03786 50.249994 50.249994.0 00-10.34484 17.22462 64.652137 64.652137.0 00-3.69189 22.39072 65.521558 65.521558.0 003.70448 22.50414 50.993412 50.993412.0 0010.24405 17.32541 46.079296 46.079296.0 0015.72517 11.15127 50.577602 50.577602.0 0020.26129 3.95649 51.270619 51.270619.0 0020.39988-3.9691 45.764288 45.764288.0 0015.82597-11.15126 50.023189 50.023189.0 0010.20624-17.31281 67.373801 67.373801.0 003.57849-22.49153 64.954544 64.954544.0 00-3.67928-22.40333zm-27.72067 47.27631q-6.66555 9.17302-18.61063 9.16043-11.94509-.0126-18.61065-9.16043-6.66555-9.14781-6.67816-24.88559.0-15.51096 6.67816-24.58318 6.67816-9.07221 18.61065-9.05962 11.94508.0 18.61063 9.05962 6.66557 9.05961 6.66557 24.58318.0504 15.72518-6.61516 24.88559z" id="path105" style="fill:#00aec7;stroke-width:1.26003"></path><path class="cls-1" d="m349.92618 185.22959h-60.22943v63.7197H264.76076V99.547553h95.62367v20.009267h-70.68768v45.65089h60.22943z" id="path107" style="fill:#00aec7;stroke-width:1.26003"></path></svg>