<?xml version="1.0" encoding="utf-8"?>
<!-- Generator: Adobe Illustrator 27.3.1, SVG Export Plug-In . SVG Version: 6.00 Build 0)  -->
<svg version="1.1" id="Layer_1" xmlns="http://www.w3.org/2000/svg" xmlns:xlink="http://www.w3.org/1999/xlink" x="0px" y="0px"
	 viewBox="0 0 2030.6 448" style="enable-background:new 0 0 2030.6 448;" xml:space="preserve">
<g id="fedora-logo">
	<path fill="#54a3d8" d="M0,223.8C0.1,100.2,100.3,0,224,0s224,100.3,224,224S347.8,447.9,224.1,448H50.9C22.8,448,0.1,425.3,0,397.2h0L0,223.8
		L0,223.8z M342.6,160.7c0-39.7-35.6-68.5-73.2-68.5c-34.9,0-65.8,26.3-70.1,59.9c-0.2,3.8-0.4,5-0.4,8.5c-0.1,21.1,0,42.8-0.8,64.4
		c0.9,26.1,1,52.1,0,76.6c0,27.1-19.4,45.5-44.7,45.5s-45.8-20.2-45.8-45.5c0.5-27.7,22.6-45.3,48.5-46.1h0.2l26.3-0.2V218
		l-26.3,0.2c-47.1-0.4-84.6,36.5-85.9,83.4c0,45.6,37.5,82.9,83,82.9c43,0,78.7-33.6,82.6-75.6l0.2-53.5l32.6-0.3
		c25.3,0.2,25-37.8-0.2-37.3l-32.4,0.3c0-6.4,0.1-12.8,0.1-19.2c0.1-12.7,0.1-25.4-0.1-38.2c0.1-16.5,15.8-31.2,33.2-31.2
		c17.5,0,35.9,8.7,35.9,31.2c0,3.2-0.1,5.1-0.3,6.3c-1.9,10.5,5.2,20.4,15.7,21.9c10.6,1.5,20.2-6.1,21.2-16.6
		C342.5,168.1,342.6,164.4,342.6,160.7L342.6,160.7z"/>
	<path fill="#54a3d8" d="M723.9,32c-65.3,0-107.3,48.7-107.7,94.3v264.1c-0.1,32.6,50.5,32.6,50.4,0V214.1h51.8c12.1,0,22.5-8.6,22.5-22.4
		c0-13.8-11.1-22.2-22.5-22.2h-51.8v-40.6c0-26,20.7-47.7,62.5-47.2c14.5,0.2,19.6,3.6,24.9,6.8c29,18.8,56.8-24.7,26.5-41.4
		C762,36,744.6,32,723.9,32L723.9,32z M1276.4,36.7c-15.7-0.8-27.3,14.4-24.9,29v112.5c-49.9-41-131.1-38.1-177.1,7.3
		c-46.6,40.7-55.4,114.4-21.5,165.2c24.9,38.4,70.4,65.8,117.3,63.6c29.5-0.3,58.7-12.8,81.4-31.2c-2.3,14.6,9.1,30,25,29
		c15.6,0.7,27.7-14.4,25.3-29c-0.3-108.2,0.3-216.4-0.3-324.5c-0.8-12.2-12.6-22.2-25-21.8L1276.4,36.7L1276.4,36.7z M1471.2,146.9
		c-76.1,0-137.7,60-137.7,134c0,74,61.7,134,137.7,134c76.1,0,137.7-60,137.7-134C1608.9,206.8,1547.3,146.9,1471.2,146.9
		L1471.2,146.9z M1921.1,148.1c-34.4,0-59.2,10-77.2,22.7c-27.4,19.2,2.1,59.5,29.5,40.2c12.5-8.8,21.7-13.4,47.8-13.4
		c32.4,0.6,58.4,12.5,58.4,36.3c-17.4,10.8-92.9,19.7-133.4,42.3c-40.5,22.6-38.4,51.1-38.4,69.6c0,40.6,43.7,68,81.5,68
		c37.8,0,53.9-7.8,90.8-32.6v7.1c-1.2,34.1,51.7,34.1,50.5,0V242.5C2030.7,182,1986.5,148.9,1921.1,148.1L1921.1,148.1z
		 M1670.3,148.6c-21.9,0-25.5,17.7-25.4,24.9v215.1c-0.6,13.9,11.1,25.4,25.8,25.4c14.7,0,26.4-11.5,25.8-25.4c0,0,0.4-80,0-131.2
		c-0.4-51.2,42.1-62.3,56.9-62.3c11,0,19.8,6,28.5,5.7c12.9-0.5,23.5-9,23.5-23.9c-0.4-24.1-30.4-27.5-52.6-27
		c-22.2,0.4-40.9,7.1-57.2,16.6C1695.5,166.4,1692.1,148.6,1670.3,148.6L1670.3,148.6z M895.6,149.1c-16.8-1.3-35.3,1.4-55.6,9.1
		c-49.3,18.7-82.8,64.6-82.9,121.3c-0.1,59.4,42.2,135.9,130.1,136.5c59.1,0.4,88.6-21.3,104.6-36c10.6-9.2,11.4-25.2,1.7-35.3
		c-9.7-10.1-26-10.3-36-0.5c-11.9,11-29.4,27.3-79.2,21.8c-21.3-2.3-44.2-19.3-51.9-32.3l162.9-68c12.5-5.4,18.2-19.6,12.9-31.9
		C980.3,191.8,945.8,152.9,895.6,149.1L895.6,149.1z M1471.3,197c47.6,0,86.1,37.5,86.2,83.8c0,46.3-38.6,83.9-86.2,83.9
		c-47.6,0-86.2-37.6-86.2-83.9C1385.2,234.5,1423.7,197,1471.3,197z M1167.3,198.4c45-1.2,85.2,38.6,84.4,82.4
		c0.9,43.8-39.4,83.5-84.4,82.4c-42.8,1.1-82-34.4-84.2-76.1c-4.6-42.9,31.4-84.8,75.4-88.2C1161.4,198.5,1164.4,198.4,1167.3,198.4
		L1167.3,198.4z M883,199.7c24.5,0,47.6,12.4,59.4,32.4l-135.6,56.8c-9.7-35.4,30-77.1,51.7-84.8C866.6,201.1,874.8,199.7,883,199.7
		L883,199.7z M1981.3,282.6c0,16,0.2,20.7-0.2,36.7c-0.1,19.2-12.4,28.2-25.3,35.5c-12.9,7.4-39.2,13.8-54.3,14.5
		c-17.5,0.6-40.7-3.3-42-23.7c0-12.3,6.1-20,16.1-28.5C1899.2,299.8,1931.2,294,1981.3,282.6L1981.3,282.6z"/>
</g>
</svg>
