<?xml version="1.0" encoding="utf-8"?>
<!-- Generator: Adobe Illustrator 16.0.3, SVG Export Plug-In . SVG Version: 6.00 Build 0)  -->
<!DOCTYPE svg PUBLIC "-//W3C//DTD SVG 1.1//EN" "http://www.w3.org/Graphics/SVG/1.1/DTD/svg11.dtd">
<svg version="1.1" id="Layer_1" xmlns="http://www.w3.org/2000/svg" xmlns:xlink="http://www.w3.org/1999/xlink" x="0px" y="0px"
	 width="192.856px" height="53.985px" viewBox="53.571 123.007 192.856 53.985"
	 enable-background="new 53.571 123.007 192.856 53.985" xml:space="preserve">
<g transform="matrix(.768871 0 0 .768871 81.715267 145.023774)">
	<path fill-opacity="0.54" d="M38.392,25.231h-4.7v-36.296h21.345v4.459H38.392V5.31h15.014v4.357H38.392L38.392,25.231
		L38.392,25.231z M63.874-5.842c-1.12,1.116-2.88,1.292-4.202,0.419c-1.322-0.873-1.838-2.552-1.232-4.009
		c0.605-1.457,2.164-2.287,3.721-1.981c1.558,0.306,2.681,1.662,2.682,3.238c0.015,0.877-0.337,1.722-0.974,2.333H63.874z
		 M63.874,25.231h-4.7V0.391h4.7V25.231z M74.187,25.231h-4.7V0.391h4.492v4.056h0.204c0.542-1.43,1.584-2.617,2.936-3.347
		c1.291-0.822,2.784-1.278,4.318-1.318c1.203-0.034,2.401,0.173,3.523,0.61l-1.788,4.357c-0.807-0.266-1.653-0.387-2.502-0.357
		c-1.723,0.01-3.363,0.736-4.52,2.004c-1.311,1.337-1.967,3.085-1.967,5.248L74.187,25.231z M97.838,26.022
		c-3.779,0-6.852-1.25-9.216-3.749c-2.364-2.5-3.548-5.655-3.551-9.462c-0.069-3.427,1.161-6.756,3.448-9.325
		c2.189-2.558,5.429-3.994,8.809-3.906c3.71,0,6.682,1.2,8.912,3.6c2.233,2.4,3.347,5.611,3.343,9.631l-0.051,0.864h-19.77
		c0.136,2.5,0.979,4.481,2.529,5.942c1.45,1.412,3.406,2.195,5.439,2.177c3.37,0,5.65-1.42,6.842-4.257l4.189,1.722
		c-0.85,1.964-2.249,3.645-4.034,4.84c-1.875,1.283-4.171,1.924-6.89,1.924H97.838z M104.582,9.785
		c-0.102-1.42-0.757-2.771-1.966-4.055c-1.212-1.283-3.01-1.912-5.398-1.885c-1.658-0.029-3.267,0.549-4.522,1.624
		c-1.313,1.143-2.233,2.667-2.629,4.357L104.582,9.785z M126.565,26.022c-1.778,0.036-3.537-0.373-5.115-1.188
		c-1.386-0.695-2.559-1.744-3.395-3.042h-0.203v3.438h-4.496v-36.296h4.699V0.391l-0.203,3.446h0.203
		c0.836-1.297,2.009-2.348,3.395-3.042c1.576-0.824,3.334-1.242,5.115-1.216c3.234,0,6.028,1.267,8.378,3.801
		c2.352,2.535,3.526,5.678,3.523,9.429c-0.003,3.752-1.174,6.896-3.523,9.429C132.595,24.775,129.801,26.036,126.565,26.022
		L126.565,26.022z M125.798,21.764c2.141,0.018,4.188-0.879,5.619-2.459c1.566-1.638,2.35-3.81,2.35-6.514
		c0-2.704-0.784-4.875-2.35-6.514c-1.448-1.562-3.486-2.453-5.624-2.458c-2.139-0.004-4.181,0.878-5.634,2.434
		c-1.55,1.621-2.323,3.801-2.323,6.537c0,2.738,0.781,4.926,2.346,6.559c1.44,1.575,3.49,2.462,5.634,2.436L125.798,21.764z
		 M150.431,26.022c-2.66,0-4.88-0.76-6.662-2.281c-1.782-1.519-2.676-3.531-2.681-6.031c0-2.704,1.055-4.824,3.168-6.361
		c2.112-1.537,4.716-2.305,7.811-2.305c2.759,0,5.021,0.507,6.784,1.52V9.856c0.067-1.669-0.627-3.279-1.891-4.383
		c-1.287-1.1-2.943-1.681-4.641-1.628c-1.298-0.017-2.578,0.316-3.701,0.963c-1.054,0.579-1.862,1.515-2.275,2.637l-4.289-1.826
		c0.579-1.492,1.721-2.876,3.429-4.15c1.707-1.276,3.95-1.91,6.742-1.901c3.192,0,5.853,0.924,7.979,2.772
		c2.129,1.848,3.185,4.468,3.168,7.858v15.033h-4.506v-3.446h-0.204c-1.875,2.825-4.617,4.232-8.223,4.232L150.431,26.022z
		 M151.198,21.764c1.975-0.006,3.871-0.772,5.29-2.134c1.513-1.266,2.389-3.13,2.394-5.093c-1.33-1.082-3.325-1.623-5.985-1.623
		c-2.282,0-4.001,0.489-5.159,1.468c-1.08,0.824-1.718,2.093-1.735,3.446c-0.022,1.177,0.584,2.277,1.597,2.891
		c1.063,0.71,2.318,1.081,3.598,1.066V21.764L151.198,21.764z M177.191,26.022c-2.793,0-5.1-0.676-6.918-2.027
		c-1.771-1.298-3.15-3.051-3.989-5.069l4.19-1.724c1.329,3.112,3.589,4.666,6.781,4.666c1.269,0.051,2.521-0.285,3.591-0.963
		c0.881-0.544,1.415-1.504,1.405-2.535c0-1.621-1.141-2.718-3.428-3.295l-5.055-1.216c-1.663-0.437-3.213-1.223-4.545-2.305
		c-1.416-1.097-2.216-2.803-2.147-4.586c0-2.196,0.979-3.979,2.937-5.347c2.047-1.395,4.487-2.113,6.969-2.051
		c2.073-0.033,4.118,0.485,5.921,1.501c1.702,0.96,3.019,2.474,3.727,4.285l-4.082,1.656c-0.917-2.197-2.825-3.295-5.721-3.295
		c-1.232-0.041-2.451,0.258-3.523,0.864c-0.878,0.452-1.428,1.351-1.428,2.333c0,1.42,1.106,2.383,3.32,2.891l4.951,1.169
		c2.347,0.528,4.085,1.452,5.21,2.771c1.09,1.233,1.688,2.82,1.684,4.459c0.02,2.188-1.001,4.256-2.757,5.577
		c-1.838,1.494-4.204,2.241-7.099,2.241H177.191z M202.47,26.022c-3.78,0-6.852-1.25-9.216-3.749
		c-2.365-2.5-3.549-5.661-3.551-9.481c-0.07-3.428,1.161-6.756,3.447-9.327c2.197-2.552,5.44-3.979,8.821-3.885
		c3.723,0,6.695,1.2,8.912,3.6c2.219,2.4,3.333,5.611,3.343,9.631l-0.051,0.864H194.39c0.136,2.5,0.979,4.481,2.53,5.942
		c1.454,1.412,3.414,2.192,5.449,2.169c3.371,0,5.652-1.42,6.843-4.257l4.189,1.722c-0.848,1.965-2.248,3.645-4.034,4.839
		c-1.875,1.289-4.174,1.933-6.898,1.933H202.47z M209.212,9.785c-0.102-1.42-0.757-2.771-1.966-4.055
		c-1.21-1.283-3.008-1.912-5.39-1.885c-1.656-0.029-3.265,0.549-4.52,1.624c-1.315,1.143-2.234,2.667-2.629,4.357L209.212,9.785z"/>
	<path fill="#FFA000" d="M-36.576,28.016l8.643-55.3c0.105-0.678,0.633-1.213,1.31-1.328c0.676-0.116,1.351,0.216,1.674,0.821
		l8.938,16.67l3.562-6.782c0.276-0.525,0.82-0.853,1.413-0.853c0.593,0,1.136,0.328,1.412,0.853l24.12,45.919H-36.576z"/>
	<path fill="#F57C00" d="M-6.72,6.475l-9.297-17.604l-20.56,39.145L-6.72,6.475z"/>
	<path fill="#FFCA28" d="M14.495,28.016l-6.619-40.96c-0.1-0.589-0.52-1.072-1.088-1.254c-0.568-0.182-1.191-0.03-1.613,0.391
		l-41.751,41.823l23.102,12.955c1.45,0.81,3.217,0.81,4.668,0L14.495,28.016L14.495,28.016z"/>
	<g>
		<path fill="#FFFFFF" fill-opacity="0.2" d="M7.876-12.944c-0.1-0.589-0.52-1.072-1.088-1.254c-0.568-0.182-1.191-0.03-1.613,0.391
			l-8.286,8.307l-6.516-12.405c-0.276-0.525-0.82-0.853-1.412-0.853s-1.137,0.328-1.413,0.853l-3.562,6.783l-8.938-16.67
			c-0.325-0.606-0.999-0.936-1.677-0.821c-0.678,0.116-1.203,0.652-1.308,1.331l-8.638,55.296h-0.028l0.028,0.033l0.227,0.112
			L5.163-13.4c0.422-0.424,1.046-0.576,1.616-0.394c0.57,0.182,0.991,0.667,1.09,1.257l6.563,40.594l0.064-0.041L7.876-12.944z
			 M-36.5,27.94l8.566-54.829c0.104-0.679,0.631-1.215,1.308-1.331c0.676-0.116,1.352,0.215,1.677,0.82l8.937,16.67l3.562-6.783
			c0.276-0.524,0.82-0.852,1.413-0.852c0.593,0,1.136,0.328,1.412,0.852l6.384,12.142L-36.5,27.94L-36.5,27.94z"/>
		<path fill="#A52714" fill-opacity="0.2" d="M-8.806,40.58c-1.45,0.81-3.217,0.81-4.668,0L-36.52,27.662l-0.056,0.354
			l23.102,12.953c1.45,0.809,3.217,0.809,4.668,0l23.302-12.953l-0.06-0.366L-8.806,40.58z"/>
	</g>
</g>
</svg>
