<svg width="136" height="48" viewBox="0 0 136 48" fill="none" xmlns="http://www.w3.org/2000/svg">
<path d="M2.70706 19.3483C1.86895 17.4893 2.69656 15.3028 4.55558 14.4647L28.9594 3.46267C30.8184 2.62457 33.0049 3.45218 33.843 5.31119L44.845 29.715C45.6831 31.574 44.8555 33.7605 42.9965 34.5986L18.5927 45.6006C16.7337 46.4387 14.5472 45.6111 13.7091 43.7521L2.70706 19.3483Z" fill="#384257"/>
<path d="M2.70706 19.3482C2.42928 18.732 2.33448 18.0799 2.39956 17.4529L7.44327 16.4177C7.21628 15.6747 7.0605 14.9032 7.0605 14.2363C7.0605 13.9235 7.07812 13.6151 7.11236 13.3119C7.54818 9.45375 10.6778 6.46143 14.4741 6.46143C16.1329 6.46143 17.6643 7.0327 18.8993 7.998C19.1788 8.21651 19.4431 8.4552 19.6904 8.71203C20.6673 9.69462 22.4311 9.69462 27.5612 9.69462C31.1392 9.69462 34.4132 10.9289 37.1084 12.9675C37.2175 13.0499 37.3191 13.1407 37.416 13.2365C37.5736 13.3922 37.7189 13.5615 37.8641 13.7305C37.9208 13.7965 37.9775 13.8625 38.0348 13.9277C39.4959 15.5868 43.1494 17.1805 46.8156 17.5384V22.1537C46.2569 24.6945 45.2023 26.3053 43.9235 27.6709C43.2794 28.3587 42.523 28.9843 41.6332 29.6351C41.0848 29.9832 40.422 30.0941 39.7796 29.9978C37.3825 29.6384 35.4888 29.5383 34.2579 29.5383C23.606 29.5383 15.8259 35.437 15.2472 45.4428C14.5911 45.0697 14.0431 44.4927 13.7091 43.752L2.70706 19.3482Z" fill="#289E6D"/>
<mask id="mask0_1367_6552" style="mask-type:alpha" maskUnits="userSpaceOnUse" x="2" y="3" width="44" height="43">
<path d="M2.70706 19.3483C1.86895 17.4893 2.69656 15.3028 4.55558 14.4647L28.9594 3.46267C30.8184 2.62457 33.0049 3.45218 33.843 5.31119L44.845 29.715C45.6831 31.574 44.8555 33.7605 42.9965 34.5986L18.5927 45.6006C16.7337 46.4387 14.5472 45.6111 13.7091 43.7521L2.70706 19.3483Z" fill="#031E3D"/>
</mask>
<g mask="url(#mask0_1367_6552)">
<path d="M9.14062 33.6159L15.2131 47.0819C15.2127 46.877 15.2125 46.7053 15.2125 46.654C15.2125 36.0635 22.9637 29.7159 33.7993 29.542C24.4923 29.6255 15.9438 31.1351 9.14062 33.6159Z" fill="#66C0EE"/>
<path d="M33.3253 29.5537C24.1097 29.772 15.9015 32.3173 10.3193 36.2279L15.214 47.082C15.2136 46.8771 15.2134 46.7054 15.2134 46.6541C15.2134 36.219 22.7388 29.9031 33.3253 29.5537Z" fill="#1F60E0"/>
<path d="M29.988 29.8767C22.094 31.0461 15.5477 35.1507 12.3203 40.6657L15.2138 47.0821C15.2134 46.8771 15.2132 46.7055 15.2132 46.6541C15.2132 37.3531 21.1919 31.3245 29.988 29.8767Z" fill="#4321B1"/>
</g>
<path d="M7.16745 16.4781C10.6246 15.9476 15.2219 15.5774 20.3848 15.4512C18.8059 14.4263 18.2988 12.6747 17.8064 10.9741C17.2308 8.98588 16.6754 7.06739 14.4509 6.46153C10.1062 6.37501 7.00879 9.87982 7.00879 14.7716C7.00879 15.3352 7.06476 15.9129 7.16745 16.4781Z" fill="#4321B1"/>
<path d="M46.8343 22.154C46.8343 22.154 48.0155 21.9259 47.6292 18.4109C47.5715 17.8861 47.243 17.4728 46.8343 17.411C46.6578 17.3843 46.4851 17.3655 46.3323 17.3655C45.4902 17.3655 45.136 17.4425 44.6585 17.9096L43.3681 19.1669C43.2475 19.2844 43.2525 19.4799 43.379 19.591C44.9763 20.993 46.3788 22.154 46.8343 22.154Z" fill="#4321B1"/>
<path fill-rule="evenodd" clip-rule="evenodd" d="M34.7836 17.6208C35.4993 17.5859 36.0601 17.0714 36.085 16.4512L36.0843 16.4519C36.1131 15.7338 35.424 15.1787 34.611 15.2182C33.9354 15.2511 33.8581 15.2636 31.721 15.7744C31.5913 15.8054 31.5556 15.9541 31.6611 16.0264C34.0312 17.6574 34.068 17.6556 34.7836 17.6208Z" fill="white"/>
<path d="M67.8336 25.6245H62.2112V31.6761C62.2112 31.7803 62.1698 31.8801 62.0962 31.9538C62.0227 32.0274 61.9229 32.0687 61.8188 32.0687H59.3641C59.26 32.0687 59.1602 32.0274 59.0866 31.9538C59.013 31.8801 58.9717 31.7803 58.9717 31.6761V16.3554C58.9742 16.253 59.0166 16.1556 59.0899 16.084C59.1632 16.0124 59.2616 15.9724 59.3641 15.9724H69.5132C69.6172 15.9724 69.717 16.0138 69.7906 16.0874C69.8642 16.161 69.9055 16.2609 69.9055 16.365V18.5721C69.9055 18.6763 69.8642 18.7761 69.7906 18.8498C69.717 18.9234 69.6172 18.9647 69.5132 18.9647H62.2112V22.6417H67.8336C67.9377 22.6417 68.0375 22.6831 68.111 22.7567C68.1846 22.8303 68.226 22.9302 68.226 23.0343V25.2414C68.2235 25.3439 68.181 25.4413 68.1077 25.5129C68.0344 25.5844 67.936 25.6245 67.8336 25.6245Z" fill="white"/>
<path d="M80.6511 15.6934C81.729 15.6775 82.8002 15.8643 83.8092 16.244C84.6578 16.5538 85.4355 17.0308 86.0965 17.6468C86.6772 18.2252 87.1618 18.8927 87.532 19.6241C87.9015 20.3197 88.1752 21.0622 88.3455 21.8312C88.4974 22.541 88.5744 23.2647 88.5751 23.9905C88.5748 24.7274 88.4978 25.4623 88.3455 26.1833C88.1764 26.9558 87.9028 27.7016 87.532 28.4C87.1619 29.1315 86.6773 29.799 86.0965 30.3773C85.4367 30.9914 84.6583 31.464 83.8092 31.7658C82.7985 32.1381 81.728 32.3215 80.6511 32.3068C79.5663 32.3229 78.4877 32.1395 77.469 31.7658C76.6199 31.4641 75.8415 30.9916 75.1818 30.3773C74.5918 29.7992 74.0961 29.1319 73.7128 28.4C73.3342 27.7036 73.0556 26.9574 72.885 26.1833C72.7325 25.4623 72.6556 24.7274 72.6553 23.9905C72.6559 23.2647 72.7329 22.5409 72.885 21.8312C73.0568 21.0606 73.3355 20.3177 73.7128 19.6241C74.0977 18.8919 74.595 18.2247 75.1866 17.6468C75.8474 17.0307 76.6252 16.5537 77.4738 16.244C78.4893 15.8637 79.567 15.677 80.6511 15.6934ZM80.6511 29.3001C81.3475 29.31 82.0368 29.1592 82.6656 28.8596C83.1904 28.6192 83.6535 28.2622 84.0198 27.8159C84.3522 27.3891 84.6184 26.9146 84.8093 26.4083C84.9847 25.9659 85.1161 25.5072 85.2017 25.039C85.2597 24.6893 85.2901 24.3355 85.2926 23.9809C85.2901 23.6264 85.2597 23.2726 85.2017 22.9228C85.1167 22.4592 84.9852 22.0052 84.8093 21.5679C84.6214 21.0715 84.3619 20.6054 84.0389 20.1843C83.6685 19.7366 83.1981 19.3823 82.6656 19.1501C82.0326 18.8672 81.3442 18.7298 80.6511 18.7479C79.9389 18.7343 79.2327 18.8798 78.584 19.1741C78.0569 19.3999 77.5899 19.7458 77.2202 20.1843C76.8977 20.61 76.6368 21.079 76.445 21.5775C76.262 22.0123 76.1303 22.467 76.0527 22.9324C75.9453 23.6337 75.9453 24.3473 76.0527 25.0486C76.1314 25.5153 76.263 25.9715 76.445 26.4083C76.6366 26.9108 76.8993 27.3833 77.225 27.8111C77.5947 28.2599 78.063 28.6171 78.5935 28.8548C79.2381 29.1516 79.9418 29.2973 80.6511 29.2809V29.3001Z" fill="white"/>
<path d="M94.8992 20.242C94.9056 20.4873 94.9801 20.7261 95.1145 20.9314C95.3034 21.1743 95.5479 21.3681 95.8275 21.4964C96.1624 21.6719 96.4464 21.806 96.6792 21.8985C96.9121 21.9911 97.3029 22.1283 97.8516 22.3103L98.9761 22.7029C99.1898 22.7795 99.5455 22.9215 100.043 23.129C100.426 23.2779 100.795 23.4623 101.144 23.6796C101.38 23.8391 101.675 24.061 102.029 24.3451C102.339 24.5803 102.6 24.8728 102.799 25.2068C102.991 25.5435 103.142 25.9019 103.249 26.2745C103.365 26.7129 103.407 27.1676 103.374 27.6199C103.342 28.2656 103.169 28.8965 102.867 29.4681C102.566 30.0397 102.142 30.5381 101.627 30.9282C100.449 31.8335 98.9913 32.2976 97.507 32.24C95.4599 32.241 93.4427 31.7483 91.6262 30.8037C91.5811 30.7808 91.5415 30.7485 91.5101 30.7088C91.4787 30.6691 91.4563 30.6231 91.4444 30.5739C91.4066 30.4786 91.4066 30.3724 91.4444 30.277L92.5019 28.2758C92.5232 28.2286 92.5536 28.1862 92.5914 28.1509C92.6292 28.1155 92.6736 28.088 92.722 28.0699C92.7687 28.0493 92.8193 28.0387 92.8703 28.0387C92.9214 28.0387 92.9719 28.0493 93.0187 28.0699C94.3546 28.7592 95.8237 29.1511 97.3252 29.219C97.9406 29.2421 98.5507 29.0982 99.0909 28.8024C99.301 28.6907 99.483 28.5327 99.6231 28.3403C99.7632 28.1478 99.8577 27.926 99.8996 27.6917C99.9501 27.4416 99.9247 27.1822 99.8266 26.9467C99.7286 26.7112 99.5623 26.5104 99.3493 26.3703C98.7328 25.9552 98.0522 25.6447 97.3348 25.451C96.1993 25.143 95.0929 24.7361 94.0283 24.2349C92.4333 23.3763 91.6358 22.0996 91.6358 20.4048C91.6049 19.7632 91.7178 19.1228 91.9662 18.5305C92.2146 17.9382 92.5922 17.409 93.0713 16.9815C94.1264 16.1074 95.4686 15.6569 96.8371 15.7176C98.7503 15.7629 100.633 16.2081 102.364 17.0246C102.415 17.0422 102.461 17.071 102.498 17.109C102.536 17.1469 102.565 17.193 102.583 17.2437C102.6 17.2944 102.606 17.3485 102.6 17.4018C102.593 17.455 102.575 17.5062 102.546 17.5513L101.694 19.5525C101.676 19.6034 101.648 19.65 101.611 19.6895C101.575 19.729 101.53 19.7605 101.481 19.782C101.431 19.8036 101.378 19.8148 101.324 19.8148C101.27 19.8149 101.217 19.8038 101.168 19.7823C99.8821 19.185 98.496 18.8343 97.0812 18.7482C95.6744 18.7482 94.947 19.2461 94.8992 20.242Z" fill="white"/>
<path d="M109.647 20.242C109.658 20.4888 109.737 20.7277 109.877 20.9315C110.065 21.1744 110.31 21.3682 110.59 21.4964C110.925 21.672 111.208 21.806 111.441 21.8986C111.674 21.9912 112.065 22.1284 112.614 22.3103L113.738 22.7029C113.952 22.7795 114.308 22.9216 114.805 23.129C115.188 23.2778 115.557 23.4621 115.906 23.6796C116.142 23.8392 116.437 24.0611 116.791 24.3451C117.101 24.5803 117.362 24.8728 117.561 25.2069C117.74 25.5454 117.878 25.9038 117.973 26.2746C118.089 26.713 118.131 27.1677 118.097 27.6199C118.066 28.2656 117.893 28.8965 117.591 29.4682C117.29 30.0398 116.866 30.5382 116.351 30.9282C115.175 31.8314 113.721 32.2954 112.24 32.2401C110.193 32.2411 108.176 31.7484 106.36 30.8038C106.314 30.7809 106.275 30.7485 106.243 30.7089C106.212 30.6692 106.19 30.6232 106.178 30.574C106.14 30.4786 106.14 30.3724 106.178 30.2771L107.235 28.2758C107.259 28.2296 107.291 28.1884 107.33 28.1547C107.37 28.121 107.416 28.0955 107.465 28.0796C107.512 28.059 107.562 28.0484 107.613 28.0484C107.664 28.0484 107.715 28.059 107.762 28.0796C109.098 28.7688 110.567 29.1608 112.068 29.2286C112.68 29.2515 113.286 29.1092 113.824 28.8169C114.037 28.7043 114.221 28.5442 114.362 28.3492C114.503 28.1541 114.597 27.9291 114.638 27.6917C114.688 27.4417 114.662 27.1825 114.564 26.9471C114.466 26.7118 114.3 26.511 114.087 26.3703C113.474 25.9564 112.797 25.6459 112.083 25.4511C110.947 25.143 109.841 24.7361 108.776 24.235C107.181 23.3764 106.384 22.0997 106.384 20.4048C106.353 19.7633 106.466 19.1229 106.714 18.5306C106.962 17.9383 107.34 17.4091 107.819 16.9816C108.874 16.1071 110.216 15.6566 111.585 15.7176C113.503 15.7609 115.391 16.2061 117.126 17.0247C117.177 17.0423 117.223 17.0711 117.261 17.1091C117.299 17.147 117.327 17.1931 117.345 17.2438C117.362 17.2945 117.368 17.3486 117.362 17.4018C117.355 17.4551 117.337 17.5062 117.308 17.5513L116.456 19.5526C116.438 19.6035 116.41 19.6501 116.373 19.6896C116.337 19.7291 116.292 19.7606 116.243 19.7821C116.193 19.8037 116.14 19.8148 116.086 19.8149C116.032 19.8149 115.979 19.8039 115.93 19.7824C114.64 19.1834 113.249 18.8326 111.829 18.7483C110.419 18.7483 109.692 19.2462 109.647 20.242Z" fill="white"/>
<path d="M128.276 15.9775L135.348 31.6813C135.367 31.7217 135.377 31.7658 135.377 31.8105C135.377 31.8553 135.367 31.8994 135.348 31.9398C135.33 31.9796 135.3 32.013 135.262 32.036C135.225 32.0589 135.182 32.0704 135.138 32.0691H132.267C132.148 32.0814 132.028 32.0511 131.929 31.9836C131.83 31.9162 131.758 31.8158 131.726 31.7004L130.338 28.3011H125.309L123.936 31.6813C123.899 31.7947 123.825 31.8925 123.726 31.9593C123.628 32.026 123.509 32.0579 123.39 32.0499H120.476C120.432 32.0513 120.389 32.0398 120.352 32.0168C120.314 31.9938 120.284 31.9604 120.266 31.9207C120.243 31.8811 120.229 31.8371 120.225 31.7916C120.221 31.7462 120.227 31.7003 120.242 31.6573L127.271 15.9727C127.33 15.9048 127.404 15.8511 127.487 15.8154C127.57 15.7798 127.66 15.7632 127.75 15.7669C127.848 15.7544 127.948 15.7671 128.04 15.804C128.132 15.8408 128.213 15.9006 128.276 15.9775ZM127.797 22.1106L126.362 25.7206H129.233L127.797 22.1106Z" fill="white"/>
</svg>
