<svg width="132" height="32" viewBox="0 0 132 32" fill="none" xmlns="http://www.w3.org/2000/svg">
<g clip-path="url(#clip0_8215_221)">
<path d="M48.4947 6.59229C53.2091 6.59229 55.8629 9.29763 56.1302 13.0228H53.4506C53.1552 10.451 51.4415 9.00459 48.6283 9.00459H48.3611C44.6102 9.00459 42.0642 11.7099 42.0642 16.2392C42.0642 20.7145 44.6102 23.4737 48.3611 23.4737H48.6283C51.9244 23.4737 53.8538 21.4647 53.8538 18.9984V18.4897H48.4947V16.1055H53.9874C55.462 16.1055 56.2638 16.8815 56.2638 18.3819V25.6165H53.8515V23.4995C53.2349 24.4373 51.3595 25.8837 48.4924 25.8837C43.0535 25.8837 39.3823 21.8374 39.3823 16.2392C39.3823 10.6128 42.9457 6.59463 48.4924 6.59463L48.4947 6.59229ZM58.7816 6.86188H61.3275V14.0965C62.2113 12.7836 63.5781 11.9538 65.6153 11.9538C68.6418 11.9538 70.4376 13.8292 70.4376 16.6424V25.6188H67.8916V17.1792C67.8916 15.2241 67.0078 14.0988 65.1863 14.0988H64.9729C63.0436 14.0988 61.3299 15.625 61.3299 18.117V25.6188H58.7839V6.86188H58.7816ZM78.849 11.9514C82.4663 11.9514 85.2795 14.8185 85.2795 18.9164C85.2795 23.0166 82.4663 25.8814 78.849 25.8814C75.2317 25.8814 72.4185 23.0143 72.4185 18.9164C72.4185 14.8162 75.2317 11.9514 78.849 11.9514ZM78.9568 23.741C81.1535 23.741 82.7335 21.9734 82.7335 18.9187C82.7335 15.8641 81.1535 14.0965 78.9568 14.0965H78.7435C76.5469 14.0965 74.9668 15.8641 74.9668 18.9187C74.9668 21.9734 76.5469 23.741 78.7435 23.741H78.9568ZM89.164 21.4623C89.2976 22.9369 90.5026 23.7387 92.1389 23.7387H92.3523C93.7729 23.7387 94.8443 23.0682 94.8443 21.9968C94.8443 21.113 94.3356 20.5222 93.0228 20.2831L91.0676 19.908C88.7092 19.4532 87.1549 18.2201 87.1549 16.0774C87.1549 13.4776 89.4852 11.9514 92.2187 11.9514C95.6742 11.9514 97.5239 13.7729 97.5239 16.3728H94.9779C94.8443 15.0858 93.8784 14.0965 92.3523 14.0965H92.1389C90.6644 14.0965 89.7009 14.8466 89.7009 15.8102C89.7009 16.694 90.3174 17.2847 91.5763 17.5239L93.6932 17.9529C95.9438 18.4077 97.3902 19.615 97.3902 21.8655C97.3902 24.2779 95.2194 25.8837 92.1132 25.8837C88.6037 25.8837 86.7822 24.0622 86.6204 21.4623H89.1663H89.164ZM114.028 23.3378C113.252 23.3378 112.957 23.0424 112.957 22.2664V14.4153H116.171V12.2187H112.957V7.87932H110.411V12.2187H104.247V7.87932H101.701V12.2187H98.7546V14.4153H101.701V22.6673C101.701 24.517 102.801 25.6141 104.648 25.6141H107.862V23.3378H105.316C104.54 23.3378 104.245 23.0424 104.245 22.2664V14.4153H110.408V22.6673C110.408 24.517 111.508 25.6141 113.355 25.6141H116.569V23.3378H114.023H114.028ZM131.202 12.2187L124.8 28.4273C124.104 30.1152 123.22 30.57 121.532 30.57H118.477V28.2937H121.129C122.067 28.2937 122.416 28.0522 122.737 27.2762L123.541 25.239L117.673 12.2187H120.379L124.772 21.971L128.577 12.2187H131.202Z" fill="white"/>
<path d="M20.3955 32C19.1436 32 17.9152 31.6249 16.879 30.9333C15.8428 31.6249 14.6121 32 13.3625 32C12.113 32 10.8822 31.6249 9.84606 30.9333C8.8169 31.6249 7.62598 31.9906 6.37177 32H6.33426C4.63228 32 3.0358 31.3225 1.83316 30.0941C0.64928 28.8844 -0.00244141 27.2926 -0.00244141 25.6117V13.3626C-9.70841e-05 5.99443 5.99433 0 13.3625 0C20.7307 0 26.7252 5.99443 26.7252 13.3626V25.6164C26.7252 29.0086 24.0995 31.8078 20.7472 31.9906C20.6299 31.9977 20.5127 32 20.3955 32Z" fill="#3551F3"/>
<path d="M20.3955 30.5934C19.2773 30.5934 18.1848 30.209 17.3151 29.5104C17.165 29.3884 17.0033 29.365 16.8954 29.365C16.7243 29.365 16.5508 29.426 16.4078 29.5408C15.5451 30.2207 14.4644 30.5958 13.3625 30.5958C12.2607 30.5958 11.18 30.2207 10.3173 29.5408C10.1789 29.4306 10.0148 29.3744 9.84605 29.3744C9.67726 29.3744 9.51316 29.433 9.37485 29.5408C8.50979 30.223 7.46891 30.5864 6.36474 30.5958H6.33192C5.01675 30.5958 3.7766 30.0706 2.84122 29.1142C1.91756 28.1694 1.40649 26.9269 1.40649 25.6164V13.3673C1.40649 6.77043 6.7703 1.40662 13.3625 1.40662C19.9548 1.40662 25.3186 6.77043 25.3186 13.3627V25.6164C25.3186 28.2608 23.2767 30.4434 20.6698 30.5864C20.5784 30.5911 20.4869 30.5934 20.3955 30.5934Z" fill="black"/>
<path d="M23.9119 13.3627V25.6165C23.9119 27.4919 22.4654 29.079 20.5923 29.1822C19.6827 29.2314 18.8435 28.936 18.1941 28.4132C17.4158 27.7873 16.321 27.8154 15.5356 28.4343C14.9378 28.9055 14.183 29.1869 13.3601 29.1869C12.5372 29.1869 11.7847 28.9055 11.1869 28.4343C10.3922 27.8084 9.29738 27.8084 8.50266 28.4343C7.90954 28.9009 7.16405 29.1822 6.35291 29.1869C4.40478 29.2009 2.81299 27.5599 2.81299 25.6118V13.3627C2.81299 7.53704 7.5368 2.81323 13.3624 2.81323C19.1881 2.81323 23.9119 7.53704 23.9119 13.3627Z" fill="white"/>
<path d="M11.2808 12.4366L7.3494 10.1673C6.83833 9.87192 6.18192 10.0477 5.88654 10.5588C5.59115 11.0699 5.76698 11.7263 6.27804 12.0217L8.60361 13.365L6.27804 14.7083C5.76698 15.0036 5.59115 15.6577 5.88654 16.1711C6.18192 16.6822 6.83599 16.858 7.3494 16.5626L11.2808 14.2933C11.9935 13.8807 11.9935 12.8516 11.2808 12.4389V12.4366Z" fill="black"/>
<path d="M20.1822 12.2913H15.0176C14.4269 12.2913 13.9463 12.7695 13.9463 13.3626C13.9463 13.9557 14.4245 14.434 15.0176 14.434H20.1822C20.773 14.434 21.2535 13.9557 21.2535 13.3626C21.2535 12.7695 20.7753 12.2913 20.1822 12.2913Z" fill="black"/>
</g>
<defs>
<clipPath id="clip0_8215_221">
<rect width="131.202" height="32" fill="white"/>
</clipPath>
</defs>
</svg>
