<?xml version="1.0" encoding="utf-8"?>
<!-- Generator: Adobe Illustrator 16.0.3, SVG Export Plug-In . SVG Version: 6.00 Build 0)  -->
<!DOCTYPE svg PUBLIC "-//W3C//DTD SVG 1.1//EN" "http://www.w3.org/Graphics/SVG/1.1/DTD/svg11.dtd">
<svg version="1.1" id="Layer_1" xmlns="http://www.w3.org/2000/svg" xmlns:xlink="http://www.w3.org/1999/xlink" x="0px" y="0px"
	 width="800px" height="341px" viewBox="0 156.5 800 341" enable-background="new 0 156.5 800 341" xml:space="preserve">
<g>
	<path fill="#2F2707" d="M480.365,273.542c-17.49,0-30.518,8.588-30.518,29.257c0,15.573,8.585,26.385,29.575,26.385
		c17.789,0,29.874-10.484,29.874-27.028C509.297,283.405,498.483,273.542,480.365,273.542L480.365,273.542L480.365,273.542z
		 M445.396,419.485c-4.14,5.078-8.264,10.477-8.264,16.844c0,12.709,16.205,16.534,38.466,16.534
		c18.44,0,43.558-1.294,43.558-18.438c0-10.191-12.084-10.819-27.353-11.776L445.396,419.485L445.396,419.485z M539.499,274.503
		c5.713,7.313,11.763,17.49,11.763,32.113c0,35.288-27.66,55.949-67.708,55.949c-10.185,0-19.404-1.268-25.121-2.856l-10.495,16.848
		l31.152,1.903c55.007,3.507,87.423,5.1,87.423,47.364c0,36.57-32.103,57.224-87.423,57.224c-57.541,0-79.478-14.622-79.478-39.736
		c0-14.309,6.36-21.922,17.487-32.432c-10.495-4.435-13.987-12.38-13.987-20.968c0-6.999,3.492-13.355,9.224-19.401
		c5.721-6.031,12.076-12.081,19.708-19.072c-15.577-7.631-27.343-24.164-27.343-47.693c0-36.555,24.164-61.662,72.796-61.662
		c13.673,0,21.943,1.256,29.257,3.178h61.998v27.014L539.499,274.503L539.499,274.503z"/>
	<path fill="#2F2707" d="M624.683,216.731c-18.126,0-28.613-10.499-28.613-28.628c0-18.104,10.487-27.967,28.613-27.967
		c18.44,0,28.932,9.863,28.932,27.967C653.614,206.232,643.123,216.731,624.683,216.731L624.683,216.731L624.683,216.731z
		 M583.663,407.785v-25.103l16.22-2.217c4.453-0.643,5.085-1.593,5.085-6.371v-93.468c0-3.489-0.95-5.724-4.139-6.67l-17.166-6.046
		l3.496-25.742h65.815v131.927c0,5.096,0.308,5.728,5.089,6.371l16.216,2.217v25.103H583.663L583.663,407.785z"/>
	<path fill="#2F2707" d="M800,395.46c-13.677,6.671-33.702,12.712-51.832,12.712c-37.83,0-52.132-15.243-52.132-51.185v-83.291
		c0-1.903,0-3.178-2.554-3.178h-22.25v-28.296c27.985-3.186,39.105-17.176,42.601-51.828h30.207v45.158c0,2.217,0,3.178,2.546,3.178
		h44.822v31.788H744.04v75.978c0,18.758,4.456,26.064,21.614,26.064c8.913,0,18.122-2.221,25.754-5.081L800,395.46"/>
	<path fill="#DE4C36" d="M328.942,312.03L183.58,166.678c-8.365-8.373-21.943-8.373-30.32,0l-30.185,30.185l38.291,38.291
		c8.899-3.006,19.102-0.99,26.195,6.104c7.127,7.138,9.129,17.428,6.049,26.356l36.902,36.902c8.928-3.076,19.229-1.085,26.36,6.057
		c9.965,9.962,9.965,26.108,0,36.077c-9.969,9.969-26.115,9.969-36.087,0c-7.496-7.503-9.348-18.513-5.553-27.748l-34.415-34.415
		l-0.003,90.564c2.429,1.206,4.723,2.809,6.747,4.826c9.965,9.961,9.965,26.108,0,36.084c-9.969,9.965-26.122,9.965-36.077,0
		c-9.965-9.977-9.965-26.123,0-36.084c2.462-2.458,5.312-4.318,8.351-5.567v-91.408c-3.04-1.242-5.885-3.091-8.351-5.567
		c-7.55-7.54-9.366-18.619-5.498-27.891l-37.743-37.75L8.573,311.358c-8.376,8.38-8.376,21.958,0,30.331l145.362,145.355
		c8.369,8.372,21.943,8.372,30.323,0l144.684-144.68C337.314,333.988,337.314,320.402,328.942,312.03"/>
</g>
</svg>
