<?xml version="1.0" encoding="utf-8"?>
<!-- Generator: Adobe Illustrator 27.3.1, SVG Export Plug-In . SVG Version: 6.00 Build 0)  -->
<svg version="1.1" id="Layer_1" xmlns="http://www.w3.org/2000/svg" xmlns:xlink="http://www.w3.org/1999/xlink" x="0px" y="0px"
	 viewBox="0 0 800 341" style="enable-background:new 0 0 800 341;" xml:space="preserve">
<style type="text/css">
	.st0{fill:#FFFFFF;}
	.st1{fill:#DE4C36;}
</style>
<path class="st0" d="M480.4,117c-17.5,0-30.5,8.6-30.5,29.3c0,15.6,8.6,26.4,29.6,26.4c17.8,0,29.9-10.5,29.9-27
	C509.3,126.9,498.5,117,480.4,117L480.4,117L480.4,117z M445.4,263c-4.1,5.1-8.3,10.5-8.3,16.8c0,12.7,16.2,16.5,38.5,16.5
	c18.4,0,43.6-1.3,43.6-18.4c0-10.2-12.1-10.8-27.4-11.8L445.4,263L445.4,263z M539.5,118c5.7,7.3,11.8,17.5,11.8,32.1
	c0,35.3-27.7,55.9-67.7,55.9c-10.2,0-19.4-1.3-25.1-2.9l-10.5,16.8l31.2,1.9c55,3.5,87.4,5.1,87.4,47.4c0,36.6-32.1,57.2-87.4,57.2
	c-57.5,0-79.5-14.6-79.5-39.7c0-14.3,6.4-21.9,17.5-32.4c-10.5-4.4-14-12.4-14-21c0-7,3.5-13.4,9.2-19.4c5.7-6,12.1-12.1,19.7-19.1
	c-15.6-7.6-27.3-24.2-27.3-47.7c0-36.6,24.2-61.7,72.8-61.7c13.7,0,21.9,1.3,29.3,3.2h62v27L539.5,118L539.5,118z"/>
<path class="st0" d="M624.7,60.2c-18.1,0-28.6-10.5-28.6-28.6c0-18.1,10.5-28,28.6-28c18.4,0,28.9,9.9,28.9,28
	C653.6,49.7,643.1,60.2,624.7,60.2L624.7,60.2L624.7,60.2z M583.7,251.3v-25.1l16.2-2.2c4.5-0.6,5.1-1.6,5.1-6.4v-93.5
	c0-3.5-1-5.7-4.1-6.7l-17.2-6l3.5-25.7H653v131.9c0,5.1,0.3,5.7,5.1,6.4l16.2,2.2v25.1L583.7,251.3L583.7,251.3z"/>
<path class="st0" d="M800,239c-13.7,6.7-33.7,12.7-51.8,12.7c-37.8,0-52.1-15.2-52.1-51.2v-83.3c0-1.9,0-3.2-2.6-3.2h-22.2V85.7
	c28-3.2,39.1-17.2,42.6-51.8H744v45.2c0,2.2,0,3.2,2.5,3.2h44.8V114H744v76c0,18.8,4.5,26.1,21.6,26.1c8.9,0,18.1-2.2,25.8-5.1
	L800,239"/>
<path class="st1" d="M328.9,155.5L183.6,10.2c-8.4-8.4-21.9-8.4-30.3,0l-30.2,30.2l38.3,38.3c8.9-3,19.1-1,26.2,6.1
	c7.1,7.1,9.1,17.4,6,26.4l36.9,36.9c8.9-3.1,19.2-1.1,26.4,6.1c10,10,10,26.1,0,36.1c-10,10-26.1,10-36.1,0
	c-7.5-7.5-9.3-18.5-5.6-27.7L180.8,128l0,90.6c2.4,1.2,4.7,2.8,6.7,4.8c10,10,10,26.1,0,36.1c-10,10-26.1,10-36.1,0
	c-10-10-10-26.1,0-36.1c2.5-2.5,5.3-4.3,8.4-5.6v-91.4c-3-1.2-5.9-3.1-8.4-5.6c-7.6-7.5-9.4-18.6-5.5-27.9l-37.7-37.8L8.6,154.9
	c-8.4,8.4-8.4,22,0,30.3l145.4,145.4c8.4,8.4,21.9,8.4,30.3,0l144.7-144.7C337.3,177.5,337.3,163.9,328.9,155.5"/>
</svg>
