<svg width="150" height="37" viewBox="0 0 150 37" fill="none" xmlns="http://www.w3.org/2000/svg">
<path d="M41.2685 26.1952C42.8935 26.1952 44.3848 25.7723 45.6981 24.971V18.8943H43.1828V23.4796C42.5818 23.7022 42.0031 23.769 41.3576 23.769C39.1094 23.769 37.8629 22.3667 37.8629 18.694C37.8629 15.1326 39.0872 13.7525 41.3576 13.7525C42.3592 13.7525 43.3831 14.0419 44.318 14.5761L45.431 12.3947C44.1622 11.6379 42.8267 11.3263 41.3131 11.3263C37.3955 11.3263 35.0806 13.886 35.0806 18.694C35.0806 23.8358 37.3732 26.1952 41.2685 26.1952Z" fill="white"/>
<path d="M49.928 13.3741C50.9296 13.3741 51.4638 12.7286 51.4638 11.8827C51.4638 11.0592 50.9296 10.3691 49.928 10.3691C48.9486 10.3691 48.3921 11.0592 48.3921 11.8827C48.3921 12.7286 48.9486 13.3741 49.928 13.3741ZM51.2412 14.8654H48.6147V25.9726H51.2412V14.8654Z" fill="white"/>
<path d="M61.3798 14.8654H58.041V12.0831H56.1267L55.5925 14.8654L53.4779 15.1771V17.0691H55.459V22.478C55.459 24.9933 56.8168 26.1952 59.0427 26.1952C60.0443 26.1952 61.0237 25.9281 61.8695 25.4607L61.135 23.3906C60.4895 23.7022 59.933 23.8358 59.3988 23.8358C58.4862 23.8358 58.041 23.4574 58.041 22.3667V17.0691H61.3798V14.8654Z" fill="white"/>
<path d="M69.7226 26.1952C71.3475 26.1952 72.8388 25.7723 74.1521 24.971V18.8943H71.6369V23.4796C71.0359 23.7022 70.4571 23.769 69.8116 23.769C67.5635 23.769 66.317 22.3667 66.317 18.694C66.317 15.1326 67.5412 13.7525 69.8116 13.7525C70.8133 13.7525 71.8372 14.0419 72.7721 14.5761L73.885 12.3947C72.6163 11.6379 71.2807 11.3263 69.7671 11.3263C65.8495 11.3263 63.5346 13.886 63.5346 18.694C63.5346 23.8358 65.8273 26.1952 69.7226 26.1952Z" fill="white"/>
<path d="M76.9797 14.8654V22.4557C76.9797 24.882 78.1817 26.1952 80.2963 26.1952C81.387 26.1952 82.3664 25.8391 83.7019 24.6371V25.9726H86.2394V14.8654H83.6129V22.7451C82.589 23.5242 81.7654 23.7913 81.0976 23.7913C80.0959 23.7913 79.6063 23.3016 79.6063 22.0996V14.8654H76.9797Z" fill="white"/>
<path d="M98.1803 25.9726V18.783C98.1803 15.8448 96.6889 14.6429 93.9956 14.6429C92.6378 14.6429 91.0574 15.0435 89.4548 15.8226L90.2561 17.8927C91.6807 17.2471 92.7268 16.98 93.5949 16.98C95.0418 16.98 95.6205 17.5365 95.6205 18.9611V19.6066H93.1052C90.3451 19.6066 89.0764 21.0757 89.0764 22.9009C89.0764 24.9042 90.501 26.1952 92.4375 26.1952C93.684 26.1952 94.7302 25.7946 95.6873 24.7484V25.9726H98.1803ZM93.1498 24.1252C92.1926 24.1252 91.6139 23.6577 91.6139 22.7451C91.6139 21.9883 92.0813 21.4318 93.2611 21.4318H95.6205V23.079C94.7302 23.8358 93.9956 24.1252 93.1498 24.1252Z" fill="white"/>
<path d="M104.084 25.9726V18.2043C105.242 17.4475 106.377 17.2026 107.846 17.2026V14.6429C106.511 14.6429 105.398 14.999 103.995 16.3345V14.8654H101.458V25.9726H104.084Z" fill="white"/>
<path d="M119.323 25.9726V10.8811H116.697V15.1771C115.94 14.8209 115.183 14.6429 114.36 14.6429C111.689 14.6429 109.574 16.3123 109.574 20.4524C109.574 24.6816 111.422 26.1952 113.759 26.1952C114.872 26.1952 115.851 25.7946 116.808 24.7707V25.9726H119.323ZM114.516 23.8581C112.957 23.8581 112.223 23.0567 112.223 20.4524C112.223 17.7146 113.024 16.8687 114.827 16.8687C115.406 16.8687 116.051 17.0023 116.697 17.2694V23.0345C115.94 23.6577 115.206 23.8581 114.516 23.8581Z" fill="white"/>
<path d="M124.052 13.3741C125.054 13.3741 125.588 12.7286 125.588 11.8827C125.588 11.0592 125.054 10.3691 124.052 10.3691C123.073 10.3691 122.516 11.0592 122.516 11.8827C122.516 12.7286 123.073 13.3741 124.052 13.3741ZM125.365 14.8654H122.739V25.9726H125.365V14.8654Z" fill="white"/>
<path d="M137.329 25.9726V18.783C137.329 15.8448 135.838 14.6429 133.144 14.6429C131.787 14.6429 130.206 15.0435 128.604 15.8226L129.405 17.8927C130.829 17.2471 131.876 16.98 132.744 16.98C134.191 16.98 134.769 17.5365 134.769 18.9611V19.6066H132.254C129.494 19.6066 128.225 21.0757 128.225 22.9009C128.225 24.9042 129.65 26.1952 131.586 26.1952C132.833 26.1952 133.879 25.7946 134.836 24.7484V25.9726H137.329ZM132.299 24.1252C131.341 24.1252 130.763 23.6577 130.763 22.7451C130.763 21.9883 131.23 21.4318 132.41 21.4318H134.769V23.079C133.879 23.8358 133.144 24.1252 132.299 24.1252Z" fill="white"/>
<path d="M143.233 25.9726V18.1152C144.302 17.3139 145.192 17.0468 145.882 17.0468C146.884 17.0468 147.373 17.5588 147.373 18.7608V25.9726H150V18.3824C150 15.9561 148.798 14.6429 146.683 14.6429C145.57 14.6429 144.524 14.999 143.144 16.2232V14.8654H140.607V25.9726H143.233Z" fill="white"/>
<path fill-rule="evenodd" clip-rule="evenodd" d="M21.8314 0.830372C20.6866 -0.167469 18.969 -0.155642 17.8273 0.834367C16.9095 1.63035 15.7337 2.06865 14.516 2.06865C13.2985 2.06865 12.1227 1.63028 11.2053 0.83439C10.0628 -0.156427 8.34485 -0.166702 7.20017 0.831014L7.19442 0.836026L7.18873 0.841114C3.71955 3.94698 3.32456 7.5917 3.42945 9.7319L2.01858 10.7749C0.753378 11.6941 0 13.1709 0 14.7312V16.6115C0 22.65 2.36974 28.6216 6.3144 32.1784C9.31135 34.8804 11.9473 36.3727 14.5155 36.3772H14.5196C17.0854 36.3727 19.7214 34.8803 22.7179 32.1784C26.6629 28.6215 29.0323 22.6499 29.0323 16.6115V14.7312C29.0323 13.1724 28.2804 11.695 27.0196 10.7792L25.6051 9.73359C25.7046 7.52001 25.2316 3.85649 21.8404 0.838255L21.8359 0.83429L21.8314 0.830372Z" fill="white"/>
<path fill-rule="evenodd" clip-rule="evenodd" d="M13.8549 8.37899C13.7013 8.22172 13.4968 8.01247 13.1968 7.73888C11.1685 5.88891 8.48758 5.37737 6.33984 6.82782C6.78531 5.27618 7.67064 3.86564 8.91595 2.78035C9.07791 2.63924 9.3266 2.64264 9.49478 2.7884C10.8915 3.99531 12.6301 4.66034 14.5161 4.66034C16.4021 4.66034 18.1454 3.99531 19.5375 2.7884C19.7053 2.64264 19.9543 2.63924 20.1163 2.78035C21.3616 3.86564 22.2469 5.27618 22.6924 6.82782C20.5447 5.37737 17.8638 5.88891 15.8354 7.73888C15.5354 8.01247 15.331 8.22172 15.1773 8.37899C14.8737 8.68977 14.7684 8.79756 14.5161 8.79756C14.2639 8.79756 14.1586 8.68977 13.8549 8.37899ZM7.7084 16.4031C9.28323 17.8749 11.2858 18.777 13.4516 19.0013C14.359 20.5397 14.8585 22.476 14.8585 24.4798C14.8585 27.5694 13.5713 30.5226 11.32 32.6428C10.3479 32.0666 9.28292 31.2558 8.11346 30.2011C6.17181 28.4505 4.6576 25.9661 3.72595 23.1441L7.7084 16.4031Z" fill="#32466E"/>
<path d="M8.4999 11.1276C8.4999 10.3007 9.02588 9.62795 9.67247 9.62795C10.3191 9.62795 10.8447 10.3007 10.8447 11.1276C10.8447 11.9548 10.3191 12.6273 9.67247 12.6273C9.02588 12.6273 8.4999 11.9548 8.4999 11.1276Z" fill="#081736"/>
<path d="M14.5123 12.1142C15.0685 12.1142 15.4679 12.5137 15.5068 13.1081C15.5127 13.1967 15.5155 13.2873 15.5155 13.3777C15.5155 14.3246 15.324 15.0968 14.8751 15.9595L14.858 15.9927C14.793 16.1208 14.6948 16.3139 14.5123 16.3139C14.3307 16.3139 14.2325 16.1216 14.1672 15.9938L14.1666 15.9927L14.1499 15.9595C13.7007 15.0968 13.5095 14.3246 13.5095 13.3777C13.5095 13.2873 13.5123 13.1967 13.5182 13.1081C13.5567 12.5137 13.9565 12.1142 14.5123 12.1142Z" fill="#081736"/>
<path d="M20.8691 10.8936C20.7146 10.4043 20.2607 10.0271 19.7394 9.95529C19.0114 9.85502 18.2715 10.2898 17.7596 11.1176C17.6057 11.3655 17.6756 11.5756 17.7925 11.6892C17.8724 11.7672 17.979 11.8099 18.0999 11.8127C18.1027 11.813 18.1052 11.813 18.1077 11.813C18.2509 11.813 18.3835 11.7192 18.4811 11.6502L18.482 11.6496L18.5261 11.619C19.054 11.2631 19.4985 11.2374 19.9682 11.5348C20.2281 11.6994 20.4967 11.7155 20.6866 11.5775C20.8831 11.4342 20.9549 11.1656 20.8691 10.8936Z" fill="#081736"/>
<path fill-rule="evenodd" clip-rule="evenodd" d="M24.4121 10.2774L26.3379 11.7009C27.3028 12.4 27.8823 13.5345 27.8823 14.7312V16.6115C27.8823 22.3885 25.6077 28.0285 21.9458 31.3301C18.9969 33.9891 16.6362 35.2291 14.5171 35.2328C12.3955 35.2291 10.0348 33.9891 7.08564 31.3301C3.424 28.0285 1.14911 22.3885 1.14911 16.6115V14.7312C1.14911 13.5345 1.72887 12.4 2.69938 11.6966L4.62299 10.2746C4.43616 8.47659 4.48652 4.79893 7.95698 1.69192C8.66388 1.07578 9.73573 1.07795 10.4498 1.69718C11.5767 2.67478 13.0206 3.21293 14.5155 3.21293C16.0108 3.21293 17.4547 2.67478 18.5819 1.69718C19.2957 1.07825 20.3672 1.07547 21.0738 1.6913C24.4473 4.69371 24.6086 8.39149 24.4121 10.2774ZM14.5171 33.7093C15.6144 33.7078 16.8831 33.2207 18.3522 32.2372C20.8808 30.169 22.7708 25.9981 22.7708 22.4374C22.7708 20.3662 22.2075 18.3683 21.1391 16.6161C19.4915 18.0582 17.4075 18.9018 15.1628 19.037C15.9353 20.6487 16.3546 22.5414 16.3546 24.4799C16.3546 27.797 15.0449 30.9743 12.7377 33.3417C13.3753 33.5852 13.9678 33.7087 14.5171 33.7093ZM8.11272 30.2012C9.2825 31.2556 10.3472 32.0664 11.3196 32.6429C13.5708 30.5228 14.8578 27.5695 14.8578 24.4799C14.8578 22.4758 14.3586 20.5395 13.4512 19.0014C11.2854 18.7771 9.2825 17.875 7.70798 16.4032L3.72553 23.1439C4.65687 25.9662 6.17139 28.4506 8.11272 30.2012ZM15.8278 9.88693C15.3568 10.4571 14.9882 10.9034 14.5155 10.9034C14.043 10.9034 13.6746 10.4573 13.2038 9.88724C13.0096 9.65214 12.7981 9.39596 12.5546 9.14132C11.0547 7.55006 9.13732 7.15178 7.74311 7.70386C6.5522 8.17549 5.98052 9.26418 6.13875 10.6521C6.43345 12.3808 7.23547 13.9525 8.47363 15.1793C10.0559 16.7473 12.1797 17.6107 14.5155 17.6107C16.8517 17.6107 18.9755 16.7473 20.5578 15.1793C21.7956 13.9525 22.5976 12.3808 22.8927 10.6521C23.0506 9.26418 22.4792 8.17549 21.288 7.70386C19.8944 7.15178 17.977 7.55006 16.4768 9.14132C16.2334 9.39585 16.0219 9.65192 15.8278 9.88693ZM19.5369 2.78835C18.1452 3.99526 16.4015 4.66029 14.5155 4.66029C12.6295 4.66029 10.8912 3.99526 9.4945 2.78835C9.32633 2.64259 9.07764 2.63919 8.91568 2.7803C7.67037 3.86559 6.78503 5.27612 6.33957 6.82777C8.48731 5.37732 11.1679 5.88917 13.1966 7.73883C13.4961 8.01212 13.7004 8.22122 13.854 8.37843C14.1581 8.6896 14.2635 8.79751 14.5159 8.79751C14.7681 8.79751 14.8734 8.68972 15.177 8.37894C15.3307 8.22167 15.5352 8.01241 15.8352 7.73883C17.8635 5.88917 20.5441 5.37732 22.6921 6.82777C22.2467 5.27612 21.361 3.86559 20.116 2.7803C19.9541 2.63919 19.7051 2.64259 19.5369 2.78835Z" fill="#081736"/>
</svg>
