<?xml version="1.0" encoding="utf-8"?>
<!-- Generator: Adobe Illustrator 27.3.1, SVG Export Plug-In . SVG Version: 6.00 Build 0)  -->
<svg version="1.1" id="layer" xmlns="http://www.w3.org/2000/svg" xmlns:xlink="http://www.w3.org/1999/xlink" x="0px" y="0px"
	 viewBox="0 0 276.1 68.4" style="enable-background:new 0 0 276.1 68.4;" xml:space="preserve">
<style type="text/css">
	.st0{fill:#FFFFFF;}
</style>
<path class="st0" d="M169.3,52.7L169.3,52.7C169.2,52.7,169.2,52.7,169.3,52.7L169.3,52.7L169.3,52.7z M169.3,52.7
	c-0.4,0-1.3,0.2-2.3,0.2c-3.2,0-4.3-1.5-4.3-3.4V36.7h6.5c0.4,0,0.6-0.3,0.6-0.8V29c0-0.4-0.3-0.7-0.6-0.7h-6.5v-8.6
	c0-0.3-0.2-0.5-0.6-0.5h-8.8c-0.4,0-0.6,0.2-0.6,0.5v8.9c0,0-4.5,1.1-4.7,1.1c-0.3,0.1-0.5,0.4-0.5,0.7v5.6c0,0.5,0.3,0.8,0.7,0.8
	h4.5v13.4c0,10,6.9,11,11.7,11c2.2,0,4.8-0.7,5.2-0.9c0.2-0.1,0.4-0.4,0.4-0.6v-6.1C169.9,53.1,169.6,52.8,169.3,52.7L169.3,52.7z
	 M266.2,43.8c0-7.4-3-8.4-6.1-8.1c-2.4,0.1-4.4,1.4-4.4,1.4v14.4c0,0,2,1.4,5,1.5C264.8,53.1,266.2,51.5,266.2,43.8L266.2,43.8z
	 M276.1,43.1c0,14-4.6,18-12.5,18c-6.7,0-10.3-3.4-10.3-3.4s-0.1,1.9-0.4,2.1c-0.1,0.2-0.3,0.3-0.6,0.3h-6c-0.4,0-0.8-0.3-0.8-0.7
	l0.1-45.4c0-0.4,0.3-0.7,0.7-0.7h8.7c0.4,0,0.7,0.3,0.7,0.7v15.4c0,0,3.4-2.2,8.3-2.2l0-0.1C268.9,27.2,276.1,29.1,276.1,43.1
	L276.1,43.1z M240.5,28.3h-8.6c-0.5,0-0.7,0.3-0.7,0.8v22.2c0,0-2.3,1.6-5.3,1.6c-3,0-4-1.4-4-4.5V29c0-0.4-0.3-0.7-0.7-0.7h-8.7
	c-0.4,0-0.7,0.3-0.7,0.7V50c0,9,5,11.2,11.9,11.2c5.7,0,10.3-3.1,10.3-3.1s0.2,1.6,0.3,1.8c0.1,0.2,0.4,0.4,0.6,0.4h5.5
	c0.5,0,0.7-0.3,0.7-0.7l0.1-30.6C241.2,28.7,240.9,28.3,240.5,28.3L240.5,28.3z M143.6,28.3h-8.7c-0.4,0-0.7,0.4-0.7,0.8v30
	c0,0.8,0.6,1.1,1.2,1.1h7.9c0.8,0,1-0.4,1-1.1V29C144.2,28.6,143.9,28.3,143.6,28.3L143.6,28.3z M139.2,14.4c-3.1,0-5.7,2.5-5.7,5.7
	c0,3.1,2.5,5.7,5.7,5.7c3.1,0,5.6-2.5,5.6-5.7C144.8,17,142.3,14.4,139.2,14.4L139.2,14.4z M206.7,13.4H198c-0.4,0-0.7,0.3-0.7,0.7
	v16.7h-13.5V14.1c0-0.4-0.3-0.7-0.7-0.7h-8.7c-0.4,0-0.7,0.3-0.7,0.7v45.4c0,0.4,0.4,0.7,0.7,0.7h8.7c0.4,0,0.7-0.3,0.7-0.7V40.1
	h13.5l-0.1,19.4c0,0.4,0.3,0.7,0.7,0.7h8.7c0.4,0,0.7-0.3,0.7-0.7V14.1C207.4,13.8,207.1,13.4,206.7,13.4L206.7,13.4z M129.5,33.5
	V57c0,0.1,0,0.5-0.2,0.5c0,0-5.1,3.6-13.5,3.6c-10.2,0-22.3-3.2-22.3-24.2c0-21,10.5-25.4,20.8-25.3c8.9,0,12.5,2,13.1,2.4
	c0.1,0.2,0.2,0.4,0.2,0.6l-1.7,7.3c0,0.4-0.4,0.8-0.8,0.7c-1.5-0.5-3.7-1.3-8.9-1.3c-6,0-12.5,1.7-12.5,15.3
	c0,13.5,6.1,15.1,10.5,15.1c3.8,0,5.1-0.5,5.1-0.5v-9.4h-6c-0.5,0-0.8-0.3-0.8-0.7v-7.5c0-0.4,0.3-0.7,0.8-0.7h15.3
	C129.2,32.9,129.5,33.2,129.5,33.5L129.5,33.5z"/>
<path class="st0" d="M35.1,0C15.7,0,0,15.7,0,35.1c0,15.5,10,28.6,24,33.3c1.7,0.3,2.4-0.7,2.4-1.7c0-0.8,0-3.6,0-6.5
	C17.6,61.8,15.3,58,14.6,56c-0.4-1-2.1-4.1-3.6-5c-1.2-0.6-3-2.3,0-2.3c2.8,0,4.7,2.5,5.4,3.6c3.2,5.3,8.2,3.8,10.2,2.9
	c0.3-2.3,1.2-3.8,2.3-4.7c-7.8-0.9-16-3.9-16-17.3c0-3.8,1.4-7,3.6-9.4c-0.4-0.9-1.6-4.5,0.4-9.3c0,0,2.9-0.9,9.7,3.6
	c2.8-0.8,5.8-1.2,8.7-1.2c3,0,5.9,0.4,8.7,1.2c6.7-4.6,9.6-3.6,9.6-3.6c1.9,4.8,0.7,8.4,0.4,9.3c2.3,2.4,3.6,5.6,3.6,9.4
	c0,13.4-8.2,16.4-16,17.3c1.3,1.1,2.4,3.2,2.4,6.5c0,4.7,0,8.5,0,9.6c0,0.9,0.6,2,2.4,1.7C60.5,63.5,70.1,50.1,70.1,35
	C70.1,15.7,54.4,0,35.1,0L35.1,0z"/>
</svg>
