<?xml version="1.0" encoding="utf-8"?>
<!-- Generator: Adobe Illustrator 16.0.3, SVG Export Plug-In . SVG Version: 6.00 Build 0)  -->
<!DOCTYPE svg PUBLIC "-//W3C//DTD SVG 1.1//EN" "http://www.w3.org/Graphics/SVG/1.1/DTD/svg11.dtd">
<svg version="1.1" id="Layer_1" xmlns="http://www.w3.org/2000/svg" xmlns:xlink="http://www.w3.org/1999/xlink" x="0px" y="0px"
	 width="299.982px" height="112.076px" viewBox="0 93.937 299.982 112.076" enable-background="new 0 93.937 299.982 112.076"
	 xml:space="preserve">
<g>
	<g>
		<g>
			<g>
				<path fill="#00ACD7" d="M22.639,127.873c-0.584,0-0.73-0.292-0.438-0.729l3.067-3.943c0.292-0.438,1.022-0.729,1.607-0.729
					h52.142c0.584,0,0.73,0.438,0.438,0.876l-2.483,3.797c-0.292,0.438-1.022,0.876-1.46,0.876L22.639,127.873z"/>
			</g>
		</g>
	</g>
	<g>
		<g>
			<g>
				<path fill="#00ACD7" d="M0.584,141.31c-0.584,0-0.73-0.292-0.438-0.73l3.067-3.942c0.292-0.438,1.022-0.73,1.606-0.73h66.602
					c0.584,0,0.876,0.438,0.73,0.876l-1.168,3.505c-0.146,0.584-0.73,0.876-1.314,0.876L0.584,141.31z"/>
			</g>
		</g>
	</g>
	<g>
		<g>
			<g>
				<path fill="#00ACD7" d="M35.93,154.747c-0.584,0-0.73-0.438-0.438-0.876l2.045-3.652c0.292-0.438,0.876-0.876,1.46-0.876h29.211
					c0.584,0,0.876,0.438,0.876,1.022l-0.292,3.506c0,0.584-0.584,1.021-1.022,1.021L35.93,154.747z"/>
			</g>
		</g>
	</g>
	<g>
		<g id="CXHf1q_3_">
			<g>
				<g>
					<path fill="#00ACD7" d="M187.537,125.243c-9.202,2.337-15.482,4.09-24.538,6.427c-2.19,0.584-2.337,0.73-4.235-1.46
						c-2.19-2.482-3.798-4.09-6.865-5.55c-9.2-4.528-18.11-3.213-26.436,2.191c-9.932,6.426-15.044,15.92-14.897,27.75
						c0.146,11.685,8.179,21.323,19.717,22.931c9.932,1.314,18.257-2.19,24.828-9.639c1.314-1.607,2.484-3.359,3.945-5.404
						c-5.26,0-11.832,0-28.189,0c-3.067,0-3.797-1.899-2.775-4.383c1.899-4.527,5.404-12.122,7.449-15.919
						c0.438-0.876,1.46-2.337,3.651-2.337c7.449,0,34.908,0,53.166,0c-0.293,3.942-0.293,7.887-0.877,11.831
						c-1.606,10.516-5.551,20.155-11.977,28.627c-10.518,13.875-24.246,22.491-41.626,24.829
						c-14.313,1.898-27.605-0.877-39.29-9.641c-10.808-8.179-16.942-18.986-18.549-32.424c-1.899-15.92,2.775-30.234,12.415-42.795
						c10.37-13.583,24.1-22.2,40.896-25.269c13.729-2.482,26.875-0.876,38.705,7.157c7.74,5.112,13.291,12.123,16.942,20.594
						C189.873,124.075,189.289,124.805,187.537,125.243z"/>
				</g>
				<g>
					<path fill="#00ACD7" d="M235.881,206.013c-13.291-0.292-25.414-4.091-35.637-12.854c-8.618-7.449-14.021-16.943-15.775-28.188
						c-2.629-16.505,1.899-31.11,11.831-44.109c10.662-14.021,23.515-21.324,40.896-24.392c14.898-2.63,28.921-1.169,41.628,7.448
						c11.538,7.888,18.694,18.549,20.594,32.571c2.481,19.717-3.213,35.784-16.797,49.513c-9.64,9.786-21.472,15.92-35.054,18.695
						C243.622,205.427,239.68,205.574,235.881,206.013z M270.643,147.006c-0.146-1.898-0.146-3.358-0.438-4.819
						c-2.629-14.459-15.921-22.64-29.796-19.427c-13.583,3.067-22.347,11.686-25.56,25.414c-2.629,11.393,2.92,22.932,13.437,27.605
						c8.032,3.505,16.065,3.065,23.808-0.877C263.632,168.914,269.912,159.566,270.643,147.006z"/>
				</g>
			</g>
		</g>
	</g>
</g>
</svg>
