<?xml version="1.0" encoding="utf-8"?>
<!-- Generator: Adobe Illustrator 16.0.3, SVG Export Plug-In . SVG Version: 6.00 Build 0)  -->
<!DOCTYPE svg PUBLIC "-//W3C//DTD SVG 1.1//EN" "http://www.w3.org/Graphics/SVG/1.1/DTD/svg11.dtd">
<svg version="1.1"
	 id="svg23" xmlns:dc="http://purl.org/dc/elements/1.1/" xmlns:cc="http://creativecommons.org/ns#" xmlns:rdf="http://www.w3.org/1999/02/22-rdf-syntax-ns#" xmlns:svg="http://www.w3.org/2000/svg" xmlns:sodipodi="http://sodipodi.sourceforge.net/DTD/sodipodi-0.dtd" xmlns:inkscape="http://www.inkscape.org/namespaces/inkscape" sodipodi:docname="godutengine-ar21.svg" inkscape:version="0.92.4 (5da689c313, 2019-01-14)"
	 xmlns="http://www.w3.org/2000/svg" xmlns:xlink="http://www.w3.org/1999/xlink" x="0px" y="0px" width="107.629px"
	 height="36.771px" viewBox="6.185 11.614 107.629 36.771" enable-background="new 6.185 11.614 107.629 36.771"
	 xml:space="preserve">
<sodipodi:namedview  objecttolerance="10" showgrid="false" inkscape:cy="41.735893" inkscape:cx="79.747035" inkscape:zoom="4.0628678" borderopacity="1" bordercolor="#666666" pagecolor="#ffffff" id="namedview25" inkscape:window-width="1920" inkscape:window-maximized="1" inkscape:pageshadow="2" inkscape:window-y="-9" inkscape:pageopacity="0" inkscape:current-layer="svg23" inkscape:window-x="-9" inkscape:window-height="1001" gridtolerance="10" guidetolerance="10">
	</sodipodi:namedview>
<g id="g21" transform="matrix(0.14497623,0,0,-0.14497623,-10.352179,74.864947)">
	<g>
		<g id="g19">
			<path id="path9" inkscape:connector-curvature="0" fill="#414042" d="M478.899,358.425c-13.987,0-24.923-4.402-32.825-13.209
				c-7.905-8.811-11.849-20.245-11.849-34.327c0-16.527,4.038-29.056,12.115-37.597c8.09-8.535,18.713-12.798,31.882-12.798
				c7.083,0,13.364,0.613,18.861,1.839c5.497,1.219,9.148,2.479,10.966,3.752l0.552,42.619c0,2.476-6.541,3.604-13.876,3.728
				c-7.329,0.111-15.722-1.418-15.722-1.418v-14.307h8.437l-0.091-6.386c0-2.358-2.344-3.55-7.016-3.55
				c-4.681,0-8.811,1.98-12.398,5.934c-3.594,3.954-5.379,9.74-5.379,17.359c0,7.635,1.745,13.263,5.241,16.897
				c3.489,3.627,8.063,5.449,13.691,5.449c2.361,0,4.81-0.381,7.349-1.162c2.546-0.768,4.25-1.492,5.119-2.169
				c0.862-0.694,1.677-1.027,2.452-1.027c0.768,0,2.014,0.903,3.739,2.725c1.724,1.815,3.274,4.567,4.641,8.235
				c1.354,3.688,2.034,6.514,2.034,8.521c0,1.987-0.04,3.358-0.135,4.082c-1.906,2.088-5.429,3.745-10.562,4.975
				C491.007,357.816,485.258,358.425,478.899,358.425L478.899,358.425z M562.463,358.425c-12.846,0-23.334-4.133-31.464-12.388
				c-8.124-8.268-12.186-20.41-12.186-36.445c0-16.025,4.015-28.217,12.044-36.57c8.043-8.353,18.443-12.522,31.201-12.522
				c12.758,0,23.172,4.008,31.255,12.037c8.09,8.043,12.125,20.302,12.125,36.789c0,16.47-3.947,28.783-11.855,36.907
				c-7.895,8.137-18.268,12.196-31.12,12.196V358.425z M743.116,358.425c-12.852,0-23.34-4.133-31.471-12.388
				c-8.124-8.268-12.185-20.41-12.185-36.445c0-16.025,4.015-28.217,12.057-36.57c8.029-8.353,18.43-12.522,31.188-12.522
				c12.758,0,23.179,4.008,31.255,12.037c8.09,8.043,12.125,20.302,12.125,36.789c0,16.47-3.947,28.783-11.842,36.907
				c-7.908,8.137-18.275,12.196-31.127,12.196V358.425z M623.599,357.21c-1.825,0-3.301-0.667-4.432-1.974
				c-1.138-1.33-1.704-3.122-1.704-5.396v-81.721c0-4.176,2.324-6.265,6.952-6.265H647.7c28.514,0,42.774,16.705,42.774,50.126
				c0,15.624-3.745,27.059-11.249,34.32c-7.477,7.265-18.443,10.909-32.885,10.909H623.599z M793.535,357.21
				c-1.542,0-2.634-2.102-3.267-6.278c-0.276-1.994-0.397-4.045-0.397-6.123c0-2.091,0.121-4.132,0.397-6.126
				c0.633-4.186,1.724-6.271,3.267-6.271h16.342v-68.388c0-1.805,4.506-2.715,13.492-2.715c8.993,0,13.486,0.909,13.486,2.715
				v68.388h15.937c1.543,0,2.627,2.085,3.267,6.271c0.269,1.994,0.404,4.035,0.404,6.126c0,2.078-0.135,4.129-0.404,6.123
				c-0.64,4.176-1.724,6.278-3.267,6.278H793.535z M562.112,332.273c4.365,0,8.016-1.95,10.966-5.85
				c2.95-3.903,4.432-9.494,4.432-16.756c0-7.268-1.435-12.852-4.298-16.752c-2.856-3.914-6.581-5.867-11.168-5.867
				c-4.58,0-8.285,1.927-11.101,5.793c-2.816,3.86-4.224,9.397-4.224,16.625c0,7.214,1.482,12.822,4.426,16.817
				C554.11,330.272,557.761,332.273,562.112,332.273L562.112,332.273z M742.766,332.273c4.358,0,8.009-1.95,10.959-5.85
				c2.957-3.903,4.432-9.494,4.432-16.756c0-7.268-1.428-12.852-4.298-16.752c-2.856-3.914-6.581-5.867-11.168-5.867
				c-4.58,0-8.285,1.927-11.094,5.793c-2.809,3.86-4.224,9.397-4.224,16.625c0,7.214,1.469,12.822,4.419,16.817
				C734.743,330.272,738.408,332.273,742.766,332.273L742.766,332.273z M643.605,331.33h1.367c5.813,0,10.057-1.33,12.738-3.961
				c2.667-2.627,4.015-8.282,4.015-16.961c0-8.676-1.287-14.86-3.88-18.585c-2.587-3.725-6.372-5.584-11.377-5.584
				c-1.354,0-2.176,0.242-2.445,0.748c-0.27,0.505-0.418,1.704-0.418,3.604V331.33z"/>
			<path id="path11" inkscape:connector-curvature="0" fill="#FFFFFF" d="M366.579,263.458c0,0-0.391,2.411-0.62,2.385l-43.653-4.21
				c-3.476-0.33-6.174-3.105-6.416-6.581l-1.199-17.19l-33.771-2.411l-2.297,15.574c-0.512,3.469-3.536,6.083-7.039,6.083H225.51
				c-3.499,0-6.524-2.614-7.036-6.083l-2.3-15.574l-33.771,2.411l-1.199,17.19c-0.242,3.476-2.94,6.251-6.413,6.588l-43.676,4.203
				c-0.226,0.027-0.391-2.385-0.616-2.385l-0.057-9.444l36.988-5.968l1.213-17.339c0.242-3.516,3.075-6.352,6.588-6.601
				l46.512-3.321c0.175-0.007,0.35-0.02,0.522-0.02c3.496,0,6.517,2.614,7.029,6.076l2.364,16.032h33.785l2.364-16.032
				c0.509-3.462,3.533-6.076,7.036-6.076c0.172,0,0.34,0.013,0.509,0.02l46.516,3.321c3.513,0.249,6.349,3.085,6.591,6.601
				l1.213,17.339l36.971,5.995L366.579,263.458z"/>
			<path id="path13" inkscape:connector-curvature="0" fill="#478CBF" d="M221.195,436.284c-12.286-2.731-24.442-6.534-35.836-12.27
				c0.259-10.06,0.909-19.703,2.23-29.494c-4.426-2.836-9.077-5.271-13.209-8.588c-4.2-3.233-8.491-6.325-12.293-10.104
				c-7.598,5.025-15.638,9.75-23.92,13.917c-8.929-9.609-17.278-19.979-24.098-31.585c5.129-8.302,10.488-16.082,16.271-23.465
				h0.162v-71.23c0.131-0.007,0.263-0.007,0.391-0.02l43.67-4.21c2.287-0.222,4.079-2.061,4.237-4.358l1.347-19.272l38.092-2.715
				l2.624,17.783c0.34,2.31,2.321,4.021,4.655,4.021h46.071c2.331,0,4.311-1.711,4.651-4.021l2.624-17.783l38.092,2.715
				l1.347,19.272c0.158,2.297,1.95,4.136,4.237,4.358l43.653,4.21c0.128,0.013,0.259,0.013,0.387,0.02v5.678l0.02,0.013v65.538
				h0.162c5.783,7.383,11.138,15.166,16.271,23.465c-6.817,11.606-15.17,21.98-24.098,31.585
				c-8.282-4.166-16.325-8.888-23.923-13.913c-3.802,3.776-8.083,6.871-12.29,10.101c-4.133,3.318-8.787,5.753-13.206,8.588
				c1.317,9.791,1.967,19.433,2.23,29.494c-11.397,5.736-23.549,9.538-35.842,12.27c-4.907-8.248-9.397-17.18-13.307-25.914
				c-4.634,0.775-9.289,1.061-13.954,1.118v0.007c-0.03,0-0.064-0.007-0.091-0.007s-0.061,0.007-0.088,0.007v-0.007
				c-4.671-0.057-9.326-0.344-13.96-1.118C230.595,419.104,226.109,428.036,221.195,436.284L221.195,436.284z M130.427,254.041
				c0.017-4.217,0.071-8.838,0.071-9.76c0-41.474,52.608-61.406,117.968-61.635h0.162c65.36,0.229,117.951,20.161,117.951,61.635
				c0,0.936,0.057,5.544,0.077,9.76l-39.251-3.786l-1.354-19.38c-0.162-2.337-2.021-4.197-4.355-4.358l-46.516-3.321
				c-0.115-0.007-0.229-0.013-0.34-0.013c-2.31,0-4.304,1.697-4.648,4.021l-2.667,18.086h-37.954l-2.667-18.086
				c-0.357-2.438-2.533-4.19-4.985-4.008l-46.516,3.321c-2.337,0.162-4.193,2.021-4.358,4.358l-1.351,19.38L130.427,254.041
				L130.427,254.041z"/>
			<path id="path15" inkscape:connector-curvature="0" fill="#FFFFFF" d="M186.646,332.084c-14.53,0-26.314-11.775-26.314-26.304
				c0-14.543,11.785-26.318,26.314-26.318c14.533,0,26.314,11.775,26.314,26.318C212.961,320.31,201.179,332.084,186.646,332.084z
				 M310.454,332.084c-14.54,0-26.321-11.775-26.321-26.304c0-14.543,11.781-26.318,26.321-26.318
				c14.526,0,26.308,11.775,26.308,26.318C336.762,320.31,324.981,332.084,310.454,332.084z M248.544,316.689
				c-4.678,0-8.471-3.449-8.471-7.696V284.77c0-4.257,3.792-7.706,8.471-7.706c4.678,0,8.481,3.449,8.481,7.706v24.223
				C257.024,313.24,253.222,316.689,248.544,316.689z"/>
			<path id="path17" inkscape:connector-curvature="0" fill="#414042" d="M189.162,321.684c-9.646,0-17.467-7.827-17.467-17.473
				c0-9.646,7.821-17.46,17.467-17.46c9.653,0,17.47,7.814,17.47,17.46C206.632,313.857,198.815,321.684,189.162,321.684z
				 M307.932,321.684c-9.646,0-17.46-7.827-17.46-17.473c0-9.646,7.814-17.46,17.46-17.46c9.653,0,17.466,7.814,17.466,17.46
				C325.398,313.857,317.584,321.684,307.932,321.684z"/>
		</g>
	</g>
</g>
</svg>
