<?xml version="1.0" encoding="utf-8"?>
<!-- Generator: Adobe Illustrator 27.3.1, SVG Export Plug-In . SVG Version: 6.00 Build 0)  -->
<svg version="1.1" id="Layer_1" xmlns="http://www.w3.org/2000/svg" xmlns:xlink="http://www.w3.org/1999/xlink" x="0px" y="0px"
	 viewBox="0 0 233.5 25.8" style="enable-background:new 0 0 233.5 25.8;" xml:space="preserve">
<style type="text/css">
	.st0{fill:#767576;}
	.st1{fill:#F8BB16;}
	.st2{fill:#EA4334;}
	.st3{fill:#0074BC;}
	.st4{fill:#E2E3E4;}
</style>
<g>
	<g id="g198" transform="translate(572.6328,173.8242)">
		<path id="path200" class="st0" d="M-466.1-160.5c0-4.3,3.3-7.6,7.6-7.6c2.2,0,4,0.9,5.3,2.4l-1.3,1.3c-1-1.3-2.4-1.8-4-1.8
			c-3.1,0-5.6,2.2-5.6,5.8s2.6,5.8,5.6,5.8c1.8,0,3.4-0.9,4.5-2.1l1.3,1.3c-1.3,1.5-3.3,2.6-5.8,2.6
			C-462.8-152.9-466.1-156.2-466.1-160.5"/>
	</g>
	<path id="path202" class="st0" d="M121.3,6.1h1.9v14.5h-1.9V6.1z"/>
	<g id="g204" transform="translate(739.1602,159.3633)">
		<path id="path206" class="st0" d="M-606.2-143.7c0-2.3-1.6-3.6-3.2-3.6c-1.7,0-3.2,1.3-3.2,3.6s1.6,3.6,3.2,3.6
			C-607.8-140.1-606.2-141.5-606.2-143.7 M-604.4-143.7c0,3-2.1,5.3-5.1,5.3s-5.1-2.3-5.1-5.3s2.1-5.3,5.1-5.3
			C-606.5-149-604.4-146.8-604.4-143.7"/>
	</g>
	<g id="g208" transform="translate(804.1836,128)">
		<path id="path210" class="st0" d="M-660.9-107.4v-1.4h-0.1c-0.5,0.9-1.8,1.7-3.1,1.7c-2.6,0-3.8-1.7-3.8-4.2v-6.1h1.9v5.8
			c0,2.1,1,2.8,2.5,2.8c1.6,0,2.6-1.6,2.6-3.1v-5.5h1.9v9.9L-660.9-107.4L-660.9-107.4z"/>
	</g>
	<g id="g212" transform="translate(876.6328,159.3633)">
		<path id="path214" class="st0" d="M-721.9-143.7c0-2.3-1.5-3.6-3.2-3.6s-3.2,1.4-3.2,3.6c0,2.2,1.5,3.6,3.2,3.6
			C-723.4-140.1-721.9-141.5-721.9-143.7 M-730.1-143.7c0-3,2.2-5.3,4.7-5.3c1.6,0,2.8,0.8,3.4,1.7h0.1l-0.1-1.4v-4.6h1.9v14.5h-1.8
			v-1.4h-0.1c-0.6,0.9-1.8,1.7-3.4,1.7C-727.9-138.4-730.1-140.7-730.1-143.7"/>
	</g>
	<g id="g216" transform="translate(951.5078,176.3867)">
		<path id="path218" class="st0" d="M-784.9-163.5c1.7,0,2.6-1.4,2.6-2.5c0-1.2-0.9-2.5-2.6-2.5h-3.1v5.1h3.1V-163.5z M-789.9-155.8
			v-14.5h5c2.4,0,4.5,1.8,4.5,4.3s-2.1,4.3-4.5,4.3h-3.1v5.9H-789.9z"/>
	</g>
	<path id="path220" class="st0" d="M172.4,6.1h1.9v14.5h-1.9V6.1z"/>
	<g id="g222" transform="translate(1054.6758,155.0078)">
		<path id="path224" class="st0" d="M-871.7-138.7c0,0-0.8-0.6-2.4-0.6c-2,0-2.7,1.1-2.7,2c0,1.1,1.1,1.6,2.1,1.6
			C-873.3-135.8-871.7-137.1-871.7-138.7 M-878.8-137.4c0-2.3,2-3.5,4.4-3.5c1.3,0,2.3,0.4,2.7,0.6v-0.3c0-1.5-1.2-2.4-2.6-2.4
			c-1,0-2,0.5-2.4,1.4l-1.7-0.7c0.3-0.9,1.5-2.4,4-2.4c2.4,0,4.4,1.5,4.4,4.3v6h-1.8v-1.4h-0.1c-0.5,0.8-1.6,1.7-3.3,1.7
			C-877.1-134.1-878.8-135.3-878.8-137.4"/>
	</g>
	<g id="g226" transform="translate(1082.9609,147.0742)">
		<path id="path228" class="st0" d="M-895.5-129.5v-5.2h-1.7v-1.7h1.7v-3h1.9v3h2.4v1.7h-2.4v5.1c0,1.1,0.5,1.6,1.3,1.6
			c0.3,0,0.6,0,0.9-0.2l0.6,1.6c-0.4,0.2-0.9,0.3-1.5,0.3C-894.4-126.3-895.5-127.5-895.5-129.5"/>
	</g>
	<g id="g230" transform="translate(1159.5039,218.5)">
		<path id="path232" class="st0" d="M-959.9-212.3l-0.6,1.6c-0.2-0.1-0.5-0.2-0.9-0.2c-0.9,0-1.7,0.5-1.7,1.7v1.3h2.6v1.7h-2.6v8.2
			h-1.9v-8.2h-1.9v-1.7h1.9v-1.3c0-2,1.4-3.3,3.5-3.3C-960.8-212.5-960.3-212.4-959.9-212.3"/>
	</g>
	<g id="g234" transform="translate(1211.8555,159.3633)">
		<path id="path236" class="st0" d="M-1004-143.7c0-2.3-1.6-3.6-3.2-3.6c-1.7,0-3.2,1.3-3.2,3.6s1.6,3.6,3.2,3.6
			C-1005.6-140.1-1004-141.5-1004-143.7 M-1002.1-143.7c0,3-2.1,5.3-5.1,5.3s-5.1-2.3-5.1-5.3s2.1-5.3,5.1-5.3
			S-1002.1-146.8-1002.1-143.7"/>
	</g>
	<g id="g238" transform="translate(1233.1016,128)">
		<path id="path240" class="st0" d="M-1021.8-107.4v-9.9h1.8v1.6h0.1c0.4-1.1,1.8-1.9,2.9-1.9c0.6,0,1,0.1,1.4,0.2l-0.7,1.7
			c-0.3-0.1-0.6-0.1-1-0.1c-1.3,0-2.6,1.1-2.6,2.9v5.4h-1.9V-107.4z"/>
	</g>
	<g id="g242" transform="translate(1278.2852,190.7227)">
		<path id="path244" class="st0" d="M-1059.9-180.1h1.8v1.4h0.1c0.6-1,1.9-1.7,3.1-1.7c1.6,0,2.6,0.7,3.1,1.9
			c0.7-1.1,1.9-1.9,3.5-1.9c2.4,0,3.6,1.7,3.6,4.2v6.1h-1.9v-5.8c0-2.1-0.8-2.8-2.2-2.8c-1.5,0-2.5,1.5-2.5,3.1v5.5h-1.9v-5.8
			c0-2.1-0.8-2.8-2.2-2.8c-1.5,0-2.5,1.5-2.5,3.1v5.5h-1.9L-1059.9-180.1L-1059.9-180.1z"/>
	</g>
	<g id="g256" transform="translate(0.7227,52.5654)">
		<path id="path258" class="st0" d="M35.4-40c0-4.6,3.9-8.3,8.4-8.3c2.5,0,4.3,1,5.7,2.3l-1.6,1.6c-1-0.9-2.3-1.6-4.1-1.6
			c-3.3,0-6,2.7-6,6s2.6,6,6,6c2.2,0,3.4-0.9,4.2-1.7c0.6-0.6,1.1-1.6,1.2-2.9h-5.3v-2.3h7.7c0.1,0.4,0.1,0.9,0.1,1.4
			c0,1.7-0.5,3.8-2,5.3s-3.3,2.3-5.8,2.3C39.3-31.6,35.4-35.4,35.4-40"/>
	</g>
	<g id="g260" transform="translate(142.0005,91.7354)">
		<path id="path262" class="st0" d="M-83.5-72.9c-1.6,0-3-1.3-3-3.2c0-1.9,1.4-3.2,3-3.2s3,1.3,3,3.2
			C-80.4-74.3-81.8-72.9-83.5-72.9 M-83.5-81.5c-3,0-5.4,2.3-5.4,5.4s2.4,5.4,5.4,5.4s5.4-2.3,5.4-5.4
			C-78.1-79.3-80.5-81.5-83.5-81.5"/>
	</g>
	<g id="g264" transform="translate(216,91.7354)">
		<path id="path266" class="st0" d="M-145.7-72.9c-1.6,0-3-1.3-3-3.2c0-1.9,1.4-3.2,3-3.2s3,1.3,3,3.2
			C-142.7-74.3-144.1-72.9-145.7-72.9 M-145.7-81.5c-3,0-5.4,2.3-5.4,5.4s2.4,5.4,5.4,5.4s5.4-2.3,5.4-5.4
			C-140.3-79.3-142.8-81.5-145.7-81.5"/>
	</g>
	<g id="g268" transform="translate(289.8057,91.7354)">
		<path id="path270" class="st0" d="M-207.8-72.9c-1.6,0-3-1.4-3-3.2c0-1.9,1.4-3.3,3-3.3s2.9,1.4,2.9,3.3
			C-205-74.3-206.2-72.9-207.8-72.9 M-205.1-81.2v0.9h-0.1c-0.5-0.6-1.5-1.2-2.8-1.2c-2.7,0-5.1,2.4-5.1,5.4s2.5,5.3,5.1,5.3
			c1.3,0,2.3-0.6,2.8-1.2h0.1v0.8c0,2-1.1,3.1-2.9,3.1c-1.4,0-2.3-1-2.7-1.9l-2.1,0.9c0.6,1.4,2.2,3.2,4.7,3.2
			c2.8,0,5.1-1.6,5.1-5.6v-9.6h-2.1V-81.2z"/>
	</g>
	<path id="path272" class="st0" d="M90.9,20.6h-2.4V4.8h2.4V20.6z"/>
	<g id="g274" transform="translate(385.5537,50.5176)">
		<path id="path276" class="st0" d="M-288.4-38.2c0.9,0,1.7,0.5,2,1.1l-4.8,2C-291.3-37.2-289.6-38.2-288.4-38.2 M-288.2-31.7
			c-1.2,0-2-0.5-2.6-1.6l7.2-3l-0.2-0.6c-0.4-1.2-1.8-3.4-4.6-3.4c-2.8,0-5.1,2.2-5.1,5.4c0,3,2.3,5.4,5.3,5.4
			c2.5,0,3.9-1.5,4.5-2.4l-1.8-1.2C-286.2-32.3-287-31.7-288.2-31.7"/>
	</g>
</g>
<g id="Layer_1_1_">
	<path id="path22_00000162335505451501897160000010771878192206159007_" class="st1" d="M18.8,20.5H10l-4.4-7.7L2.6,7.7l-2.4,4.1
		c-0.3,0.6-0.3,1.3,0,1.9l6.2,10.9c0.3,0.6,1,1,1.7,1h7.7L18.8,20.5L18.8,20.5z"/>
	<path id="path26_00000069371715769138876720000013695172736784487060_" class="st2" d="M28.5,13.8c0.3-0.6,0.3-1.3,0-1.9l-3.9-6.7
		h-5.9l4.4,7.7l-4.4,7.7l-2.9,5.1h4.8c0.7,0,1.3-0.4,1.7-1L28.5,13.8"/>
	<path id="path30_00000075864573054832761220000017426800658122232716_" class="st3" d="M24.7,5.1L22.3,1c-0.3-0.6-1-1-1.7-1H8.1
		C7.5,0,6.8,0.4,6.5,1L2.6,7.7l2.9,5.1L10,5.1L24.7,5.1L24.7,5.1z"/>
	<path class="st4" d="M23.2,12.8l-4.4,7.7H10l-4.4-7.7L10,5.1h8.8L23.2,12.8z M18.2,12.8c0-2.1-1.7-3.8-3.8-3.8s-3.8,1.7-3.8,3.8
		s1.7,3.8,3.8,3.8C16.5,16.6,18.2,14.9,18.2,12.8z"/>
</g>
</svg>
