<?xml version="1.0" encoding="utf-8"?>
<!-- Generator: Adobe Illustrator 16.0.3, SVG Export Plug-In . SVG Version: 6.00 Build 0)  -->
<!DOCTYPE svg PUBLIC "-//W3C//DTD SVG 1.1//EN" "http://www.w3.org/Graphics/SVG/1.1/DTD/svg11.dtd">
<svg version="1.1" id="Layer_1" xmlns="http://www.w3.org/2000/svg" xmlns:xlink="http://www.w3.org/1999/xlink" x="0px" y="0px"
	 width="111.547px" height="52.764px" viewBox="4.226 3.633 111.547 52.764" enable-background="new 4.226 3.633 111.547 52.764"
	 xml:space="preserve">
<path fill="#EA4335" d="M64.87,11.572l1.144,0.02l3.108-3.108l0.149-1.317c-2.47-2.197-5.72-3.534-9.276-3.534
	c-6.44,0-11.876,4.382-13.486,10.318c0.34-0.237,1.065-0.06,1.065-0.06l6.212-1.022c0,0,0.32-0.53,0.48-0.497
	C57.034,9.344,61.68,8.994,64.87,11.572L64.87,11.572z"/>
<path fill="#4285F4" d="M73.5,13.962c-0.714-2.627-2.18-4.989-4.216-6.796l-4.402,4.402c1.83,1.471,2.895,3.691,2.896,6.039v0.777
	c2.142,0,3.88,1.743,3.88,3.88c0,2.137-1.743,3.88-3.88,3.88h-7.762l-0.777,0.78v4.658l0.777,0.773h7.762
	c5.564-0.016,10.072-4.525,10.082-10.09c-0.004-3.436-1.735-6.48-4.369-8.303H73.5z"/>
<path fill="#34A853" d="M52.234,32.361h7.76V26.15h-7.76c-0.551,0-1.096-0.118-1.597-0.347l-1.12,0.343l-3.108,3.108l-0.272,1.05
	c1.749,1.342,3.893,2.067,6.098,2.06L52.234,32.361z"/>
<path fill="#FBBC05" d="M52.234,12.175c-5.571,0.009-10.085,4.523-10.094,10.094c0,3.159,1.48,6.135,4,8.04l4.5-4.5
	c-1.393-0.626-2.288-2.011-2.288-3.538c0-2.142,1.743-3.88,3.88-3.88c1.526,0.002,2.91,0.897,3.538,2.288l4.5-4.5
	c-1.846-2.43-4.76-4-8.04-4L52.234,12.175z"/>
<path fill="#5F6368" d="M12,51.938c-2.12,0-3.94-0.75-5.474-2.25c-1.534-1.5-2.3-3.305-2.3-5.408c0-2.104,0.765-3.908,2.3-5.408
	c1.535-1.5,3.357-2.251,5.474-2.251c1.962-0.028,3.853,0.731,5.249,2.11l-1.477,1.477c-1.011-0.978-2.367-1.515-3.773-1.495
	c-1.53,0-2.83,0.54-3.896,1.627c-1.048,1.041-1.625,2.464-1.597,3.94c0,1.547,0.53,2.857,1.597,3.941
	c1.014,1.063,2.427,1.653,3.896,1.627c1.558,0,2.845-0.5,3.87-1.535c0.6-0.6,1-1.5,1.14-2.635h-5.006v-2.092h7.044
	c0.075,0.372,0.1,0.8,0.1,1.3c0,2.056-0.603,3.687-1.813,4.896c-1.372,1.435-3.15,2.15-5.345,2.15L12,51.938z M28.37,50.537
	c-0.96,0.939-2.13,1.4-3.512,1.4c-1.382,0-2.554-0.471-3.512-1.4s-1.438-2.113-1.438-3.52c0-1.408,0.48-2.58,1.438-3.521
	s2.13-1.399,3.512-1.399c1.382,0,2.554,0.469,3.512,1.399c0.958,0.93,1.438,2.116,1.438,3.521
	C29.808,48.421,29.328,49.598,28.37,50.537z M22.896,49.157c0.504,0.548,1.218,0.856,1.963,0.849c0.76,0,1.414-0.281,1.963-0.85
	c0.549-0.568,0.822-1.28,0.822-2.141c0-0.869-0.27-1.588-0.813-2.149s-1.198-0.841-1.972-0.841
	c-0.747-0.011-1.463,0.295-1.972,0.841c-0.543,0.56-0.813,1.276-0.813,2.149C22.074,47.874,22.347,48.589,22.896,49.157
	L22.896,49.157z M39.169,50.537c-0.96,0.939-2.13,1.4-3.512,1.4c-1.382,0-2.554-0.471-3.512-1.4s-1.438-2.113-1.438-3.52
	c0-1.408,0.48-2.58,1.438-3.521s2.13-1.399,3.512-1.399c1.382,0,2.554,0.469,3.512,1.399c0.958,0.93,1.438,2.116,1.438,3.521
	C40.607,48.421,40.127,49.598,39.169,50.537z M33.695,49.157c0.505,0.548,1.218,0.856,1.963,0.849c0.76,0,1.414-0.281,1.963-0.85
	c0.549-0.568,0.822-1.28,0.822-2.141c0-0.869-0.27-1.588-0.813-2.149s-1.198-0.841-1.972-0.841
	c-0.747-0.011-1.463,0.295-1.972,0.841c-0.543,0.56-0.813,1.276-0.813,2.149C32.873,47.874,33.146,48.589,33.695,49.157
	L33.695,49.157z M46.268,56.377c-1.095,0-2.017-0.294-2.764-0.88s-1.282-1.265-1.606-2.038l1.888-0.783
	c0.198,0.475,0.5,0.885,0.933,1.234c0.433,0.349,0.94,0.521,1.552,0.521c0.822,0,1.468-0.25,1.933-0.746
	c0.465-0.498,0.7-1.217,0.7-2.15v-0.7h-0.075c-0.6,0.747-1.477,1.122-2.596,1.122c-1.258,0-2.36-0.48-3.307-1.438
	c-0.929-0.916-1.443-2.172-1.42-3.477c-0.023-1.313,0.49-2.577,1.42-3.503c0.945-0.963,2.05-1.447,3.307-1.447
	c0.56,0,1.068,0.105,1.522,0.318s0.813,0.474,1.074,0.782h0.075V42.4h2.056v8.856c0,1.72-0.438,3.005-1.318,3.86
	c-0.88,0.85-2.002,1.279-3.373,1.279L46.268,56.377z M46.418,50.005c0.722,0.013,1.412-0.299,1.879-0.849
	c0.504-0.567,0.756-1.273,0.756-2.122c0-0.858-0.252-1.576-0.756-2.15c-0.465-0.555-1.155-0.87-1.879-0.858
	c-0.76,0-1.408,0.289-1.942,0.858c-0.534,0.57-0.804,1.288-0.804,2.15c0,0.846,0.267,1.555,0.804,2.122
	C45.013,49.723,45.659,50.006,46.418,50.005L46.418,50.005z M54.62,37.141v14.5h-2.167v-14.5H54.62z M60.561,51.936
	c-1.396,0-2.561-0.474-3.495-1.42c-0.934-0.945-1.402-2.115-1.402-3.512c0-1.443,0.45-2.63,1.354-3.55
	c0.857-0.902,2.053-1.404,3.298-1.384c0.597,0,1.153,0.107,1.663,0.326c0.475,0.195,0.906,0.48,1.271,0.84
	c0.304,0.303,0.573,0.639,0.804,1c0.191,0.309,0.354,0.634,0.486,0.972l0.225,0.56L58.17,48.5c0.5,0.996,1.3,1.495,2.393,1.495
	c0.996,0,1.807-0.453,2.428-1.363l1.68,1.122c-0.375,0.561-0.902,1.064-1.588,1.514c-0.686,0.447-1.527,0.67-2.523,0.67
	L60.561,51.936z M57.814,46.855l4.4-1.83c-0.126-0.312-0.354-0.563-0.7-0.756c-0.348-0.194-0.74-0.294-1.14-0.287
	c-0.636,0-1.23,0.26-1.783,0.783c-0.553,0.522-0.82,1.221-0.795,2.092L57.814,46.855z M76.145,51.936c-1.971,0-3.621-0.666-4.953-2
	s-2-2.994-2-4.987s0.666-3.656,2-4.988s2.983-2,4.953-2c2.017,0,3.655,0.729,4.912,2.185l-1.195,1.16
	c-0.899-1.134-2.149-1.699-3.719-1.699c-1.461,0-2.687,0.492-3.701,1.477c-1.014,0.984-1.504,2.271-1.504,3.866
	c0,1.594,0.5,2.884,1.504,3.87s2.233,1.477,3.701,1.477c1.605,0,2.977-0.648,4.1-1.941l1.195,1.194
	c-0.627,0.747-1.412,1.345-2.301,1.747c-0.941,0.434-1.967,0.652-3.004,0.643L76.145,51.936z M84.7,51.641h-1.72V38.264h1.72V51.641
	z M87.503,43.58c0.886-0.928,2-1.393,3.382-1.393c1.383,0,2.497,0.465,3.383,1.393c0.885,0.928,1.326,2.1,1.326,3.484
	c0,1.386-0.439,2.558-1.326,3.485c-0.888,0.929-2,1.394-3.383,1.394c-1.382,0-2.496-0.465-3.382-1.394
	c-0.885-0.928-1.327-2.1-1.327-3.485C86.176,45.68,86.616,44.508,87.503,43.58z M88.783,49.463c0.6,0.604,1.294,0.906,2.1,0.906
	c0.807,0,1.5-0.303,2.1-0.906c0.601-0.604,0.889-1.404,0.889-2.4c0-0.994-0.297-1.797-0.889-2.399
	c-0.59-0.603-1.293-0.906-2.1-0.906c-0.806,0-1.5,0.304-2.1,0.906s-0.889,1.405-0.889,2.399
	C87.895,48.059,88.191,48.861,88.783,49.463z M105.104,51.641h-1.646V50.37h-0.075c-0.26,0.435-0.66,0.807-1.195,1.101
	c-0.535,0.293-1.1,0.459-1.699,0.459c-1.147,0-2.014-0.348-2.605-1.047c-0.591-0.699-0.888-1.633-0.888-2.803v-5.605h1.72v5.323
	c0,1.708,0.753,2.56,2.26,2.56c0.686,0.016,1.334-0.305,1.738-0.857c0.445-0.563,0.682-1.264,0.672-1.98v-5.045h1.721v9.156
	L105.104,51.641z M110.932,51.938c-1.184,0-2.207-0.469-3.064-1.402c-0.858-0.934-1.288-2.092-1.288-3.477
	c0-1.384,0.43-2.541,1.288-3.476c0.857-0.935,1.882-1.401,3.064-1.401c0.695,0,1.323,0.149,1.879,0.446
	c0.557,0.297,0.971,0.672,1.244,1.122h0.074l-0.074-1.27V38.26h1.719v13.381h-1.645V50.37h-0.074
	c-0.273,0.446-0.688,0.821-1.244,1.122c-0.555,0.294-1.183,0.443-1.879,0.443V51.938z M111.211,50.367
	c0.785,0.01,1.537-0.316,2.064-0.896c0.567-0.598,0.851-1.402,0.851-2.4s-0.282-1.813-0.851-2.4
	c-0.527-0.581-1.279-0.908-2.064-0.896c-0.798,0-1.482,0.303-2.057,0.906c-0.572,0.603-0.857,1.404-0.857,2.399
	s0.285,1.798,0.857,2.399c0.524,0.584,1.273,0.914,2.057,0.906V50.367z"/>
</svg>
