<?xml version="1.0" encoding="utf-8"?>
<!-- Generator: Adobe Illustrator 16.0.3, SVG Export Plug-In . SVG Version: 6.00 Build 0)  -->
<!DOCTYPE svg PUBLIC "-//W3C//DTD SVG 1.1//EN" "http://www.w3.org/Graphics/SVG/1.1/DTD/svg11.dtd">
<svg version="1.1" id="Layer_1" xmlns="http://www.w3.org/2000/svg" xmlns:xlink="http://www.w3.org/1999/xlink" x="0px" y="0px"
	 width="237.608px" height="65.788px" viewBox="31.203 107.854 237.608 65.788"
	 enable-background="new 31.203 107.854 237.608 65.788" xml:space="preserve">
<title>gradle-dark-green-primary</title>
<path d="M159.246,155.466v14.332c-1.732,1.292-3.676,2.275-5.742,2.907c-2.121,0.626-4.323,0.934-6.535,0.914
	c-2.677,0.041-5.338-0.415-7.849-1.346c-2.229-0.842-4.263-2.128-5.979-3.78c-1.665-1.621-2.971-3.575-3.833-5.733
	c-0.914-2.314-1.371-4.785-1.346-7.273c-0.029-2.504,0.41-4.992,1.294-7.335c1.631-4.369,5.075-7.816,9.442-9.452
	c2.446-0.915,5.042-1.365,7.654-1.326c1.35-0.007,2.698,0.106,4.027,0.339c1.187,0.214,2.352,0.531,3.483,0.945
	c1.024,0.382,2.006,0.871,2.928,1.458c0.873,0.567,1.695,1.21,2.455,1.921l-1.891,2.99c-0.243,0.438-0.662,0.751-1.15,0.863
	c-0.539,0.093-1.094-0.032-1.541-0.35l-1.582-0.935c-0.573-0.325-1.175-0.596-1.798-0.812c-0.728-0.243-1.473-0.428-2.229-0.555
	c-0.943-0.162-1.899-0.238-2.856-0.226c-1.622-0.022-3.232,0.278-4.736,0.884c-1.38,0.56-2.616,1.424-3.617,2.527
	c-1.03,1.143-1.813,2.486-2.301,3.945c-0.562,1.654-0.836,3.391-0.812,5.137c-0.031,1.846,0.265,3.683,0.873,5.425
	c0.522,1.506,1.355,2.885,2.445,4.048c1.063,1.096,2.354,1.944,3.781,2.486c2.719,0.982,5.668,1.14,8.476,0.452
	c1.04-0.28,2.05-0.655,3.02-1.12v-6.38h-4.469c-0.378,0.031-0.751-0.1-1.027-0.359c-0.236-0.229-0.366-0.545-0.359-0.873v-3.72
	H159.246z M170.004,152.455c0.672-1.364,1.623-2.572,2.794-3.544c1.085-0.862,2.437-1.316,3.822-1.284
	c0.989-0.053,1.968,0.214,2.794,0.76l-0.391,4.531c-0.05,0.239-0.172,0.457-0.349,0.627c-0.184,0.128-0.403,0.193-0.627,0.185
	c-0.366-0.013-0.729-0.054-1.089-0.124c-0.469-0.08-0.943-0.121-1.418-0.123c-0.607-0.01-1.213,0.087-1.787,0.288
	c-0.518,0.195-0.996,0.484-1.408,0.853c-0.432,0.387-0.803,0.838-1.1,1.336c-0.344,0.571-0.643,1.169-0.894,1.787v15.483h-5.969
	v-25.141h3.544c0.461-0.045,0.922,0.071,1.305,0.329c0.295,0.33,0.469,0.75,0.494,1.191L170.004,152.455z M181.675,151.592
	c2.835-2.628,6.583-4.05,10.448-3.965c1.35-0.024,2.691,0.22,3.945,0.719c1.117,0.462,2.121,1.164,2.938,2.055
	c0.819,0.888,1.442,1.937,1.829,3.082c0.426,1.265,0.638,2.591,0.627,3.926v15.821h-2.754c-0.453,0.026-0.905-0.063-1.314-0.257
	c-0.365-0.239-0.629-0.605-0.74-1.027l-0.535-1.818c-0.593,0.539-1.217,1.043-1.869,1.51c-0.59,0.424-1.22,0.788-1.881,1.09
	c-0.659,0.295-1.348,0.521-2.055,0.678c-0.812,0.158-1.638,0.233-2.465,0.226c-0.995,0.009-1.986-0.134-2.938-0.421
	c-0.859-0.265-1.653-0.705-2.333-1.295c-0.662-0.582-1.184-1.311-1.52-2.127c-0.375-0.943-0.557-1.953-0.535-2.969
	c0.001-0.646,0.108-1.289,0.318-1.9c0.225-0.66,0.574-1.27,1.027-1.799c0.545-0.626,1.179-1.17,1.881-1.612
	c0.877-0.568,1.828-1.015,2.825-1.325c1.276-0.418,2.586-0.727,3.915-0.925c1.7-0.257,3.416-0.397,5.137-0.421v-1.48
	c0.108-1.336-0.275-2.666-1.079-3.739c-0.799-0.838-1.927-1.281-3.082-1.212c-0.828-0.023-1.654,0.092-2.445,0.339
	c-0.589,0.202-1.156,0.46-1.695,0.771l-1.335,0.771c-0.406,0.235-0.867,0.356-1.336,0.35c-0.387,0.013-0.766-0.103-1.079-0.329
	c-0.286-0.211-0.526-0.477-0.709-0.781L181.675,151.592z M195.545,162.493c-1.482,0.054-2.958,0.208-4.418,0.462
	c-0.988,0.153-1.953,0.437-2.867,0.843c-0.612,0.254-1.145,0.669-1.541,1.202c-0.77,1.209-0.566,2.795,0.483,3.771
	c0.723,0.489,1.584,0.73,2.456,0.688c1.113,0.027,2.217-0.205,3.226-0.678c0.999-0.527,1.899-1.222,2.661-2.055V162.493z
	 M228.966,136.808v36.421h-3.698c-0.711,0.064-1.359-0.405-1.521-1.1l-0.514-2.425c-0.988,1.139-2.171,2.092-3.492,2.815
	c-1.42,0.726-3,1.079-4.593,1.027c-2.654,0.044-5.164-1.206-6.729-3.349c-0.879-1.195-1.527-2.544-1.911-3.977
	c-0.476-1.789-0.704-3.635-0.679-5.486c-0.014-1.762,0.243-3.515,0.761-5.199c0.467-1.494,1.209-2.888,2.188-4.109
	c0.919-1.158,2.08-2.101,3.4-2.763c1.387-0.686,2.913-1.038,4.459-1.028c1.234-0.034,2.463,0.19,3.606,0.658
	c0.987,0.436,1.892,1.041,2.671,1.788v-13.264L228.966,136.808z M222.945,154.51c-0.597-0.758-1.364-1.363-2.24-1.767
	c-0.826-0.343-1.714-0.519-2.609-0.514c-0.853-0.012-1.697,0.163-2.476,0.514c-0.761,0.352-1.422,0.888-1.921,1.562
	c-0.572,0.792-0.98,1.689-1.203,2.641c-0.295,1.241-0.433,2.516-0.41,3.791c-0.023,1.252,0.094,2.503,0.35,3.729
	c0.184,0.892,0.531,1.742,1.027,2.507c0.399,0.608,0.961,1.092,1.623,1.396c0.67,0.291,1.396,0.435,2.127,0.422
	c1.123,0.037,2.234-0.232,3.215-0.781c0.966-0.586,1.818-1.342,2.518-2.229V154.51z M241.1,136.818v36.411h-6.052v-36.411H241.1z
	 M251.814,161.414c0.064,1.145,0.297,2.273,0.689,3.35c0.308,0.866,0.79,1.66,1.418,2.332c0.572,0.604,1.275,1.071,2.055,1.367
	c0.857,0.313,1.768,0.467,2.682,0.451c0.857,0.018,1.713-0.098,2.537-0.339c0.641-0.2,1.262-0.454,1.859-0.761
	c0.534-0.277,1.027-0.533,1.397-0.76c0.351-0.211,0.751-0.328,1.161-0.339c0.451-0.031,0.885,0.185,1.13,0.565l1.777,2.239
	c-0.644,0.771-1.402,1.436-2.25,1.973c-0.817,0.524-1.693,0.952-2.609,1.274c-0.899,0.316-1.829,0.544-2.774,0.678
	c-0.901,0.129-1.812,0.194-2.723,0.195c-1.667,0.018-3.322-0.279-4.88-0.873c-1.479-0.563-2.817-1.439-3.925-2.568
	c-1.154-1.209-2.046-2.643-2.619-4.213c-0.67-1.867-0.994-3.842-0.956-5.825c-0.011-1.649,0.271-3.288,0.832-4.839
	c0.527-1.462,1.341-2.803,2.394-3.945c1.066-1.14,2.357-2.045,3.791-2.661c1.6-0.688,3.324-1.037,5.065-1.027
	c1.497-0.018,2.983,0.239,4.388,0.76c1.298,0.479,2.477,1.237,3.451,2.219c1.001,1.018,1.775,2.236,2.271,3.575
	c0.57,1.548,0.849,3.188,0.821,4.839c0.052,0.632-0.051,1.266-0.298,1.85c-0.266,0.348-0.696,0.529-1.131,0.473L251.814,161.414z
	 M263.353,157.768c-0.001-0.753-0.114-1.501-0.339-2.22c-0.219-0.668-0.568-1.286-1.027-1.818c-0.455-0.538-1.027-0.964-1.675-1.243
	c-0.747-0.313-1.552-0.467-2.362-0.452c-1.516-0.079-2.998,0.458-4.11,1.489c-1.085,1.168-1.759,2.658-1.921,4.244H263.353z
	 M115.335,111.986c-5.375-5.38-14.05-5.525-19.603-0.329c-0.267,0.246-0.42,0.592-0.421,0.955c-0.007,0.365,0.133,0.717,0.391,0.976
	l1.777,1.777c0.474,0.472,1.222,0.524,1.757,0.124c1.394-1.052,3.093-1.618,4.839-1.613c4.466,0,8.086,3.62,8.086,8.085
	c0,2.142-0.85,4.197-2.363,5.713c-11.167,11.229-26.157-20.147-60.072-4.007c-2.306,1.071-3.306,3.808-2.235,6.113
	c0.055,0.119,0.115,0.235,0.181,0.349l5.815,10.059c1.263,2.177,4.038,2.941,6.236,1.716l0.144-0.083l-0.113,0.083l2.579-1.449
	c2.877-1.782,5.596-3.806,8.127-6.051c0.514-0.48,1.304-0.506,1.849-0.062l0,0c0.567,0.462,0.653,1.297,0.19,1.865
	c-0.057,0.07-0.121,0.133-0.19,0.19c-2.641,2.378-5.484,4.523-8.497,6.411l-0.092,0.051l-2.579,1.438
	c-1.087,0.616-2.316,0.938-3.565,0.935c-2.635,0.006-5.074-1.391-6.4-3.668l-5.507-9.493c-10.562,7.459-16.973,21.833-13.531,40.017
	c0.123,0.634,0.679,1.091,1.325,1.089h6.257c0.693,0.027,1.292-0.482,1.376-1.171c0.656-5.03,5.265-8.576,10.295-7.921
	c4.131,0.539,7.382,3.79,7.92,7.921c0.082,0.661,0.639,1.161,1.305,1.171h6.103c0.676,0.001,1.248-0.5,1.335-1.171
	c0.633-5.027,5.222-8.589,10.25-7.956c4.158,0.523,7.433,3.798,7.956,7.956c0.083,0.669,0.651,1.171,1.325,1.171h6.031
	c0.73,0,1.325-0.585,1.336-1.314c0.144-8.508,2.435-18.277,8.979-23.168C126.524,131.764,120.575,117.247,115.335,111.986z
	 M92.25,137.589l-4.315-2.167l0,0c-0.006-1.498,1.204-2.717,2.702-2.723c1.498-0.005,2.717,1.205,2.722,2.703
	c0.003,0.868-0.409,1.685-1.109,2.198V137.589z"/>
</svg>
