<?xml version="1.0" encoding="utf-8"?>
<!-- Generator: Adobe Illustrator 16.0.3, SVG Export Plug-In . SVG Version: 6.00 Build 0)  -->
<!DOCTYPE svg PUBLIC "-//W3C//DTD SVG 1.1//EN" "http://www.w3.org/Graphics/SVG/1.1/DTD/svg11.dtd">
<svg version="1.1"
	 id="Layer_1" xmlns:dc="http://purl.org/dc/elements/1.1/" xmlns:cc="http://creativecommons.org/ns#" xmlns:rdf="http://www.w3.org/1999/02/22-rdf-syntax-ns#" xmlns:svg="http://www.w3.org/2000/svg" xmlns:sodipodi="http://sodipodi.sourceforge.net/DTD/sodipodi-0.dtd" xmlns:inkscape="http://www.inkscape.org/namespaces/inkscape" sodipodi:docname="grafana-ar21.svg" inkscape:version="0.92.4 (5da689c313, 2019-01-14)"
	 xmlns="http://www.w3.org/2000/svg" xmlns:xlink="http://www.w3.org/1999/xlink" x="0px" y="0px" width="107.183px"
	 height="38.422px" viewBox="6.409 10.79 107.183 38.422" enable-background="new 6.409 10.79 107.183 38.422" xml:space="preserve"
	>
<sodipodi:namedview  objecttolerance="10" showgrid="false" inkscape:cy="40.534302" inkscape:cx="69.64473" inkscape:zoom="5.3636363" borderopacity="1" bordercolor="#666666" pagecolor="#ffffff" id="namedview52" inkscape:window-width="1920" inkscape:window-maximized="1" inkscape:pageshadow="2" inkscape:window-y="-9" inkscape:pageopacity="0" inkscape:current-layer="Layer_1" inkscape:window-x="-9" inkscape:window-height="1001" gridtolerance="10" guidetolerance="10">
	</sodipodi:namedview>
<g id="g958" transform="translate(-0.0849561)">
	<g id="g946" transform="matrix(0.6482233,0,0,0.6482233,9.8957194,73.449475)">
		<g>
			<path id="path16" inkscape:connector-curvature="0" fill="#414042" d="M80.239-66.645c-0.215,5.576-4.615,9.92-10.081,9.92
				c-5.769,0-10.058-4.67-10.058-10.302c0-5.686,4.643-10.357,10.302-10.357c2.556,0,5.057,1.098,7.171,3.076l-1.65,2.032
				c-1.622-1.402-3.571-2.363-5.521-2.363c-4.15,0-7.557,3.407-7.557,7.612c0,4.256,3.213,7.557,7.309,7.557
				c3.682,0,6.568-2.694,7.143-6.154h-8.348v-2.447h11.294v1.426H80.239z"/>
		</g>
		<g>
			<path id="path18" inkscape:connector-curvature="0" fill="#414042" d="M89.828-67.992h-1.54c-1.702,0-3.076,1.378-3.076,3.076
				v8.021h-2.748v-13.739h2.252v1.154c0.74-0.74,1.921-1.154,3.241-1.154h2.965L89.828-67.992z"/>
		</g>
		<g>
			<path id="path20" inkscape:connector-curvature="0" fill="#414042" d="M104.799-56.891h-2.335v-1.732
				c-1.808,1.764-4.655,2.611-7.542,1.342c-2.138-0.94-3.729-2.89-4.155-5.188c-0.818-4.443,2.6-8.385,6.966-8.385
				c1.841,0,3.489,0.74,4.699,1.949v-1.732h2.364v13.747H104.799z M101.988-62.774c0.649-2.792-1.464-5.328-4.221-5.328
				c-2.391,0-4.312,1.949-4.312,4.312c0,2.673,2.35,4.741,5.083,4.276C100.22-59.8,101.603-61.108,101.988-62.774"/>
		</g>
		<g>
			<path id="path22" inkscape:connector-curvature="0" fill="#414042" d="M110.337-71.398v0.768h4.366v2.418h-4.366v11.322h-2.722
				v-14.424c0-3.024,2.171-4.808,4.892-4.808h3.296l-1.1,2.583h-2.194C111.302-73.541,110.337-72.579,110.337-71.398"/>
		</g>
		<g>
			<path id="path24" inkscape:connector-curvature="0" fill="#414042" d="M129.265-56.891h-2.335v-1.732
				c-1.808,1.764-4.655,2.611-7.542,1.342c-2.136-0.94-3.727-2.89-4.153-5.188c-0.818-4.443,2.599-8.385,6.966-8.385
				c1.839,0,3.489,0.74,4.699,1.949v-1.732h2.362v13.747H129.265z M126.457-62.774c0.651-2.792-1.464-5.328-4.221-5.328
				c-2.389,0-4.312,1.949-4.312,4.312c0,2.673,2.352,4.741,5.085,4.276C124.685-59.8,126.072-61.108,126.457-62.774"/>
		</g>
		<g>
			<path id="path26" inkscape:connector-curvature="0" fill="#414042" d="M143.942-65.026v8.131h-2.748v-8.131
				c0-1.705-1.401-3.076-3.076-3.076c-1.733,0-3.102,1.374-3.102,3.076v8.131h-2.749v-13.739h2.281v1.182
				c0.988-0.878,2.308-1.403,3.682-1.403C141.414-70.851,143.942-68.24,143.942-65.026"/>
		</g>
		<g>
			<path id="path28" inkscape:connector-curvature="0" fill="#414042" d="M160.101-56.891h-2.335v-1.732
				c-1.808,1.764-4.655,2.611-7.542,1.342c-2.139-0.94-3.73-2.89-4.155-5.188c-0.82-4.443,2.6-8.385,6.966-8.385
				c1.839,0,3.489,0.74,4.697,1.949v-1.732h2.364v13.747H160.101z M157.288-62.774c0.649-2.792-1.464-5.328-4.221-5.328
				c-2.391,0-4.312,1.949-4.312,4.312c0,2.673,2.352,4.741,5.085,4.276C155.516-59.8,156.902-61.108,157.288-62.774"/>
		</g>
	</g>
	<g id="g937" transform="matrix(0.48980749,0,0,0.48980749,-29.744846,88.66226)">
		<g>
			<defs>
				<path id="SVGID_1_" d="M106.155-150.032c0,0-0.028,0.115-0.064,0.307c-0.327,0.095-0.653,0.185-0.98,0.292
					c-0.454,0.138-0.898,0.303-1.351,0.465c-0.446,0.173-0.898,0.347-1.339,0.543c-0.89,0.382-1.772,0.811-2.635,1.296
					c-0.834,0.469-1.658,0.984-2.457,1.543c-0.114-0.055-0.204-0.095-0.204-0.095c-8.163-3.118-15.414,0.634-15.414,0.634
					c-0.661,8.684,3.261,14.157,4.036,15.15c-0.192,0.535-0.374,1.079-0.539,1.627c-0.602,1.969-1.055,3.989-1.335,6.076
					c-0.039,0.299-0.075,0.602-0.111,0.905c-7.54,3.725-9.777,11.362-9.777,11.362c6.296,7.241,13.637,7.69,13.637,7.69
					c0.008-0.004,0.012-0.012,0.019-0.016c0.934,1.667,2.013,3.254,3.23,4.729c0.507,0.618,1.043,1.218,1.598,1.796
					c-2.296,6.565,0.323,12.026,0.323,12.026c7.01,0.265,11.614-3.068,12.582-3.834c0.698,0.235,1.407,0.443,2.119,0.63
					c2.153,0.554,4.359,0.881,6.564,0.975c0.551,0.024,1.103,0.036,1.65,0.032h0.267l0.173-0.004l0.347-0.012l0.343-0.016
					l0.007,0.012c3.301,4.711,9.109,5.375,9.109,5.375c4.131-4.354,4.367-8.675,4.367-9.608l0,0c0,0,0-0.032,0-0.064
					c0-0.078-0.004-0.13-0.004-0.13l0,0c-0.004-0.066-0.004-0.13-0.012-0.201c0.866-0.606,1.694-1.26,2.477-1.96
					c1.654-1.497,3.099-3.198,4.297-5.038c0.114-0.171,0.224-0.345,0.331-0.522c4.674,0.267,7.97-2.895,7.97-2.895
					c-0.776-4.871-3.552-7.245-4.131-7.694l0,0c0,0-0.024-0.02-0.059-0.044c-0.032-0.024-0.055-0.038-0.055-0.038l0,0
					c-0.028-0.02-0.064-0.044-0.103-0.068c0.028-0.295,0.055-0.586,0.071-0.877c0.036-0.526,0.047-1.053,0.051-1.573l-0.004-0.389
					l-0.004-0.197v-0.098c0-0.136-0.004-0.084-0.004-0.136l-0.015-0.327l-0.024-0.441c-0.008-0.154-0.02-0.283-0.032-0.421
					c-0.011-0.134-0.023-0.271-0.039-0.407l-0.048-0.405l-0.055-0.401c-0.079-0.536-0.181-1.069-0.303-1.591
					c-0.488-2.099-1.307-4.092-2.391-5.884c-1.083-1.792-2.429-3.379-3.946-4.714c-1.516-1.339-3.217-2.413-5.001-3.217
					c-1.783-0.803-3.659-1.32-5.525-1.555c-0.933-0.123-1.862-0.169-2.784-0.158l-0.342,0.007l-0.087,0.004
					c-0.024,0-0.131,0.004-0.119,0.004l-0.142,0.008l-0.343,0.024c-0.13,0.008-0.263,0.02-0.378,0.031
					c-0.473,0.048-0.941,0.111-1.406,0.197c-1.851,0.347-3.6,1.016-5.139,1.938c-1.54,0.921-2.879,2.075-3.97,3.382
					c-1.087,1.303-1.934,2.748-2.516,4.245c-0.583,1.496-0.91,3.039-1.001,4.541c-0.023,0.373-0.031,0.748-0.023,1.118
					c0,0.09,0.004,0.183,0.008,0.275l0.011,0.299c0.012,0.181,0.028,0.359,0.044,0.536c0.075,0.76,0.212,1.489,0.418,2.193
					c0.405,1.406,1.059,2.678,1.862,3.756c0.803,1.083,1.764,1.976,2.784,2.674c1.02,0.698,2.11,1.198,3.19,1.517
					c1.083,0.317,2.157,0.457,3.17,0.453c0.126,0,0.251-0.004,0.378-0.008c0.067,0,0.134-0.008,0.2-0.008
					c0.067-0.004,0.134-0.008,0.201-0.012c0.106-0.012,0.216-0.02,0.323-0.032c0.023,0,0.059-0.008,0.09-0.012l0.099-0.012
					c0.067-0.008,0.131-0.02,0.197-0.028c0.134-0.016,0.248-0.042,0.366-0.062c0.119-0.024,0.236-0.046,0.355-0.078
					c0.232-0.052,0.457-0.124,0.681-0.191c0.441-0.144,0.854-0.323,1.24-0.518c0.386-0.197,0.741-0.423,1.072-0.654
					c0.095-0.068,0.184-0.138,0.275-0.207c0.355-0.277,0.41-0.798,0.127-1.144c-0.248-0.303-0.674-0.381-1.013-0.191
					c-0.082,0.048-0.168,0.09-0.255,0.134c-0.296,0.142-0.603,0.275-0.93,0.381c-0.326,0.104-0.665,0.191-1.02,0.253
					c-0.176,0.024-0.354,0.05-0.535,0.066c-0.091,0.012-0.181,0.016-0.275,0.016c-0.091,0.004-0.189,0.012-0.272,0.008
					c-0.087,0-0.173-0.004-0.264-0.004c-0.11-0.004-0.22-0.012-0.33-0.016c0,0-0.056,0-0.012-0.004l-0.036-0.004l-0.075-0.008
					c-0.051-0.004-0.099-0.008-0.15-0.016c-0.099-0.01-0.197-0.022-0.295-0.038c-0.792-0.11-1.595-0.343-2.367-0.692
					c-0.777-0.351-1.516-0.833-2.186-1.436c-0.669-0.598-1.252-1.322-1.709-2.141c-0.457-0.815-0.776-1.725-0.926-2.678
					c-0.075-0.477-0.106-0.969-0.094-1.449c0.008-0.134,0.012-0.263,0.019-0.399c0,0.036,0.004-0.02,0.004-0.024l0.004-0.046
					l0.008-0.098c0.004-0.068,0.012-0.132,0.02-0.197c0.028-0.261,0.067-0.524,0.115-0.78c0.366-2.076,1.406-4.1,3.013-5.639
					c0.401-0.382,0.834-0.741,1.295-1.056c0.461-0.315,0.953-0.598,1.465-0.834c0.511-0.236,1.047-0.43,1.594-0.579
					c0.548-0.146,1.111-0.244,1.682-0.295c0.284-0.024,0.571-0.036,0.858-0.036c0.075,0,0.135,0.004,0.193,0.004l0.232,0.008
					l0.146,0.004c0.059,0,0,0,0.028,0.004l0.059,0.004l0.232,0.016c0.618,0.051,1.237,0.138,1.843,0.275
					c1.216,0.272,2.398,0.717,3.501,1.327c2.205,1.221,4.083,3.131,5.237,5.434c0.583,1.146,0.985,2.385,1.189,3.659
					c0.048,0.319,0.087,0.642,0.115,0.965l0.02,0.245l0.012,0.243c0.004,0.084,0.004,0.161,0.007,0.243
					c0,0.08,0.004,0.171,0.004,0.229v0.209l-0.004,0.235c-0.007,0.159-0.019,0.415-0.027,0.57c-0.028,0.351-0.055,0.706-0.103,1.057
					c-0.043,0.347-0.103,0.694-0.165,1.041c-0.071,0.343-0.142,0.684-0.232,1.023c-0.169,0.68-0.39,1.346-0.646,2
					c-0.515,1.308-1.204,2.548-2.036,3.694c-1.666,2.287-3.938,4.159-6.522,5.333c-1.291,0.582-2.654,1.011-4.055,1.244
					c-0.701,0.116-1.411,0.187-2.119,0.211l-0.13,0.004h-0.115l-0.228,0.004h-0.35h-0.173c0.099,0-0.016,0-0.012-0.004l-0.071-0.004
					c-0.382-0.008-0.76-0.028-1.138-0.056c-1.515-0.114-3.016-0.381-4.469-0.805c-1.453-0.423-2.863-0.985-4.198-1.695
					c-2.666-1.424-5.048-3.377-6.915-5.734c-0.937-1.172-1.757-2.432-2.433-3.76c-0.677-1.328-1.209-2.716-1.603-4.139
					c-0.39-1.42-0.634-2.879-0.729-4.342l-0.015-0.275l-0.004-0.068v-0.06l-0.004-0.122l-0.008-0.241l-0.004-0.058v-0.082v-0.171
					l-0.004-0.341v-0.068c0,0.012,0,0.012,0-0.022v-0.136c0-0.175,0.008-0.359,0.012-0.534c0.027-0.726,0.087-1.469,0.181-2.214
					c0.094-0.745,0.216-1.492,0.37-2.237c0.154-0.74,0.335-1.476,0.539-2.197c0.414-1.445,0.929-2.847,1.54-4.17
					c1.224-2.651,2.831-4.985,4.76-6.868c0.48-0.473,0.981-0.918,1.5-1.335c0.52-0.418,1.06-0.803,1.615-1.166
					c0.551-0.366,1.122-0.697,1.709-1.004c0.292-0.158,0.591-0.295,0.89-0.442c0.15-0.067,0.303-0.134,0.454-0.2
					c0.15-0.067,0.303-0.134,0.457-0.192c0.61-0.26,1.24-0.477,1.87-0.682c0.161-0.047,0.319-0.099,0.477-0.146
					c0.158-0.052,0.323-0.087,0.48-0.134c0.319-0.091,0.646-0.165,0.969-0.248c0.161-0.044,0.327-0.071,0.488-0.107
					c0.165-0.036,0.327-0.071,0.491-0.103c0.165-0.031,0.331-0.059,0.492-0.091l0.248-0.043l0.248-0.039
					c0.165-0.024,0.331-0.052,0.496-0.076c0.184-0.031,0.374-0.047,0.559-0.075c0.154-0.019,0.402-0.047,0.555-0.067
					c0.118-0.012,0.232-0.023,0.35-0.035l0.232-0.024l0.119-0.012l0.138-0.008c0.189-0.012,0.374-0.023,0.563-0.035l0.279-0.02
					c0,0,0.103-0.004,0.012-0.004l0.059-0.004l0.119-0.004c0.161-0.008,0.319-0.016,0.48-0.024c0.638-0.019,1.272-0.019,1.898,0
					c1.256,0.052,2.488,0.189,3.685,0.41c2.399,0.446,4.655,1.217,6.695,2.225c2.044,1,3.875,2.229,5.466,3.564
					c0.098,0.083,0.196,0.169,0.295,0.252c0.099,0.087,0.193,0.169,0.287,0.256c0.193,0.169,0.379,0.346,0.563,0.515
					c0.185,0.173,0.363,0.351,0.543,0.523c0.173,0.177,0.351,0.351,0.52,0.532c0.673,0.713,1.299,1.438,1.862,2.165
					c1.13,1.453,2.033,2.919,2.752,4.305c0.048,0.087,0.091,0.173,0.135,0.26c0.043,0.087,0.087,0.173,0.126,0.26
					c0.083,0.168,0.169,0.338,0.244,0.507c0.079,0.169,0.158,0.335,0.232,0.5c0.071,0.165,0.142,0.331,0.212,0.488
					c0.268,0.649,0.512,1.264,0.713,1.85c0.331,0.941,0.571,1.792,0.761,2.528c0.075,0.296,0.354,0.492,0.658,0.465
					c0.315-0.027,0.555-0.287,0.562-0.602c0.016-0.792-0.004-1.725-0.094-2.788c-0.119-1.315-0.343-2.839-0.788-4.513
					c-0.438-1.674-1.088-3.504-2.033-5.406c-0.949-1.898-2.185-3.876-3.792-5.785c-0.626-0.749-1.311-1.488-2.052-2.209
					c1.103-4.387-1.343-8.191-1.343-8.191c-4.222-0.264-6.907,1.312-7.903,2.032c-0.165-0.071-0.335-0.142-0.504-0.212
					c-0.721-0.291-1.456-0.563-2.217-0.803c-0.76-0.24-1.535-0.461-2.327-0.646c-0.796-0.184-1.603-0.342-2.426-0.469
					c-0.146-0.019-0.287-0.039-0.433-0.063c-1.835-5.884-7.124-8.344-7.124-8.344C107.276-155.265,106.155-150.032,106.155-150.032"
					/>
			</defs>
			<clipPath id="SVGID_2_">
				<use xlink:href="#SVGID_1_"  overflow="visible"/>
			</clipPath>
			
				<linearGradient id="rect43_1_" gradientUnits="userSpaceOnUse" x1="-1946.7285" y1="-16455.6836" x2="-1939.6127" y2="-16455.6836" gradientTransform="matrix(0 -4.9335 4.9335 0 81293.4609 -9666.9912)">
				<stop  offset="0" style="stop-color:#FFF200"/>
				<stop  offset="1" style="stop-color:#F15A29"/>
			</linearGradient>
			<rect id="rect43" x="73.985" y="-159.001" clip-path="url(#SVGID_2_)" fill="url(#rect43_1_)" width="72.237" height="78.455"/>
		</g>
	</g>
</g>
</svg>
