<?xml version="1.0" encoding="utf-8"?>
<!-- Generator: Adobe Illustrator 16.0.3, SVG Export Plug-In . SVG Version: 6.00 Build 0)  -->
<!DOCTYPE svg PUBLIC "-//W3C//DTD SVG 1.1//EN" "http://www.w3.org/Graphics/SVG/1.1/DTD/svg11.dtd">
<svg version="1.1" id="katman_1" xmlns="http://www.w3.org/2000/svg" xmlns:xlink="http://www.w3.org/1999/xlink" x="0px" y="0px"
	 width="230.259px" height="53.822px" viewBox="34.302 123.563 230.259 53.822"
	 enable-background="new 34.302 123.563 230.259 53.822" xml:space="preserve">
<path fill="#4C4C4C" d="M104.422,163.172c-0.758-0.38-1.327-0.948-1.327-1.896c0-1.137,0.948-2.084,2.085-2.084
	c0.379,0,0.568,0,0.758,0.189c1.516,0.758,3.222,1.137,4.738,0.947c3.412,0,4.928-1.705,4.928-4.737v-0.759
	c-1.516,1.706-3.032,2.844-5.686,2.844c-3.98,0-7.77-3.033-7.77-8.149l0,0c0-5.117,3.79-8.149,7.77-8.149
	c2.653,0,4.359,1.137,5.686,2.653l0,0c0-1.327,1.137-2.463,2.463-2.463s2.464,1.137,2.464,2.463v11.181
	c0,3.033-0.758,5.307-2.274,6.823c-1.706,1.706-4.169,2.274-7.581,2.274C108.591,164.498,106.507,164.119,104.422,163.172z
	 M115.604,149.716L115.604,149.716c0-2.464-1.896-4.169-4.169-4.169c-2.274,0-4.169,1.706-4.169,3.98l0,0
	c0,2.464,1.895,3.979,4.169,3.979C113.708,153.695,115.604,151.99,115.604,149.716z M123.374,144.03
	c0-1.327,1.137-2.463,2.463-2.463s2.464,1.137,2.464,2.463v0.758c0.758-1.706,1.895-3.222,3.411-3.222s2.464,0.947,2.464,2.463
	c0,1.327-0.758,2.085-1.896,2.274c-2.463,0.568-3.979,2.463-3.979,6.064v4.549c0,1.326-1.137,2.463-2.464,2.463
	s-2.463-1.137-2.463-2.463l0,0V144.03z M133.417,154.074L133.417,154.074c0-3.79,2.843-5.685,7.012-5.685
	c1.706,0,3.032,0.379,4.169,0.758v-0.19c0-2.084-1.326-3.222-3.79-3.222c-1.137,0-2.274,0.189-3.411,0.569
	c-0.189,0-0.379,0.189-0.758,0.189c-1.137,0-2.084-0.948-2.084-1.896l0,0c0-0.947,0.568-1.706,1.327-1.895
	c1.516-0.568,3.222-0.947,5.496-0.947c2.653,0,4.738,0.758,5.875,1.895c1.327,1.327,1.895,3.222,1.895,5.496v7.96
	c0,1.326-1.137,2.273-2.463,2.273c-1.516,0-2.464-0.947-2.464-2.084l0,0c-1.137,1.326-2.843,2.273-5.306,2.273
	C136.071,159.57,133.417,157.676,133.417,154.074z M144.789,152.938v-0.947c-0.948-0.379-2.085-0.568-3.222-0.568
	c-2.084,0-3.411,0.758-3.411,2.463l0,0c0,1.326,1.137,2.085,2.653,2.085C143.272,156.159,144.789,154.832,144.789,152.938z
	 M152.18,144.03c0-1.327,1.137-2.463,2.463-2.463c1.327,0,2.465,1.137,2.465,2.463v0.189c1.137-1.516,2.652-2.843,5.116-2.843
	c2.274,0,3.979,0.948,4.927,2.843c1.517-1.706,3.412-2.843,5.686-2.843c3.602,0,5.875,2.274,5.875,6.444v9.097
	c0,1.326-1.137,2.463-2.463,2.463c-1.327,0-2.464-1.137-2.464-2.463l0,0v-7.392c0-2.274-1.138-3.601-2.843-3.601
	c-1.896,0-3.032,1.137-3.032,3.601v7.392c0,1.326-1.138,2.463-2.464,2.463s-2.464-1.137-2.464-2.463v-7.392
	c0-2.274-1.137-3.601-2.843-3.601c-1.895,0-3.031,1.137-3.031,3.601v7.392c0,1.326-1.138,2.463-2.465,2.463
	c-1.326,0-2.463-1.137-2.463-2.463l0,0V144.03z M181.364,144.03c0-1.327,1.138-2.463,2.464-2.463s2.464,1.137,2.464,2.463v0.189
	c1.137-1.516,2.653-2.843,5.116-2.843c2.274,0,3.98,0.948,4.928,2.843c1.516-1.706,3.411-2.843,5.686-2.843
	c3.601,0,5.875,2.274,5.875,6.444v9.097c0,1.326-1.137,2.463-2.464,2.463s-2.464-1.137-2.464-2.463v-7.392
	c0-2.274-1.137-3.601-2.842-3.601c-1.896,0-3.033,1.137-3.033,3.601v7.392c0,1.326-1.137,2.463-2.463,2.463
	c-1.327,0-2.465-1.137-2.465-2.463l0,0v-7.392c0-2.274-1.137-3.601-2.842-3.601c-1.896,0-3.032,1.137-3.032,3.601v7.392
	c0,1.326-1.138,2.463-2.464,2.463s-2.464-1.137-2.464-2.463l0,0V144.03L181.364,144.03z M209.602,154.074L209.602,154.074
	c0-3.79,2.844-5.685,7.013-5.685c1.516,0,2.843,0.189,4.169,0.758v-0.19c0-2.084-1.326-3.222-3.79-3.222
	c-1.327,0-2.464,0.189-3.411,0.569c-0.189,0-0.379,0.189-0.758,0.189c-1.138,0-2.085-0.948-2.085-1.896l0,0
	c0-0.947,0.568-1.706,1.326-1.895c1.517-0.568,3.222-0.947,5.496-0.947c2.653,0,4.737,0.758,5.875,1.895
	c1.327,1.327,1.896,3.222,1.896,5.496v7.96c0,1.326-1.138,2.463-2.274,2.463l0,0c-1.517,0-2.464-0.947-2.464-2.084l0,0
	c-1.137,1.326-2.843,2.273-5.307,2.273C212.256,159.57,209.602,157.676,209.602,154.074z M220.973,152.938v-0.947
	c-0.947-0.379-2.084-0.568-3.222-0.568c-2.085,0-3.411,0.758-3.411,2.463l0,0c0,1.326,1.137,2.085,2.653,2.085
	C219.457,156.159,220.973,154.832,220.973,152.938z M228.363,144.03c0-1.327,1.138-2.463,2.465-2.463
	c1.326,0,2.463,1.137,2.463,2.463v0.758c0.758-1.706,1.896-3.222,3.412-3.222c1.516,0,2.463,0.947,2.463,2.463
	c0,1.327-0.758,2.085-1.895,2.274c-2.465,0.568-3.98,2.463-3.98,6.064v4.549c0,1.326-1.137,2.463-2.463,2.463
	c-1.327,0-2.465-1.137-2.465-2.463V144.03z M240.492,137.776c0-1.327,1.138-2.464,2.465-2.464c1.326,0,2.463,1.137,2.463,2.464
	v19.142c0,1.326-1.137,2.463-2.463,2.463c-1.327,0-2.465-1.137-2.465-2.463V137.776L240.492,137.776z M249.4,163.93
	c-0.759-0.189-1.517-0.758-1.517-2.085c0-1.138,0.758-1.896,1.896-2.085l0,0c0.379,0,0.568,0,0.758,0.189
	c0.379,0.189,0.758,0.189,1.137,0.189c0.947,0,1.326-0.189,1.706-0.947l0.189-0.379l-5.875-13.834
	c-0.189-0.379-0.189-0.758-0.189-1.137c0-1.327,1.137-2.274,2.464-2.274c1.326,0,1.895,0.758,2.463,1.895l3.791,10.044l3.601-10.044
	c0.379-0.948,1.137-1.895,2.464-1.895c1.326,0,2.273,0.947,2.273,2.274c0,0.379-0.189,0.948-0.189,1.137l-6.064,14.592
	c-1.516,3.602-2.842,4.928-5.875,4.928C250.916,164.498,250.158,164.309,249.4,163.93z"/>
<path fill="#15C39A" d="M88.503,150.474c0,14.972-12.129,26.911-27.101,26.911s-27.101-12.129-27.101-26.911
	c0-14.782,12.129-26.911,27.101-26.911S88.503,135.502,88.503,150.474z"/>
<path fill="#FFFFFF" d="M65.003,156.349c0.19,0.948,0.948,1.517,1.896,1.517h2.843l1.706-0.189
	c-2.653,3.79-7.202,5.686-12.129,4.737c-3.98-0.568-7.581-3.411-9.097-7.202c-3.411-8.717,3.032-17.056,11.371-17.056
	c4.359,0,8.149,2.464,10.234,5.496c0.568,0.758,1.706,1.137,2.464,0.568c0.758-0.568,0.947-1.516,0.568-2.463
	c-3.222-4.928-8.718-7.581-14.403-7.202c-7.96,0.568-14.214,7.012-14.782,14.782c-0.569,9.097,6.822,16.677,15.919,16.677
	c4.548,0,8.907-1.895,11.939-5.496l-0.379,1.896v1.706c0,0.947,0.568,1.705,1.516,1.895c0.947,0.189,1.895-0.379,2.084-1.516
	c0-0.189,0-0.189,0-0.379v-10.424h-9.854c-0.948,0-1.896,0.758-1.896,1.896C65.003,155.97,65.003,156.159,65.003,156.349z"/>
</svg>
