<?xml version="1.0" encoding="utf-8"?>
<!-- Generator: Adobe Illustrator 16.0.3, SVG Export Plug-In . SVG Version: 6.00 Build 0)  -->
<!DOCTYPE svg PUBLIC "-//W3C//DTD SVG 1.1//EN" "http://www.w3.org/Graphics/SVG/1.1/DTD/svg11.dtd">
<svg version="1.1" id="Layer_1" xmlns="http://www.w3.org/2000/svg" xmlns:xlink="http://www.w3.org/1999/xlink" x="0px" y="0px"
	 width="316.634px" height="74px" viewBox="0 7 316.634 74" enable-background="new 0 7 316.634 74" xml:space="preserve">
<path fill="#fff" d="M107.692,64.421V47.4h-14.97v17.02h-7.623V24.06h7.622v16.602h14.971V24.06h7.622v40.36L107.692,64.421L107.692,64.421z
	 M143.259,64.42h-6.053l-0.548-1.996c-2.616,1.701-5.669,2.605-8.789,2.607c-5.397,0-7.699-3.697-7.699-8.79
	c0-5.998,2.607-8.3,8.606-8.3h7.089v-3.096c0-3.27-0.907-4.421-5.633-4.421c-2.749,0.02-5.489,0.313-8.179,0.877l-0.907-5.634
	c3.297-0.913,6.701-1.382,10.122-1.395c9.269,0,11.998,3.27,11.998,10.672L143.259,64.42L143.259,64.42z M135.865,53.27h-5.45
	c-2.424,0-3.087,0.662-3.087,2.912c0,2.057,0.663,2.973,2.972,2.973c1.956-0.031,3.873-0.557,5.572-1.525L135.865,53.27z
	 M157.566,65.023c-3.46-0.057-6.892-0.631-10.183-1.7l1.029-5.634c2.858,0.818,5.814,1.246,8.788,1.273
	c3.271,0,3.758-0.762,3.758-2.973c0-1.814-0.366-2.729-5.152-3.881c-7.211-1.76-8.058-3.574-8.058-9.269
	c0-5.938,2.607-8.545,11.03-8.545c2.98,0.003,5.949,0.348,8.85,1.03l-0.762,5.876c-2.68-0.495-5.394-0.777-8.118-0.846
	c-3.209,0-3.758,0.763-3.758,2.546c0,2.364,0.183,2.546,4.185,3.575c8.263,2.188,9.056,3.278,9.056,9.308
	C168.23,61.509,166.469,65.023,157.566,65.023L157.566,65.023z M190.229,64.421V43.84c0-1.578-0.662-2.363-2.362-2.363
	c-1.814,0-5.031,1.09-7.699,2.485v20.459h-7.394V22.847l7.394-1.029v15.33c3.347-1.719,7.026-2.691,10.786-2.852
	c4.908,0,6.662,3.453,6.662,8.728v21.397H190.229L190.229,64.421z M203.073,30.729v-8.545h7.394v8.545H203.073z M203.073,64.421
	V34.906h7.394v29.515H203.073L203.073,64.421z M215.62,35.15c0-7.394,4.299-11.693,14.36-11.693c3.697,0,7.381,0.447,10.97,1.334
	l-0.839,6.601c-3.269-0.62-6.584-0.963-9.909-1.029c-5.275,0-6.968,1.822-6.968,6.098v15.512c0,4.301,1.701,6.098,6.968,6.098
	c3.325-0.064,6.641-0.409,9.909-1.028l0.846,6.608c-3.588,0.888-7.271,1.336-10.969,1.334c-10.062,0-14.36-4.299-14.36-11.692
	L215.62,35.15L215.62,35.15z M256.119,65.023c-10.123,0-12.844-5.572-12.844-11.633v-7.455c0-6.06,2.728-11.631,12.844-11.631
	c10.115,0,12.844,5.572,12.844,11.631v7.455C268.939,59.451,266.219,65.023,256.119,65.023z M256.119,40.631
	c-3.941,0-5.45,1.76-5.45,5.092v7.912c0,3.331,1.524,5.092,5.45,5.092c3.925,0,5.449-1.76,5.449-5.092v-7.943
	c-0.014-3.33-1.531-5.091-5.449-5.091V40.631L256.119,40.631z M288.576,41.088c-2.714,1.23-5.329,2.667-7.821,4.301v19.055h-7.394
	V34.906h6.242l0.488,3.27c2.405-1.628,5.014-2.933,7.76-3.88L288.576,41.088z M316.611,54.604c0,6.547-2.911,10.42-9.756,10.42
	c-2.649-0.027-5.289-0.313-7.883-0.854v12.196l-7.394,1.028V34.906h5.877l0.762,2.485c2.694-2.012,5.968-3.095,9.33-3.087
	c5.938,0,9.086,3.514,9.086,10.245L316.611,54.604L316.611,54.604z M298.98,57.934c2.151,0.475,4.346,0.73,6.547,0.764
	c2.669,0,3.697-1.274,3.697-3.941V44.35c0-2.424-0.906-3.758-3.636-3.758c-2.447,0.088-4.786,1.033-6.608,2.668V57.934
	L298.98,57.934z M29.134,7L0,23.808v40.361l10.946,6.32V30.127l18.188-10.504V7z"/>
<path fill="#fff" d="M40.758,7v32.144H29.133V27.147l-10.945,6.319V74.65l10.946,6.334V48.932h11.624v11.914l10.946-6.312V13.32L40.758,7z"/>
<path fill="#fff" d="M40.758,81L69.89,64.191v-40.36l-10.946-6.32v40.362L40.758,68.377V81z"/>
</svg>
