<?xml version="1.0" encoding="utf-8"?>
<!-- Generator: Adobe Illustrator 16.0.3, SVG Export Plug-In . SVG Version: 6.00 Build 0)  -->
<!DOCTYPE svg PUBLIC "-//W3C//DTD SVG 1.1//EN" "http://www.w3.org/Graphics/SVG/1.1/DTD/svg11.dtd">
<svg version="1.1" id="Layer_1" xmlns="http://www.w3.org/2000/svg" xmlns:xlink="http://www.w3.org/1999/xlink" x="0px" y="0px"
	 width="300.036px" height="72.18px" viewBox="0 113.91 300.036 72.18" enable-background="new 0 113.91 300.036 72.18"
	 xml:space="preserve">
<path d="M92.82,123.342v-3.876h-3.6v3.876h-1.752v-9.3h1.812v3.9h3.6v-3.9h1.812v9.3H92.82z M101.22,123.342h-1.44l-0.132-0.456
	c-0.609,0.392-1.315,0.607-2.04,0.624c-1.272,0-1.824-0.84-1.824-1.992c0-1.368,0.612-1.884,2.04-1.884h1.68v-0.744
	c0-0.744-0.216-1.008-1.332-1.008c-0.649,0.006-1.296,0.075-1.932,0.204L96,116.814c0.783-0.206,1.59-0.311,2.4-0.312
	c2.196,0,2.844,0.744,2.844,2.4L101.22,123.342z M99.504,120.81h-1.296c-0.576,0-0.732,0.156-0.732,0.66
	c0,0.504,0.156,0.672,0.708,0.672c0.461-0.007,0.915-0.126,1.32-0.348V120.81z M104.916,123.51c-0.814-0.013-1.623-0.142-2.4-0.384
	l0.24-1.284c0.677,0.186,1.375,0.282,2.076,0.288c0.78,0,0.888-0.168,0.888-0.672s-0.084-0.624-1.2-0.876
	c-1.704-0.396-1.908-0.816-1.908-2.112c0-1.296,0.588-1.98,2.592-1.98c0.707,0.002,1.411,0.083,2.1,0.24l-0.168,1.332
	c-0.634-0.112-1.276-0.176-1.92-0.192c-0.756,0-0.888,0.168-0.888,0.576c0,0.408,0,0.576,0.984,0.816
	c1.956,0.492,2.136,0.744,2.136,2.124C107.448,122.766,107.028,123.51,104.916,123.51z M112.932,123.378v-4.668
	c0-0.36-0.156-0.54-0.564-0.54c-0.637,0.061-1.257,0.244-1.824,0.54v4.632h-1.752v-9.432l1.752,0.264v2.964
	c0.797-0.392,1.668-0.613,2.556-0.648c1.2,0,1.584,0.78,1.584,1.98v4.872L112.932,123.378z M116.148,115.722v-1.68h1.752v1.644
	L116.148,115.722z M116.148,123.378v-6.744h1.752v6.708L116.148,123.378z M119.292,116.73c0-1.68,1.02-2.664,3.396-2.664
	c0.873-0.001,1.743,0.1,2.592,0.3l-0.204,1.5c-0.772-0.143-1.555-0.223-2.34-0.24c-1.2,0-1.644,0.408-1.644,1.392v3.492
	c0,0.972,0.396,1.392,1.644,1.392c0.785-0.017,1.568-0.097,2.34-0.24l0.204,1.5c-0.849,0.2-1.719,0.301-2.592,0.3
	c-2.4,0-3.396-0.972-3.396-2.664V116.73z M129.156,123.51c-2.4,0-3.036-1.272-3.036-2.64v-1.728c0-1.38,0.648-2.64,3.036-2.64
	c2.388,0,3.036,1.272,3.036,2.64v1.692C132.204,122.214,131.556,123.51,129.156,123.51z M129.156,117.954
	c-0.936,0-1.296,0.396-1.296,1.2v1.8c0,0.756,0.36,1.2,1.296,1.2c0.936,0,1.296-0.396,1.296-1.2v-1.872
	c0-0.756-0.36-1.152-1.296-1.152V117.954z M137.124,118.062c-0.64,0.277-1.257,0.602-1.848,0.972v4.32h-1.752v-6.72H135l0.12,0.744
	c0.572-0.369,1.189-0.664,1.836-0.876L137.124,118.062z M144.12,121.11c0.188,1.131-0.577,2.2-1.708,2.388
	c-0.197,0.033-0.398,0.037-0.596,0.012c-0.625-0.006-1.247-0.07-1.86-0.192v2.712l-1.752,0.264v-9.6h1.392l0.168,0.564
	c0.644-0.461,1.416-0.709,2.208-0.708c1.404,0,2.148,0.804,2.148,2.328V121.11z M139.944,121.866c0.509,0.109,1.027,0.17,1.548,0.18
	c0.636,0,0.876-0.288,0.876-0.9v-2.4c0-0.552-0.216-0.852-0.864-0.852c-0.574,0.021-1.125,0.237-1.56,0.612V121.866z
	 M98.136,137.358H87.468v-6.372h28.572v6.372h-10.68v31.835h-7.2L98.136,137.358z"/>
<path d="M122.628,164.034c2.898-0.015,5.777-0.46,8.544-1.32l1.092,5.28c-3.294,1.187-6.771,1.788-10.272,1.775
	c-8.772,0-11.82-4.067-11.82-10.799v-7.381c0-5.904,2.64-10.896,11.592-10.896c8.952,0,10.956,5.22,10.956,11.244v6h-15.6v1.44
	C117.18,162.714,118.38,164.034,122.628,164.034L122.628,164.034z M117.18,152.311h8.892v-1.416c0-2.641-0.804-4.477-4.248-4.477
	c-3.444,0-4.644,1.836-4.644,4.477V152.311z M151.428,147.114c-2.577,1.162-5.061,2.522-7.428,4.067v18h-6.996v-27.924h5.904
	l0.456,3.096c2.276-1.541,4.746-2.776,7.344-3.672L151.428,147.114z M168.516,147.114c-2.568,1.163-5.044,2.523-7.404,4.067v18
	h-6.995v-27.924h5.903l0.457,3.096c2.275-1.541,4.745-2.776,7.344-3.672L168.516,147.114z M191.928,169.193h-5.736l-0.516-1.896
	c-2.475,1.61-5.363,2.47-8.316,2.472c-5.1,0-7.283-3.504-7.283-8.315c0-5.677,2.472-7.86,8.148-7.86h6.707v-2.928
	c0-3.096-0.863-4.188-5.34-4.188c-2.602,0.029-5.195,0.319-7.74,0.864l-0.863-5.34c3.127-0.865,6.355-1.309,9.6-1.32
	c8.771,0,11.364,3.096,11.364,10.091L191.928,169.193z M184.932,158.634h-5.16c-2.291,0-2.928,0.636-2.928,2.748
	s0.637,2.808,2.809,2.808c1.853-0.027,3.669-0.523,5.279-1.439V158.634z M213.432,134.886c-1.321-0.284-2.668-0.437-4.02-0.456
	c-2.748,0-3.156,1.2-3.156,3.324v3.504h7.116l-0.396,5.568h-6.709v22.367h-6.996v-22.367h-4.476v-5.568h4.476v-3.9
	c0-5.796,2.701-8.664,8.893-8.664c2.027-0.007,4.046,0.263,6,0.804L213.432,134.886z M227.088,169.77
	c-9.6,0-12.156-5.279-12.156-11.016v-7.056c0-5.736,2.58-11.016,12.156-11.016s12.156,5.28,12.156,11.016v7.056
	C239.256,164.49,236.664,169.77,227.088,169.77z M227.088,146.646c-3.732,0-5.16,1.668-5.16,4.799v7.513c0,3.156,1.44,4.8,5.16,4.8
	c3.721,0,5.16-1.668,5.16-4.8v-7.487C232.248,148.314,230.82,146.646,227.088,146.646z M257.256,147.114
	c-2.568,1.163-5.045,2.523-7.404,4.067v18h-6.996v-27.924h5.904l0.456,3.096c2.276-1.541,4.745-2.776,7.345-3.672L257.256,147.114z
	 M276.48,169.193v-19.5c0-1.488-0.637-2.232-2.232-2.232c-2.564,0.305-5.041,1.121-7.284,2.4v19.332h-6.996v-27.936h5.341l0.684,2.4
	c3.487-1.764,7.305-2.778,11.208-2.976c2.212-0.208,4.319,0.984,5.28,2.988c3.49-1.79,7.324-2.809,11.244-2.988
	c4.644,0,6.312,3.264,6.312,8.256v20.255h-6.996v-19.5c0-1.488-0.636-2.232-2.231-2.232c-2.569,0.283-5.051,1.101-7.285,2.4v19.332
	H276.48z"/>
<path fill="#4040B2" d="M43.68,138.15v22.716l19.68-11.352v-22.74L43.68,138.15z"/>
<path fill="#5C4EE5" d="M21.84,126.774l19.68,11.376v22.716l-19.68-11.364V126.774z"/>
<path fill="#5C4EE5" d="M0,114.09v22.728l19.68,11.364v-22.728L0,114.09z M21.84,174.727l19.68,11.363v-22.729l-19.68-11.363
	V174.727z"/>
</svg>
