<?xml version="1.0" encoding="utf-8"?>
<!-- Generator: Adobe Illustrator 27.3.1, SVG Export Plug-In . SVG Version: 6.00 Build 0)  -->
<svg version="1.1"
	 id="svg2" xmlns:rdf="http://www.w3.org/1999/02/22-rdf-syntax-ns#" xmlns:inkscape="http://www.inkscape.org/namespaces/inkscape" xmlns:dc="http://purl.org/dc/elements/1.1/" xmlns:svg="http://www.w3.org/2000/svg" xmlns:sodipodi="http://sodipodi.sourceforge.net/DTD/sodipodi-0.dtd" xmlns:cc="http://creativecommons.org/ns#" inkscape:version="0.48.3.1 r9886" sodipodi:docname="htmlcss.svg"
	 xmlns="http://www.w3.org/2000/svg" xmlns:xlink="http://www.w3.org/1999/xlink" x="0px" y="0px" viewBox="0 0 362.7 512"
	 style="enable-background:new 0 0 362.7 512;" xml:space="preserve">
<style type="text/css">
	.st0{fill:#E44D26;}
	.st1{fill:#F16529;}
	.st2{fill:#EBEBEB;}
	.st3{fill:#FFFFFF;}
</style>
<sodipodi:namedview  bordercolor="#666666" borderopacity="1.0" fit-margin-bottom="0" fit-margin-left="0" fit-margin-right="0" fit-margin-top="0" id="base" inkscape:current-layer="layer1" inkscape:cx="-276.49014" inkscape:cy="244.10462" inkscape:document-units="px" inkscape:pageopacity="0.0" inkscape:pageshadow="2" inkscape:window-height="938" inkscape:window-maximized="1" inkscape:window-width="1280" inkscape:window-x="0" inkscape:window-y="31" inkscape:zoom="0.35" pagecolor="#ffffff" showgrid="false">
	</sodipodi:namedview>
<polygon id="polygon3028" class="st0" points="362.7,100.6 329.7,470.8 181.1,512 33,470.9 0,100.6 "/>
<polygon id="polygon3030" class="st1" points="181.4,480.5 301.4,447.3 329.6,130.9 181.4,130.9 "/>
<polygon id="polygon3032" class="st2" points="117.1,221.7 181.4,221.7 181.4,176.3 181.2,176.3 67.5,176.3 68.6,188.5 79.7,313.6 
	181.4,313.6 181.4,268.2 121.3,268.2 "/>
<polygon id="polygon3034" class="st2" points="127.4,336.4 102.8,336.4 81.8,336.4 88.1,407.7 181.2,433.5 181.4,433.4 181.4,386.2 
	181.2,386.2 130.6,372.6 "/>
<path id="path3036" inkscape:connector-curvature="0" class="st3" d="M33.7,0h23.1v22.8h21.1V0H101v69H77.9V45.9H56.8V69H33.7V0
	L33.7,0z"/>
<path id="path3038" inkscape:connector-curvature="0" class="st3" d="M131.4,22.9H111V0h63.7v22.9h-20.3V69h-23.1L131.4,22.9
	L131.4,22.9z"/>
<path id="path3040" inkscape:connector-curvature="0" class="st3" d="M184.9,0H209l14.8,24.3L238.6,0h24.1v69h-23V34.8l-15.9,24.5
	h-0.4l-15.9-24.5V69h-22.6V0L184.9,0z"/>
<path id="path3042" inkscape:connector-curvature="0" class="st3" d="M274.1,0h23.1v46.2h32.5V69h-55.5V0H274.1z"/>
<polygon id="polygon3044" class="st3" points="181.2,313.6 237.1,313.6 231.9,372.5 181.2,386.2 181.2,433.5 274.3,407.7 275,400 
	285.7,280.4 286.8,268.2 274.5,268.2 181.2,268.2 "/>
<polygon id="polygon3046" class="st3" points="181.2,221.6 181.2,221.7 290.8,221.7 290.8,221.7 290.9,221.7 291.8,211.5 
	293.9,188.5 295,176.3 181.2,176.3 181.2,204.5 "/>
</svg>
