<?xml version="1.0" encoding="utf-8"?>
<!-- Generator: Adobe Illustrator 27.3.1, SVG Export Plug-In . SVG Version: 6.00 Build 0)  -->
<svg version="1.1"
	 id="svg2" xmlns:inkscape="http://www.inkscape.org/namespaces/inkscape" xmlns:sodipodi="http://sodipodi.sourceforge.net/DTD/sodipodi-0.dtd" xmlns:rdf="http://www.w3.org/1999/02/22-rdf-syntax-ns#" xmlns:dc="http://purl.org/dc/elements/1.1/" xmlns:cc="http://creativecommons.org/ns#" xmlns:svg="http://www.w3.org/2000/svg" inkscape:version="0.48.3.1 r9886" sodipodi:docname="htmlcss.svg"
	 xmlns="http://www.w3.org/2000/svg" xmlns:xlink="http://www.w3.org/1999/xlink" x="0px" y="0px" viewBox="0 0 362.7 512"
	 style="enable-background:new 0 0 362.7 512;" xml:space="preserve">
<style type="text/css">
	.st0{fill:#E44D26;}
	.st1{fill:#F16529;}
	.st2{fill:#EBEBEB;}
	.st3{fill:#FFFFFF;}
</style>
<sodipodi:namedview  bordercolor="#666666" borderopacity="1.0" fit-margin-bottom="0" fit-margin-left="0" fit-margin-right="0" fit-margin-top="0" id="base" inkscape:current-layer="layer1" inkscape:cx="-276.49014" inkscape:cy="244.10462" inkscape:document-units="px" inkscape:pageopacity="0.0" inkscape:pageshadow="2" inkscape:window-height="938" inkscape:window-maximized="1" inkscape:window-width="1280" inkscape:window-x="0" inkscape:window-y="31" inkscape:zoom="0.35" pagecolor="#ffffff" showgrid="false">
	</sodipodi:namedview>
<g id="g3054" transform="translate(524,270.18109)">
	<polygon id="polygon3028" class="st0" points="-161.3,-169.6 -194.3,200.6 -342.9,241.8 -491,200.7 -524,-169.6 	"/>
	<polygon id="polygon3030" class="st1" points="-342.6,210.3 -222.6,177.1 -194.4,-139.3 -342.6,-139.3 	"/>
	<polygon id="polygon3032" class="st2" points="-406.9,-48.5 -342.6,-48.5 -342.6,-93.9 -342.8,-93.9 -456.5,-93.9 -455.4,-81.7 
		-444.3,43.4 -342.6,43.4 -342.6,-2 -402.7,-2 	"/>
	<polygon id="polygon3034" class="st2" points="-396.6,66.2 -421.2,66.2 -442.2,66.2 -435.9,137.5 -342.8,163.3 -342.6,163.2 
		-342.6,116 -342.8,116 -393.4,102.4 	"/>
	<path id="path3036" inkscape:connector-curvature="0" d="M-490.3-270.2h23.1v22.8h21.1v-22.8h23.1v69h-23.1v-23.1h-21.1v23.1h-23.1
		L-490.3-270.2L-490.3-270.2z"/>
	<path id="path3038" inkscape:connector-curvature="0" d="M-392.6-247.3H-413v-22.9h63.7v22.9h-20.3v46.1h-23.1L-392.6-247.3
		L-392.6-247.3z"/>
	<path id="path3040" inkscape:connector-curvature="0" d="M-339.1-270.2h24.1l14.8,24.3l14.8-24.3h24.1v69h-23v-34.2l-15.9,24.5
		h-0.4l-15.9-24.5v34.2h-22.6L-339.1-270.2L-339.1-270.2z"/>
	<path id="path3042" inkscape:connector-curvature="0" d="M-249.9-270.2h23.1v46.2h32.5v22.8h-55.5V-270.2z"/>
	<polygon id="polygon3044" class="st3" points="-342.8,43.4 -286.9,43.4 -292.1,102.3 -342.8,116 -342.8,163.3 -249.7,137.5 
		-249,129.8 -238.3,10.2 -237.2,-2 -249.5,-2 -342.8,-2 	"/>
	<polygon id="polygon3046" class="st3" points="-342.8,-48.6 -342.8,-48.5 -233.2,-48.5 -233.2,-48.5 -233.1,-48.5 -232.2,-58.7 
		-230.1,-81.7 -229,-93.9 -342.8,-93.9 -342.8,-65.7 	"/>
</g>
</svg>
