<?xml version="1.0" encoding="utf-8"?>
<!-- Generator: Adobe Illustrator 27.3.1, SVG Export Plug-In . SVG Version: 6.00 Build 0)  -->
<svg version="1.1" id="Layer_1" xmlns="http://www.w3.org/2000/svg" xmlns:xlink="http://www.w3.org/1999/xlink" x="0px" y="0px"
	 viewBox="0 0 471.1 157.4" style="enable-background:new 0 0 471.1 157.4;" xml:space="preserve">
<style type="text/css">
	.st0{fill:#E44D26;}
	.st1{fill:#F16529;}
	.st2{fill:#EBEBEB;}
	.st3{fill:#FFFFFF;}
</style>
<polygon id="polygon3028" class="st0" points="471.1,0 458.5,141.6 401.7,157.4 345,141.7 332.4,0 "/>
<polygon id="polygon3030" class="st1" points="401.8,145.4 447.7,132.6 458.5,11.6 401.8,11.6 "/>
<polygon id="polygon3032" class="st2" points="377.2,46.4 401.8,46.4 401.8,29 401.7,29 358.2,29 358.6,33.6 362.9,81.5 401.8,81.5 
	401.8,64.1 378.8,64.1 "/>
<polygon id="polygon3034" class="st2" points="381.1,90.2 371.7,90.2 363.7,90.2 366.1,117.5 401.7,127.4 401.8,127.3 401.8,109.3 
	401.7,109.3 382.3,104.1 "/>
<g>
	<path id="path3036" d="M0,41.3h24.9v24.6h22.8V41.3h24.9v74.6H47.8v-25H25v25H0.1L0,41.3L0,41.3z"/>
	<path id="path3038" d="M105.6,66.1h-22V41.3h68.9v24.8h-22V116h-24.9L105.6,66.1L105.6,66.1z"/>
	<path id="path3040" d="M163.4,41.3h26l16,26.2l16-26.2h26v74.6h-24.8v-37l-17.2,26.5H205l-17.2-26.5v37h-24.4L163.4,41.3
		L163.4,41.3z"/>
	<path id="path3042" d="M259.9,41.3h25v50H320V116h-60V41.3H259.9z"/>
</g>
<polygon id="polygon3044" class="st3" points="401.7,81.5 423.1,81.5 421.1,104 401.7,109.3 401.7,127.3 437.3,117.5 437.6,114.5 
	441.6,68.8 442.1,64.1 437.4,64.1 401.7,64.1 "/>
<polygon id="polygon3046" class="st3" points="401.7,46.3 401.7,46.4 443.6,46.4 443.6,46.4 443.7,46.4 444,42.4 444.8,33.6 
	445.2,29 401.7,29 401.7,39.8 "/>
</svg>
