<?xml version="1.0" encoding="utf-8"?>
<!-- Generator: Adobe Illustrator 16.0.3, SVG Export Plug-In . SVG Version: 6.00 Build 0)  -->
<!DOCTYPE svg PUBLIC "-//W3C//DTD SVG 1.1//EN" "http://www.w3.org/Graphics/SVG/1.1/DTD/svg11.dtd">
<svg version="1.1" id="Layer_1" xmlns="http://www.w3.org/2000/svg" xmlns:xlink="http://www.w3.org/1999/xlink" x="0px" y="0px"
	 width="107.407px" height="35.879px" viewBox="6.3 12.06 107.407 35.879" enable-background="new 6.3 12.06 107.407 35.879"
	 xml:space="preserve">
<path d="M6.3,21.475H12v5.63h5.213v-5.63h5.7v17.05h-5.7v-5.7H12v5.7H6.3V21.475z M30.407,27.13H25.38v-5.654h15.736v5.654h-5.02
	v11.397h-5.7V27.13H30.407z M43.614,21.475h5.943l3.656,6l3.652-6H62.8v17.05h-5.676v-8.452l-3.92,6.063h-0.098L49.2,30.074v8.451
	h-5.576L43.614,21.475z M65.645,21.475h5.699V32.9h8.016v5.636H65.645V21.475z"/>
<path fill="#E44D26" d="M82.07,12.06h31.637l-2.882,32.288L97.87,47.939l-12.92-3.586L82.07,12.06z"/>
<path fill="#F16529" d="M108.359,42.293l2.464-27.592H97.9v30.494L108.359,42.293z"/>
<path fill="#EBEBEB" d="M92.65,26.678l-0.362-4.056H97.9v-3.96h-9.93l1.067,11.977H97.9v-3.959L92.65,26.678z M89.204,32.62
	l0.555,6.22l8.113,2.252l0.019-0.005v-4.12l-0.018,0.006l-4.4-1.201l-0.281-3.16h-2.144L89.204,32.62z"/>
<path fill="#FFFFFF" d="M106.986,27.74l0.097-1.064h-9.206v3.96h4.877l-0.46,5.138l-4.417,1.191v4.12l8.12-2.25l0.06-0.67
	L106.986,27.74z M97.887,22.622h9.566l0.355-3.97h-9.922v3.95V22.622z"/>
</svg>
