<?xml version="1.0" encoding="utf-8"?>
<!-- Generator: Adobe Illustrator 27.3.1, SVG Export Plug-In . SVG Version: 6.00 Build 0)  -->
<svg version="1.1"
	 id="Layer_1" xmlns:rdf="http://www.w3.org/1999/02/22-rdf-syntax-ns#" xmlns:dc="http://purl.org/dc/elements/1.1/" xmlns:cc="http://creativecommons.org/ns#"
	 xmlns="http://www.w3.org/2000/svg" xmlns:xlink="http://www.w3.org/1999/xlink" x="0px" y="0px" viewBox="0 0 100 34.6"
	 style="enable-background:new 0 0 100 34.6;" xml:space="preserve">
<style type="text/css">
	.st0{fill-rule:evenodd;clip-rule:evenodd;fill:#040404;}
	.st1{filter:url(#Adobe_OpacityMaskFilter);}
	.st2{fill-rule:evenodd;clip-rule:evenodd;fill:#FFFFFF;}
	.st3{mask:url(#b_00000013167527982933118380000016326412924555565741_);fill-rule:evenodd;clip-rule:evenodd;fill:#040404;}
	.st4{filter:url(#Adobe_OpacityMaskFilter_00000052078740781781406260000003895005876385175995_);}
	.st5{mask:url(#d_00000108291106221601079530000006727822429681028024_);fill-rule:evenodd;clip-rule:evenodd;fill:#040404;}
	.st6{fill-rule:evenodd;clip-rule:evenodd;fill:#040404;stroke:#040404;stroke-width:0.75;}
	.st7{filter:url(#Adobe_OpacityMaskFilter_00000101788897524707942830000016204937346462756025_);}
	.st8{mask:url(#f_00000161619025030422473470000012944154112416138141_);fill-rule:evenodd;clip-rule:evenodd;fill:#040404;}
</style>
<g>
	<path class="st0" d="M26.9,32.6c0,0.4,0.2,0.8,0.5,1c0.3,0.3,0.6,0.4,1,0.4c0.4,0,0.8-0.1,1-0.4c0.3-0.3,0.4-0.6,0.4-1V17.9
		c0-0.4-0.1-0.8-0.4-1c-0.3-0.3-0.6-0.4-1-0.4c-0.4,0-0.8,0.1-1,0.4s-0.4,0.6-0.4,1L26.9,32.6z"/>
	<g transform="translate(32 15.6)">
		<defs>
			<filter id="Adobe_OpacityMaskFilter" filterUnits="userSpaceOnUse" x="0.5" y="0.2" width="12.7" height="18.8">
				<feColorMatrix  type="matrix" values="1 0 0 0 0  0 1 0 0 0  0 0 1 0 0  0 0 0 1 0"/>
			</filter>
		</defs>
		
			<mask maskUnits="userSpaceOnUse" x="0.5" y="0.2" width="12.7" height="18.8" id="b_00000013167527982933118380000016326412924555565741_">
			<g class="st1">
				<polygon id="a_00000054968778297059410580000017826449486162769544_" class="st2" points="0.5,19 13.2,19 13.2,0.2 0.5,0.2 				
					"/>
			</g>
		</mask>
		<path class="st3" d="M0.5,12.5c0,0.9,0.2,1.7,0.5,2.5c0.3,0.8,0.8,1.5,1.4,2.1s1.3,1,2.1,1.4C5.3,18.8,6.2,19,7.1,19
			c0.7,0,1.4-0.1,2-0.3c0.6-0.2,1.2-0.5,1.7-0.9c0.5-0.3,1-0.8,1.4-1.3c0.4-0.5,0.7-1.1,0.9-1.7c0.1-0.2,0.1-0.3,0.1-0.6
			c0-0.3-0.1-0.7-0.4-1c-0.3-0.3-0.6-0.5-1.1-0.5c-0.2,0-0.5,0.1-0.7,0.2c-0.3,0.2-0.5,0.4-0.6,0.6c-0.3,0.7-0.7,1.2-1.3,1.6
			c-0.6,0.5-1.3,0.7-2.1,0.7c-0.5,0-0.9-0.1-1.4-0.3c-0.5-0.2-0.8-0.4-1.2-0.8c-0.3-0.3-0.6-0.7-0.8-1.1c-0.2-0.4-0.3-0.9-0.3-1.4
			V6.7c0-0.5,0.1-0.9,0.3-1.4c0.2-0.4,0.4-0.8,0.8-1.1c0.3-0.3,0.7-0.6,1.2-0.8c0.4-0.2,0.9-0.3,1.4-0.3c0.8,0,1.4,0.2,2.1,0.6
			c0.6,0.4,1,1,1.3,1.6c0.3,0.6,0.7,0.9,1.3,0.9c0.5,0,0.8-0.2,1.1-0.5c0.2-0.3,0.4-0.6,0.4-1c0-0.1,0-0.2,0-0.4
			c0-0.1-0.1-0.3-0.2-0.4c-0.2-0.6-0.6-1.1-1-1.6c-0.4-0.5-0.9-0.9-1.4-1.2C10.2,0.9,9.6,0.6,9,0.4C8.4,0.3,7.8,0.2,7.1,0.2
			c-0.9,0-1.8,0.2-2.5,0.5C3.7,1,3,1.5,2.4,2.1s-1,1.3-1.4,2.1C0.7,4.9,0.5,5.8,0.5,6.7L0.5,12.5z"/>
	</g>
	<path class="st0" d="M48.1,32.6c0,0.4,0.2,0.8,0.5,1s0.6,0.4,1,0.4s0.8-0.1,1-0.4c0.3-0.3,0.4-0.6,0.4-1V17.9c0-0.4-0.1-0.8-0.4-1
		c-0.3-0.3-0.6-0.4-1-0.4s-0.8,0.1-1,0.4s-0.4,0.6-0.4,1L48.1,32.6z M53.8,32.6c0,0.4,0.1,0.8,0.4,1s0.6,0.4,1,0.4s0.8-0.1,1-0.4
		c0.3-0.3,0.4-0.6,0.4-1V22.3c0-0.5,0.1-0.9,0.3-1.4c0.2-0.4,0.4-0.8,0.8-1.1c0.3-0.3,0.7-0.6,1.2-0.8c0.4-0.2,0.9-0.3,1.4-0.3
		c0.5,0,1,0.1,1.4,0.3c0.4,0.2,0.8,0.5,1.2,0.8c0.3,0.3,0.6,0.7,0.8,1.1c0.2,0.5,0.3,0.9,0.3,1.4v10.3c0,0.4,0.2,0.8,0.5,1
		s0.6,0.4,1,0.4c0.4,0,0.8-0.1,1-0.4c0.3-0.3,0.4-0.6,0.4-1V22.3c0-0.9-0.2-1.7-0.5-2.5c-0.3-0.8-0.8-1.5-1.4-2.1s-1.3-1.1-2.1-1.4
		c-0.8-0.3-1.7-0.5-2.5-0.5s-1.7,0.2-2.5,0.5c-0.8,0.3-1.5,0.8-2.1,1.4s-1,1.3-1.4,2.1c-0.3,0.8-0.5,1.6-0.5,2.5L53.8,32.6z"/>
	<g transform="translate(69 15.6)">
		<defs>
			
				<filter id="Adobe_OpacityMaskFilter_00000114760653498450127740000003991808115312174231_" filterUnits="userSpaceOnUse" x="0.7" y="0.2" width="13.1" height="18.8">
				<feColorMatrix  type="matrix" values="1 0 0 0 0  0 1 0 0 0  0 0 1 0 0  0 0 0 1 0"/>
			</filter>
		</defs>
		
			<mask maskUnits="userSpaceOnUse" x="0.7" y="0.2" width="13.1" height="18.8" id="d_00000108291106221601079530000006727822429681028024_">
			<g style="filter:url(#Adobe_OpacityMaskFilter_00000114760653498450127740000003991808115312174231_);">
				<polygon id="c_00000069368072120729374920000015335093291951071904_" class="st2" points="0.7,19 13.8,19 13.8,0.2 0.7,0.2 				
					"/>
			</g>
		</mask>
		<path class="st5" d="M0.7,12.5c0,0.9,0.2,1.7,0.5,2.5c0.3,0.8,0.8,1.5,1.4,2.1s1.3,1,2.1,1.4C5.5,18.8,6.4,19,7.3,19
			c0.9,0,1.7-0.2,2.5-0.5c0.8-0.3,1.5-0.8,2.1-1.4s1.1-1.3,1.4-2.1c0.3-0.8,0.5-1.6,0.5-2.5v-2.2c0-0.4-0.1-0.8-0.4-1.1
			c-0.3-0.3-0.6-0.4-1-0.4H9.4C9,8.9,8.7,9,8.4,9.3C8.1,9.6,8,9.9,8,10.3s0.1,0.8,0.4,1.1c0.3,0.3,0.6,0.4,1,0.4h1.4v0.7
			c0,0.5-0.1,0.9-0.3,1.4c-0.2,0.5-0.5,0.8-0.8,1.1c-0.3,0.3-0.7,0.6-1.1,0.8c-0.5,0.2-0.9,0.3-1.4,0.3c-0.5,0-0.9-0.1-1.4-0.3
			c-0.5-0.2-0.8-0.4-1.2-0.8c-0.3-0.3-0.6-0.7-0.8-1.1c-0.2-0.4-0.3-0.9-0.3-1.4V6.7c0-0.5,0.1-0.9,0.3-1.4c0.2-0.4,0.4-0.8,0.8-1.1
			c0.3-0.3,0.7-0.6,1.2-0.8c0.4-0.2,0.9-0.3,1.4-0.3c0.8,0,1.4,0.2,2.1,0.6c0.6,0.4,1,1,1.3,1.7C10.8,5.7,11,6,11.2,6.1
			c0.2,0.1,0.5,0.2,0.8,0.2c0.5,0,0.8-0.2,1.1-0.5c0.2-0.3,0.4-0.6,0.4-1V4.5c0-0.1-0.1-0.2-0.1-0.3c-0.2-0.6-0.6-1.2-1-1.7
			C12,2.1,11.5,1.7,11,1.3C10.4,1,9.8,0.7,9.2,0.5s-1.3-0.3-2-0.3c-0.9,0-1.7,0.2-2.5,0.5C3.9,1.1,3.2,1.5,2.6,2.1
			c-0.6,0.6-1,1.3-1.4,2.1C0.9,5,0.7,5.8,0.7,6.7L0.7,12.5z"/>
	</g>
	<path class="st0" d="M94.3,26.4H90c0.2-0.5,0.4-0.9,0.6-1.3s0.3-0.8,0.5-1.2c0.2-0.4,0.3-0.8,0.5-1.2c0.2-0.4,0.3-0.8,0.5-1.2
		L94.3,26.4z M84.4,32.1c0,0.1-0.1,0.2-0.1,0.3c0,0.1,0,0.2,0,0.3c0,0.3,0.1,0.7,0.4,1c0.2,0.3,0.6,0.5,1.1,0.5
		c0.3,0,0.5-0.1,0.8-0.2c0.2-0.1,0.4-0.4,0.6-0.7c0.3-0.7,0.5-1.3,0.8-2c0.3-0.6,0.5-1.3,0.8-1.9h6.8l1.7,3.9
		c0.2,0.6,0.7,0.9,1.3,0.9c0.5,0,0.8-0.2,1.1-0.5c0.2-0.3,0.4-0.6,0.4-1c0-0.2-0.1-0.3-0.1-0.6l-6.4-14.9c-0.1-0.3-0.4-0.6-0.8-0.8
		c-0.1-0.1-0.2-0.1-0.3-0.1c-0.1,0-0.2,0-0.3,0c-0.6,0-1,0.3-1.3,0.9L84.4,32.1z"/>
	<path class="st6" d="M12.2,16.2l-8,11.4 M12.2,16.2l16.5-4.1 M12.5,16.6l4.6,7.7 M10.5,14.3L3.8,8.7 M13.2,13.1l4-8.3"/>
	<g transform="translate(0 23.6)">
		<defs>
			
				<filter id="Adobe_OpacityMaskFilter_00000046303455940017199480000009667743491838123421_" filterUnits="userSpaceOnUse" x="0" y="0.7" width="7.3" height="7.3">
				<feColorMatrix  type="matrix" values="1 0 0 0 0  0 1 0 0 0  0 0 1 0 0  0 0 0 1 0"/>
			</filter>
		</defs>
		
			<mask maskUnits="userSpaceOnUse" x="0" y="0.7" width="7.3" height="7.3" id="f_00000161619025030422473470000012944154112416138141_">
			<g style="filter:url(#Adobe_OpacityMaskFilter_00000046303455940017199480000009667743491838123421_);">
				<polygon id="e_00000093149338000857494580000000583736320405371569_" class="st2" points="0,0.7 0,8 7.3,8 7.3,0.7 				"/>
			</g>
		</mask>
		<path class="st8" d="M0,4.6c-0.2-2,1.4-3.8,3.3-3.9c2-0.2,3.8,1.3,3.9,3.4c0.2,2-1.3,3.8-3.4,3.9C1.9,8.1,0.2,6.6,0,4.6"/>
	</g>
	<path class="st0" d="M16,24.4c0.1-0.6,0.6-1.1,1.2-1c0.6,0.1,1.1,0.6,1,1.2c-0.1,0.6-0.6,1.1-1.2,1C16.4,25.6,15.9,25,16,24.4
		 M2.3,9.6C1.9,8.8,2.2,7.8,3,7.4c0.8-0.4,1.8-0.1,2.2,0.7C5.6,9,5.3,9.9,4.5,10.3S2.7,10.4,2.3,9.6 M26.1,12
		c-0.1-1.2,0.8-2.3,2-2.4c1.2-0.1,2.3,0.8,2.4,2c0.1,1.2-0.8,2.3-2,2.4C27.3,14.2,26.2,13.3,26.1,12 M16.1,0.6c1.2-1,3-0.8,4,0.4
		c1,1.2,0.8,3-0.4,4c-1.2,1-3,0.8-3.9-0.4C14.7,3.4,14.9,1.6,16.1,0.6 M8.5,11.5c2.3-1.9,5.7-1.5,7.6,0.8c1.9,2.3,1.5,5.7-0.8,7.6
		c-2.3,1.9-5.7,1.5-7.6-0.8C5.9,16.8,6.2,13.4,8.5,11.5"/>
</g>
</svg>
