<?xml version="1.0" encoding="UTF-8"?>
<svg xmlns="http://www.w3.org/2000/svg" xmlns:xlink="http://www.w3.org/1999/xlink" fill="none" height="49" viewBox="0 0 233 49" width="233">
  <linearGradient id="a" gradientUnits="userSpaceOnUse" x1=".434122" x2="19.0818" y1="6.65838" y2="46.8768">
    <stop offset=".1" stop-color="#fc801d"></stop>
    <stop offset=".59" stop-color="#fe2857"></stop>
  </linearGradient>
  <linearGradient id="b" gradientUnits="userSpaceOnUse" x1="4.13899" x2="48.1646" y1="45.9529" y2="1.92041">
    <stop offset=".21" stop-color="#fe2857"></stop>
    <stop offset=".7" stop-color="#007eff"></stop>
  </linearGradient>
  <clipPath id="c">
    <path d="m.974121.9375h231.5v48h-231.5z"></path>
  </clipPath>
  <g clip-path="url(#c)">
    <path d="m63.9741 36.1572h4.095v-22.47h-4.095zm20.055-16.05c-.885-.5175-1.92-.7725-3.0975-.7725-1.26 0-2.3625.2925-3.3.885-.7575.4725-1.365 1.1175-1.8375 1.9125v-2.4075h-3.675v16.44h3.7875v-9.5175c0-.7725.1575-1.455.4725-2.0625s.765-1.0725 1.3425-1.41 1.2375-.5025 1.9875-.5025c.6975 0 1.2975.15 1.8.4425s.885.72 1.155 1.275.405 1.23.405 2.025v9.7575h3.7725v-10.335c0-1.35-.2475-2.5125-.735-3.48s-1.185-1.7175-2.07-2.2275zm11.1375-4.395h-3.5325v2.6625c0 .3975-.12.72-.3675.9675-.2475.255-.57.375-.9825.375h-1.8l-.015 3.2925h2.8875l.015 8.7825c0 .8325.195 1.5825.585 2.25.39.66.9375 1.185 1.635 1.56s1.4925.5625 2.37.5625h3.5475v-3.2925h-2.79c-.45 0-.825-.15-1.1175-.4425s-.4425-.6675-.4425-1.1175l-.015-8.295h4.365l.015-3.2925h-4.365v-4.0125zm18.2104 4.7175c-1.26-.7275-2.7-1.095-4.32-1.095s-3.023.375-4.328 1.1175c-1.297.7425-2.325 1.77-3.075 3.075s-1.125 2.7675-1.125 4.38.375 3.1275 1.118 4.4475c.742 1.32 1.762 2.34 3.052 3.0825 1.29.735 2.745 1.11 4.358 1.11 1.275 0 2.437-.195 3.48-.5925 1.05-.3975 1.942-.96 2.677-1.6875s1.298-1.5975 1.688-2.6175h-4.125c-.42.555-.945.99-1.575 1.2975s-1.343.465-2.138.465c-.9 0-1.702-.2175-2.415-.66-.712-.4425-1.267-1.05-1.672-1.8375-.323-.6225-.51-1.32-.585-2.0775h12.967v-.915c0-1.6725-.352-3.1575-1.05-4.455-.697-1.2975-1.68-2.31-2.947-3.045zm-8.91 5.8725c.097-.54.255-1.05.502-1.515.405-.765.96-1.365 1.673-1.8.712-.435 1.515-.6525 2.415-.6525s1.695.225 2.385.675 1.222 1.0725 1.597 1.8675c.21.4425.353.915.443 1.4175h-9.015zm15.652 9.855h3.788v-22.47h-3.788zm7.448 0h3.787v-22.47h-3.787zm11.227-6.435v-10.4625h-3.855v10.4625zm4.898-1.2375c0 .795-.173 1.4925-.518 2.1s-.825 1.08-1.44 1.4175-1.327.5025-2.13.5025h-4.672v3.645h4.747c1.583 0 2.978-.3075 4.185-.915 1.2-.6075 2.138-1.4625 2.813-2.565.667-1.1025 1.005-2.3775 1.005-3.84v-15.15h-3.998v14.7975zm-4.575-14.1525h-4.32v3.7575h4.32zm22.567 21.825h4.095v-22.47h-4.095zm22.658-21.0225c-1.673-.96-3.57-1.4475-5.693-1.4475h-8.43v22.47h8.43c2.123 0 4.013-.48 5.693-1.4475s2.985-2.295 3.922-3.9975c.945-1.7025 1.41-3.63 1.41-5.7975s-.472-4.095-1.41-5.7975c-.945-1.7025-2.25-3.03-3.922-3.9975zm.382 13.8975c-.57 1.17-1.387 2.0625-2.437 2.7s-2.28.945-3.668.945h-4.395v-15.5025h4.395c1.388 0 2.61.315 3.668.945 1.057.63 1.867 1.53 2.437 2.7s.863 2.535.863 4.11-.285 2.94-.863 4.11zm12.173-2.4375h10.95v-3.465h-10.95v-5.8875h12.037v-3.5475h-15.937v22.47h16.26v-3.5475h-12.36zm26.722-12.9075h-4.32l-8.152 22.47h4.14l1.762-5.3925h9.023l1.912 5.3925h4.043zm-5.572 13.935 3.03-9.0075.337-1.395.353 1.395 3.225 9.0075h-6.953z" fill="#fff"></path>
    <path d="m12.9366 5.30859h-8.90998c-1.6875 0-3.052499 1.37229-3.052499 3.05202v8.63119c0 .8923.389999 1.7397 1.064999 2.3171l28.61998 24.5286c.555.4725 1.26.7349 1.9875.7349h8.91c1.6875 0 3.0525-1.3648 3.0525-3.052v-8.6311c0-.8924-.39-1.7398-1.065-2.3172l-28.62-24.52862c-.555-.47243-1.26-.73489-1.9875-.73489z" fill="#ff8100"></path>
    <path d="m11.8641 5.30859h-7.83748c-1.6875 0-3.052499 1.36479-3.052499 3.05202v9.81599c0 .1424.007501.2924.029999.4349l3.96 27.7006c.2175 1.5073 1.5 2.6246 3.0225 2.6246h11.75248c1.6875 0 3.0525-1.3648 3.0525-3.052v-13.9028c0-.33-.06-.6524-.1575-.9674l-7.875-23.62124c-.4125-1.2448-1.5825-2.08467-2.895-2.08467z" fill="url(#a)"></path>
    <path d="m45.9215.944998h-25.4775c-1.2225 0-2.325.727382-2.805 1.852212l-12.05251 28.11309c-.165.3824-.2475.7874-.2475 1.1998v13.7678c0 1.6873 1.365 3.052 3.0525 3.052h13.47751c.6 0 1.1925-.1799 1.695-.5174l24.0525-16.0474c.8475-.57 1.3575-1.5223 1.3575-2.5421v-25.83348c0-1.68724-1.365-3.05202-3.0525-3.05202z" fill="url(#b)"></path>
    <path d="m39.9741 9.9375h-29.99998v30h29.99998z" fill="#000"></path>
    <path d="m20.3541 22.98h-2.235v-7.3275h2.235v-1.9575h-6.63v1.9575h2.235v7.3275h-2.235v1.9575h6.63zm4.41-9.2925v7.5525c0 .33-.0675.615-.21.87s-.3375.45-.5925.5925-.5475.21-.87.21h-1.6125v2.025h1.89c.6825 0 1.29-.15 1.8375-.4575s.975-.7275 1.2825-1.2675.465-1.1475.465-1.8225v-7.7025zm-11.04 22.5h12v-2.25h-12z" fill="#fff"></path>
  </g>
</svg>
