<?xml version="1.0" encoding="utf-8"?>
<!-- Generator: Adobe Illustrator 16.0.3, SVG Export Plug-In . SVG Version: 6.00 Build 0)  -->
<!DOCTYPE svg PUBLIC "-//W3C//DTD SVG 1.1//EN" "http://www.w3.org/Graphics/SVG/1.1/DTD/svg11.dtd">
<svg version="1.1" id="Layer_1" xmlns="http://www.w3.org/2000/svg" xmlns:xlink="http://www.w3.org/1999/xlink" x="0px" y="0px"
	 width="92.201px" height="48.104px" viewBox="13.899 3.948 92.201 48.104" enable-background="new 13.899 3.948 92.201 48.104"
	 xml:space="preserve">
<path fill="#466BB0" d="M25.93,52.052l-12.031-6.011h32.069L25.93,52.052z M25.93,19.983L13.899,44.035l12.031-2.008V19.983z
	 M27.927,3.948v38.079l18.041,2.008L27.927,3.948z"/>
<path d="M58.497,20.33v19.018h-4.2V20.33H58.497z M64.943,35.9c0.174,0.298,0.396,0.52,0.645,0.72
	c0.273,0.198,0.57,0.321,0.917,0.42s0.694,0.124,1.065,0.124c0.285,0.002,0.568-0.031,0.844-0.1c0.298-0.075,0.57-0.15,0.793-0.299
	c0.236-0.125,0.439-0.304,0.595-0.521c0.15-0.224,0.248-0.496,0.248-0.843c0-0.57-0.372-0.992-1.14-1.301
	c-0.744-0.272-1.801-0.569-3.15-0.843l-1.611-0.446c-0.521-0.174-0.992-0.396-1.389-0.67c-0.402-0.27-0.74-0.625-0.992-1.039
	c-0.248-0.42-0.371-0.917-0.371-1.538c0-0.893,0.174-1.612,0.52-2.182c0.346-0.57,0.793-1.017,1.363-1.34
	c0.572-0.323,1.216-0.57,1.9-0.694c0.721-0.128,1.451-0.195,2.182-0.198c0.726-0.002,1.449,0.073,2.158,0.223
	c0.693,0.15,1.313,0.372,1.883,0.72c0.546,0.347,1.018,0.793,1.365,1.34c0.371,0.57,0.569,1.264,0.645,2.107h-3.596
	c-0.049-0.72-0.321-1.215-0.817-1.488c-0.548-0.268-1.15-0.403-1.761-0.397c-0.223,0-0.445,0.025-0.693,0.05s-0.47,0.074-0.67,0.174
	c-0.2,0.1-0.372,0.223-0.52,0.397c-0.148,0.174-0.224,0.397-0.224,0.67c0,0.347,0.124,0.62,0.372,0.818
	c0.248,0.223,0.57,0.397,0.967,0.52c0.449,0.139,0.904,0.255,1.364,0.347l1.562,0.348l1.612,0.445
	c0.493,0.166,0.96,0.399,1.388,0.694c0.397,0.298,0.744,0.646,0.992,1.101c0.248,0.454,0.373,0.967,0.373,1.611
	c0,0.917-0.175,1.66-0.546,2.279c-0.351,0.599-0.834,1.107-1.413,1.488c-0.595,0.373-1.264,0.646-2.008,0.793
	c-0.76,0.15-1.531,0.226-2.307,0.224c-0.783,0.006-1.565-0.077-2.33-0.248c-0.77-0.15-1.438-0.42-2.033-0.793
	c-0.6-0.372-1.102-0.882-1.463-1.488c-0.372-0.62-0.596-1.388-0.62-2.306h3.595c0.051,0.47,0.124,0.818,0.299,1.115L64.943,35.9z
	 M83.613,25.562v2.53h-2.754V34.9c0,0.645,0.101,1.065,0.322,1.3c0.223,0.233,0.646,0.321,1.301,0.321l0.619-0.024l0.57-0.074v2.927
	c-0.322,0.049-0.67,0.1-1.066,0.1l-1.14,0.025c-0.556-0.002-1.11-0.044-1.659-0.125c-0.521-0.074-0.992-0.223-1.389-0.47
	c-0.396-0.223-0.72-0.569-0.941-0.991c-0.223-0.423-0.348-0.992-0.348-1.687V28.1H74.85v-2.53h2.279v-4.116h3.744v4.116
	L83.613,25.562z M85.514,23.43v-3.1h3.77v3.124h-3.77V23.43z M89.307,25.562v13.76h-3.771v-13.76H89.307z M92.366,29.455
	c0.347-0.893,0.817-1.66,1.438-2.28c0.619-0.62,1.363-1.116,2.229-1.463c0.866-0.347,1.835-0.52,2.926-0.52s2.058,0.174,2.95,0.52
	c0.867,0.347,1.636,0.843,2.256,1.463c0.62,0.62,1.1,1.388,1.438,2.28s0.496,1.884,0.496,3c0,1.1-0.174,2.083-0.496,2.975
	c-0.347,0.894-0.817,1.637-1.438,2.28c-0.641,0.641-1.41,1.14-2.256,1.463c-0.868,0.347-1.86,0.496-2.95,0.496
	s-2.058-0.174-2.926-0.496c-0.868-0.347-1.612-0.817-2.229-1.463c-0.621-0.62-1.101-1.388-1.438-2.28
	c-0.339-0.892-0.496-1.884-0.496-2.975S92.044,30.348,92.366,29.455z M95.813,34.066c0.1,0.521,0.297,0.992,0.545,1.414
	c0.247,0.412,0.598,0.754,1.017,0.992c0.422,0.248,0.967,0.371,1.587,0.371s1.165-0.123,1.611-0.371
	c0.428-0.236,0.785-0.578,1.041-0.992c0.262-0.437,0.446-0.914,0.545-1.414c0.1-0.531,0.149-1.07,0.148-1.611
	c0.001-0.541-0.049-1.08-0.148-1.612c-0.1-0.52-0.299-0.992-0.545-1.413c-0.258-0.414-0.615-0.755-1.041-0.992
	c-0.444-0.248-0.967-0.397-1.611-0.397s-1.165,0.124-1.587,0.397c-0.413,0.245-0.763,0.584-1.017,0.992
	c-0.248,0.397-0.446,0.868-0.545,1.413c-0.1,0.532-0.148,1.071-0.149,1.612C95.639,33,95.713,33.555,95.813,34.066L95.813,34.066z"
	/>
</svg>
