<?xml version="1.0" encoding="utf-8"?>
<!-- Generator: Adobe Illustrator 16.0.3, SVG Export Plug-In . SVG Version: 6.00 Build 0)  -->
<!DOCTYPE svg PUBLIC "-//W3C//DTD SVG 1.1//EN" "http://www.w3.org/Graphics/SVG/1.1/DTD/svg11.dtd">
<svg version="1.1" id="Layer_1" xmlns="http://www.w3.org/2000/svg" xmlns:xlink="http://www.w3.org/1999/xlink" x="0px" y="0px"
	 width="98.818px" height="46px" viewBox="7 7 98.818 46" enable-background="new 7 7 98.818 46" xml:space="preserve">
<path fill="#4E7896" d="M17.956,42.563c0,0-1.767,1.074,1.23,1.383c3.6,0.459,5.53,0.384,9.524-0.385c0,0,1.075,0.69,2.535,1.23
	c-8.987,3.84-20.354-0.23-13.288-2.227L17.956,42.563z M16.804,37.57c0,0-1.92,1.459,1.075,1.767c3.917,0.384,7,0.46,12.29-0.614
	c0,0,0.69,0.769,1.843,1.152C21.182,43.102,9.046,40.182,16.804,37.57L16.804,37.57z M38.004,46.326c0,0,1.306,1.074-1.46,1.92
	c-5.146,1.536-21.583,1.997-26.192,0c-1.613-0.689,1.46-1.7,2.458-1.844c1-0.229,1.536-0.229,1.536-0.229
	c-1.766-1.229-11.752,2.535-5.07,3.601c18.357,2.994,33.488-1.307,28.726-3.457L38.004,46.326z M18.8,32.348
	c0,0-8.372,1.996-2.996,2.688c2.304,0.307,6.836,0.23,11.06-0.077c3.456-0.308,6.913-0.922,6.913-0.922s-1.23,0.538-2.074,1.075
	c-8.526,2.227-24.886,1.229-20.2-1.075c3.994-1.92,7.297-1.7,7.297-1.7V32.348z M33.778,40.719c8.602-4.455,4.608-8.756,1.843-8.218
	c-0.69,0.154-1,0.308-1,0.308s0.23-0.461,0.768-0.615c5.453-1.919,9.755,5.761-1.767,8.757c0,0,0.077-0.077,0.154-0.229
	L33.778,40.719z M19.646,52.854c8.295,0.539,20.97-0.307,21.276-4.224c0,0-0.614,1.536-6.836,2.688
	c-7.066,1.306-15.822,1.152-20.97,0.307c0,0,1.075,0.922,6.53,1.23V52.854z"/>
<path fill="#F58219" d="M28.555,7c0,0,4.762,4.84-4.532,12.136c-7.45,5.914-1.7,9.294,0,13.134c-4.378-3.917-7.527-7.373-5.377-10.6
	C21.796,16.908,30.474,14.604,28.555,7L28.555,7z M26.097,29.044c2.227,2.535-0.615,4.84-0.615,4.84s5.684-2.92,3.072-6.53
	c-2.38-3.456-4.224-5.146,5.76-10.907C34.314,16.447,18.568,20.364,26.097,29.044L26.097,29.044z"/>
<path fill="#4E7896" d="M75.318,38.162V26.485c0-2.98-1.668-5.004-5.838-5.004c-2.383,0-4.41,0.596-6.196,1.31l0.596,2.145
	c1.31-0.477,2.979-0.953,4.767-0.953c2.264,0,3.336,0.953,3.336,2.86v1.55H70.8c-5.72,0-8.34,2.145-8.34,5.6
	c0,2.86,1.787,4.528,5.004,4.528c2.026,0,3.575-0.953,5.004-2.146l0.238,1.787h2.62L75.318,38.162z M71.98,34.35
	c-1.19,1.072-2.502,1.668-3.694,1.668c-1.55,0-2.502-0.953-2.502-2.619c0-1.668,0.952-2.86,4.766-2.86h1.431v3.813V34.35z
	 M86.516,38.163h-4.17L77.343,21.84h3.575l3.098,10.01l0.715,2.98c1.551-4.29,2.74-8.698,3.218-12.987h3.573
	c-0.953,5.362-2.619,11.2-5.004,16.323L86.516,38.163z M105.818,38.163V26.485c0-2.98-1.668-5.004-5.84-5.004
	c-2.383,0-4.408,0.596-6.196,1.31l0.477,2.145c1.431-0.477,3.099-0.953,4.886-0.953c2.264,0,3.336,0.953,3.336,2.86v1.55h-1.19
	c-5.72,0-8.34,2.145-8.34,5.6c0,2.86,1.668,4.528,4.885,4.528c2.146,0,3.694-0.953,5.123-2.146l0.237,1.787h2.621H105.818z
	 M102.482,34.35c-1.19,1.072-2.502,1.668-3.694,1.668c-1.55,0-2.502-0.953-2.502-2.619c0-1.668,0.953-2.86,4.767-2.86h1.43v3.813
	V34.35z M58.754,40.902c-0.953,1.431-2.383,2.502-4.17,3.099l-1.55-1.905c1.192-0.716,2.383-1.787,2.86-2.74
	c0.477-0.834,0.596-2.026,0.596-4.767V16h3.575v18.35C60.065,38.044,59.707,39.473,58.754,40.902L58.754,40.902z"/>
</svg>
