<?xml version="1.0" encoding="utf-8"?>
<!-- Generator: Adobe Illustrator 27.3.1, SVG Export Plug-In . SVG Version: 6.00 Build 0)  -->
<svg version="1.1" id="Layer_1" xmlns="http://www.w3.org/2000/svg" xmlns:xlink="http://www.w3.org/1999/xlink" x="0px" y="0px"
	 viewBox="0 0 256 77" style="enable-background:new 0 0 256 77;" xml:space="preserve">
<style type="text/css">
	.st0{fill-rule:evenodd;clip-rule:evenodd;fill:#D33833;}
	.st1{fill:#EF3D3A;}
	.st2{fill:#231F20;}
	.st3{fill-rule:evenodd;clip-rule:evenodd;fill:#F0D6B7;}
	.st4{fill-rule:evenodd;clip-rule:evenodd;fill:#335061;}
	.st5{fill-rule:evenodd;clip-rule:evenodd;fill:#6D6B6D;}
	.st6{fill-rule:evenodd;clip-rule:evenodd;fill:#DCD9D8;}
	.st7{fill-rule:evenodd;clip-rule:evenodd;fill:#F7E4CD;}
	.st8{fill:#F7E4CD;}
	.st9{fill-rule:evenodd;clip-rule:evenodd;fill:#49728B;}
	.st10{fill-rule:evenodd;clip-rule:evenodd;fill:#FFFFFF;}
	.st11{fill:#FFFFFF;}
	.st12{fill:none;stroke:#D33833;stroke-width:0.6162;stroke-miterlimit:5;}
	.st13{fill-rule:evenodd;clip-rule:evenodd;fill:#EF3D3A;}
	.st14{fill-rule:evenodd;clip-rule:evenodd;fill:#231F20;}
	.st15{fill-rule:evenodd;clip-rule:evenodd;fill:#81B0C4;}
	.st16{fill-rule:evenodd;clip-rule:evenodd;fill:#1D1919;}
</style>
<path class="st0" d="M54.8,37.1c0,15.2-12.1,27.6-27,27.6s-27-12.4-27-27.6s12.1-27.6,27-27.6S54.8,21.8,54.8,37.1"/>
<path class="st1" d="M1.9,43.9c0,0-2-28.8,24.6-29.6l-1.8-3.1L10.3,16l-4.1,4.7l-3.6,6.9l-2.1,8L1.1,41"/>
<path class="st2" d="M9.3,18.2c-4.7,4.8-7.7,11.5-7.7,18.9s2.9,14.1,7.7,18.9s11.3,7.8,18.5,7.8s13.8-3,18.5-7.8s7.7-11.5,7.7-18.9
	S51,23.1,46.3,18.2S35,10.4,27.8,10.4S14.1,13.4,9.3,18.2L9.3,18.2z M8.1,57.2C3.1,52.1,0,45,0,37.2s3.1-15,8.1-20.1
	s12-8.3,19.7-8.3s14.6,3.2,19.7,8.3s8.1,12.2,8.1,20.1s-3.1,15-8.1,20.1s-12,8.3-19.7,8.3S13.2,62.4,8.1,57.2"/>
<g>
	<path class="st3" d="M39.2,37.2L35,37.8l-5.6,0.6l-3.6,0.1l-3.5-0.1l-2.7-0.8L17.4,35l-1.8-5.2l-0.4-1.1l-2.5-0.8l-1.4-2.4l-1-3.4
		l1.1-3l2.7-0.9l2.2,1l1,2.3l1.2-0.2l0.4-0.5l-0.4-2.4l-0.1-3l0.6-4.1l0-2.3l1.9-3L24,3.6l5.8-2.5l6.4,0.9l5.5,4l2.6,4.1l1.6,3
		l0.4,7.4l-1.2,6.4l-2.3,5.6l-2.2,3"/>
	<path class="st4" d="M35.7,55L21,55.6v2.5l1.2,8.6l-0.6,0.7l-10.3-3.5l-0.7-1.2l-1-11.6l-2.4-7l-0.5-1.6l8.2-5.7l2.6-1l2.3,2.8
		l2,1.7l2.3,0.7l1,0.3l1.2,5.3l0.9,1.1l2.4-0.8l-1.6,3.2l8.9,4.2L35.7,55"/>
	<path class="st5" d="M11.3,19.1l2.7-0.9l2.2,1l1,2.3l1.2-0.2l0.3-1.2l-0.6-2.4l0.6-5.7l-0.5-3.1l1.9-2.2l4-3.2l-1.1-1.5l-5.6,2.8
		l-2.4,1.8l-1.3,2.9l-2.1,2.8l-0.6,3.3L11.3,19.1"/>
	<path class="st6" d="M15.5,9.5c0,0,1.5-3.8,7.7-5.7s0.3-1.3,0.3-1.3L16.9,5l-2.6,2.6l-1.1,2.1L15.5,9.5 M12.4,18.4
		c0,0-2.2-7.2,6.1-8.2L18.2,9l-5.7,1.3l-1.6,5.3l0.4,3.5L12.4,18.4"/>
	<path class="st7" d="M15.7,28l1.3-1.3c0,0,0.6,0.1,0.7,0.8c0.1,0.7,0.4,7.2,4.8,10.7c0.4,0.3-3.3-0.5-3.3-0.5L16,32.5 M34.6,26
		c0,0,0.2-3.1,1.1-2.9c0.8,0.3,0.8,1.1,0.8,1.1S34.5,25.5,34.6,26"/>
</g>
<path class="st8" d="M43.2,14.6c0,0-1.7,0.4-1.8,1.8s1.8,0.3,2.2,0.2 M30.7,14.7c0,0-2.3,0.3-2.3,1.7c0,1.4,2.6,1.3,3.3,0.7"/>
<g>
	<path class="st7" d="M16.8,21.4c0,0-3.9-2.4-4.3-0.1s-1.3,3.9,0.6,6.3l-1.3-0.4L10.5,24l-0.4-3.1l2.4-2.5l2.7,0.2l1.5,1.2
		L16.8,21.4 M18.6,14.9c0,0,1.7-9,10.6-10.8c7.3-1.4,11.1,0.3,12.5,2c0,0-6.5-7.7-12.6-5.3s-10.7,6.7-10.6,9.5L18.6,14.9 M42.4,7.1
		c0,0-3-0.1-3.1,2.6c0,0,0,0.4,0.2,0.8c0,0,2.4-2.7,3.8-1.2 M29.4,10.8c0,0-0.5-4.1-4-1.7c-2.3,1.5-2.1,3.7-1.6,4.1s0.3,1.2,0.6,0.7
		s0.2-2.4,1.3-2.9C26.8,10.4,28.7,9.8,29.4,10.8"/>
	<path class="st9" d="M19.7,38.5l-9.7,4.3c0,0,4,15.9,2,20.9l-1.4-0.5l-0.1-6.1L7.8,45.6l-1.1-3.2l10.1-6.8L19.7,38.5 M20.7,47.4
		l1.4,1.7v6.2h-1.6l-0.2-4.8c0-0.5,0.2-2.4,0.2-2.4 M20.8,56.1l-4.6,0.2l1.3,0.9l3.3,0.5"/>
	<g>
		<path class="st4" d="M36.6,55.1l3.8-0.1l0.9,9.5l-3.9,0.5L36.6,55.1"/>
		<path class="st4" d="M37.6,55.1l5.8-0.3l2.4-6.3c0-0.3,2.1-8.6,2.1-8.6l-4.6-4.8l-0.9-0.8l-2.5,2.5v9.6L37.6,55.1"/>
	</g>
	<path class="st9" d="M40.2,54.4l-3.6,0.7l0.5,2.9c1.3,0.6,3.6-1,3.6-1 M40.3,36.4l7.2,5.3l0.2-2.5l-5.4-5L40.3,36.4"/>
	<path class="st10" d="M24.3,75.3l-2.1-8.6l-1.1-6.4L21,55.6l9.6-0.5h6L36,65.9l0.9,8.3l-0.1,1.5l-7.8,0.6L24.3,75.3"/>
	<path class="st6" d="M35.3,55c0,0-0.5,10.7,1,18.3c0,0-3.1,2-7.6,2.5l8.6-0.3l1-0.6L37.1,58l-0.3-3.6"/>
	<path class="st10" d="M41.5,63.6l4-1.1l7.6-0.4l1.1-3.5l-2.1-6.1l-2.4-0.3l-3.3,1l-3.2,1.5l-1.7-0.3L40.4,55"/>
	<path class="st6" d="M41.4,61.6c0,0,2.7-1.2,3.1-1.1l-1.1-5.6l1.3-0.5l0.9,6l6.3,0.3c0,0,1.2-2.4,0.9-4.8L54,59l0.1,1.8l-1.6,2.5
		l-1.8,0.4l-3.1-0.1l-1-1.3l-3.6,0.5l-1.1,0.4"/>
</g>
<path class="st11" d="M37.4,54.3l-2.3-5.7l-2.4-3.4c0,0,0.5-1.4,1.2-1.4h2.4l2.3,0.8l-0.2,3.8L37.4,54.3"/>
<path class="st6" d="M37.8,52.3c0,0-2.9-5.5-2.9-6.4c0,0,0.5-1.2,1.2-0.9c0.7,0.3,2.3,1.1,2.3,1.1v-2l-3.5-0.7l-2.4,0.3l4,9.5
	l0.8,0.1"/>
<path class="st11" d="M25.3,38.8l-2.8-0.3l-2.7-0.8v0.9L21,40l4.1,1.9"/>
<g>
	<path class="st6" d="M20.7,39.1c0,0,3.2,1.3,4.2,1l0.1,1.2l-2.9-0.6l-1.7-1.2L20.7,39.1"/>
	<path class="st0" d="M41.5,44c-1.7-0.1-3.3-0.3-4.7-0.6c0.1-0.6-0.1-1.1,0.1-1.5c0.4-0.3,1-0.3,1.6-0.3c-0.5-0.2-1.2-0.3-1.8-0.2
		c0-0.4-0.2-0.6-0.3-0.9c1-0.3,3.3-2.6,4.6-1.9c0.6,0.4,0.9,2.4,0.9,3.4C41.9,42.8,41.8,43.6,41.5,44"/>
</g>
<path class="st12" d="M41.5,44c-1.7-0.1-3.3-0.3-4.7-0.6c0.1-0.6-0.1-1.1,0.1-1.5c0.4-0.3,1-0.3,1.6-0.3c-0.5-0.2-1.2-0.3-1.8-0.2
	c0-0.4-0.2-0.6-0.3-0.9c1-0.3,3.3-2.6,4.6-1.9c0.6,0.4,0.9,2.4,0.9,3.4C41.9,42.8,41.8,43.6,41.5,44L41.5,44z"/>
<path class="st0" d="M33.1,41.2l0,0.4c-0.5,0.4-1.4,0.4-2,0.7c0.8,0,1.5,0.2,2.2,0.5l0,1c-1,0.7-1.9,1.7-3.1,2.3
	c-0.6,0.3-2.5,1.1-3.1,0.9c-0.3-0.1-0.4-0.5-0.5-0.9c-0.3-0.8-0.9-2.2-1-3.4c-0.1-1.6-0.2-4.3,1.5-3.9c1.4,0.3,3,0.9,4.1,1.5
	C31.8,40.7,32.2,41.1,33.1,41.2"/>
<path class="st12" d="M33.1,41.2l0,0.4c-0.5,0.4-1.4,0.4-2,0.7c0.8,0,1.5,0.2,2.2,0.5l0,1c-1,0.7-1.9,1.7-3.1,2.3
	c-0.6,0.3-2.5,1.1-3.1,0.9c-0.3-0.1-0.4-0.5-0.5-0.9c-0.3-0.8-0.9-2.2-1-3.4c-0.1-1.6-0.2-4.3,1.5-3.9c1.4,0.3,3,0.9,4.1,1.5
	C31.8,40.7,32.2,41.1,33.1,41.2L33.1,41.2z"/>
<path class="st0" d="M34.1,43.1c-0.2-0.9-0.3-1.1-0.3-1.9C36.2,39.7,36.6,43.9,34.1,43.1"/>
<path class="st12" d="M34.1,43.1c-0.2-0.9-0.3-1.1-0.3-1.9C36.2,39.7,36.6,43.9,34.1,43.1z"/>
<path class="st13" d="M37.5,43.8c0,0-0.7-1-0.2-1.3c0.5-0.3,1,0,1.3-0.5c0.3-0.5,0-0.8,0.1-1.4s0.6-0.7,1.1-0.8
	c0.5-0.1,2-0.3,2.2,0.2L41.4,38l-1.2-0.4l-3.9,2.3L36.1,41v2.3 M26.7,47.2l-0.4-4.8c-0.2-2.4,0.6-2,2.6-2c0.3,0,1.9,0.4,2.1,0.6
	c0.6,1.1-0.9,0.9,0.6,1.8c1.3,0.7,3.7-0.4,3.2-2.1c-0.3-0.4-1.6-0.1-2-0.4l-2.4-1.2c-1-0.5-3.4-1.3-4.5-0.6
	c-2.8,1.9,0.2,6.6,1.2,8.5"/>
<path class="st14" d="M29.4,10.8c-2.8-0.7-4.2,1.2-5,3.1c-0.8-0.2-0.5-1.2-0.3-1.7c0.5-1.4,2.5-3.2,4.2-3C29,9.2,29.9,9.9,29.4,10.8
	 M43,14l0.1,0c0.6,1.3,1.2,2.7,2,3.9c-0.5,1.2-4,2.3-4,0.1c0.8-0.3,2.1-0.1,2.7-0.5C43.5,16.4,43,15.5,43,14 M30.8,14
	c0.6,1.1,0.8,2.3,1.7,3.1c0.4,0.4,1.1,0.8,0.8,1.9c-0.1,0.2-0.7,0.8-1.1,0.9c-1.3,0.4-4.4,0.1-3.4-1.6c1.1,0.1,2.6,0.7,3.4-0.1
	C31.5,17.2,30.4,15.2,30.8,14 M42.5,25.2c-2,1.3-4.2,2.7-7.5,2.4c-0.7-0.6-1-2-0.3-2.9c0.4,0.6,0.1,1.8,1.1,1.9
	c1.9,0.3,4-1.1,5.4-1.7c0.8-1.4-0.1-1.9-0.8-2.8c-1.5-1.9-3.6-4.1-3.5-6.9c0.6-0.5,0.7,0.7,0.8,0.9c0.8,1.9,2.8,4.3,4.3,5.9
	c0.4,0.4,1,0.8,1,1C43.1,23.7,42.4,24.7,42.5,25.2 M16.1,23.8c-0.6-0.4-0.8-1.9-1.5-2c-1.1-0.1-0.9,2.1-0.9,3.3
	c-0.7-0.7-0.9-2.7-0.3-3.8c-0.6-0.3-0.9,0.3-1.2,0.5C12.6,18.8,16.8,20.5,16.1,23.8 M43.8,26.5c-0.9,1.8-2.3,3.7-5,3.8
	c-0.1-0.6-0.1-1.5,0-1.8C40.9,28.3,42.2,27.2,43.8,26.5 M30.7,27.7c1.8,0.9,5,1,7.3,0.9c0.1,0.5,0.1,1.2,0.1,1.8
	C35.1,30.6,31.5,29.8,30.7,27.7 M30.3,29.4c1.2,3,5.4,2.7,8.9,2.6c-0.2,0.4-0.5,0.9-0.9,1c-1.1,0.5-4.2,0.8-5.8,0
	c-1-0.5-1.6-1.7-2.2-2.4C30.1,30.2,28.8,29.4,30.3,29.4"/>
<path class="st15" d="M42.4,46.1l-4.5,7.1c0.7-2.1,1-5.6,1.1-8.2C40.5,44.3,41.8,45.2,42.4,46.1"/>
<path class="st14" d="M50,54.9c-1.6,0.3-2.7,1.9-4.3,1.8C46.6,55.4,48.1,54.9,50,54.9 M50.7,57.4c-1.3,0.1-2.8,0.3-4.1,0.2
	C47.2,56.7,49.6,57,50.7,57.4 M51.2,59.5c-1.5,0-3.3,0-4.6-0.1C47.4,58.5,50.2,59.1,51.2,59.5"/>
<path class="st6" d="M39.7,65.4c0.2,1.8,0.9,3.7,0.8,5.7c-0.8,0.3-1.3,0.5-2.3,0.5l-0.2-5.9C38.4,65.7,39.2,65.3,39.7,65.4"/>
<path class="st3" d="M37.3,38.4c-0.7,0.5-1.4,1.1-2.1,1.6c-1.6,0.1-2.4-0.1-3.6-1c0-0.1,0.1,0,0.1-0.1
	C33.5,39.6,35.6,38.6,37.3,38.4"/>
<path class="st15" d="M28.6,49.8c0.5-2,2.3-3,3.9-4.1c1.7,2.1,2.7,4.9,3.8,7.5C33.6,52.4,30.9,51.1,28.6,49.8"/>
<path class="st14" d="M37.9,65.6c-0.1,1.6,0.2,4.2,0.2,5.9c1.1,0,1.5-0.2,2.3-0.5c0.1-2-0.6-3.9-0.8-5.7
	C39.2,65.3,38.5,65.7,37.9,65.6L37.9,65.6z M21.1,56.4c0.7,6.5,1.7,12,3.6,17.8c4.2,1.3,9.3,1.4,13,0.2c-0.7-3.3-0.4-7.2-0.8-10.7
	c-0.3-2.6-0.1-5.3-0.6-7.9C31.9,54.9,25.5,55.6,21.1,56.4L21.1,56.4z M37.4,55.8c0,2.8,0.1,5.6,0.3,8.4c1.1-0.2,1.8-0.3,2.8-0.5
	c-0.3-2.7-0.3-5.8-1-8.1C38.9,55.6,38.2,55.6,37.4,55.8L37.4,55.8z M42.9,55.4c-0.5-0.1-1.1,0-1.6,0c0.2,2.3,0.8,4.8,1,7.2
	c0.8,0,1.2-0.3,1.8-0.5C44.1,60,43.9,57.1,42.9,55.4L42.9,55.4z M51.2,63c1.6-0.4,2.6-2.4,2.2-4.4c-0.3-1.4-0.8-3.9-1.4-4.8
	c-0.4-0.6-1.6-1.5-2.5-0.9c-1.5,1-4.1,1.2-5.2,2.4c0.5,1.8,0.7,4.3,0.9,6.6c1.9,0.1,4.2-0.5,5.7,0.2c-1.1,0.3-2.5,0.4-3.4,0.9
	C48.2,63.3,50,63.2,51.2,63L51.2,63z M36.3,53.2c-1.1-2.7-2.2-5.4-3.8-7.5c-1.6,1.1-3.4,2.1-3.9,4.1C30.9,51.1,33.6,52.4,36.3,53.2z
	 M39,45c-0.1,2.7-0.4,6.1-1.1,8.2c1.7-2.1,3-4.6,4.5-7.1C41.8,45.2,40.5,44.3,39,45L39,45z M35.9,43.9c-0.6-0.1-1.2,0.7-2,0.4
	c-0.2,0.2-0.4,0.4-0.6,0.6c1.8,2.2,2.7,5.3,4.1,7.9c0.8-2.5,0.7-5.2,0.8-8C37.2,45,36.6,44,35.9,43.9z M33.9,41.2
	c-0.1,0.8,0.1,1,0.3,1.9C36.6,43.9,36.2,39.7,33.9,41.2z M31.1,40.3c-1.1-0.6-2.7-1.2-4.1-1.5c-1.7-0.3-1.6,2.3-1.5,3.9
	c0.1,1.3,0.7,2.6,1,3.4c0.1,0.4,0.2,0.8,0.5,0.9c0.6,0.1,2.5-0.6,3.1-0.9c1.2-0.6,2.1-1.7,3.1-2.3l0-1c-0.7-0.3-1.4-0.5-2.2-0.6
	c0.6-0.3,1.5-0.3,2-0.7l0-0.4C32.1,41.1,31.8,40.7,31.1,40.3L31.1,40.3z M20.9,38.4c-0.9,0.9,2.5,2.1,3.6,2.2c0-0.6,0.3-1.1,0.3-1.5
	C23.4,38.9,21.7,39.1,20.9,38.4z M31.8,38.9c0,0.1-0.1,0.1-0.1,0.1c1.1,0.9,2,1.1,3.6,1c0.7-0.5,1.3-1.1,2.1-1.6
	C35.6,38.6,33.5,39.6,31.8,38.9L31.8,38.9z M41.9,41.9c0-1-0.3-3.1-0.9-3.4c-1.3-0.8-3.6,1.5-4.6,1.9c0.1,0.3,0.3,0.5,0.3,0.9
	c0.6-0.1,1.3,0,1.8,0.2c-0.6,0.1-1.2,0.1-1.6,0.3c-0.1,0.4,0,1-0.1,1.5c1.4,0.4,3,0.6,4.7,0.6C41.8,43.6,41.9,42.8,41.9,41.9
	L41.9,41.9z M19.4,39.3c-0.3-0.2-2.2-2.7-2.4-2.6c-3.4,1.3-6.6,3.7-9.5,5.9c2.7,5.8,3.8,13,4,19.9c3.1,1.5,5.9,3.6,10.1,3.8
	c-0.5-3.5-0.9-6.6-1.2-9.8c-1.1-0.5-2.6,0-3.6-0.1c0-1.2,1.5-0.5,1.6-1.3c0.1-0.6-0.8-0.7-0.5-1.6c0.8,0.3,1.2,0.9,2,1.1
	c0.8-1.7,0-4.6,0.1-6c0-0.3,0.1-1.4,0.7-1.2c0.5,0.2,0,3.1,0,4.5c0.1,1.2-0.1,2.4,0.3,3.1c4.2-0.6,8.4-0.9,12.7-1
	c-1-0.4-2.1-0.8-3.4-1.5c-0.7-0.4-2.9-1.2-3.1-1.8c-0.3-1,0.8-1.6,1-2.5c-2.1,1.1-2.5-1.1-3-2.6c-0.4-1.4-0.7-2.5-0.8-3.3
	C22.8,41.3,20.9,40.4,19.4,39.3L19.4,39.3z M40.1,37.1c2.8-1.4,3.4,5.2,2.2,7.3c0.2,0.6,0.8,0.9,1,1.4c-1.6,2.8-3.4,5.5-5,8.3
	c1.2-0.8,2.9-0.1,4.4-0.7c0.5-0.2,0.9-1.4,1.3-2.3c1.1-2.6,2.2-5.9,2.7-8.4c0.1-0.6,0.4-1.8,0.4-2.3c-0.1-0.9-1.4-1.6-2-2.1
	c-1.2-1-1.9-1.9-3.1-2.9C41.5,36,40.5,36.5,40.1,37.1L40.1,37.1z M12.9,11.8c-1.4,1.5-1.1,4.3-0.9,6.3c2.5-1.5,5.7,0.1,5.7,2.7
	c1.2,0,0.4-1.5,0.2-2.4c-0.7-3,1.2-6.3,0.1-9C15.8,9.6,14.1,10.4,12.9,11.8L12.9,11.8z M22.6,3.1c-3.1,0.9-7,3.1-8.3,5.9
	c1-0.1,1.7-0.6,2.6-0.7c0.4,0,0.8,0.2,1.3,0.1c0.8-0.2,1.5-2.1,2.2-2.8c0.6-0.7,1.4-1,1.9-1.6C22.5,3.8,23,3.8,23,3.3
	C22.9,3.2,22.8,3.1,22.6,3.1L22.6,3.1z M38.6,3.9c-3.2-1.8-8.6-3.2-12-1.5c-2.8,1.4-6.4,3.6-7.7,6.5c1.2,2.8-0.4,5.3-0.4,8.1
	c-0.1,1.5,0.7,2.8,0.8,4.4c-0.4,0.7-1.6,0.7-2.5,0.7c-0.3-1.4-0.8-3.1-2.3-3.2c-2.1-0.2-3.6,1.5-3.7,3.3c-0.1,2.1,1.6,5.7,4.1,5.4
	c1-0.1,1.2-1.1,2.2-1c0.6,1.1-0.9,1.5-1,2.3c0,0.2,0.1,1,0.2,1.4c0.5,1.9,1.5,4.3,2.4,5.7c1.3,1.8,3.7,2.1,6.4,2.2
	c0.5-1,2.2-0.9,3.4-0.7c-1.4-0.5-2.6-1.8-3.7-3c-1.2-1.3-2.4-2.8-2.5-4.5c2.3,3.2,4.2,5.9,8.3,7.3c3.1,1,6.8-0.5,9.2-2.2
	c1-0.7,1.6-1.8,2.3-2.8c2.7-3.8,3.9-9.3,3.6-14.6c-0.1-2.2-0.1-4.4-0.8-5.8c-0.8-1.5-3.4-2.9-4.9-1.5c-0.3-1.5,1.3-2.4,3.1-1.9
	C41.8,7,40.4,5,38.6,3.9L38.6,3.9z M44.5,53.1c2.5-1.2,7.1-3.3,8.7,0c0.6,1.2,1.3,3.3,1.6,4.6c0.4,1.8-0.5,5.6-2.3,6.2
	C50.9,64.4,49,64.4,47,64c-0.2-0.2-0.5-0.5-0.7-0.9c-1.4-0.1-2.7,0.1-3.8,0.7c0.1,1-0.6,1.2-1.3,1.4c-0.5,1.9,1,4.5,0.6,6.2
	c-0.2,1.3-1.8,1.4-2.9,1.7c0,0.7,0,1.3,0.1,1.9c-0.3,1-1.4,1.5-2.5,1.6c-3.6,0.4-9.1,0.6-12.6-0.6c-1-2.4-1.7-5.3-2.6-8
	c-3.4,0.4-6.1-1.5-8.7-2.7c-0.9-0.4-2.1-0.6-2.5-1.4c-0.3-0.7-0.2-2-0.3-3.3c-0.2-3.2-0.4-6.3-1.2-9.6c-0.4-1.5-1-2.8-1.5-4.2
	C6.8,45.6,6,44,5.8,42.7c-0.3-1.9,1.5-2,2.7-2.9c1.8-1.3,3.2-2,5.2-3.2c0.6-0.3,2.3-1.2,2.5-1.6c0.4-0.8-0.7-1.9-1-2.6
	c-0.5-1-0.7-1.8-0.8-2.8c-1.6-0.3-2.9-1.2-3.6-2.3c-1.2-1.8-2.1-5.2-1-7.8c0.1-0.2,0.5-0.6,0.6-0.9c0.1-0.6-0.2-1.4-0.3-2.1
	c-0.1-3.3,0.6-6.2,2.8-7.2c0.9-3.6,4.2-4.8,7.2-6.6c1.1-0.7,2.4-1.1,3.7-1.6c4.7-1.7,11.9-1.4,15.8,1.5c1.6,1.2,4.3,3.9,5.2,5.8
	c2.5,5,2.3,13.5,0.6,19.6c-0.2,0.8-0.6,2-1,3c-0.3,0.7-1.4,2.1-1.2,2.7c0.1,0.6,2.3,2.3,2.8,2.8c0.9,0.8,2.5,1.9,2.6,3
	c0.1,1.1-0.5,2.6-0.8,3.7C46.8,46.7,45.7,50,44.5,53.1"/>
<path class="st7" d="M27.9,28.4c0.1-0.2,0.9-0.5,1.9,0c0,0-1.2,0.2-1.1,2.3l-0.5-0.1C28.2,30.6,27.6,28.8,27.9,28.4"/>
<path class="st16" d="M36.9,46.1c0,0.3-0.3,0.6-0.6,0.6c-0.3,0-0.6-0.3-0.6-0.6c0-0.3,0.3-0.6,0.6-0.6l0,0
	C36.6,45.5,36.9,45.8,36.9,46.1 M37.5,48.7c0,0.3-0.3,0.6-0.6,0.6c-0.3,0-0.6-0.3-0.6-0.6s0.3-0.6,0.6-0.6l0,0
	C37.2,48.2,37.5,48.4,37.5,48.7"/>
<path class="st11" d="M68.2,62.6v-5.1H71c0.1,1.4,0.4,2.4,1,3c0.6,0.6,1.4,1,2.5,1c1.4,0,2.4-0.5,2.9-1.6c0.6-1.1,0.8-3.1,0.8-6
	V25.1h-4.7v-2.6h17.2v2.6h-4.1v28.8c0,3.5-0.9,6.1-2.7,7.7c-1.8,1.6-4.6,2.4-8.4,2.4c-1.2,0-2.4-0.1-3.6-0.4
	C70.7,63.4,69.4,63,68.2,62.6L68.2,62.6z M110.2,41.8c0-3-0.3-5.2-0.8-6.4c-0.6-1.2-1.5-1.8-2.9-1.8c-1.3,0-2.3,0.6-2.8,1.8
	c-0.6,1.2-0.8,3.2-0.8,6v0.4L110.2,41.8L110.2,41.8z M118.6,44.4h-15.8v0.2c0,3,0.4,5.1,1.3,6.5c0.9,1.3,2.3,2,4.3,2
	c1.7,0,3-0.4,4-1.3c1-0.9,1.7-2.2,2-3.8h3.6c-0.6,2.6-1.9,4.5-3.7,5.8c-1.9,1.2-4.4,1.8-7.8,1.8c-4,0-7-1-9.2-3.1
	c-2.1-2.1-3.2-5.1-3.2-9c0-3.8,1.1-6.8,3.3-8.9c2.2-2.1,5.2-3.2,9.1-3.2c3.8,0,6.7,1.1,8.8,3.4C117.4,36.8,118.5,40.1,118.6,44.4
	L118.6,44.4z M122.2,54.8v-2.6h3.3V34.4h-3.3v-2.6h10.9V35c0.9-1.4,2-2.4,3.2-3c1.2-0.6,2.7-0.9,4.5-0.9c2.6,0,4.5,0.8,5.9,2.3
	c1.3,1.5,2,3.8,2,6.7v12h3.3v2.6h-13.8v-2.6h2.8V39.9c0-2-0.3-3.3-0.8-4.1c-0.5-0.8-1.4-1.2-2.6-1.2c-1.5,0-2.7,0.6-3.4,1.7
	c-0.7,1.1-1.1,2.9-1.1,5.4v10.3h2.8v2.6L122.2,54.8L122.2,54.8z M168.3,54.8h-13.9v-2.6h3.3V23.7h-3.3v-2.6h10.9v21.7l9.3-8.3h-2.8
	v-2.6h10.5v2.6h-4.3l-5.9,5.3l9.7,12.5h2.5v2.6h-13.2v-2.6h2.7l-6.4-8.2l-2.1,1.9v6.3h2.9L168.3,54.8L168.3,54.8z M187.8,25.2
	c0-1.2,0.4-2.2,1.2-2.9c0.8-0.8,1.8-1.2,3-1.2c1.1,0,2.1,0.4,2.9,1.2c0.8,0.8,1.2,1.8,1.2,2.9c0,1.1-0.4,2.1-1.2,2.9
	c-0.8,0.8-1.8,1.2-2.9,1.2c-1.2,0-2.2-0.4-3-1.2C188.2,27.4,187.8,26.4,187.8,25.2z M196.1,52.2h3.3v2.6h-14.2v-2.6h3.3V34.4h-3.3
	v-2.6h10.9L196.1,52.2L196.1,52.2z M202.1,54.8v-2.6h3.3V34.4h-3.3v-2.6H213V35c0.9-1.4,2-2.4,3.2-3c1.2-0.6,2.7-0.9,4.5-0.9
	c2.6,0,4.5,0.8,5.8,2.3c1.3,1.5,2,3.8,2,6.7v12h3.3v2.6h-13.8v-2.6h2.8V39.9c0-2-0.3-3.3-0.8-4.1c-0.5-0.8-1.4-1.2-2.6-1.2
	c-1.5,0-2.7,0.6-3.4,1.7c-0.7,1.1-1.1,2.9-1.1,5.4v10.3h2.8v2.6L202.1,54.8L202.1,54.8z M234.9,54.1v-6.4h2.5c0.2,1.7,0.8,3,1.9,3.9
	c1.1,0.9,2.6,1.3,4.4,1.3c1.6,0,2.8-0.3,3.6-0.8c0.8-0.6,1.3-1.3,1.3-2.3c0-0.9-0.3-1.6-0.8-2.1c-0.5-0.5-1.5-0.9-3.1-1.3l-3.2-0.8
	c-2.4-0.6-4.1-1.4-5.2-2.5c-1.1-1.1-1.6-2.6-1.6-4.5c0-2.5,0.9-4.4,2.6-5.6c1.7-1.2,4.4-1.8,8-1.8c1.4,0,2.8,0.1,4.3,0.3
	c1.5,0.2,3.3,0.6,5.1,1v5.8h-2.5c-0.1-1.6-0.7-2.8-1.7-3.6c-1-0.8-2.4-1.2-4.2-1.2c-1.6,0-2.7,0.3-3.6,0.8c-0.8,0.5-1.2,1.2-1.2,2.2
	c0,0.8,0.2,1.4,0.7,1.8c0.5,0.4,1.3,0.8,2.5,1.1l3.1,0.8c3,0.8,5.1,1.7,6.2,2.8c1.2,1.1,1.7,2.7,1.7,4.7c0,2.6-0.9,4.5-2.8,5.8
	c-1.8,1.2-4.7,1.8-8.6,1.8c-1.4,0-2.9-0.1-4.5-0.3C238.4,54.9,236.7,54.6,234.9,54.1L234.9,54.1z"/>
</svg>
