<?xml version="1.0" encoding="UTF-8"?>
<svg xmlns="http://www.w3.org/2000/svg" width="299" height="48" viewBox="0 0 299 48" fill="none">
  <path d="M76.9568 29.48C76.9568 30.36 76.7668 31.16 76.3768 31.86C75.9868 32.56 75.4568 33.1 74.7568 33.49C74.0668 33.88 73.2768 34.07 72.3868 34.07H68.0068V38.97H72.9968C74.7668 38.97 76.3568 38.58 77.7668 37.79C79.1768 37.01 80.2868 35.92 81.0868 34.54C81.8868 33.16 82.2868 31.59 82.2868 29.85V9H76.9568V29.48ZM103.437 17.99C101.757 17.02 99.8368 16.53 97.6768 16.53C95.5168 16.53 93.6468 17.03 91.9068 18.02C90.1668 19.01 88.8068 20.38 87.8068 22.12C86.8068 23.86 86.3068 25.81 86.3068 27.96C86.3068 30.11 86.8068 32.13 87.7968 33.89C88.7868 35.64 90.1468 37.01 91.8668 38C93.5868 38.98 95.5268 39.48 97.6768 39.48C99.3768 39.48 100.927 39.22 102.317 38.69C103.717 38.16 104.907 37.41 105.887 36.44C106.867 35.47 107.617 34.31 108.137 32.95H102.637C102.077 33.69 101.387 34.27 100.537 34.68C99.6968 35.09 98.7468 35.3 97.6868 35.3C96.4868 35.3 95.4168 35.01 94.4668 34.42C93.5168 33.84 92.7768 33.02 92.2368 31.97C91.8068 31.14 91.5568 30.21 91.4568 29.2H108.747V27.98C108.747 25.75 108.277 23.77 107.347 22.04C106.417 20.31 105.107 18.96 103.417 17.98L103.437 17.99ZM91.5568 25.82C91.6868 25.1 91.8968 24.42 92.2268 23.8C92.7668 22.78 93.5068 21.98 94.4568 21.4C95.4068 20.82 96.4768 20.53 97.6768 20.53C98.8768 20.53 99.9368 20.83 100.857 21.43C101.777 22.03 102.487 22.86 102.987 23.92C103.267 24.51 103.457 25.14 103.577 25.81H91.5568V25.82ZM118.747 11.7H114.037V15.25C114.037 15.78 113.877 16.21 113.547 16.54C113.217 16.87 112.787 17.04 112.237 17.04H109.837L109.817 21.43H113.667L113.687 33.14C113.687 34.25 113.947 35.25 114.467 36.14C114.987 37.02 115.717 37.72 116.647 38.22C117.577 38.72 118.637 38.97 119.807 38.97H124.537V34.58H120.817C120.217 34.58 119.727 34.38 119.327 33.99C118.937 33.6 118.737 33.1 118.737 32.5L118.717 21.44H124.537L124.557 17.05H118.737V11.7H118.747ZM147.277 23.96C146.747 23.68 146.177 23.47 145.587 23.31C146.037 23.18 146.477 23.02 146.887 22.81C147.997 22.24 148.857 21.44 149.477 20.41C150.097 19.38 150.407 18.21 150.407 16.88C150.407 15.35 150.007 13.99 149.197 12.8C148.387 11.61 147.267 10.68 145.827 10.01C144.387 9.34 142.747 9 140.907 9H128.087V38.96H141.167C143.107 38.96 144.837 38.61 146.357 37.9C147.877 37.19 149.057 36.21 149.907 34.95C150.757 33.69 151.177 32.26 151.177 30.66C151.177 29.19 150.837 27.87 150.147 26.7C149.467 25.53 148.507 24.62 147.277 23.96ZM133.287 13.24H140.327C141.237 13.24 142.057 13.41 142.767 13.76C143.477 14.11 144.037 14.6 144.427 15.23C144.817 15.86 145.017 16.59 145.017 17.43C145.017 18.27 144.817 19.01 144.427 19.66C144.037 20.3 143.487 20.8 142.777 21.15C142.067 21.5 141.257 21.67 140.327 21.67H133.287V13.24ZM145.077 32.64C144.647 33.3 144.047 33.82 143.267 34.18C142.487 34.54 141.597 34.73 140.577 34.73H133.277V25.78H140.577C141.587 25.78 142.477 25.97 143.247 26.36C144.017 26.75 144.617 27.28 145.057 27.96C145.497 28.65 145.707 29.43 145.707 30.31C145.707 31.19 145.497 31.97 145.067 32.63L145.077 32.64ZM162.407 18.11C161.577 18.68 160.877 19.44 160.307 20.37V17.05H155.297V38.97H160.347V27.14C160.347 26.08 160.567 25.17 161.017 24.4C161.467 23.63 162.107 23.04 162.947 22.62C163.777 22.21 164.767 22 165.887 22H167.297V16.91H166.487C164.937 16.91 163.567 17.31 162.397 18.12L162.407 18.11ZM186.327 20.36C185.617 19.27 184.707 18.39 183.597 17.73C182.237 16.93 180.647 16.53 178.837 16.53C176.887 16.53 175.137 17.02 173.607 18C172.077 18.98 170.867 20.34 169.997 22.09C169.127 23.84 168.697 25.81 168.697 28.01C168.697 30.21 169.127 32.18 169.997 33.93C170.867 35.68 172.077 37.04 173.617 38.02C175.157 39 176.897 39.49 178.837 39.49C180.647 39.49 182.237 39.09 183.597 38.29C184.707 37.64 185.617 36.75 186.327 35.66V38.97H191.287V17.05H186.327V20.36ZM185.507 31.63C184.977 32.68 184.247 33.5 183.307 34.09C182.367 34.68 181.277 34.98 180.057 34.98C178.837 34.98 177.787 34.69 176.847 34.1C175.907 33.52 175.177 32.7 174.657 31.64C174.137 30.58 173.877 29.37 173.877 28C173.877 26.63 174.137 25.42 174.657 24.37C175.177 23.32 175.907 22.5 176.847 21.91C177.787 21.32 178.857 21.02 180.057 21.02C181.257 21.02 182.367 21.32 183.307 21.91C184.247 22.5 184.987 23.32 185.507 24.37C186.037 25.42 186.297 26.63 186.297 28C186.297 29.37 186.037 30.58 185.507 31.63ZM195.917 14.74H201.677V9.73H195.917V14.74ZM196.277 38.96H201.327V17.05H196.277V38.97V38.96ZM222.107 17.56C220.927 16.87 219.547 16.53 217.977 16.53C216.297 16.53 214.827 16.92 213.577 17.71C212.577 18.34 211.757 19.2 211.127 20.26V17.05H206.227V38.97H211.277V26.28C211.277 25.25 211.487 24.34 211.907 23.53C212.327 22.72 212.927 22.1 213.697 21.65C214.467 21.2 215.347 20.98 216.347 20.98C217.277 20.98 218.077 21.18 218.747 21.57C219.417 21.96 219.927 22.53 220.287 23.27C220.647 24.01 220.827 24.91 220.827 25.97V38.98H225.857V25.2C225.857 23.4 225.527 21.85 224.877 20.56C224.227 19.27 223.297 18.27 222.117 17.59L222.107 17.56ZM245.157 27.26C244.287 26.65 243.277 26.24 242.117 26.04L237.297 25.21C236.737 25.11 236.277 24.97 235.917 24.78C235.557 24.59 235.277 24.36 235.097 24.07C234.907 23.78 234.817 23.45 234.817 23.06C234.817 22.55 234.967 22.09 235.267 21.69C235.567 21.29 235.987 20.98 236.537 20.76C237.087 20.54 237.717 20.43 238.427 20.43C239.137 20.43 239.737 20.54 240.297 20.77C240.857 21 241.317 21.32 241.667 21.72C242.017 22.13 242.237 22.61 242.317 23.16H247.347C247.247 21.82 246.807 20.65 246.027 19.65C245.247 18.65 244.197 17.88 242.877 17.34C241.557 16.8 240.067 16.53 238.417 16.53C236.767 16.53 235.247 16.82 233.957 17.4C232.667 17.98 231.667 18.78 230.967 19.8C230.267 20.82 229.917 21.98 229.917 23.28C229.917 24.34 230.157 25.31 230.637 26.19C231.117 27.07 231.787 27.81 232.657 28.41C233.527 29 234.547 29.39 235.717 29.58L240.577 30.39C241.037 30.46 241.437 30.61 241.787 30.83C242.137 31.05 242.407 31.33 242.597 31.65C242.787 31.98 242.887 32.34 242.887 32.74C242.887 33.28 242.717 33.76 242.367 34.16C242.017 34.56 241.527 34.88 240.897 35.11C240.267 35.34 239.567 35.45 238.777 35.45C237.937 35.45 237.197 35.34 236.567 35.12C235.937 34.9 235.417 34.58 235.027 34.17C234.637 33.76 234.407 33.26 234.327 32.67H229.277C229.367 34.01 229.827 35.2 230.657 36.23C231.487 37.26 232.617 38.06 234.027 38.63C235.437 39.2 237.027 39.48 238.797 39.48C240.567 39.48 242.007 39.19 243.387 38.6C244.767 38.01 245.847 37.19 246.637 36.13C247.427 35.07 247.827 33.87 247.827 32.55C247.827 31.48 247.597 30.48 247.127 29.56C246.667 28.64 245.997 27.87 245.127 27.26H245.157ZM272.777 9L261.907 38.96H267.427L269.777 31.77H281.807L284.357 38.96H289.747L278.537 9H272.777ZM271.117 27.58L275.157 15.57L275.607 13.71L276.077 15.57L280.377 27.58H271.107H271.117ZM292.777 9V38.96H298.237V9H292.777Z" fill="black"></path>
  <path d="M3.72684 8.16C8.04684 5.7 13.9868 4.5 19.0868 4.5C34.0268 4.5 43.5068 11.46 43.5068 20.88C43.5068 28.38 36.9668 33 28.2668 33C21.2468 33 16.0268 30.42 16.0268 27C16.0268 23.76 19.3268 22.2 24.0068 24L25.2068 20.34C17.9468 18 11.9468 21.3 11.9468 27C11.9468 32.7 19.0268 36.78 28.5068 36.78C39.7868 36.78 48.0068 30.54 48.0068 20.88C48.0068 8.82 36.6068 0 19.0868 0C13.4468 0 7.08684 1.44 1.86684 4.26L3.72684 8.16ZM44.2868 39.84C39.9668 42.3 34.0268 43.5 28.9268 43.5C13.9868 43.5 4.50684 36.54 4.50684 27.12C4.50684 19.62 11.0468 15 19.7468 15C26.7668 15 31.9868 17.58 31.9868 21C31.9868 24.24 28.6868 25.8 24.0068 24L22.8068 27.66C30.0668 30 36.0668 26.7 36.0668 21C36.0668 15.3 28.9868 11.22 19.5068 11.22C8.22684 11.22 0.00683594 17.46 0.00683594 27.12C0.00683594 39.18 11.4068 48 28.9268 48C34.5668 48 40.9268 46.56 46.1468 43.74L44.2868 39.84Z" fill="url(#paint0_linear_2755_5380)"></path>
  <defs>
    <linearGradient id="paint0_linear_2755_5380" x1="4.75309" y1="8.63622" x2="70.6136" y2="59.748" gradientUnits="userSpaceOnUse">
      <stop stop-color="#955AE0"></stop>
      <stop offset="1" stop-color="#4D67F0"></stop>
    </linearGradient>
  </defs>
</svg>
