<?xml version="1.0" encoding="utf-8"?>
<!-- Generator: Adobe Illustrator 27.3.1, SVG Export Plug-In . SVG Version: 6.00 Build 0)  -->
<svg version="1.1" id="Layer_1" xmlns="http://www.w3.org/2000/svg" xmlns:xlink="http://www.w3.org/1999/xlink" x="0px" y="0px"
	 viewBox="0 0 250 65" style="enable-background:new 0 0 250 65;" xml:space="preserve">
<style type="text/css">
	.st0{fill:#FFFFFF;}
	.st1{fill:#41BF47;}
</style>
<path class="st0" d="M93.5,64h-4.8l-0.8-5.6h-5.9L81.1,64h-4.4l4.8-30.6h7.1L93.5,64z M82.5,54.3h4.7l-2.3-15.5L82.5,54.3z"/>
<path class="st0" d="M105.7,64c-0.4-1.2-0.6-2.5-0.4-3.8v-4.8c0-2.9-0.9-3.9-3.1-3.9h-1.7V64h-4.8V33.4h7.3c5,0,7.2,2.3,7.2,7v2.4
	c0,3.1-1,5.2-3.1,6.2c2.4,1,3.2,3.3,3.2,6.5v4.7c-0.1,1.3,0.1,2.6,0.5,3.7L105.7,64z M100.4,37.7v9.4h1.9c1.8,0,2.9-0.8,2.9-3.2v-3
	c0-2.2-0.7-3.1-2.5-3.1L100.4,37.7z"/>
<path class="st0" d="M111.8,33.4h14.9v4.4h-5V64h-4.8V37.7h-5L111.8,33.4L111.8,33.4z"/>
<path class="st0" d="M128.7,33.4h4.8V64h-4.8V33.4z"/>
<path class="st0" d="M141.2,47h6.2v4.4h-6.2V64h-4.8V33.4h12.7v4.4h-7.9L141.2,47L141.2,47z"/>
<path class="st0" d="M165.6,64h-4.9l-0.8-5.6h-6l-0.8,5.6h-4.4l4.9-30.6h7L165.6,64z M154.6,54.3h4.7L157,38.8L154.6,54.3z"/>
<path class="st0" d="M181.5,52.6v4.1c0,4.9-2.5,7.7-7.2,7.7s-7.2-2.8-7.2-7.7v-16c0-4.9,2.5-7.8,7.2-7.8s7.2,2.8,7.2,7.8v3h-4.5
	v-3.3c0-2.2-1-3-2.5-3s-2.5,0.8-2.5,3v16.5c0,2.2,1,3,2.5,3c1.5,0,2.5-0.8,2.5-3v-4.4L181.5,52.6L181.5,52.6z"/>
<path class="st0" d="M183.1,33.4H198v4.4h-5V64h-4.8V37.7h-5L183.1,33.4z"/>
<path class="st0" d="M199.8,40.7c0-4.9,2.6-7.8,7.3-7.8c4.7,0,7.3,2.8,7.3,7.8v16c0,4.9-2.6,7.7-7.3,7.7s-7.3-2.8-7.3-7.7V40.7z
	 M204.6,56.9c0,2.2,1,3,2.5,3s2.5-0.8,2.5-3V40.4c0-2.2-1-3-2.5-3s-2.5,0.8-2.5,3V56.9z"/>
<path class="st0" d="M227.1,64c-0.4-1.2-0.6-2.5-0.4-3.8v-4.8c0-2.9-1-3.9-3.1-3.9h-1.7V64H217V33.4h7.3c5,0,7.1,2.3,7.1,7v2.4
	c0,3.1-1,5.2-3.1,6.2c2.4,1,3.2,3.3,3.2,6.5v4.7c-0.1,1.3,0.1,2.6,0.5,3.7L227.1,64z M221.8,37.7v9.4h1.9c1.8,0,2.9-0.8,2.9-3.2v-3
	c0-2.2-0.7-3.1-2.5-3.1L221.8,37.7z"/>
<path class="st0" d="M238.6,53.9l-6.1-20.5h5l3.7,14l3.7-14h4.6l-6.1,20.5V64h-4.8L238.6,53.9z"/>
<rect x="0.7" y="60.2" class="st1" width="55.5" height="4.3"/>
<path class="st1" d="M28.4,48.6C15.3,48.6,4.6,38,4.6,24.9c0-13.1,10.6-23.7,23.7-23.7c13.1,0,23.7,10.6,23.7,23.7l0,0
	C52.1,38,41.5,48.6,28.4,48.6z M28.4,5.7c-10.6,0-19.2,8.6-19.2,19.2c0,10.6,8.6,19.2,19.2,19.2c10.6,0,19.2-8.6,19.2-19.2l0,0v0
	C47.5,14.3,39,5.8,28.4,5.7L28.4,5.7z"/>
<path class="st1" d="M76.8,27c-0.6,0-1.3-0.1-2-0.2v-2.7c0.5,0.1,1,0.2,1.5,0.2c0.6,0.1,1.2-0.2,1.5-0.7c0.4-0.6,0.5-1.4,0.5-2.1V7
	h3.3v14.5c0.1,1.5-0.3,3-1.2,4.1C79.6,26.6,78.2,27.1,76.8,27z"/>
<path class="st1" d="M88.8,22.5h-3.3V7h8.9v2.7h-5.7v4h5.2v2.7h-5.2L88.8,22.5z"/>
<path class="st1" d="M103.9,10.4c0.4,0,0.7,0,1.1,0.1l-0.2,3c-1.2-0.3-2.4,0-3.4,0.7c-0.6,0.6-0.9,1.4-0.9,2.3v6.1h-3.2V10.7h2.5
	l0.5,2h0.2c0.4-0.6,0.9-1.2,1.5-1.5C102.5,10.7,103.2,10.4,103.9,10.4z"/>
<path class="st1" d="M117.9,16.5c0.1,1.6-0.5,3.3-1.5,4.5c-1.1,1.1-2.7,1.7-4.3,1.6c-1,0-2.1-0.2-3-0.7c-0.9-0.5-1.6-1.2-2-2.2
	c-0.5-1-0.7-2.2-0.7-3.3c-0.1-1.6,0.5-3.3,1.5-4.5c1.1-1.1,2.7-1.7,4.3-1.5c1,0,2.1,0.2,3,0.7c0.9,0.5,1.6,1.2,2,2.1
	C117.7,14.3,117.9,15.4,117.9,16.5z M109.7,16.5c-0.1,0.9,0.1,1.9,0.6,2.7c0.8,1,2.4,1.2,3.4,0.4c0.1-0.1,0.3-0.2,0.4-0.4
	c0.4-0.8,0.6-1.7,0.6-2.7c0.1-0.9-0.1-1.9-0.6-2.7c-0.4-0.6-1.1-0.9-1.9-0.9c-0.7-0.1-1.4,0.3-1.9,0.9
	C109.9,14.7,109.7,15.6,109.7,16.5L109.7,16.5z"/>
<path class="st1" d="M130.9,10.6v1.6l-1.9,0.5c0.3,0.5,0.5,1.1,0.5,1.8c0.1,1.1-0.4,2.3-1.3,3c-1.1,0.8-2.4,1.1-3.7,1.1h-1.1
	c-0.3,0.2-0.5,0.5-0.5,0.8c0,0.5,0.6,0.7,1.8,0.7h2c1-0.1,2.1,0.2,3,0.8c0.7,0.6,1.1,1.5,1,2.5c0,1.3-0.6,2.6-1.8,3.2
	c-1.5,0.8-3.2,1.2-5,1.1c-1.3,0.1-2.6-0.2-3.8-0.9c-0.8-0.5-1.3-1.4-1.3-2.4c0-0.7,0.2-1.3,0.6-1.8c0.5-0.5,1.2-0.9,2-1
	c-0.3-0.1-0.6-0.4-0.9-0.7c-0.2-0.3-0.4-0.6-0.4-1c0-0.4,0.1-0.8,0.4-1.1c0.3-0.3,0.7-0.6,1.1-0.9c-0.6-0.2-1.2-0.7-1.5-1.3
	c-0.4-0.6-0.6-1.3-0.5-2.1c-0.1-1.1,0.4-2.3,1.2-3c1-0.8,2.3-1.1,3.6-1c0.4,0,0.8,0,1.2,0.1l0.9,0.1L130.9,10.6z M121.7,24.1
	c0,0.4,0.2,0.8,0.6,1c0.5,0.3,1.2,0.4,1.8,0.4c0.9,0,1.9-0.1,2.7-0.5c0.6-0.2,1-0.7,1-1.3c0-0.4-0.2-0.8-0.6-0.9
	c-0.6-0.2-1.2-0.3-1.8-0.2h-1.7c-0.5,0-1.1,0.1-1.5,0.4C121.9,23.3,121.7,23.7,121.7,24.1L121.7,24.1z M122.9,14.5
	c0,0.5,0.1,1.1,0.4,1.5c0.7,0.7,2,0.7,2.7,0l0,0c0.3-0.5,0.4-1,0.4-1.5c0-1.4-0.6-2.2-1.7-2.2S122.8,13.1,122.9,14.5L122.9,14.5z"/>
</svg>
