<?xml version="1.0" encoding="utf-8"?>
<!-- Generator: Adobe Illustrator 27.3.1, SVG Export Plug-In . SVG Version: 6.00 Build 0)  -->
<svg version="1.1" id="Layer_1" xmlns="http://www.w3.org/2000/svg" xmlns:xlink="http://www.w3.org/1999/xlink" x="0px" y="0px"
	 viewBox="0 0 511.2 171.1" style="enable-background:new 0 0 511.2 171.1;" xml:space="preserve">
<style type="text/css">
	.st0{fill:#FFFFFF;}
	.st1{fill:#00F2E6;}
	.st2{fill:#00B9F1;}
	.st3{fill:#D63AFF;}
	.st4{fill:#FB015B;}
	.st5{fill-rule:evenodd;clip-rule:evenodd;fill:#FFFFFF;}
</style>
<g>
	<polygon class="st0" points="98.2,46 98,0 72.4,0 72.5,46 85.4,63.6 	"/>
	<polygon class="st0" points="72.5,124.9 72.5,171.1 98.2,171.1 98.2,124.9 85.4,107.3 	"/>
	<polygon class="st1" points="98.2,124.9 125.2,162.2 145.9,147.1 118.9,109.8 98.2,103.2 	"/>
	<polygon class="st1" points="72.5,46 45.3,8.7 24.6,23.8 51.7,61.1 72.5,67.7 	"/>
	<polygon class="st2" points="51.7,61.1 7.9,46.9 0,71.2 43.8,85.5 64.5,78.7 	"/>
	<polygon class="st2" points="106.1,92.2 118.9,109.8 162.7,124 170.6,99.7 126.8,85.5 	"/>
	<polygon class="st3" points="126.8,85.5 170.6,71.2 162.7,46.9 118.9,61.1 106.1,78.7 	"/>
	<polygon class="st3" points="43.8,85.5 0,99.7 7.9,124 51.7,109.8 64.5,92.2 	"/>
	<polygon class="st4" points="51.7,109.8 24.6,147.1 45.3,162.2 72.5,124.9 72.5,103.2 	"/>
	<polygon class="st4" points="118.9,61.1 145.9,23.8 125.2,8.7 98.2,46 98.2,67.7 	"/>
</g>
<g id="Page-1">
	<g id="jwt_logo" transform="translate(-292.000000, -563.000000)">
		<g id="Group" transform="translate(0.000000, 413.000000)">
			<g id="Shape" transform="translate(150.000000, 125.000000)">
				<path class="st5" d="M383.4,64.5v65.7c0,14.5-11.8,26.3-26.3,26.3v-13.1c7.3,0,13.1-5.8,13.1-13.1V64.5H383.4L383.4,64.5z
					 M623.5,77.7h29.7V64.5h-72.3v13.1h29.5v78.9h13.1V77.7L623.5,77.7z M541.2,64.5v65.7c0,7.3-5.8,13.1-13.1,13.1
					c-7.3,0-13.1-5.8-13.1-13.1V90.8c0-14.5-11.8-26.3-26.3-26.3c-14.5,0-26.3,11.8-26.3,26.3v39.4c0,7.3-5.8,13.1-13.1,13.1
					s-13.1-5.8-13.1-13.1V64.5h-13.1v65.7c0,14.5,11.8,26.3,26.3,26.3c14.5,0,26.3-11.8,26.3-26.3V90.8c0-7.3,5.8-13.1,13.1-13.1
					c7.3,0,13.1,5.8,13.1,13.1l0,0v39.4c0,14.5,11.8,26.3,26.3,26.3c14.5,0,26.3-11.8,26.3-26.3V64.5H541.2L541.2,64.5z"/>
			</g>
		</g>
	</g>
</g>
</svg>
