<?xml version="1.0" encoding="utf-8"?>
<!-- Generator: Adobe Illustrator 16.0.3, SVG Export Plug-In . SVG Version: 6.00 Build 0)  -->
<!DOCTYPE svg PUBLIC "-//W3C//DTD SVG 1.1//EN" "http://www.w3.org/Graphics/SVG/1.1/DTD/svg11.dtd">
<svg version="1.1"
	 id="svg3074" xmlns:dc="http://purl.org/dc/elements/1.1/" xmlns:svg="http://www.w3.org/2000/svg" xmlns:inkscape="http://www.inkscape.org/namespaces/inkscape" xmlns:cc="http://creativecommons.org/ns#" xmlns:rdf="http://www.w3.org/1999/02/22-rdf-syntax-ns#" xmlns:sodipodi="http://sodipodi.sourceforge.net/DTD/sodipodi-0.dtd" sodipodi:docname="kafka-ar21.svg" inkscape:version="0.48.4 r9939"
	 xmlns="http://www.w3.org/2000/svg" xmlns:xlink="http://www.w3.org/1999/xlink" x="0px" y="0px" width="111.998px"
	 height="52.003px" viewBox="3.997 3.999 111.998 52.003" enable-background="new 3.997 3.999 111.998 52.003" xml:space="preserve"
	>
<title>Apache Kafka logo</title>
<sodipodi:namedview  guidetolerance="10" inkscape:cy="23.346305" gridtolerance="10" bordercolor="#666666" pagecolor="#ffffff" objecttolerance="10" inkscape:zoom="4.3913796" inkscape:cx="105.80545" id="namedview3080" borderopacity="1" showgrid="false" inkscape:current-layer="svg3074" inkscape:window-width="1418" inkscape:window-height="953" inkscape:pageshadow="2" inkscape:window-y="24" inkscape:pageopacity="0" inkscape:window-maximized="0" inkscape:window-x="65">
	</sodipodi:namedview>
<g transform="matrix(1.1458335,0,0,1.1458344,-8.815396,-4.3755997)">
	<path id="path3139" inkscape:connector-curvature="0" fill="#231F20" d="M20.688,11.348L20.688,11.348
		c-0.493-0.505-1.178-0.816-1.941-0.816c-0.76,0-1.439,0.311-1.927,0.816h-0.013c-0.492,0.499-0.797,1.197-0.797,1.97
		c0,0.776,0.305,1.47,0.797,1.965l0.013,0.014c0.488,0.5,1.167,0.806,1.927,0.806c0.763,0,1.447-0.306,1.941-0.806l0.006-0.014
		c0.493-0.496,0.795-1.189,0.795-1.965c0-0.772-0.302-1.47-0.795-1.97H20.688z M18.748,49.468L18.748,49.468
		c0.763,0,1.447-0.317,1.941-0.811l0.006-0.014c0.493-0.493,0.795-1.192,0.795-1.959c0-0.776-0.302-1.471-0.795-1.975h-0.006
		c-0.493-0.51-1.178-0.816-1.941-0.816c-0.76,0-1.439,0.307-1.927,0.816h-0.013c-0.492,0.504-0.797,1.197-0.797,1.975
		c0,0.766,0.305,1.466,0.797,1.959l0.013,0.014C17.308,49.151,17.987,49.468,18.748,49.468L18.748,49.468z M33.658,41.031
		L33.658,41.031c0.678-0.182,1.292-0.624,1.666-1.295l0.05-0.098l0,0c0.333-0.633,0.395-1.367,0.216-2.016
		c-0.18-0.695-0.62-1.311-1.276-1.694l-0.038-0.026c-0.64-0.357-1.368-0.436-2.037-0.251c-0.681,0.173-1.292,0.634-1.664,1.298
		c-0.378,0.661-0.456,1.417-0.276,2.116c0.187,0.687,0.623,1.307,1.276,1.694h0.004C32.231,41.142,32.971,41.211,33.658,41.031
		L33.658,41.031L33.658,41.031z M21.555,27.147L21.555,27.147c-0.718-0.729-1.71-1.186-2.807-1.186
		c-1.096,0-2.084,0.457-2.801,1.186c-0.715,0.728-1.156,1.733-1.156,2.849c0,1.116,0.441,2.125,1.156,2.861
		c0.717,0.724,1.705,1.178,2.801,1.178c1.098,0,2.088-0.453,2.807-1.178c0.716-0.736,1.157-1.745,1.157-2.861
		C22.712,28.879,22.271,27.875,21.555,27.147L21.555,27.147z M19.977,22.401L19.977,22.401c1.592,0.268,3.023,1.043,4.116,2.165
		h0.009c0.175,0.176,0.343,0.37,0.5,0.564l2.732-1.607c-0.368-1.13-0.385-2.311-0.089-3.418c0.389-1.483,1.336-2.81,2.751-3.642
		l0.046-0.03c1.401-0.807,2.994-0.975,4.431-0.578c1.456,0.396,2.769,1.363,3.586,2.801v0.004c0.814,1.431,0.978,3.074,0.591,4.552
		c-0.387,1.483-1.336,2.819-2.751,3.647l-0.372,0.224h-0.038c-1.309,0.634-2.748,0.733-4.07,0.379
		c-1.085-0.293-2.081-0.909-2.86-1.785l-2.728,1.603c0.314,0.845,0.487,1.754,0.487,2.716c0,0.957-0.173,1.88-0.487,2.729
		l2.728,1.599c0.779-0.888,1.775-1.491,2.86-1.785c1.456-0.405,3.07-0.233,4.48,0.603l0.091,0.043v0.004
		c1.362,0.839,2.277,2.137,2.66,3.603c0.388,1.47,0.223,3.113-0.591,4.548l-0.049,0.101l0,0l-0.006-0.009
		c-0.817,1.383-2.106,2.319-3.528,2.716c-1.457,0.39-3.072,0.223-4.48-0.601v-0.011c-1.416-0.834-2.361-2.164-2.751-3.644
		c-0.295-1.103-0.278-2.282,0.089-3.412l-2.732-1.604c-0.158,0.193-0.326,0.379-0.5,0.556l-0.009,0.009
		c-1.093,1.116-2.524,1.892-4.116,2.151v3.211c1.135,0.241,2.151,0.819,2.947,1.63l0,0l0.003,0.009
		c1.067,1.082,1.728,2.588,1.728,4.243c0,1.65-0.661,3.147-1.728,4.232l-0.003,0.017l0,0c-1.076,1.087-2.548,1.758-4.175,1.758
		c-1.618,0-3.097-0.672-4.168-1.758h-0.004v-0.017c-1.068-1.087-1.731-2.582-1.731-4.232c0-1.655,0.662-3.162,1.731-4.243v-0.009
		h0.004c0.794-0.811,1.813-1.387,2.944-1.63v-3.211c-1.592-0.259-3.02-1.036-4.112-2.151l-0.011-0.009
		c-1.363-1.393-2.217-3.31-2.217-5.435c0-2.121,0.854-4.039,2.217-5.431h0.011c1.092-1.122,2.519-1.897,4.112-2.164v-3.199
		c-1.131-0.25-2.149-0.827-2.944-1.633h-0.004v-0.01c-1.068-1.091-1.731-2.586-1.731-4.242c0-1.647,0.662-3.156,1.731-4.242l0,0
		l0.004-0.005c1.071-1.09,2.55-1.763,4.168-1.763c1.627,0,3.101,0.672,4.175,1.763v0.005h0.003c1.067,1.086,1.728,2.595,1.728,4.242
		c0,1.656-0.661,3.151-1.728,4.242l-0.003,0.009c-0.796,0.806-1.812,1.384-2.947,1.633v3.199H19.977z M35.324,20.267l-0.023-0.036
		c-0.378-0.645-0.978-1.076-1.643-1.262c-0.687-0.185-1.426-0.108-2.084,0.277h0.003c-0.657,0.378-1.096,0.999-1.28,1.693
		c-0.18,0.689-0.101,1.452,0.276,2.116l0.012,0.017c0.378,0.655,0.98,1.095,1.653,1.272c0.675,0.194,1.428,0.113,2.076-0.272
		l0.035-0.017c0.638-0.387,1.064-1,1.241-1.673C35.772,21.689,35.699,20.931,35.324,20.267L35.324,20.267"/>
	<path id="path3141" inkscape:connector-curvature="0" fill="#231F20" d="M47.447,21.206h3.049v9.471l4.398-4.949h3.655
		l-5.308,5.733l5.33,7.267h-3.491l-4.584-6.493v6.493h-3.049L47.447,21.206"/>
	<path id="path3143" inkscape:connector-curvature="0" fill="#231F20" d="M62.089,32.285c0,1.612,1.139,3.957,3.886,3.957
		c1.699,0,2.818-0.902,3.397-2.082c0.303-0.574,0.443-1.186,0.491-1.823c0.02-0.617-0.094-1.26-0.35-1.828
		c-0.535-1.228-1.722-2.293-3.559-2.293c-2.466,0-3.864,2.034-3.864,4.048V32.285z M72.887,38.729h-3.05v-1.872
		c-0.812,1.514-2.512,2.272-4.304,2.272c-4.096,0-6.492-3.245-6.492-6.914c0-4.096,2.908-6.889,6.492-6.889
		c2.328,0,3.746,1.255,4.304,2.298v-1.896h3.05V38.729"/>
	<path id="path3145" inkscape:connector-curvature="0" fill="#231F20" d="M76.339,28.12h-1.58v-2.392h1.58v-0.733
		c0-3.863,2.887-4.096,5.075-4.122v2.388c-0.77,0-2.025,0-2.025,1.827v0.638h2.025v2.392h-2.025v10.607h-3.05V28.12"/>
	<path id="path3147" inkscape:connector-curvature="0" fill="#231F20" d="M83.488,21.206h3.048v9.471l4.398-4.949h3.655
		l-5.308,5.733l5.329,7.267h-3.491l-4.584-6.493v6.493h-3.048L83.488,21.206"/>
	<path id="path3149" inkscape:connector-curvature="0" fill="#231F20" d="M98.13,32.285c0,1.612,1.139,3.957,3.886,3.957
		c1.697,0,2.815-0.902,3.395-2.082c0.304-0.574,0.445-1.186,0.491-1.823c0.02-0.617-0.094-1.26-0.352-1.828
		c-0.534-1.228-1.72-2.293-3.557-2.293c-2.466,0-3.863,2.034-3.863,4.048V32.285z M108.926,38.729h-3.049v-1.872
		c-0.814,1.514-2.513,2.272-4.304,2.272c-4.096,0-6.49-3.245-6.49-6.914c0-4.096,2.907-6.889,6.49-6.889
		c2.326,0,3.747,1.255,4.304,2.298v-1.896h3.049V38.729"/>
</g>
</svg>
