<?xml version="1.0" encoding="utf-8"?>
<!-- Generator: Adobe Illustrator 27.3.1, SVG Export Plug-In . SVG Version: 6.00 Build 0)  -->
<svg version="1.1" id="Warstwa_1" xmlns="http://www.w3.org/2000/svg" xmlns:xlink="http://www.w3.org/1999/xlink" x="0px" y="0px"
	 viewBox="0 0 688.1 272" style="enable-background:new 0 0 688.1 272;" xml:space="preserve">
<style type="text/css">
	.st0{fill:#326DE6;}
	.st1{fill:#FFFFFF;}
</style>
<g id="Warstwa_1-2">
	<g id="Wordmark">
		<path id="KEDA" class="st0" d="M98.5,184.8l-47.2-84.5L37,114.8v70H0V0h37v59.7L91.1,0H141L76.3,72.3l66.3,112.5H98.5z M303.9,0
			v37H180.7V0H303.9z M180.7,108.2v-37h102.1v37H180.7z M180.7,185.1v-37h122.5v37H180.7z M341.9,0h52.3c24.5-0.2,48,9.6,65.2,26.9
			c8.5,8.4,15.3,18.5,19.8,29.6c9.9,23,9.9,49.1,0,72.1c-4.5,11.1-11.2,21-19.8,29.3c-17.3,17.3-40.7,27.1-65.2,27.2H357v-0.3h-15.1
			V0z M378.9,148.1h15.3c30.7-0.4,55.2-25.6,54.8-56.3c-0.4-30.1-24.7-54.4-54.8-54.8h-15.3L378.9,148.1L378.9,148.1z M589.9,0h10.8
			l87.4,185.1h-41L594.3,72.7L537,185.1h-41.5L589.9,0z"/>
		<path id="Combined-Shape" class="st0" d="M610.3,185.1l14.1-25.6h-38.7l12.1-83.3l-60.1,108.9h-13.3l69.8-131l69.8,131H610.3z"/>
	</g>
</g>
<polygon class="st1" points="614.6,177.3 624.6,159.4 585.8,159.4 597.4,79.1 596.8,78 535.6,189 535.6,189 533.7,192.3 
	573.1,191.9 562.6,270.9 562.9,272 610.3,185 610.3,185 610.3,185 "/>
</svg>
