<?xml version="1.0" encoding="utf-8"?>
<!-- Generator: Adobe Illustrator 16.0.3, SVG Export Plug-In . SVG Version: 6.00 Build 0)  -->
<!DOCTYPE svg PUBLIC "-//W3C//DTD SVG 1.1//EN" "http://www.w3.org/Graphics/SVG/1.1/DTD/svg11.dtd">
<svg version="1.1" id="Layer_1" xmlns="http://www.w3.org/2000/svg" xmlns:xlink="http://www.w3.org/1999/xlink" x="0px" y="0px"
	 width="103.924px" height="45.13px" viewBox="7.935 7.332 103.924 45.13" enable-background="new 7.935 7.332 103.924 45.13"
	 xml:space="preserve">
<path fill="#fff" d="M48.42,31.889l1.365-1.706l3.453-3.656h2.74l-4.57,4.878l4.862,6.483h-2.82l-3.645-4.981l-1.326,1.096v3.892H46.1v-16h2.395
	V29.7l-0.126,2.192L48.42,31.889z M57.973,23.54c-0.023-0.367,0.106-0.728,0.356-0.998c0.278-0.246,0.644-0.37,1.014-0.345
	c0.364-0.022,0.72,0.102,0.992,0.345c0.249,0.271,0.375,0.631,0.351,0.998c0.02,0.357-0.107,0.708-0.352,0.97
	c-0.267,0.25-0.626,0.38-0.992,0.356c-0.373,0.026-0.74-0.103-1.014-0.356C58.082,24.249,57.953,23.898,57.973,23.54L57.973,23.54z
	 M60.533,37.917H58.12v-11.4h2.412L60.533,37.917z M69.795,26.32c1.28-0.05,2.508,0.523,3.301,1.54
	c0.799,1.031,1.199,2.474,1.199,4.33c0,1.865-0.4,3.301-1.206,4.353c-0.833,0.981-2.056,1.548-3.343,1.548
	c-1.287-0.002-2.509-0.568-3.344-1.548h-0.164l-0.443,1.343h-1.8v-16h2.428v3.837l-0.044,1.25l-0.061,1.058h0.104
	c0.75-1.137,2.044-1.792,3.404-1.72L69.795,26.32z M69.165,28.293c-0.8-0.075-1.583,0.247-2.101,0.86
	c-0.428,0.548-0.651,1.531-0.662,2.873v0.164c0,1.381,0.219,2.383,0.658,3.004c0.5,0.656,1.319,1.007,2.149,0.932
	c0.784,0.033,1.526-0.355,1.946-1.02c0.496-0.896,0.727-1.915,0.662-2.938C71.818,29.584,70.935,28.293,69.165,28.293L69.165,28.293
	z M84.2,37.9l-0.482-1.58h-0.081c-0.43,0.593-0.993,1.076-1.645,1.408c-0.678,0.275-1.406,0.404-2.139,0.379
	c-0.957,0.057-1.896-0.269-2.613-0.904c-0.658-0.685-1-1.613-0.943-2.561c-0.059-1.053,0.439-2.059,1.311-2.652
	c0.866-0.596,2.191-0.921,3.974-0.977l1.962-0.06v-0.608c0.048-0.592-0.132-1.18-0.504-1.644c-0.426-0.396-0.999-0.596-1.579-0.548
	c-0.569-0.003-1.134,0.082-1.677,0.252c-0.529,0.177-1.047,0.386-1.551,0.625l-0.785-1.727c0.643-0.33,1.324-0.577,2.029-0.734
	c0.68-0.163,1.377-0.248,2.076-0.252c1.44,0,2.54,0.316,3.301,0.948c0.753,0.632,1.118,1.62,1.096,2.965v7.673L84.2,37.9z
	 M80.604,36.256c0.772,0.039,1.529-0.225,2.11-0.734c0.554-0.537,0.847-1.299,0.8-2.06v-0.987l-1.463,0.066
	c-0.859-0.036-1.713,0.152-2.477,0.548c-0.521,0.341-0.818,0.937-0.778,1.558c-0.024,0.437,0.139,0.863,0.449,1.172
	c0.389,0.32,0.886,0.477,1.387,0.438L80.604,36.256z M99.3,37.9h-2.428v-7c0.046-0.698-0.147-1.39-0.548-1.962
	c-0.432-0.464-1.053-0.703-1.684-0.647c-0.848-0.072-1.68,0.264-2.242,0.904c-0.471,0.603-0.707,1.613-0.707,3.03v5.662h-2.416
	v-11.36h1.899l0.341,1.485h0.125c0.354-0.551,0.86-0.986,1.459-1.25c0.656-0.302,1.371-0.454,2.094-0.444
	c2.729,0,4.094,1.387,4.094,4.16L99.3,37.9z M109.77,37.9l-0.481-1.58h-0.082c-0.429,0.593-0.992,1.076-1.644,1.408
	c-0.679,0.275-1.406,0.404-2.139,0.379c-0.957,0.057-1.896-0.268-2.613-0.904c-0.658-0.685-1-1.613-0.943-2.561
	c-0.059-1.053,0.438-2.059,1.31-2.652c0.866-0.596,2.191-0.921,3.974-0.977l1.963-0.06v-0.608c0.048-0.592-0.133-1.18-0.504-1.644
	c-0.426-0.396-1-0.596-1.58-0.548c-0.568-0.003-1.134,0.082-1.676,0.252c-0.529,0.177-1.047,0.386-1.552,0.625l-0.784-1.727
	c0.643-0.33,1.323-0.577,2.028-0.734c0.681-0.163,1.378-0.247,2.077-0.252c1.439,0,2.54,0.316,3.3,0.948
	c0.753,0.632,1.118,1.62,1.097,2.965v7.673L109.77,37.9z M106.174,36.256c0.772,0.039,1.529-0.225,2.11-0.734
	c0.554-0.537,0.846-1.299,0.8-2.06v-0.987l-1.463,0.066c-0.859-0.036-1.713,0.152-2.477,0.548c-0.521,0.341-0.818,0.937-0.778,1.558
	c-0.025,0.437,0.138,0.863,0.448,1.172C105.195,36.133,105.682,36.289,106.174,36.256L106.174,36.256z"/>
<g>
	<path fill="#343741" d="M8.48,24.5v23.128l16.44-18.933C19.88,25.932,14.226,24.5,8.48,24.5z"/>
	<path fill="#F04E98" d="M8.48,7.96V24.5c5.745,0,11.398,1.442,16.44,4.194L42.918,7.96H8.48z"/>
	<path fill="#00BFB3" d="M28.454,30.902L10.113,52.04H42.23C40.478,43.505,35.555,35.952,28.454,30.902L28.454,30.902z"/>
</g>
</svg>
