<?xml version="1.0" encoding="utf-8"?>
<!-- Generator: Adobe Illustrator 16.0.3, SVG Export Plug-In . SVG Version: 6.00 Build 0)  -->
<!DOCTYPE svg PUBLIC "-//W3C//DTD SVG 1.1//EN" "http://www.w3.org/Graphics/SVG/1.1/DTD/svg11.dtd">
<svg version="1.1" id="svg10488" xmlns:svg="http://www.w3.org/2000/svg"
	 xmlns="http://www.w3.org/2000/svg" xmlns:xlink="http://www.w3.org/1999/xlink" x="0px" y="0px" width="1011.261px"
	 height="170.755px" viewBox="3.833 2.587 1011.261 170.755" enable-background="new 3.833 2.587 1011.261 170.755"
	 xml:space="preserve">
<path id="path10349" fill="#326DE6" d="M165.027,40.563c-1.01-3.232-3.434-5.858-6.464-7.474L96.952,3.597
	c-1.616-0.808-3.434-1.01-5.05-1.01c-1.616,0-3.434,0-5.05,0.404L25.241,32.686c-3.03,1.414-5.252,4.04-6.06,7.474L4.03,106.619
	c-0.606,3.434,0.202,6.867,2.222,9.695l42.623,52.724c2.424,2.424,5.858,4.04,9.292,4.242h67.873
	c3.636,0.403,7.07-1.212,9.292-4.242l42.623-52.724c2.02-2.828,2.828-6.262,2.424-9.695L165.027,40.563L165.027,40.563z"/>
<path id="path10351" fill="#FFFFFF" d="M155.533,103.992L155.533,103.992c-0.202,0-0.404,0-0.404-0.201
	c0-0.202-0.404-0.202-0.808-0.202c-0.808-0.202-1.616-0.202-2.424-0.202c-0.404,0-0.808,0-1.212-0.202h-0.202
	c-2.222-0.202-4.646-0.606-6.868-1.212c-0.606-0.201-1.212-0.808-1.414-1.414c0.202,0,0,0,0,0l0,0l-1.616-0.404
	c0.808-5.857,0.404-11.918-0.808-17.776c-1.414-5.858-3.838-11.514-7.07-16.564l1.212-1.212l0,0V64.4
	c0-0.606,0.202-1.414,0.606-1.818c1.818-1.616,3.636-2.828,5.656-4.04l0,0c0.404-0.202,0.808-0.404,1.212-0.606
	c0.808-0.404,1.414-0.808,2.222-1.212c0.202-0.202,0.404-0.202,0.606-0.404c0.202-0.202,0-0.202,0-0.404l0,0
	c1.818-1.414,2.222-3.838,0.808-5.656c-0.606-0.808-1.818-1.414-2.828-1.414c-1.01,0-2.02,0.404-2.828,1.01l0,0l-0.202,0.202
	c-0.202,0.202-0.404,0.404-0.606,0.404c-0.606,0.606-1.212,1.212-1.616,1.818c-0.202,0.404-0.606,0.606-0.808,0.808l0,0
	c-1.414,1.616-3.232,3.232-5.05,4.444c-0.404,0.202-0.808,0.404-1.212,0.404c-0.202,0-0.606,0-0.808-0.202h-0.202l-1.616,1.01
	c-1.616-1.616-3.434-3.232-5.05-4.848c-7.474-5.858-16.766-9.495-26.261-10.504l-0.202-1.616l0,0v0.202
	c-0.606-0.404-0.808-1.01-1.01-1.616c0-2.222,0-4.444,0.404-6.868v-0.202c0-0.404,0.202-0.808,0.202-1.212
	c0.202-0.808,0.202-1.616,0.404-2.424v-1.212l0,0c0.202-2.02-1.414-4.04-3.434-4.242c-1.212-0.202-2.424,0.404-3.434,1.414
	c-0.808,0.808-1.212,1.818-1.212,2.828l0,0v1.01c0,0.808,0.202,1.616,0.404,2.424c0.202,0.404,0.202,0.808,0.202,1.212v0.202
	c0.404,2.222,0.404,4.444,0.404,6.868c-0.202,0.606-0.404,1.212-1.01,1.616v0.404l0,0l-0.202,1.616
	c-2.222,0.202-4.444,0.606-6.868,1.01c-9.494,2.02-18.181,7.07-24.847,14.14l-1.212-0.808h-0.202c-0.202,0-0.404,0.202-0.808,0.202
	c-0.404,0-0.808-0.202-1.212-0.404c-1.818-1.414-3.636-3.03-5.05-4.646l0,0c-0.202-0.404-0.606-0.606-0.808-0.808
	c-0.606-0.606-1.01-1.212-1.616-1.818c-0.202-0.202-0.404-0.202-0.606-0.404s-0.202-0.202-0.202-0.202l0,0
	c-0.808-0.606-1.818-1.01-2.828-1.01c-1.212,0-2.222,0.404-2.828,1.414c-1.212,1.818-0.808,4.242,0.808,5.656l0,0
	c0.202,0,0.202,0.202,0.202,0.202s0.404,0.404,0.606,0.404c0.606,0.404,1.414,0.808,2.222,1.212
	c0.404,0.202,0.808,0.404,1.212,0.606l0,0c2.02,1.212,4.04,2.424,5.656,4.04c0.404,0.404,0.808,1.212,0.606,1.818v-0.202l0,0
	l1.212,1.212c-0.202,0.404-0.404,0.606-0.606,1.01c-6.262,9.898-8.888,21.615-7.07,33.129l-1.616,0.404l0,0
	c0,0.201-0.202,0.201-0.202,0.201c-0.202,0.606-0.808,1.011-1.414,1.414c-2.222,0.606-4.444,1.01-6.868,1.213l0,0
	c-0.404,0-0.808,0-1.212,0.201c-0.808,0-1.616,0.202-2.424,0.202c-0.202,0-0.404,0.202-0.808,0.202c-0.202,0-0.202,0-0.404,0.202
	l0,0c-2.222,0.403-3.636,2.424-3.232,4.646l0,0c0.404,1.818,2.222,3.031,4.04,2.828c0.404,0,0.606,0,1.01-0.201l0,0
	c0.202,0,0.202,0,0.202-0.202s0.606,0,0.808,0c0.808-0.202,1.616-0.606,2.222-0.808c0.404-0.203,0.808-0.404,1.212-0.404h0.202
	c2.222-0.809,4.242-1.414,6.666-1.818h0.202c0.606,0,1.212,0.202,1.616,0.605c0.202,0,0.202,0.203,0.202,0.203l0,0l1.818-0.203
	c3.03,9.293,8.686,17.574,16.564,23.635c1.818,1.414,3.434,2.627,5.454,3.637l-1.01,1.414l0,0c0,0.201,0.202,0.201,0.202,0.201
	c0.404,0.606,0.404,1.414,0.202,2.021c-0.808,2.021-2.02,4.04-3.232,5.858v0.201c-0.202,0.404-0.404,0.606-0.808,1.011
	c-0.404,0.403-0.808,1.212-1.414,2.02c-0.202,0.202-0.202,0.404-0.404,0.606c0,0,0,0.201-0.202,0.201l0,0
	c-1.01,2.021-0.202,4.445,1.616,5.455c0.404,0.201,1.01,0.404,1.414,0.404c1.616,0,3.03-1.011,3.838-2.425l0,0
	c0,0,0-0.202,0.202-0.202c0-0.201,0.202-0.404,0.404-0.605c0.202-0.809,0.606-1.414,0.808-2.223l0.404-1.212l0,0
	c0.606-2.222,1.616-4.241,2.626-6.262c0.404-0.606,1.01-1.011,1.616-1.212c0.202,0,0.202,0,0.202-0.202l0,0l0.808-1.616
	c5.656,2.223,11.514,3.232,17.574,3.232c3.636,0,7.272-0.404,10.908-1.414c2.222-0.404,4.444-1.213,6.464-1.818l0.808,1.414l0,0
	c0.202,0,0.202,0,0.202,0.202c0.606,0.202,1.212,0.606,1.616,1.212c1.01,2.02,2.02,4.04,2.626,6.262v0.202l0.404,1.212
	c0.202,0.809,0.404,1.616,0.808,2.223c0.202,0.201,0.202,0.404,0.404,0.605c0,0,0,0.202,0.202,0.202l0,0
	c0.808,1.414,2.222,2.425,3.838,2.425c0.606,0,1.01-0.203,1.616-0.404c0.808-0.404,1.616-1.213,1.818-2.223
	c0.202-1.01,0.202-2.02-0.202-3.029l0,0c0-0.203-0.202-0.203-0.202-0.203c0-0.201-0.202-0.403-0.404-0.605
	c-0.404-0.809-0.808-1.414-1.414-2.02c-0.202-0.404-0.404-0.606-0.808-1.01V145c-1.414-1.818-2.424-3.838-3.232-5.858
	c-0.202-0.606-0.202-1.414,0.202-2.021c0-0.201,0.202-0.201,0.202-0.201l0,0l-0.606-1.616c10.302-6.263,18.181-15.958,21.816-27.473
	l1.616,0.202l0,0c0.202,0,0.202-0.202,0.202-0.202c0.404-0.404,1.01-0.606,1.616-0.606h0.202c2.222,0.404,4.444,1.01,6.464,1.818
	h0.202c0.404,0.202,0.808,0.404,1.212,0.404c0.808,0.404,1.414,0.808,2.222,1.01c0.202,0,0.404,0.202,0.808,0.202
	c0.202,0,0.202,0,0.404,0.202l0,0c0.404,0.201,0.606,0.201,1.01,0.201c1.818,0,3.434-1.211,4.04-2.828
	C158.967,106.013,157.352,104.396,155.533,103.992z M97.154,97.73l-5.454,2.627l-5.454-2.627l-1.414-5.857l3.838-4.849h6.06
	l3.838,4.849L97.154,97.73z M130.081,84.601c1.01,4.242,1.212,8.483,0.808,12.726l-19.19-5.453l0,0
	c-1.818-0.404-2.828-2.223-2.424-4.041c0.202-0.606,0.404-1.01,0.808-1.414l15.15-13.736
	C127.455,76.318,129.071,80.358,130.081,84.601L130.081,84.601z M119.172,65.208l-16.564,11.716
	c-1.414,0.808-3.434,0.606-4.444-0.808c-0.404-0.404-0.606-0.808-0.606-1.414L96.346,54.3
	C105.234,55.31,113.112,59.148,119.172,65.208L119.172,65.208z M82.61,54.906l4.04-0.808l-1.01,20.201l0,0
	c0,1.818-1.616,3.232-3.434,3.232c-0.606,0-1.01-0.202-1.616-0.404L63.823,65.208C69.076,60.158,75.54,56.522,82.61,54.906z
	 M57.965,72.682l14.948,13.333l0,0c1.414,1.212,1.616,3.232,0.404,4.646c-0.404,0.606-0.808,0.808-1.616,1.009l-19.595,5.656
	C51.501,88.843,53.521,80.156,57.965,72.682z M54.531,106.82l19.999-3.434c1.616,0,3.232,1.01,3.434,2.626
	c0.202,0.606,0.202,1.414-0.202,2.021l0,0l-7.676,18.584C63.016,121.971,57.359,114.9,54.531,106.82z M100.386,131.869
	c-2.828,0.606-5.656,1.01-8.686,1.01c-4.242,0-8.687-0.808-12.727-2.02l9.898-17.979c1.01-1.212,2.626-1.615,4.04-0.808
	c0.606,0.403,1.01,0.808,1.616,1.413l0,0l9.696,17.575C103.012,131.264,101.8,131.465,100.386,131.869z M125.031,114.295
	c-3.03,4.848-7.272,9.09-12.12,12.12l-7.878-18.988c-0.404-1.616,0.404-3.231,1.818-3.838c0.606-0.202,1.212-0.404,1.818-0.404
	l20.2,3.435C127.859,109.447,126.646,112.073,125.031,114.295z"/>
<path id="path3003" d="M982.538,128.84c2.828,0.201,5.858-0.203,8.484-1.213c1.616-0.808,2.626-2.626,2.424-4.443
	c-0.202-2.021-1.414-3.838-3.231-4.444c-3.03-1.818-6.465-3.435-9.898-4.444c-3.435-1.212-6.464-2.626-9.292-4.04
	c-2.626-1.212-4.849-2.828-7.07-4.849c-2.021-2.02-3.435-4.242-4.444-6.867c-1.212-3.03-1.616-6.263-1.616-9.495
	c-0.202-6.666,2.828-13.13,8.08-17.17c5.454-4.242,12.727-6.262,22.019-6.262c4.444,0,9.091,0.404,13.534,1.414
	c3.435,0.606,6.868,1.414,10.303,2.626l-3.838,17.17c-2.828-1.01-5.454-1.616-8.282-2.424c-3.232-0.808-6.666-1.01-9.898-1.01
	c-6.868,0-10.303,1.818-10.303,5.656c0,0.808,0.202,1.616,0.404,2.424c0.404,0.808,1.01,1.414,1.818,2.02
	c0.808,0.606,2.02,1.213,3.434,2.021s3.435,1.616,5.858,2.424c4.04,1.414,8.08,3.231,11.716,5.252
	c2.828,1.414,5.253,3.232,7.272,5.656c1.818,1.818,3.03,4.04,3.838,6.666c0.809,2.828,1.212,5.656,1.212,8.484
	c0.404,6.868-2.827,13.534-8.686,17.372c-5.656,3.838-13.736,5.858-24.24,5.858c-5.858,0.202-11.515-0.403-17.171-1.817
	c-3.231-0.809-6.262-1.818-9.292-2.828l3.636-17.777c3.637,1.414,7.475,2.627,11.313,3.435
	C974.66,128.436,978.498,128.84,982.538,128.84 M871.234,106.619c-0.202-6.061,1.01-12.121,3.029-17.776
	c1.818-4.849,4.646-9.09,8.282-12.929c3.435-3.434,7.272-6.06,11.717-7.676c4.444-1.818,9.09-2.626,13.736-2.626
	c10.908,0,19.594,3.434,25.856,10.101c6.262,6.666,9.494,16.564,9.494,29.493c0,1.212,0,2.626-0.202,4.242
	c0,1.615-0.202,2.828-0.202,4.039h-49.289c0.404,4.242,2.626,8.283,6.263,10.707c4.443,2.828,9.696,4.242,14.948,4.04
	c3.838,0,7.878-0.404,11.716-1.011c3.232-0.605,6.464-1.615,9.494-3.029l3.03,17.776c-1.414,0.808-3.03,1.212-4.646,1.817
	c-2.222,0.606-4.443,1.213-6.666,1.414c-2.424,0.404-4.848,0.809-7.676,1.213c-2.626,0.201-5.454,0.403-8.282,0.403
	c-6.262,0.202-12.322-0.808-18.181-3.03c-4.848-1.817-9.09-4.646-12.726-8.281c-3.435-3.637-5.858-8.08-7.475-12.727
	C872.042,117.325,871.234,111.871,871.234,106.619 M922.341,98.337c0-1.818-0.403-3.636-1.01-5.454
	c-0.404-1.818-1.414-3.232-2.424-4.646c-1.212-1.414-2.626-2.626-4.242-3.434c-2.021-1.01-4.04-1.414-6.263-1.414
	c-2.222,0-4.242,0.404-6.262,1.414c-1.616,0.808-3.232,1.818-4.444,3.232c-1.212,1.414-2.222,3.03-2.828,4.848
	c-0.605,1.818-1.01,3.636-1.212,5.454H922.341 M812.047,48.24l21.816-3.434V67.43h26.261v18.18h-26.261v27.068
	c-0.202,3.839,0.605,7.677,2.424,10.909c1.616,2.625,4.849,4.039,9.898,4.039c2.424,0,4.848-0.201,7.07-0.605
	c2.424-0.404,4.646-1.01,6.868-1.818l3.029,16.969c-2.827,1.212-5.857,2.02-8.888,2.828c-3.838,0.808-7.878,1.212-11.918,1.212
	c-5.051,0.202-10.101-0.606-14.746-2.425c-3.637-1.414-6.868-3.838-9.293-6.666c-2.424-3.029-4.04-6.666-5.05-10.504
	c-1.01-4.443-1.414-9.09-1.212-13.534V48.24 M723.771,106.619c-0.201-6.061,1.011-12.121,3.03-17.776
	c1.818-4.849,4.646-9.09,8.282-12.929c3.435-3.434,7.272-6.06,11.717-7.676c4.443-1.818,9.09-2.626,13.735-2.626
	c10.908,0,19.595,3.434,25.857,10.101c6.262,6.666,9.494,16.564,9.494,29.493c0,1.212,0,2.626-0.202,4.242
	c-0.202,1.615-0.202,2.828-0.202,4.039h-49.491c0.404,4.242,2.626,8.283,6.263,10.707c4.443,2.828,9.695,4.242,14.948,4.04
	c3.838,0,7.878-0.404,11.716-1.011c3.232-0.605,6.464-1.615,9.696-3.029l3.03,17.776c-1.414,0.808-3.03,1.212-4.646,1.817
	c-2.222,0.606-4.444,1.213-6.666,1.414c-2.424,0.404-4.848,0.809-7.676,1.213c-2.626,0.201-5.454,0.404-8.282,0.404
	c-6.263,0.201-12.322-0.809-18.181-3.031c-4.848-1.817-9.09-4.646-12.727-8.281c-3.434-3.637-5.857-8.08-7.474-12.727
	C724.377,117.325,723.568,111.871,723.771,106.619 M774.878,98.337c0-1.818-0.404-3.636-1.01-5.454
	c-0.404-1.818-1.414-3.232-2.425-4.646c-1.212-1.414-2.626-2.626-4.242-3.434c-2.02-1.01-4.04-1.414-6.262-1.414
	s-4.242,0.404-6.262,1.414c-1.616,0.808-3.03,1.818-4.242,3.232c-1.212,1.414-2.223,3.03-2.828,4.848
	c-0.606,1.818-1.01,3.636-1.212,5.454H774.878 M640.949,70.056c4.646-1.212,9.494-2.222,14.342-3.03
	c6.061-1.01,12.322-1.414,18.383-1.414c5.454-0.202,10.908,0.808,16.16,2.626c4.04,1.414,7.676,3.838,10.303,7.07
	c2.626,3.232,4.443,7.07,5.454,11.11c1.212,4.646,1.615,9.494,1.615,14.342v43.431h-21.614v-40.603c0-7.07-1.01-11.919-2.828-14.948
	c-1.817-2.828-5.252-4.444-10.302-4.444c-1.616,0-3.232,0-5.05,0.202c-1.818,0-3.232,0.202-4.646,0.404v59.389h-21.816V70.056
	 M625.597,86.822c-2.02-0.404-4.242-1.01-6.868-1.414c-2.828-0.606-5.656-0.808-8.484-0.808c-1.615,0-3.231,0.202-5.05,0.404
	c-1.414,0.202-2.828,0.404-4.242,0.808v58.783h-21.816V71.47c4.444-1.616,9.091-2.828,13.736-3.838
	c5.858-1.414,11.918-2.02,17.776-1.818c1.414,0,2.828,0.202,4.242,0.202c1.616,0,3.232,0.202,5.05,0.606
	c1.616,0.202,3.232,0.404,5.051,0.808c1.413,0.202,2.827,0.606,4.241,1.212L625.597,86.822 M490.052,106.619
	c-0.202-6.061,1.011-12.121,3.03-17.776c1.818-4.849,4.646-9.09,8.282-12.929c3.435-3.434,7.272-6.06,11.716-7.676
	c4.444-1.818,9.091-2.626,13.736-2.626c10.908,0,19.595,3.434,25.856,10.101c6.263,6.666,9.495,16.564,9.495,29.291
	c0,1.212,0,2.626-0.202,4.242s-0.202,2.828-0.202,4.04h-49.491c0.404,4.242,2.626,8.282,6.262,10.706
	c4.444,2.828,9.696,4.242,14.948,4.04c3.839,0,7.879-0.404,11.717-1.01c3.232-0.606,6.464-1.616,9.494-2.828l3.03,17.776
	c-1.414,0.808-3.03,1.212-4.646,1.817c-2.222,0.606-4.444,1.213-6.666,1.414c-2.424,0.404-4.848,0.809-7.676,1.213
	c-2.626,0.201-5.454,0.403-8.282,0.403c-6.263,0.202-12.322-0.808-18.181-3.03c-4.848-1.817-9.09-4.646-12.727-8.281
	c-3.434-3.637-5.857-8.08-7.474-12.727C490.86,117.325,490.052,112.072,490.052,106.619 M541.361,98.337
	c0-1.818-0.404-3.636-1.01-5.454c-0.404-1.818-1.414-3.232-2.425-4.646c-1.212-1.414-2.626-2.626-4.242-3.434
	c-2.02-1.01-4.04-1.414-6.262-1.414s-4.242,0.404-6.263,1.414c-1.615,0.808-3.231,1.818-4.443,3.232
	c-1.212,1.414-2.223,3.03-2.828,4.848c-0.606,1.818-1.01,3.636-1.212,5.454H541.361 M454.701,105.406
	c0-14.14-5.252-21.008-15.555-21.008c-2.222,0-4.443,0.202-6.666,0.808c-1.817,0.404-3.636,1.212-5.252,2.222v39.593
	c1.01,0.201,2.424,0.404,4.04,0.605c1.616,0.202,3.435,0.202,5.454,0.202c5.252,0.404,10.303-1.817,13.534-6.06
	C453.287,116.921,454.903,111.266,454.701,105.406 M476.922,106.215c0,5.656-0.809,11.313-2.828,16.767
	c-1.616,4.848-4.242,9.09-7.676,12.726c-3.637,3.637-7.879,6.465-12.524,8.283c-5.454,2.02-11.11,2.827-16.969,2.827
	c-2.626,0-5.454-0.202-8.282-0.403c-2.828-0.202-5.656-0.606-8.484-0.809c-2.626-0.404-5.252-0.808-7.878-1.414
	c-2.626-0.404-4.848-1.01-6.666-1.818V34.301l21.816-3.434v38.381c2.424-1.01,5.05-1.818,7.676-2.424
	c2.828-0.606,5.656-0.808,8.484-0.808c5.051,0,9.898,0.808,14.545,3.03c4.04,1.818,7.676,4.646,10.504,8.081
	c3.03,3.838,5.252,8.08,6.464,12.726C476.315,94.902,476.922,100.559,476.922,106.215 M384.808,141.768
	c-4.646,1.212-9.494,2.223-14.342,2.828c-6.061,1.01-12.322,1.414-18.383,1.414c-5.656,0.202-11.11-0.809-16.362-2.626
	c-4.04-1.616-7.474-4.04-10.302-7.272c-2.626-3.434-4.444-7.271-5.454-11.514c-1.213-4.646-1.616-9.697-1.616-14.545V67.43h21.816
	v40.199c0,7.07,1.01,12.12,2.828,15.15c1.817,3.029,5.252,4.646,10.302,4.646c1.616,0,3.232,0,5.051-0.203
	c1.817-0.201,3.231-0.201,4.646-0.605V67.43h21.816V141.768 M257.545,95.307c2.222-2.424,4.242-4.848,6.666-7.272
	c2.222-2.626,4.444-5.05,6.666-7.474c2.222-2.626,4.242-4.848,6.06-7.07c1.818-2.222,3.636-4.242,5.05-5.858h25.856
	c-5.251,5.858-10.302,11.716-15.15,17.17c-5.05,5.454-10.302,11.11-16.16,16.766c3.232,3.03,6.262,6.061,9.09,9.494
	c3.03,3.637,6.06,7.272,9.09,11.313c2.828,3.838,5.656,7.879,8.08,11.717c2.424,3.838,4.444,7.474,6.061,10.706h-25.049
	c-1.616-2.626-3.434-5.253-5.454-8.282c-2.02-3.03-4.242-6.061-6.262-9.293c-2.222-3.029-4.646-6.06-7.272-8.888
	c-2.222-2.626-4.646-5.05-7.272-7.069V145h-21.817V34.301l21.817-3.434V95.307"/>
</svg>
