<?xml version="1.0" encoding="utf-8"?>
<!-- Generator: Adobe Illustrator 27.3.1, SVG Export Plug-In . SVG Version: 6.00 Build 0)  -->
<svg version="1.1" id="svg10488" xmlns:svg="http://www.w3.org/2000/svg"
	 xmlns="http://www.w3.org/2000/svg" xmlns:xlink="http://www.w3.org/1999/xlink" x="0px" y="0px" viewBox="0 0 1011.3 170.8"
	 style="enable-background:new 0 0 1011.3 170.8;" xml:space="preserve">
<style type="text/css">
	.st0{fill:#326DE6;}
	.st1{fill:#FFFFFF;}
</style>
<path id="path10349" class="st0" d="M161.2,38c-1-3.2-3.4-5.9-6.5-7.5L93.1,1c-1.6-0.8-3.4-1-5.1-1c-1.6,0-3.4,0-5.1,0.4L21.4,30.1
	c-3,1.4-5.3,4-6.1,7.5L0.2,104c-0.6,3.4,0.2,6.9,2.2,9.7L45,166.5c2.4,2.4,5.9,4,9.3,4.2h67.9c3.6,0.4,7.1-1.2,9.3-4.2l42.6-52.7
	c2-2.8,2.8-6.3,2.4-9.7L161.2,38L161.2,38z"/>
<path id="path10351" class="st1" d="M151.7,101.4L151.7,101.4c-0.2,0-0.4,0-0.4-0.2c0-0.2-0.4-0.2-0.8-0.2c-0.8-0.2-1.6-0.2-2.4-0.2
	c-0.4,0-0.8,0-1.2-0.2h-0.2c-2.2-0.2-4.6-0.6-6.9-1.2c-0.6-0.2-1.2-0.8-1.4-1.4c0.2,0,0,0,0,0l0,0l-1.6-0.4
	c0.8-5.9,0.4-11.9-0.8-17.8c-1.4-5.9-3.8-11.5-7.1-16.6l1.2-1.2l0,0v-0.2c0-0.6,0.2-1.4,0.6-1.8c1.8-1.6,3.6-2.8,5.7-4l0,0
	c0.4-0.2,0.8-0.4,1.2-0.6c0.8-0.4,1.4-0.8,2.2-1.2c0.2-0.2,0.4-0.2,0.6-0.4s0-0.2,0-0.4l0,0c1.8-1.4,2.2-3.8,0.8-5.7
	c-0.6-0.8-1.8-1.4-2.8-1.4c-1,0-2,0.4-2.8,1l0,0l-0.2,0.2c-0.2,0.2-0.4,0.4-0.6,0.4c-0.6,0.6-1.2,1.2-1.6,1.8
	c-0.2,0.4-0.6,0.6-0.8,0.8l0,0c-1.4,1.6-3.2,3.2-5.1,4.4c-0.4,0.2-0.8,0.4-1.2,0.4c-0.2,0-0.6,0-0.8-0.2H125l-1.6,1
	c-1.6-1.6-3.4-3.2-5.1-4.8c-7.5-5.9-16.8-9.5-26.3-10.5l-0.2-1.6l0,0v0.2c-0.6-0.4-0.8-1-1-1.6c0-2.2,0-4.4,0.4-6.9v-0.2
	c0-0.4,0.2-0.8,0.2-1.2c0.2-0.8,0.2-1.6,0.4-2.4v-1.2l0,0c0.2-2-1.4-4-3.4-4.2C87.3,21.4,86,22,85,23c-0.8,0.8-1.2,1.8-1.2,2.8l0,0
	v1c0,0.8,0.2,1.6,0.4,2.4c0.2,0.4,0.2,0.8,0.2,1.2v0.2c0.4,2.2,0.4,4.4,0.4,6.9c-0.2,0.6-0.4,1.2-1,1.6v0.4l0,0l-0.2,1.6
	c-2.2,0.2-4.4,0.6-6.9,1c-9.5,2-18.2,7.1-24.8,14.1l-1.2-0.8h-0.2c-0.2,0-0.4,0.2-0.8,0.2s-0.8-0.2-1.2-0.4c-1.8-1.4-3.6-3-5-4.6
	l0,0c-0.2-0.4-0.6-0.6-0.8-0.8c-0.6-0.6-1-1.2-1.6-1.8c-0.2-0.2-0.4-0.2-0.6-0.4s-0.2-0.2-0.2-0.2l0,0c-0.8-0.6-1.8-1-2.8-1
	c-1.2,0-2.2,0.4-2.8,1.4c-1.2,1.8-0.8,4.2,0.8,5.7l0,0c0.2,0,0.2,0.2,0.2,0.2s0.4,0.4,0.6,0.4c0.6,0.4,1.4,0.8,2.2,1.2
	c0.4,0.2,0.8,0.4,1.2,0.6l0,0c2,1.2,4,2.4,5.7,4c0.4,0.4,0.8,1.2,0.6,1.8v-0.2l0,0l1.2,1.2c-0.2,0.4-0.4,0.6-0.6,1
	c-6.3,9.9-8.9,21.6-7.1,33.1l-1.6,0.4l0,0c0,0.2-0.2,0.2-0.2,0.2c-0.2,0.6-0.8,1-1.4,1.4c-2.2,0.6-4.4,1-6.9,1.2l0,0
	c-0.4,0-0.8,0-1.2,0.2c-0.8,0-1.6,0.2-2.4,0.2c-0.2,0-0.4,0.2-0.8,0.2c-0.2,0-0.2,0-0.4,0.2l0,0c-2.2,0.4-3.6,2.4-3.2,4.6l0,0
	c0.4,1.8,2.2,3,4,2.8c0.4,0,0.6,0,1-0.2l0,0c0.2,0,0.2,0,0.2-0.2c0-0.2,0.6,0,0.8,0c0.8-0.2,1.6-0.6,2.2-0.8
	c0.4-0.2,0.8-0.4,1.2-0.4h0.2c2.2-0.8,4.2-1.4,6.7-1.8h0.2c0.6,0,1.2,0.2,1.6,0.6c0.2,0,0.2,0.2,0.2,0.2l0,0l1.8-0.2
	c3,9.3,8.7,17.6,16.6,23.6c1.8,1.4,3.4,2.6,5.5,3.6l-1,1.4l0,0c0,0.2,0.2,0.2,0.2,0.2c0.4,0.6,0.4,1.4,0.2,2c-0.8,2-2,4-3.2,5.9v0.2
	c-0.2,0.4-0.4,0.6-0.8,1c-0.4,0.4-0.8,1.2-1.4,2c-0.2,0.2-0.2,0.4-0.4,0.6c0,0,0,0.2-0.2,0.2l0,0c-1,2-0.2,4.4,1.6,5.5
	c0.4,0.2,1,0.4,1.4,0.4c1.6,0,3-1,3.8-2.4l0,0c0,0,0-0.2,0.2-0.2c0-0.2,0.2-0.4,0.4-0.6c0.2-0.8,0.6-1.4,0.8-2.2l0.4-1.2l0,0
	c0.6-2.2,1.6-4.2,2.6-6.3c0.4-0.6,1-1,1.6-1.2c0.2,0,0.2,0,0.2-0.2l0,0l0.8-1.6c5.7,2.2,11.5,3.2,17.6,3.2c3.6,0,7.3-0.4,10.9-1.4
	c2.2-0.4,4.4-1.2,6.5-1.8l0.8,1.4l0,0c0.2,0,0.2,0,0.2,0.2c0.6,0.2,1.2,0.6,1.6,1.2c1,2,2,4,2.6,6.3v0.2l0.4,1.2
	c0.2,0.8,0.4,1.6,0.8,2.2c0.2,0.2,0.2,0.4,0.4,0.6c0,0,0,0.2,0.2,0.2l0,0c0.8,1.4,2.2,2.4,3.8,2.4c0.6,0,1-0.2,1.6-0.4
	c0.8-0.4,1.6-1.2,1.8-2.2c0.2-1,0.2-2-0.2-3l0,0c0-0.2-0.2-0.2-0.2-0.2c0-0.2-0.2-0.4-0.4-0.6c-0.4-0.8-0.8-1.4-1.4-2
	c-0.2-0.4-0.4-0.6-0.8-1v-0.4c-1.4-1.8-2.4-3.8-3.2-5.9c-0.2-0.6-0.2-1.4,0.2-2c0-0.2,0.2-0.2,0.2-0.2l0,0l-0.6-1.6
	c10.3-6.3,18.2-16,21.8-27.5l1.6,0.2l0,0c0.2,0,0.2-0.2,0.2-0.2c0.4-0.4,1-0.6,1.6-0.6h0.2c2.2,0.4,4.4,1,6.5,1.8h0.2
	c0.4,0.2,0.8,0.4,1.2,0.4c0.8,0.4,1.4,0.8,2.2,1c0.2,0,0.4,0.2,0.8,0.2c0.2,0,0.2,0,0.4,0.2l0,0c0.4,0.2,0.6,0.2,1,0.2
	c1.8,0,3.4-1.2,4-2.8C155.1,103.4,153.5,101.8,151.7,101.4z M93.3,95.1l-5.5,2.6l-5.5-2.6L81,89.3l3.8-4.8h6.1l3.8,4.8L93.3,95.1z
	 M126.2,82c1,4.2,1.2,8.5,0.8,12.7l-19.2-5.5l0,0c-1.8-0.4-2.8-2.2-2.4-4c0.2-0.6,0.4-1,0.8-1.4l15.2-13.7
	C123.6,73.7,125.2,77.8,126.2,82L126.2,82z M115.3,62.6L98.8,74.3c-1.4,0.8-3.4,0.6-4.4-0.8c-0.4-0.4-0.6-0.8-0.6-1.4l-1.2-20.4
	C101.4,52.7,109.3,56.6,115.3,62.6L115.3,62.6z M78.8,52.3l4-0.8l-1,20.2l0,0c0,1.8-1.6,3.2-3.4,3.2c-0.6,0-1-0.2-1.6-0.4L60,62.6
	C65.2,57.6,71.7,53.9,78.8,52.3z M54.1,70.1l14.9,13.3l0,0c1.4,1.2,1.6,3.2,0.4,4.6c-0.4,0.6-0.8,0.8-1.6,1l-19.6,5.7
	C47.7,86.3,49.7,77.6,54.1,70.1z M50.7,104.2l20-3.4c1.6,0,3.2,1,3.4,2.6c0.2,0.6,0.2,1.4-0.2,2l0,0L66.3,124
	C59.2,119.4,53.5,112.3,50.7,104.2z M96.6,129.3c-2.8,0.6-5.7,1-8.7,1c-4.2,0-8.7-0.8-12.7-2l9.9-18c1-1.2,2.6-1.6,4-0.8
	c0.6,0.4,1,0.8,1.6,1.4l0,0l9.7,17.6C99.2,128.7,98,128.9,96.6,129.3z M121.2,111.7c-3,4.8-7.3,9.1-12.1,12.1l-7.9-19
	c-0.4-1.6,0.4-3.2,1.8-3.8c0.6-0.2,1.2-0.4,1.8-0.4L125,104C124,106.9,122.8,109.5,121.2,111.7z"/>
<path id="path3003" class="st1" d="M978.7,126.3c2.8,0.2,5.9-0.2,8.5-1.2c1.6-0.8,2.6-2.6,2.4-4.4c-0.2-2-1.4-3.8-3.2-4.4
	c-3-1.8-6.5-3.4-9.9-4.4c-3.4-1.2-6.5-2.6-9.3-4c-2.6-1.2-4.8-2.8-7.1-4.8c-2-2-3.4-4.2-4.4-6.9c-1.2-3-1.6-6.3-1.6-9.5
	c-0.2-6.7,2.8-13.1,8.1-17.2c5.5-4.2,12.7-6.3,22-6.3c4.4,0,9.1,0.4,13.5,1.4c3.4,0.6,6.9,1.4,10.3,2.6l-3.8,17.2
	c-2.8-1-5.5-1.6-8.3-2.4c-3.2-0.8-6.7-1-9.9-1c-6.9,0-10.3,1.8-10.3,5.7c0,0.8,0.2,1.6,0.4,2.4c0.4,0.8,1,1.4,1.8,2
	c0.8,0.6,2,1.2,3.4,2c1.4,0.8,3.4,1.6,5.9,2.4c4,1.4,8.1,3.2,11.7,5.3c2.8,1.4,5.3,3.2,7.3,5.7c1.8,1.8,3,4,3.8,6.7
	c0.8,2.8,1.2,5.7,1.2,8.5c0.4,6.9-2.8,13.5-8.7,17.4c-5.7,3.8-13.7,5.9-24.2,5.9c-5.9,0.2-11.5-0.4-17.2-1.8
	c-3.2-0.8-6.3-1.8-9.3-2.8l3.6-17.8c3.6,1.4,7.5,2.6,11.3,3.4C970.8,125.8,974.7,126.3,978.7,126.3 M867.4,104
	c-0.2-6.1,1-12.1,3-17.8c1.8-4.8,4.6-9.1,8.3-12.9c3.4-3.4,7.3-6.1,11.7-7.7c4.4-1.8,9.1-2.6,13.7-2.6c10.9,0,19.6,3.4,25.9,10.1
	c6.3,6.7,9.5,16.6,9.5,29.5c0,1.2,0,2.6-0.2,4.2c0,1.6-0.2,2.8-0.2,4h-49.3c0.4,4.2,2.6,8.3,6.3,10.7c4.4,2.8,9.7,4.2,14.9,4
	c3.8,0,7.9-0.4,11.7-1c3.2-0.6,6.5-1.6,9.5-3l3,17.8c-1.4,0.8-3,1.2-4.6,1.8c-2.2,0.6-4.4,1.2-6.7,1.4c-2.4,0.4-4.8,0.8-7.7,1.2
	c-2.6,0.2-5.5,0.4-8.3,0.4c-6.3,0.2-12.3-0.8-18.2-3c-4.8-1.8-9.1-4.6-12.7-8.3c-3.4-3.6-5.9-8.1-7.5-12.7
	C868.2,114.7,867.4,109.3,867.4,104 M918.5,95.7c0-1.8-0.4-3.6-1-5.5c-0.4-1.8-1.4-3.2-2.4-4.6c-1.2-1.4-2.6-2.6-4.2-3.4
	c-2-1-4-1.4-6.3-1.4c-2.2,0-4.2,0.4-6.3,1.4c-1.6,0.8-3.2,1.8-4.4,3.2s-2.2,3-2.8,4.8c-0.6,1.8-1,3.6-1.2,5.5L918.5,95.7
	 M808.2,45.7l21.8-3.4v22.6h26.3V83H830v27.1c-0.2,3.8,0.6,7.7,2.4,10.9c1.6,2.6,4.8,4,9.9,4c2.4,0,4.8-0.2,7.1-0.6
	c2.4-0.4,4.6-1,6.9-1.8l3,17c-2.8,1.2-5.9,2-8.9,2.8c-3.8,0.8-7.9,1.2-11.9,1.2c-5.1,0.2-10.1-0.6-14.7-2.4
	c-3.6-1.4-6.9-3.8-9.3-6.7c-2.4-3-4-6.7-5-10.5c-1-4.4-1.4-9.1-1.2-13.5L808.2,45.7 M719.9,104c-0.2-6.1,1-12.1,3-17.8
	c1.8-4.8,4.6-9.1,8.3-12.9c3.4-3.4,7.3-6.1,11.7-7.7c4.4-1.8,9.1-2.6,13.7-2.6c10.9,0,19.6,3.4,25.9,10.1c6.3,6.7,9.5,16.6,9.5,29.5
	c0,1.2,0,2.6-0.2,4.2c-0.2,1.6-0.2,2.8-0.2,4h-49.5c0.4,4.2,2.6,8.3,6.3,10.7c4.4,2.8,9.7,4.2,14.9,4c3.8,0,7.9-0.4,11.7-1
	c3.2-0.6,6.5-1.6,9.7-3l3,17.8c-1.4,0.8-3,1.2-4.6,1.8c-2.2,0.6-4.4,1.2-6.7,1.4c-2.4,0.4-4.8,0.8-7.7,1.2c-2.6,0.2-5.5,0.4-8.3,0.4
	c-6.3,0.2-12.3-0.8-18.2-3c-4.8-1.8-9.1-4.6-12.7-8.3c-3.4-3.6-5.9-8.1-7.5-12.7C720.5,114.7,719.7,109.3,719.9,104 M771,95.7
	c0-1.8-0.4-3.6-1-5.5c-0.4-1.8-1.4-3.2-2.4-4.6c-1.2-1.4-2.6-2.6-4.2-3.4c-2-1-4-1.4-6.3-1.4s-4.2,0.4-6.3,1.4
	c-1.6,0.8-3,1.8-4.2,3.2s-2.2,3-2.8,4.8c-0.6,1.8-1,3.6-1.2,5.5L771,95.7 M637.1,67.5c4.6-1.2,9.5-2.2,14.3-3
	c6.1-1,12.3-1.4,18.4-1.4c5.5-0.2,10.9,0.8,16.2,2.6c4,1.4,7.7,3.8,10.3,7.1c2.6,3.2,4.4,7.1,5.5,11.1c1.2,4.6,1.6,9.5,1.6,14.3
	v43.4h-21.6V101c0-7.1-1-11.9-2.8-14.9c-1.8-2.8-5.3-4.4-10.3-4.4c-1.6,0-3.2,0-5,0.2c-1.8,0-3.2,0.2-4.6,0.4v59.4h-21.8L637.1,67.5
	 M621.8,84.2c-2-0.4-4.2-1-6.9-1.4c-2.8-0.6-5.7-0.8-8.5-0.8c-1.6,0-3.2,0.2-5,0.4c-1.4,0.2-2.8,0.4-4.2,0.8V142h-21.8V68.9
	c4.4-1.6,9.1-2.8,13.7-3.8c5.9-1.4,11.9-2,17.8-1.8c1.4,0,2.8,0.2,4.2,0.2c1.6,0,3.2,0.2,5,0.6c1.6,0.2,3.2,0.4,5.1,0.8
	c1.4,0.2,2.8,0.6,4.2,1.2L621.8,84.2 M486.2,104c-0.2-6.1,1-12.1,3-17.8c1.8-4.8,4.6-9.1,8.3-12.9c3.4-3.4,7.3-6.1,11.7-7.7
	c4.4-1.8,9.1-2.6,13.7-2.6c10.9,0,19.6,3.4,25.9,10.1c6.3,6.7,9.5,16.6,9.5,29.3c0,1.2,0,2.6-0.2,4.2s-0.2,2.8-0.2,4h-49.5
	c0.4,4.2,2.6,8.3,6.3,10.7c4.4,2.8,9.7,4.2,14.9,4c3.8,0,7.9-0.4,11.7-1c3.2-0.6,6.5-1.6,9.5-2.8l3,17.8c-1.4,0.8-3,1.2-4.6,1.8
	c-2.2,0.6-4.4,1.2-6.7,1.4c-2.4,0.4-4.8,0.8-7.7,1.2c-2.6,0.2-5.5,0.4-8.3,0.4c-6.3,0.2-12.3-0.8-18.2-3c-4.8-1.8-9.1-4.6-12.7-8.3
	c-3.4-3.6-5.9-8.1-7.5-12.7C487,114.7,486.2,109.5,486.2,104 M537.5,95.7c0-1.8-0.4-3.6-1-5.5c-0.4-1.8-1.4-3.2-2.4-4.6
	c-1.2-1.4-2.6-2.6-4.2-3.4c-2-1-4-1.4-6.3-1.4s-4.2,0.4-6.3,1.4c-1.6,0.8-3.2,1.8-4.4,3.2s-2.2,3-2.8,4.8c-0.6,1.8-1,3.6-1.2,5.5
	L537.5,95.7 M450.9,102.8c0-14.1-5.3-21-15.6-21c-2.2,0-4.4,0.2-6.7,0.8c-1.8,0.4-3.6,1.2-5.3,2.2v39.6c1,0.2,2.4,0.4,4,0.6
	c1.6,0.2,3.4,0.2,5.5,0.2c5.3,0.4,10.3-1.8,13.5-6.1C449.5,114.3,451.1,108.7,450.9,102.8 M473.1,103.6c0,5.7-0.8,11.3-2.8,16.8
	c-1.6,4.8-4.2,9.1-7.7,12.7c-3.6,3.6-7.9,6.5-12.5,8.3c-5.5,2-11.1,2.8-17,2.8c-2.6,0-5.5-0.2-8.3-0.4c-2.8-0.2-5.7-0.6-8.5-0.8
	c-2.6-0.4-5.3-0.8-7.9-1.4c-2.6-0.4-4.8-1-6.7-1.8V31.7l21.8-3.4v38.4c2.4-1,5-1.8,7.7-2.4c2.8-0.6,5.7-0.8,8.5-0.8
	c5.1,0,9.9,0.8,14.5,3c4,1.8,7.7,4.6,10.5,8.1c3,3.8,5.3,8.1,6.5,12.7C472.5,92.3,473.1,98,473.1,103.6 M381,139.2
	c-4.6,1.2-9.5,2.2-14.3,2.8c-6.1,1-12.3,1.4-18.4,1.4c-5.7,0.2-11.1-0.8-16.4-2.6c-4-1.6-7.5-4-10.3-7.3c-2.6-3.4-4.4-7.3-5.5-11.5
	c-1.2-4.6-1.6-9.7-1.6-14.5V64.8h21.8V105c0,7.1,1,12.1,2.8,15.1c1.8,3,5.3,4.6,10.3,4.6c1.6,0,3.2,0,5.1-0.2
	c1.8-0.2,3.2-0.2,4.6-0.6V64.8H381V139.2 M253.7,92.7c2.2-2.4,4.2-4.8,6.7-7.3c2.2-2.6,4.4-5.1,6.7-7.5c2.2-2.6,4.2-4.8,6.1-7.1
	s3.6-4.2,5-5.9H304c-5.3,5.9-10.3,11.7-15.1,17.2c-5,5.5-10.3,11.1-16.2,16.8c3.2,3,6.3,6.1,9.1,9.5c3,3.6,6.1,7.3,9.1,11.3
	c2.8,3.8,5.7,7.9,8.1,11.7c2.4,3.8,4.4,7.5,6.1,10.7h-25c-1.6-2.6-3.4-5.3-5.5-8.3c-2-3-4.2-6.1-6.3-9.3c-2.2-3-4.6-6.1-7.3-8.9
	c-2.2-2.6-4.6-5.1-7.3-7.1v33.7h-21.8V31.7l21.8-3.4L253.7,92.7"/>
</svg>
