<?xml version="1.0" encoding="utf-8"?>
<!-- Generator: Adobe Illustrator 16.0.3, SVG Export Plug-In . SVG Version: 6.00 Build 0)  -->
<!DOCTYPE svg PUBLIC "-//W3C//DTD SVG 1.1//EN" "http://www.w3.org/Graphics/SVG/1.1/DTD/svg11.dtd">
<svg version="1.1" id="Layer_1" xmlns="http://www.w3.org/2000/svg" xmlns:xlink="http://www.w3.org/1999/xlink" x="0px" y="0px"
	 width="108.311px" height="28.715px" viewBox="5.844 15.643 108.311 28.715" enable-background="new 5.844 15.643 108.311 28.715"
	 xml:space="preserve">
<path fill="#EF533F" d="M32.054,44.357c-0.229,0-0.441-0.12-0.559-0.316l-4.915-8.198l-9.192,2.5
	c-0.288,0.069-0.587-0.064-0.726-0.325L5.92,17.825c-0.169-0.317-0.049-0.711,0.268-0.88c0.068-0.036,0.142-0.06,0.219-0.07
	l9.12-1.226c0.258-0.036,0.512,0.085,0.646,0.308l11,18.374l12.794-3.479L35.7,24.826c-0.209-0.292-0.143-0.698,0.148-0.907
	c0.064-0.046,0.137-0.081,0.214-0.101l5.985-1.415c0.244-0.058,0.5,0.03,0.657,0.225l5.18,6.468c0.225,0.28,0.18,0.689-0.1,0.914
	c-0.07,0.056-0.15,0.097-0.237,0.12l-5.44,1.484l4.763,6.7c0.208,0.293,0.139,0.698-0.154,0.906
	c-0.05,0.035-0.104,0.063-0.162,0.084L32.26,44.316C32.194,44.342,32.124,44.355,32.054,44.357L32.054,44.357z M27.882,35.486
	l4.455,7.431l12.983-4.545l-4.534-6.392L27.882,35.486z M7.507,18.03L17.56,36.95l8.343-2.265L15.278,16.994L7.507,18.03z
	 M37.34,24.864l4,5.626l4.962-1.35l-4.317-5.376L37.34,24.864z M54.727,22.9h1.3v13.94h-1.295L54.727,22.9z M68.727,26.783V36.84
	H67.45V35.1c-0.495,0.621-1.118,1.129-1.826,1.488c-1.976,0.944-4.334,0.522-5.859-1.049c-0.994-0.998-1.54-2.357-1.511-3.766
	c-0.021-1.396,0.53-2.738,1.525-3.716c0.958-1.006,2.292-1.565,3.679-1.543c0.78-0.01,1.55,0.17,2.242,0.527
	c0.702,0.381,1.306,0.922,1.761,1.58v-1.84L68.727,26.783z M63.557,27.783c-1.433-0.01-2.756,0.766-3.449,2.021
	c-0.723,1.258-0.723,2.805,0,4.063c0.343,0.625,0.848,1.146,1.462,1.508c0.596,0.355,1.276,0.542,1.97,0.54
	c0.706,0,1.399-0.185,2.013-0.536c0.612-0.337,1.119-0.84,1.461-1.449c0.35-0.634,0.525-1.348,0.514-2.07
	c0.029-1.089-0.386-2.143-1.15-2.918c-0.737-0.763-1.76-1.184-2.82-1.161V27.783z M71.148,26.783h1.322v1.47
	c0.331-0.507,0.756-0.947,1.25-1.297c0.403-0.276,0.88-0.426,1.368-0.43c0.407,0.013,0.803,0.131,1.149,0.343l-0.678,1.1
	c-0.219-0.104-0.457-0.164-0.699-0.175c-0.469,0.015-0.914,0.204-1.25,0.531c-0.457,0.45-0.776,1.022-0.92,1.649
	c-0.152,0.573-0.229,1.731-0.229,3.474v3.403h-1.321L71.148,26.783z M87.35,26.783V36.84h-1.276V35.1
	c-0.495,0.621-1.118,1.129-1.826,1.488c-1.976,0.944-4.334,0.522-5.858-1.049c-0.994-0.998-1.54-2.357-1.512-3.766
	c-0.02-1.396,0.53-2.74,1.527-3.716c0.957-1.006,2.291-1.565,3.679-1.543c0.78-0.01,1.55,0.17,2.242,0.527
	c0.702,0.381,1.306,0.922,1.761,1.58v-1.84L87.35,26.783z M82.18,27.783c-1.434-0.01-2.758,0.766-3.449,2.021
	c-0.724,1.258-0.724,2.805,0,4.063c0.343,0.625,0.848,1.146,1.461,1.508c0.596,0.355,1.277,0.542,1.971,0.54
	c0.706,0,1.399-0.185,2.012-0.536c0.613-0.337,1.12-0.84,1.463-1.449c0.348-0.634,0.525-1.348,0.512-2.07
	c0.033-1.092-0.382-2.15-1.148-2.928c-0.737-0.763-1.759-1.183-2.818-1.161L82.18,27.783z M89.313,26.783h1.379l3.377,7.33
	l3.34-7.33h1.38l-4.601,10.058h-0.229L89.313,26.783z M109.219,33.503l1.1,0.573c-0.308,0.637-0.728,1.213-1.238,1.701
	c-0.46,0.426-0.997,0.76-1.582,0.984c-0.637,0.234-1.311,0.349-1.989,0.338c-1.64,0-2.923-0.533-3.85-1.6
	c-0.896-1.004-1.387-2.303-1.38-3.646c-0.014-1.238,0.402-2.443,1.175-3.4c0.94-1.245,2.427-1.955,3.987-1.904
	c1.604-0.053,3.134,0.674,4.106,1.95c0.728,0.92,1.095,2.069,1.101,3.45h-9.055c-0.016,1.066,0.387,2.097,1.119,2.871
	c0.693,0.735,1.664,1.143,2.674,1.121c0.511,0,1.017-0.09,1.495-0.268c0.451-0.16,0.869-0.4,1.235-0.708
	c0.438-0.423,0.809-0.908,1.102-1.442V33.503z M109.219,30.803c-0.13-0.598-0.387-1.162-0.754-1.653
	c-0.352-0.43-0.801-0.771-1.308-0.998c-0.533-0.25-1.115-0.38-1.704-0.38c-0.939-0.019-1.85,0.322-2.545,0.952
	c-0.518,0.466-0.91,1.157-1.176,2.07L109.219,30.803z M112.859,22.911h1.295v13.94h-1.295V22.911z"/>
</svg>
