<?xml version="1.0" encoding="utf-8"?>
<!-- Generator: Adobe Illustrator 16.0.3, SVG Export Plug-In . SVG Version: 6.00 Build 0)  -->
<!DOCTYPE svg PUBLIC "-//W3C//DTD SVG 1.1//EN" "http://www.w3.org/Graphics/SVG/1.1/DTD/svg11.dtd">
<svg version="1.1" id="Layer_1" xmlns="http://www.w3.org/2000/svg" xmlns:xlink="http://www.w3.org/1999/xlink" x="0px" y="0px"
	 width="88.722px" height="37.933px" viewBox="15.634 11.031 88.722 37.933" enable-background="new 15.634 11.031 88.722 37.933"
	 xml:space="preserve">
<path fill="#214674" d="M19.417,35.134c0-1.513-0.973-3.134-3.783-3.241V28.11c2.8-0.107,3.783-1.729,3.783-3.241
	c0-2.702-0.432-4.431-0.432-7.565c0-4.755,1.73-6.268,5.62-6.268H34.98v3.458h-8.43c-1.837,0-2.378,0.647-2.378,3.025l0.216,7.133
	c0,3.351-1.08,4.647-3.242,5.188v0.216c2.162,0.54,3.242,1.836,3.242,5.188l-0.216,7.133c0,2.378,0.54,3.134,2.378,3.134h0.865
	v3.351h-2.8c-3.89,0-5.62-1.514-5.62-6.269c0-3.134,0.432-4.755,0.432-7.457L19.417,35.134z M28.604,11.357h6.485v24.317
	c0,1.405,0.648,1.837,1.19,1.837c0.216,0,0.432,0,0.757-0.108l0.757,4.757c-0.757,0.323-1.837,0.54-3.242,0.54
	c-4.43,0-5.944-2.92-5.944-7.352L28.604,11.357z M46.869,19.787c6.16,0,9.295,4.54,9.295,10.482c0,1.19-0.107,2.162-0.216,2.703
	H42.654c0.54,3.351,2.8,4.754,5.728,4.754c1.62,0,3.134-0.432,4.755-1.403l2.162,3.89c-2.27,1.513-5.188,2.486-7.781,2.486
	c-6.269,0-11.024-4.217-11.024-11.456C36.385,24.217,41.573,19.786,46.869,19.787L46.869,19.787z M50.652,28.974
	c0-2.486-1.08-4.323-3.676-4.323c-2.053,0-3.783,1.405-4.214,4.323H50.652z M59.839,35.674c1.945,1.514,3.783,2.27,5.62,2.27
	c1.945,0,2.8-0.756,2.8-1.836c0-1.404-2.161-2.162-4.43-3.025c-2.595-0.975-5.728-2.8-5.728-6.377c0-4,3.35-6.811,8.321-6.811
	c3.351,0,5.836,1.405,7.673,2.8l-2.918,3.891c-1.619-1.19-3.025-1.837-4.646-1.837c-1.621,0-2.486,0.647-2.486,1.729
	c0,1.405,2.054,1.945,4.323,2.8c2.8,0.974,5.943,2.595,5.943,6.594s-3.135,7.023-8.971,7.023c-2.8,0-6.16-1.188-8.322-3.024
	L59.839,35.674z M77.456,35.674c1.944,1.514,3.782,2.27,5.62,2.27c1.945,0,2.8-0.756,2.8-1.836c0-1.404-2.162-2.162-4.431-3.025
	c-2.594-0.975-5.729-2.8-5.729-6.377c0-4,3.352-6.811,8.322-6.811c3.352,0,5.836,1.405,7.673,2.8l-2.918,3.891
	c-1.62-1.19-3.024-1.837-4.646-1.837s-2.486,0.647-2.486,1.729c0,1.405,2.053,1.945,4.215,2.8c2.801,0.974,5.943,2.595,5.943,6.594
	s-3.133,7.023-8.969,7.023c-2.802,0-6.16-1.188-8.322-3.024L77.456,35.674z M93.45,45.4c1.837,0,2.378-0.647,2.378-3.135
	c0-2.377-0.217-4.539-0.217-7.133c0-3.35,1.08-4.647,3.242-5.188v-0.216c-2.162-0.54-3.242-1.837-3.242-5.188
	c0-2.595,0.217-4.863,0.217-7.133c0-2.379-0.432-3.026-2.378-3.026h-0.865v-3.35h2.8c3.891,0,5.62,1.513,5.62,6.268
	c0,3.026-0.432,4.755-0.432,7.565c0,1.513,0.973,3.134,3.782,3.241v3.784c-2.799,0.107-3.782,1.729-3.782,3.241
	c0,2.8,0.432,4.431,0.432,7.564c0,4.756-1.729,6.269-5.62,6.269h-2.8V45.51L93.45,45.4z"/>
</svg>
