<?xml version="1.0" encoding="utf-8"?>
<!-- Generator: Adobe Illustrator 16.0.3, SVG Export Plug-In . SVG Version: 6.00 Build 0)  -->
<!DOCTYPE svg PUBLIC "-//W3C//DTD SVG 1.1//EN" "http://www.w3.org/Graphics/SVG/1.1/DTD/svg11.dtd">
<svg version="1.1" id="Layer_1" xmlns="http://www.w3.org/2000/svg" xmlns:xlink="http://www.w3.org/1999/xlink" x="0px" y="0px"
	 width="81.59px" height="50.203px" viewBox="19.205 2.983 81.59 50.203" enable-background="new 19.205 2.983 81.59 50.203"
	 xml:space="preserve">
<path fill="#FFA400" d="M66.723,20.224h-3.836v-1.98c-0.007-1.581-1.286-2.86-2.867-2.867c-1.581,0.007-2.86,1.287-2.867,2.867v1.98
	h-3.836v-1.98c0-3.715,3.028-6.703,6.703-6.703c3.714,0,6.703,3.028,6.703,6.703V20.224z"/>
<path fill="#003A70" d="M68.298,20.224H51.743c-0.727,0-1.292,0.565-1.292,1.292V33.75c0,0.727,0.565,1.292,1.292,1.292h16.555
	c0.728,0,1.292-0.565,1.292-1.292V21.516C69.55,20.789,68.984,20.224,68.298,20.224z M60.828,28.259v1.656
	c0,0.444-0.363,0.849-0.848,0.849c-0.444,0-0.848-0.364-0.848-0.849V28.26c-0.525-0.283-0.848-0.848-0.848-1.494
	c0-0.93,0.767-1.696,1.696-1.696s1.696,0.767,1.696,1.696C61.716,27.412,61.354,27.976,60.828,28.259L60.828,28.259z"/>
<path fill="#FFA400" d="M50.047,18.407H46.05c-0.646,0-1.171-0.524-1.171-1.171c0-0.646,0.524-1.171,1.171-1.171h3.997
	c0.647,0,1.171,0.524,1.171,1.171C51.218,17.883,50.694,18.407,50.047,18.407z M52.873,12.107c-0.242,0-0.525-0.08-0.727-0.283
	l-3.15-2.584c-0.485-0.404-0.565-1.13-0.162-1.656c0.404-0.485,1.13-0.565,1.656-0.162l3.15,2.584
	c0.485,0.404,0.565,1.13,0.162,1.656C53.519,11.945,53.196,12.106,52.873,12.107L52.873,12.107z M60.02,9.362
	c-0.646,0-1.17-0.522-1.171-1.169c0,0,0-0.001,0-0.002V4.154c0-0.646,0.524-1.171,1.171-1.171c0.646,0,1.171,0.524,1.171,1.171V8.2
	c0,0.646-0.523,1.17-1.169,1.171c0,0-0.001,0-0.002,0V9.362z M67.127,12.108c-0.349-0.003-0.676-0.167-0.889-0.444
	c-0.403-0.485-0.322-1.252,0.162-1.656l3.15-2.584c0.485-0.404,1.252-0.323,1.656,0.162s0.322,1.252-0.162,1.656l-3.15,2.584
	C67.684,12.013,67.41,12.114,67.127,12.108L67.127,12.108z M73.95,18.408h-4.038c-0.646,0-1.171-0.524-1.171-1.171
	c0-0.646,0.524-1.171,1.171-1.171h4.038c0.646,0,1.171,0.524,1.171,1.171C75.121,17.884,74.597,18.408,73.95,18.408z"/>
<path fill="#003A70" d="M50.917,49.759v-9.884h6.64v2.02h-4.345v1.866h4.1v1.897h-4.1v2.051h4.59v2.05H50.917z M63.83,49.759v-3.794
	c0-0.184-0.031-0.367-0.062-0.551c-0.028-0.16-0.079-0.315-0.153-0.459c-0.068-0.131-0.176-0.238-0.306-0.307
	c-0.122-0.092-0.306-0.123-0.521-0.123c-0.214,0-0.397,0.031-0.551,0.123c-0.152,0.092-0.275,0.184-0.397,0.336
	c-0.092,0.154-0.184,0.307-0.245,0.49c-0.061,0.184-0.092,0.367-0.092,0.551v3.764h-2.295v-6.946h2.203v0.948h0.031
	c0.092-0.152,0.184-0.306,0.336-0.428c0.123-0.153,0.307-0.275,0.459-0.367c0.184-0.092,0.367-0.184,0.582-0.245
	c0.214-0.062,0.428-0.092,0.673-0.092c0.459,0,0.856,0.092,1.193,0.245c0.337,0.152,0.581,0.397,0.796,0.643
	c0.214,0.275,0.336,0.581,0.428,0.918c0.092,0.336,0.123,0.674,0.123,1.041v4.283H63.83V49.759z M72.031,45.047
	c-0.123-0.154-0.307-0.307-0.521-0.398c-0.213-0.092-0.459-0.152-0.673-0.152c-0.224-0.001-0.443,0.052-0.643,0.152
	c-0.184,0.092-0.367,0.215-0.489,0.398c-0.123,0.184-0.245,0.336-0.337,0.551c-0.092,0.213-0.122,0.428-0.122,0.672
	c0,0.246,0.03,0.459,0.122,0.674c0.062,0.215,0.184,0.398,0.337,0.551c0.152,0.153,0.306,0.307,0.52,0.398
	c0.215,0.092,0.429,0.152,0.674,0.152c0.244,0,0.459-0.03,0.703-0.122c0.215-0.092,0.398-0.214,0.551-0.397l1.256,1.561
	c-0.275,0.275-0.674,0.489-1.102,0.643c-0.459,0.152-0.949,0.244-1.439,0.244c-0.52,0.001-1.035-0.082-1.529-0.244
	c-0.49-0.153-0.888-0.398-1.255-0.734c-0.337-0.307-0.612-0.704-0.826-1.163s-0.306-0.979-0.306-1.562
	c0-0.58,0.092-1.07,0.306-1.529s0.489-0.857,0.826-1.163s0.765-0.581,1.255-0.734c0.489-0.184,0.979-0.245,1.529-0.245
	c0.246,0,0.49,0.031,0.734,0.062l0.705,0.184l0.643,0.306c0.184,0.123,0.367,0.245,0.488,0.398L72.031,45.047z M78.701,44.709
	c-0.092-0.029-0.214-0.061-0.306-0.061H78.12c-0.306,0-0.551,0.061-0.765,0.152c-0.215,0.123-0.367,0.246-0.49,0.398
	c-0.122,0.152-0.214,0.336-0.275,0.52c-0.061,0.184-0.092,0.338-0.092,0.49v3.55h-2.295v-6.946h2.203v1.01h0.031
	c0.184-0.367,0.428-0.643,0.765-0.857c0.337-0.214,0.704-0.336,1.132-0.336h0.275c0.092,0,0.153,0.03,0.215,0.03L78.701,44.709z
	 M84.087,50.799l-0.459,0.979c-0.184,0.275-0.367,0.521-0.612,0.734c-0.244,0.214-0.52,0.337-0.826,0.459
	c-0.306,0.092-0.703,0.153-1.132,0.153c-0.214,0-0.429,0-0.673-0.031c-0.215-0.03-0.429-0.061-0.582-0.122l0.245-1.928l0.367,0.092
	c0.122,0.03,0.245,0.03,0.367,0.03c0.367,0,0.612-0.092,0.765-0.244c0.153-0.153,0.307-0.398,0.398-0.704l0.214-0.581l-2.907-6.824
	h2.54l1.561,4.468h0.03l1.377-4.468h2.418L84.087,50.799z M95.531,46.27c0,0.49-0.061,0.949-0.214,1.408s-0.367,0.826-0.643,1.193
	c-0.275,0.337-0.643,0.612-1.04,0.826c-0.398,0.215-0.888,0.307-1.408,0.307c-0.428,0-0.826-0.092-1.224-0.245
	c-0.367-0.184-0.673-0.397-0.888-0.704h-0.03v4.131h-2.296V42.904h2.174v0.856h0.03c0.214-0.275,0.521-0.521,0.888-0.734
	s0.826-0.306,1.346-0.306c0.49,0,0.949,0.092,1.377,0.306c0.398,0.184,0.766,0.459,1.041,0.796c0.275,0.336,0.489,0.734,0.643,1.162
	C95.439,45.322,95.531,45.781,95.531,46.27z M93.298,46.27c0-0.213-0.03-0.428-0.092-0.643c-0.062-0.213-0.184-0.396-0.306-0.551
	c-0.123-0.152-0.307-0.305-0.521-0.396s-0.429-0.154-0.704-0.154s-0.489,0.063-0.703,0.154c-0.215,0.092-0.367,0.244-0.521,0.396
	c-0.153,0.154-0.245,0.367-0.337,0.582s-0.122,0.428-0.122,0.643s0.03,0.428,0.122,0.643s0.184,0.398,0.337,0.582
	c0.153,0.152,0.306,0.306,0.521,0.397c0.214,0.092,0.428,0.153,0.703,0.153s0.521-0.062,0.704-0.153
	c0.214-0.092,0.367-0.245,0.521-0.397c0.122-0.153,0.244-0.367,0.306-0.582C93.268,46.699,93.298,46.484,93.298,46.27z
	 M99.174,44.525v2.663c0,0.337,0.061,0.581,0.184,0.734c0.121,0.153,0.336,0.245,0.672,0.245c0.123,0,0.246,0,0.367-0.031
	l0.307-0.092l0.031,1.684c-0.154,0.061-0.367,0.092-0.613,0.152l-0.734,0.062c-0.459,0-0.856-0.062-1.162-0.184
	c-0.307-0.122-0.582-0.275-0.766-0.489c-0.184-0.215-0.336-0.49-0.397-0.796s-0.122-0.643-0.122-1.01v-2.938h-1.102v-1.713h1.102
	v-1.836h2.234v1.836h1.621v1.713H99.174z M19.205,49.422v-9.884h2.387v7.804h3.825v2.08H19.205z M33.312,46.025v0.551h-5.049
	c0.031,0.184,0.092,0.367,0.184,0.521s0.214,0.306,0.367,0.397c0.153,0.123,0.337,0.215,0.521,0.275
	c0.188,0.061,0.384,0.092,0.581,0.092c0.367,0,0.673-0.061,0.918-0.214c0.243-0.122,0.453-0.3,0.612-0.521l1.591,1.01
	c-0.337,0.49-0.765,0.826-1.285,1.102c-0.521,0.245-1.163,0.398-1.867,0.398c-0.521,0-1.01-0.092-1.469-0.245
	s-0.857-0.397-1.224-0.704c-0.337-0.306-0.612-0.703-0.826-1.162c-0.214-0.459-0.306-0.98-0.306-1.561
	c0-0.582,0.092-1.072,0.306-1.531c0.184-0.459,0.459-0.856,0.795-1.162c0.337-0.307,0.734-0.582,1.193-0.734
	c0.459-0.184,0.949-0.275,1.469-0.275c0.521,0,0.979,0.092,1.408,0.244c0.429,0.184,0.796,0.429,1.102,0.734
	c0.306,0.337,0.551,0.734,0.704,1.193C33.22,44.924,33.312,45.443,33.312,46.025z M31.201,45.168c0-0.367-0.123-0.672-0.337-0.948
	c-0.214-0.275-0.582-0.397-1.041-0.397c-0.214,0-0.428,0.03-0.612,0.092c-0.184,0.061-0.336,0.152-0.49,0.275
	c-0.153,0.123-0.245,0.275-0.336,0.428c-0.092,0.154-0.123,0.338-0.153,0.521h2.968V45.168z M36.984,44.189v2.662
	c0,0.337,0.061,0.582,0.184,0.734c0.123,0.153,0.336,0.245,0.673,0.245c0.123,0,0.245,0,0.367-0.03l0.306-0.092l0.03,1.683
	c-0.153,0.062-0.367,0.092-0.612,0.153l-0.734,0.061c-0.459,0-0.857-0.061-1.163-0.184c-0.306-0.122-0.581-0.275-0.765-0.489
	s-0.337-0.489-0.398-0.796c-0.061-0.306-0.123-0.643-0.123-1.01v-2.938h-1.132v-1.714h1.102V40.64h2.264v1.836h1.622v1.714H36.984z
	 M46.011,44.525c-0.184-0.184-0.398-0.336-0.643-0.459c-0.245-0.122-0.521-0.184-0.796-0.184c-0.214,0-0.398,0.031-0.582,0.123
	s-0.275,0.214-0.275,0.428c0,0.184,0.092,0.338,0.306,0.43s0.52,0.184,0.979,0.275c0.275,0.061,0.52,0.121,0.795,0.244
	s0.49,0.244,0.704,0.398c0.22,0.158,0.399,0.369,0.521,0.611c0.122,0.244,0.184,0.52,0.184,0.857c0,0.428-0.092,0.795-0.275,1.102
	c-0.184,0.306-0.398,0.551-0.704,0.734c-0.275,0.184-0.612,0.306-0.948,0.397c-0.367,0.092-0.704,0.122-1.071,0.122
	c-0.582,0-1.132-0.092-1.652-0.275c-0.551-0.184-1.01-0.459-1.346-0.795l1.285-1.347c0.214,0.214,0.459,0.397,0.765,0.551
	c0.306,0.153,0.612,0.214,0.949,0.214c0.184,0,0.367-0.03,0.551-0.122s0.275-0.245,0.275-0.459s-0.122-0.368-0.336-0.489
	c-0.214-0.092-0.582-0.215-1.041-0.307l-0.734-0.215c-0.245-0.092-0.459-0.213-0.643-0.367c-0.184-0.152-0.336-0.367-0.459-0.58
	c-0.123-0.246-0.184-0.521-0.184-0.826c0-0.43,0.092-0.766,0.275-1.072c0.184-0.306,0.398-0.52,0.673-0.703s0.581-0.337,0.918-0.398
	c0.336-0.092,0.673-0.122,1.01-0.122c0.52,0,1.041,0.092,1.53,0.245c0.49,0.152,0.918,0.397,1.255,0.734L46.011,44.525z
	 M40.717,39.354c-0.673,0-1.224,0.489-1.224,1.132c0,0.674,0.459,1.102,1.132,1.102c0.061,0,0.122,0,0.153-0.03
	c-0.123,0.489-0.582,0.856-1.041,0.918h-0.092v1.071h0.123c0.551-0.062,1.071-0.307,1.469-0.674c0.521-0.489,0.796-1.224,0.796-2.08
	C42.033,39.967,41.482,39.354,40.717,39.354z"/>
</svg>
