<?xml version="1.0" encoding="utf-8"?>
<!-- Generator: Adobe Illustrator 16.0.3, SVG Export Plug-In . SVG Version: 6.00 Build 0)  -->
<!DOCTYPE svg PUBLIC "-//W3C//DTD SVG 1.1//EN" "http://www.w3.org/Graphics/SVG/1.1/DTD/svg11.dtd">
<svg version="1.1"
	 id="Layer_1" xmlns:dc="http://purl.org/dc/elements/1.1/" xmlns:cc="http://web.resource.org/cc/" xmlns:rdf="http://www.w3.org/1999/02/22-rdf-syntax-ns#"
	 xmlns="http://www.w3.org/2000/svg" xmlns:xlink="http://www.w3.org/1999/xlink" x="0px" y="0px" width="578.125px"
	 height="688.419px" viewBox="23.438 30.795 578.125 688.419" enable-background="new 23.438 30.795 578.125 688.419"
	 xml:space="preserve">
<g id="g1369" transform="translate(-310.7524,-64.25268)">
	
		<radialGradient id="path175_1_" cx="895.4829" cy="-945.3342" r="195.0854" gradientTransform="matrix(1.4818 0 0 -0.3968 -703.6993 330.9466)" gradientUnits="userSpaceOnUse">
		<stop  offset="0" style="stop-color:#3F2600;stop-opacity:0.6"/>
		<stop  offset="1" style="stop-color:#3F2600;stop-opacity:0"/>
	</radialGradient>
	<path id="path175" fill="url(#path175_1_)" d="M912.315,706.053c0.022,42.749-129.378,77.408-289.022,77.414
		c-159.645,0.006-289.081-34.644-289.103-77.393c0-0.008,0-0.015,0-0.021c-0.022-42.749,129.377-77.409,289.022-77.415
		c159.645-0.006,289.081,34.645,289.103,77.394C912.315,706.039,912.315,706.046,912.315,706.053z"/>
	<path id="path106" d="M464.988,622.795c-27.985-40.278-33.442-171.229,31.859-251.787c32.357-38.647,40.612-65.582,43.164-101.741
		c1.736-41.224-29.156-164.303,87.354-173.68c118.008-9.415,111.67,107.075,110.991,168.719
		c-0.563,52.05,38.218,81.551,64.745,122.119c49.099,74.538,44.946,202.875-9.249,272.34
		c-68.646,86.96-127.44,49.248-166.487,52.413C554.248,715.178,551.831,754.165,464.988,622.795z"/>
	
		<linearGradient id="path113_1_" gradientUnits="userSpaceOnUse" x1="753.4673" y1="108.1692" x2="753.7339" y2="173.6205" gradientTransform="matrix(-0.9649 -0.0129 0.0367 -2.5569 1496.0112 932.9777)">
		<stop  offset="0" style="stop-color:#FFEED7"/>
		<stop  offset="1" style="stop-color:#BDBFC2"/>
	</linearGradient>
	<path id="path113" fill="url(#path113_1_)" d="M750.038,394.042c20.266,18.654,73.01,102.623-10.393,154.864
		c-29.401,18.191,26.214,87.879,52.918,54.124c47.125-60.598,17.072-157.102-11.197-191.681
		C762.168,386.837,732.814,377.339,750.038,394.042z"/>
	<path id="path111" stroke="#000000" stroke-width="0.9773" d="M744.306,382.591c33.409,26.996,94.238,122.037,5.517,183.771
		c-29.14,19.248,25.822,79.94,56.684,48.896c107.302-107.911-2.8-231.995-40.7-274.654
		C731.933,303.505,701.928,349.368,744.306,382.591z"/>
	
		<linearGradient id="path114_1_" gradientUnits="userSpaceOnUse" x1="762.1313" y1="184.1853" x2="756.1993" y2="92.0215" gradientTransform="matrix(1.4132 -0.0797 0.0412 -1.0714 -455.7603 362.9933)">
		<stop  offset="0" style="stop-color:#FFFFFF;stop-opacity:0.8"/>
		<stop  offset="1" style="stop-color:#FFFFFF;stop-opacity:0"/>
	</linearGradient>
	<path id="path114" fill="url(#path114_1_)" d="M696.231,154.412c-1.183,30.947-35.235,57.905-76.058,60.211
		c-40.823,2.306-72.958-20.912-71.774-51.859c0-0.007,0-0.013,0.001-0.02c1.183-30.948,35.235-57.905,76.058-60.211
		c40.823-2.306,72.957,20.912,71.774,51.859C696.232,154.399,696.231,154.406,696.231,154.412z"/>
	
		<linearGradient id="path115_1_" gradientUnits="userSpaceOnUse" x1="838.0288" y1="176.2761" x2="839.3643" y2="210.9628" gradientTransform="matrix(1.0651 -0.0617 -0.0945 -1.6443 -300.137 598.6555)">
		<stop  offset="0" style="stop-color:#FFEED7"/>
		<stop  offset="1" style="stop-color:#BDBFC2"/>
	</linearGradient>
	<path id="path115" fill="url(#path115_1_)" d="M598.472,228.027c1.157,20.117-8.468,37.04-21.498,37.797
		c-13.03,0.757-24.532-14.937-25.69-35.054c0-0.004,0-0.007,0-0.011c-1.158-20.117,8.467-37.04,21.498-37.797
		c13.03-0.758,24.532,14.937,25.689,35.054C598.471,228.019,598.472,228.023,598.472,228.027z"/>
	
		<linearGradient id="path116_1_" gradientUnits="userSpaceOnUse" x1="756.0864" y1="186.28" x2="755.2507" y2="218.0923" gradientTransform="matrix(-1.4785 0.0404 -0.0389 -1.9024 1780.0134 582.3801)">
		<stop  offset="0" style="stop-color:#FFEED7"/>
		<stop  offset="1" style="stop-color:#BDBFC2"/>
	</linearGradient>
	<path id="path116" fill="url(#path116_1_)" d="M622.123,229.567c0.473,23.275,15.521,41.746,33.609,41.255
		s32.37-19.758,31.897-43.033c0-0.004,0-0.008,0-0.013c-0.474-23.275-15.521-41.746-33.609-41.254
		c-18.09,0.491-32.37,19.757-31.897,43.033C622.123,229.559,622.123,229.563,622.123,229.567z"/>
	<path id="path117" d="M637.109,234.829c-0.274,12.776,6.17,23.15,14.393,23.169c8.224,0.02,15.112-10.322,15.387-23.099
		c0-0.002,0-0.005,0-0.007c0.274-12.776-6.169-23.15-14.393-23.169c-8.224-0.019-15.112,10.322-15.387,23.099
		C637.109,234.825,637.109,234.827,637.109,234.829z"/>
	<path id="path118" d="M584.983,234.964c1.033,10.576-2.943,19.737-8.881,20.46s-11.588-7.263-12.619-17.839
		c0-0.002-0.001-0.004-0.001-0.006c-1.032-10.576,2.944-19.737,8.882-20.46s11.587,7.263,12.619,17.839
		C584.983,234.96,584.983,234.962,584.983,234.964z"/>
	
		<linearGradient id="path121_1_" gradientUnits="userSpaceOnUse" x1="628.8149" y1="118.1125" x2="626.5148" y2="78.0233" gradientTransform="matrix(-0.3922 -0.0298 0.0573 -0.5825 889.7813 303.5944)">
		<stop  offset="0" style="stop-color:#FFFFFF;stop-opacity:0.65"/>
		<stop  offset="1" style="stop-color:#FFFFFF;stop-opacity:0"/>
	</linearGradient>
	<path id="path121" fill="url(#path121_1_)" d="M640.532,227.523c-0.702,7.126,2.618,13.2,7.416,13.565
		c4.799,0.365,9.257-5.116,9.959-12.243c0-0.001,0-0.002,0-0.004c0.702-7.126-2.618-13.2-7.416-13.565
		c-4.799-0.365-9.257,5.116-9.959,12.243C640.532,227.52,640.532,227.522,640.532,227.523z"/>
	
		<linearGradient id="path122_1_" gradientUnits="userSpaceOnUse" x1="947.8257" y1="66.7668" x2="945.259" y2="27.7239" gradientTransform="matrix(0.2914 -0.0333 -0.0506 -0.4881 300.0405 284.4563)">
		<stop  offset="0" style="stop-color:#FFFFFF;stop-opacity:0.65"/>
		<stop  offset="1" style="stop-color:#FFFFFF;stop-opacity:0"/>
	</linearGradient>
	<path id="path122" fill="url(#path122_1_)" d="M579.958,229.356c0.62,5.972-1.769,11.144-5.333,11.553
		c-3.565,0.409-6.958-4.101-7.578-10.073c0-0.001,0-0.002,0-0.003c-0.619-5.972,1.768-11.144,5.334-11.553
		c3.564-0.409,6.957,4.101,7.576,10.073C579.958,229.354,579.958,229.355,579.958,229.356z"/>
	
		<linearGradient id="path128_1_" gradientUnits="userSpaceOnUse" x1="903.4546" y1="-76.2209" x2="903.4546" y2="58.5474" gradientTransform="matrix(1.0161 0 0 -1.5378 -287.9071 527.8508)">
		<stop  offset="0" style="stop-color:#FFEED7"/>
		<stop  offset="1" style="stop-color:#BDBFC2"/>
	</linearGradient>
	<path id="path128" fill="url(#path128_1_)" d="M508.832,451.052c16.045-36.379,50.143-100.283,50.869-149.698
		c0-39.302,117.724-48.689,127.171-9.447c9.447,39.241,33.426,98.104,48.688,126.445c15.26,28.34,59.762,118.369,12.354,196.933
		c-42.696,69.555-172.155,124.582-241.262-9.446C483.398,559.329,487.545,501.694,508.832,451.052z"/>
	
		<linearGradient id="path112_1_" gradientUnits="userSpaceOnUse" x1="846.6606" y1="45.2312" x2="848.9728" y2="140.9779" gradientTransform="matrix(0.9028 -0.0722 -0.1573 -2.004 -237.3883 799.7886)">
		<stop  offset="0" style="stop-color:#FFEED7"/>
		<stop  offset="1" style="stop-color:#BDBFC2"/>
	</linearGradient>
	<path id="path112" fill="url(#path112_1_)" d="M494.325,424.055c-13.71,25.948-42.238,94.192,27.293,131.531
		c74.848,39.641,74.488,121.227-15.352,82.407c-82.133-35.087-45.822-176.868-22.851-210.792
		C498.477,403.442,521.065,374.36,494.325,424.055z"/>
	<path id="path109" stroke="#000000" stroke-width="1.25" d="M506.095,394.645c-21.831,35.635-74.221,119.766-4.11,163.403
		c94.461,57.944,67.716,115.889-18.499,63.718c-121.386-72.83-14.781-219.52,33.914-275.423
		C572.956,283.594,528.093,357.702,506.095,394.645z"/>
	
		<linearGradient id="path125_1_" gradientUnits="userSpaceOnUse" x1="771.4429" y1="-67.199" x2="772.014" y2="-183.5256" gradientTransform="matrix(1.3995 0 0 -1.14 -460.9996 337.7521)">
		<stop  offset="0" style="stop-color:#FFFFFF;stop-opacity:0.8"/>
		<stop  offset="1" style="stop-color:#FFFFFF;stop-opacity:0"/>
	</linearGradient>
	<path id="path125" fill="url(#path125_1_)" d="M718.848,464.86c0,39.713-38.114,91.301-103.553,90.837
		c-67.484,0.558-96.288-51.124-96.288-90.837s44.765-71.943,99.921-71.943C674.083,392.917,718.848,425.147,718.848,464.86z"/>
	
		<linearGradient id="path127_1_" gradientUnits="userSpaceOnUse" x1="776.2651" y1="-16.9163" x2="777.0339" y2="-70.1309" gradientTransform="matrix(1.2782 0 0 -0.9908 -370.5331 314.4334)">
		<stop  offset="0" style="stop-color:#FFFFFF;stop-opacity:0.65"/>
		<stop  offset="1" style="stop-color:#FFFFFF;stop-opacity:0"/>
	</linearGradient>
	<path id="path127" fill="url(#path127_1_)" d="M683.239,339.87c-0.727,41.16-27.51,50.869-61.405,50.869
		s-58.499-6.076-61.406-50.869c0-28.079,27.51-44.329,61.406-44.329S683.239,311.791,683.239,339.87z"/>
	
		<linearGradient id="path129_1_" gradientUnits="userSpaceOnUse" x1="900.1372" y1="228.1301" x2="900.1372" y2="139.6252" gradientTransform="matrix(0.7146 0 0 -2.1864 -163.9408 862.4675)">
		<stop  offset="0" style="stop-color:#FFFFFF;stop-opacity:0.65"/>
		<stop  offset="1" style="stop-color:#FFFFFF;stop-opacity:0"/>
	</linearGradient>
	<path id="path129" fill="url(#path129_1_)" d="M478.31,403.089c22.145-33.745,68.769-85.455,8.722,7.267
		c-48.689,76.304-18.004,125.341-2.18,138.799c45.659,40.702,43.708,67.936,7.994,46.507
		C415.814,549.879,431.802,472.851,478.31,403.089z"/>
	
		<linearGradient id="path131_1_" gradientUnits="userSpaceOnUse" x1="1347.895" y1="236.2634" x2="1347.8842" y2="156.1629" gradientTransform="matrix(0.7158 0 0 -2.1828 -164.4343 860.5803)">
		<stop  offset="0" style="stop-color:#FFFFFF;stop-opacity:0.65"/>
		<stop  offset="1" style="stop-color:#FFFFFF;stop-opacity:0"/>
	</linearGradient>
	<path id="path131" fill="url(#path131_1_)" d="M798.782,416.895c-19.149-39.627-80.168-139.878,2.907-23.254
		c75.576,105.371,22.527,178.766,13.08,186.033c-9.446,7.267-41.421,21.801-31.974-3.634
		C792.242,550.607,839.337,502.325,798.782,416.895z"/>
	
		<linearGradient id="path132_1_" gradientUnits="userSpaceOnUse" x1="679.5845" y1="-216.1458" x2="655.8409" y2="-296.4462" gradientTransform="matrix(1.2644 0 0 -1.2358 -390.0299 373.1124)">
		<stop  offset="0" style="stop-color:#FFA63F"/>
		<stop  offset="1" style="stop-color:#FFFF00"/>
	</linearGradient>
	<path id="path132" fill="url(#path132_1_)" stroke="#E68C3F" stroke-width="6.25" d="M461.598,728.646
		c-50.552-26.771-124.065,5.155-97.377-67.583c5.345-16.547-7.969-41.26,0.727-57.407c10.173-19.622,31.975-15.261,45.056-28.343
		c12.897-13.613,21.074-37.061,45.055-33.427c23.98,3.634,39.932,33.076,56.68,69.036c12.354,25.797,56.177,62.08,53.313,90.947
		C561.68,746.245,511.267,754.607,461.598,728.646z"/>
	
		<linearGradient id="path177_1_" gradientUnits="userSpaceOnUse" x1="906.5688" y1="-248.5007" x2="804.6459" y2="20.5645" gradientTransform="matrix(0.6374 0.2862 0.2249 -0.5793 267.1765 225.4549)">
		<stop  offset="0" style="stop-color:#FFEED7"/>
		<stop  offset="1" style="stop-color:#BDBFC2"/>
	</linearGradient>
	<path id="path177" fill="url(#path177_1_)" d="M830.07,557.937c-7.767,14.565-39.785,37.677-61.123,31.653
		c-21.773-5.909-31.579-38.865-27.314-63.808c3.958-28.089,27.313-29.485,56.603-15.63
		C829.723,525.49,839.246,538.635,830.07,557.937z"/>
	
		<linearGradient id="path133_1_" gradientUnits="userSpaceOnUse" x1="623.436" y1="-203.7463" x2="608.4454" y2="-311.296" gradientTransform="matrix(-1.18 0.4273 -0.4706 -1.1534 1400.3921 108.6696)">
		<stop  offset="0" style="stop-color:#FFA63F"/>
		<stop  offset="1" style="stop-color:#FFFF00"/>
	</linearGradient>
	<path id="path133" fill="url(#path133_1_)" stroke="#E68C3F" stroke-width="6.2507" d="M812.397,716.167
		c37.079-44.964,119.391-35.74,63.879-97.393c-11.745-13.217-8.239-41.871-22.507-53.975c-16.972-14.841-35.692-2.67-52.895-10.431
		c-17.233-8.319-35.245-24.493-56.281-12.989c-21.034,11.503-23.298,41.431-25.281,80.609
		c-1.739,28.221-27.456,75.411-13.803,101.341C725.533,763.539,777.044,758.216,812.397,716.167z"/>
	
		<linearGradient id="path134_1_" gradientUnits="userSpaceOnUse" x1="573.4771" y1="-146.6907" x2="637.8326" y2="-264.1854" gradientTransform="matrix(-0.9524 0.3464 -0.4208 -0.9487 1267.1238 186.0618)">
		<stop  offset="0" style="stop-color:#FFFFFF;stop-opacity:0.65"/>
		<stop  offset="1" style="stop-color:#FFFFFF;stop-opacity:0"/>
	</linearGradient>
	<path id="path134" fill="url(#path134_1_)" d="M796.271,656.062c57.395-84.722,14.618-84.104,0.29-90.512
		c-14.37-6.866-29.611-20.172-46.51-10.798c-16.898,9.373-17.865,33.899-18.329,66.01c-0.588,23.128-19.95,61.57-8.305,83.034
		C737.386,728.816,771.289,692.477,796.271,656.062z"/>
	
		<linearGradient id="path135_1_" gradientUnits="userSpaceOnUse" x1="696.0142" y1="-149.5344" x2="703.4484" y2="-290.0936" gradientTransform="matrix(1.0038 -0.0523 0.0174 -1.0463 -233.0904 436.0966)">
		<stop  offset="0" style="stop-color:#FFFFFF;stop-opacity:0.65"/>
		<stop  offset="1" style="stop-color:#FFFFFF;stop-opacity:0"/>
	</linearGradient>
	<path id="path135" fill="url(#path135_1_)" d="M449.849,668.261c-85.903-55.609-45.719-74.489-32.678-83.224
		c15.639-11.202,15.76-33.034,34.977-30.997c19.216,2.037,30.403,25.694,43.359,55.078c9.566,21.065,42.395,48.905,40.047,73.212
		C532.456,710.818,487.061,692.042,449.849,668.261z"/>
	<path id="path136" d="M824.917,557.146c-6.694,11.673-34.29,30.196-52.682,25.368c-18.766-4.735-27.217-31.148-23.542-51.139
		c3.411-22.512,23.541-23.631,48.785-12.526C824.618,531.141,832.825,541.677,824.917,557.146z"/>
	
		<linearGradient id="path137_1_" gradientUnits="userSpaceOnUse" x1="920.105" y1="-160.8831" x2="974.7747" y2="-269.5019" gradientTransform="matrix(0.3742 0.1593 0.1209 -0.3224 452.8648 323.231)">
		<stop  offset="0" style="stop-color:#FFFFFF;stop-opacity:0.65"/>
		<stop  offset="1" style="stop-color:#FFFFFF;stop-opacity:0"/>
	</linearGradient>
	<path id="path137" fill="url(#path137_1_)" d="M806.426,550.608c-4.266,8.105-22.453,20.967-34.923,17.614
		c-12.722-3.288-18.944-21.628-16.88-35.508c1.837-15.631,15.355-16.407,32.563-8.697
		C805.695,532.552,811.431,539.867,806.426,550.608z"/>
	
		<linearGradient id="path119_1_" gradientUnits="userSpaceOnUse" x1="732.0952" y1="11.179" x2="732.8679" y2="-64.0567" gradientTransform="matrix(1.5234 0 0 -1.0257 -496.5288 264.9748)">
		<stop  offset="0" style="stop-color:#FFA63F"/>
		<stop  offset="1" style="stop-color:#FFFF00"/>
	</linearGradient>
	<path id="path119" fill="url(#path119_1_)" stroke="#E68C3F" stroke-width="3.75" d="M572.897,255.906
		c8.934-8.462,31.014-33.832,72.451-7.193c7.702,5.012,13.952,5.471,28.776,11.818c29.657,12.187,15.477,41.574-15.931,51.385
		c-13.447,4.361-25.67,20.695-50.161,19.299c-20.917-1.221-26.398-14.843-39.247-22.382c-22.836-12.889-26.207-30.318-13.875-39.566
		C567.243,260.017,572.067,256.693,572.897,255.906z"/>
	<path id="path120" fill="none" stroke="#E68C3F" stroke-width="2.5" d="M674.518,279.551
		c-12.354,0.727-39.241,27.614-67.583,27.614c-28.341,0-45.055-26.161-49.415-26.161"/>
	
		<linearGradient id="path123_1_" gradientUnits="userSpaceOnUse" x1="767.2573" y1="-79.9807" x2="766.81" y2="-163.6854" gradientTransform="matrix(0.7672 0 0 -0.4875 21.3376 207.246)">
		<stop  offset="0" style="stop-color:#FFFFFF;stop-opacity:0.65"/>
		<stop  offset="1" style="stop-color:#FFFFFF;stop-opacity:0"/>
	</linearGradient>
	<path id="path123" fill="url(#path123_1_)" d="M586.981,253.587c4.488-4.033,18.643-15.099,37.415-3.77
		c3.955,2.243,8.039,4.685,14.113,8.02c12.032,6.998,6.072,17.083-8.342,23.463c-6.541,2.678-17.325,8.586-25.536,8.173
		c-9.125-0.839-15.029-6.79-21.076-10.666c-11.096-7.329-10.422-13.246-5.268-18.173
		C582.183,257.252,586.565,253.961,586.981,253.587z"/>
</g>
</svg>
