<?xml version="1.0" encoding="utf-8"?>
<!-- Generator: Adobe Illustrator 16.0.3, SVG Export Plug-In . SVG Version: 6.00 Build 0)  -->
<!DOCTYPE svg PUBLIC "-//W3C//DTD SVG 1.1//EN" "http://www.w3.org/Graphics/SVG/1.1/DTD/svg11.dtd">
<svg version="1.1"
	 id="Layer_1" inkscape:version="0.92.4 (5da689c313, 2019-01-14)" sodipodi:docname="logstash-ar21.svg" xmlns:rdf="http://www.w3.org/1999/02/22-rdf-syntax-ns#" xmlns:cc="http://creativecommons.org/ns#" xmlns:inkscape="http://www.inkscape.org/namespaces/inkscape" xmlns:sodipodi="http://sodipodi.sourceforge.net/DTD/sodipodi-0.dtd" xmlns:dc="http://purl.org/dc/elements/1.1/" xmlns:svg="http://www.w3.org/2000/svg"
	 xmlns="http://www.w3.org/2000/svg" xmlns:xlink="http://www.w3.org/1999/xlink" x="0px" y="0px" width="98.438px"
	 height="29.27px" viewBox="10.597 15.349 98.438 29.27" enable-background="new 10.597 15.349 98.438 29.27" xml:space="preserve">
<sodipodi:namedview  inkscape:window-height="1001" inkscape:window-x="-9" inkscape:window-maximized="1" inkscape:current-layer="Layer_1" inkscape:pageopacity="0" inkscape:window-width="1920" inkscape:window-y="-9" inkscape:pageshadow="2" inkscape:cy="26.886015" inkscape:zoom="4.0628678" guidetolerance="10" objecttolerance="10" bordercolor="#666666" pagecolor="#ffffff" inkscape:cx="71.128701" showgrid="false" id="namedview31" borderopacity="1" gridtolerance="10">
	</sodipodi:namedview>
<title  id="title6">Logstash Color Lockup</title>
<g id="g893" transform="translate(-5.414892,2.7074465)">
	<rect id="rect8" x="30.686" y="30.855" fill="#00BFB3" width="9.795" height="10.686"/>
	<path id="path10" inkscape:connector-curvature="0" fill="#FEC514" d="M17.328,13.045h-0.89v17.811h11.576v-7.125
		C28.015,17.829,23.23,13.045,17.328,13.045z"/>
	<path id="path12" inkscape:connector-curvature="0" fill="#343741" d="M16.438,30.855L16.438,30.855
		c0,5.9,4.784,10.686,10.686,10.686l0,0h0.891V30.855H16.438z"/>
	<path id="path14" inkscape:connector-curvature="0" d="M50.228,31.38h-1.964V18.388h1.964V31.38z"/>
	<path id="path16" inkscape:connector-curvature="0" d="M61.221,26.75c0,1.505-0.387,2.672-1.158,3.531
		c-0.841,0.873-2.021,1.336-3.232,1.268c-0.801,0.016-1.592-0.186-2.289-0.582c-0.665-0.396-1.196-0.98-1.527-1.68
		c-0.37-0.793-0.553-1.662-0.534-2.537c0-1.5,0.383-2.672,1.153-3.509c0.846-0.874,2.032-1.334,3.246-1.26
		c1.205-0.06,2.374,0.418,3.192,1.304C60.88,24.253,61.29,25.491,61.221,26.75z M54.502,26.75c0,2.128,0.787,3.193,2.36,3.197
		c1.573,0.002,2.347-1.063,2.32-3.197c0-2.111-0.784-3.166-2.351-3.166c-0.695-0.054-1.369,0.256-1.781,0.819
		C54.64,25.114,54.449,25.93,54.502,26.75z"/>
	<path id="path18" inkscape:connector-curvature="0" d="M71.274,22.15v1.073l-1.58,0.294c0.157,0.218,0.279,0.46,0.36,0.717
		c0.094,0.287,0.142,0.588,0.142,0.89c0.035,0.854-0.328,1.677-0.983,2.227c-0.78,0.586-1.742,0.876-2.716,0.819
		c-0.269,0.002-0.537-0.02-0.802-0.066c-0.377,0.178-0.623,0.553-0.632,0.971c-0.005,0.203,0.11,0.39,0.293,0.477
		c0.348,0.132,0.72,0.187,1.091,0.16h1.611c0.826-0.06,1.646,0.17,2.32,0.65c0.545,0.467,0.838,1.162,0.792,1.879
		c0.024,0.975-0.474,1.889-1.304,2.399c-0.864,0.567-2.111,0.851-3.74,0.851c-1.005,0.063-2.007-0.169-2.881-0.668
		c-0.646-0.414-1.024-1.139-0.993-1.906c-0.014-0.527,0.177-1.039,0.534-1.429c0.411-0.414,0.937-0.695,1.509-0.806
		c-0.264-0.112-0.488-0.3-0.646-0.539c-0.357-0.498-0.343-1.174,0.036-1.656c0.249-0.283,0.542-0.524,0.868-0.712
		c-0.482-0.208-0.89-0.56-1.167-1.006c-0.303-0.489-0.457-1.055-0.445-1.629c-0.051-0.88,0.297-1.735,0.948-2.329
		c0.77-0.598,1.731-0.892,2.703-0.828c0.273,0,0.548,0.019,0.819,0.053c0.22,0.024,0.437,0.063,0.65,0.116H71.274z M64.017,32.836
		c-0.01,0.408,0.213,0.786,0.574,0.976c0.496,0.255,1.051,0.372,1.607,0.343c0.82,0.057,1.643-0.097,2.387-0.445
		c0.471-0.226,0.774-0.697,0.783-1.221c0.027-0.346-0.146-0.678-0.445-0.854c-0.504-0.21-1.053-0.297-1.598-0.254H65.86
		c-0.478-0.024-0.949,0.115-1.336,0.396c-0.324,0.248-0.512,0.634-0.507,1.042V32.836z M64.863,25.155
		c-0.033,0.486,0.127,0.966,0.445,1.336c0.343,0.329,0.808,0.499,1.283,0.467c1.137,0,1.703-0.607,1.701-1.821
		c0.033-0.499-0.116-0.992-0.42-1.389c-0.332-0.346-0.803-0.526-1.281-0.49c-0.48-0.035-0.953,0.142-1.292,0.485
		c-0.314,0.394-0.47,0.891-0.437,1.394V25.155z"/>
	<path id="path20" inkscape:connector-curvature="0" d="M79.186,28.753c0.041,0.813-0.328,1.592-0.984,2.074
		c-0.842,0.531-1.829,0.784-2.822,0.721c-1.018,0.043-2.03-0.148-2.961-0.561v-1.691c0.943,0.465,1.977,0.721,3.027,0.748
		c1.208,0,1.813-0.363,1.813-1.092c0.006-0.213-0.065-0.422-0.201-0.587c-0.189-0.198-0.412-0.361-0.658-0.481
		c-0.414-0.216-0.841-0.406-1.277-0.569c-0.791-0.257-1.52-0.677-2.138-1.233c-0.385-0.443-0.585-1.017-0.562-1.603
		c-0.027-0.739,0.334-1.439,0.953-1.843c0.783-0.475,1.69-0.703,2.604-0.654c1.062-0.006,2.11,0.219,3.077,0.659l-0.633,1.478
		c-0.791-0.362-1.643-0.572-2.511-0.619c-1.038,0-1.554,0.298-1.554,0.891c0.004,0.297,0.156,0.573,0.404,0.734
		c0.563,0.341,1.159,0.619,1.781,0.828c0.584,0.204,1.141,0.476,1.661,0.811c0.321,0.216,0.585,0.506,0.771,0.846
		C79.137,27.968,79.208,28.361,79.186,28.753z"/>
	<path id="path22" inkscape:connector-curvature="0" d="M84.747,29.964c0.487-0.002,0.971-0.078,1.434-0.228v1.479
		c-0.269,0.11-0.549,0.188-0.836,0.235c-0.352,0.066-0.707,0.1-1.064,0.098c-1.861,0-2.791-0.979-2.787-2.938v-4.979h-1.26v-0.89
		l1.335-0.717l0.668-1.955h1.211v2.057h2.632v1.483h-2.632v4.942c-0.032,0.385,0.097,0.766,0.356,1.051
		C84.057,29.845,84.397,29.976,84.747,29.964z"/>
	<path id="path24" inkscape:connector-curvature="0" d="M93.804,31.38l-0.392-1.283h-0.067c-0.348,0.482-0.805,0.875-1.336,1.145
		c-0.55,0.224-1.142,0.328-1.736,0.307c-0.785,0.055-1.561-0.211-2.15-0.734c-0.533-0.556-0.809-1.31-0.761-2.079
		c-0.05-0.854,0.353-1.672,1.06-2.155c0.703-0.484,1.779-0.748,3.229-0.792l1.594-0.049v-0.494c0.039-0.481-0.107-0.959-0.41-1.336
		c-0.346-0.322-0.811-0.483-1.282-0.445c-0.462-0.002-0.921,0.067-1.362,0.205c-0.421,0.145-0.832,0.314-1.233,0.507l-0.637-1.402
		c0.521-0.268,1.075-0.469,1.647-0.597c0.553-0.132,1.119-0.201,1.688-0.205c1.17,0,2.061,0.257,2.672,0.771
		c0.611,0.513,0.908,1.316,0.891,2.409v6.233L93.804,31.38z M90.883,30.045c0.628,0.031,1.242-0.183,1.714-0.598
		c0.45-0.436,0.688-1.047,0.65-1.673v-0.801l-1.188,0.053c-0.698-0.03-1.392,0.124-2.013,0.445
		c-0.424,0.276-0.665,0.759-0.633,1.264c-0.021,0.356,0.114,0.704,0.37,0.953C90.091,29.943,90.484,30.07,90.883,30.045z"/>
	<path id="path26" inkscape:connector-curvature="0" d="M104.151,28.753c0.043,0.813-0.327,1.594-0.984,2.074
		c-0.842,0.532-1.829,0.785-2.822,0.721c-1.018,0.043-2.03-0.148-2.961-0.561v-1.691c0.943,0.465,1.977,0.72,3.027,0.748
		c1.211,0,1.813-0.365,1.813-1.092c0.006-0.213-0.065-0.422-0.201-0.587c-0.189-0.198-0.412-0.361-0.658-0.481
		c-0.414-0.216-0.841-0.406-1.278-0.569c-0.802-0.252-1.542-0.673-2.168-1.233c-0.388-0.442-0.591-1.016-0.565-1.603
		c-0.026-0.74,0.337-1.439,0.957-1.843c0.781-0.475,1.688-0.703,2.6-0.654c1.063-0.006,2.114,0.219,3.082,0.659l-0.637,1.478
		c-0.791-0.362-1.643-0.572-2.512-0.619c-1.037,0-1.554,0.298-1.554,0.891c0.004,0.297,0.156,0.573,0.405,0.734
		c0.563,0.342,1.162,0.622,1.785,0.833c0.583,0.206,1.141,0.478,1.661,0.811c0.319,0.216,0.582,0.507,0.766,0.846
		C104.079,27.967,104.163,28.359,104.151,28.753z"/>
	<path id="path28" inkscape:connector-curvature="0" d="M114.391,31.38h-1.968v-5.677c0.038-0.567-0.12-1.129-0.445-1.594
		c-0.35-0.377-0.854-0.571-1.366-0.525c-0.688-0.059-1.362,0.216-1.813,0.739c-0.389,0.493-0.584,1.318-0.584,2.476v4.582h-1.959
		V18.388h1.959v3.295c-0.001,0.567-0.033,1.133-0.098,1.696h0.125c0.265-0.443,0.65-0.802,1.113-1.033
		c0.518-0.255,1.088-0.381,1.665-0.37c2.237,0,3.356,1.127,3.356,3.38L114.391,31.38z"/>
</g>
</svg>
