<?xml version="1.0" encoding="utf-8"?>
<!-- Generator: Adobe Illustrator 27.3.1, SVG Export Plug-In . SVG Version: 6.00 Build 0)  -->
<svg version="1.1" id="Layer_1" xmlns="http://www.w3.org/2000/svg" xmlns:xlink="http://www.w3.org/1999/xlink" x="0px" y="0px"
	 viewBox="0 0 181.9 27" style="enable-background:new 0 0 181.9 27;" xml:space="preserve">
<style type="text/css">
	.st0{fill:#FFFFFF;}
	.st1{fill:#F96B13;}
	.st2{fill:#CC4E00;}
	.st3{fill:#FFCA73;}
</style>
<path class="st0" d="M31,2h5.1v18.3h9.1v4H31V2z"/>
<path class="st0" d="M46.6,18.6V8.1h4.5V18c0,2.2,0.9,3.3,2.8,3.3c0.5,0,0.9-0.1,1.4-0.2c0.4-0.2,0.8-0.4,1.2-0.8
	c0.3-0.3,0.6-0.7,0.7-1.2c0.2-0.4,0.2-0.9,0.2-1.4V8.1h4.5v16.3h-4.5v-2.6c-0.5,0.9-1.2,1.7-2.2,2.2c-0.9,0.5-2,0.7-3,0.7
	C49,24.7,46.6,22.8,46.6,18.6z"/>
<path class="st0" d="M63.9,16.4v-0.3c0-1.1,0.1-2.2,0.5-3.3c0.4-1,1-2,1.8-2.8c0.8-0.8,1.7-1.4,2.8-1.8c1-0.4,2.2-0.6,3.3-0.5
	c3.8,0,7.3,1.7,7.7,6.3h-4.3c0-0.4-0.1-0.8-0.3-1.2c-0.2-0.4-0.4-0.7-0.7-0.9c-0.3-0.3-0.7-0.5-1.1-0.6c-0.4-0.1-0.8-0.2-1.2-0.1
	c-2.3,0-3.9,1.8-3.9,4.9v0.3c0,3.3,1.5,5,4,5c0.4,0,0.9,0,1.3-0.2c0.4-0.1,0.8-0.4,1.1-0.7c0.3-0.3,0.6-0.6,0.8-1
	c0.2-0.4,0.3-0.8,0.3-1.3h4.1c-0.2,3.9-3.1,6.6-7.8,6.6C67.6,24.7,63.9,21.8,63.9,16.4z"/>
<path class="st0" d="M82.3,3.4c0-0.5,0.1-1,0.4-1.5c0.3-0.4,0.7-0.8,1.1-1c0.5-0.2,1-0.3,1.5-0.2c0.5,0.1,1,0.3,1.3,0.7
	c0.4,0.4,0.6,0.8,0.7,1.3c0.1,0.5,0.1,1-0.1,1.5c-0.2,0.5-0.5,0.9-1,1.2c-0.4,0.3-0.9,0.4-1.4,0.4c-0.3,0-0.7,0-1-0.2
	c-0.3-0.1-0.6-0.3-0.8-0.5s-0.4-0.5-0.6-0.8S82.3,3.7,82.3,3.4z M82.6,8.1h4.5v16.3h-4.5V8.1z"/>
<path class="st0" d="M89.1,16.5v-0.3c0-5.4,3.1-8.5,7.2-8.5c1-0.1,2.1,0.2,3,0.7c0.9,0.5,1.7,1.2,2.2,2.2V0.9h4.5v23.4h-4.5v-2.7
	c-0.5,0.9-1.3,1.7-2.2,2.2c-0.9,0.5-2,0.8-3,0.8C92.2,24.7,89.1,21.9,89.1,16.5z M101.2,16.3V16c0-3.2-1.4-4.9-3.9-4.9
	s-3.9,1.7-3.9,5v0.3c0,3.2,1.6,4.8,3.8,4.8C99.5,21.2,101.2,19.6,101.2,16.3z"/>
<path class="st0" d="M107.8,16.4v-0.3c0-1.1,0.1-2.2,0.5-3.3c0.4-1,1-2,1.8-2.8c0.8-0.8,1.7-1.4,2.8-1.8c1-0.4,2.2-0.6,3.3-0.5
	c3.8,0,7.3,1.7,7.7,6.3h-4.3c0-0.4-0.1-0.8-0.3-1.2c-0.2-0.4-0.4-0.7-0.8-1c-0.3-0.3-0.7-0.5-1.1-0.6c-0.4-0.1-0.8-0.1-1.2-0.1
	c-2.3,0-3.9,1.8-3.9,4.9v0.3c0,3.3,1.5,5,4,5c0.4,0,0.9,0,1.3-0.2c0.4-0.1,0.8-0.4,1.1-0.7c0.3-0.3,0.6-0.6,0.8-1
	c0.2-0.4,0.3-0.8,0.3-1.3h4.1c-0.3,3.9-3.1,6.6-7.8,6.6C111.4,24.7,107.8,21.8,107.8,16.4z"/>
<path class="st0" d="M126,0.9h4.5v9.7c0.5-0.9,1.3-1.7,2.2-2.3c0.9-0.5,2-0.8,3.1-0.7c3.2,0,5.5,1.9,5.5,6.3v10.4h-4.5v-9.7
	c0-2.2-0.9-3.3-2.9-3.3s-3.4,1.2-3.4,3.6v9.4H126V0.9z"/>
<path class="st0" d="M143.3,19.8c0-3.8,3.5-5.2,8.4-5.2h1.9V14c0-1.9-0.6-3-2.7-3c-0.3-0.1-0.7,0-1,0.1c-0.3,0.1-0.6,0.3-0.9,0.5
	s-0.5,0.5-0.6,0.8c-0.2,0.3-0.2,0.6-0.3,1h-4.3c0.3-3.9,3.3-5.6,7.3-5.6c4,0,6.8,1.6,6.8,6v10.7h-4.4v-2c-0.6,0.8-1.3,1.4-2.2,1.8
	c-0.9,0.4-1.8,0.6-2.8,0.5C145.8,24.7,143.3,23.3,143.3,19.8z M153.6,18.7v-1.4h-1.7c-2.6,0-4.2,0.6-4.2,2.3c0,1.2,0.7,2,2.4,2
	C152.1,21.6,153.6,20.5,153.6,18.7L153.6,18.7z"/>
<path class="st0" d="M161,8.1h4.5v3.1c0.4-1,1.1-1.9,2.1-2.5c0.9-0.6,2.1-0.9,3.2-0.8V12c-3.3,0-5.3,1.1-5.3,4.2v8.2H161V8.1z"/>
<path class="st0" d="M173.8,19.5v-8.3h-2.1V8.1h2.1V4.5h4.5v3.5h3.6v3.2h-3.6v7.9c0,1.3,0.7,1.9,1.8,1.9c0.6,0,1.2-0.2,1.8-0.4v3.8
	c-0.9,0.2-1.9,0.3-2.8,0.3C175.6,24.7,173.8,22.9,173.8,19.5z"/>
<path class="st1" d="M0,6.8v13.5L11.5,27v-3.4l-8.6-5.1V8.4L0,6.8z"/>
<path class="st2" d="M20.1,8.4v13.5l2.9-1.7V6.8L20.1,8.4z"/>
<path class="st3" d="M8.6,1.7l11.5,6.8L23,6.8L11.5,0L8.6,1.7z"/>
<path class="st3" d="M0,6.8l2.9,1.7l2.9-1.7L2.9,5.1L0,6.8z"/>
<path class="st2" d="M2.9,8.4v10.1l2.9-1.7V6.8L2.9,8.4z"/>
<path class="st2" d="M11.5,23.6V27l2.9-1.7v-3.4L11.5,23.6z"/>
<path class="st3" d="M2.9,18.6l8.6,5.1l2.9-1.7l-8.6-5.1L2.9,18.6z"/>
<path class="st1" d="M8.6,1.7v3.4l8.6,5.1v10.1l2.9,1.7V8.4L8.6,1.7z"/>
</svg>
