<svg version="1.2" xmlns="http://www.w3.org/2000/svg" viewBox="0 0 1566 346" width="1566" height="346">
	<title>maersk-svg</title>
	<style>
		.s0 { fill: #141414 } 
		.s1 { fill: #42b0d5 } 
		.s2 { fill: #ffffff } 
	</style>
	<g id="Large---1280px-(Max-Width)">
		<g id="IGN---Transparent">
			<g id="IGN">
				<g id="Logo">
					<g id="Text">
						<path id="Fill-4" fill-rule="evenodd" class="s0" d="m477.7 249.5v-152h40.8l51.6 113.6 50.8-113.6h39.1v152h-33.6v-88.4l-38.8 88.4h-35.8l-39.3-87.9v87.9zm236.8 0h-39.5l67.9-152h48.6l68.4 152h-39l-13.4-30.3h-80zm80.7-58.8l-28.1-64.4-27.4 64.4zm80.5-93.2h146.1v30.4h-110.8v30.2h95v29.7h-95v31.3h111.1v30.4h-146.4zm174.9 152v-152h122.3c16.3 0 25.8 9.4 25.8 25.5v51.1c0 11.7-10.5 22.3-30.8 22.3-1.1 0.1-2.3 0-3.5 0l35.6 53.1h-39.3l-33.8-52h-40.5v52zm35.8-82.2h76.8v-39.4h-76.8zm176.7 82.3h-12.1c-15.8 0-23.4-9.1-23.4-22.3v-19.9h35.5v11.8h75.6v-31.1c0 0-72.8 0-86.7 0-13.8 0-23.8-9.2-23.8-22.1v-45.1c0-13.6 10.9-23.3 24.1-23.3 13.2 0 99 0 99 0 13.4 0 22.7 9.9 22.7 24.3 0 14.3 0 18.1 0 18.1h-35.3v-12h-75.6v29.9h86.5c12.7 0 24.4 8.4 24.4 24.6v43.3c0 14.8-8.3 23.8-23.7 23.8-15.4 0-87.2 0-87.2 0zm145-152h36.3v60.8l69.2-60.8h49.1l-82.5 70.6 85.5 81.4h-50.9l-70.4-69.1v69.1h-36.3z"/>
					</g>
					<g id="Star">
						<path id="Shape" class="s1" d="m39.6 0h249.9c21.9 0 39.6 17.6 39.6 39.4v266.6c0 21.8-17.7 39.5-39.6 39.5h-249.9c-21.9 0-39.6-17.7-39.6-39.4v-266.6c0-10.5 4.1-20.5 11.5-27.9 7.5-7.4 17.6-11.6 28.1-11.6z"/>
						<path id="Shape" class="s2" d="m310.9 207.8l-0.1 0.3h-104.2l23.2 100.5-0.3 0.2-65-80.7-64.9 80.7-0.3-0.1 23.2-100.6h-104.2l-0.1-0.3 93.9-44.8-65-80.7 0.2-0.2 93.9 44.7 23.1-100.5h0.4l23.2 100.5 93.9-44.7 0.2 0.2-65 80.7z"/>
					</g>
				</g>
			</g>
		</g>
	</g>
</svg>