<?xml version="1.0" encoding="utf-8"?>
<!-- Generator: Adobe Illustrator 16.0.3, SVG Export Plug-In . SVG Version: 6.00 Build 0)  -->
<!DOCTYPE svg PUBLIC "-//W3C//DTD SVG 1.1//EN" "http://www.w3.org/Graphics/SVG/1.1/DTD/svg11.dtd">
<svg version="1.1" id="Layer_1" xmlns="http://www.w3.org/2000/svg" xmlns:xlink="http://www.w3.org/1999/xlink" x="0px" y="0px"
	 width="73.524px" height="50.576px" viewBox="23.234 3.911 73.524 50.576" enable-background="new 23.234 3.911 73.524 50.576"
	 xml:space="preserve">
<g transform="translate(0 .28)">
	<g>
		<path fill="#444B5E" d="M71.621,45.159c-1.08-1.48-2.488-2.221-4.222-2.221c-1.508,0-2.802,0.554-3.882,1.66
			c-1.081,1.095-1.621,2.415-1.621,3.963c0,1.534,0.533,2.861,1.601,3.982c1.081,1.106,2.402,1.661,3.962,1.661
			s2.949-0.728,4.163-2.182v1.821h1.348V43.22h-1.348L71.621,45.159z M70.461,51.704c-0.827,0.826-1.821,1.241-2.982,1.241
			c-1.146,0-2.134-0.427-2.961-1.282c-0.827-0.866-1.242-1.887-1.242-3.061c-0.015-1.137,0.425-2.232,1.222-3.042
			c0.759-0.844,1.847-1.318,2.981-1.302c1.188,0,2.188,0.421,3.001,1.262c0.813,0.826,1.22,1.848,1.22,3.062
			c0,1.255-0.413,2.295-1.241,3.122 M59.185,43.22h1.381v10.625h-1.381V43.22z M23.234,53.845h1.381l1.4-10.359l5.144,10.359h0.36
			l5.083-10.285l1.401,10.285h1.42l-2.062-14.367H37.15l-5.804,11.787l-5.844-11.787h-0.213L23.234,53.845z M49.865,45.16
			c-1.079-1.481-2.488-2.221-4.222-2.221c-1.507,0-2.8,0.554-3.881,1.66c-1.082,1.095-1.622,2.415-1.622,3.962
			c-0.019,1.488,0.557,2.922,1.601,3.982c1.081,1.107,2.403,1.662,3.963,1.662s2.949-0.728,4.162-2.182v1.82h1.348V43.22h-1.348
			L49.865,45.16z M48.705,51.704c-0.827,0.827-1.821,1.242-2.982,1.242c-1.147,0-2.134-0.428-2.962-1.281
			c-0.827-0.867-1.241-1.888-1.241-3.063c-0.016-1.136,0.424-2.23,1.22-3.041c0.814-0.867,1.808-1.302,2.982-1.302
			c1.188,0,2.188,0.421,3.001,1.261c0.813,0.828,1.22,1.849,1.22,3.063c0,1.254-0.412,2.295-1.24,3.122 M84.482,41.358
			c-0.693-0.653-1.521-1.136-2.48-1.421c-0.947-0.307-2.441-0.461-4.483-0.461h-2.981v14.369h4.584c1.867,0,3.295-0.281,4.281-0.841
			c0.994-0.567,1.788-1.388,2.361-2.481c0.581-1.083,0.884-2.293,0.881-3.522c0-1.256-0.188-2.341-0.568-3.281
			s-0.908-1.722-1.601-2.362 M84.736,49.321c-0.309,0.733-0.755,1.36-1.349,1.88c-0.586,0.508-1.274,0.847-2.061,1.021
			c-0.78,0.174-2.028,0.261-3.763,0.261h-1.66V40.878h1.02c1.722,0,3.023,0.094,3.902,0.279c0.895,0.174,1.668,0.521,2.32,1.041
			c0.652,0.521,1.154,1.182,1.502,1.981c0.359,0.8,0.539,1.675,0.539,2.622s-0.152,1.787-0.459,2.521 M93.729,46.001
			c0.602-0.32,1.053-0.74,1.361-1.262c0.319-0.533,0.48-1.113,0.48-1.74c0-1.135-0.395-2.002-1.182-2.603
			c-0.779-0.614-1.914-0.92-3.422-0.92h-2.834v14.368h3.962c1.375,0,2.495-0.387,3.363-1.16c0.866-0.78,1.3-1.773,1.3-2.962
			c0-0.88-0.26-1.642-0.779-2.282c-0.508-0.639-1.255-1.119-2.242-1.439 M89.553,40.878h1.662c1.922,0,2.883,0.707,2.883,2.129
			c0,0.854-0.307,1.48-0.921,1.881s-1.548,0.601-2.803,0.601h-0.821V40.878z M94.804,51.183c-0.308,0.428-0.706,0.747-1.201,0.961
			c-0.479,0.199-1.234,0.301-2.261,0.301H89.56v-5.523h0.8c1.295,0,2.176,0.066,2.644,0.199c0.48,0.134,0.887,0.334,1.22,0.602
			c0.355,0.267,0.607,0.567,0.781,0.92c0.174,0.354,0.26,0.748,0.26,1.201s-0.153,0.9-0.461,1.348 M59.875,39.484
			c-0.265,0-0.519,0.107-0.703,0.298c-0.187,0.198-0.281,0.426-0.281,0.71c0,0.256,0.101,0.503,0.281,0.686
			c0.199,0.198,0.426,0.298,0.709,0.298c0.265,0.007,0.521-0.095,0.709-0.281c0.198-0.198,0.298-0.435,0.298-0.71
			c0.008-0.266-0.102-0.522-0.299-0.703c-0.18-0.195-0.436-0.305-0.703-0.299 M57.338,43.06c-1.102,0.15-2.12,0.67-2.888,1.474
			l-0.142,0.163v-1.463H54.07v-0.021h-1.064v10.631H54.4v-6.301c-0.006-0.592,0.17-1.172,0.505-1.66
			c0.572-0.912,1.575-1.523,2.725-1.547v-1.343l-0.284,0.06"/>
	</g>
	<g>
		<path fill="#444B5E" d="M78.258,6.679c-1.071,0.027-1.703,0.494-1.911,1.384c0.274,0.239,0.644,0.343,1.013,0.327
			c0.81-0.034,1.611-0.651,1.385-1.696C78.573,6.68,78.41,6.674,78.258,6.679 M83.773,3.631h-0.096
			c-0.764,0.024-0.882,0.439-2.531,0.845c-1.666,0.41-3.275,0.016-5.068,0.769C70.721,7.491,69.58,15.24,64.711,17.99
			c-3.638,2.056-7.157,2.968-10.457,4.002c-2.169,0.68-4.321,1.462-6.286,3.156c-1.526,1.315-1.945,2.337-3.534,3.987
			c-1.622,1.678-6.609-1.292-9.039,0.881c-0.196,0.179-0.209,0.483-0.031,0.679c0.012,0.014,0.025,0.026,0.039,0.038
			c0.526,0.461,1.527,1.558,2.48,1.896c-0.302,0.572-2.01,2.258-1.661,3.102c0.366,0.887,4.6,0.284,8.513-2.078
			c1.822-1.102,3.274-2.688,6.113-3.065c3.673-0.489,7.904,0.315,12.156,0.927c-0.631,1.88-1.896,3.131-2.91,4.635
			c-0.315,0.338,0.631,0.376,1.708,0.171c1.945-0.479,3.337-0.865,4.806-1.716c1.799-1.047,2.07-3.73,4.275-4.311
			c1.066,1.639,3.719,2.191,5.764,1.316c0.113-0.049,0.225-0.102,0.333-0.158c0.246-0.215,0.102-0.465-0.05-0.648
			c-0.071-0.066-0.141-0.137-0.207-0.209c-1.15-1.237-1.414-4.157-0.903-5.577c0.581-1.616,1.157-4.201,1.743-6.336
			c0.629-2.288,0.861-5.185,1.623-6.354c1.145-1.757,2.41-2.361,3.51-3.353c1.099-0.991,2.105-1.957,2.07-4.224
			C84.75,4.051,84.406,3.648,83.773,3.631 M83.891,6.012c-0.228,1.564-1.227,2.424-2.408,3.254c-1.029,0.727-2.17,1.426-2.9,2.561
			c-0.746,1.162-1.221,5.14-2.379,9.069c-0.962,3.26-2.395,6.484-4.844,8.038c-0.16,0.101-0.369,0.008-0.403-0.172
			c-0.172-0.911-0.138-2.574-0.42-2.037c-0.354,1.013-0.757,1.978-1.226,2.876c-1.442,2.755-3.527,4.866-6.898,5.693
			c-0.163,0.036-0.326-0.066-0.363-0.229c-0.018-0.083-0.001-0.171,0.048-0.24c1.555-2.157,2.946-4.477,3.116-8.018
			c0.014-0.305-0.369-0.445-0.563-0.208c-0.734,0.906-0.916,3.059-1.989,3.723c-0.843,0.091-1.697,0.091-2.557,0.039
			c-3.53-0.211-7.152-1.273-10.455-0.213c-2.248,0.722-4.609,2.774-6.514,3.6c-2.238,0.965-3.299,1.881-6.125,1.817
			c-0.289-0.39,1.18-2.073,1.679-2.8c0.159-0.232-0.181-0.477-0.5-0.629c-0.766-0.352-1.533-1.305-2.35-1.676
			c0.104-0.193,0.475-0.386,0.679-0.504c1.854-1.075,6.769,1.215,8.089-0.082c0.815-0.8,1.364-1.502,1.918-2.317
			c0.538-0.79,1.355-1.624,2.201-2.315c0.359-0.288,0.729-0.562,1.11-0.821c1.441-0.986,2.235-1.06,4.102-1.753
			c2.375-0.883,5.316-1.658,7.865-2.632c1.574-0.602,3.286-1.344,4.681-2.385c0.332-0.248,0.646-0.511,0.936-0.793
			c3.984-3.891,4.773-10.736,10.984-11.375c0.752-0.077,1.285-0.11,1.846-0.127c0.627-0.017,1.248-0.172,1.867-0.468
			c0.191-0.083,1.33-0.772,1.715-0.439c0.256,0.222,0.064,1.425,0.049,1.556"/>
	</g>
</g>
</svg>
