<?xml version="1.0" encoding="utf-8"?>
<!-- Generator: Adobe Illustrator 16.0.3, SVG Export Plug-In . SVG Version: 6.00 Build 0)  -->
<!DOCTYPE svg PUBLIC "-//W3C//DTD SVG 1.1//EN" "http://www.w3.org/Graphics/SVG/1.1/DTD/svg11.dtd">
<svg version="1.1" id="Layer_1" xmlns="http://www.w3.org/2000/svg" xmlns:xlink="http://www.w3.org/1999/xlink" x="0px" y="0px"
	 width="104.997px" height="22.429px" viewBox="7.501 18.786 104.997 22.429" enable-background="new 7.501 18.786 104.997 22.429"
	 xml:space="preserve">
<g transform="matrix(.173865 0 0 .173865 7.501548 18.78565)">
	<path fill="#737373" d="M213.199,74.296l-3.598,10.2h-0.301c-0.601-2.297-1.702-5.797-3.499-9.998L186.499,26h-18.9v77.301h12.5
		V55.6l-0.098-10.602c-0.101-2.098-0.301-3.699-0.402-4.898h0.3c0.601,2.999,1.3,5.198,1.8,6.6l23.2,56.398h8.799l23.001-56.898
		c0.5-1.3,1-3.901,1.5-6.1h0.301L237.901,54v48.998h13.298V25.801h-18.198L213.199,74.296z M263.8,47.599h13v55.398h-13V47.599z
		 M270.4,24.2c-2.199,0-3.999,0.8-5.499,2.199c-1.503,1.401-2.3,3.202-2.3,5.401c-0.028,2.016,0.809,3.946,2.3,5.299
		c1.5,1.401,3.3,2.101,5.499,2.101s4.1-0.8,5.499-2.101c1.491-1.354,2.328-3.283,2.3-5.299c0-2.101-0.8-3.898-2.3-5.401
		C274.601,25,272.7,24.2,270.4,24.2 M322.9,47.099c-2.404-0.5-4.898-0.8-7.302-0.8c-5.898,0-11.298,1.3-15.797,3.901
		c-4.502,2.601-8.102,6.201-10.402,10.7c-2.398,4.6-3.598,9.902-3.598,16.002c0,5.297,1.199,9.998,3.499,14.3
		c2.3,4.201,5.499,7.594,9.799,9.897c4.1,2.303,8.9,3.499,14.297,3.499c6.201,0,11.503-1.297,15.705-3.701l0.101-0.101V88.798
		l-0.505,0.404c-1.898,1.393-4.1,2.595-6.296,3.297c-2.297,0.803-4.398,1.196-6.201,1.196c-5.195,0-9.296-1.494-12.2-4.797
		c-2.999-3.202-4.499-7.6-4.499-13.098c0-5.701,1.5-10.2,4.6-13.503c3.1-3.297,7.195-4.999,12.2-4.999
		c4.196,0,8.498,1.401,12.396,4.201l0.505,0.399V49.2l-0.101-0.101C327.399,48.4,325.501,47.599,322.9,47.099 M365.801,46.701
		c-3.202,0-6.201,1-8.802,3.1c-2.196,1.797-3.701,4.398-4.999,7.498H351.9v-9.7h-13.003v55.398H351.9V74.7
		c0-4.797,1-8.801,3.202-11.7c2.196-2.999,4.999-4.502,8.397-4.502c1.202,0,2.404,0.3,3.898,0.503
		c1.404,0.399,2.404,0.798,3.1,1.297l0.505,0.402v-13l-0.303-0.101C369.8,46.998,368.003,46.701,365.801,46.701 M401.198,46.4
		c-9.099,0-16.401,2.699-21.501,8.001c-5.201,5.299-7.695,12.598-7.695,21.799c0,8.599,2.595,15.598,7.594,20.698
		c5.005,4.999,11.807,7.605,20.305,7.605c8.903,0,16.002-2.702,21.102-8.099c5.201-5.403,7.695-12.604,7.695-21.501
		c0-8.801-2.398-15.803-7.302-20.903C416.7,48.9,409.803,46.4,401.198,46.4 M411.6,89.001c-2.404,3.1-6.201,4.6-10.897,4.6
		c-4.707,0-8.504-1.5-11.2-4.802c-2.707-3.1-4.005-7.599-4.005-13.301c0-5.898,1.399-10.397,4.005-13.598
		c2.696-3.199,6.392-4.8,11.099-4.8c4.595,0,8.201,1.5,10.795,4.6c2.601,3.1,3.999,7.597,3.999,13.5
		C415.201,81.199,414.1,85.9,411.6,89.001 M457.703,70.6c-4.1-1.696-6.706-2.999-7.903-4.1c-1-1-1.5-2.398-1.5-4.201
		c0-1.5,0.595-2.999,2.101-3.999c1.5-1,3.202-1.5,5.695-1.5c2.202,0,4.505,0.399,6.706,1c2.196,0.601,4.196,1.5,5.797,2.702
		l0.5,0.399V48.7l-0.298-0.101c-1.505-0.598-3.505-1.199-5.898-1.699c-2.404-0.402-4.606-0.601-6.403-0.601
		c-6.201,0-11.301,1.5-15.3,4.8c-3.999,3.1-5.898,7.302-5.898,12.202c0,2.598,0.393,4.895,1.297,6.799
		c0.899,1.898,2.196,3.701,3.999,5.201c1.803,1.399,4.398,2.999,8.004,4.499c2.999,1.303,5.297,2.303,6.695,3.1
		c1.404,0.798,2.303,1.696,2.999,2.398c0.506,0.803,0.798,1.803,0.798,3.1c0,3.701-2.797,5.499-8.493,5.499
		c-2.202,0-4.505-0.399-7.201-1.297c-2.702-0.904-5.201-2.202-7.302-3.701l-0.5-0.399v12.7l0.298,0.101
		c1.898,0.899,4.201,1.5,6.999,2.202c2.803,0.494,5.302,0.899,7.504,0.899c6.695,0,12.2-1.505,16.098-4.802
		c3.999-3.196,6.1-7.296,6.1-12.598c0-3.701-1-6.999-3.202-9.504C466.499,75.099,462.904,72.6,457.703,70.6 M506.9,46.4
		c-9.099,0-16.401,2.699-21.501,8.001c-5.1,5.299-7.701,12.598-7.701,21.799c0,8.599,2.6,15.598,7.605,20.698
		c4.999,4.999,11.795,7.605,20.299,7.605c8.897,0,15.997-2.702,21.097-8.099C531.901,91,534.4,83.8,534.4,74.903
		c0-8.801-2.398-15.803-7.296-20.903C522.397,48.9,515.5,46.4,506.9,46.4 M517.196,89.001c-2.393,3.1-6.195,4.6-10.897,4.6
		c-4.797,0-8.498-1.5-11.2-4.802c-2.696-3.1-3.999-7.599-3.999-13.301c0-5.898,1.399-10.397,3.999-13.598
		c2.702-3.199,6.403-4.8,11.099-4.8c4.505,0,8.201,1.5,10.801,4.6c2.601,3.1,4.005,7.597,4.005,13.5
		C521.004,81.199,519.701,85.9,517.196,89.001 M603.897,58.299v-10.7h-13.098V31.198l-0.399,0.101l-12.396,3.701l-0.303,0.098v12.5
		h-19.603v-6.999c0-3.202,0.803-5.701,2.202-7.302c1.404-1.598,3.505-2.398,6.1-2.398c1.797,0,3.702,0.399,5.802,1.3l0.5,0.3V21.2
		l-0.303-0.101c-1.797-0.601-4.201-1-7.302-1c-3.898,0-7.296,0.901-10.397,2.401c-3.1,1.699-5.398,3.999-7.1,7.1
		c-1.702,2.999-2.601,6.4-2.601,10.298v7.701H535.9v10.602h9.099v44.797h13.098V58.299H577.7v28.5
		c0,11.7,5.499,17.603,16.502,17.603c1.797,0,3.696-0.303,5.499-0.601c1.898-0.399,3.297-0.904,4.1-1.297l0.095-0.101V91.697
		l-0.494,0.404c-0.803,0.5-1.505,0.899-2.702,1.202c-1,0.298-1.904,0.393-2.601,0.393c-2.601,0-4.404-0.595-5.701-2.095
		c-1.196-1.399-1.803-3.701-1.803-7.105V58.299H603.897z"/>
	<path fill="#F25022" d="M0,0h61.302v61.299H0V0z"/>
	<path fill="#7FBA00" d="M67.699,0H129v61.299H67.699V0z"/>
	<path fill="#00A4EF" d="M0,67.702h61.302v61.302H0V67.702z"/>
	<path fill="#FFB900" d="M67.699,67.702H129v61.302H67.699V67.702z"/>
</g>
</svg>
