<?xml version="1.0" encoding="utf-8"?>
<!-- Generator: Adobe Illustrator 27.3.1, SVG Export Plug-In . SVG Version: 6.00 Build 0)  -->
<svg version="1.1" id="Layer_1" xmlns="http://www.w3.org/2000/svg" xmlns:xlink="http://www.w3.org/1999/xlink" x="0px" y="0px"
	 viewBox="0 0 1050.9 290.6" style="enable-background:new 0 0 1050.9 290.6;" xml:space="preserve">
<style type="text/css">
	.st0{fill:#10AA50;}
	.st1{fill:#B8C4C2;}
	.st2{fill:#12924F;}
	.st3{fill:#21313C;}
</style>
<path class="st0" d="M128.1,115.6c-15.3-67.5-47.2-85.5-55.4-98.2C69.4,11.8,66.4,6,63.9,0c-0.4,6-1.2,9.8-6.3,14.3
	C47.3,23.5,3.8,58.9,0.1,135.6c-3.4,71.6,52.6,115.7,60,120.2c5.7,2.8,12.6,0.1,16-2.5C103.1,234.8,140,185.4,128.1,115.6"/>
<path class="st1" d="M66.2,217.8c-1.4,17.7-2.4,28-6,38.1c0,0,2.3,16.9,4,34.7H70c1.4-12.6,3.5-25.1,6.4-37.4
	C68.8,249.5,66.5,233.3,66.2,217.8z"/>
<path class="st2" d="M76.4,253.2L76.4,253.2c-7.6-3.5-9.8-20.1-10.2-35.5c1.9-25.4,2.4-50.9,1.7-76.4C67.4,128.1,68,17.7,64.5,1.5
	c2.4,5.5,5.1,10.8,8.2,15.9c8.1,12.7,40.1,30.7,55.4,98.2C140,185.3,103.3,234.6,76.4,253.2z"/>
<path class="st3" d="M836.5,213.7c4.5,3.6,13.5,5.1,21.4,5.1c10.2,0,20.3-1.9,30.1-10.8c10-9.1,16.9-23,16.9-45.2
	c0-21.3-8.1-38.7-24.8-48.8c-9.4-5.9-21.6-8.2-35.5-8.2c-4,0-8.1,0.2-10.5,1.3c-1,0.8-1.6,1.8-1.9,3c-0.4,3.8-0.4,32.7-0.4,49.8
	c0,17.5,0,42,0.4,45C832.4,207.4,833.7,211.9,836.5,213.7 M793.8,96.2c3.6,0,17.4,0.6,23.8,0.6c12,0,20.3-0.6,42.7-0.6
	c18.8,0,34.6,5.1,45.9,14.8c13.7,11.8,21,28.3,21,48.4c0,28.5-13,45-26.1,54.3c-13,9.7-29.9,15.2-54,15.2c-12.8,0-34.8-0.4-53.2-0.6
	h-0.4c-0.9-1.7,1.6-8.3,3.1-8.4c5-0.6,6.3-0.8,8.6-1.7c3.9-1.6,4.8-3.6,5.2-10.5c0.6-13.1,0.4-28.7,0.4-46.5
	c0-12.7,0.2-37.4-0.2-45.2c-0.7-6.5-3.4-8.2-9-9.5c-4-0.8-8-1.5-12-1.9C789.4,103.2,792.7,97.5,793.8,96.2"/>
<path class="st3" d="M980.3,107c-0.8,0.2-1.9,2.3-1.9,3.4c-0.2,7.6-0.4,27.5-0.4,41.2c0.1,0.5,0.5,1,1.1,1.1
	c2.8,0.2,9.6,0.4,15.4,0.4c8.1,0,12.8-1.1,15.4-2.3c6.8-3.4,10-10.8,10-18.8c0-18.4-12.8-25.3-31.8-25.3
	C985.4,106.5,982.8,106.6,980.3,107 M1028.7,191.5c0-18.6-13.7-29.1-38.7-29.1c-1.1,0-9-0.2-10.9,0.2c-0.6,0.2-1.3,0.6-1.3,1.1
	c0,13.3-0.2,34.6,0.4,43.1c0.4,3.6,3,8.7,6.2,10.1c3.4,1.9,11.1,2.3,16.5,2.3C1015.7,219.1,1028.7,210.9,1028.7,191.5 M941.7,96.6
	c1.9,0,7.6,0.6,22.1,0.6c13.7,0,24.8-0.4,38-0.4c16.4,0,39.1,5.9,39.1,30.4c0,12-8.5,21.8-19.7,26.4c-0.6,0.2-0.6,0.6,0,0.8
	c15.8,4,29.7,13.7,29.7,32.3c0,18.2-11.3,29.6-27.8,36.8c-10,4.4-22.4,5.9-35,5.9c-9.6,0-35.4-1-49.7-0.8c-1.5-0.6,1.4-7.4,2.7-8.4
	c3.3-0.1,6.5-0.6,9.7-1.5c5.1-1.3,5.7-2.9,6.4-10.5c0.4-6.6,0.4-30,0.4-46.7c0-22.8,0.2-38.2,0-45.8c-0.2-5.9-2.3-7.8-6.4-8.9
	c-3.2-0.6-8.5-1.3-12.8-1.9C937.3,103.8,940.6,97.4,941.7,96.6"/>
<path class="st3" d="M175.4,228.8c-0.6-1.4-0.8-2.8-0.6-4.3c0-1,0.2-2,0.6-2.9c2.8-0.4,5.5-1,8.2-1.7c3.8-0.9,5.2-3,5.4-7.8
	c0.6-11.4,0.7-32.8,0.4-47.8V164c0-1.6,0-3.8-2-5.4c-3.5-2.2-7.3-3.9-11.3-5c-1.8-0.5-2.8-1.5-2.7-2.6s1.2-2.4,3.5-2.9
	c6.2-0.6,22.4-4.5,28.8-7.4c0.7,0.9,1,1.9,0.9,3c0,0.7-0.1,1.4-0.2,2.1c-0.2,2.1-0.4,4.5-0.4,6.9c0.1,0.9,0.9,1.5,1.8,1.4
	c0.3,0,0.7-0.2,0.9-0.4c12.1-9.5,23-12.9,28.6-12.9c9.2,0,16.3,4.4,21.8,13.4c0.3,0.4,0.7,0.7,1.2,0.7c0.5,0,0.9-0.2,1.2-0.6
	c11.1-8.5,22.2-13.5,29.6-13.5c17.5,0,27.9,13.1,27.9,35c0,6.3-0.1,14.3-0.1,21.7c0,6.5-0.1,12.7-0.1,16.9c0,1,1.4,3.9,3.5,4.4
	c2.6,1.2,6.2,1.9,10.9,2.7h0.2c0.4,1.3-0.4,6.1-1.1,7.1c-1.2,0-2.8-0.1-4.8-0.2c-3.6-0.2-8.6-0.4-14.4-0.4
	c-11.6,0-17.7,0.2-23.5,0.6c-0.4-1.4-0.6-6.1-0.1-7.1c2.4-0.4,4.8-0.9,7.1-1.6c3.7-1.2,4.8-2.9,5-7.8c0.1-3.5,0.8-34.2-0.4-41.5
	c-1.1-7.6-6.8-16.4-19.3-16.4c-4.6,0-12.1,1.9-19.2,7.3c-0.4,0.5-0.7,1.1-0.7,1.8v0.1c0.8,3.9,0.8,8.5,0.8,15.5c0,4,0,8.2,0,12.3
	c0,8.5-0.1,16.5,0,22.5c0,4.1,2.5,5.1,4.5,5.9c1.1,0.2,2,0.4,2.8,0.6c1.7,0.4,3.4,0.8,6,1.2c0.4,1.8,0.3,3.6-0.1,5.3
	c-0.1,0.7-0.4,1.3-0.8,1.8c-6.5-0.2-13.1-0.4-22.7-0.4c-2.9,0-7.6,0.1-11.8,0.2c-3.4,0.1-6.6,0.2-8.4,0.2c-0.5-1.2-0.7-2.4-0.6-3.7
	c-0.1-1.2,0.1-2.4,0.7-3.4l2.6-0.5c2.2-0.4,4.2-0.7,6-1.2c3.2-1,4.4-2.7,4.6-6.8c0.6-9.4,1.1-36.5-0.2-43.3
	c-2.3-10.9-8.4-16.4-18.4-16.4c-5.8,0-13.2,2.8-19.2,7.3c-1.2,1.1-1.8,2.7-1.8,4.4c0,3.2,0,7.1,0,11.2c0,13.6-0.1,30.5,0.2,37.9
	c0.2,2.3,1,4.9,5.2,5.9c0.9,0.3,2.5,0.5,4.4,0.8c1.1,0.2,2.2,0.4,3.4,0.6c0.4,2.4,0.2,4.8-0.6,7.1c-1.9,0-4.1-0.1-6.8-0.2
	c-4-0.2-9-0.4-14.6-0.4c-6.7,0-11.3,0.2-15.1,0.4C179.8,228.7,177.6,228.8,175.4,228.8"/>
<path class="st3" d="M389.9,149.8c-3.6-0.1-7.2,0.9-10.2,2.9c-7.4,4.5-11.2,13.5-11.2,26.8c0,24.8,12.4,42.1,30.2,42.1
	c4.8,0.2,9.4-1.5,13-4.6c5.5-4.4,8.4-13.6,8.4-26.3C420,166.2,407.9,149.8,389.9,149.8 M393.3,230.7c-32.1,0-43.5-23.6-43.5-45.6
	c0-15.4,6.3-27.4,18.7-35.8c8.7-5.4,18.7-8.3,28.9-8.5c24.5,0,41.6,17.6,41.6,42.8c0,17.1-6.8,30.7-19.8,39.1
	C413,226.6,402.2,230.7,393.3,230.7"/>
<path class="st3" d="M716.7,149.8c-3.6-0.1-7.2,0.9-10.2,2.9c-7.4,4.5-11.2,13.5-11.2,26.8c0,24.8,12.4,42.1,30.2,42.1
	c4.8,0.2,9.4-1.5,13.1-4.6c5.5-4.4,8.3-13.6,8.3-26.3C746.8,166.2,734.7,149.8,716.7,149.8 M720.1,230.7
	c-32.1,0-43.5-23.6-43.5-45.6c0-15.4,6.3-27.4,18.7-35.8c8.7-5.4,18.7-8.3,28.9-8.5c24.5,0,41.6,17.6,41.6,42.8
	c0,17.2-6.8,30.7-19.8,39.1C739.8,226.6,729,230.7,720.1,230.7"/>
<path class="st3" d="M608.6,149c-9.9,0-16.3,7.8-16.3,19.9s5.5,26.5,21,26.5c2.7,0,7.5-1.2,9.9-3.8c3.6-3.3,6-10.1,6-17.4
	C629.2,158.4,621.5,149,608.6,149 M607.4,232.4c-2.8,0-5.5,0.7-8,2c-7.8,5-11.5,10-11.5,15.8c0,5.4,2.1,9.8,6.7,13.6
	c5.5,4.7,12.9,6.9,22.7,6.9c19.2,0,27.8-10.3,27.8-20.5c0-7.1-3.6-11.9-10.9-14.6C628.4,233.5,619,232.4,607.4,232.4 M608.7,281.4
	c-11.5,0-19.8-2.4-26.9-7.9c-6.9-5.3-10-13.2-10-18.7c0.1-3.5,1.4-6.9,3.8-9.5c2-2.3,6.7-6.6,17.4-13.9c0.3-0.1,0.6-0.5,0.6-0.9
	c0-0.4-0.3-0.8-0.7-0.9c-8.8-3.4-11.5-9-12.3-12c0-0.1,0-0.3-0.1-0.5c-0.2-1.2-0.5-2.3,1.1-3.4c1.2-0.9,3.2-2.1,5.3-3.3
	c3-1.7,5.9-3.5,8.6-5.6c0.5-0.6,0.5-1.5-0.1-2c-0.1-0.1-0.2-0.2-0.3-0.2c-13.1-4.4-19.7-14.1-19.7-29c-0.1-9.4,4.4-18.3,12.1-23.7
	c5.3-4.2,18.5-9.2,27.1-9.2h0.5c8.8,0.2,13.8,2.1,20.7,4.6c3.9,1.4,8.1,2.1,12.2,1.9c7.3,0,10.5-2.3,13.2-5c0.4,1.2,0.7,2.5,0.7,3.8
	c0.2,3.1-0.7,6.1-2.4,8.7c-1.5,2.1-5,3.6-8.2,3.6c-0.3,0-0.7,0-1-0.1c-1.7-0.1-3.4-0.4-5-0.8l-0.8,0.3c-0.3,0.4-0.1,0.8,0.1,1.3
	c0.1,0.1,0.1,0.2,0.1,0.3c0.6,2.7,1,5.4,1.2,8.1c0,15.6-6.1,22.3-12.8,27.3c-6.4,4.8-14,7.8-22,8.5l0,0c-0.2,0-1,0.1-2.6,0.2
	c-1,0.1-2.3,0.2-2.5,0.2h-0.2c-1.4,0.4-5.2,2.2-5.2,5.5c0,2.8,1.7,6.2,9.8,6.8l5.3,0.4c10.7,0.8,24.1,1.7,30.4,3.8
	c8.6,3,14.2,11.2,14.1,20.3c0,13.9-9.9,27.1-26.5,35.1c-7.8,3.7-16.4,5.7-25.1,5.6"/>
<path class="st3" d="M559.5,221.4c-4.7-0.6-8.1-1.3-12.2-3.2c-0.8-0.8-1.3-1.9-1.5-3c-0.4-6.6-0.4-25.6-0.4-38c0-10.1-1.7-19-6-25.4
	c-5.1-7.2-12.4-11.4-21.8-11.4c-8.3,0-19.4,5.7-28.6,13.5c-0.2,0.2-1.6,1.6-1.6-0.5s0.4-6.3,0.5-9c0.2-1.5-0.3-2.9-1.4-3.9
	c-6,3-22.8,7-29.1,7.6c-4.5,0.9-5.7,5.2-0.8,6.8h0.1c3.9,1.1,7.6,2.7,11,4.8c1.9,1.5,1.7,3.6,1.7,5.3c0.2,14.1,0.2,35.9-0.4,47.7
	c-0.2,4.6-1.5,6.3-4.9,7.2l0.3-0.1c-2.6,0.7-5.2,1.1-7.9,1.5c-1.1,1.1-1.1,7.2,0,8.4c2.1,0,13-0.6,22-0.6c12.4,0,18.8,0.6,22,0.6
	c1.3-1.5,1.7-7.2,0.9-8.4c-3-0.1-5.9-0.6-8.8-1.3c-3.4-0.8-4.3-2.5-4.5-6.3c-0.4-9.9-0.4-31.1-0.4-45.4c0-4,1.1-5.9,2.3-7
	c4.3-3.8,11.3-6.3,17.5-6.3c6,0,10,1.9,13,4.4c3.5,3,5.7,7.3,6.1,11.9c0.8,8,0.6,24.1,0.6,38c0,7.6-0.6,9.5-3.4,10.4
	c-1.3,0.6-4.7,1.3-8.8,1.7c-1.3,1.3-0.9,7.2,0,8.4c5.5,0,12-0.6,21.4-0.6c11.8,0,19.2,0.6,22.2,0.6
	C560,228.3,560.4,222.8,559.5,221.4"/>
</svg>
