<?xml version="1.0" encoding="utf-8"?>
<!-- Generator: Adobe Illustrator 16.0.3, SVG Export Plug-In . SVG Version: 6.00 Build 0)  -->
<!DOCTYPE svg PUBLIC "-//W3C//DTD SVG 1.1//EN" "http://www.w3.org/Graphics/SVG/1.1/DTD/svg11.dtd">
<svg version="1.1" id="Layer_1" xmlns="http://www.w3.org/2000/svg" xmlns:xlink="http://www.w3.org/1999/xlink" x="0px" y="0px"
	 width="105.821px" height="40.884px" viewBox="7.09 5.043 105.821 40.884" enable-background="new 7.09 5.043 105.821 40.884"
	 xml:space="preserve">
<path fill="#599636" d="M16.147,5.154l1.09,2.05c0.237,0.37,0.514,0.713,0.824,1.024c0.913,0.913,1.782,1.87,2.56,2.895
	c1.848,2.427,3.095,5.122,3.986,8.04c0.534,1.782,0.824,3.608,0.846,5.456c0.09,5.523-1.804,10.266-5.634,14.208
	c-0.621,0.624-1.291,1.198-2.004,1.715c-0.38,0-0.557-0.3-0.713-0.558c-0.3-0.5-0.468-1.047-0.557-1.603
	c-0.134-0.668-0.223-1.336-0.178-2.026v-0.313c-0.022-0.066-0.356-30.732-0.223-30.888L16.147,5.154z"/>
<path fill="#6CAC48" d="M16.147,5.088c-0.045-0.09-0.09-0.022-0.134,0.022c0.022,0.445-0.134,0.846-0.38,1.225
	c-0.267,0.38-0.624,0.668-0.98,0.98c-1.982,1.715-3.54,3.786-4.788,6.102c-1.648,3.118-2.516,6.458-2.76,9.977
	c-0.11,1.27,0.4,5.746,0.802,7.037c1.09,3.43,3.05,6.301,5.6,8.795c0.624,0.601,1.292,1.158,1.982,1.692
	c0.2,0,0.223-0.178,0.267-0.312c0.088-0.285,0.155-0.575,0.2-0.869c0.2-1.113,0.312-2.228,0.445-3.34L16.156,5.088H16.147z"/>
<path fill="#C2BFBF" d="M17.24,41.9c0.045-0.512,0.3-0.936,0.557-1.358c-0.267-0.11-0.468-0.334-0.624-0.58
	c-0.134-0.223-0.245-0.5-0.334-0.735c-0.312-0.935-0.38-1.914-0.468-2.873v-0.58c-0.11,0.09-0.134,0.847-0.134,0.959
	c-0.067,1.023-0.2,2.026-0.4,3.006c-0.067,0.4-0.11,0.802-0.356,1.158c0,0.045,0,0.09,0.022,0.155c0.4,1.181,0.512,2.384,0.58,3.608
	v0.445c0,0.533-0.022,0.422,0.423,0.6c0.178,0.066,0.38,0.09,0.557,0.223c0.134,0,0.156-0.109,0.156-0.199l-0.067-0.735v-2.05
	c-0.022-0.356,0.045-0.713,0.09-1.047L17.24,41.9z"/>
<g transform="matrix(1.021124 0 0 1.021124 -4.376266 -1.845946)">
	<path fill="#47474A" d="M37.73,33.72v2.077c-0.002,0.082,0.002,0.164,0.014,0.247c0.027,0.245,0.178,0.396,0.4,0.465
		c0.208,0.054,0.418,0.096,0.63,0.122c0.123,0.014,0.164,0.069,0.178,0.201c0.014,0.465-0.027,0.519-0.478,0.492
		c-1.052-0.055-2.105-0.068-3.157,0h-0.1c-0.328,0.013-0.355-0.014-0.355-0.342c0-0.055,0.014-0.122,0.014-0.178
		c0-0.099,0.068-0.15,0.164-0.15c0.22-0.027,0.424-0.081,0.63-0.123c0.287-0.067,0.45-0.245,0.478-0.532
		c0.04-0.315,0.04-0.643,0.04-0.958l0.014-3.661c0.01-0.217-0.108-0.419-0.3-0.52c-0.247-0.138-0.509-0.248-0.78-0.328
		c-0.082-0.027-0.164-0.04-0.232-0.082c-0.2-0.096-0.205-0.273-0.014-0.383c0.068-0.04,0.15-0.068,0.232-0.082
		c0.83-0.122,1.644-0.329,2.432-0.615c0.164-0.055,0.205-0.04,0.22,0.123c0.014,0.1,0,0.22-0.014,0.314
		c-0.027,0.178-0.027,0.355-0.027,0.52c0,0.068,0.014,0.137,0.082,0.178c0.068,0.041,0.137,0,0.2-0.04
		c0.287-0.22,0.574-0.424,0.888-0.6c0.45-0.246,0.93-0.465,1.45-0.533c0.63-0.082,1.175,0.082,1.654,0.492
		c0.198,0.177,0.373,0.379,0.519,0.601c0.137,0.2,0.15,0.205,0.328,0.068c0.52-0.383,1.066-0.724,1.654-0.97
		c0.615-0.26,1.244-0.3,1.872-0.082c0.642,0.232,1.08,0.683,1.34,1.298c0.22,0.492,0.314,1,0.314,1.53v3.662
		c0,0.247,0.1,0.4,0.342,0.52c0.26,0.099,0.547,0.15,0.82,0.205c0.178,0.04,0.178,0.04,0.178,0.22
		c-0.027,0.45-0.068,0.478-0.506,0.45c-1.097-0.062-2.196-0.062-3.293,0c-0.22,0.014-0.22,0.014-0.232-0.206v-0.067
		c-0.014-0.371-0.014-0.371,0.342-0.45l0.355-0.097c0.248-0.057,0.423-0.278,0.424-0.533l0.04-1.024l-0.027-2.679
		c-0.011-0.239-0.061-0.474-0.15-0.697c-0.342-0.834-1.093-1.134-1.818-1.052c-0.547,0.055-1.025,0.273-1.476,0.588
		c-0.096,0.068-0.164,0.15-0.15,0.287c0.123,0.875,0.04,1.75,0.055,2.624v1.9c0,0.342,0.137,0.506,0.465,0.587l0.63,0.138
		c0.096,0.013,0.15,0.055,0.15,0.164v0.099c-0.014,0.383-0.04,0.4-0.424,0.396c-1.093-0.055-2.187-0.04-3.266,0
		c-0.37,0.013-0.4-0.027-0.383-0.4c0.014-0.22,0.04-0.232,0.246-0.274l0.45-0.082c0.4-0.081,0.547-0.231,0.574-0.656l0.04-0.915
		l-0.027-2.748c-0.027-0.341-0.1-0.669-0.287-0.984c-0.273-0.506-0.7-0.765-1.285-0.793c-0.588-0.04-1.107,0.178-1.6,0.45
		c-0.342,0.2-0.492,0.437-0.465,0.834v1.995L37.73,33.72z M63.477,33.803v1.927c0.002,0.138,0.011,0.274,0.027,0.41
		c0.012,0.186,0.146,0.342,0.329,0.383c0.235,0.068,0.478,0.109,0.723,0.122c0.138,0.013,0.164,0.068,0.178,0.178v0.096
		c-0.013,0.478-0.067,0.534-0.532,0.507c-1.041-0.069-2.078-0.055-3.117,0l-0.4,0.013c-0.082,0-0.1-0.04-0.123-0.096
		c-0.04-0.189-0.04-0.384,0-0.574c0.014-0.082,0.068-0.1,0.15-0.123c0.2-0.027,0.37-0.068,0.56-0.1
		c0.342-0.082,0.465-0.22,0.478-0.574l0.04-1.148v-3.362c0-0.246-0.096-0.396-0.314-0.506c-0.246-0.137-0.506-0.232-0.78-0.328
		c-0.082-0.027-0.164-0.055-0.232-0.096c-0.178-0.123-0.2-0.3-0.027-0.437c0.077-0.064,0.173-0.102,0.273-0.11
		c0.875-0.137,1.722-0.328,2.542-0.656c0.096-0.04,0.137-0.014,0.178,0.068c0.041,0.082,0.055,0.178,0.04,0.273l-0.04,0.642
		c0,0.082-0.04,0.2,0.027,0.232c0.082,0.055,0.136-0.068,0.205-0.1c0.404-0.339,0.849-0.623,1.326-0.847
		c0.425-0.2,0.861-0.328,1.353-0.3c0.915,0.055,1.571,0.52,1.995,1.326c0.22,0.424,0.315,0.888,0.355,1.367l0.04,1l0.013,3.02
		c0.015,0.231,0.097,0.383,0.329,0.465c0.24,0.08,0.487,0.14,0.738,0.178c0.22,0.027,0.231,0.069,0.245,0.274v0.068
		c-0.027,0.465-0.055,0.477-0.519,0.45c-1.02-0.055-2.042-0.055-3.061,0c-0.137,0.013-0.274,0-0.4,0.013
		c-0.082,0-0.138-0.013-0.15-0.096c-0.027-0.178-0.055-0.356-0.014-0.547c0.014-0.082,0.055-0.123,0.15-0.138l0.63-0.099
		c0.22-0.055,0.342-0.2,0.37-0.4l0.027-0.383l-0.014-2.856c0-0.328-0.013-0.656-0.082-0.984c-0.164-0.7-0.696-1.2-1.419-1.27
		c-0.63-0.068-1.2,0.096-1.721,0.437c-0.26,0.164-0.371,0.396-0.371,0.683v2.064c0-0.039,0-0.039,0.014-0.039L63.477,33.803z"/>
	<path fill="#C2BFBF" d="M103.502,29.935c-0.149-0.998-0.519-1.886-1.161-2.665c-0.56-0.688-1.283-1.224-2.106-1.558
		c-0.859-0.355-1.777-0.465-2.706-0.492c-0.383-0.014-5.603,0.068-5.986,0c-0.096-0.014-0.164,0.014-0.22,0.096
		c-0.068,0.1-0.138,0.205-0.178,0.314c-0.164,0.37-0.164,0.342,0.231,0.396c0.329,0.055,0.643,0.082,0.957,0.178
		c0.287,0.096,0.493,0.26,0.559,0.574c0.028,0.15,0.055,4.96,0.055,7.202l-0.055,1.601c-0.013,0.122-0.027,0.245-0.067,0.354
		c-0.055,0.164-0.151,0.3-0.315,0.371c-0.181,0.084-0.375,0.136-0.574,0.149c-0.37,0.04-0.424,0.055-0.547,0.465l-0.04,0.151
		c-0.027,0.178-0.014,0.205,0.164,0.205l4.087,0.04l1.6-0.028l1.107-0.137c1.257-0.231,2.378-0.752,3.334-1.586
		c0.546-0.482,0.992-1.067,1.312-1.721c0.383-0.765,0.547-1.6,0.587-2.446c0.069-0.478,0.04-0.97-0.04-1.462V29.935z
		 M101.521,31.875c-0.055,0.875-0.231,1.722-0.683,2.488c-0.574,0.997-1.394,1.695-2.529,1.939c-0.492,0.1-0.983,0.15-1.5,0.082
		c-0.369-0.04-0.724-0.082-1.065-0.205c-0.616-0.22-0.834-0.601-0.847-1.2l-0.013-8.24c0-0.492,0.22-0.6,0.574-0.615
		c0.533-0.04,1.08-0.027,1.612,0.027c0.568,0.055,1.125,0.189,1.655,0.4c0.393,0.164,0.757,0.39,1.08,0.67
		c0.737,0.63,1.23,1.42,1.501,2.35c0.22,0.752,0.259,1.517,0.22,2.282L101.521,31.875z M114.861,33.215c0-0.082,0-0.149-0.014-0.231
		c-0.122-0.752-0.52-1.326-1.134-1.763c-0.396-0.287-0.846-0.478-1.312-0.615c-0.081-0.027-0.149-0.055-0.231-0.068
		c0.013-0.068,0.055-0.082,0.096-0.096c0.274-0.137,0.534-0.287,0.765-0.492c0.425-0.355,0.7-0.793,0.847-1.326
		c0.082-0.287,0.082-0.574,0.055-0.875c-0.046-0.713-0.413-1.367-0.998-1.777c-0.63-0.465-1.368-0.656-2.133-0.67
		c-1.475-0.027-2.965,0-4.439,0c-0.425,0-0.847,0.027-1.285-0.04c-0.082-0.014-0.199-0.04-0.26,0.055
		c-0.099,0.178-0.22,0.355-0.26,0.56c-0.013,0.096,0.015,0.15,0.124,0.164l0.943,0.137c0.369,0.055,0.629,0.26,0.656,0.588
		c0.027,0.227,0.04,0.455,0.039,0.683l-0.027,2.555l-0.014,5.055c0,0.3-0.04,0.589-0.096,0.888c-0.028,0.194-0.166,0.355-0.356,0.41
		c-0.273,0.082-0.532,0.164-0.82,0.164c-0.158-0.014-0.305,0.081-0.355,0.232c-0.055,0.122-0.099,0.26-0.122,0.383
		c-0.028,0.164,0.013,0.22,0.178,0.201c0.122-0.014,4.633,0.096,5.48,0.013c0.505-0.055,0.999-0.122,1.502-0.274
		c0.86-0.273,1.654-0.669,2.283-1.339c0.519-0.547,0.819-1.203,0.846-1.968c0.04-0.178,0.04-0.356,0.04-0.547L114.861,33.215z
		 M108.233,27.615l0.04-1.093c0-0.205,0.082-0.3,0.287-0.342c0.329-0.068,0.656-0.04,0.985-0.027
		c0.327,0.027,0.641,0.068,0.97,0.164c0.6,0.178,1.065,0.52,1.339,1.093c0.124,0.261,0.19,0.545,0.191,0.834
		c0.014,0.383-0.013,0.752-0.164,1.12c-0.232,0.506-0.6,0.834-1.134,0.93c-0.534,0.096-2.049,0.055-2.282,0.055
		c-0.206,0-0.22-0.027-0.22-0.232V28.83c-0.032-0.4-0.037-0.802-0.014-1.203L108.233,27.615z M112.673,34.967
		c-0.232,0.616-0.656,1.041-1.258,1.27c-0.327,0.123-0.655,0.201-0.999,0.178c-0.424-0.013-0.846,0-1.27-0.082
		c-0.574-0.122-0.834-0.669-0.875-1.065c-0.068-0.697-0.027-1.408-0.04-1.927v-1.804c0-0.22,0.027-0.287,0.26-0.287l1.285,0.014
		l0.875,0.1c0.615,0.137,1.175,0.37,1.613,0.847c0.354,0.383,0.547,0.846,0.587,1.352c0.04,0.478,0.014,0.943-0.164,1.394
		L112.673,34.967z"/>
	<path fill="#47474A" d="M77.95,30.85l0.355,0.055c0.383,0.014,0.834-0.123,0.97-0.656c0.076-0.254,0.076-0.526,0-0.78
		c-0.081,0-0.123,0.068-0.164,0.096c-0.205,0.164-0.438,0.26-0.683,0.287c-0.493,0.055-0.985,0.027-1.463-0.15l-0.669-0.232
		c-0.467-0.153-0.958-0.218-1.45-0.19c-0.697,0.055-1.352,0.287-1.968,0.615c-0.656,0.355-1.12,0.888-1.34,1.613
		c-0.123,0.424-0.137,0.86-0.081,1.298c0.136,0.997,0.655,1.695,1.584,2.064c0.055,0.014,0.097,0.04,0.151,0.055
		c0.122,0.069,0.136,0.138,0.027,0.232l-0.342,0.232l-0.821,0.505c-0.205,0.124-0.231,0.22-0.164,0.438
		c0.081,0.254,0.232,0.482,0.437,0.656c0.187,0.161,0.4,0.29,0.629,0.383c0.149,0.068,0.149,0.099,0.013,0.22l-0.779,0.56
		c-0.26,0.2-0.52,0.4-0.738,0.656c-0.307,0.329-0.431,0.79-0.328,1.23c0.101,0.474,0.35,0.905,0.71,1.23
		c0.356,0.329,0.788,0.564,1.258,0.683c0.765,0.22,1.558,0.231,2.336,0.082c1.121-0.205,2.1-0.7,2.871-1.545
		c0.533-0.559,0.847-1.216,0.874-2c0.062-0.936-0.562-1.78-1.476-1.995l-0.737-0.138l-2.255-0.199
		c-0.247-0.014-0.493-0.055-0.697-0.178c-0.26-0.164-0.328-0.478-0.164-0.683c0.122-0.151,0.273-0.247,0.465-0.26l0.436-0.04
		c0.865-0.088,1.676-0.458,2.31-1.052c0.338-0.314,0.581-0.717,0.697-1.163c0.164-0.587,0.164-1.199,0.027-1.799
		c-0.04-0.15-0.027-0.164,0.164-0.137L77.95,30.85z M74.6,37.657c0.081,0.014,0.164,0,0.246,0c0.574,0.028,1.162,0.068,1.721,0.22
		c0.184,0.055,0.361,0.123,0.534,0.206c0.547,0.299,0.752,0.82,0.683,1.379c-0.082,0.616-0.425,1.052-0.956,1.341
		c-0.356,0.199-0.753,0.287-1.163,0.327c-0.149,0.014-0.287,0-0.436,0c-0.478,0.014-0.943-0.04-1.394-0.231
		c-0.314-0.122-0.574-0.3-0.806-0.547c-0.478-0.478-0.7-1.352,0.014-2.064C73.478,37.887,73.972,37.604,74.6,37.657L74.6,37.657z
		 M76.158,33.393c-0.287,0.725-0.916,0.943-1.544,0.847c-0.575-0.082-0.998-0.396-1.27-0.916c-0.356-0.696-0.45-1.419-0.247-2.173
		c0.15-0.56,0.492-0.984,1.093-1.08c0.765-0.137,1.501,0.137,1.886,0.902c0.2,0.37,0.288,0.821,0.288,1.462
		C76.349,32.694,76.296,33.05,76.158,33.393L76.158,33.393z M58.94,32.463c-0.123-0.738-0.396-1.408-0.902-1.968
		c-0.752-0.834-1.708-1.2-2.788-1.203c-0.943-0.014-1.83,0.26-2.624,0.752c-0.78,0.467-1.353,1.216-1.599,2.091
		c-0.232,0.793-0.22,1.6-0.04,2.405c0.478,2.159,2.146,3.088,4.14,2.951c0.588-0.04,1.148-0.231,1.68-0.492
		c0.793-0.37,1.367-0.956,1.763-1.736c0.314-0.642,0.45-1.326,0.437-2.105L58.94,32.463L58.94,32.463z M57,35.497
		c-0.199,0.629-0.752,1.079-1.408,1.149c-0.6,0.081-1.162-0.068-1.667-0.424c-0.365-0.269-0.66-0.62-0.861-1.025
		c-0.56-1.148-0.656-2.351-0.37-3.58c0.092-0.381,0.291-0.727,0.574-0.998c0.506-0.465,1.093-0.574,1.75-0.437
		c0.63,0.137,1.107,0.478,1.5,0.998c0.393,0.52,0.574,1.119,0.683,1.751c0.055,0.314,0.055,0.641,0.068,0.846
		c0,0.656-0.055,1.2-0.26,1.722L57,35.497z M88.799,32.573c-0.099-0.793-0.396-1.517-0.956-2.118
		c-0.738-0.806-1.695-1.148-2.76-1.162c-0.916-0.014-1.764,0.246-2.542,0.697c-0.875,0.52-1.476,1.257-1.708,2.255
		c-0.277,1.088-0.161,2.241,0.328,3.252c0.45,0.957,1.216,1.572,2.228,1.846c1.12,0.3,2.187,0.164,3.225-0.342
		c0.902-0.437,1.545-1.12,1.914-2.05c0.22-0.547,0.299-1.133,0.314-1.817c0.013-0.123-0.014-0.342-0.04-0.56L88.799,32.573z
		 M86.913,35.321c-0.22,0.737-0.683,1.216-1.461,1.326c-0.574,0.082-1.12-0.055-1.612-0.383c-0.425-0.287-0.725-0.67-0.943-1.121
		c-0.247-0.478-0.383-0.983-0.438-1.502c-0.082-0.642-0.082-1.27,0.069-1.914c0.029-0.126,0.069-0.25,0.122-0.369
		c0.383-0.957,1.23-1.394,2.228-1.175c0.669,0.15,1.174,0.52,1.558,1.08c0.37,0.547,0.547,1.148,0.63,1.8
		c0.04,0.26,0.055,0.533,0.04,0.765c0,0.532-0.04,1.024-0.201,1.502L86.913,35.321z"/>
</g>
</svg>
