<?xml version="1.0" encoding="utf-8"?>
<!-- Generator: Adobe Illustrator 16.0.3, SVG Export Plug-In . SVG Version: 6.00 Build 0)  -->
<!DOCTYPE svg PUBLIC "-//W3C//DTD SVG 1.1//EN" "http://www.w3.org/Graphics/SVG/1.1/DTD/svg11.dtd">
<svg version="1.1" id="Layer_1" xmlns="http://www.w3.org/2000/svg" xmlns:xlink="http://www.w3.org/1999/xlink" x="0px" y="0px"
	 width="110.531px" height="23.852px" viewBox="4.724 18.072 110.531 23.852" enable-background="new 4.724 18.072 110.531 23.852"
	 xml:space="preserve">
<path fill="#4B4B4B" d="M115.178,38.866c-0.209,0.062-0.425,0.095-0.643,0.098c-0.717,0-1.053-0.303-1.053-1.19v-6.699
	c0-3.533-2.819-5.23-6.114-5.23c-2.5,0-3.9,0.307-6.601,1.392l-0.619,3.536l3.533,0.373l0.508-1.731
	c0.715-0.373,1.424-0.442,2.346-0.442c2.477,0,2.5,1.867,2.5,3.464v0.512c-0.833-0.101-1.672-0.146-2.51-0.139
	c-3.537,0-7.17,0.883-7.17,4.691c0,3.23,2.514,4.418,4.752,4.418c2.479,0,4.078-1.494,4.966-3.09c0.204,1.867,1.325,3.09,3.397,3.09
	c0.971-0.016,1.926-0.259,2.784-0.712L115.178,38.866z M105.7,38.762c-1.327,0-1.802-0.781-1.802-1.76
	c0-1.666,1.359-2.107,2.955-2.107c0.74,0.018,1.478,0.086,2.207,0.205c-0.14,2.541-1.806,3.662-3.367,3.662H105.7z M99.779,18.072
	l-6.661,23.5h-4.347l6.66-23.5h4.353H99.779z M90.811,18.072l-6.66,23.5h-4.348l6.659-23.5H90.811z M72.3,26.16h4.62v5.538H72.3
	V26.16z M72.3,36.046h4.62v5.54H72.3V36.046z M65.573,35.852l3.5,0.34l-0.954,5.402H54.63l-0.446-2.32l8.494-9.75H57.86l-0.68,2.38
	l-3.192-0.34l0.543-5.403h13.552l0.344,2.31l-8.565,9.75h4.996L65.573,35.852z M43.49,25.856c-5.53,0-8.287,3.738-8.287,8.248
	c0,4.929,3.296,7.82,8.052,7.82c4.924,0,8.494-3.128,8.494-8.052c-0.04-4.28-2.725-8.015-8.26-8.015L43.49,25.856z M43.388,38.525
	c-2.38,0-3.636-2.034-3.636-4.719c0-2.924,1.396-4.589,3.667-4.589c2.072,0,3.77,1.396,3.77,4.521
	C47.156,36.691,45.662,38.525,43.388,38.525L43.388,38.525z M31.224,38.219h2.043v3.364h-6.45v-8.696
	c0-2.682-0.884-3.705-2.616-3.705c-2.107,0-2.99,1.494-2.99,3.667v5.357h2.03v3.363h-6.45v-8.699c0-2.682-0.884-3.705-2.65-3.705
	c-2.107,0-2.99,1.494-2.99,3.667v5.362h2.958v3.363H4.724V38.21H6.76v-8.727H4.724V26.12h6.45v2.315
	c0.92-1.634,2.518-2.62,4.692-2.62c2.207,0,4.28,1.052,5.028,3.323c0.848-2.035,2.582-3.323,5.028-3.323
	c2.788,0,5.298,1.666,5.298,5.335v7.07L31.224,38.219z"/>
</svg>
