<?xml version="1.0" encoding="utf-8"?>
<!-- Generator: Adobe Illustrator 16.0.3, SVG Export Plug-In . SVG Version: 6.00 Build 0)  -->
<!DOCTYPE svg PUBLIC "-//W3C//DTD SVG 1.1//EN" "http://www.w3.org/Graphics/SVG/1.1/DTD/svg11.dtd">
<svg version="1.1" id="Layer_1" xmlns="http://www.w3.org/2000/svg" xmlns:xlink="http://www.w3.org/1999/xlink" x="0px" y="0px"
	 width="106.015px" height="47.635px" viewBox="5.67 6.183 106.015 47.635" enable-background="new 5.67 6.183 106.015 47.635"
	 xml:space="preserve">
<g transform="matrix(.237004 0 0 .237004 5.369548 -9.353936)">
	<path fill="#008DC2" d="M159.799,157.349c0,43.78-35.485,79.265-79.265,79.265S1.269,201.129,1.269,157.349
		c0-43.78,35.485-79.265,79.265-79.265c43.78-0.039,79.267,35.485,79.267,79.265"/>
	<g>
		<g>
			<path id="B" fill="#FFFFFF" d="M36.411,131.349c0,3.496-2.843,6.337-6.337,6.337c-3.496,0-6.337-2.841-6.337-6.337
				c0-3.494,2.841-6.337,6.337-6.337c3.49-0.008,6.327,2.814,6.337,6.304C36.411,131.327,36.411,131.339,36.411,131.349"/>
		</g>
		<g>
			<path id="B_1_" fill="#FFFFFF" d="M37.484,148.748c0,3.494-2.841,6.335-6.335,6.335c-3.496,0-6.337-2.841-6.337-6.335
				c0-3.496,2.841-6.337,6.337-6.337c3.49-0.01,6.327,2.812,6.335,6.302C37.484,148.725,37.484,148.735,37.484,148.748"/>
		</g>
		<path fill="#FFFFFF" d="M41.363,167.181c0,3.494-2.843,6.337-6.337,6.337s-6.337-2.843-6.337-6.337
			c0-3.496,2.843-6.337,6.337-6.337C38.522,160.804,41.363,163.647,41.363,167.181 M50.043,183.691c0,3.498-2.843,6.337-6.337,6.337
			s-6.337-2.839-6.337-6.337c0-3.494,2.843-6.337,6.337-6.337C47.2,177.321,50.043,180.16,50.043,183.691"/>
		<g>
			<path id="C" fill="#FFFFFF" d="M117.903,206.774c0,3.494-2.843,6.337-6.337,6.337c-3.496,0-6.337-2.843-6.337-6.337
				s2.841-6.337,6.337-6.337C115.06,200.437,117.903,203.28,117.903,206.774"/>
		</g>
		<path fill="#FFFFFF" d="M129.424,193.14c0,3.498-2.843,6.337-6.337,6.337c-3.496,0-6.337-2.839-6.337-6.337
			c0-3.494,2.841-6.337,6.337-6.337C126.581,186.802,129.424,189.645,129.424,193.14"/>
		<g>
			<path id="C_1_" fill="#FFFFFF" d="M96.013,96.748c0,3.496-2.843,6.337-6.337,6.337c-3.496,0-6.337-2.841-6.337-6.337
				c0-3.494,2.841-6.337,6.337-6.337C93.17,90.411,96.013,93.254,96.013,96.748"/>
		</g>
		<path fill="#FFFFFF" d="M79.346,90.899c0,3.496-2.843,6.337-6.337,6.337c-3.496,0-6.339-2.831-6.339-6.337
			c0-3.504,2.843-6.335,6.337-6.335c3.496,0,6.337,2.843,6.337,6.335"/>
	</g>
	<g>
		<circle fill="#68B346" stroke="#FFFFFF" stroke-width="3.5" cx="124.277" cy="138.455" r="42.245"/>
		<circle fill="#68B346" stroke="#FFFFFF" stroke-width="3.5" cx="66.403" cy="224.593" r="34.564"/>
		<circle fill="#68B346" stroke="#FFFFFF" stroke-width="3.5" cx="37.946" cy="95.979" r="23.042"/>
	</g>
</g>
<path fill="#101010" d="M49.62,22.72h1.35v2.62c0.648-1.593,2-2.836,4.753-2.836c3.133,0,5.24,2.107,5.24,5.43v8.4h-1.35v-8.13
	c0-2.728-1.674-4.43-4.186-4.43c-2.728,0-4.456,2.107-4.456,5.24v7.32h-1.35L49.62,22.72L49.62,22.72z M63.368,29.554
	c0-4.24,2.899-7.157,6.644-7.157c3.7,0,6.32,3.052,6.32,6.78l-0.027,0.675H64.7c0.079,3.268,2.271,5.6,5.375,5.6
	c2.54,0,4.294-1.08,5.104-2.107v1.593c-1.271,1.135-2.801,1.783-5.104,1.783c-3.916,0-6.698-2.863-6.698-7.076v-0.08L63.368,29.554z
	 M74.9,28.636c-0.026-2.782-2.188-4.97-4.887-4.97c-2.837,0-5.16,2.188-5.268,4.97H74.9z M85.596,22.37
	c3.997,0,7.157,3.052,7.157,7.157s-3.16,7.157-7.157,7.157c-3.996,0-7.156-3.052-7.156-7.157S81.6,22.37,85.596,22.37z
	 M85.596,35.415c3.322,0,5.807-2.54,5.807-5.888c0-3.348-2.484-5.888-5.807-5.888s-5.807,2.54-5.807,5.888
	C79.789,32.875,82.273,35.415,85.596,35.415z M99.883,22.72h1.512l-5.779,12.316h8.4V30.58h1.403v10.965h-1.403v-5.213H93.482
	L99.883,22.72z M110.038,22.72h1.351v15.503c0,3.053-1.757,3.674-3.457,3.674c-0.324,0-0.676-0.027-0.9-0.08v-1.271
	c0.324,0.054,0.701,0.08,1.025,0.08c1.377,0,1.973-0.675,1.973-2.403L110.038,22.72z M109.741,19.074
	c0-0.567,0.46-0.972,0.972-0.972s0.973,0.405,0.973,0.972c0,0.54-0.461,0.945-0.973,0.945S109.741,19.614,109.741,19.074z"/>
</svg>
