<?xml version="1.0" encoding="utf-8"?>
<!-- Generator: Adobe Illustrator 27.3.1, SVG Export Plug-In . SVG Version: 6.00 Build 0)  -->
<svg version="1.1" id="Layer_1" xmlns="http://www.w3.org/2000/svg" xmlns:xlink="http://www.w3.org/1999/xlink" x="0px" y="0px"
	 viewBox="0 0 108.6 35.9" style="enable-background:new 0 0 108.6 35.9;" xml:space="preserve">
<style type="text/css">
	.st0{fill:#FFFFFF;}
	.st1{fill:#018BFF;}
</style>
<path class="st0" d="M20.2,7.5c-5.9,0-9.9,3.4-9.9,10.1v4.1c0.6-0.3,1.3-0.4,1.9-0.5c0.7,0,1.3,0.1,1.9,0.5v-4.1
	c0-4.3,2.4-6.6,6-6.6s6,2.3,6,6.6v10.5h3.9V17.6C30.1,10.9,26.1,7.5,20.2,7.5"/>
<path class="st0" d="M32.2,18.1c0-6.1,4.4-10.6,10.8-10.6S53.7,12,53.7,18.1v1.4H36.3c0.5,3.3,3.4,5.7,6.7,5.6
	c2.6,0,4.4-0.8,5.6-2.5h4.2c-1.6,3.8-5.2,6.1-9.9,6.1C36.7,28.7,32.2,24.2,32.2,18.1 M49.7,16.1c-0.7-3.1-3.6-5.2-6.7-5
	c-3.1-0.2-5.9,1.9-6.6,5H49.7z"/>
<path class="st0" d="M55.8,18.1c0-6.1,4.5-10.6,10.8-10.6c5.7-0.2,10.6,4.2,10.8,10c0,0.2,0,0.4,0,0.6c0,6.1-4.4,10.6-10.8,10.6
	S55.8,24.2,55.8,18.1 M73.4,18.1c0.2-3.6-2.6-6.7-6.2-6.9c-0.3,0-0.5,0-0.8,0c-3.7-0.1-6.8,2.7-6.9,6.4c0,0.2,0,0.3,0,0.5
	c-0.2,3.6,2.6,6.7,6.2,6.9c0.3,0,0.5,0,0.8,0C70.7,25.1,73.4,22.2,73.4,18.1"/>
<path class="st0" d="M99.5,32.2h0.5c2.5,0,3.4-1.1,3.4-4V8.9h3.9V28c0,5-1.9,7.5-6.9,7.5h-0.8V32.2z"/>
<path class="st0" d="M97.6,30h-3.9v-4.8h-9.8c-1.8,0.1-3.6-0.9-4.4-2.5c-0.7-1.5-0.5-3.3,0.6-4.6l8.7-11.5C90,5,92.3,4.3,94.3,5
	c2,0.6,3.3,2.5,3.3,4.6v12.3h2.3v3.4h-2.3V30z M83.3,20.4c-0.1,0.2-0.2,0.4-0.2,0.6c0,0.6,0.4,1,1,1h9.7V9.6c0-0.7-0.4-0.9-0.7-0.9
	h-0.3c-0.3,0-0.6,0.2-0.8,0.5L83.3,20.4z"/>
<path class="st1" d="M105.3,0c-1.8,0-3.3,1.5-3.3,3.3s1.5,3.3,3.3,3.3s3.3-1.5,3.3-3.3S107.1,0,105.3,0C105.3,0,105.3,0,105.3,0"/>
<path class="st1" d="M12.1,23.2c-0.7,0-1.4,0.2-1.9,0.7l-3.6-2.4c0.1-0.3,0.1-0.6,0.1-0.9c0-1.8-1.5-3.3-3.3-3.3S0,18.7,0,20.6
	c0,1.8,1.5,3.3,3.3,3.3c0,0,0,0,0,0c0.7,0,1.4-0.2,1.9-0.7l3.6,2.5c-0.1,0.3-0.1,0.6-0.1,0.9c0,0.3,0,0.6,0.1,0.9L5.2,30
	c-0.5-0.4-1.2-0.7-1.9-0.7c-1.8,0-3.3,1.5-3.3,3.3s1.5,3.3,3.3,3.3s3.3-1.5,3.3-3.3l0,0c0-0.3,0-0.6-0.1-0.9l3.6-2.5
	c0.5,0.4,1.2,0.7,1.9,0.7c1.8,0,3.3-1.5,3.3-3.3c0,0,0,0,0,0C15.4,24.8,13.9,23.3,12.1,23.2"/>
</svg>
