<?xml version="1.0" encoding="utf-8"?>
<!-- Generator: Adobe Illustrator 16.0.3, SVG Export Plug-In . SVG Version: 6.00 Build 0)  -->
<!DOCTYPE svg PUBLIC "-//W3C//DTD SVG 1.1//EN" "http://www.w3.org/Graphics/SVG/1.1/DTD/svg11.dtd">
<svg version="1.1" id="Layer_1" xmlns="http://www.w3.org/2000/svg" xmlns:xlink="http://www.w3.org/1999/xlink" x="0px" y="0px"
	 width="143.814px" height="39.001px" viewBox="4.957 6.479 143.814 39.001" enable-background="new 4.957 6.479 143.814 39.001"
	 xml:space="preserve">
<title>netflix</title>
<path fill="#E51E26" d="M127.723,43.002c2.004,0.193,4.004,0.402,6.002,0.618l4.409-10.884l4.19,11.887
	c2.152,0.27,4.3,0.552,6.443,0.848l-7.347-20.847l7.351-18.145h-6.226l-0.063,0.089l-3.971,9.802l-3.486-9.89h-6.146l6.347,18
	L127.723,43.002z M123.073,42.576V6.48h-6.146v35.59C118.979,42.227,121.027,42.396,123.073,42.576 M76.919,40.557
	c1.66,0,3.315,0.012,4.97,0.025v-13.26h7.381v-5.648h-7.381v-9.542h8.5V6.479H75.719v34.082
	C76.119,40.561,76.519,40.557,76.919,40.557 M57.842,40.902c2.047-0.074,4.096-0.135,6.148-0.186V12.134h5.742V6.48H52.099v5.653
	h5.743V40.902z M10.853,44.708V23.204l7.275,20.637c2.236-0.252,4.478-0.487,6.724-0.71V6.479h-5.895v22.276L11.107,6.48h-6.15v39
	h0.038C6.946,45.211,8.899,44.954,10.853,44.708 M46.175,12.133V6.479h-14.67v36.039c4.868-0.42,9.753-0.773,14.658-1.061V35.8
	c-2.836,0.165-5.666,0.356-8.49,0.566v-9.042h7.382v-5.65h-7.382v-9.54L46.175,12.133L46.175,12.133z M102.566,35.529V6.479h-6.17
	v34.443c4.908,0.18,9.797,0.432,14.67,0.747v-5.661C108.234,35.826,105.401,35.666,102.566,35.529"/>
</svg>
