<?xml version="1.0" encoding="utf-8"?>
<!-- Generator: Adobe Illustrator 16.0.3, SVG Export Plug-In . SVG Version: 6.00 Build 0)  -->
<!DOCTYPE svg PUBLIC "-//W3C//DTD SVG 1.1//EN" "http://www.w3.org/Graphics/SVG/1.1/DTD/svg11.dtd">
<svg version="1.1" id="katman_1" xmlns="http://www.w3.org/2000/svg" xmlns:xlink="http://www.w3.org/1999/xlink" x="0px" y="0px"
	 width="235.356px" height="45.682px" viewBox="32.251 127.045 235.356 45.682"
	 enable-background="new 32.251 127.045 235.356 45.682" xml:space="preserve">
<g>
	<g>
		<defs>
			<rect id="SVGID_1_" x="32.251" y="127.045" width="235.356" height="45.682"/>
		</defs>
		<clipPath id="SVGID_2_">
			<use xlink:href="#SVGID_1_"  overflow="visible"/>
		</clipPath>
		<g clip-path="url(#SVGID_2_)">
			<path fill="#13AA6A" d="M64.206,142.86v14.056l-12.171,7.027v8.784l19.783-11.42v-22.842L64.206,142.86z"/>
			<path fill="#62B775" d="M52.035,135.834l12.171,7.025l7.612-4.395l-19.783-11.42l-19.783,11.42l7.61,4.395L52.035,135.834z"/>
			<path d="M44.425,154.282v14.056l7.61,4.393v-22.84l-19.783-11.423v8.787L44.425,154.282z"/>
			<path d="M98.972,138.435c-4.258,0-6.277,2.689-6.277,2.689h-0.224l-0.446-2.243h-5.158v22.863h5.604v-13.217
				c0-2.913,2.011-4.932,4.931-4.932c2.921,0,4.932,2.011,4.932,4.932v13.219h5.604v-13.672
				C107.938,142.245,104.127,138.435,98.972,138.435z"/>
			<path d="M159.405,153.902h-0.323l-3.809-15.019h-5.703l-3.81,15.019h-0.32l-3.813-15.019h-5.829l5.829,22.862h6.826l3.808-14.794
				h0.322l3.811,14.794h6.82l5.829-22.862h-5.829L159.405,153.902z"/>
			<path d="M186.201,140.899h-0.225l-0.448-2.011h-4.707v22.859h5.604V148.53c0-2.913,1.346-4.259,4.261-4.259h2.872v-5.385h-3.333
				c-0.778,0.002-1.55,0.184-2.247,0.534C187.277,139.771,186.67,140.277,186.201,140.899L186.201,140.899z"/>
			<path d="M205.957,138.435c-6.721,0-11.652,4.932-11.652,11.881c0,6.949,4.652,11.881,11.652,11.881
				c5.67,0,9.084-3.336,10.508-5.791l-5.146-1.834c-0.509,0.93-2.561,2.721-5.362,2.721c-3.269,0-5.602-2.045-6.048-5.172h17.032
				c0.156-0.736,0.231-1.49,0.224-2.243C217.165,143.367,212.234,138.435,205.957,138.435z M199.909,148.298
				c0.673-2.913,2.688-5.156,6.048-5.156c3.14,0,5.155,2.243,5.604,5.156H199.909z"/>
			<path d="M123.175,138.435c-6.725,0-11.657,4.932-11.657,11.881c0,6.949,4.644,11.881,11.657,11.881
				c5.67,0,9.082-3.336,10.503-5.791l-5.143-1.834c-0.509,0.93-2.558,2.721-5.36,2.721c-3.268,0-5.604-2.045-6.052-5.172h17.034
				c0.156-0.736,0.232-1.49,0.225-2.243C134.383,143.367,129.452,138.435,123.175,138.435z M117.125,148.298
				c0.673-2.913,2.688-5.156,6.053-5.156c3.137,0,5.155,2.243,5.604,5.156H117.125z"/>
			<path d="M236.754,129.857h-5.604v5.604h5.604V129.857z"/>
			<path d="M252.219,157.039c-3.361,0-6.053-2.688-6.053-6.726c0-4.034,2.688-6.725,6.053-6.725c3.363,0,4.707,2.243,5.156,3.585
				l5.074-1.804c-1.229-3.192-4.246-6.937-10.23-6.937c-6.726,0-11.656,4.931-11.656,11.881c0,6.95,4.931,11.882,11.656,11.882
				c6.035,0,9.051-3.806,10.258-7.149l-5.102-1.817C256.926,154.797,255.58,157.039,252.219,157.039z"/>
			<path d="M217.787,134.837h3.181v26.909h5.604v-31.889h-8.785V134.837z"/>
			<path d="M236.754,138.884h-5.604v22.862h5.604V138.884z"/>
			<path d="M265.479,157.361c-0.432-0.005-0.85,0.116-1.21,0.348c-0.36,0.234-0.643,0.57-0.812,0.963
				c-0.168,0.393-0.217,0.829-0.136,1.25s0.282,0.809,0.585,1.113c0.302,0.305,0.686,0.515,1.105,0.6
				c0.421,0.086,0.857,0.046,1.252-0.117c0.396-0.164,0.736-0.439,0.976-0.797c0.239-0.355,0.366-0.776,0.366-1.205
				c0.01-0.284-0.039-0.566-0.142-0.831c-0.104-0.265-0.26-0.504-0.459-0.708c-0.198-0.201-0.436-0.363-0.7-0.469
				C266.045,157.407,265.76,157.356,265.479,157.361z M265.479,161.354c-0.363,0.005-0.721-0.096-1.025-0.293
				c-0.306-0.196-0.545-0.48-0.688-0.813c-0.144-0.335-0.185-0.703-0.116-1.062c0.068-0.357,0.24-0.686,0.494-0.944
				c0.254-0.26,0.582-0.437,0.938-0.509c0.355-0.073,0.726-0.038,1.061,0.098c0.338,0.139,0.625,0.373,0.826,0.674
				c0.202,0.299,0.313,0.657,0.313,1.02c0.008,0.24-0.032,0.479-0.121,0.701c-0.088,0.225-0.219,0.426-0.387,0.597
				c-0.17,0.171-0.371,0.306-0.593,0.394c-0.222,0.09-0.461,0.133-0.7,0.129V161.354z"/>
			<path d="M266.408,159.123c-0.003-0.104-0.023-0.207-0.066-0.3c-0.039-0.096-0.103-0.182-0.178-0.252
				c-0.076-0.071-0.167-0.126-0.263-0.159c-0.099-0.035-0.202-0.047-0.305-0.043h-0.96v2.254h0.33v-0.781h0.303l0.777,0.781h0.412
				l-0.779-0.781c0.191,0,0.375-0.076,0.512-0.21C266.327,159.496,266.402,159.314,266.408,159.123L266.408,159.123z
				 M264.969,159.512v-0.813h0.628c0.061-0.007,0.12-0.002,0.179,0.016s0.111,0.048,0.156,0.088
				c0.045,0.041,0.083,0.088,0.108,0.145c0.025,0.055,0.038,0.113,0.038,0.174c0,0.238-0.151,0.388-0.481,0.388h-0.628V159.512z"/>
		</g>
	</g>
</g>
</svg>
