<svg width="165" height="32" viewBox="0 0 165 32" fill="none" xmlns="http://www.w3.org/2000/svg">
<g clip-path="url(#clip0_5075_22003)">
<path d="M22.3821 11.0773V20.9227L13.8572 25.8464V32L27.7144 24.0005V7.9995L22.3821 11.0773Z" fill="#00AC69"></path>
<path d="M13.8572 6.15563L22.3821 11.0773L27.7144 7.9995L13.8572 0L0 7.9995L5.33031 11.0773L13.8572 6.15563Z" fill="#1CE783"></path>
<path d="M8.52689 19.0788V28.9242L13.8572 32V16.001L0 7.9995V14.1551L8.52689 19.0788Z" fill="white"></path>
<path d="M46.7349 7.97736C43.7517 7.97736 42.3386 9.86149 42.3386 9.86149H42.1816L41.8696 8.29138H38.2563V24.3065H42.1816V15.0469C42.1816 13.0057 43.5907 11.5926 45.6359 11.5926C47.681 11.5926 49.0901 13.0017 49.0901 15.0469V24.3065H53.0154V14.7288C53.0154 10.6465 50.3462 7.97736 46.7349 7.97736Z" fill="white"></path>
<path d="M89.0674 18.8111H88.842L86.1728 8.29138H82.1791L79.5099 18.8111H79.2864L76.6152 8.29138H72.533L76.6152 24.3065H81.396L84.0632 13.9438H84.2886L86.9578 24.3065H91.7366L95.8189 8.29138H91.7366L89.0674 18.8111Z" fill="white"></path>
<path d="M107.838 9.70448H107.681L107.367 8.29541H104.07V24.3085H107.995V15.0489C107.995 13.0077 108.937 12.0657 110.979 12.0657H112.992V8.2934H110.656C110.11 8.29456 109.57 8.42261 109.081 8.66747C108.592 8.91232 108.167 9.2673 107.838 9.70448V9.70448Z" fill="white"></path>
<path d="M121.677 7.97736C116.969 7.97736 113.515 11.4316 113.515 16.2989C113.515 21.1663 116.774 24.6205 121.677 24.6205C125.649 24.6205 128.04 22.2834 129.037 20.5644L125.433 19.2801C125.077 19.9323 123.64 21.1864 121.677 21.1864C119.388 21.1864 117.754 19.7532 117.44 17.5631H129.371C129.481 17.0471 129.534 16.5205 129.528 15.993C129.528 11.4316 126.073 7.97736 121.677 7.97736ZM117.44 14.8858C117.911 12.8447 119.324 11.2746 121.677 11.2746C123.877 11.2746 125.288 12.8447 125.602 14.8858H117.44Z" fill="white"></path>
<path d="M63.6899 7.97736C58.9796 7.97736 55.5254 11.4316 55.5254 16.2989C55.5254 21.1663 58.7783 24.6205 63.6899 24.6205C67.6615 24.6205 70.0509 22.2834 71.0473 20.5644L67.4441 19.2801C67.0878 19.9323 65.6526 21.1864 63.6899 21.1864C61.4012 21.1864 59.7647 19.7532 59.4507 17.5631H71.3835C71.4938 17.0471 71.5465 16.5205 71.5405 15.993C71.5405 11.4316 68.0863 7.97736 63.6899 7.97736ZM59.4507 14.8858C59.9217 12.8447 61.3348 11.2746 63.6899 11.2746C65.8881 11.2746 67.3012 12.8447 67.6152 14.8858H59.4507Z" fill="white"></path>
<path d="M143.25 1.96867H139.325V5.89394H143.25V1.96867Z" fill="white"></path>
<path d="M154.082 21.0092C151.727 21.0092 149.843 19.1251 149.843 16.2989C149.843 13.4727 151.727 11.5886 154.082 11.5886C156.437 11.5886 157.379 13.1587 157.693 14.1008L161.248 12.8366C160.386 10.6002 158.273 7.97736 154.082 7.97736C149.371 7.97736 145.917 11.4316 145.917 16.2989C145.917 21.1663 149.371 24.6205 154.082 24.6205C158.309 24.6205 160.423 21.9553 161.268 19.6123L157.693 18.3401C157.379 19.4391 156.437 21.0092 154.082 21.0092Z" fill="white"></path>
<path d="M129.963 5.45713H132.191V24.3065H136.116V1.96867H129.963V5.45713Z" fill="white"></path>
<path d="M143.25 8.29138H139.325V24.3065H143.25V8.29138Z" fill="white"></path>
<path d="M163.37 21.2347C163.069 21.2303 162.775 21.3153 162.523 21.479C162.271 21.6426 162.073 21.8775 161.955 22.1537C161.837 22.4298 161.804 22.7349 161.86 23.03C161.916 23.325 162.058 23.5968 162.269 23.8107C162.48 24.0247 162.75 24.1711 163.044 24.2313C163.338 24.2915 163.644 24.2628 163.922 24.149C164.199 24.0351 164.437 23.8411 164.605 23.5917C164.772 23.3423 164.861 23.0488 164.861 22.7484C164.868 22.5498 164.834 22.3518 164.762 22.1666C164.689 21.9815 164.58 21.8129 164.44 21.6713C164.301 21.5297 164.134 21.418 163.95 21.3429C163.766 21.2679 163.568 21.231 163.37 21.2347ZM163.37 24.0307C163.115 24.0351 162.865 23.9636 162.651 23.8254C162.438 23.6872 162.27 23.4886 162.169 23.2547C162.069 23.0208 162.04 22.7623 162.087 22.5121C162.134 22.262 162.255 22.0314 162.433 21.8499C162.611 21.6683 162.84 21.544 163.089 21.4927C163.338 21.4414 163.597 21.4655 163.833 21.5618C164.069 21.6582 164.27 21.8225 164.412 22.0338C164.554 22.2451 164.63 22.4939 164.63 22.7484C164.636 22.9161 164.607 23.0833 164.546 23.2395C164.485 23.3958 164.392 23.538 164.274 23.6573C164.156 23.7766 164.015 23.8706 163.86 23.9334C163.704 23.9962 163.537 24.0266 163.37 24.0226V24.0307Z" fill="white"></path>
<path d="M164.02 22.4686C164.019 22.396 164.004 22.3243 163.975 22.2578C163.946 22.1913 163.903 22.1315 163.85 22.0821C163.797 22.0327 163.734 21.9947 163.666 21.9705C163.597 21.9462 163.525 21.9363 163.452 21.9412H162.78V23.5194H163.011V22.9719H163.223L163.768 23.5194H164.056L163.51 22.9719C163.645 22.9719 163.773 22.9191 163.868 22.8249C163.964 22.7306 164.018 22.6027 164.02 22.4686V22.4686ZM163.013 22.7404V22.1727H163.452C163.494 22.1676 163.537 22.1715 163.577 22.184C163.618 22.1965 163.655 22.2173 163.687 22.2453C163.719 22.2732 163.745 22.3075 163.763 22.346C163.78 22.3845 163.79 22.4262 163.79 22.4686C163.79 22.6357 163.684 22.7404 163.452 22.7404H163.013Z" fill="white"></path>
</g>
<defs>
<clipPath id="clip0_5075_22003">
<rect width="164.861" height="32" fill="white"></rect>
</clipPath>
</defs>
</svg>