<?xml version="1.0" encoding="utf-8"?>
<!-- Generator: Adobe Illustrator 27.3.1, SVG Export Plug-In . SVG Version: 6.00 Build 0)  -->
<svg version="1.1" id="Layer_1" xmlns="http://www.w3.org/2000/svg" xmlns:xlink="http://www.w3.org/1999/xlink" x="0px" y="0px"
	 viewBox="0 0 89.2 48.6" style="enable-background:new 0 0 89.2 48.6;" xml:space="preserve">
<style type="text/css">
	.st0{fill:#808184;}
	.st1{fill:#262261;}
</style>
<g transform="matrix(.159374 0 0 .159374 14.226855 -59.747322)">
	<path class="st0" d="M-28,669.8c-6.9,6.7-15.4,10.1-25.5,10.1s-18.6-3.4-25.5-10.1s-10.3-15.1-10.3-25.1s3.4-18.4,10.3-25.1
		c6.9-6.8,15.4-10.2,25.5-10.2s18.6,3.4,25.5,10.1s10.3,15.1,10.3,25.1C-17.7,654.7-21.1,663-28,669.8z M-33.2,644.7
		c0-6.1-2-11.3-5.9-15.6s-8.7-6.4-14.4-6.4s-10.5,2.1-14.4,6.4s-5.9,9.5-5.9,15.6s2,11.3,5.9,15.5c3.9,4.3,8.7,6.4,14.4,6.4
		s10.5-2.1,14.4-6.4C-35.2,656-33.2,650.8-33.2,644.7z M45.6,617.1c4.8,4.1,7.2,10.3,7.2,18.7s-2.5,14.6-7.4,18.5
		s-12.4,5.9-22.5,5.9h-9.1v19H-1.4V611h24.1C33.2,611,40.8,613,45.6,617.1z M34.4,643.9c1.8-2,2.7-5,2.7-9c0-3.9-1.2-6.7-3.6-8.4
		s-6.1-2.5-11.1-2.5h-8.7v22.9h10.2C29.1,647,32.6,646,34.4,643.9z M117.6,611v13.6h-34v14h30.5v13H83.6v14.1h35v13.5H68.4V611
		L117.6,611z M183.8,611H199v68.2h-15.2l-32.5-42.7v42.7h-15.2V611h14.2l33.5,43.9V611z"/>
	<path class="st1" d="M246.5,632.4c1.5,0,2.7-0.2,3.8-0.7s2.2-1.3,3.3-2.4l2.7,2.8c-2.7,3-5.9,4.5-9.8,4.5c-3.8,0-7-1.2-9.5-3.7
		s-3.8-5.6-3.8-9.3c0-3.8,1.3-6.9,3.9-9.4s5.8-3.8,9.7-3.8s7.2,1.4,9.8,4.3l-2.7,3c-1.2-1.2-2.3-2-3.4-2.4c-1.1-0.5-2.3-0.7-3.8-0.7
		c-2.6,0-4.7,0.8-6.4,2.5s-2.6,3.8-2.6,6.3c0,2.6,0.9,4.7,2.6,6.4C242.1,631.5,244.2,632.4,246.5,632.4L246.5,632.4z M283.2,632.8
		c-2.6,2.5-5.7,3.7-9.5,3.7s-6.9-1.2-9.5-3.7s-3.8-5.6-3.8-9.3s1.3-6.8,3.8-9.3c2.6-2.5,5.7-3.7,9.5-3.7s6.9,1.2,9.5,3.7
		s3.8,5.6,3.8,9.3C287.1,627.2,285.8,630.3,283.2,632.8z M280.1,617c-1.7-1.8-3.8-2.7-6.4-2.7s-4.6,0.9-6.3,2.7s-2.6,4-2.6,6.5
		s0.9,4.7,2.6,6.5s3.8,2.7,6.3,2.7s4.6-0.9,6.4-2.7c1.7-1.8,2.6-3.9,2.6-6.5S281.8,618.7,280.1,617z M312.8,611h4.3v25.3h-4.6
		l-14.3-18.5v18.5h-4.3V611h4.3l14.7,18.9V611H312.8z M335.5,614.9v21.4h-4.3v-21.4h-7.7V611h19.6v3.9H335.5z M351.5,630.5l-2.5,5.8
		h-4.6l11.1-25.3h4.6l11.1,25.3h-4.6l-2.5-5.8H351.5z M362.4,626.6l-4.6-10.4l-4.6,10.4H362.4z M377.5,611h4.3v25.3h-4.3L377.5,611z
		 M410,611h4.3v25.3h-4.6l-14.3-18.5v18.5h-4.3V611h4.3l14.7,18.9V611H410z M441,611v4h-13.5v6.7h12.1v3.8h-12.1v6.8h13.9v4h-18.2
		V611H441z M469.2,619.2c0,4.2-1.8,6.8-5.5,7.9l6.6,9.2h-5.4l-6-8.5h-5.6v8.5H449V611h9.4c3.9,0,6.6,0.7,8.3,2
		S469.2,616.3,469.2,619.2z M463.5,622.8c0.9-0.7,1.3-1.9,1.3-3.6s-0.4-2.8-1.3-3.4s-2.5-0.9-4.8-0.9h-5.4v9h5.3
		C461,623.9,462.7,623.5,463.5,622.8z M235,653.9h4.3v25.3H235V653.9z M270.7,653.9h4.3v25.3h-4.6l-14.3-18.5v18.5h-4.3v-25.3h4.3
		l14.7,18.9v-18.9H270.7z M287.4,653.9h4.3v25.3h-4.3V653.9z M313.3,657.8v21.4H309v-21.4h-7.7v-3.9h19.6v3.9H313.3z M330.7,653.9
		h4.3v25.3h-4.3V653.9z M351.3,673.4l-2.5,5.8h-4.6l11.1-25.3h4.6l11.1,25.3h-4.5l-2.5-5.8H351.3z M362.2,669.5l-4.6-10.4l-4.6,10.4
		H362.2z M387,657.8v21.4h-4.3v-21.4H375v-3.9h19.6v3.9H387z M404.4,653.9h4.3v25.3h-4.3V653.9z M432.9,679.2h-4.8l-10.2-25.3h4.8
		l7.8,18.9l7.8-18.9h4.8L432.9,679.2z M470,653.9v4h-13.5v6.7h12.1v3.8h-12.1v6.8h14v4h-18.2v-25.3H470z"/>
</g>
<g transform="matrix(.055714 0 0 .055714 44.422258 .585933)">
	<path class="st0" d="M-155.7,424.5H42.2v-79.9H-75.7V192.5H42.2v-79.9h-197.9V424.5z"/>
	<path class="st1" d="M82.2,112.6h79.9v79.9H82.2V112.6z M82.2,232.5h79.9v192H82.2V232.5z M-275.8-10.5v558.2h558.2V-10.5
		L-275.8-10.5z M202.1,464.6h-397.8V72.5h397.8V464.6z"/>
</g>
</svg>
