<?xml version="1.0" encoding="utf-8"?>
<!-- Generator: Adobe Illustrator 16.0.3, SVG Export Plug-In . SVG Version: 6.00 Build 0)  -->
<!DOCTYPE svg PUBLIC "-//W3C//DTD SVG 1.1//EN" "http://www.w3.org/Graphics/SVG/1.1/DTD/svg11.dtd">
<svg version="1.1" id="Logos" xmlns="http://www.w3.org/2000/svg" xmlns:xlink="http://www.w3.org/1999/xlink" x="0px" y="0px"
	 width="259.116px" height="91.19px" viewBox="15.3 104.854 259.116 91.19" enable-background="new 15.3 104.854 259.116 91.19"
	 xml:space="preserve">
<path fill="#0F2535" d="M132.795,123.441c0.097,3.102-0.582,6.204-1.842,9.015c-1.066,2.52-2.908,4.556-5.234,6.01
	c-4.75,2.811-10.662,2.811-15.412,0c-2.327-1.454-4.071-3.49-5.234-5.913c-1.26-2.811-1.938-5.816-1.842-8.821v-1.745
	c-0.097-3.102,0.582-6.204,1.842-9.015c1.163-2.423,2.908-4.556,5.234-6.01c4.75-2.811,10.662-2.811,15.412,0
	c2.327,1.454,4.071,3.489,5.234,6.01c1.26,2.811,1.938,5.913,1.842,8.917V123.441z M125.525,121.89c0-3.683-0.678-6.397-1.938-8.336
	c-2.229-3.102-6.591-3.78-9.693-1.454c-0.582,0.388-1.066,0.873-1.454,1.454c-1.26,1.842-1.938,4.653-1.938,8.239v1.648
	c0,3.586,0.678,6.301,1.938,8.239s3.393,3.005,5.622,2.908c2.229,0.097,4.362-0.969,5.525-2.811c1.26-1.841,1.938-4.652,1.938-8.239
	V121.89z"/>
<path fill="#0F2535" d="M147.043,134.976c1.164,0.097,2.229-0.291,3.102-1.066c0.775-0.679,1.26-1.745,1.26-2.811h6.495
	c0,1.745-0.485,3.393-1.455,4.847c-0.969,1.454-2.326,2.617-3.877,3.393c-1.647,0.775-3.489,1.26-5.428,1.163
	c-3.296,0.194-6.495-1.163-8.724-3.49c-2.133-2.326-3.199-5.622-3.199-9.693v-0.485c0-3.974,1.066-7.173,3.199-9.499
	c2.229-2.423,5.428-3.78,8.724-3.586c2.811-0.097,5.622,0.872,7.754,2.714c1.939,1.938,3.102,4.556,3.006,7.367h-6.495
	c0-1.163-0.388-2.423-1.26-3.295c-1.842-1.745-4.75-1.648-6.495,0.194c-0.097,0.097-0.194,0.194-0.291,0.291
	c-0.775,1.164-1.26,3.102-1.26,5.719v0.678c0,2.617,0.388,4.556,1.163,5.719C144.136,134.394,145.59,135.073,147.043,134.976z"/>
<path fill="#0F2535" d="M168.756,107.932v6.3h4.459v5.041h-4.459v12.892c-0.097,0.775,0.098,1.454,0.582,2.035
	c0.582,0.485,1.357,0.679,2.133,0.582c0.678,0,1.356-0.097,2.035-0.194v5.234c-1.357,0.388-2.715,0.582-4.168,0.582
	c-4.847,0-7.27-2.423-7.367-7.367v-13.764h-3.78v-5.041h3.78v-6.3H168.756z"/>
<path fill="#0F2535" d="M173.99,126.931c0-2.327,0.484-4.75,1.454-6.882c0.97-1.938,2.423-3.586,4.265-4.652
	c1.939-1.164,4.168-1.648,6.397-1.648c3.198-0.097,6.204,1.066,8.53,3.199c2.326,2.326,3.586,5.428,3.684,8.724v1.745
	c0,3.974-1.066,7.173-3.296,9.5c-4.944,4.75-12.795,4.75-17.835,0c-2.23-2.423-3.296-5.622-3.296-9.693L173.99,126.931z
	 M180.873,127.415c-0.098,1.939,0.387,3.974,1.356,5.622c1.647,2.132,4.847,2.617,6.979,0.873c0.29-0.291,0.678-0.582,0.871-0.873
	c0.971-1.26,1.357-3.295,1.357-6.106c0.098-1.938-0.387-3.877-1.357-5.622c-0.871-1.26-2.422-2.036-3.974-1.938
	c-1.551-0.097-3.005,0.678-3.877,1.938S180.873,124.604,180.873,127.415z"/>
<path fill="#0F2535" d="M224.781,127.415c0,3.974-0.871,7.173-2.713,9.5c-1.648,2.326-4.459,3.683-7.271,3.586
	c-2.423,0.097-4.749-0.873-6.3-2.714V150h-6.883v-35.768h6.397l0.194,2.521c1.551-1.938,3.975-3.102,6.494-3.005
	c2.908-0.097,5.719,1.163,7.367,3.489c1.744,2.327,2.617,5.622,2.617,9.693L224.781,127.415z M217.803,126.833
	c0.098-1.938-0.291-3.877-1.26-5.622c-0.775-1.26-2.229-2.035-3.684-1.938c-1.842-0.194-3.586,0.775-4.459,2.52v10.565
	c0.873,1.745,2.617,2.714,4.459,2.521C216.155,134.976,217.803,132.262,217.803,126.833z"/>
<path fill="#0F2535" d="M243.199,137.399c-1.745,2.132-4.362,3.199-7.076,3.102c-2.326,0.194-4.652-0.679-6.301-2.423
	c-1.454-1.551-2.229-3.877-2.229-6.979v-16.866h6.882v16.672c0,2.714,1.26,4.071,3.684,4.071s3.975-0.775,4.847-2.423v-18.32h6.882
	v25.784h-6.494L243.199,137.399z"/>
<path fill="#0F2535" d="M267.916,132.94c0-0.873-0.484-1.648-1.26-2.036c-1.26-0.582-2.617-1.066-3.975-1.26
	c-6.106-1.26-9.209-3.877-9.209-7.852c0-2.229,1.066-4.362,2.812-5.719c2.133-1.647,4.749-2.423,7.366-2.326
	c2.812-0.097,5.623,0.679,7.852,2.326c1.842,1.454,3.006,3.684,2.908,6.01h-6.882c0-0.873-0.291-1.842-0.97-2.423
	c-0.872-0.678-1.938-1.066-3.004-0.969c-0.97-0.097-1.939,0.194-2.715,0.775c-0.582,0.485-0.969,1.26-0.969,2.036
	s0.387,1.454,1.066,1.842c1.162,0.582,2.423,1.066,3.683,1.26c1.454,0.291,2.908,0.679,4.362,1.164
	c3.684,1.357,5.428,3.683,5.428,6.979c0,2.326-1.066,4.458-3.005,5.719c-2.326,1.551-5.04,2.326-7.851,2.229
	c-1.939,0-3.975-0.388-5.72-1.164c-1.551-0.678-2.907-1.745-3.974-3.198c-0.97-1.26-1.454-2.811-1.454-4.362h6.591
	c0,1.066,0.484,2.133,1.357,2.811c0.969,0.679,2.133,1.066,3.393,0.969c1.066,0.097,2.133-0.193,3.005-0.775
	C267.432,134.491,267.818,133.716,267.916,132.94z"/>
<path fill="#0F2535" d="M104.976,185.574v-34.701h10.663c2.908,0,5.719,0.678,8.239,2.035c2.423,1.357,4.362,3.393,5.622,5.815
	c1.357,2.714,2.036,5.622,2.036,8.627v1.647c0.097,3.006-0.678,5.913-2.036,8.627c-1.26,2.424-3.199,4.459-5.622,5.816
	c-2.521,1.356-5.332,2.133-8.143,2.133H104.976z M112.148,156.688v23.166h3.49c2.423,0.194,4.847-0.872,6.397-2.714
	c1.454-1.842,2.229-4.459,2.229-7.852v-1.842c0-3.489-0.776-6.203-2.229-8.045c-1.551-1.842-3.974-2.908-6.397-2.715
	L112.148,156.688z"/>
<path fill="#0F2535" d="M146.947,186.059c-3.393,0.097-6.785-1.164-9.208-3.49c-2.423-2.423-3.684-5.815-3.586-9.208v-0.679
	c0-2.424,0.485-4.75,1.551-6.979c0.969-1.939,2.423-3.587,4.265-4.75c1.938-1.163,4.071-1.744,6.3-1.648
	c3.102-0.193,6.204,1.066,8.335,3.297c2.036,2.229,3.006,5.428,3.006,9.498v2.812h-16.479c0.194,1.551,0.873,3.005,2.036,4.071
	s2.714,1.551,4.265,1.551c2.423,0.097,4.75-0.969,6.204-2.908l3.393,3.78c-1.066,1.454-2.52,2.714-4.168,3.393
	C150.921,185.67,148.982,186.059,146.947,186.059z M146.171,164.83c-1.26,0-2.521,0.484-3.296,1.357
	c-0.969,1.163-1.551,2.52-1.647,3.975h9.596v-0.582c0.097-1.26-0.388-2.617-1.26-3.586
	C148.691,165.219,147.431,164.83,146.171,164.83z"/>
<path fill="#0F2535" d="M183.489,172.973c0,3.975-0.872,7.173-2.714,9.499c-1.648,2.326-4.459,3.684-7.27,3.587
	c-2.424,0.097-4.75-0.873-6.301-2.715v12.213h-6.882V159.79h6.397l0.193,2.521c1.551-1.939,3.975-3.102,6.494-3.006
	c2.908-0.096,5.719,1.164,7.367,3.49c1.744,2.326,2.617,5.622,2.617,9.693v0.484H183.489z M176.607,172.391
	c0.098-1.938-0.291-3.877-1.26-5.621c-0.775-1.261-2.229-2.036-3.684-1.939c-1.842-0.193-3.586,0.775-4.459,2.521v10.565
	c0.873,1.744,2.617,2.714,4.459,2.52C174.959,180.533,176.607,177.818,176.607,172.391z"/>
<path fill="#0F2535" d="M193.764,185.574h-6.882v-36.641h6.882V185.574z"/>
<path fill="#0F2535" d="M197.156,172.488c0-2.326,0.485-4.75,1.551-6.883c0.97-1.938,2.424-3.586,4.266-4.652
	c1.938-1.163,4.168-1.648,6.397-1.648c3.198-0.096,6.204,1.066,8.53,3.199c2.326,2.326,3.586,5.428,3.683,8.724l0.097,1.745
	c0,3.975-1.066,7.173-3.295,9.499c-4.943,4.749-12.795,4.749-17.836,0c-2.229-2.423-3.295-5.622-3.295-9.692L197.156,172.488z
	 M204.039,172.973c-0.098,1.938,0.387,3.975,1.357,5.622c1.646,2.132,4.846,2.616,6.979,0.872c0.291-0.291,0.678-0.582,0.872-0.872
	c0.97-1.261,1.454-3.393,1.356-6.106c0.098-1.939-0.387-3.877-1.356-5.623c-0.872-1.26-2.423-2.035-3.974-1.938
	c-1.551-0.098-3.006,0.678-3.877,1.938C204.523,168.126,204.039,170.162,204.039,172.973z"/>
<path fill="#0F2535" d="M233.894,175.881l4.749-16.091h7.367l-10.371,29.854l-0.582,1.357c-1.163,3.102-4.266,5.137-7.658,5.04
	c-1.065,0-2.035-0.194-3.004-0.484v-5.234h1.066c0.969,0.097,2.035-0.097,2.907-0.581c0.679-0.485,1.261-1.164,1.552-1.939
	l0.775-2.133l-8.918-25.88h7.366L233.894,175.881z"/>
<path fill="#0D80D8" d="M20.549,168.223c6.204-3.974,13.473-10.855,10.759-18.998c-1.551-4.362-3.586-8.142-3.877-12.892
	c-0.194-4.071,0.388-8.045,1.745-11.826c5.622-14.927,22.1-22.003,37.124-17.544c13.861,4.168,23.36,20.258,17.642,34.313
	c-3.296,8.142-4.847,14.346,2.617,20.646c2.036,1.745,6.882,4.266,6.882,7.271c0,3.974-7.754-0.872-8.724-1.551
	c0.969,1.745,10.856,11.923,4.556,12.698c-5.719,0.678-10.856-7.367-14.249-10.857c-5.816-5.815-4.847,6.979-4.847,9.693
	c0,4.168-3.005,12.602-8.239,7.076c-4.362-4.556-2.714-11.825-5.719-16.865c-3.296-5.525-8.917,5.524-10.274,7.561
	c-1.551,2.229-9.306,13.182-12.407,7.366c-2.521-4.749,1.454-12.214,3.489-16.478c-0.678,1.551-5.816,3.877-7.27,4.652
	c-3.199,1.744-6.882,2.617-10.565,2.423C11.341,174.427,17.253,170.258,20.549,168.223L20.549,168.223z"/>
</svg>
