<?xml version="1.0" encoding="utf-8"?>
<!-- Generator: Adobe Illustrator 27.3.1, SVG Export Plug-In . SVG Version: 6.00 Build 0)  -->
<svg version="1.1" xmlns="http://www.w3.org/2000/svg" xmlns:xlink="http://www.w3.org/1999/xlink" x="0px" y="0px"
	 viewBox="0 0 236.5 70.3" style="enable-background:new 0 0 236.5 70.3;" xml:space="preserve">
<style type="text/css">
	.st0{fill:#F7931E;}
	.st1{fill:#B3B3B3;}
</style>
<g id="Layer_5">
	<g id="Layer_8">
	</g>
</g>
<g id="Layer_7">
	<polygon class="st0" points="46.6,64.7 34.5,70.3 34.5,5.7 46.6,0 	"/>
	<path class="st1" d="M11.5,45.5c0-8.2,9-15,21.2-17.1v-7.2C14.1,23.5,0,33.5,0,45.5C0,58,15,68.3,34.5,70.1v-7.1
		C21.4,61.2,11.5,54.1,11.5,45.5z"/>
	<path class="st1" d="M75.9,40.9l-1.6-16.5l-5.7,3.3c-5.5-3.2-12.4-5.6-20.2-6.5v7.2c4.5,0.8,8.6,2.2,11.9,4.1l-6.2,3.6L75.9,40.9z"
		/>
	<path d="M88.6,36c0.6-2,1.6-3.8,2.9-5.4c1.3-1.6,2.9-2.8,4.8-3.7c1.9-0.9,4.2-1.4,6.7-1.4c2.5,0,4.8,0.5,6.7,1.4
		c1.9,0.9,3.5,2.2,4.8,3.7c1.3,1.6,2.3,3.4,2.9,5.4c0.6,2,1,4.1,1,6.3c0,2.2-0.3,4.3-1,6.3c-0.6,2-1.6,3.8-2.9,5.4
		c-1.3,1.6-2.9,2.8-4.8,3.7c-1.9,0.9-4.2,1.4-6.7,1.4c-2.5,0-4.8-0.5-6.7-1.4c-1.9-0.9-3.5-2.2-4.8-3.7c-1.3-1.6-2.3-3.4-2.9-5.4
		c-0.6-2-1-4.1-1-6.3C87.7,40.1,88,38,88.6,36z M92.6,47.1c0.4,1.6,1.1,3,2,4.3c0.9,1.3,2.1,2.3,3.5,3c1.4,0.8,3.1,1.1,5,1.1
		c1.9,0,3.6-0.4,5-1.1c1.4-0.8,2.6-1.8,3.5-3c0.9-1.3,1.6-2.7,2-4.3c0.4-1.6,0.6-3.2,0.6-4.8c0-1.6-0.2-3.2-0.6-4.8
		c-0.4-1.6-1.1-3-2-4.2c-0.9-1.3-2.1-2.3-3.5-3c-1.4-0.8-3.1-1.1-5-1.1c-1.9,0-3.6,0.4-5,1.1c-1.4,0.8-2.6,1.8-3.5,3
		c-0.9,1.3-1.6,2.7-2,4.2c-0.4,1.6-0.6,3.2-0.6,4.8C91.9,43.9,92.2,45.5,92.6,47.1z"/>
	<path d="M125.6,35.1v3.1h0.1c0.6-1.3,1.6-2.2,3-2.8c1.3-0.6,2.8-0.9,4.5-0.9c1.8,0,3.4,0.3,4.7,1c1.3,0.7,2.4,1.6,3.3,2.7
		c0.9,1.1,1.6,2.4,2,3.9c0.4,1.5,0.7,3,0.7,4.7c0,1.6-0.2,3.2-0.7,4.7c-0.4,1.5-1.1,2.8-2,3.8c-0.9,1.1-2,2-3.3,2.6
		c-1.3,0.6-2.9,0.9-4.7,0.9c-0.6,0-1.2-0.1-1.9-0.2c-0.7-0.1-1.4-0.3-2.1-0.6c-0.7-0.3-1.3-0.6-2-1.1c-0.6-0.5-1.1-1-1.6-1.7h-0.1
		v12h-3.8V35.1H125.6z M139.4,43.4c-0.3-1-0.7-2-1.3-2.8c-0.6-0.8-1.3-1.5-2.2-1.9c-0.9-0.5-2-0.7-3.2-0.7c-1.3,0-2.4,0.3-3.3,0.8
		c-0.9,0.5-1.6,1.2-2.2,2c-0.6,0.8-1,1.8-1.2,2.8c-0.3,1.1-0.4,2.1-0.4,3.2c0,1.1,0.1,2.2,0.4,3.3c0.3,1.1,0.7,2,1.3,2.8
		c0.6,0.8,1.3,1.5,2.3,2c0.9,0.5,2.1,0.7,3.4,0.7c1.3,0,2.4-0.3,3.3-0.8c0.9-0.5,1.6-1.2,2.1-2c0.5-0.8,0.9-1.8,1.2-2.9
		c0.2-1.1,0.4-2.2,0.4-3.3C139.8,45.5,139.6,44.4,139.4,43.4z"/>
	<path d="M163.4,56.9c-1.7,1.3-3.9,2-6.6,2c-1.9,0-3.5-0.3-4.8-0.9c-1.4-0.6-2.5-1.4-3.4-2.5c-0.9-1.1-1.6-2.4-2.1-3.9
		c-0.5-1.5-0.7-3.1-0.8-4.9c0-1.8,0.3-3.4,0.8-4.9c0.5-1.5,1.3-2.7,2.3-3.8c1-1.1,2.1-1.9,3.5-2.5c1.3-0.6,2.8-0.9,4.4-0.9
		c2.1,0,3.8,0.4,5.1,1.3c1.4,0.9,2.5,1.9,3.3,3.3c0.8,1.3,1.4,2.8,1.7,4.3c0.3,1.6,0.4,3,0.4,4.5h-17.4c0,1,0.1,2,0.4,2.9
		c0.3,0.9,0.7,1.7,1.3,2.4c0.6,0.7,1.4,1.3,2.3,1.7c0.9,0.4,2,0.6,3.3,0.6c1.6,0,2.9-0.4,4-1.1c1-0.8,1.7-1.9,2-3.4h3.8
		C166.3,53.6,165.2,55.6,163.4,56.9z M162.5,42c-0.3-0.8-0.8-1.5-1.4-2.1c-0.6-0.6-1.3-1-2.1-1.4c-0.8-0.3-1.7-0.5-2.6-0.5
		c-1,0-1.9,0.2-2.7,0.5c-0.8,0.3-1.5,0.8-2,1.4c-0.6,0.6-1,1.3-1.3,2.1c-0.3,0.8-0.5,1.6-0.6,2.5h13.4
		C163.1,43.6,162.9,42.8,162.5,42z"/>
	<path d="M173.4,35.1v3.7h0.1c1.6-2.8,4.1-4.2,7.6-4.2c1.5,0,2.8,0.2,3.8,0.6c1,0.4,1.8,1,2.5,1.8c0.6,0.7,1.1,1.6,1.3,2.7
		c0.3,1,0.4,2.2,0.4,3.4v15.3h-3.8V42.6c0-1.4-0.4-2.6-1.3-3.4c-0.8-0.8-2-1.3-3.5-1.3c-1.2,0-2.2,0.2-3,0.5
		c-0.9,0.4-1.6,0.9-2.1,1.5c-0.6,0.7-1,1.4-1.3,2.3c-0.3,0.9-0.4,1.9-0.4,2.9v13.1h-3.8V35.1H173.4z"/>
	<path d="M198.5,26.3v32.1h-4.3V26.3H198.5z"/>
	<path d="M215.4,26.3c4.9,0,8.8,1.3,11.4,3.8c2.7,2.5,4,6.4,4,11.5c0,2.7-0.3,5.1-0.9,7.2s-1.5,3.8-2.8,5.3
		c-1.3,1.4-2.9,2.5-4.8,3.3c-2,0.7-4.3,1.1-6.9,1.1h-11V26.3H215.4z M215.7,54.8c0.5,0,1.1,0,1.8-0.1c0.7-0.1,1.5-0.3,2.3-0.5
		c0.8-0.3,1.6-0.7,2.4-1.2c0.8-0.5,1.5-1.3,2.1-2.2c0.6-0.9,1.1-2.1,1.6-3.5c0.4-1.4,0.6-3.1,0.6-5.1c0-1.9-0.2-3.6-0.6-5.1
		c-0.4-1.5-1-2.8-1.8-3.9c-0.9-1.1-2-1.9-3.3-2.4c-1.3-0.6-3-0.8-5-0.8h-7.2v24.9H215.7z"/>
	<g>
		<path d="M229,28.4c0.2-0.5,0.5-0.9,0.8-1.2c0.4-0.3,0.8-0.6,1.2-0.8c0.5-0.2,1-0.3,1.5-0.3c0.5,0,1,0.1,1.5,0.3
			c0.5,0.2,0.9,0.5,1.2,0.8c0.4,0.3,0.6,0.8,0.8,1.2c0.2,0.5,0.3,1,0.3,1.5c0,0.6-0.1,1.1-0.3,1.5c-0.2,0.5-0.5,0.9-0.8,1.2
			c-0.3,0.3-0.8,0.6-1.2,0.8c-0.5,0.2-1,0.3-1.5,0.3c-0.5,0-1-0.1-1.5-0.3c-0.5-0.2-0.9-0.5-1.2-0.8c-0.4-0.3-0.6-0.8-0.8-1.2
			c-0.2-0.5-0.3-1-0.3-1.5C228.7,29.4,228.8,28.9,229,28.4z M229.6,31.2c0.2,0.4,0.4,0.8,0.7,1.1c0.3,0.3,0.6,0.5,1,0.7
			c0.4,0.2,0.8,0.3,1.3,0.3c0.5,0,0.9-0.1,1.3-0.3c0.4-0.2,0.7-0.4,1-0.7c0.3-0.3,0.5-0.6,0.7-1.1c0.2-0.4,0.2-0.8,0.2-1.3
			c0-0.5-0.1-0.9-0.2-1.3c-0.2-0.4-0.4-0.7-0.7-1c-0.3-0.3-0.6-0.5-1-0.7c-0.4-0.2-0.8-0.3-1.3-0.3c-0.5,0-0.9,0.1-1.3,0.3
			c-0.4,0.2-0.7,0.4-1,0.7c-0.3,0.3-0.5,0.6-0.7,1c-0.2,0.4-0.2,0.8-0.2,1.3C229.4,30.4,229.5,30.8,229.6,31.2z M232.8,27.7
			c0.5,0,0.9,0.1,1.2,0.3c0.3,0.2,0.4,0.5,0.4,1c0,0.4-0.1,0.7-0.3,0.9c-0.2,0.2-0.5,0.3-0.8,0.3l1.3,2h-0.8l-1.2-1.9h-0.7v1.9h-0.7
			v-4.5H232.8z M232.5,29.7c0.2,0,0.3,0,0.5,0c0.1,0,0.3,0,0.4-0.1c0.1,0,0.2-0.1,0.3-0.2c0.1-0.1,0.1-0.2,0.1-0.4
			c0-0.2,0-0.3-0.1-0.4c-0.1-0.1-0.1-0.2-0.2-0.2c-0.1,0-0.2-0.1-0.3-0.1c-0.1,0-0.2,0-0.4,0h-0.9v1.4H232.5z"/>
	</g>
</g>
<g id="Layer_6_copy">
</g>
</svg>
