<?xml version="1.0" encoding="utf-8"?>
<!-- Generator: Adobe Illustrator 16.0.3, SVG Export Plug-In . SVG Version: 6.00 Build 0)  -->
<!DOCTYPE svg PUBLIC "-//W3C//DTD SVG 1.1//EN" "http://www.w3.org/Graphics/SVG/1.1/DTD/svg11.dtd">
<svg version="1.1" id="Layer_1" xmlns="http://www.w3.org/2000/svg" xmlns:xlink="http://www.w3.org/1999/xlink" x="0px" y="0px"
	 width="223.416px" height="68.894px" viewBox="38.118 115.57 223.416 68.894"
	 enable-background="new 38.118 115.57 223.416 68.894" xml:space="preserve">
<g id="g930">
	<g id="g915">
		<path id="path8" d="M161.316,135.263v20.92c0,0.922,0,1.711,0.263,2.633c0.132,1.447,1.185,2.631,2.632,2.895
			c1.973,0.525,4.078,0.525,6.184,0c1.711-0.395,2.895-1.843,2.764-3.685c0-0.526,0-1.053,0-1.579v-21.053h3.421
			c0,0.132,0,0.263,0,0.395v21.841c0,1.186-0.132,2.237-0.526,3.422c-0.526,1.447-1.711,2.5-3.026,3.026
			c-1.579,0.526-3.29,0.921-5,0.921c-1.579,0.131-3.157-0.132-4.737-0.526c-1.447-0.395-2.763-1.315-3.684-2.632
			c0,0,0-0.131-0.132-0.131c-1.842,2.631-4.474,3.289-7.368,3.42c-1.842,0.133-3.816-0.131-5.658-0.657
			c-2.237-0.657-3.947-2.632-4.079-5c-0.132-0.921-0.132-1.843-0.132-2.763v-21.316h3.553c0,0.263,0,0.395,0,0.526v20.921
			c0,0.526,0,1.185,0.131,1.711c0,1.711,1.448,3.158,3.158,3.289c1.842,0.395,3.685,0.395,5.395,0
			c1.974-0.263,3.421-1.974,3.158-3.947c0-0.526,0-1.184,0-1.711v-20.263c0-0.526,0-0.526,0.526-0.526h2.5c0.131,0,0.395,0,0.525,0
			L161.316,135.263z"/>
		<path id="path10" d="M210.658,154.736h3.421c0,0.132,0,0.264,0,0.527c0,1.184,0,2.236,0.132,3.289
			c0.131,1.447,1.184,2.764,2.631,3.026c1.185,0.263,2.237,0.395,3.422,0.526c1.973,0.263,4.078,0.131,6.053-0.264
			c0.263-0.131,0.525-0.131,0.92-0.263c1.316-0.396,2.369-1.579,2.369-2.896c0.131-1.052,0.131-2.104,0-3.157
			c0-1.447-1.185-2.763-2.632-3.026c-1.315-0.264-2.763-0.526-4.079-0.789c-2.368-0.395-4.736-0.79-7.105-1.185
			c-1.053-0.263-2.105-0.658-3.025-1.316c-1.185-0.921-1.975-2.237-2.105-3.816c-0.132-1.447-0.132-3.026,0-4.474
			c0.131-2.237,1.578-4.21,3.815-4.868c1.71-0.526,3.421-0.79,5.132-0.921c2.236-0.131,4.474-0.131,6.711,0.263
			c1.184,0.132,2.367,0.395,3.42,0.921c1.58,0.658,2.764,2.105,3.158,3.815c0.264,1.316,0.264,2.632,0.264,3.948h-3.422v-1.316
			c0-0.526,0-1.053-0.131-1.579c-0.132-1.053-0.922-2.105-1.975-2.5c-1.447-0.526-2.895-0.79-4.473-0.79
			c-1.975-0.131-3.816,0-5.658,0.395c-0.264,0-0.658,0.131-0.921,0.263c-1.185,0.395-2.105,1.447-2.105,2.763
			c-0.132,1.184-0.132,2.368,0,3.552c0,1.185,0.921,2.237,2.105,2.5c1.185,0.263,2.368,0.526,3.685,0.658
			c2.631,0.395,5.263,0.921,8.025,1.316c1.053,0.263,2.105,0.658,2.895,1.316c1.186,0.921,1.975,2.236,2.105,3.815
			c0.132,1.71,0.132,3.421-0.131,5.132c-0.264,1.974-1.711,3.684-3.685,4.342c-1.579,0.526-3.157,0.789-4.868,0.921
			C222.369,165,220,165,217.764,164.736c-1.316-0.131-2.5-0.395-3.816-0.92c-1.711-0.658-2.895-2.237-3.158-4.08
			C210.658,158.158,210.658,156.447,210.658,154.736L210.658,154.736z"/>
		<path id="path58" d="M205.131,164.605v-21.711c0-0.658,0-1.315-0.131-1.974c0-2.237-1.579-4.342-3.816-5
			c-0.525-0.263-1.184-0.395-1.71-0.526c-2.5-0.526-5.132-0.658-7.632-0.395c-1.711,0-3.421,0.263-5,0.79
			c-1.974,0.395-3.553,1.974-4.078,4.079c-0.133,0.921-0.264,1.711-0.264,2.632v22.236h3.553v-10.789h15.658v10.789L205.131,164.605
			z M201.579,150.131v0.527h-15.526V142.5c0-0.526,0-1.053,0.131-1.579c0.264-1.184,1.185-2.237,2.369-2.5
			c1.184-0.395,2.368-0.526,3.684-0.526c1.975-0.131,4.08,0,6.053,0.395c0.264,0,0.658,0.131,0.922,0.263
			c1.315,0.395,2.236,1.71,2.368,3.026c0,0.526,0.132,1.184,0.132,1.71C201.711,145.526,201.579,147.895,201.579,150.131
			L201.579,150.131z"/>
		<path id="path60" d="M136.71,150L136.71,150c0-2.895,0-5.658,0-8.553c0.132-2.237-1.316-4.342-3.421-5.131
			c-0.658-0.263-1.316-0.526-1.974-0.79c-2.632-0.526-5.395-0.658-8.026-0.526c-1.842,0-3.684,0.395-5.526,0.921
			s-3.29,2.105-3.684,3.947c-0.132,0.921-0.263,1.711-0.263,2.632v14.211c0,0.657,0,1.447,0.131,2.105c0,2.367,1.579,4.342,3.816,5
			c0.921,0.395,1.974,0.525,3.026,0.789c2.5,0.395,5.131,0.395,7.763,0.131c1.447-0.131,3.026-0.395,4.342-0.92
			c1.974-0.658,3.29-2.237,3.553-4.343c0.132-0.79,0.132-1.71,0.263-2.5C136.842,154.736,136.71,152.236,136.71,150L136.71,150z
			 M133.158,156.974c0,0.526,0,1.053-0.131,1.579c-0.132,1.315-0.921,2.368-2.237,2.764c-1.184,0.395-2.369,0.657-3.684,0.657
			c-2.105,0.132-4.079,0.132-6.185-0.263h0.132c-2.105-0.264-3.816-2.105-3.553-4.343l0,0c0-4.868,0-9.737,0-14.474
			c0-0.526,0-1.184,0.131-1.71c0.132-1.316,1.053-2.368,2.237-2.763c1.184-0.395,2.5-0.658,3.815-0.658
			c1.974-0.132,4.079,0,6.053,0.263l0.658,0.131c1.711,0.395,2.895,1.842,2.763,3.553c0.132,0.921,0.132,1.71,0.132,2.5V150
			C133.158,152.368,133.158,154.605,133.158,156.974L133.158,156.974z"/>
		<path id="path62" d="M261.447,141.579c-0.131-2.632-1.842-5-4.474-5.658c-1.579-0.395-3.157-0.658-4.737-0.658h-13.289v29.342
			h3.421v-8.422h9.343c1.447,0,2.895-0.131,4.21-0.395c3.026-0.525,5.263-3.025,5.396-6.052
			C261.579,146.974,261.579,144.342,261.447,141.579z M257.895,149.342c-0.131,2.105-1.842,3.684-3.947,3.816
			c-0.526,0.131-1.184,0.131-1.711,0.131H242.5v-15.131h9.342c0.922,0,1.842,0.132,2.764,0.263c1.842,0.395,3.289,1.974,3.421,3.816
			c0.132,1.71,0.132,3.29,0.132,5C258.026,147.895,258.026,148.684,257.895,149.342z"/>
	</g>
</g>
<g id="g10" transform="matrix(1.3333333,0,0,-1.3333333,0,261.50667)">
	<g id="g12" transform="scale(0.1)">
		<path id="path14" d="M544.244,577.821c-142.679,0-258.358,115.671-258.358,258.354c0,142.676,115.679,258.351,258.358,258.351
			c142.672,0,258.351-115.675,258.351-258.351C802.595,693.493,686.917,577.821,544.244,577.821 M544.244,1054.767
			c-120.736,0-218.591-97.87-218.591-218.591c0-120.725,97.855-218.584,218.591-218.584c120.725,0,218.58,97.859,218.58,218.584
			C762.825,956.897,664.97,1054.767,544.244,1054.767"/>
		<path id="path16" d="M628.147,653.107c-8.269,0-38.372,53.584-42.422,68.862c-8.459,31.992-6.643,45.483-6.138,49.812
			c1.553,13.198,14.355,19.783,15.132,37.632c0.238,5.515,3.014,33.051,5.237,54.554c-5.471,1.077-10.942,3.545-15.784,7.379
			c14.564-19.541-6.881-42.942-38.035-74.092c-33.069-33.091-106.469-63.794-106.469-63.794s30.692,73.425,63.765,106.476
			c24.298,24.309,43.901,42.7,60.623,42.7c4.706,0,9.199-1.454,13.488-4.662c-3.834,4.852-6.299,10.313-7.379,15.784
			c-21.511-2.219-49.058-5.002-54.558-5.244c-17.845-0.776-24.434-13.572-37.621-15.117c-1.516-0.176-4.164-0.52-8.361-0.52
			c-7.734,0-20.709,1.165-41.462,6.658c-16.615,4.391-78.523,39.617-67.577,44.048c5.585,2.256,23.383,3.787,46.82,3.787
			c22.544,0,50.299-1.417,77.417-4.937c33.809-4.42,64.812-9.987,85.935-14.128c0.341,1.132,0.751,2.241,1.249,3.307l-21.599,10.353
			c0,0-17.252,19.797-15.41,21.156c0.07,0.055,0.157,0.084,0.264,0.084c2.71,0,16.516-15.784,17.842-17.574
			c1.022-0.341,6.881-2.3,13.026-4.34l-6.105,5.339c0,0-8.368,30.97-6.185,31.699c0.029,0.007,0.059,0.015,0.092,0.015
			c2.281,0,9.873-26.935,10.525-28.861c1.494-1.304,6.53-3.278,12.825-6.907l-6.617,17.029c0,0,2.988,28.085,5.233,28.085
			c0.022,0,0.04-0.007,0.055-0.015c2.26-0.443-0.443-23.423-1.014-26.287c0.813-1.249,5.896-9.034,10.983-16.846
			c3.138,1.183,6.504,1.765,9.965,1.765c3.973,0,8.053-0.762,12.019-2.289c-5.072,10.803-4.695,22.068,2.032,28.792
			c2.131,2.135,4.72,3.622,7.606,4.504c0.355,1.963,1.252,3.827,2.75,5.325c1.952,1.948,4.515,2.915,7.104,2.915
			c2.717,0,5.471-1.066,7.577-3.175c2.021-2.018,3.076-4.618,3.157-7.214c3.252,6.694,7.086,15.725,6.812,18.655
			c-0.619,6.621-8.298,18.347-8.372,18.475c-0.502,0.754-0.289,1.769,0.472,2.274c0.271,0.176,0.582,0.267,0.89,0.267
			c0.531,0,1.062-0.26,1.381-0.74c0.333-0.509,8.21-12.528,8.91-19.973c0.396-4.252-4.497-14.989-7.159-20.468
			c3.743-2.04,7.386-4.75,10.719-8.075c3.318-3.336,6.024-6.969,8.071-10.723c5.281,2.563,15.392,7.185,19.951,7.185
			c0.187,0,0.355,0,0.52-0.015c7.445-0.703,19.471-8.573,19.966-8.917c0.758-0.487,0.97-1.516,0.476-2.274
			c-0.315-0.483-0.846-0.736-1.381-0.736c-0.311,0-0.626,0.081-0.897,0.264c-0.121,0.081-11.847,7.76-18.468,8.375
			c-0.103,0.018-0.212,0.018-0.326,0.018c-3.215,0-11.873-3.68-18.336-6.815c2.596-0.092,5.208-1.15,7.222-3.168
			c4.12-4.124,4.233-10.69,0.256-14.674c-1.498-1.498-3.354-2.417-5.314-2.758c-0.89-2.878-2.395-5.475-4.512-7.606
			c-3.713-3.71-8.8-5.486-14.429-5.486c-4.578,0-9.518,1.176-14.366,3.453c2.845-7.408,3.054-15.253,0.524-21.98
			c7.808-5.087,15.604-10.166,16.853-10.983c2.051,0.403,14.363,1.904,21.387,1.904c2.809,0,4.772-0.249,4.896-0.879
			c0.458-2.263-28.07-5.303-28.07-5.303l-17.032,6.617c3.64-6.292,5.588-11.323,6.903-12.817c1.97-0.663,29.575-8.452,28.843-10.62
			c-0.084-0.256-0.564-0.363-1.359-0.363c-6.086,0-30.33,6.541-30.33,6.541l-5.347,6.112c2.054-6.152,3.992-12.001,4.343-13.03
			c1.871-1.381,18.853-16.245,17.494-18.098c-0.073-0.095-0.19-0.139-0.352-0.139c-2.981,0-20.812,15.531-20.812,15.531
			l-10.349,21.606c-1.077-0.483-2.183-0.894-3.318-1.241c4.142-21.127,9.727-52.126,14.132-85.942
			c7.203-55.305,5.581-113.269,1.15-124.233C629.425,653.517,628.868,653.107,628.147,653.107"/>
	</g>
</g>
<g enable-background="new    ">
	<path d="M96.012,180.81v-2.091h-0.781v-0.438h2.054v0.438h-0.76v2.091H96.012z M97.591,180.81v-2.529h0.8l0.46,1.742l0.463-1.742
		h0.8v2.529h-0.488v-2.017l-0.546,2.017h-0.463l-0.544-2.017v2.017H97.591z"/>
</g>
</svg>
