<?xml version="1.0" encoding="utf-8"?>
<!-- Generator: Adobe Illustrator 16.0.3, SVG Export Plug-In . SVG Version: 6.00 Build 0)  -->
<!DOCTYPE svg PUBLIC "-//W3C//DTD SVG 1.1//EN" "http://www.w3.org/Graphics/SVG/1.1/DTD/svg11.dtd">
<svg version="1.1" id="Layer_1" xmlns="http://www.w3.org/2000/svg" xmlns:xlink="http://www.w3.org/1999/xlink" x="0px" y="0px"
	 width="223.416px" height="68.894px" viewBox="38.118 115.57 223.416 68.894"
	 enable-background="new 38.118 115.57 223.416 68.894" xml:space="preserve">
<g id="g930">
	<g id="g915">
		<path id="path8" fill="#FFFFFF" d="M161.315,135.263v20.92c0,0.922,0,1.711,0.264,2.633c0.132,1.447,1.186,2.631,2.632,2.895
			c1.974,0.525,4.078,0.525,6.185,0c1.711-0.395,2.895-1.843,2.764-3.685c0-0.526,0-1.053,0-1.579v-21.053h3.421
			c0,0.132,0,0.263,0,0.395v21.841c0,1.187-0.132,2.237-0.526,3.422c-0.525,1.447-1.711,2.5-3.025,3.026
			c-1.579,0.526-3.291,0.921-5,0.921c-1.579,0.131-3.157-0.132-4.737-0.525c-1.447-0.396-2.763-1.315-3.685-2.633
			c0,0,0-0.131-0.131-0.131c-1.843,2.631-4.475,3.289-7.369,3.42c-1.842,0.134-3.815-0.131-5.657-0.656
			c-2.237-0.657-3.947-2.633-4.079-5c-0.133-0.922-0.133-1.844-0.133-2.764v-21.315h3.554c0,0.263,0,0.395,0,0.525v20.921
			c0,0.526,0,1.186,0.131,1.712c0,1.711,1.448,3.157,3.158,3.288c1.842,0.396,3.685,0.396,5.396,0
			c1.974-0.263,3.42-1.974,3.157-3.946c0-0.526,0-1.185,0-1.711V135.92c0-0.525,0-0.525,0.526-0.525h2.5c0.131,0,0.395,0,0.525,0
			L161.315,135.263z"/>
		<path id="path10" fill="#FFFFFF" d="M210.658,154.736h3.421c0,0.132,0,0.264,0,0.527c0,1.184,0,2.235,0.132,3.288
			c0.131,1.447,1.185,2.765,2.631,3.026c1.185,0.263,2.237,0.396,3.423,0.526c1.973,0.263,4.077,0.131,6.053-0.265
			c0.263-0.131,0.524-0.131,0.92-0.263c1.316-0.396,2.369-1.579,2.369-2.896c0.131-1.053,0.131-2.104,0-3.157
			c0-1.447-1.186-2.764-2.633-3.026c-1.314-0.264-2.763-0.525-4.078-0.789c-2.369-0.395-4.736-0.79-7.105-1.185
			c-1.053-0.264-2.105-0.658-3.025-1.316c-1.185-0.921-1.975-2.236-2.104-3.815c-0.132-1.447-0.132-3.026,0-4.475
			c0.131-2.236,1.577-4.21,3.815-4.868c1.709-0.525,3.42-0.79,5.131-0.921c2.236-0.131,4.475-0.131,6.711,0.264
			c1.185,0.132,2.367,0.395,3.42,0.921c1.58,0.658,2.765,2.104,3.158,3.814c0.265,1.316,0.265,2.632,0.265,3.948h-3.422v-1.316
			c0-0.525,0-1.053-0.132-1.578c-0.131-1.054-0.922-2.105-1.975-2.5c-1.447-0.526-2.895-0.79-4.473-0.79
			c-1.975-0.132-3.816,0-5.658,0.395c-0.264,0-0.658,0.131-0.921,0.263c-1.185,0.396-2.104,1.447-2.104,2.764
			c-0.133,1.184-0.133,2.368,0,3.552c0,1.185,0.92,2.237,2.104,2.5s2.368,0.526,3.685,0.658c2.631,0.395,5.264,0.921,8.025,1.315
			c1.053,0.264,2.105,0.658,2.895,1.316c1.187,0.921,1.976,2.236,2.105,3.815c0.132,1.71,0.132,3.421-0.131,5.132
			c-0.264,1.974-1.711,3.684-3.686,4.342c-1.578,0.526-3.156,0.789-4.867,0.921C222.369,165,220,165,217.765,164.736
			c-1.316-0.131-2.5-0.396-3.816-0.92c-1.711-0.658-2.895-2.237-3.158-4.08C210.658,158.158,210.658,156.447,210.658,154.736
			L210.658,154.736z"/>
		<path id="path58" fill="#FFFFFF" d="M205.131,164.605v-21.711c0-0.658,0-1.315-0.131-1.975c0-2.236-1.579-4.342-3.815-5
			c-0.525-0.263-1.185-0.395-1.711-0.525c-2.5-0.526-5.132-0.658-7.632-0.396c-1.711,0-3.421,0.264-5,0.79
			c-1.974,0.396-3.553,1.975-4.077,4.079c-0.134,0.921-0.265,1.711-0.265,2.632v22.236h3.553v-10.789h15.658v10.789L205.131,164.605
			z M201.579,150.131v0.527h-15.525V142.5c0-0.525,0-1.053,0.131-1.579c0.264-1.184,1.185-2.236,2.369-2.5
			c1.184-0.395,2.367-0.525,3.684-0.525c1.975-0.131,4.08,0,6.053,0.395c0.264,0,0.658,0.131,0.922,0.264
			c1.314,0.395,2.236,1.71,2.368,3.025c0,0.526,0.132,1.185,0.132,1.71C201.711,145.526,201.579,147.895,201.579,150.131
			L201.579,150.131z"/>
		<path id="path60" fill="#FFFFFF" d="M136.71,150L136.71,150c0-2.895,0-5.658,0-8.553c0.132-2.237-1.316-4.342-3.421-5.131
			c-0.658-0.263-1.315-0.526-1.974-0.79c-2.633-0.526-5.396-0.658-8.026-0.526c-1.843,0-3.685,0.396-5.526,0.921
			c-1.842,0.526-3.289,2.105-3.684,3.947c-0.133,0.921-0.264,1.711-0.264,2.632v14.211c0,0.657,0,1.447,0.131,2.105
			c0,2.367,1.58,4.342,3.816,5c0.922,0.395,1.975,0.524,3.026,0.789c2.5,0.395,5.131,0.395,7.763,0.131
			c1.447-0.131,3.026-0.396,4.342-0.92c1.975-0.658,3.291-2.237,3.553-4.343c0.133-0.79,0.133-1.71,0.264-2.5
			C136.842,154.736,136.71,152.236,136.71,150L136.71,150z M133.158,156.974c0,0.525,0,1.053-0.132,1.578
			c-0.131,1.315-0.92,2.368-2.236,2.765c-1.184,0.395-2.369,0.657-3.684,0.657c-2.105,0.132-4.08,0.132-6.186-0.264h0.133
			c-2.105-0.264-3.816-2.104-3.554-4.343l0,0c0-4.868,0-9.737,0-14.474c0-0.526,0-1.185,0.131-1.71
			c0.132-1.316,1.054-2.368,2.237-2.764c1.184-0.395,2.5-0.657,3.814-0.657c1.975-0.133,4.08,0,6.053,0.263l0.658,0.131
			c1.711,0.395,2.896,1.842,2.764,3.553c0.132,0.921,0.132,1.71,0.132,2.5V150C133.158,152.368,133.158,154.605,133.158,156.974
			L133.158,156.974z"/>
		<path id="path62" fill="#FFFFFF" d="M261.446,141.579c-0.131-2.632-1.842-5-4.473-5.658c-1.58-0.395-3.158-0.657-4.738-0.657
			h-13.289v29.342h3.422v-8.422h9.343c1.447,0,2.896-0.132,4.21-0.396c3.025-0.524,5.264-3.024,5.396-6.052
			C261.579,146.974,261.579,144.342,261.446,141.579z M257.896,149.342c-0.131,2.105-1.843,3.685-3.947,3.816
			c-0.526,0.131-1.184,0.131-1.711,0.131H242.5v-15.131h9.342c0.923,0,1.843,0.132,2.765,0.263c1.842,0.396,3.289,1.975,3.42,3.816
			c0.133,1.71,0.133,3.29,0.133,5C258.026,147.895,258.026,148.684,257.896,149.342z"/>
	</g>
</g>
<g id="g10" transform="matrix(1.3333333,0,0,-1.3333333,0,261.50667)">
	<g id="g12" transform="scale(0.1)">
		<path id="path14" fill="#FFFFFF" d="M544.244,577.823c-142.68,0-258.358,115.671-258.358,258.354
			c0,142.676,115.679,258.347,258.358,258.347c142.672,0,258.351-115.671,258.351-258.347
			C802.595,693.495,686.917,577.823,544.244,577.823 M544.244,1054.769c-120.736,0-218.591-97.874-218.591-218.591
			c0-120.725,97.855-218.584,218.591-218.584c120.725,0,218.58,97.859,218.58,218.584
			C762.825,956.895,664.97,1054.769,544.244,1054.769"/>
		<path id="path16" fill="#FFFFFF" d="M628.147,653.109c-8.269,0-38.372,53.584-42.422,68.862
			c-8.459,31.992-6.643,45.483-6.138,49.812c1.553,13.198,14.355,19.783,15.132,37.632c0.238,5.515,3.014,33.047,5.237,54.551
			c-5.471,1.077-10.942,3.545-15.784,7.383c14.564-19.541-6.881-42.942-38.035-74.092c-33.069-33.091-106.469-63.794-106.469-63.794
			s30.692,73.425,63.765,106.472c24.298,24.309,43.901,42.7,60.623,42.7c4.706,0,9.199-1.45,13.488-4.658
			c-3.834,4.849-6.299,10.313-7.379,15.784c-21.511-2.219-49.058-5.002-54.558-5.244c-17.845-0.776-24.434-13.572-37.621-15.117
			c-1.516-0.176-4.164-0.52-8.361-0.52c-7.734,0-20.709,1.165-41.462,6.658c-16.615,4.387-78.523,39.617-67.577,44.048
			c5.585,2.256,23.383,3.787,46.82,3.787c22.544,0,50.299-1.421,77.417-4.937c33.809-4.424,64.812-9.99,85.935-14.128
			c0.341,1.128,0.751,2.241,1.249,3.303l-21.599,10.356c0,0-17.252,19.797-15.41,21.152c0.07,0.059,0.157,0.088,0.264,0.088
			c2.71,0,16.516-15.784,17.842-17.578c1.022-0.337,6.881-2.3,13.026-4.336l-6.105,5.339c0,0-8.368,30.967-6.185,31.699
			c0.029,0.007,0.059,0.015,0.092,0.015c2.281,0,9.873-26.939,10.525-28.865c1.494-1.304,6.533-3.274,12.825-6.907l-6.614,17.029
			c0,0,2.988,28.088,5.233,28.088c0.022,0,0.037-0.007,0.055-0.015c2.26-0.447-0.443-23.423-1.014-26.287
			c0.813-1.252,5.896-9.038,10.983-16.846c3.138,1.179,6.504,1.765,9.965,1.765c3.973,0,8.053-0.762,12.019-2.292
			c-5.072,10.803-4.695,22.068,2.032,28.792c2.131,2.139,4.72,3.625,7.606,4.504c0.355,1.963,1.252,3.831,2.75,5.325
			c1.952,1.948,4.512,2.915,7.101,2.915c2.717,0,5.471-1.062,7.577-3.171c2.021-2.021,3.076-4.622,3.16-7.214
			c3.252,6.694,7.086,15.725,6.812,18.655c-0.619,6.621-8.298,18.347-8.372,18.472c-0.502,0.754-0.289,1.772,0.469,2.278
			c0.271,0.176,0.582,0.264,0.89,0.264c0.535,0,1.062-0.256,1.384-0.74c0.333-0.505,8.207-12.524,8.91-19.973
			c0.396-4.248-4.497-14.985-7.159-20.464c3.743-2.043,7.386-4.753,10.719-8.079c3.318-3.333,6.024-6.965,8.071-10.723
			c5.281,2.563,15.392,7.185,19.951,7.185c0.187,0,0.355,0,0.52-0.015c7.445-0.703,19.468-8.569,19.966-8.914
			c0.758-0.491,0.97-1.516,0.476-2.278c-0.315-0.483-0.846-0.732-1.381-0.732c-0.311,0-0.626,0.081-0.897,0.264
			c-0.121,0.081-11.847,7.756-18.468,8.372c-0.106,0.022-0.212,0.022-0.326,0.022c-3.215,0-11.876-3.684-18.336-6.819
			c2.596-0.088,5.208-1.15,7.222-3.164c4.12-4.131,4.233-10.693,0.256-14.678c-1.498-1.494-3.354-2.417-5.314-2.761
			c-0.89-2.871-2.395-5.471-4.515-7.603c-3.71-3.713-8.8-5.486-14.429-5.486c-4.578,0-9.518,1.179-14.366,3.45
			c2.845-7.405,3.054-15.249,0.527-21.98c7.808-5.083,15.604-10.166,16.853-10.979c2.051,0.403,14.363,1.904,21.387,1.904
			c2.809,0,4.772-0.249,4.896-0.879c0.458-2.263-28.07-5.303-28.07-5.303l-17.032,6.614c3.64-6.292,5.588-11.323,6.903-12.817
			c1.97-0.659,29.575-8.452,28.843-10.62c-0.084-0.256-0.564-0.359-1.359-0.359c-6.086,0-30.33,6.541-30.33,6.541l-5.35,6.108
			c2.054-6.152,3.995-11.997,4.343-13.03c1.871-1.377,18.856-16.245,17.494-18.098c-0.07-0.095-0.187-0.139-0.352-0.139
			c-2.981,0-20.812,15.535-20.812,15.535l-10.349,21.606c-1.077-0.483-2.183-0.894-3.318-1.245
			c4.142-21.123,9.727-52.126,14.132-85.942c7.203-55.305,5.581-113.269,1.15-124.233
			C629.425,653.519,628.868,653.109,628.147,653.109"/>
	</g>
</g>
<g enable-background="new    ">
	<path fill="#FFFFFF" d="M96.012,180.81v-2.092h-0.781v-0.438h2.054v0.438h-0.76v2.092H96.012z M97.591,180.81v-2.529h0.8
		l0.46,1.742l0.463-1.742h0.8v2.529h-0.488v-2.018l-0.546,2.018h-0.463l-0.544-2.018v2.018H97.591z"/>
</g>
</svg>
