<?xml version="1.0" encoding="utf-8"?>
<!-- Generator: Adobe Illustrator 16.0.3, SVG Export Plug-In . SVG Version: 6.00 Build 0)  -->
<!DOCTYPE svg PUBLIC "-//W3C//DTD SVG 1.1//EN" "http://www.w3.org/Graphics/SVG/1.1/DTD/svg11.dtd">
<svg version="1.1" id="Layer_1" xmlns="http://www.w3.org/2000/svg" xmlns:xlink="http://www.w3.org/1999/xlink" x="0px" y="0px"
	 width="106.854px" height="50.983px" viewBox="6.573 4.503 106.854 50.983" enable-background="new 6.573 4.503 106.854 50.983"
	 xml:space="preserve">
<path d="M45.542,21.47h6.93c4.108,0,5.625,1.694,5.625,4.803v2.423c0,3.092-1.694,4.77-5.786,4.77h-3.38v5.761h-3.388L45.542,21.47z
	 M52.319,24.426h-3.4v6.057h3.388c1.897,0,2.457-0.695,2.457-2.16v-1.787c-0.034-1.465-0.644-2.1-2.457-2.1L52.319,24.426z
	 M69.464,39.227h-2.668l-0.237-0.848c-1.15,0.746-2.492,1.144-3.863,1.145c-2.371,0-3.387-1.627-3.387-3.863
	c0-2.643,1.144-3.65,3.786-3.65h3.117v-1.363c0-1.44-0.398-1.948-2.482-1.948c-1.21,0.013-2.416,0.146-3.6,0.398l-0.398-2.482
	c1.448-0.408,2.943-0.622,4.447-0.635c4.084,0,5.277,1.44,5.277,4.693L69.464,39.227z M66.2,34.32h-2.406
	c-1.067,0-1.364,0.296-1.364,1.279c0,0.984,0.297,1.305,1.305,1.305c0.863-0.01,1.709-0.24,2.457-0.67L66.2,34.32z M71.404,34.506
	v-3.55c0-3.5,1.516-5,5.6-5c1.076,0.007,2.146,0.17,3.178,0.483l-0.398,2.668c-0.882-0.218-1.785-0.335-2.694-0.347
	c-1.864,0-2.423,0.56-2.423,2.16v3.6c0,1.601,0.561,2.16,2.423,2.16c0.909-0.004,1.813-0.12,2.694-0.347L80.18,39
	c-1.029,0.32-2.1,0.482-3.177,0.482c-4.073,0-5.601-1.5-5.601-5L71.404,34.506z M82.23,39.227V20.926l3.252-0.457v18.746
	L82.23,39.227z M93.275,26.25l-3.812,6.43l3.974,6.557h-3.578l-3.922-6.557l3.701-6.43H93.275z M100.043,36.827
	c1.348-0.005,2.686-0.2,3.973-0.601l0.508,2.457c-1.53,0.561-3.147,0.847-4.777,0.848c-4.083,0-5.5-1.897-5.5-5.016v-3.439
	c0-2.745,1.229-5.082,5.387-5.082c4.159,0,5.082,2.423,5.082,5.227V34H97.5v0.67c0,1.566,0.55,2.178,2.533,2.178L100.043,36.827z
	 M97.503,31.363h4.134v-0.645c0-1.228-0.373-2.084-1.974-2.084s-2.16,0.847-2.16,2.084V31.363z M113.427,28.958
	c-1.194,0.543-2.343,1.177-3.44,1.897v8.369h-3.252V26.247h2.744l0.213,1.44c1.05-0.7,2.199-1.28,3.388-1.694L113.427,28.958z"/>
<path fill="#1DAEFF" d="M6.573,10.735L23.1,20.287v35.199L6.573,45.952V10.735z"/>
<path fill="#1D94DD" d="M31.283,14.852L13.32,4.503V11.7l12.213,7.055v21.56l5.75,3.295c3.557,2.055,6.47,0.822,6.47-2.734v-15.8
	c0-3.557-2.912-8.15-6.47-10.204V14.852z"/>
</svg>
