<?xml version="1.0" encoding="utf-8"?>
<!-- Generator: Adobe Illustrator 16.0.3, SVG Export Plug-In . SVG Version: 6.00 Build 0)  -->
<!DOCTYPE svg PUBLIC "-//W3C//DTD SVG 1.1//EN" "http://www.w3.org/Graphics/SVG/1.1/DTD/svg11.dtd">
<svg version="1.1" id="Layer_1" xmlns="http://www.w3.org/2000/svg" xmlns:xlink="http://www.w3.org/1999/xlink" x="0px" y="0px"
	 width="298.795px" height="88.87px" viewBox="0.655 105.573 298.795 88.87" enable-background="new 0.655 105.573 298.795 88.87"
	 xml:space="preserve">
<circle fill="#FFFFFF" cx="44.87" cy="150.472" r="40.411"/>
<path fill="#FF6C37" d="M109.966,162.707v-25.682c-0.005-0.303,0.128-0.593,0.362-0.787c0.26-0.223,0.594-0.341,0.936-0.33h7.234
	c2.142-0.104,4.243,0.607,5.882,1.99c1.479,1.329,2.21,3.413,2.21,6.291v0.338c0,2.862-0.747,4.954-2.249,6.292
	c-1.669,1.396-3.803,2.111-5.977,2.005h-5.127v9.884c0.009,0.172-0.032,0.341-0.118,0.488c-0.082,0.148-0.205,0.271-0.354,0.354
	c-0.34,0.203-0.729,0.309-1.125,0.307c-0.398,0.002-0.79-0.104-1.133-0.307c-0.153-0.078-0.281-0.198-0.369-0.346
	C110.038,163.057,109.979,162.885,109.966,162.707z M113.174,150.126h5.19c0.684,0.045,1.37-0.054,2.013-0.291
	c0.641-0.236,1.227-0.6,1.722-1.069c0.959-1.131,1.431-2.596,1.313-4.074v-0.464c0.114-1.473-0.358-2.931-1.313-4.058
	c-0.494-0.47-1.081-0.832-1.722-1.062c-0.644-0.234-1.329-0.333-2.013-0.291h-5.127L113.174,150.126z"/>
<path fill="#FF6C37" d="M137.827,155.748v-11.52c0-2.868,0.744-4.964,2.233-6.291c3.551-2.672,8.441-2.672,11.993,0
	c1.502,1.345,2.248,3.452,2.256,6.291v11.52c0,2.887-0.746,4.994-2.256,6.291c-3.55,2.693-8.458,2.693-12.008,0
	C138.566,160.734,137.827,158.643,137.827,155.748z M141.043,155.748c0,3.617,1.669,5.429,5.009,5.434
	c0.682,0.041,1.364-0.058,2.005-0.291c0.643-0.229,1.229-0.59,1.722-1.061c0.958-1.133,1.433-2.596,1.322-4.074v-11.528
	c0.055-0.731-0.033-1.465-0.26-2.163c-0.229-0.694-0.589-1.338-1.062-1.895c-1.003-0.951-2.355-1.443-3.735-1.36
	c-3.342,0-5.001,1.816-5.001,5.426V155.748z"/>
<path fill="#FF6C37" d="M165.68,159.916c0.01-0.43,0.162-0.846,0.434-1.18c0.102-0.161,0.238-0.299,0.4-0.4s0.345-0.164,0.535-0.182
	c0.339,0.063,0.648,0.233,0.881,0.488c0.354,0.314,0.723,0.668,1.108,1.053c0.52,0.484,1.136,0.852,1.809,1.078
	c0.894,0.336,1.845,0.496,2.8,0.472c1.413,0.089,2.811-0.339,3.932-1.203c0.988-0.897,1.513-2.198,1.424-3.53
	c0.022-0.631-0.079-1.258-0.299-1.849c-0.223-0.587-0.563-1.122-1-1.573c-0.89-0.889-1.963-1.572-3.145-2.005
	c-1.234-0.456-2.461-0.928-3.735-1.47c-1.235-0.523-2.317-1.351-3.146-2.406c-0.902-1.206-1.36-2.687-1.298-4.191
	c-0.021-1.212,0.248-2.413,0.786-3.5c0.451-0.928,1.162-1.707,2.045-2.241c0.832-0.486,1.727-0.856,2.658-1.101
	c0.965-0.237,1.955-0.354,2.949-0.346c1.535-0.009,3.064,0.222,4.529,0.684c1.438,0.472,2.17,1.101,2.17,1.864
	c-0.016,0.412-0.148,0.811-0.385,1.148c-0.094,0.186-0.238,0.342-0.417,0.448c-0.188,0.126-0.41,0.194-0.638,0.197
	c-0.586-0.187-1.159-0.416-1.714-0.684c-1.118-0.496-2.331-0.745-3.554-0.731c-1.311-0.057-2.607,0.268-3.736,0.936
	c-0.984,0.68-1.533,1.833-1.438,3.027c-0.029,0.54,0.071,1.079,0.291,1.573c0.218,0.5,0.548,0.941,0.968,1.29
	c0.934,0.766,1.999,1.355,3.145,1.738c1.242,0.44,2.478,0.936,3.735,1.494c1.269,0.605,2.354,1.536,3.146,2.697
	c0.906,1.402,1.357,3.051,1.289,4.719c0.001,2.621-0.765,4.605-2.295,5.952c-1.705,1.399-3.869,2.114-6.071,2.005
	c-2.015,0.066-4.007-0.429-5.757-1.431C166.459,161.787,165.68,160.844,165.68,159.916z"/>
<path fill="#FF6C37" d="M191.764,137.308c-0.007-0.353,0.101-0.697,0.307-0.983c0.089-0.141,0.214-0.255,0.362-0.331
	c0.147-0.076,0.313-0.112,0.479-0.102h15.57c0.166-0.01,0.332,0.026,0.479,0.102c0.147,0.077,0.271,0.191,0.362,0.331
	c0.199,0.289,0.307,0.632,0.307,0.983c0.008,0.372-0.1,0.737-0.307,1.046c-0.086,0.147-0.211,0.267-0.362,0.346
	c-0.147,0.077-0.313,0.112-0.479,0.103h-6.118v23.905c0.009,0.172-0.032,0.341-0.118,0.488c-0.082,0.148-0.205,0.271-0.354,0.354
	c-0.34,0.203-0.729,0.309-1.125,0.307c-0.398,0.002-0.789-0.104-1.132-0.307c-0.147-0.084-0.27-0.206-0.354-0.354
	c-0.078-0.15-0.119-0.318-0.117-0.488v-23.905h-6.205c-0.166,0.013-0.333-0.022-0.479-0.103c-0.147-0.072-0.272-0.184-0.361-0.322
	C191.889,138.068,191.765,137.693,191.764,137.308z"/>
<path fill="#FF6C37" d="M220.529,162.707v-25.163c-0.055-0.364,0.032-0.736,0.244-1.038c0.215-0.3,0.54-0.503,0.904-0.566
	c0.167-0.024,0.336-0.024,0.503,0c1.022,0,1.864,0.676,2.571,2.029l6,11.512l6.047-11.512c0.74-1.353,1.573-2.029,2.557-2.029
	c0.753-0.113,1.455,0.403,1.572,1.156l0,0c0.023,0.133,0.023,0.269,0,0.401v25.164c0.002,0.17-0.039,0.338-0.117,0.488
	c-0.083,0.148-0.205,0.271-0.354,0.354c-0.343,0.205-0.733,0.313-1.132,0.314c-0.396-0.001-0.785-0.109-1.125-0.314
	c-0.148-0.082-0.271-0.205-0.354-0.354c-0.086-0.148-0.127-0.317-0.118-0.488v-20.036l-5.749,10.859
	c-0.09,0.268-0.26,0.501-0.486,0.669c-0.438,0.367-1.074,0.367-1.511,0c-0.21-0.168-0.366-0.396-0.448-0.652l-5.771-11.01v20.217
	c0.002,0.172-0.041,0.34-0.126,0.488c-0.081,0.146-0.201,0.27-0.347,0.354c-0.319,0.221-0.696,0.344-1.084,0.354
	c-0.398,0.016-0.791-0.091-1.125-0.307c-0.17-0.075-0.313-0.201-0.409-0.361C220.573,163.076,220.523,162.894,220.529,162.707z"/>
<path fill="#FF6C37" d="M251.938,162.535c0.008-0.108,0.031-0.215,0.07-0.314l7.863-25.165c0.229-0.739,0.865-1.116,1.951-1.116
	c1.085,0,1.729,0.377,1.949,1.116l7.864,25.321c-0.008,0.047-0.008,0.096,0,0.143c0.008,0.035,0.008,0.073,0,0.109
	c-0.009,0.197-0.071,0.387-0.181,0.551c-0.113,0.166-0.268,0.299-0.449,0.385c-0.419,0.26-0.906,0.389-1.398,0.37
	c-0.244,0.034-0.492-0.019-0.701-0.149c-0.211-0.131-0.369-0.331-0.447-0.566l-1.676-5.599h-10.072l-1.676,5.591
	c-0.073,0.242-0.232,0.449-0.448,0.582c-0.21,0.141-0.466,0.197-0.716,0.157c-0.461,0.001-0.912-0.133-1.297-0.386
	c-0.191-0.087-0.354-0.229-0.464-0.408C251.988,162.973,251.928,162.755,251.938,162.535z M257.488,154.867h8.557l-4.286-14.296
	L257.488,154.867z"/>
<path fill="#FF6C37" d="M282.691,162.707v-25.682c0-0.731,0.527-1.109,1.573-1.109c0.495-0.009,0.978,0.159,1.36,0.472
	c0.46,0.449,0.828,0.983,1.086,1.573l9.53,18.668v-19.604c-0.001-0.168,0.042-0.333,0.126-0.479
	c0.084-0.143,0.203-0.262,0.346-0.346c0.348-0.188,0.737-0.285,1.133-0.283c0.393,0,0.779,0.097,1.124,0.283
	c0.146,0.084,0.267,0.203,0.354,0.346c0.08,0.147,0.123,0.312,0.125,0.479v25.682c0.006,0.172-0.037,0.342-0.125,0.488
	c-0.08,0.15-0.203,0.273-0.354,0.354c-0.335,0.213-0.728,0.32-1.124,0.307c-0.904-0.041-1.7-0.611-2.029-1.455l-9.916-19.234v19.541
	c0.012,0.348-0.17,0.672-0.472,0.842c-0.697,0.408-1.56,0.408-2.257,0c-0.151-0.082-0.277-0.204-0.361-0.354
	C282.728,163.047,282.688,162.878,282.691,162.707z"/>
<path fill="#FF6C37" d="M70.482,127.856c-0.062,0.028-0.116,0.072-0.157,0.125c-0.046,0.05-0.081,0.109-0.103,0.173
	c-0.011,0.065-0.011,0.131,0,0.196c0.006,0.068,0.025,0.135,0.055,0.197c0.135,0.267,0.188,0.568,0.149,0.865
	c-0.038,0.288-0.155,0.561-0.338,0.786c-0.087,0.103-0.127,0.236-0.11,0.37c0.015,0.134,0.083,0.256,0.189,0.338
	c0.1,0.085,0.23,0.127,0.361,0.118c0.134-0.008,0.259-0.071,0.346-0.173c0.319-0.383,0.521-0.85,0.582-1.345
	c0.057-0.498-0.034-1-0.26-1.447c-0.061-0.119-0.165-0.209-0.291-0.252C70.765,127.768,70.612,127.784,70.482,127.856z"/>
<path fill="#FF6C37" d="M50.689,105.932c-24.342-3.092-46.583,14.134-49.675,38.477c-3.092,24.342,14.134,46.582,38.477,49.675
	c24.321,3.09,46.548-14.104,49.668-38.421C92.252,131.311,75.037,109.056,50.689,105.932z M59.851,133.651
	c-0.828,0.008-1.619,0.341-2.202,0.928l-16.514,16.515l-3.522-3.523C53.882,131.339,56.823,131.182,59.851,133.651z M41.811,151.644
	l16.467-16.435c0.898-0.896,2.352-0.894,3.248,0.004c0.222,0.223,0.396,0.489,0.511,0.782c0.112,0.291,0.166,0.601,0.157,0.912
	c-0.009,0.314-0.084,0.622-0.22,0.905c-0.134,0.283-0.324,0.538-0.558,0.747L43.99,153.822L41.811,151.644z M43.038,154.215
	l-4.082,0.896c-0.045,0.021-0.096,0.021-0.141,0c-0.046-0.018-0.085-0.051-0.11-0.094c-0.015-0.047-0.015-0.096,0-0.143
	c0.009-0.049,0.031-0.095,0.063-0.133l2.359-2.359L43.038,154.215z M32.642,152.517l4.317-4.341l3.263,3.248l-7.345,1.572
	c-0.058,0.023-0.123,0.023-0.181,0c-0.057-0.026-0.104-0.07-0.134-0.126c-0.019-0.056-0.019-0.116,0-0.173
	C32.565,152.629,32.593,152.564,32.642,152.517z M19.117,174.951c-0.053-0.006-0.102-0.027-0.142-0.063
	c-0.044-0.029-0.08-0.07-0.102-0.118c-0.021-0.05-0.021-0.106,0-0.157c0.012-0.05,0.037-0.096,0.071-0.134l3.507-3.507l4.538,4.529
	L19.117,174.951z M28.113,170.297c-0.165,0.087-0.297,0.225-0.377,0.393c-0.081,0.172-0.101,0.366-0.055,0.551l0.747,3.2
	c0.032,0.095,0.032,0.196,0,0.291c-0.039,0.091-0.108,0.166-0.197,0.212c-0.087,0.054-0.19,0.073-0.291,0.055
	c-0.097-0.01-0.188-0.052-0.26-0.117l-4.553-4.545l13.911-13.927l6.755-1.447l3.24,3.239c-4.663,4.066-11.009,8.14-18.92,12.087
	V170.297z M47.686,157.604l-3.146-3.145l17.458-15.24c0.165-0.14,0.312-0.298,0.44-0.472c-0.55,4.985-7.525,12.016-14.744,18.873
	L47.686,157.604z M61.243,133.675c-2.651-2.619-2.677-6.891-0.059-9.542c2.485-2.516,6.491-2.686,9.18-0.39l-5.984,5.969
	c-0.038,0.042-0.07,0.089-0.094,0.141c-0.052,0.109-0.052,0.237,0,0.346c0.024,0.052,0.056,0.1,0.094,0.142l4.624,4.616
	c-2.592,1.278-5.71,0.762-7.753-1.282H61.243z M70.805,133.675c-0.308,0.296-0.645,0.559-1.006,0.787l-4.475-4.435l5.686-5.678
	c2.434,2.669,2.33,6.783-0.236,9.326H70.805z"/>
</svg>
