<?xml version="1.0" encoding="utf-8"?>
<!-- Generator: Adobe Illustrator 27.3.1, SVG Export Plug-In . SVG Version: 6.00 Build 0)  -->
<svg version="1.1" id="Layer_1" xmlns="http://www.w3.org/2000/svg" xmlns:xlink="http://www.w3.org/1999/xlink" x="0px" y="0px"
	 viewBox="0 0 107.6 48.7" style="enable-background:new 0 0 107.6 48.7;" xml:space="preserve">
<style type="text/css">
	.st0{fill:#FFFFFF;}
	.st1{fill:#367FAF;}
	.st2{fill:#231F20;stroke:#231F20;stroke-width:2.598;}
	.st3{fill:#417BA2;}
	.st4{fill:none;stroke:#FFFFFF;stroke-width:0.866;stroke-linecap:round;stroke-linejoin:round;}
	.st5{fill:none;stroke:#FFFFFF;stroke-width:0.866;stroke-linecap:round;stroke-linejoin:bevel;}
	.st6{fill:none;stroke:#FFFFFF;stroke-width:0.866;stroke-linejoin:round;}
	.st7{fill:#FFFFFF;stroke:#FFFFFF;stroke-width:0.289;}
	.st8{fill:#FFFFFF;stroke:#FFFFFF;stroke-width:0.144;}
</style>
<path class="st0" d="M6.7,38.9H1.5v-5.2H7c2,0,3,0.9,3,2.7C10,38,8.9,38.9,6.7,38.9 M10.5,33.6c-0.7-0.6-1.7-1-3-1H0v12.6h1.5v-5.3
	h5.6c1.4,0,2.5-0.3,3.3-1s1.2-1.5,1.2-2.7S11.2,34.2,10.5,33.6L10.5,33.6z M20.2,42.6c-0.1,0.4-0.4,0.8-0.7,1.1
	c-0.7,0.7-1.7,1-3.1,1c-1.2,0-2.2-0.3-2.9-1s-1-1.5-1-2.6c0-0.6,0.1-1.1,0.3-1.5s0.4-0.8,0.8-1.1c0.7-0.6,1.6-0.9,2.9-0.9
	c2.7,0,4,1.2,4,3.5C20.4,41.7,20.4,42.2,20.2,42.6 M20.5,38c-0.9-0.8-2.3-1.3-4.1-1.3c-1.7,0-3,0.4-3.9,1.3
	c-0.8,0.8-1.3,1.8-1.3,3.1s0.4,2.4,1.3,3.2c0.5,0.4,1,0.7,1.7,0.9s1.4,0.3,2.2,0.3c1.8,0,3.2-0.4,4.1-1.2c0.8-0.8,1.3-1.8,1.3-3.1
	C21.8,39.8,21.3,38.7,20.5,38L20.5,38z M31.9,42.9c0,1.7-1.5,2.5-4.5,2.5c-0.9,0-1.7-0.1-2.3-0.2s-1.1-0.3-1.5-0.6
	c-0.3-0.2-0.6-0.5-0.7-0.8c-0.2-0.3-0.3-0.8-0.4-1.3h1.4c0,0.7,0.2,1.2,0.7,1.5c0.5,0.4,1.5,0.6,2.8,0.6c2.1,0,3.2-0.5,3.2-1.6
	c0-0.6-0.4-1-1.1-1.3c-0.1,0-1-0.2-2.6-0.4s-2.5-0.4-2.9-0.5c-0.8-0.3-1.3-0.9-1.3-1.8c0-0.8,0.4-1.5,1.1-1.9
	c0.4-0.2,0.8-0.3,1.4-0.4s1.2-0.1,1.9-0.1c2.9,0,4.4,0.9,4.4,2.7h-1.3c0-1.3-1-1.9-3.1-1.9c-1,0-1.8,0.1-2.3,0.4S24,38.6,24,39.1
	s0.3,0.9,1,1.1c0.4,0.1,1.3,0.3,2.8,0.4c1.3,0.1,2.2,0.3,2.7,0.5C31.4,41.5,31.9,42.1,31.9,42.9L31.9,42.9z M37.4,45.2l-0.6,0.1
	h-0.4c-0.9,0-1.6-0.1-2-0.4s-0.6-0.7-0.6-1.4v-5.7h-1.7V37h1.7v-2.7h1.3V37h2.2v0.9h-2.2v5.6c0,0.4,0.1,0.7,0.3,0.9s0.6,0.2,1.2,0.2
	c0.1,0,0.2,0,0.3,0s0.2,0,0.4-0.1L37.4,45.2L37.4,45.2z M46.3,43.3c-0.4,0.3-0.8,0.5-1.2,0.7c-0.5,0.2-1,0.2-1.5,0.2
	c-2.7,0-4-1.1-4-3.3c0-1,0.3-1.8,1-2.4s1.7-0.9,2.9-0.9c1.3,0,2.2,0.3,2.9,0.9s1,1.4,1,2.4C47.3,41.9,47,42.7,46.3,43.3 M48.6,37
	h-1.3v1.4c-0.6-0.6-1-0.9-1.2-1.1c-0.7-0.4-1.7-0.6-2.8-0.6c-1.7,0-3,0.4-3.8,1.1c-0.8,0.7-1.3,1.7-1.3,3c0,0.7,0.1,1.2,0.3,1.8
	s0.5,1,0.9,1.3c0.9,0.7,2.1,1.1,3.7,1.1c1.9,0,3.3-0.5,4.1-1.6v1.5c0,0.9-0.3,1.7-0.9,2.2s-1.6,0.8-2.9,0.8c-1.3,0-2.2-0.2-2.7-0.5
	c-0.4-0.3-0.7-0.7-0.8-1.4h-1.3c0.1,0.9,0.5,1.6,1.2,2c0.7,0.5,2,0.7,3.7,0.7c3.4,0,5-1.2,5-3.7L48.6,37L48.6,37z M55.5,37.8
	c-0.4-0.1-0.7-0.1-1.1-0.1c-2.1,0-3.2,1.2-3.2,3.5v4H50V37h1.3v1.5h0.1c0.2-0.6,0.6-1,1-1.3c0.5-0.3,1.3-0.4,2.3-0.4h0.9L55.5,37.8
	L55.5,37.8z M56.7,40.6c0.2-0.9,0.5-1.7,1.1-2.2c0.4-0.3,0.8-0.5,1.3-0.7s1-0.2,1.6-0.2c1.1,0,2.1,0.3,2.8,0.9s1.1,1.3,1.1,2.1
	L56.7,40.6 M64.7,38c-0.5-0.5-1-0.8-1.7-1s-1.4-0.3-2.3-0.3c-1.7,0-3,0.4-3.9,1.2s-1.4,1.8-1.4,3.2s0.4,2.4,1.3,3.2
	c1,0.9,2.3,1.3,4,1.3c0.7,0,1.3-0.1,1.9-0.2s1.1-0.4,1.5-0.7c0.8-0.6,1.3-1.2,1.5-2.1h-1.4c-0.5,1.4-1.7,2.1-3.6,2.1
	c-1.3,0-2.4-0.3-3.1-1c-0.6-0.6-0.9-1.4-0.9-2.3h9.2C65.9,39.9,65.5,38.8,64.7,38L64.7,38z"/>
<path class="st1" d="M79.5,41.9c0,2.4-2,3.7-5.9,3.7c-2.4,0-4.1-0.4-5.2-1.3c-0.9-0.7-1.3-1.8-1.3-3.2h1.6c0,2.3,1.6,3.4,4.9,3.4
	c1.6,0,2.7-0.2,3.4-0.7c0.6-0.4,0.9-1.1,0.9-1.9c0-0.9-0.4-1.5-1.2-1.8c-0.5-0.2-1.6-0.4-3.4-0.7c-2.2-0.3-3.7-0.7-4.4-1
	c-1-0.5-1.4-1.4-1.4-2.6c0-1.1,0.4-2,1.2-2.5c0.9-0.6,2.4-0.9,4.5-0.9c3.9,0,5.8,1.3,5.8,3.9h-1.6c0-1.9-1.4-2.9-4.3-2.9
	c-1.4,0-2.5,0.2-3.2,0.6c-0.6,0.4-0.9,1-0.9,1.8s0.4,1.4,1.2,1.8c0.4,0.2,1.7,0.5,3.8,0.8c2,0.3,3.3,0.6,4,1
	C79,39.8,79.5,40.7,79.5,41.9L79.5,41.9z M92.4,43.1c-0.6,0.5-1.3,0.8-2,1.1c-0.7,0.2-1.6,0.4-2.5,0.4c-1.9,0-3.4-0.5-4.6-1.5
	s-1.8-2.4-1.8-4.1c0-1.8,0.6-3.1,1.7-4.1s2.7-1.5,4.6-1.5s3.5,0.5,4.6,1.5c0.6,0.5,1,1.1,1.3,1.8s0.4,1.4,0.4,2.3
	C94.2,40.7,93.6,42.1,92.4,43.1 M93.2,43.9c0.8-0.6,1.4-1.3,1.8-2.1s0.6-1.8,0.6-2.9c0-2-0.6-3.5-1.9-4.7c-0.7-0.6-1.5-1.1-2.5-1.4
	s-2.1-0.5-3.4-0.5c-2.4,0-4.4,0.6-5.8,1.8s-2,2.8-2,4.8s0.7,3.6,2.1,4.8s3.3,1.8,5.8,1.8c1,0,1.8-0.1,2.5-0.2s1.3-0.3,1.8-0.6
	l2.3,1.6l1-0.9L93.2,43.9L93.2,43.9z M107.6,45.2H96.7V32.6h1.5v11.5h9.4V45.2L107.6,45.2z"/>
<path class="st2" d="M60.6,22.5c0.2-1.6,0.1-1.9,1.4-1.6h0.3c0.9,0,2.2-0.1,2.9-0.5c1.6-0.7,2.5-1.9,0.9-1.6
	c-3.5,0.7-3.7-0.5-3.7-0.5c3.6-5.4,5.2-12.3,3.8-14c-3.6-4.6-9.9-2.4-10-2.4l0,0c-0.7-0.1-1.5-0.2-2.3-0.2c-1.6,0-2.8,0.4-3.7,1.1
	c0,0-11.2-4.6-10.7,5.8c0.1,2.2,3.2,16.8,6.8,12.4c1.3-1.6,2.6-3,2.6-3c0.6,0.4,1.4,0.6,2.2,0.6l0.1-0.1c0,0.2,0,0.4,0,0.6
	c-0.9,1.1-0.7,1.2-2.5,1.6c-1.9,0.4-0.8,1.1-0.1,1.3c0.9,0.2,2.9,0.5,4.3-1.4l-0.1,0.2c0.4,0.3,0.3,2.1,0.4,3.4s0.1,2.5,0.4,3.2
	c0.3,0.7,0.6,2.6,3.1,2C58.8,29.1,60.4,28.5,60.6,22.5"/>
<path class="st3" d="M66.1,18.8c-3.5,0.7-3.7-0.5-3.7-0.5c3.6-5.4,5.2-12.3,3.8-14c-3.6-4.6-9.9-2.4-10-2.4l0,0
	c-0.7-0.1-1.5-0.2-2.3-0.2c-1.6,0-2.8,0.4-3.7,1.1c0,0-11.2-4.6-10.7,5.8c0.1,2.2,3.2,16.8,6.8,12.4c1.3-1.6,2.6-3,2.6-3
	c0.6,0.4,1.4,0.6,2.2,0.6l0.1-0.1c0,0.2,0,0.4,0,0.6c-0.9,1.1-0.7,1.2-2.5,1.6c-1.9,0.4-0.8,1.1-0.1,1.3c0.9,0.2,2.9,0.5,4.3-1.4
	l-0.1,0.2c0.4,0.3,0.6,1.9,0.6,3.4s-0.1,2.5,0.2,3.3s0.6,2.6,3.1,2c2.1-0.4,3.1-1.6,3.3-3.5c0.1-1.4,0.3-1.2,0.4-2.4l0.2-0.6
	c0.2-1.9,0-2.4,1.3-2.2h0.3c0.9,0,2.2-0.1,2.9-0.5C66.7,19.7,67.6,18.5,66.1,18.8L66.1,18.8z"/>
<g>
	<g>
		<path class="st4" d="M53.1,19.9c-0.1,3.4,0,6.9,0.4,7.7c0.3,0.8,1.1,2.5,3.5,1.9c2.1-0.4,2.8-1.3,3.1-3.2l0.8-6.1 M50.2,2.7
			c0,0-11.2-4.6-10.7,5.8c0.1,2.2,3.2,16.8,6.8,12.4c1.3-1.6,2.5-2.9,2.5-2.9 M56.2,1.8c-0.4,0.1,6.2-2.4,10,2.4
			c1.3,1.7-0.2,8.6-3.9,14.1"/>
		<path class="st5" d="M62.3,18.3c0,0,0.2,1.2,3.7,0.5c1.5-0.3,0.6,0.9-0.9,1.6c-1.3,0.6-4.1,0.7-4.2-0.1
			C60.8,18.2,62.4,18.9,62.3,18.3c-0.1-0.5-0.8-0.9-1.3-2.1c-0.4-1-5.8-8.8,1.5-7.7c0.3-0.1-1.9-6.9-8.7-7s-6.5,8.3-6.5,8.3"/>
	</g>
	<g>
		<path class="st6" d="M51.2,19.1c-0.9,1.1-0.7,1.2-2.5,1.6c-1.9,0.4-0.8,1.1-0.1,1.3c0.9,0.2,2.9,0.5,4.3-1.4
			c0.4-0.6,0-1.5-0.6-1.8C52.1,18.7,51.7,18.5,51.2,19.1L51.2,19.1z"/>
		<path class="st4" d="M51.2,19c-0.1-0.6,0.2-1.4,0.5-2.2c0.5-1.3,1.6-2.6,0.7-6.7c-0.7-3.1-5.1-0.6-5.1-0.2s0.2,2.1-0.1,4.1
			c-0.4,2.6,1.6,4.7,3.9,4.5"/>
	</g>
</g>
<g>
	<path class="st7" d="M50.1,9.8c0,0.1,0.3,0.5,0.6,0.6s0.7-0.2,0.7-0.4s-0.3-0.3-0.6-0.4S50.1,9.7,50.1,9.8L50.1,9.8z"/>
	<path class="st8" d="M61.2,9.6c0,0.1-0.3,0.5-0.6,0.6s-0.7-0.2-0.7-0.4s0.3-0.3,0.6-0.3S61.2,9.4,61.2,9.6L61.2,9.6z"/>
</g>
<path class="st4" d="M62.5,8.6c0.1,1.1-0.2,1.9-0.3,3c-0.1,1.7,0.8,3.7-0.5,5.7"/>
</svg>
