<?xml version="1.0" encoding="utf-8"?>
<!-- Generator: Adobe Illustrator 16.0.3, SVG Export Plug-In . SVG Version: 6.00 Build 0)  -->
<!DOCTYPE svg PUBLIC "-//W3C//DTD SVG 1.1//EN" "http://www.w3.org/Graphics/SVG/1.1/DTD/svg11.dtd">
<svg version="1.1" id="Layer_1" xmlns="http://www.w3.org/2000/svg" xmlns:xlink="http://www.w3.org/1999/xlink" x="0px" y="0px"
	 width="91.391px" height="49.462px" viewBox="9.643 4.602 91.391 49.462" enable-background="new 9.643 4.602 91.391 49.462"
	 xml:space="preserve">
<path fill="#DA4E31" d="M55.35,4.602c-9.23,0-16.713,7.482-16.713,16.713S46.12,38.027,55.35,38.027s16.712-7.482,16.712-16.712
	S64.58,4.602,55.35,4.602z M55.35,35.882c-2.626,0-4.755-1.754-4.755-3.918h9.51C60.105,34.127,57.975,35.882,55.35,35.882z
	 M63.204,30.667h-15.71v-2.85h15.699v2.85H63.204z M63.148,26.352H47.54l-0.155-0.18c-1.608-1.953-1.987-2.972-2.354-4.01
	c-0.006-0.034,1.95,0.4,3.337,0.712c0.583,0.131,1.169,0.249,1.757,0.355c-1.002-1.174-1.597-2.667-1.597-4.193
	c0-3.35,2.57-6.278,1.642-8.644c0.902,0.073,1.867,1.904,1.932,4.767c0.96-1.325,1.36-3.746,1.36-5.23
	c0-1.537,1.013-3.322,2.025-3.383c-0.903,1.488,0.234,2.764,1.244,5.928c0.38,1.19,0.33,3.19,0.623,4.457
	c0.097-2.635,0.55-6.48,2.222-7.806c-0.737,1.67,0.11,3.763,0.688,4.768c0.934,1.622,1.5,2.85,1.5,5.176
	c0,1.56-0.574,3.026-1.546,4.173c1.104-0.207,1.866-0.394,1.866-0.394l3.584-0.7c0,0-0.52,2.14-2.521,4.204H63.148z"/>
<path fill="#E6522C" d="M9.643,41.523c0.778-0.129,1.797-0.239,3.093-0.239c1.593,0,2.76,0.37,3.5,1.036
	c0.667,0.594,1.093,1.5,1.093,2.613c0,1.129-0.333,2.02-0.963,2.666c-0.87,0.908-2.24,1.371-3.816,1.371
	c-0.482,0-0.926-0.021-1.297-0.101v5h-1.6L9.643,41.523z M11.243,47.544c0.352,0.093,0.797,0.13,1.334,0.13
	c1.945,0,3.13-0.963,3.13-2.65c0-1.666-1.185-2.463-2.945-2.463c-0.704,0-1.24,0.057-1.52,0.131L11.243,47.544z M19.136,47.691
	l-0.074-2.797h1.426l0.074,1.778h0.056c0.408-1.204,1.408-1.964,2.5-1.964c0.167,0,0.296,0.02,0.445,0.037v1.537
	c-0.167-0.037-0.333-0.037-0.556-0.037c-1.148,0-1.963,0.852-2.186,2.074c-0.038,0.252-0.057,0.506-0.056,0.761v4.78h-1.63v-6.168
	L19.136,47.691z M33.13,49.292c0,3.315-2.315,4.76-4.464,4.76c-2.408,0-4.297-1.778-4.297-4.612c0-2.981,1.982-4.741,4.446-4.741
	C31.39,44.698,33.131,46.568,33.13,49.292L33.13,49.292z M26.036,49.385c0,1.965,1.1,3.445,2.704,3.445
	c1.556,0,2.723-1.463,2.723-3.482c0-1.52-0.76-3.427-2.686-3.427C26.869,45.921,26.037,47.699,26.036,49.385L26.036,49.385z
	 M35.188,47.309l-0.074-2.426h1.426l0.074,1.463h0.056c0.5-0.852,1.334-1.65,2.834-1.65c1.204,0,2.13,0.74,2.52,1.798h0.037
	c0.25-0.46,0.597-0.858,1.019-1.167c0.537-0.407,1.1-0.631,1.963-0.631c1.204,0,2.964,0.779,2.964,3.9v5.26h-1.593V48.8
	c0-1.739-0.65-2.76-1.945-2.76c-0.945,0-1.65,0.685-1.945,1.463c-0.083,0.264-0.127,0.538-0.13,0.815v5.537H40.8v-5.369
	c0-1.426-0.63-2.445-1.87-2.445c-1,0-1.76,0.814-2.02,1.63c-0.093,0.222-0.13,0.521-0.13,0.797v5.4h-1.593v-6.54L35.188,47.309z
	 M51.545,49.664c0.037,2.204,1.426,3.111,3.075,3.111c1.167,0,1.9-0.203,2.482-0.463l0.296,1.168c-0.574,0.26-1.574,0.574-3,0.574
	c-2.76,0-4.408-1.834-4.408-4.539c0-2.703,1.593-4.815,4.205-4.815c2.945,0,3.705,2.556,3.705,4.204
	c0.005,0.256-0.014,0.51-0.056,0.761L51.545,49.664z M56.325,48.497c0.02-1.021-0.426-2.63-2.26-2.63c-1.667,0-2.37,1.5-2.5,2.63
	H56.325z M61.88,42.736v2.15h2.334v1.24H61.88v4.835c0,1.101,0.315,1.74,1.224,1.74c0.444,0,0.703-0.037,0.944-0.101l0.074,1.24
	c-0.315,0.1-0.815,0.223-1.445,0.223c-0.76,0-1.37-0.26-1.76-0.686c-0.445-0.5-0.63-1.297-0.63-2.354v-4.899H58.9v-1.24h1.4V43.23
	L61.88,42.736z M66.05,40.689h1.63v5.613h0.037c0.275-0.488,0.68-0.892,1.167-1.167c0.507-0.292,1.082-0.444,1.667-0.444
	c1.204,0,3.131,0.74,3.131,3.815v5.334h-1.631V48.7c0-1.445-0.537-2.65-2.074-2.65c-1.057,0-1.871,0.74-2.187,1.601
	c-0.092,0.24-0.101,0.481-0.101,0.777v5.4h-1.629V40.7L66.05,40.689z M77.238,49.654c0.037,2.203,1.426,3.111,3.074,3.111
	c1.168,0,1.9-0.203,2.482-0.463l0.296,1.168c-0.573,0.26-1.573,0.573-3,0.573c-2.76,0-4.399-1.834-4.399-4.538
	s1.593-4.816,4.205-4.816c2.944,0,3.705,2.557,3.705,4.205c0.006,0.255-0.014,0.51-0.057,0.76H77.238z M82.018,48.486
	c0.021-1.02-0.426-2.629-2.26-2.629c-1.667,0-2.369,1.5-2.5,2.629H82.018z M93.111,51.396l0.074,2.465H91.74l-0.094-1.463H91.6
	c-0.408,0.722-1.369,1.666-2.963,1.666c-1.408,0-3.094-0.797-3.094-3.926v-5.242h1.63v4.944c0,1.704,0.537,2.87,2,2.87
	c1.093,0,1.853-0.76,2.15-1.5c0.102-0.266,0.151-0.549,0.147-0.834v-5.482h1.631L93.111,51.396z M95.596,52.211
	c0.5,0.296,1.352,0.63,2.166,0.63c1.168,0,1.723-0.573,1.723-1.334c0-0.778-0.463-1.185-1.65-1.63c-1.63-0.593-2.4-1.463-2.4-2.538
	c0-1.444,1.186-2.63,3.094-2.63c0.908,0,1.703,0.24,2.186,0.557l-0.4,1.185c-0.352-0.222-1-0.537-1.834-0.537
	c-0.963,0-1.481,0.556-1.481,1.223c0,0.74,0.519,1.074,1.685,1.537c1.537,0.574,2.353,1.353,2.353,2.687
	c0,1.593-1.24,2.703-3.334,2.703c-0.982,0-1.9-0.26-2.521-0.629L95.596,52.211z"/>
</svg>
