<?xml version="1.0" encoding="utf-8"?>
<!-- Generator: Adobe Illustrator 16.0.3, SVG Export Plug-In . SVG Version: 6.00 Build 0)  -->
<!DOCTYPE svg PUBLIC "-//W3C//DTD SVG 1.1//EN" "http://www.w3.org/Graphics/SVG/1.1/DTD/svg11.dtd">
<svg version="1.1" id="Layer_1" xmlns="http://www.w3.org/2000/svg" xmlns:xlink="http://www.w3.org/1999/xlink" x="0px" y="0px"
	 width="82.368px" height="25.46px" viewBox="18.758 17.178 82.368 25.46" enable-background="new 18.758 17.178 82.368 25.46"
	 xml:space="preserve">
<path fill="#EE985D" d="M99.348,20.712c0.911,0.008,1.656-0.725,1.665-1.636c0.008-0.912-0.726-1.658-1.637-1.666
	c-0.903-0.01-1.644,0.722-1.664,1.61c-0.021,0.912,0.702,1.675,1.636,1.69V20.712z"/>
<g>
	<g>
		<path id="B" fill="#512568" d="M68.305,21.997c-0.738,0.002-1.334,0.599-1.337,1.336v6.976c0,2.146-1.739,3.886-3.886,3.886
			s-3.886-1.74-3.886-3.886v-6.976c-0.002-0.737-0.599-1.334-1.336-1.336c-0.737,0.002-1.333,0.599-1.336,1.336v6.976
			c0.001,3.622,2.937,6.556,6.558,6.558c3.621-0.002,6.557-2.937,6.559-6.558v-6.976C69.638,22.596,69.041,21.999,68.305,21.997z"/>
	</g>
	<path fill="#512568" d="M52.578,17.487c-0.737,0.002-1.334,0.599-1.336,1.336v16.72c0.002,0.736,0.599,1.334,1.336,1.336
		c0.737-0.002,1.333-0.6,1.336-1.336v-16.72C53.912,18.086,53.315,17.489,52.578,17.487z M99.359,21.987
		c-0.736,0.002-1.333,0.599-1.336,1.336v12.206c0.003,0.738,0.6,1.334,1.336,1.337c0.738-0.003,1.334-0.599,1.336-1.337V23.333
		c-0.002-0.737-0.598-1.334-1.336-1.336V21.987z"/>
	<g>
		<path id="B_1_" fill="#512568" d="M47.296,21.997c-0.737,0.002-1.333,0.599-1.336,1.336v6.976c0,2.146-1.74,3.886-3.886,3.886
			s-3.886-1.74-3.886-3.886v-6.976c-0.002-0.737-0.599-1.334-1.336-1.336c-0.737,0.002-1.334,0.599-1.336,1.336v6.976
			c0.001,3.622,2.937,6.556,6.558,6.558c3.621-0.002,6.557-2.937,6.558-6.558v-6.976C48.63,22.596,48.033,21.999,47.296,21.997z"/>
	</g>
	<path fill="#512568" d="M88.855,21.997c-2.052,0-3.985,0.963-5.222,2.602c-1.235-1.639-3.169-2.602-5.222-2.602
		c-3.621,0.001-6.557,2.937-6.559,6.558v6.976c0.003,0.736,0.6,1.334,1.336,1.336c0.737-0.002,1.334-0.6,1.336-1.336v-6.976
		c0-2.146,1.74-3.886,3.887-3.886s3.886,1.74,3.886,3.886v6.976c-0.004,0.734,0.588,1.333,1.323,1.338
		c0.094,0,0.188-0.01,0.281-0.029c0.086-0.018,0.169-0.043,0.25-0.078c0.16-0.068,0.304-0.166,0.425-0.287
		c0.251-0.25,0.392-0.59,0.392-0.943v-6.976c0-2.146,1.74-3.886,3.887-3.886c2.146,0,3.886,1.74,3.886,3.886v6.976
		c0.002,0.736,0.599,1.334,1.336,1.336c0.737-0.002,1.333-0.6,1.336-1.336v-6.976C95.412,24.934,92.477,21.998,88.855,21.997
		L88.855,21.997z M26.426,21.997c-4.105,0.003-7.432,3.33-7.435,7.435v11.82c0.002,0.736,0.599,1.334,1.336,1.336
		c0.737-0.002,1.333-0.6,1.336-1.336v-11.82c0-2.63,2.132-4.763,4.763-4.763c2.631,0,4.763,2.132,4.763,4.763
		c0,2.63-2.132,4.763-4.763,4.763c-0.738,0-1.336,0.598-1.336,1.336s0.598,1.336,1.336,1.336c4.105-0.003,7.433-3.33,7.435-7.435
		C33.858,25.327,30.531,22,26.426,21.997L26.426,21.997z"/>
</g>
<path fill="#EE985D" d="M46.803,20.504l-0.01-0.1c-0.05-0.588-0.538-1.05-1.14-1.05c-0.185,0-0.357,0.048-0.512,0.125
	c-0.28-1.21-1.357-2.068-2.6-2.069c-1.113,0-2.067,0.68-2.47,1.648c-0.285-0.185-0.617-0.283-0.957-0.283
	c-0.978,0-1.77,0.792-1.77,1.77l0,0c0,0.5,0.398,0.568,1.05,0.568H46.2c0.38,0,0.602-0.303,0.602-0.6L46.803,20.504z"/>
</svg>
