<?xml version="1.0" encoding="utf-8"?>
<!-- Generator: Adobe Illustrator 16.0.3, SVG Export Plug-In . SVG Version: 6.00 Build 0)  -->
<!DOCTYPE svg PUBLIC "-//W3C//DTD SVG 1.1//EN" "http://www.w3.org/Graphics/SVG/1.1/DTD/svg11.dtd">
<svg version="1.1" id="Layer_1" xmlns="http://www.w3.org/2000/svg" xmlns:xlink="http://www.w3.org/1999/xlink" x="0px" y="0px"
	 width="105.22px" height="35.191px" viewBox="7.39 12.405 105.22 35.191" enable-background="new 7.39 12.405 105.22 35.191"
	 xml:space="preserve">
<g transform="matrix(1.216601 0 0 1.216601 -17.277149 11.431622)">
	<path fill="#EE4C2C" d="M40.8,9.3l-2.1,2.1c3.5,3.5,3.5,9.201,0,12.7c-3.5,3.5-9.2,3.5-12.7,0c-3.5-3.5-3.5-9.2,0-12.7l5.6-5.6
		L32.3,5V0.8l-8.5,8.5c-4.666,4.62-4.705,12.148-0.085,16.815c0.028,0.029,0.057,0.057,0.085,0.085
		c4.62,4.667,12.148,4.705,16.815,0.085c0.028-0.028,0.057-0.056,0.085-0.085C45.5,21.499,45.5,13.9,40.8,9.3z"/>
	<circle fill="#EE4C2C" cx="36.6" cy="7.1" r="1.6"/>
</g>
<path fill="#252525" d="M48.008,32.027h-2v5.145h-1.493V22.57h3.65c3.872,0,5.697,1.88,5.697,4.6c0,3.208-2.268,4.813-5.863,4.867
	L48.008,32.027z M48.108,23.953H45.96v6.693l2.102-0.056c2.766-0.055,4.26-1.162,4.26-3.43c0-2.046-1.438-3.208-4.204-3.208H48.108z
	 M60.62,37.116l-0.885,2.323c-0.996,2.6-2,3.373-3.485,3.373c-0.83,0-1.438-0.22-2.102-0.498l0.442-1.326
	c0.498,0.277,1.05,0.441,1.66,0.441c0.83,0,1.438-0.441,2.212-2.5l0.72-1.88l-4.148-10.564h1.55l3.374,8.85l3.319-8.85h1.494
	L60.62,37.116z M69.745,24.008v13.221h-1.493V24.008h-5.145V22.57h11.781v1.383h-5.145L69.745,24.008z M79.092,37.503
	c-2.986,0-5.199-2.212-5.199-5.642c0-3.43,2.268-5.697,5.299-5.697c2.988,0,5.145,2.212,5.145,5.643c0,3.43-2.268,5.696-5.255,5.696
	H79.092z M79.146,27.503c-2.268,0-3.76,1.825-3.76,4.313c0,2.601,1.551,4.371,3.816,4.371s3.76-1.826,3.76-4.314
	C82.963,29.273,81.413,27.503,79.146,27.503z M88.053,37.227h-1.438V26.497l1.438-0.277v2.268c0.721-1.383,1.77-2.268,3.153-2.268
	c0.659,0.006,1.306,0.177,1.88,0.498L92.7,28.1c-0.442-0.277-1.05-0.442-1.66-0.442c-1.106,0-2.157,0.83-3.042,2.766v6.803H88.053z
	 M98.783,37.503c-3.208,0-5.256-2.323-5.256-5.642c0-3.375,2.213-5.697,5.256-5.697c1.326,0,2.434,0.332,3.374,0.94l-0.388,1.327
	c-0.83-0.553-1.824-0.885-2.986-0.885c-2.323,0-3.76,1.715-3.76,4.261c0,2.6,1.549,4.313,3.815,4.313
	c1.06-0.005,2.096-0.312,2.987-0.886l0.277,1.328C101.163,37.17,100.001,37.502,98.783,37.503L98.783,37.503z M111.117,37.227
	v-6.914c0-1.88-0.774-2.7-2.268-2.7c-1.218,0-2.435,0.608-3.32,1.55v8.13h-1.438v-15.82l1.438-0.277v6.748
	c1.105-1.106,2.543-1.715,3.705-1.715c2.103,0,3.375,1.327,3.375,3.65v7.355L111.117,37.227z"/>
</svg>
