<?xml version="1.0" encoding="utf-8"?>
<!-- Generator: Adobe Illustrator 16.0.3, SVG Export Plug-In . SVG Version: 6.00 Build 0)  -->
<!DOCTYPE svg PUBLIC "-//W3C//DTD SVG 1.1//EN" "http://www.w3.org/Graphics/SVG/1.1/DTD/svg11.dtd">
<svg version="1.1" id="Layer_1" xmlns="http://www.w3.org/2000/svg" xmlns:xlink="http://www.w3.org/1999/xlink" x="0px" y="0px"
	 width="99.992px" height="29.45px" viewBox="10 15.274 99.992 29.45" enable-background="new 10 15.274 99.992 29.45"
	 xml:space="preserve">
<path fill="#26465B" d="M22.672,29.37l16.1,9.293c-0.013,0.004-0.075,0.058-0.14,0.097l-9.653,5.58
	c-0.952,0.549-1.904,0.49-2.843-0.044l-14.63-8.468C10.49,35.252,10,34.389,10,33.23v-6.634c-0.028-1.329,0.95-2.464,2.268-2.633
	c0.584-0.083,1.132,0.04,1.64,0.338l2.343,1.365c0.162,0.097,0.285,0.114,0.452,0l0.97-0.566l-3.896-2.238
	c0.6-0.386,1.294-0.535,2.032-0.342c0.285,0.083,0.562,0.197,0.816,0.347l2.277,1.316c0.14,0.083,0.24,0.08,0.373,0l1.01-0.588
	l-3.94-2.247l1.707-0.992l8.078-4.66c0.97-0.562,1.944-0.562,2.918,0l14.73,8.517c0.92,0.53,1.395,1.356,1.395,2.418v6.688
	c0,1.057-0.443,1.887-1.36,2.41c-0.9,0.513-1.808,0.442-2.707-0.08l-14.457-8.363c-0.14-0.083-0.24-0.083-0.373,0l-1,0.584
	l16.068,9.283c-0.483,0.343-1.075,0.483-1.66,0.391c-0.412-0.066-0.812-0.202-1.176-0.408L24.102,28.81
	c-0.176-0.1-0.303-0.118-0.474,0c-0.294,0.193-0.6,0.355-0.957,0.557L22.672,29.37z M32.566,36.439l-0.298-0.184l-3.2-1.852
	c-0.246-0.15-0.443-0.168-0.676,0.013c-0.197,0.146-0.408,0.263-0.627,0.364c-0.1,0.044-0.26,0.06-0.347,0.013l-8.065-4.655
	l-0.15-0.123l0.162-0.105l8.034-4.655c0.158-0.088,0.268-0.057,0.408,0.026l8.2,4.743l-1.114,0.65l0.048,0.075l3.633,2.098
	c0.06,0.034,0.184,0.018,0.25-0.022c0.353-0.19,0.7-0.393,1.04-0.606c0.08-0.057,0.127-0.14,0.14-0.236l0.004-3.61
	c0.004-0.35-0.1-0.535-0.408-0.715l-11.62-6.718c-0.303-0.176-0.51-0.176-0.8,0l-4.502,2.606l-7.314,4.22
	c-0.162,0.097-0.237,0.197-0.228,0.4v3.72c0,0.167,0.048,0.268,0.202,0.36L27.38,39.2c0.136,0.088,0.307,0.088,0.434-0.005
	l1.334-0.771L32.566,36.439z M67.8,35.292l-2.43,1.382c-0.825,0.42-1.667,0.391-2.479-0.088c-0.664-0.397-1.334-0.783-2.011-1.158
	c-0.127-0.074-0.276-0.113-0.42-0.113l-4.752,0.018c-0.645,0.018-1.28-0.158-1.83-0.49l-1.812-1.053
	c-0.39-0.225-0.588-0.548-0.588-1v-7.13c-0.019-0.43,0.212-0.831,0.592-1.031l2-1.158c0.42-0.246,0.9-0.37,1.387-0.364h5.568
	c0.486-0.004,0.965,0.121,1.387,0.364l2,1.158c0.385,0.195,0.615,0.601,0.588,1.031l-0.004,7.774c0,0.197,0.057,0.299,0.225,0.391
	l2.562,1.47L67.8,35.292z M54.94,32.132h6.617v-5.875H54.94V32.132z"/>
<path fill="#26455B" d="M80.225,32.133v-9.025h3.471v6.617l-0.019,3.05c0,0.451-0.19,0.785-0.584,1.01L81.16,34.9
	c-0.426,0.25-0.878,0.412-1.378,0.412c-1.558,0.004-3.12,0.021-4.671-0.022c-0.42-0.013-0.855-0.181-1.241-0.37
	c-0.69-0.347-1.343-0.768-2.015-1.15c-0.369-0.209-0.569-0.529-0.569-0.957v-9.569c0-0.035,0.004-0.075,0.013-0.136h3.444v9.02
	L80.225,32.133z"/>
<path fill="#25455B" d="M102.725,26.227v5.916h7.267v3.168h-0.308c-2.084,0-4.16-0.004-6.24,0c-0.613,0.013-1.223-0.15-1.75-0.475
	l-1.864-1.08c-0.382-0.22-0.565-0.544-0.565-0.986v-7.166c0-0.46,0.196-0.785,0.584-1.01l2-1.163
	c0.385-0.237,0.824-0.36,1.276-0.364h6.718c0.051,0.001,0.1,0.005,0.149,0.013v3.133L102.725,26.227z"/>
<path fill="#26465B" d="M93.178,35.314h-3.396V23.107h3.396V35.314z"/>
<path fill="#38C2E4" d="M32.566,36.438l-4.76,2.754c-0.129,0.096-0.304,0.098-0.434,0.004l-12.027-6.959
	c-0.15-0.084-0.202-0.185-0.202-0.36v-3.72c0-0.197,0.066-0.303,0.228-0.4l7.314-4.22l4.502-2.606c0.3-0.176,0.505-0.176,0.8,0
	l11.62,6.718c0.307,0.176,0.42,0.364,0.408,0.715l-0.004,3.61c-0.013,0.098-0.06,0.18-0.14,0.237
	c-0.342,0.21-0.688,0.413-1.04,0.606c-0.066,0.039-0.19,0.057-0.25,0.021l-3.633-2.097c-0.018-0.013-0.022-0.026-0.048-0.075
	l1.1-0.645l-8.192-4.747c-0.14-0.083-0.246-0.118-0.408-0.026l-8.034,4.655l-0.162,0.105c0.044,0.044,0.097,0.083,0.15,0.123
	l8.065,4.655c0.088,0.048,0.246,0.034,0.347-0.013c0.224-0.098,0.43-0.221,0.627-0.364c0.237-0.181,0.426-0.158,0.676-0.013
	l3.2,1.852c0.102,0.061,0.203,0.124,0.303,0.189H32.566z"/>
</svg>
