<?xml version="1.0" encoding="utf-8"?>
<!-- Generator: Adobe Illustrator 16.0.3, SVG Export Plug-In . SVG Version: 6.00 Build 0)  -->
<!DOCTYPE svg PUBLIC "-//W3C//DTD SVG 1.1//EN" "http://www.w3.org/Graphics/SVG/1.1/DTD/svg11.dtd">
<svg version="1.1" id="Layer_1" xmlns="http://www.w3.org/2000/svg" xmlns:xlink="http://www.w3.org/1999/xlink" x="0px" y="0px"
	 width="799.991px" height="135.164px" viewBox="0 119.531 799.991 135.164" enable-background="new 0 119.531 799.991 135.164"
	 xml:space="preserve">
<g>
	<path fill="#A9B5AF" d="M746.796,119.531c28.625,0,43.96,26.02,43.96,66.615c0,27.867-6.464,47.192-18.565,57.547l0,0l27.801-2.043
		v10.98h-53.985c-28.855,0-44.752-21.667-44.752-66.484C701.253,141.33,719.951,119.531,746.796,119.531z M593.248,121.807
		l36.541,114.469h0.396l36.673-114.469h18.336v130.76h-10.355V132.261L636.12,252.566h-11.938l-39.244-120.306v120.306h-10.453
		v-130.76H593.248z M746.664,130.811c-22.326,0-32.979,18.104-32.979,55.371c0,37.266,8.442,55.469,32.419,55.469
		c23.976,0,32.088-21.732,32.088-55.469C778.191,152.443,768.99,130.811,746.664,130.811z"/>
	<path fill="#FF6600" d="M529.567,135.195v27.109h24.106v9.035H529.6v58.042c0,2.604-0.627,16.062,13.652,16.062
		c3.533-0.037,7.043-0.582,10.422-1.616v9.993c-3.192,0.44-6.408,0.717-9.63,0.824c-6.408,0.388-12.754-1.44-17.974-5.178
		c-3.957-3.298-5.903-9.102-5.903-17.05v-61.043h-14.444v-9.036h14.444v-20.842L529.567,135.195z M324.244,121.773v57.646h0.329
		c3.139-11.309,13.46-19.117,25.195-19.063c7.256,0,31.329,4.584,31.329,48.117c0,43.53-27.438,46.168-34.957,46.168
		c-30.639,0-31.408-32.591-31.428-38.674l-0.001-94.195H324.244L324.244,121.773z M405.271,121.773v57.646h0.396
		c3.139-11.309,13.46-19.117,25.196-19.063c7.255,0,31.329,4.584,31.329,48.117c0,43.53-27.438,46.168-34.957,46.168
		c-30.64,0-31.409-32.591-31.429-38.674l-0.001-94.195H405.271L405.271,121.773z M270.951,160.292
		c28.473,0,28.219,20.619,28.197,30.104v62.17h-9.399v-12.762h-0.396c-3.068,4.598-7.211,8.379-12.07,11.014
		c-4.919,2.582-10.408,3.885-15.962,3.793c-3.759,0-23.084-0.793-23.084-24.107s25.261-27.339,40.728-28.525
		c3.537-0.342,8.948-0.389,10.346-0.396l0.214-0.001c0.027,0,0.05,0,0.069,0h0.056v-8.122c0-0.069,0-0.142,0-0.213l0.001-0.445
		c0-0.075,0-0.153,0-0.231v-0.479c-0.013-7.589-0.76-22.763-19.592-22.763c-15.467,0-17.709,9.366-18.765,14.644l0,0h-11.608
		C239.687,179.684,241.896,160.292,270.951,160.292z M181.579,122.038c34.364,0,41.85,18.039,41.85,33.473
		c0,16.819-7.98,29.153-26.383,32.748c0,0,11.213,3.298,15.137,9.399c2.968,4.617,4.419,9.168,6.596,19.787l0,0l7.42,35.287h-11.411
		l-6.596-30.935c-2.078-8.575-3.397-21.997-14.972-26.383c-3.916-1.388-8.049-2.058-12.202-1.979l0,0H165.32v59.131h-11.344V122.038
		H181.579z M487.718,162.337v90.229h-9.465v-90.229H487.718z M348.714,169.296c-9.828,0-24.106,10.718-24.106,40.397
		c0,35.066,17.642,35.768,21.326,35.781h0.309c3.472-0.019,23.447-1.123,23.447-37.266l0,0l-0.005-0.826
		C369.465,179.219,358.443,169.296,348.714,169.296z M429.808,169.296c-9.826,0-24.106,10.718-24.106,40.397
		c0,35.066,17.642,35.768,21.327,35.781h0.308c3.472-0.019,23.447-1.123,23.447-37.266l0,0l-0.033,0.033
		C450.749,179.42,439.635,169.296,429.808,169.296z M289.616,210.618l-0.132,0.001c-1.536,0.018-15.97,0.201-19.622,0.889
		c-18.369,3.529-20.216,14.708-20.216,19.49c-0.015,3.456,1.431,6.756,3.981,9.087c2.551,2.331,5.968,3.474,9.408,3.147
		c12.941,0.035,23.962-9.401,25.921-22.194C289.392,217.582,289.612,214.102,289.616,210.618L289.616,210.618z M180.293,132.195
		h-14.972v50.82h10.355c35.188,0,36.276-21.767,36.276-27.735v-0.218C211.915,147.773,209.905,132.195,180.293,132.195
		L180.293,132.195z M489.895,121.807v15.336h-13.982v-15.336H489.895z"/>
	<path fill="#FF6600" d="M126.34,173.616H84.227c-1.402,0.009-2.75-0.544-3.741-1.536c-0.992-0.991-1.545-2.339-1.536-3.741v-42.112
		c0-1.396-0.557-2.735-1.548-3.721c-0.99-0.984-2.333-1.533-3.729-1.523H57.91c-1.396-0.01-2.738,0.539-3.729,1.523
		c-0.991,0.984-1.547,2.323-1.547,3.721v42.112c0.009,1.402-0.544,2.75-1.536,3.741c-0.992,0.992-2.339,1.544-3.741,1.536H31.594
		c-1.402,0.009-2.75-0.544-3.741-1.536c-0.991-0.991-1.544-2.339-1.536-3.741v-42.112c0.009-1.402-0.544-2.75-1.536-3.742
		c-0.991-0.99-2.339-1.543-3.741-1.535H5.244c-1.396,0-2.735,0.557-3.719,1.547c-0.985,0.99-1.534,2.334-1.525,3.73v121.097
		c-0.009,1.401,0.544,2.749,1.536,3.741c0.991,0.99,2.338,1.543,3.741,1.535H126.34c1.402,0.01,2.75-0.543,3.741-1.535
		c0.992-0.992,1.545-2.34,1.536-3.741v-68.332c0.036-1.419-0.506-2.792-1.5-3.806C129.123,174.173,127.76,173.605,126.34,173.616z
		 M105.168,218.334c0.009,2.096-0.818,4.109-2.297,5.596c-1.479,1.485-3.489,2.319-5.585,2.319H86.733
		c-2.096,0-4.106-0.835-5.585-2.319c-1.479-1.486-2.306-3.5-2.297-5.596v-10.52c-0.009-2.097,0.818-4.109,2.297-5.596
		s3.489-2.32,5.585-2.32h10.553c2.096,0,4.106,0.836,5.585,2.32c1.479,1.485,2.306,3.499,2.297,5.596V218.334L105.168,218.334z"/>
</g>
</svg>
