<?xml version="1.0" encoding="utf-8"?>
<!-- Generator: Adobe Illustrator 27.3.1, SVG Export Plug-In . SVG Version: 6.00 Build 0)  -->
<svg version="1.1" id="Layer_1" xmlns="http://www.w3.org/2000/svg" xmlns:xlink="http://www.w3.org/1999/xlink" x="0px" y="0px"
	 viewBox="0 0 613.5 131.6" style="enable-background:new 0 0 613.5 131.6;" xml:space="preserve">
<style type="text/css">
	.st0{fill:#2453FF;}
</style>
<g id="logo">
	<g>
		<path class="st0" d="M193,19.9L191,7.3c-0.7-4-2.3-7.3-3.5-7.3c-1.3,0-2.3,3.3-2.3,7.4v3.3c0,4.1-3.3,7.4-7.4,7.4h-3.3
			c-0.2,0-0.5,0-0.7,0v9c0.2,0,0.5,0,0.7,0h12.4C190.9,27.2,193.7,24,193,19.9"/>
		<path class="st0" d="M163.4,9.3h-20.1c-0.2,0-0.3,0-0.5,0h-20.6c-0.2,0-0.5,0-0.7,0.1V7.4c0-4.1-1-7.4-2.3-7.4
			c-1.3,0-2.8,3.3-3.5,7.3l-2.1,12.6c-0.7,4,2.1,7.3,6.2,7.3h12.4c1.3,0,2.5-0.2,3.5-0.6c-0.4,2.1-2.2,3.7-4.5,3.7h-17.3
			c-2.8,0-4.9-2.5-4.5-5.3l1.8-10.5c0.5-2.8-1.7-5.3-4.5-5.3H20.6c-1.8,0-3.4,1.1-4.1,2.7L0.2,36.7c-0.3,0.4-0.2,1,0.1,1.3l3.2,3.7
			c0.4,0.5,1.1,0.5,1.6,0.1L16,33.2v52.9c0,2.5,2,4.5,4.5,4.5h24.5c2.5,0,4.5-2,4.5-4.5V67.7c0-2.5,2-4.5,4.5-4.5h61.1
			c2.5,0,4.5,2,4.5,4.5v18.4c0,2.5,2,4.5,4.5,4.5h24.5c2.5,0,4.5-2,4.5-4.5V66.3h-13c-4.1,0-7.4-3.3-7.4-7.4V46.1
			c0-2.4,1.2-4.6,3-5.9v15.2c0,4.1,3.3,7.4,7.4,7.4h20.1c4.1,0,7.4-3.3,7.4-7.4V16.7C170.8,12.6,167.5,9.3,163.4,9.3"/>
	</g>
	<g>
		<g id="Layer_1_00000116952799159011174390000017168342625225811855_">
			<g>
				<path d="M587.7,131.3c-2.8,0-5.1-2.3-5.1-5.1V111c0-2.8,2.3-5.1,5.1-5.1h11.6c0.9,0,1.6,0.7,1.6,1.6c0,0.9-0.7,1.6-1.6,1.6
					h-11.6c-1,0-1.8,0.8-1.8,1.8v6h11.4c0.9,0,1.6,0.7,1.6,1.6c0,0.9-0.7,1.6-1.6,1.6h-11.4v6.1c0,1,0.8,1.8,1.8,1.8h11.6
					c0.9,0,1.6,0.7,1.6,1.6s-0.7,1.6-1.6,1.6L587.7,131.3L587.7,131.3z M535.5,131.6c-3.3,0-5.9-0.9-7.7-2.5
					c-1.7-1.7-2.6-4.2-2.6-7.5v-14.1c0-1.1,0.9-1.9,1.9-1.9s1.9,0.9,1.9,1.9v13.6c0,2.5,0.5,4.3,1.6,5.5c1.1,1.2,2.7,1.8,4.9,1.8
					s3.8-0.6,4.9-1.8c1.1-1.2,1.6-3,1.6-5.5v-13.6c0-1.1,0.9-1.9,1.9-1.9s1.9,0.9,1.9,1.9v14.1c0,3.3-0.9,5.8-2.6,7.5
					C541.5,130.8,538.9,131.6,535.5,131.6 M564.3,131.6c-4.3,0-7.6-1.2-9.8-3.6c-0.6-0.7-0.6-1.8,0.1-2.5l0,0l0,0
					c0.4-0.4,0.8-0.5,1.3-0.5c0.5,0,1,0.2,1.3,0.6c0.6,0.7,1.3,1.3,2.1,1.7c1.3,0.7,3,1.1,5,1.1c1.9,0,3.3-0.3,4.4-1
					c1.1-0.7,1.7-1.6,1.7-2.8c0-1-0.5-1.8-1.5-2.4c-1-0.6-2.6-1.1-5-1.5c-2.3-0.4-4.2-1-5.6-1.6c-1.3-0.6-2.3-1.4-3-2.3
					c-0.6-0.9-0.9-2.1-0.9-3.4c0-1.4,0.4-2.7,1.2-3.9c0.8-1.1,1.9-2.1,3.4-2.8c1.5-0.7,3.3-1,5.2-1c2.3,0,4.3,0.4,6,1.3
					c1.1,0.6,2.1,1.3,3,2.3c0.7,0.7,0.6,1.9-0.1,2.6c-0.3,0.3-0.8,0.5-1.2,0.5c-0.6,0-1.1-0.3-1.4-0.7c-0.5-0.6-1.1-1.1-1.6-1.6
					c-1.1-0.7-2.6-1.1-4.5-1.1c-1.8,0-3.3,0.4-4.3,1.1c-1,0.7-1.6,1.7-1.6,2.9c0,1.1,0.5,2,1.5,2.6c1,0.6,2.7,1.1,5.2,1.6
					c2.3,0.4,4.1,0.9,5.5,1.6c1.3,0.6,2.3,1.4,2.9,2.3c0.6,0.9,0.9,2.1,0.9,3.4c0,1.5-0.4,2.8-1.2,3.8c-0.8,1.1-2,2-3.5,2.6
					C568.1,131.3,566.3,131.6,564.3,131.6 M507,131.6c-4.3,0-7.6-1.2-9.8-3.6c-0.6-0.7-0.6-1.8,0.1-2.5l0,0c0.4-0.4,0.8-0.5,1.3-0.5
					c0.5,0,1,0.2,1.3,0.6c0.6,0.7,1.3,1.3,2.1,1.7c1.3,0.7,3,1.1,5,1.1c1.9,0,3.3-0.3,4.4-1c1.1-0.7,1.7-1.6,1.7-2.8
					c0-1-0.5-1.8-1.5-2.4c-1-0.6-2.6-1.1-5-1.5c-2.3-0.4-4.2-1-5.6-1.6c-1.3-0.6-2.4-1.4-3-2.3c-0.6-0.9-0.9-2.1-0.9-3.4
					c0-1.4,0.4-2.7,1.2-3.9c0.8-1.1,1.9-2.1,3.4-2.8c1.5-0.7,3.2-1,5.2-1c2.3,0,4.3,0.4,6,1.3c1.1,0.6,2.1,1.3,3,2.3
					c0.7,0.7,0.6,1.9-0.1,2.6c-0.3,0.3-0.8,0.5-1.2,0.5c-0.6,0-1.1-0.3-1.4-0.7c-0.5-0.6-1.1-1.1-1.6-1.6c-1.1-0.7-2.6-1.1-4.5-1.1
					c-1.8,0-3.3,0.4-4.3,1.1c-1,0.7-1.6,1.7-1.6,2.9c0,1.1,0.5,2,1.5,2.6c1,0.6,2.7,1.1,5.2,1.6c2.3,0.4,4.1,0.9,5.5,1.6
					c1.3,0.6,2.3,1.4,2.9,2.3c0.6,0.9,0.9,2.1,0.9,3.4c0,1.5-0.4,2.8-1.2,3.8c-0.8,1.1-2,2-3.5,2.6C510.7,131.3,509,131.6,507,131.6
					"/>
			</g>
		</g>
		<g>
			<path d="M448.2,131.6h-9.7v-26h9.3c5.5,0,8.2,3,8.2,6.6c0,3.3-2.1,5.2-4.5,6c2.8,0.5,5.2,3.2,5.2,6.4
				C456.7,128.6,453.6,131.6,448.2,131.6z M447.5,108.4h-5.6v8.4h5.7c3.2,0,5-1.6,5-4.2C452.6,110,450.9,108.4,447.5,108.4z
				 M447.8,119.6h-5.9v9.2h6c3.4,0,5.4-1.7,5.4-4.5C453.3,121.4,451.1,119.6,447.8,119.6z"/>
			<path d="M461.1,105.6h3.8l6.4,13.2l6.4-13.2h3.8l-8.5,16.2v9.8h-3.4v-9.8L461.1,105.6z"/>
		</g>
	</g>
	<path d="M209.5,11.8h27.6c13.1,0,21.9,6.4,21.9,18.6c0,10-6.8,16.1-13.5,18.1c2,1.7,3.5,4,4.7,6.4c2.8,5.7,4.7,11.9,10.5,11.9
		c1.5,0,2.7-0.5,2.7-0.5l-1.3,11.8c0,0-3.6,0.9-6.7,0.9c-7.9,0-12.5-3.1-17.2-13.7c-2-4.7-4.7-13.1-8.4-13.1h-3.8v26.5h-16.6V11.8
		 M226.1,23.8v16.5h6c4.7,0,10.3-1.5,10.3-8.6c0-5.9-3.8-7.8-8.3-7.8L226.1,23.8L226.1,23.8z"/>
	<path d="M281.4,11.8h16.8l22.6,67H304l-4.2-12.7h-22.4l-4.1,12.7h-14.5L281.4,11.8 M281.4,53.8h14.4l-4.6-14.1
		c-1.6-4.7-2.3-11.5-2.3-11.5h-0.4c0,0-1,6.8-2.5,11.4L281.4,53.8z"/>
	<path d="M321.5,11.8h17.8l17.6,33.2c1.5,2.9,3.5,7.9,5.1,11.9h0.4c-0.2-3.8-0.7-9.1-0.7-13V11.8h13.6v67h-17.4l-18.2-33.1
		c-1.7-3-3.5-7.3-4.9-10.9h-0.4c0.3,3.8,0.8,8.2,0.8,11.9v32.1h-13.6V11.8"/>
	<path d="M378.7,44.9c0-24.2,12-34.2,30.6-34.2c19.5,0,27.4,10.7,25.2,25.2l-15.5,1.4c1.7-10.6-2.5-14.9-10-14.9
		c-7.2,0-13.1,5.4-13.1,22.6c0,18.3,6.4,22.9,13.6,22.9c6.8,0,12.4-4.3,11.2-13l14.5,1.5C436.1,70,426.3,80,408.5,80
		C390.4,80,378.7,69.3,378.7,44.9"/>
	<polyline points="438.5,11.8 455.1,11.8 455.1,37.1 475.4,37.1 475.4,11.8 492,11.8 492,78.8 475.4,78.8 475.4,50.4 455.1,50.4 
		455.1,78.8 438.5,78.8 438.5,11.8 	"/>
	<polyline points="498.6,11.8 542.9,11.8 542.9,24.1 515.2,24.1 515.2,38.5 538.5,38.5 538.5,50.8 515.2,50.8 515.2,66.5 
		543.9,66.5 543.9,78.8 498.6,78.8 498.6,11.8 	"/>
	<path d="M547.1,11.8h27.6c13.1,0,21.9,6.4,21.9,18.6c0,10-6.8,16.1-13.5,18.1c2,1.7,3.5,4,4.7,6.4c2.8,5.7,4.7,11.9,10.5,11.9
		c1.5,0,2.7-0.5,2.7-0.5l-1.3,11.8c0,0-3.6,0.9-6.7,0.9c-7.9,0-12.5-3.1-17.2-13.7c-2-4.7-4.7-13.1-8.4-13.1h-3.8v26.5h-16.6V11.8
		 M563.7,23.8v16.5h6c4.7,0,10.3-1.5,10.3-8.6c0-5.9-3.8-7.8-8.3-7.8L563.7,23.8L563.7,23.8z"/>
	<path d="M602.7,16.1c0-3.8,2.8-5.4,5.4-5.4c2.6,0,5.4,1.6,5.4,5.4c0,3.7-2.8,5.3-5.4,5.3C605.5,21.4,602.7,19.8,602.7,16.1
		 M612.2,16c0-3-1.9-4.3-4.1-4.3c-2.2,0-4.2,1.3-4.2,4.3c0,2.9,2,4.2,4.2,4.2C610.2,20.3,612.2,19,612.2,16z M606.3,13.4h1.9
		c1,0,1.9,0.3,1.9,1.6c0,0.8-0.5,1.3-1.3,1.4l1.3,2.2H609l-1.2-2.1h-0.5v2.1h-1.1L606.3,13.4L606.3,13.4z M608.3,15.7
		c0.4,0,0.8-0.3,0.8-0.8c0-0.6-0.4-0.7-0.8-0.7h-0.9v1.5H608.3z"/>
</g>
</svg>
