<?xml version="1.0" encoding="utf-8"?>
<!-- Generator: Adobe Illustrator 16.0.3, SVG Export Plug-In . SVG Version: 6.00 Build 0)  -->
<!DOCTYPE svg PUBLIC "-//W3C//DTD SVG 1.1//EN" "http://www.w3.org/Graphics/SVG/1.1/DTD/svg11.dtd">
<svg version="1.1" id="Layer_1" xmlns="http://www.w3.org/2000/svg" xmlns:xlink="http://www.w3.org/1999/xlink" x="0px" y="0px"
	 width="110.691px" height="30.424px" viewBox="4.655 12.963 110.691 30.424" enable-background="new 4.655 12.963 110.691 30.424"
	 xml:space="preserve">
<g transform="matrix(1.188851 0 0 1.188851 -4.923022 -8.243344)">
	<path d="M13.453,17.838c-0.157,0.009-0.307,0.071-0.426,0.174c-0.352-0.195-0.787-0.154-1.096,0.104
		c-0.295-0.099-0.621-0.006-0.818,0.235c-0.429-0.09-0.875,0.044-1.183,0.357c-0.87-0.104-1.123,0.496-0.818,1.062
		c-0.274,0.296-0.256,0.759,0.04,1.033c0.004,0.004,0.008,0.007,0.012,0.011c-0.12,0.35-0.005,0.738,0.287,0.966
		c-0.068,0.347,0.093,0.697,0.4,0.871c0.023,0.427,0.281,0.805,0.67,0.982c0.069,0.435,0.43,0.766,0.87,0.792
		c0.119,0.384,0.469,0.649,0.87,0.661c-1.559,0.724-2.49,2.353-2.323,4.064l-0.165,0.297c-1.792,1.22-2.255,3.659-1.035,5.452
		c0.103,0.151,0.216,0.295,0.339,0.43c0.131,0.595,0.312,1.175,0.54,1.741c0.2,1.562,1.229,2.892,2.689,3.48
		c0.783,0.628,1.666,1.122,2.611,1.462c0.805,0.899,1.953,1.413,3.159,1.418h0.052c1.206-0.005,2.354-0.519,3.159-1.418
		c0.945-0.34,1.827-0.834,2.611-1.462c1.46-0.588,2.488-1.919,2.689-3.48c0.228-0.564,0.408-1.146,0.54-1.741
		c1.457-1.603,1.338-4.086-0.266-5.543c-0.135-0.123-0.279-0.237-0.43-0.339l-0.278-0.297c0.145-1.679-0.762-3.272-2.28-4.002
		c0.401-0.012,0.751-0.278,0.87-0.662c0.44-0.028,0.801-0.356,0.87-0.792c0.389-0.177,0.647-0.555,0.67-0.982
		c0.307-0.174,0.468-0.524,0.4-0.871c0.291-0.228,0.406-0.615,0.287-0.966c0.302-0.267,0.331-0.729,0.063-1.031
		c-0.004-0.004-0.007-0.008-0.011-0.012c0.305-0.557,0-1.157-0.818-1.062c-0.304-0.35-0.773-0.51-1.227-0.418
		c-0.196-0.237-0.517-0.33-0.809-0.235c-0.309-0.258-0.744-0.299-1.096-0.104c-0.342-0.228-0.791-0.211-1.114,0.044
		c-0.326-0.116-0.688-0.053-0.957,0.165c-0.428-0.097-0.868,0.102-1.079,0.487h-0.34c-0.758,0.527-1.301,1.309-1.532,2.203
		c-0.219-0.913-0.764-1.715-1.532-2.254h-0.34c-0.226-0.365-0.663-0.541-1.079-0.435c-0.272-0.225-0.644-0.288-0.975-0.165
		C13.914,17.946,13.688,17.873,13.453,17.838L13.453,17.838z"/>
	<path fill="#75A928" d="M11.635,20.213c1.704,0.771,3.264,1.827,4.612,3.124c-0.383,1.584-2.463,1.662-3.22,1.62
		c0.145-0.047,0.264-0.151,0.331-0.287c-0.45-0.058-0.895-0.15-1.331-0.278c0.146-0.007,0.28-0.085,0.357-0.209
		c-0.426-0.096-0.832-0.265-1.201-0.496c0.167,0.026,0.338-0.011,0.479-0.104c-0.416-0.182-0.803-0.421-1.149-0.715
		c0.167,0.022,0.336-0.005,0.487-0.078c-0.34-0.207-0.65-0.458-0.922-0.748c0.16,0.044,0.33,0.03,0.479-0.044
		c-0.309-0.246-0.577-0.54-0.792-0.87c0.171,0.09,0.377,0.09,0.548,0c-0.275-0.26-0.517-0.552-0.722-0.87
		c0.169,0.038,0.344,0.038,0.513,0c-0.093-0.319-0.25-0.615-0.461-0.87c0.391,0.028,0.784,0.028,1.175,0l-0.287-0.348
		c0.436-0.08,0.886-0.034,1.297,0.131c0.157-0.122,0-0.278-0.2-0.435c0.372,0.046,0.737,0.137,1.088,0.27
		c0.165-0.157-0.122-0.296-0.26-0.47c0.408,0.061,0.798,0.213,1.14,0.444c0.2-0.183,0-0.33-0.113-0.487
		c0.358,0.138,0.684,0.348,0.957,0.618c0.148-0.115,0.175-0.327,0.061-0.476c-0.003-0.004-0.006-0.008-0.009-0.012
		c0.299,0.164,0.56,0.389,0.766,0.661c0.135-0.116,0.184-0.303,0.122-0.47c0.313,0.266,0.604,0.557,0.87,0.87
		c0.082-0.112,0.13-0.244,0.139-0.383c0.818,0.792,1.975,2.793,0.296,3.585c-1.509-1.191-3.222-2.096-5.056-2.671L11.635,20.213z
		 M24.513,20.213c-1.704,0.771-3.264,1.827-4.612,3.124c0.4,1.584,2.463,1.662,3.22,1.62c-0.133-0.058-0.239-0.163-0.296-0.296
		c0.45-0.058,0.895-0.151,1.331-0.278c-0.143-0.009-0.273-0.086-0.348-0.209c0.425-0.096,0.832-0.264,1.201-0.496
		c-0.17,0.028-0.344-0.009-0.487-0.104c0.416-0.181,0.803-0.421,1.149-0.714c-0.167,0.022-0.336-0.005-0.487-0.078
		c0.339-0.207,0.65-0.458,0.922-0.748c-0.16,0.044-0.33,0.029-0.479-0.044c0.309-0.246,0.576-0.539,0.792-0.87
		c-0.171,0.091-0.377,0.091-0.548,0c0.275-0.26,0.517-0.552,0.722-0.87c-0.169,0.038-0.344,0.038-0.513,0
		c0.093-0.319,0.25-0.615,0.461-0.87c-0.391,0.028-0.784,0.028-1.175,0l0.296-0.305c-0.436-0.08-0.886-0.034-1.297,0.131
		c-0.157-0.122,0-0.278,0.2-0.435c-0.372,0.046-0.738,0.137-1.088,0.27c-0.2-0.2,0.078-0.33,0.226-0.505
		c-0.408,0.062-0.798,0.213-1.14,0.444c-0.2-0.183,0-0.33,0.113-0.487c-0.358,0.138-0.684,0.348-0.957,0.618
		c-0.15-0.111-0.182-0.323-0.071-0.474c0.003-0.005,0.006-0.009,0.01-0.013c-0.299,0.164-0.56,0.389-0.766,0.661
		c-0.135-0.116-0.184-0.303-0.122-0.47c-0.313,0.266-0.604,0.557-0.87,0.87c-0.082-0.112-0.13-0.245-0.139-0.383
		c-0.818,0.792-1.975,2.793-0.296,3.585c1.498-1.188,3.199-2.093,5.021-2.671L24.513,20.213z"/>
	<path fill="#BC1142" d="M21.015,36.372c-0.056,1.541-1.348,2.747-2.889,2.698c-1.545,0.069-2.853-1.127-2.924-2.67
		c0.056-1.541,1.348-2.748,2.889-2.698C19.636,33.632,20.944,34.827,21.015,36.372L21.015,36.372z M16.42,28.715
		c1.228,0.973,1.445,2.754,0.487,3.994c-0.767,1.373-2.493,1.88-3.881,1.14c-1.228-0.973-1.445-2.754-0.487-3.994
		C13.307,28.483,15.032,27.975,16.42,28.715z M19.675,28.567c-1.228,0.973-1.445,2.753-0.487,3.994
		c0.768,1.373,2.493,1.88,3.881,1.14c1.228-0.974,1.445-2.754,0.487-3.995C22.788,28.334,21.063,27.827,19.675,28.567z M10.4,30.02
		c1.305-0.348,0.435,5.387-0.618,4.917c-1.23-1.191-1.261-3.153-0.071-4.382C9.914,30.346,10.146,30.165,10.4,30.02z M25.436,29.933
		c-1.305-0.348-0.435,5.385,0.618,4.915c1.229-1.189,1.261-3.152,0.071-4.381C25.922,30.258,25.69,30.078,25.436,29.933z
		 M21.016,25.67c2.245-0.383,4.116,0.957,4.038,3.394C24.984,30.021,20.216,25.801,21.016,25.67z M14.8,25.6
		c-2.245-0.384-4.116,0.957-4.038,3.393C10.832,29.924,15.626,25.74,14.8,25.6z M18.03,25.035c-1.34,0-2.6,0.991-2.6,1.592
		c0,0.6,1.062,1.47,2.6,1.488c1.538,0.018,2.6-0.591,2.6-1.34c0-0.748-1.47-1.74-2.654-1.74H18.03z M18.117,39.905
		c1.166-0.053,2.732,0.375,2.74,0.941c0.008,0.566-1.418,1.793-2.82,1.741c-1.402-0.053-2.863-1.184-2.845-1.621
		c0-0.635,1.74-1.129,2.924-1.097L18.117,39.905z M13.8,36.545c0.87,1.001,1.2,2.767,0.513,3.28
		c-0.687,0.513-2.254,0.235-3.385-1.392c-0.757-1.375-0.66-2.758-0.122-3.195c0.8-0.485,2.045,0.174,3.002,1.281L13.8,36.545z
		 M22.268,36.225c-0.87,1.053-1.4,2.977-0.748,3.595c0.627,0.48,2.315,0.417,3.56-1.314c0.742-1.079,0.776-2.496,0.087-3.611
		C24.401,34.302,23.297,35.059,22.268,36.225L22.268,36.225z"/>
</g>
<path d="M36.627,24.181c0.238,0.041,0.473,0.096,0.705,0.164c1.218,0.358,2.109,1.404,2.271,2.663c0.196,1.101-0.2,2.224-1.044,2.96
	l-0.087,0.078c0.313,0.251,0.566,0.569,0.74,0.932c0.188,0.395,0.29,0.824,0.296,1.263c0,0.284,0.018,0.573,0.052,0.87
	c0.013,0.062,0.05,0.115,0.104,0.146c0.329,0.159,0.523,0.508,0.487,0.87c-0.073,0.422-0.442,0.729-0.87,0.724
	c-0.542,0.017-1.035-0.313-1.227-0.818c-0.158-0.391-0.246-0.807-0.261-1.227c0-0.262,0-0.522-0.044-0.774
	c-0.092-0.474-0.42-0.868-0.87-1.044c-0.294-0.157-0.624-0.235-0.957-0.228h-1.497v3.324c0.001,0.455-0.348,0.834-0.801,0.87
	c-0.41,0.012-0.772-0.264-0.87-0.661V24.86c0.1-0.33,0.35-0.588,0.68-0.68h3.272H36.627z M34.4,27.505v1.444
	c0,0.14,0,0.183,0.174,0.183h1.68c0.141,0.001,0.281-0.014,0.418-0.044c0.804-0.17,1.347-0.924,1.253-1.739
	c-0.1-0.816-0.796-1.431-1.62-1.428h-1.74c-0.14,0-0.157,0.053-0.157,0.165l-0.01,1.427L34.4,27.505z M67.936,24.181
	c0.312,0.064,0.562,0.295,0.653,0.6c0.031,0.13,0.045,0.266,0.043,0.4v2.758c1.65-1.119,3.9-0.734,5.074,0.869
	c1.051,1.409,1.051,3.342,0,4.75c-0.375,0.512-0.871,0.92-1.444,1.192c-0.584,0.271-1.229,0.378-1.869,0.313
	c-0.622-0.073-1.22-0.291-1.74-0.635c-0.084,0.329-0.353,0.581-0.688,0.643c-0.477,0.063-0.914-0.271-0.979-0.746
	c-0.002-0.016-0.003-0.029-0.004-0.045v-9.051c-0.061-0.47,0.229-0.914,0.688-1.043h0.322L67.936,24.181z M72.818,31.142
	c0-0.185-0.053-0.375-0.096-0.559c-0.279-1.107-1.396-1.785-2.508-1.523c-0.648,0.197-1.176,0.681-1.43,1.301
	c-0.252,0.621-0.203,1.344,0.133,1.935c0.418,0.772,1.281,1.197,2.149,1.054c1.05-0.213,1.791-1.149,1.759-2.221L72.818,31.142z
	 M58.06,38.008c-0.152-0.092-0.299-0.196-0.436-0.313c-0.136-0.148-0.205-0.348-0.19-0.549c0-3,0-5.992,0-8.979
	c-0.013-0.407,0.258-0.77,0.653-0.87c0.429-0.096,0.861,0.144,1.009,0.558v0.043c1.03-0.685,2.329-0.819,3.479-0.364
	c0.754,0.296,1.389,0.831,1.812,1.522c0.932,1.459,0.801,3.356-0.322,4.672c-0.586,0.703-1.416,1.156-2.323,1.271
	c-0.914,0.136-1.845-0.075-2.611-0.592v0.199c0,0.824,0,1.65,0,2.479c0.017,0.399-0.242,0.759-0.627,0.87H58.06V38.008z
	 M63.279,31.203c-0.004-0.438-0.127-0.864-0.355-1.236c-0.579-0.952-1.822-1.255-2.775-0.676c-0.096,0.058-0.186,0.124-0.271,0.196
	c-0.924,0.871-0.992,2.318-0.156,3.272c0.505,0.556,1.277,0.779,2,0.583c0.949-0.27,1.6-1.145,1.584-2.132L63.279,31.203z
	 M109.453,24.181c0.238,0.041,0.473,0.096,0.705,0.164c1.28,0.377,2.199,1.499,2.314,2.828c0.193,1.741-1.006,3.329-2.73,3.62
	c-0.203,0.035-0.406,0.056-0.609,0.062h-1.905v3.386c-0.024,0.479-0.435,0.849-0.914,0.823c-0.312-0.017-0.591-0.197-0.731-0.477
	c-0.045-0.105-0.068-0.222-0.068-0.339c0-3.067,0-6.138,0-9.206c0.011-0.377,0.264-0.704,0.627-0.809h3.322L109.453,24.181z
	 M107.225,27.495v1.488c0,0.086,0,0.147,0.112,0.14h2.037c0.808-0.083,1.414-0.772,1.392-1.584c-0.011-0.89-0.736-1.604-1.627-1.601
	h-1.74c-0.129,0-0.147,0.043-0.147,0.156L107.225,27.495z M115.346,34.295c0,0.07,0,0.13-0.054,0.2
	c-0.205,0.436-0.723,0.621-1.158,0.417c-0.258-0.122-0.438-0.362-0.485-0.644c0-2.031,0-4.063,0-6.101
	c0.115-0.466,0.588-0.75,1.054-0.634c0.281,0.07,0.51,0.275,0.608,0.547c-0.002,0.018-0.002,0.035,0,0.052v6.152L115.346,34.295z
	 M115.346,25.394c-0.025,0.111-0.058,0.223-0.097,0.33c-0.17,0.353-0.556,0.549-0.94,0.479c-0.369-0.096-0.636-0.42-0.651-0.801
	c-0.021-0.188-0.021-0.379,0-0.566c0.079-0.326,0.34-0.577,0.67-0.645h0.321c0.269,0.063,0.491,0.252,0.601,0.506
	c0,0.096,0.051,0.199,0.086,0.305v0.393H115.346z M101.02,34.771c-0.336,0.106-0.681,0.193-1.026,0.262
	c-0.959,0.137-1.926-0.186-2.611-0.87c-0.688-0.632-1.067-1.53-1.043-2.463c0-1.2,0-2.398,0-3.595
	c0.013-0.369,0.257-0.689,0.609-0.801c0.36-0.104,0.746,0.059,0.922,0.393c0.069,0.162,0.104,0.337,0.104,0.513v3.576
	c-0.021,0.7,0.422,1.327,1.088,1.54c0.672,0.195,1.395-0.061,1.793-0.635c0.178-0.256,0.271-0.561,0.271-0.871
	c0-1.223,0-2.447,0-3.672c-0.021-0.375,0.215-0.715,0.572-0.826c0.369-0.096,0.758,0.06,0.957,0.383
	c0.068,0.132,0.104,0.277,0.104,0.426v5.943c-0.023,2.037-1.695,3.67-3.732,3.646c-0.547-0.007-1.084-0.134-1.574-0.374
	c-0.408-0.168-0.604-0.635-0.437-1.043c0.122-0.299,0.411-0.494,0.731-0.496c0.146-0.002,0.289,0.031,0.418,0.096
	c1.024,0.483,2.246,0.049,2.731-0.976L101.02,34.771z M46.617,27.966c0.068-0.127,0.147-0.25,0.235-0.365
	c0.207-0.261,0.556-0.361,0.87-0.252c0.324,0.12,0.546,0.422,0.566,0.767v0.077c0,2,0,4.008,0,6.022
	c0.03,0.437-0.288,0.818-0.722,0.87c-0.334,0.042-0.661-0.128-0.818-0.426c0-0.07-0.07-0.141-0.104-0.227
	c-1.634,1.152-3.892,0.762-5.045-0.871c-0.207-0.293-0.369-0.614-0.481-0.957c-0.52-1.285-0.325-2.748,0.513-3.854
	c0.755-1.068,2.046-1.624,3.341-1.436c0.53,0.065,1.037,0.257,1.479,0.557L46.617,27.966z M42.5,31.358
	c0.021,0.203,0.055,0.404,0.104,0.602c0.182,0.706,0.748,1.249,1.462,1.398c0.694,0.179,1.428-0.039,1.914-0.564
	c0.796-0.909,0.796-2.268,0-3.176c-0.653-0.725-1.737-0.862-2.55-0.322C42.783,29.776,42.43,30.558,42.5,31.358L42.5,31.358z
	 M77.673,31.76c0.107,0.597,0.479,1.111,1.011,1.401c0.726,0.419,1.61,0.451,2.366,0.087c0.115-0.056,0.225-0.125,0.322-0.209
	c0.319-0.296,0.819-0.274,1.115,0.045c0.104,0.11,0.172,0.25,0.197,0.397c0.045,0.22-0.036,0.443-0.209,0.584
	c-1.576,1.476-4.051,1.394-5.525-0.185c-0.523-0.56-0.871-1.261-1-2.017c-0.336-1.852,0.695-3.682,2.453-4.352
	c1.049-0.4,2.221-0.305,3.191,0.26c0.969,0.564,1.635,1.537,1.805,2.646c0.029,0.145,0.051,0.289,0.061,0.436
	c0.033,0.239-0.049,0.479-0.219,0.649c-0.172,0.17-0.4,0.252-0.65,0.22h-4.916L77.673,31.76z M82.023,30.431
	c-0.357-1.033-1.344-1.712-2.436-1.68c-0.951,0.038-1.76,0.708-1.976,1.637h4.351L82.023,30.431z M53.022,27.296
	c0.649,0.006,1.284,0.189,1.836,0.531l0.505,0.322c0.364,0.279,0.447,0.793,0.191,1.175c-0.278,0.348-0.774,0.431-1.149,0.19
	c-0.321-0.236-0.68-0.416-1.062-0.531c-0.45-0.114-0.927-0.025-1.305,0.244c-0.048,0.035-0.092,0.076-0.131,0.123
	c-0.08,0.061-0.121,0.159-0.107,0.26c0.013,0.1,0.076,0.185,0.168,0.226c0.299,0.183,0.63,0.304,0.975,0.356
	c0.68,0.11,1.337,0.328,1.949,0.645c0.601,0.309,1.014,0.891,1.105,1.559c0.089,0.643-0.133,1.289-0.6,1.739
	c-0.469,0.474-1.08,0.779-1.74,0.87c-1.258,0.198-2.539-0.188-3.48-1.044c-0.285-0.289-0.332-0.735-0.113-1.079
	c0.236-0.38,0.736-0.496,1.116-0.26c0.008,0.005,0.016,0.011,0.024,0.018c0.07,0.039,0.137,0.086,0.2,0.139
	c0.437,0.363,0.974,0.589,1.54,0.644c0.395,0.028,0.788-0.063,1.13-0.26c0.065-0.04,0.124-0.09,0.174-0.147
	c0.177-0.123,0.222-0.365,0.099-0.543c-0.045-0.065-0.111-0.117-0.186-0.145c-0.423-0.237-0.886-0.395-1.366-0.461
	c-0.596-0.096-1.167-0.309-1.679-0.627c-0.525-0.334-0.86-0.897-0.905-1.518c-0.045-0.621,0.207-1.227,0.68-1.633
	c0.48-0.438,1.092-0.704,1.74-0.757L53.022,27.296z M86.541,28.185c0.395-0.394,0.896-0.66,1.443-0.767
	c0.285-0.062,0.577-0.089,0.869-0.087c0.42,0.027,0.742,0.38,0.73,0.8c0.002,0.418-0.314,0.769-0.73,0.81
	c-0.648,0.004-1.252,0.33-1.609,0.869c-0.283,0.367-0.5,0.775-0.67,1.2c-0.074,0.189-0.113,0.39-0.113,0.593v2.653
	c-0.084,0.474-0.535,0.789-1.008,0.707c-0.279-0.05-0.518-0.231-0.639-0.487c-0.01-0.084-0.01-0.17,0-0.252c0-2.021,0-4.054,0-6.102
	c-0.023-0.387,0.232-0.734,0.609-0.827c0.359-0.091,0.736,0.056,0.938,0.365c0.076,0.162,0.136,0.331,0.175,0.505L86.541,28.185z
	 M92.57,28.2c0.439-0.458,1.018-0.764,1.645-0.87c0.289-0.047,0.582-0.047,0.871,0c0.365,0.09,0.609,0.435,0.574,0.81
	c-0.029,0.422-0.371,0.752-0.793,0.767c-0.629,0.018-1.207,0.344-1.551,0.87c-0.309,0.394-0.547,0.839-0.705,1.313
	c-0.039,0.117-0.061,0.241-0.061,0.365v2.698c0.027,0.455-0.297,0.853-0.746,0.914c-0.443,0.064-0.854-0.241-0.918-0.686
	c-0.002-0.012-0.004-0.023-0.006-0.035c0-2.111,0-4.221,0-6.326c0.008-0.293,0.195-0.551,0.471-0.645
	c0.439-0.191,0.953,0.008,1.146,0.448c0.053,0.122,0.078,0.254,0.071,0.387L92.57,28.2L92.57,28.2z"/>
</svg>
