<?xml version="1.0" encoding="utf-8"?>
<!-- Generator: Adobe Illustrator 27.3.1, SVG Export Plug-In . SVG Version: 6.00 Build 0)  -->
<svg version="1.1" id="Layer_1" xmlns="http://www.w3.org/2000/svg" xmlns:xlink="http://www.w3.org/1999/xlink" x="0px" y="0px"
	 viewBox="0 0 256 256" style="enable-background:new 0 0 256 256;" xml:space="preserve">
<style type="text/css">
	.st0{fill-rule:evenodd;clip-rule:evenodd;fill:#F5F5F5;}
	.st1{fill-rule:evenodd;clip-rule:evenodd;fill:#4FC0D2;}
</style>
<rect x="10.4" y="10.1" class="st0" width="235.6" height="235.6"/>
<g>
	<g>
		<path class="st1" d="M184,190h-5v-30h-5v35h10V190z M194,170h-5v25h5V170z M224,170h-20v-10h-5v35h25V170z M219,190h-15v-15h15
			V190z M169,170h-5v20h-15v-20h-5v25h20v5h-20v5h25V170z M194,160h-5v5h5V160z M139,200h-25v25h25V200z M134,220h-15v-15h15V220z
			 M139,170h-25v5h20v5h-20v15h25V170z M134,190h-15v-5h15V190z M109,200H84v25h20v5H84v5h25V200z M104,220H89v-15h15V220z M0,0v256
			h256V0H0z M240,240H16V16h224V240z M89,175h20v-5H84v25h5V175z"/>
	</g>
</g>
</svg>
