<?xml version="1.0" encoding="utf-8"?>
<!-- Generator: Adobe Illustrator 16.0.3, SVG Export Plug-In . SVG Version: 6.00 Build 0)  -->
<!DOCTYPE svg PUBLIC "-//W3C//DTD SVG 1.1//EN" "http://www.w3.org/Graphics/SVG/1.1/DTD/svg11.dtd">
<svg version="1.1"
	 id="Layer_1" xmlns:dc="http://purl.org/dc/elements/1.1/" xmlns:rdf="http://www.w3.org/1999/02/22-rdf-syntax-ns#" xmlns:cc="http://creativecommons.org/ns#"
	 xmlns="http://www.w3.org/2000/svg" xmlns:xlink="http://www.w3.org/1999/xlink" x="0px" y="0px" width="1104px" height="197px"
	 viewBox="28 30.5 1104 197" enable-background="new 28 30.5 1104 197" xml:space="preserve">
<title>Rocky Linux logo</title>
<path fill="#10B981" d="M219,160c3.46-9.91,5.34-20.6,5.34-31.7c0-53-43-96-96-96s-96,43-96,96c0,26.2,10.5,50,27.6,67.3
	l97.4-97.399l61.7,61.7L219,160z M201.5,190.5l-44.2-44.2l-69.2,69.2c12.2,5.65,25.8,8.8,40.2,8.8c29.3,0,55.5-13.1,73.1-33.8H201.5
	z"/>
<path d="M283,178V77h49.2c5.09,0,9.74,0.768,14,2.3c4.319,1.54,8.02,3.7,11.1,6.48c3.07,2.69,5.47,5.95,7.2,9.79
	c1.73,3.84,2.59,8.06,2.59,12.7c0,6.34-1.82,12-5.47,17c-3.55,4.99-8.3,8.69-14.3,11.1l22.3,41.5h-23.3l-19.7-38.601h-22.8v38.601
	h-20.9L283,178z M330.4,95.2h-26.5v27.1h26.5c4.699,0,8.449-1.25,11.199-3.74c2.881-2.5,4.32-5.76,4.32-9.79s-1.439-7.3-4.32-9.79
	c-2.779-2.5-6.529-3.74-11.199-3.74V95.2z M371.6,140.6c0-5.47,1.011-10.6,3.021-15.3c2.11-4.8,4.939-8.93,8.5-12.4
	c3.649-3.55,7.92-6.34,12.8-8.35c4.88-2.01,10.1-3.02,15.7-3.02c5.6,0,10.8,1.01,15.7,3.02c4.899,2.01,9.12,4.8,12.699,8.35
	c3.65,3.46,6.48,7.58,8.5,12.4c2.11,4.7,3.171,9.79,3.171,15.3S450.63,151.2,448.52,156c-2.02,4.7-4.85,8.779-8.5,12.2
	c-3.55,3.46-7.779,6.19-12.699,8.21s-10.101,3.02-15.7,3.02c-5.601,0-10.8-1.01-15.7-3.02s-9.17-4.75-12.8-8.21
	c-3.55-3.46-6.38-7.54-8.5-12.2C372.6,151.2,371.6,146.061,371.6,140.6z M411.6,162.3c5.761,0,10.7-2.11,14.7-6.34
	s6.05-9.36,6.05-15.399c0-6.141-2.02-11.301-6.05-15.601s-8.93-6.34-14.7-6.34c-5.77,0-10.699,2.11-14.699,6.34
	c-4,4.229-6.051,9.41-6.051,15.601c0,6.049,2.021,11.199,6.051,15.399C400.93,160.16,405.83,162.3,411.6,162.3z M501,162.156
	c3.36,0,6.48-0.672,9.36-2.021c2.979-1.34,5.81-3.46,8.5-6.34l11.8,12.2c-3.84,4.22-8.45,7.54-13.8,9.939
	c-5.38,2.301-10.9,3.461-16.7,3.461c-5.47,0-10.7-1.01-15.601-3.021c-4.8-2.021-8.979-4.75-12.5-8.21
	c-3.46-3.46-6.189-7.54-8.21-12.2c-2.02-4.8-3.02-9.94-3.02-15.399c0-5.461,1.01-10.601,3.02-15.3c2.021-4.8,4.75-8.93,8.21-12.4
	c3.551-3.55,7.73-6.34,12.5-8.35c4.9-2.02,10.101-3.02,15.601-3.02c5.95,0,11.7,1.2,17.1,3.6c5.47,2.3,10.101,5.57,14,9.79
	l-12.1,12.8c-2.69-2.98-5.57-5.23-8.641-6.77c-3.069-1.54-6.38-2.3-9.939-2.3c-5.66,0-10.5,2.11-14.4,6.34
	c-3.84,4.22-5.76,9.41-5.76,15.601c0,6.189,1.97,11.299,5.9,15.399c4.029,4.13,8.93,6.19,14.699,6.19L501,162.156z M540.9,177.956
	v-101l19.699-4.32v61.799l32.4-31.7h22.3l-35.1,34.401l37.3,40.6h-25.2l-31.7-34.301v34.301H540.9V177.956z M644.9,181.416
	l1.149-2.74l-29.2-75.7h21.7l18.601,51.1l21.3-51.1h21.3l-34.6,80.9c-3.841,9.021-8.301,15.5-13.4,19.3
	c-5.1,3.801-11.7,5.76-19.9,5.76c-1.729,0-3.409-0.096-5.04-0.287c-1.54-0.096-2.779-0.289-3.739-0.576v-17
	c0.96,0.191,1.97,0.336,3.02,0.432s2.351,0.145,3.891,0.145c3.55,0,6.529-0.864,8.93-2.59c2.5-1.73,4.46-4.271,5.9-7.631
	L644.9,181.416z M739,177.956v-101h11.1v90.899h60v9.94H739V177.956z M829.2,91.956c-1.92,0-3.601-0.72-5.04-2.16
	c-1.44-1.44-2.16-3.12-2.16-5.04c0-2.02,0.72-3.7,2.16-5.04c1.439-1.44,3.12-2.16,5.04-2.16c2.02,0,3.7,0.72,5.04,2.16
	c1.439,1.34,2.16,3.02,2.16,5.04c0,1.92-0.721,3.6-2.16,5.04C832.9,91.236,831.22,91.956,829.2,91.956z M834.53,105.756v72.1h-10.7
	v-72.1H834.53z M852.73,177.855v-72.1h10.699v8.5c2.78-3.26,6.101-5.71,9.94-7.34c3.84-1.73,8.11-2.59,12.8-2.59
	c8.16,0,14.8,2.59,20,7.78s7.78,11.9,7.78,20.201v45.6h-10.5v-43.5c0-6.34-1.82-11.4-5.47-15.1c-3.65-3.7-8.54-5.62-14.7-5.62
	c-4.32,0-8.21,0.96-11.7,2.88c-3.36,1.92-6.1,4.66-8.21,8.21v53.1h-10.7L852.73,177.855z M941.33,105.756v43.5
	c0,6.34,1.82,11.4,5.47,15.1c3.65,3.701,8.54,5.621,14.7,5.621c4.32,0,8.16-0.961,11.5-2.881c3.46-2.02,6.24-4.8,8.35-8.35v-53h10.7
	v72.1h-10.7v-8.35c-2.779,3.26-6.1,5.71-9.939,7.34c-3.74,1.63-7.97,2.45-12.7,2.45c-8.26,0-15-2.591-20.2-7.78
	s-7.78-11.9-7.78-20.199v-45.601h10.5L941.33,105.756z M1001.83,177.855l28.4-37.199l-26.9-35h12.7l20.399,27.1l20.4-27.1h12.2
	l-26.601,34.8l28.5,37.3h-12.699l-22-29.4l-22.301,29.4h-12.1V177.855z"/>
<path d="M1080,102V86.4h-5.18v-3.02h5.18v-6.1l3.5-0.912v7.01h7.25v3.02h-7.25v14.7c0,1.28,0.29,2.21,0.87,2.78
	c0.569,0.544,1.52,0.816,2.83,0.816c0.67,0,1.26-0.048,1.78-0.144c0.539-0.096,1.119-0.256,1.72-0.48v3.12
	c-0.601,0.224-1.29,0.384-2.061,0.48c-0.739,0.096-1.46,0.144-2.16,0.144c-2.079,0-3.68-0.496-4.8-1.49
	c-1.12-0.994-1.68-2.43-1.68-4.32V102z M1094.6,107.38v-24h3.551v2.64c0.89-1.02,1.93-1.79,3.119-2.3
	c1.181-0.544,2.49-0.816,3.931-0.816c1.67,0,3.16,0.4,4.47,1.2c1.34,0.768,2.38,1.82,3.12,3.17c0.99-1.47,2.17-2.56,3.55-3.26
	c1.41-0.736,2.98-1.1,4.7-1.1c2.6,0,4.71,0.864,6.34,2.59c1.66,1.73,2.5,3.97,2.5,6.72v15.2h-3.51v-14.5
	c0-2.11-0.561-3.79-1.681-5.04c-1.119-1.25-2.64-1.87-4.56-1.87c-1.31,0-2.51,0.336-3.6,1.01c-1.091,0.674-2.011,1.65-2.78,2.93
	c0.06,0.352,0.109,0.72,0.14,1.1c0.07,0.352,0.101,0.736,0.101,1.15v15.2h-3.511v-14.5c0-2.11-0.56-3.79-1.68-5.04
	s-2.62-1.87-4.51-1.87c-1.28,0-2.45,0.304-3.5,0.912c-1.03,0.576-1.91,1.44-2.641,2.59v17.9h-3.55V107.38z"/>
</svg>
