<?xml version="1.0" encoding="utf-8"?>
<!-- Generator: Adobe Illustrator 16.0.3, SVG Export Plug-In . SVG Version: 6.00 Build 0)  -->
<!DOCTYPE svg PUBLIC "-//W3C//DTD SVG 1.1//EN" "http://www.w3.org/Graphics/SVG/1.1/DTD/svg11.dtd">
<svg version="1.1"
	 id="Layer_1" xmlns:dc="http://purl.org/dc/elements/1.1/" xmlns:cc="http://creativecommons.org/ns#" xmlns:rdf="http://www.w3.org/1999/02/22-rdf-syntax-ns#"
	 xmlns="http://www.w3.org/2000/svg" xmlns:xlink="http://www.w3.org/1999/xlink" x="0px" y="0px" width="1097.541px"
	 height="192px" viewBox="32.34 32.3 1097.541 192" enable-background="new 32.34 32.3 1097.541 192" xml:space="preserve">
<title>Rocky Linux logo</title>
<path fill="#10B981" d="M219,160c3.46-9.91,5.34-20.6,5.34-31.7c0-53-43-96-96-96s-96,43-96,96c0,26.2,10.5,50,27.6,67.3
	l97.4-97.398l61.7,61.699L219,160z M201.5,190.5l-44.2-44.2l-69.2,69.2c12.2,5.65,25.8,8.8,40.2,8.8c29.3,0,55.5-13.1,73.1-33.8
	H201.5z"/>
<path d="M283,178V77h49.2c5.09,0,9.74,0.768,14,2.3c4.318,1.54,8.02,3.7,11.1,6.48c3.07,2.69,5.47,5.95,7.2,9.79
	c1.73,3.84,2.59,8.06,2.59,12.7c0,6.34-1.82,12-5.47,17c-3.55,4.99-8.3,8.69-14.3,11.101l22.3,41.5h-23.3l-19.7-38.601h-22.8v38.601
	h-20.9L283,178z M330.4,95.2h-26.5v27.1h26.5c4.698,0,8.448-1.25,11.198-3.739c2.882-2.5,4.32-5.761,4.32-9.791
	c0-4.029-1.438-7.299-4.32-9.79c-2.778-2.5-6.528-3.74-11.198-3.74V95.2z M371.6,140.6c0-5.47,1.012-10.6,3.021-15.3
	c2.11-4.8,4.938-8.93,8.5-12.399c3.648-3.551,7.92-6.34,12.8-8.351c4.88-2.01,10.101-3.021,15.7-3.021s10.8,1.011,15.7,3.021
	c4.898,2.011,9.12,4.8,12.698,8.351c3.65,3.459,6.48,7.58,8.5,12.399c2.11,4.7,3.172,9.79,3.172,15.3S450.63,151.2,448.52,156
	c-2.02,4.7-4.85,8.779-8.5,12.2c-3.55,3.46-7.778,6.19-12.698,8.21s-10.102,3.02-15.7,3.02c-5.602,0-10.8-1.01-15.7-3.02
	s-9.17-4.75-12.8-8.21c-3.55-3.46-6.38-7.54-8.5-12.2C372.6,151.2,371.6,146.061,371.6,140.6z M411.6,162.3
	c5.762,0,10.7-2.11,14.7-6.34s6.05-9.36,6.05-15.399c0-6.141-2.02-11.301-6.05-15.601s-8.93-6.34-14.7-6.34
	c-5.77,0-10.698,2.11-14.698,6.34s-6.052,9.41-6.052,15.601c0,6.049,2.021,11.199,6.052,15.399
	C400.93,160.16,405.83,162.3,411.6,162.3z M501,162.156c3.36,0,6.48-0.672,9.36-2.021c2.979-1.34,5.81-3.46,8.5-6.34l11.8,12.2
	c-3.84,4.22-8.45,7.54-13.8,9.938c-5.38,2.301-10.9,3.461-16.7,3.461c-5.47,0-10.7-1.01-15.602-3.021
	c-4.8-2.021-8.979-4.75-12.5-8.21c-3.46-3.46-6.188-7.54-8.21-12.2c-2.02-4.8-3.02-9.94-3.02-15.399
	c0-5.461,1.01-10.601,3.02-15.299c2.021-4.801,4.75-8.931,8.21-12.4c3.552-3.551,7.73-6.34,12.5-8.35
	c4.9-2.021,10.102-3.021,15.602-3.021c5.95,0,11.7,1.2,17.1,3.601c5.47,2.299,10.102,5.569,14,9.789l-12.1,12.801
	c-2.69-2.98-5.57-5.23-8.642-6.771c-3.068-1.54-6.38-2.3-9.938-2.3c-5.66,0-10.5,2.109-14.4,6.34c-3.84,4.22-5.76,9.41-5.76,15.602
	c0,6.188,1.97,11.299,5.9,15.398c4.028,4.13,8.93,6.189,14.698,6.189L501,162.156z M540.9,177.956v-101l19.698-4.32v61.8
	l32.4-31.701h22.3l-35.1,34.401l37.3,40.601h-25.2l-31.7-34.301v34.301H540.9V177.956z M644.9,181.416l1.148-2.74l-29.2-75.699h21.7
	l18.602,51.1l21.3-51.1h21.3l-34.6,80.899c-3.842,9.021-8.302,15.5-13.4,19.3c-5.1,3.801-11.7,5.76-19.9,5.76
	c-1.729,0-3.408-0.096-5.04-0.287c-1.54-0.096-2.778-0.289-3.738-0.575v-17c0.96,0.19,1.97,0.336,3.02,0.432
	c1.05,0.097,2.352,0.146,3.892,0.146c3.55,0,6.528-0.864,8.93-2.59c2.5-1.73,4.46-4.271,5.9-7.631L644.9,181.416z M739,177.956v-101
	h11.1v90.899h60v9.939H739V177.956z M829.2,91.956c-1.92,0-3.602-0.72-5.04-2.16c-1.44-1.44-2.16-3.12-2.16-5.04
	c0-2.02,0.72-3.7,2.16-5.04c1.438-1.44,3.12-2.16,5.04-2.16c2.02,0,3.7,0.72,5.04,2.16c1.438,1.34,2.16,3.02,2.16,5.04
	c0,1.92-0.722,3.6-2.16,5.04C832.9,91.236,831.22,91.956,829.2,91.956z M834.53,105.756v72.1h-10.7v-72.1H834.53z M852.73,177.855
	v-72.101h10.698v8.5c2.78-3.26,6.102-5.71,9.94-7.34c3.84-1.729,8.109-2.59,12.8-2.59c8.16,0,14.8,2.59,20,7.78
	c5.2,5.189,7.78,11.899,7.78,20.201v45.6h-10.5v-43.5c0-6.34-1.82-11.4-5.471-15.1c-3.649-3.701-8.539-5.621-14.699-5.621
	c-4.32,0-8.21,0.961-11.7,2.881c-3.36,1.92-6.101,4.66-8.21,8.209v53.101h-10.7L852.73,177.855z M941.33,105.756v43.5
	c0,6.34,1.82,11.4,5.47,15.1c3.65,3.701,8.54,5.621,14.7,5.621c4.32,0,8.16-0.961,11.5-2.881c3.46-2.02,6.24-4.8,8.35-8.35v-53h10.7
	v72.1h-10.7v-8.35c-2.778,3.26-6.1,5.71-9.938,7.34c-3.74,1.63-7.97,2.45-12.7,2.45c-8.26,0-15-2.591-20.2-7.78
	s-7.78-11.9-7.78-20.199v-45.601h10.5L941.33,105.756z M1001.83,177.855l28.4-37.199l-26.9-35h12.7l20.398,27.1l20.4-27.1h12.2
	l-26.602,34.8l28.5,37.3h-12.699l-22-29.4l-22.301,29.4h-12.1v0.1H1001.83z"/>
<path d="M1080,102V86.4h-5.18v-3.02h5.18v-6.1l3.5-0.912v7.01h7.25v3.02h-7.25v14.7c0,1.28,0.29,2.211,0.87,2.78
	c0.569,0.544,1.52,0.815,2.83,0.815c0.67,0,1.26-0.047,1.78-0.144c0.538-0.096,1.118-0.256,1.72-0.479v3.119
	c-0.602,0.225-1.29,0.385-2.062,0.48c-0.738,0.096-1.46,0.145-2.16,0.145c-2.078,0-3.68-0.496-4.8-1.49s-1.68-2.43-1.68-4.32
	L1080,102L1080,102z M1094.6,107.38v-24h3.552v2.64c0.89-1.02,1.93-1.79,3.118-2.3c1.182-0.544,2.49-0.816,3.932-0.816
	c1.67,0,3.16,0.4,4.47,1.2c1.34,0.768,2.38,1.82,3.12,3.17c0.99-1.47,2.17-2.56,3.55-3.26c1.41-0.736,2.98-1.1,4.7-1.1
	c2.6,0,4.71,0.864,6.34,2.59c1.66,1.73,2.5,3.97,2.5,6.72v15.2h-3.51v-14.5c0-2.11-0.562-3.79-1.682-5.04
	c-1.118-1.25-2.64-1.87-4.56-1.87c-1.31,0-2.51,0.336-3.6,1.01c-1.091,0.674-2.012,1.65-2.78,2.93c0.06,0.352,0.109,0.72,0.14,1.1
	c0.07,0.352,0.102,0.736,0.102,1.15v15.2h-3.512v-14.5c0-2.11-0.56-3.79-1.68-5.04s-2.62-1.87-4.51-1.87
	c-1.28,0-2.45,0.304-3.5,0.912c-1.03,0.576-1.91,1.44-2.642,2.59v17.9h-3.55L1094.6,107.38L1094.6,107.38z"/>
</svg>
