<?xml version="1.0" encoding="utf-8"?>
<!-- Generator: Adobe Illustrator 27.3.1, SVG Export Plug-In . SVG Version: 6.00 Build 0)  -->
<svg version="1.1"
	 id="Layer_1" xmlns:sodipodi="http://sodipodi.sourceforge.net/DTD/sodipodi-0.dtd" xmlns:svg="http://www.w3.org/2000/svg" xmlns:rdf="http://www.w3.org/1999/02/22-rdf-syntax-ns#" xmlns:cc="http://creativecommons.org/ns#" xmlns:inkscape="http://www.inkscape.org/namespaces/inkscape" xmlns:dc="http://purl.org/dc/elements/1.1/"
	 xmlns="http://www.w3.org/2000/svg" xmlns:xlink="http://www.w3.org/1999/xlink" x="0px" y="0px" viewBox="0 0 111.2 38.2"
	 style="enable-background:new 0 0 111.2 38.2;" xml:space="preserve">
<style type="text/css">
	.st0{fill:url(#SVGID_1_);}
	.st1{fill:url(#SVGID_00000127041234268452862240000011253794253557472427_);}
	.st2{fill:url(#SVGID_00000052806694752538036780000015738876426765152896_);}
	.st3{fill:url(#SVGID_00000164515415164526240450000000588934704375105934_);}
	.st4{fill:url(#SVGID_00000151503949118076517740000007495235886814854786_);}
	.st5{fill:url(#SVGID_00000091714261850577610500000015453435553614801343_);}
	.st6{fill:url(#SVGID_00000013193068823515739470000017328641639526642062_);}
	.st7{fill:url(#SVGID_00000056411434411302585530000009639017222027077802_);}
	.st8{fill:#FFFFFF;}
	.st9{fill:url(#SVGID_00000145753785102730893710000014873627040925777049_);}
	.st10{fill:url(#SVGID_00000074405317271029721460000014932730420039564184_);}
	.st11{fill:url(#SVGID_00000132048088828839607600000004847044909506709687_);}
	.st12{fill:url(#SVGID_00000016788313703713086950000014669521110706889883_);}
	.st13{fill:#9E1209;}
	.st14{fill:url(#SVGID_00000076588539529435478650000009204927712656096916_);}
	.st15{fill:url(#SVGID_00000077314855292605568310000013642268703145528743_);}
	.st16{fill:url(#SVGID_00000083768402904295297420000005639699621301299597_);}
	.st17{fill:url(#SVGID_00000101807166698774697470000017087778322451218837_);}
</style>
<sodipodi:namedview  bordercolor="#666666" borderopacity="1" gridtolerance="10" guidetolerance="10" id="namedview3487" inkscape:current-layer="Layer_1" inkscape:cx="63.904915" inkscape:cy="30" inkscape:pageopacity="0" inkscape:pageshadow="2" inkscape:window-height="1176" inkscape:window-maximized="1" inkscape:window-width="1535" inkscape:window-x="65" inkscape:window-y="24" inkscape:zoom="8.2613642" objecttolerance="10" pagecolor="#ffffff" showgrid="false">
	</sodipodi:namedview>
<g>
	
		<linearGradient id="SVGID_1_" gradientUnits="userSpaceOnUse" x1="-235.6284" y1="439.9592" x2="-235.6655" y2="440.0248" gradientTransform="matrix(202.9347 0 0 -202.7803 47848.5547 89253.9219)">
		<stop  offset="0" style="stop-color:#FB7655"/>
		<stop  offset="0" style="stop-color:#FB7655"/>
		<stop  offset="0.41" style="stop-color:#E42B1E"/>
		<stop  offset="0.99" style="stop-color:#990000"/>
		<stop  offset="1" style="stop-color:#990000"/>
	</linearGradient>
	<path class="st0" d="M27.7,23.5L7.3,35.6l26.4-1.8l2-26.6L27.7,23.5z"/>
	
		<linearGradient id="SVGID_00000022531910466067178460000016657577651651020707_" gradientUnits="userSpaceOnUse" x1="-235.1769" y1="439.2021" x2="-235.3379" y2="439.2604" gradientTransform="matrix(60.3079 0 0 -111.7781 14218.1689 49120.8555)">
		<stop  offset="0" style="stop-color:#871101"/>
		<stop  offset="0" style="stop-color:#871101"/>
		<stop  offset="0.99" style="stop-color:#911209"/>
		<stop  offset="1" style="stop-color:#911209"/>
	</linearGradient>
	<path style="fill:url(#SVGID_00000022531910466067178460000016657577651651020707_);" d="M33.7,33.8l-2.3-15.7l-6.2,8.2L33.7,33.8z
		"/>
	
		<linearGradient id="SVGID_00000104684504021991300270000014804096375006110858_" gradientUnits="userSpaceOnUse" x1="-235.5704" y1="432.4397" x2="-235.622" y2="432.7361" gradientTransform="matrix(188.3195 0 0 -21.9864 44389.8789 9547.0586)">
		<stop  offset="0" style="stop-color:#871101"/>
		<stop  offset="0" style="stop-color:#871101"/>
		<stop  offset="0.99" style="stop-color:#911209"/>
		<stop  offset="1" style="stop-color:#911209"/>
	</linearGradient>
	<path style="fill:url(#SVGID_00000104684504021991300270000014804096375006110858_);" d="M33.8,33.8l-16.6-1.3l-9.8,3.1L33.8,33.8z
		"/>
	
		<linearGradient id="SVGID_00000031193814138184015260000005477006169798775176_" gradientUnits="userSpaceOnUse" x1="-233.2206" y1="439.1293" x2="-233.1975" y2="439.0285" gradientTransform="matrix(65.2221 0 0 -97.0999 15218.1143 42662.375)">
		<stop  offset="0" style="stop-color:#FFFFFF"/>
		<stop  offset="0" style="stop-color:#FFFFFF"/>
		<stop  offset="0.23" style="stop-color:#E57252"/>
		<stop  offset="0.46" style="stop-color:#DE3B20"/>
		<stop  offset="0.99" style="stop-color:#A60003"/>
		<stop  offset="1" style="stop-color:#A60003"/>
	</linearGradient>
	<path style="fill:url(#SVGID_00000031193814138184015260000005477006169798775176_);" d="M7.4,35.6L11.5,22l-9.1,2L7.4,35.6z"/>
	
		<linearGradient id="SVGID_00000100364766356652699690000008479329543453617025_" gradientUnits="userSpaceOnUse" x1="-234.994" y1="438.7563" x2="-234.9887" y2="438.6629" gradientTransform="matrix(105.3202 0 0 -106.8253 24766.9434 46884.125)">
		<stop  offset="0" style="stop-color:#FFFFFF"/>
		<stop  offset="0" style="stop-color:#FFFFFF"/>
		<stop  offset="0.23" style="stop-color:#E4714E"/>
		<stop  offset="0.56" style="stop-color:#BE1A0D"/>
		<stop  offset="0.99" style="stop-color:#A80D00"/>
		<stop  offset="1" style="stop-color:#A80D00"/>
	</linearGradient>
	<path style="fill:url(#SVGID_00000100364766356652699690000008479329543453617025_);" d="M25.3,26.4l-3.8-15L10.5,21.6L25.3,26.4z"
		/>
	
		<linearGradient id="SVGID_00000121975529910601471590000002067122077646559365_" gradientUnits="userSpaceOnUse" x1="-235.5395" y1="436.1165" x2="-235.5219" y2="436.0087" gradientTransform="matrix(94.3212 0 0 -66.4185 22242.8906 28970.8008)">
		<stop  offset="0" style="stop-color:#FFFFFF"/>
		<stop  offset="0" style="stop-color:#FFFFFF"/>
		<stop  offset="0.18" style="stop-color:#E46342"/>
		<stop  offset="0.4" style="stop-color:#C82410"/>
		<stop  offset="0.99" style="stop-color:#A80D00"/>
		<stop  offset="1" style="stop-color:#A80D00"/>
	</linearGradient>
	<path style="fill:url(#SVGID_00000121975529910601471590000002067122077646559365_);" d="M34.9,11.6L24.5,3.1l-2.9,9.3L34.9,11.6z"
		/>
	
		<linearGradient id="SVGID_00000076604289920136829490000016337362716992977596_" gradientUnits="userSpaceOnUse" x1="-235.0724" y1="425.3507" x2="-234.9712" y2="425.498" gradientTransform="matrix(70.7666 0 0 -24.3007 16656.7285 10338.4033)">
		<stop  offset="0" style="stop-color:#FFFFFF"/>
		<stop  offset="0" style="stop-color:#FFFFFF"/>
		<stop  offset="0.54" style="stop-color:#C81F11"/>
		<stop  offset="0.99" style="stop-color:#BF0905"/>
		<stop  offset="1" style="stop-color:#BF0905"/>
	</linearGradient>
	<path style="fill:url(#SVGID_00000076604289920136829490000016337362716992977596_);" d="M30,0.1l-6.1,3.4l-3.8-3.4L30,0.1z"/>
	
		<linearGradient id="SVGID_00000175315539150537210100000017424632145838539183_" gradientUnits="userSpaceOnUse" x1="-223.6333" y1="437.8813" x2="-223.6009" y2="437.8001" gradientTransform="matrix(18.1773 0 0 -72.6448 4065.751 31830.2812)">
		<stop  offset="0" style="stop-color:#FFFFFF"/>
		<stop  offset="0" style="stop-color:#FFFFFF"/>
		<stop  offset="0.31" style="stop-color:#DE4024"/>
		<stop  offset="0.99" style="stop-color:#BF190B"/>
		<stop  offset="1" style="stop-color:#BF190B"/>
	</linearGradient>
	<path style="fill:url(#SVGID_00000175315539150537210100000017424632145838539183_);" d="M0,28.5l2.5-4.6l-2.1-5.5L0,28.5z"/>
	<path class="st8" d="M0.3,18.1L2.4,24l9-2l10.3-9.6l2.9-9.2L20,0l-7.8,2.9C9.8,5.2,5.1,9.7,4.9,9.8C4.7,9.9,1.8,15.5,0.3,18.1
		L0.3,18.1z"/>
	
		<linearGradient id="SVGID_00000098939922436905533400000013908163132492053650_" gradientUnits="userSpaceOnUse" x1="-235.2738" y1="439.2008" x2="-235.0988" y2="439.381" gradientTransform="matrix(158.1624 0 0 -157.9374 37208.1289 69394.1953)">
		<stop  offset="0" style="stop-color:#BD0012"/>
		<stop  offset="0" style="stop-color:#BD0012"/>
		<stop  offset="7.000000e-02" style="stop-color:#FFFFFF"/>
		<stop  offset="0.17" style="stop-color:#FFFFFF"/>
		<stop  offset="0.27" style="stop-color:#C82F1C"/>
		<stop  offset="0.33" style="stop-color:#820C01"/>
		<stop  offset="0.46" style="stop-color:#A31601"/>
		<stop  offset="0.72" style="stop-color:#B31301"/>
		<stop  offset="0.99" style="stop-color:#E82609"/>
		<stop  offset="1" style="stop-color:#E82609"/>
	</linearGradient>
	<path style="fill:url(#SVGID_00000098939922436905533400000013908163132492053650_);" d="M7.6,7.6c5.3-5.3,12.1-8.4,14.8-5.7
		c2.6,2.6-0.2,9.1-5.5,14.3S4.9,24.7,2.3,22.1C-0.4,19.4,2.3,12.8,7.6,7.6L7.6,7.6z"/>
	
		<linearGradient id="SVGID_00000056393903426943246090000000448564188139287459_" gradientUnits="userSpaceOnUse" x1="-235.1053" y1="439.0536" x2="-235.1709" y2="439.0748" gradientTransform="matrix(127.0738 0 0 -97.4086 29893.5801 42798.4531)">
		<stop  offset="0" style="stop-color:#8C0C01"/>
		<stop  offset="0" style="stop-color:#8C0C01"/>
		<stop  offset="0.54" style="stop-color:#990C00"/>
		<stop  offset="0.99" style="stop-color:#A80D0E"/>
		<stop  offset="1" style="stop-color:#A80D0E"/>
	</linearGradient>
	<path style="fill:url(#SVGID_00000056393903426943246090000000448564188139287459_);" d="M7.4,35.6l4.1-13.7l13.7,4.4
		C20.3,31,14.7,34.9,7.4,35.6L7.4,35.6z"/>
	
		<linearGradient id="SVGID_00000128446120042149963730000011995462851696548745_" gradientUnits="userSpaceOnUse" x1="-235.4831" y1="438.6646" x2="-235.5619" y2="438.7274" gradientTransform="matrix(94.0112 0 0 -105.6032 22170.2285 46345.2148)">
		<stop  offset="0" style="stop-color:#7E110B"/>
		<stop  offset="0" style="stop-color:#7E110B"/>
		<stop  offset="0.99" style="stop-color:#9E0C00"/>
		<stop  offset="1" style="stop-color:#9E0C00"/>
	</linearGradient>
	<path style="fill:url(#SVGID_00000128446120042149963730000011995462851696548745_);" d="M21.7,12.4l3.5,13.9
		c4.1-4.3,7.8-9,9.7-14.8L21.7,12.4L21.7,12.4z"/>
	
		<linearGradient id="SVGID_00000018949378781800759590000003791298884419545249_" gradientUnits="userSpaceOnUse" x1="-235.4821" y1="436.8864" x2="-235.5284" y2="436.9347" gradientTransform="matrix(79.7018 0 0 -81.7914 18803.2656 35742.1758)">
		<stop  offset="0" style="stop-color:#79130D"/>
		<stop  offset="0" style="stop-color:#79130D"/>
		<stop  offset="0.99" style="stop-color:#9E120B"/>
		<stop  offset="1" style="stop-color:#9E120B"/>
	</linearGradient>
	<path style="fill:url(#SVGID_00000018949378781800759590000003791298884419545249_);" d="M34.9,11.6C36.3,7.4,36.6,1.3,30,0.1
		l-5.4,3L34.9,11.6L34.9,11.6z"/>
	<path class="st13" d="M0,28.4c0.2,7,5.2,7.1,7.4,7.2L2.4,24L0,28.4L0,28.4z"/>
	
		<radialGradient id="SVGID_00000017506319256519551520000013124789795753798799_" cx="-235.5401" cy="435.0513" r="9.750208e-02" gradientTransform="matrix(93.1133 0 0 -48.6553 21957.834 21181.8594)" gradientUnits="userSpaceOnUse">
		<stop  offset="0" style="stop-color:#A80D00"/>
		<stop  offset="0" style="stop-color:#A80D00"/>
		<stop  offset="0.99" style="stop-color:#7E0E08"/>
		<stop  offset="1" style="stop-color:#7E0E08"/>
	</radialGradient>
	<path style="fill:url(#SVGID_00000017506319256519551520000013124789795753798799_);" d="M21.8,12.4c3.2,2,9.6,5.9,9.7,5.9
		c0.2,0.1,2.8-4.3,3.3-6.8L21.8,12.4L21.8,12.4z"/>
	
		<radialGradient id="SVGID_00000015312411432208365470000001998736006609628838_" cx="-234.9698" cy="438.3131" r="0.1239" gradientTransform="matrix(97.4344 0 0 -75.848 22907.4941 33271.4648)" gradientUnits="userSpaceOnUse">
		<stop  offset="0" style="stop-color:#A30C00"/>
		<stop  offset="0" style="stop-color:#A30C00"/>
		<stop  offset="0.99" style="stop-color:#800E08"/>
		<stop  offset="1" style="stop-color:#800E08"/>
	</radialGradient>
	<path style="fill:url(#SVGID_00000015312411432208365470000001998736006609628838_);" d="M11.5,21.9L17,32.6
		c3.3-1.8,5.8-3.9,8.1-6.2L11.5,21.9L11.5,21.9z"/>
	
		<linearGradient id="SVGID_00000179607317984631764630000006561604256867741353_" gradientUnits="userSpaceOnUse" x1="-230.9656" y1="438.6132" x2="-231.0405" y2="438.739" gradientTransform="matrix(40.1367 0 0 -81.143 9275 35625.9766)">
		<stop  offset="0" style="stop-color:#8B2114"/>
		<stop  offset="0" style="stop-color:#8B2114"/>
		<stop  offset="0.43" style="stop-color:#9E100A"/>
		<stop  offset="0.99" style="stop-color:#B3100C"/>
		<stop  offset="1" style="stop-color:#B3100C"/>
	</linearGradient>
	<path style="fill:url(#SVGID_00000179607317984631764630000006561604256867741353_);" d="M2.4,24l-0.8,9.3c1.5,2,3.5,2.2,5.6,2
		C5.7,31.5,2.6,23.9,2.4,24L2.4,24z"/>
	
		<linearGradient id="SVGID_00000078032784790682175750000007094024858400757169_" gradientUnits="userSpaceOnUse" x1="-235.5443" y1="429.5847" x2="-235.458" y2="429.4935" gradientTransform="matrix(78.0993 0 0 -32.6239 18423.7246 14016.5049)">
		<stop  offset="0" style="stop-color:#B31000"/>
		<stop  offset="0" style="stop-color:#B31000"/>
		<stop  offset="0.44" style="stop-color:#910F08"/>
		<stop  offset="0.99" style="stop-color:#791C12"/>
		<stop  offset="1" style="stop-color:#791C12"/>
	</linearGradient>
	<path style="fill:url(#SVGID_00000078032784790682175750000007094024858400757169_);" d="M24.5,3.2l10.9,1.5
		c-0.6-2.5-2.4-4.1-5.4-4.6L24.5,3.2L24.5,3.2z"/>
</g>
<g>
	<path class="st8" d="M50.2,7.5c2.7,0,4.7,0.5,6,1.5c1.3,1,1.9,2.5,1.9,4.5c0,0.9-0.2,1.7-0.5,2.4c-0.3,0.7-0.8,1.2-1.4,1.7
		s-1.2,0.9-1.8,1.2l5.8,8.6h-4.7l-4.7-7.6h-2.2v7.6h-4.2V7.5H50.2z M49.8,10.9h-1.3v5.3h1.4c1.4,0,2.4-0.2,3-0.7s0.9-1.1,0.9-2.1
		c0-0.9-0.3-1.6-1-2C52.2,11.1,51.2,10.9,49.8,10.9z"/>
	<path class="st8" d="M76.2,12.1v15.1h-3.2l-0.6-1.9h-0.2c-0.5,0.8-1.1,1.3-2,1.7c-0.8,0.4-1.7,0.5-2.7,0.5c-1.6,0-2.9-0.4-3.9-1.3
		c-1-0.9-1.5-2.3-1.5-4.2v-9.9h4.1V21c0,1.1,0.2,1.9,0.6,2.4s1,0.8,1.9,0.8c1.3,0,2.1-0.4,2.6-1.3c0.5-0.9,0.7-2.1,0.7-3.7v-7.1
		H76.2z"/>
	<path class="st8" d="M84.7,11.1c0,0.6,0,1.1-0.1,1.7c0,0.6-0.1,1-0.1,1.3h0.2c0.4-0.6,1-1.2,1.6-1.6s1.6-0.7,2.7-0.7
		c1.7,0,3.1,0.7,4.1,2c1.1,1.3,1.6,3.3,1.6,5.8c0,2.6-0.5,4.5-1.6,5.9c-1.1,1.3-2.5,2-4.2,2c-1.1,0-2-0.2-2.6-0.6
		c-0.6-0.4-1.2-0.8-1.6-1.3h-0.3l-0.7,1.7h-3.2V6.2h4.1V11.1z M87.7,15.1c-1.1,0-1.8,0.3-2.3,1c-0.4,0.7-0.7,1.7-0.7,3v0.4
		c0,1.5,0.2,2.6,0.7,3.4c0.4,0.8,1.2,1.2,2.4,1.2c0.8,0,1.5-0.4,2-1.2c0.5-0.8,0.7-1.9,0.7-3.4c0-1.5-0.3-2.6-0.8-3.3
		C89.2,15.5,88.5,15.1,87.7,15.1z"/>
	<path class="st8" d="M95.4,12.1h4.5l2.9,8.5c0.1,0.4,0.3,0.8,0.3,1.3c0.1,0.4,0.1,0.9,0.2,1.4h0.1c0.1-0.5,0.1-0.9,0.2-1.4
		c0.1-0.4,0.2-0.9,0.3-1.3l2.8-8.5h4.4l-6.4,17.1c-0.6,1.6-1.4,2.7-2.5,3.5c-1.1,0.8-2.4,1.2-3.8,1.2c-0.5,0-0.9,0-1.2-0.1
		c-0.3,0-0.6-0.1-0.9-0.2v-3.3c0.2,0,0.4,0.1,0.7,0.1s0.6,0.1,0.9,0.1c0.9,0,1.6-0.3,2.1-0.8c0.5-0.5,0.9-1.2,1.1-1.9l0.2-0.7
		L95.4,12.1z"/>
</g>
</svg>
