<?xml version="1.0" encoding="utf-8"?>
<!-- Generator: Adobe Illustrator 27.3.1, SVG Export Plug-In . SVG Version: 6.00 Build 0)  -->
<svg version="1.1" id="Layer_1" xmlns="http://www.w3.org/2000/svg" xmlns:xlink="http://www.w3.org/1999/xlink" x="0px" y="0px"
	 viewBox="0 0 537.4 212.1" style="enable-background:new 0 0 537.4 212.1;" xml:space="preserve">
<style type="text/css">
	.st0{fill:#FFFFFF;}
	.st1{fill-rule:evenodd;clip-rule:evenodd;fill:#555555;}
	.st2{fill-rule:evenodd;clip-rule:evenodd;fill:#FFFFFF;}
</style>
<path class="st0" d="M170.3,126.5c6,11.8,15.6,17.6,29.1,17.6c14.4,0,19.6-7.6,19.6-15.1c0-5.1-1.8-8.6-6.6-11.8
	c-4.8-3.3-8.3-4.8-16.9-8c-10.6-4-16.8-7-23.4-12.3c-6.6-5.5-9.8-13-9.8-22.7c-0.2-8.7,3.6-17,10.3-22.6c7-5.8,15.4-8.6,25.6-8.6
	c15.8,0,27.7,6.3,35.7,18.8L219,71.9c-4.5-6.8-11.3-10.3-20.6-10.3c-9.1,0-15.8,5.2-15.8,12.3c0,4.8,2,7.1,4.8,10
	c1.8,1.3,6.5,3.3,8.6,4.5l6,2.3l6.8,2.7c11,4.5,18.8,9.3,23.6,14.4c4.8,5.1,7.3,12.1,7.3,20.8c0,20.4-14.1,34.2-40.5,34.2
	c-21.4,0-37.2-10-44.5-26.4L170.3,126.5z"/>
<path class="st0" d="M323.9,88.8l-12.2,12.8c-5.4-5.9-13.2-9.3-21.2-9.1c-6.9-0.2-13.6,2.5-18.4,7.5c-9.7,10.6-9.7,26.9,0,37.5
	c4.8,4.9,11.5,7.6,18.4,7.5c8.1,0.1,15.8-3.2,21.2-9.1l12.3,12.8c-9,9.6-20.1,14.4-33.5,14.4c-12.8,0-23.6-4.1-32.4-12.6
	s-13.1-19.1-13.1-31.7s4.3-23.1,13.1-31.5c8.8-8.5,19.6-12.8,32.4-12.8C303.8,74.4,314.9,79.2,323.9,88.8z"/>
<path class="st0" d="M363.5,109.7c14.1-1.3,19.1-3.2,19.1-9.6c0-5.1-4.6-9.1-13.9-9.1c-9,0-16.4,3.6-22.4,10.9L334,91.4
	c8.1-11.4,19.6-17.1,34.4-17.1c20.8,0,33.7,10,33.7,27.1v37c0,5.8,2.1,6.5,7,6.5h0.5v15.4c-2,1.2-5.1,1.8-9.3,1.8
	c-4.5,0-8-1.3-10.6-4c-1.4-1.6-2.4-3.5-3-5.5c-5.8,6.8-15.3,10.3-28.4,10.3c-18.4,0-30.9-10.1-30.9-25.4
	C327.3,120.5,338.8,111.9,363.5,109.7z M361.2,146.1c13.3,0,21.4-6,21.4-16.6v-9.3c-1.1,1.2-2.6,2-4.1,2.5
	c-3.8,1.3-6.3,1.7-14.3,2.5c-11.6,1.3-17.4,5-17.4,10.8C346.8,142.4,352.1,146.1,361.2,146.1z"/>
<path class="st0" d="M414.5,45h19.9v88.3c0,8.1,2.7,11.6,10,11.6c2,0.1,4-0.2,6-0.7V162c-3.1,0.8-6.3,1.1-9.5,1
	c-17.6,0-26.4-9-26.4-27.1L414.5,45z"/>
<path class="st0" d="M491.4,109.7c14.1-1.3,19.1-3.2,19.1-9.6c0-5.1-4.6-9.1-13.9-9.1c-9,0-16.4,3.6-22.4,10.9l-12.3-10.5
	c8.1-11.4,19.6-17.1,34.4-17.1c20.7,0,33.7,10,33.7,27.1v37c0,5.8,2.2,6.5,7,6.5h0.5v15.4c-2,1.2-5.2,1.8-9.3,1.8
	c-4.5,0-8-1.3-10.6-4c-1.4-1.6-2.4-3.4-3-5.5c-5.8,6.8-15.3,10.3-28.4,10.3c-18.4,0-30.9-10.1-30.9-25.4
	C455.2,120.5,466.6,111.9,491.4,109.7z M489,146.1c13.3,0,21.4-6,21.4-16.6v-9.3c-1.2,1.2-2.6,2-4.2,2.5c-3.8,1.3-6.3,1.7-14.3,2.5
	c-11.6,1.3-17.4,5-17.4,10.8C474.6,142.4,479.9,146.1,489,146.1z"/>
<path class="st1" d="M0,93.2v0.5l0,0C0,93.6,0,93.4,0,93.2z"/>
<path class="st2" d="M108.3,12.9C76.8,22,26.9,27.1,0,27.1l0,0v51.4c0,0.2,0.1,0.3,0.2,0.5c18.4,0,75-6,109.2-15.4
	c6-1.5,11.8-3.5,17.5-5.8c4.2-1.9,6.9-3.9,6.9-5.9V0C133.7,4.9,121,9.2,108.3,12.9z"/>
<path class="st2" d="M108.3,79.5c-18.8,5.4-44.2,9.5-67.4,11.8C25.4,92.9,10.9,93.7,0,93.7l0,0V145c0,0.2,0.1,0.3,0.2,0.5
	c18.4,0,75-6,109.2-15.4c6-1.5,11.8-3.5,17.5-5.8c4.2-1.9,6.9-3.9,6.9-5.9V66.6C133.7,71.5,121,75.8,108.3,79.5z"/>
<path class="st2" d="M108.3,146.1c-18.8,5.4-44.2,9.5-67.4,11.8c-15.6,1.6-30.1,2.4-40.9,2.4v51.8c18.2,0,75.1-5.9,109.4-15.4
	c12.6-3.5,24.4-7.4,24.4-11.7v-51.8C133.7,138.1,121,142.4,108.3,146.1z"/>
</svg>
