<?xml version="1.0" encoding="utf-8"?>
<!-- Generator: Adobe Illustrator 16.0.3, SVG Export Plug-In . SVG Version: 6.00 Build 0)  -->
<!DOCTYPE svg PUBLIC "-//W3C//DTD SVG 1.1//EN" "http://www.w3.org/Graphics/SVG/1.1/DTD/svg11.dtd">
<svg version="1.1" id="Layer_1" xmlns="http://www.w3.org/2000/svg" xmlns:xlink="http://www.w3.org/1999/xlink" x="0px" y="0px"
	 width="273.242px" height="107.843px" viewBox="15.434 89.445 273.242 107.843"
	 enable-background="new 15.434 89.445 273.242 107.843" xml:space="preserve">
<title>scala-full-color</title>
<path fill="#380D09" d="M102.051,153.758c3.051,5.994,7.932,8.949,14.771,8.949c7.342,0,9.961-3.885,9.961-7.684
	c0-2.619-0.931-4.389-3.376-5.996c-2.451-1.688-4.22-2.445-8.608-4.067c-5.405-2.034-8.527-3.56-11.903-6.249
	c-3.376-2.787-4.978-6.609-4.978-11.563c-0.118-4.43,1.813-8.666,5.232-11.481c3.56-2.955,7.851-4.388,12.997-4.388
	c8.019,0,14.095,3.207,18.147,9.539l-7.51,5.171c-2.278-3.462-5.741-5.237-10.47-5.237c-4.642,0-8.019,2.619-8.019,6.249
	c0,2.446,1.017,3.631,2.451,5.085c0.926,0.676,3.29,1.688,4.388,2.278l3.051,1.18l3.458,1.353c5.593,2.278,9.539,4.729,11.984,7.343
	c2.446,2.614,3.717,6.163,3.717,10.551c0,10.383-7.175,17.39-20.599,17.39c-10.886,0-18.905-5.085-22.617-13.424L102.051,153.758z"
	/>
<path fill="#380D09" d="M180.127,134.598l-6.229,6.5c-2.771-3.023-6.701-4.714-10.801-4.644c-3.515-0.084-6.906,1.291-9.371,3.798
	c-4.947,5.396-4.947,13.682,0,19.078c2.465,2.508,5.856,3.883,9.371,3.799c4.1,0.07,8.03-1.619,10.801-4.643l6.248,6.498
	c-4.576,4.896-10.215,7.343-17.049,7.343c-6.504,0-11.99-2.11-16.459-6.417c-4.47-4.307-6.671-9.707-6.671-16.119
	s2.197-11.734,6.671-16.037c4.475-4.302,9.956-6.499,16.459-6.499C169.912,127.256,175.566,129.702,180.127,134.598z"/>
<path fill="#380D09" d="M200.277,145.23c7.18-0.672,9.723-1.603,9.723-4.893c0-2.619-2.359-4.643-7.088-4.643
	c-4.557,0-8.354,1.856-11.395,5.568l-6.244-5.318c4.133-5.822,9.955-8.69,17.471-8.69c10.551,0,17.136,5.085,17.136,13.754v18.814
	c0,2.952,1.093,3.295,3.56,3.295h0.254v7.846c-1.018,0.595-2.618,0.931-4.729,0.931c-2.277,0-4.068-0.677-5.4-2.033
	c-0.711-0.803-1.231-1.756-1.524-2.787c-2.954,3.457-7.765,5.232-14.437,5.232c-9.365,0-15.696-5.15-15.696-12.916
	C181.881,150.717,187.703,146.329,200.277,145.23z M199.098,163.729c6.754,0,10.887-3.051,10.887-8.439v-4.729
	c-0.584,0.592-1.309,1.026-2.104,1.266c-1.941,0.677-3.208,0.845-7.261,1.267c-5.909,0.677-8.863,2.542-8.863,5.486
	C191.756,161.863,194.456,163.729,199.098,163.729z"/>
<path fill="#380D09" d="M226.189,112.313h10.129v44.908c0,4.135,1.354,5.908,5.084,5.908c1.029,0.033,2.057-0.082,3.052-0.341v9.03
	c-1.575,0.385-3.194,0.556-4.815,0.509c-8.943,0-13.418-4.576-13.418-13.759L226.189,112.313z"/>
<path fill="#380D09" d="M265.275,145.23c7.176-0.672,9.707-1.603,9.707-4.893c0-2.619-2.359-4.643-7.088-4.643
	c-4.557,0-8.354,1.856-11.396,5.568l-6.244-5.318c4.134-5.822,9.956-8.69,17.472-8.69c10.551,0,17.137,5.085,17.137,13.754v18.814
	c0,2.952,1.093,3.295,3.559,3.295h0.254v7.846c-1.017,0.595-2.617,0.931-4.729,0.931c-2.277,0-4.067-0.677-5.4-2.033
	c-0.712-0.803-1.234-1.754-1.525-2.787c-2.953,3.457-7.764,5.232-14.436,5.232c-9.365,0-15.695-5.15-15.695-12.916
	C246.88,150.717,252.712,146.329,265.275,145.23z M264.098,163.729c6.752,0,10.885-3.051,10.885-8.439v-4.729
	c-0.584,0.592-1.311,1.027-2.108,1.266c-1.938,0.677-3.203,0.845-7.256,1.267c-5.908,0.677-8.863,2.542-8.863,5.486
	C256.779,161.863,259.454,163.729,264.098,163.729z"/>
<path fill="#380D09" d="M15.534,129.575c0.941,1.296,8.873,3.741,20.705,6.29c11.833,2.268,24.138,11.222,33.707,8.461
	c6.473-1.871,13.495-18.544,13.495-21.02v-0.255c0-1.729-1.297-3.116-3.499-4.271c-9.025-4.612-10.734-6.311-14.08-5.391
	C48.493,118.186,17.827,115.734,15.534,129.575z"/>
<path fill="#380D09" d="M15.534,163.43c0.941,1.316,8.873,3.742,20.705,6.295c13.221,2.409,24.717,10.267,34.292,7.5
	c6.473-1.871,12.91-17.584,12.91-20.064v-0.244c0-1.725-1.296-3.116-3.498-4.268c-6.885-3.659-15.981-7.691-19.322-6.771
	C43.22,150.661,19.963,151.713,15.534,163.43z"/>
<path fill="#555555" d="M15.438,136.852v0.244l0,0C15.432,137.014,15.432,136.932,15.438,136.852z"/>
<path fill="#DE3423" d="M70.505,95.99c-15.997,4.621-41.375,7.23-55.047,7.23l0,0v26.109c0.004,0.09,0.039,0.176,0.097,0.244
	c9.331,0,38.136-3.051,55.515-7.831c3.031-0.771,6.003-1.759,8.894-2.954c2.125-0.956,3.498-1.963,3.498-3.01V89.445
	C83.441,91.927,76.978,94.124,70.505,95.99z"/>
<path fill="#DE3423" d="M70.505,129.85c-9.574,2.76-22.495,4.814-34.266,6.015c-7.901,0.809-15.285,1.229-20.781,1.229l0,0v26.09
	c0.004,0.09,0.039,0.176,0.097,0.244c9.331,0,38.136-3.051,55.515-7.824c3.031-0.773,6.002-1.763,8.894-2.955
	c2.125-0.961,3.498-1.963,3.498-3.01v-26.334C83.441,125.781,76.978,127.979,70.505,129.85z"/>
<path fill="#DE3423" d="M70.505,163.729c-9.574,2.763-22.495,4.812-34.266,6.017c-7.912,0.81-15.305,1.229-20.801,1.229v26.313
	c9.234,0,38.186-3.024,55.612-7.825c6.422-1.77,12.392-3.783,12.392-5.97v-26.334C83.441,159.661,76.978,161.838,70.505,163.729z"/>
</svg>
