<?xml version="1.0" encoding="utf-8"?>
<!-- Generator: Adobe Illustrator 16.0.3, SVG Export Plug-In . SVG Version: 6.00 Build 0)  -->
<!DOCTYPE svg PUBLIC "-//W3C//DTD SVG 1.1//EN" "http://www.w3.org/Graphics/SVG/1.1/DTD/svg11.dtd">
<svg version="1.1" id="Layer_1" xmlns="http://www.w3.org/2000/svg" xmlns:xlink="http://www.w3.org/1999/xlink" x="0px" y="0px"
	 width="800px" height="274px" viewBox="0 92.5 800 274" enable-background="new 0 92.5 800 274" xml:space="preserve">
<g>
	<path fill="#2B335B" d="M41.316,268.962c3.406-2.064,8.257-3.282,14.574-3.282c7.535,0,13.985,1.445,19.445,4.294
		s6.729,3.55,15.688,11.601l16.101-18.599c-6.936-7.679-14.45-13.19-22.521-16.586c-8.071-3.396-17.856-5.088-29.313-5.088
		c-10.703,0-19.972,1.692-27.816,5.037s-13.779,7.999-17.855,13.934c-4.077,5.935-6.193,12.716-6.193,20.23
		c0,7.514,1.858,13.727,5.573,18.599c3.716,4.872,8.959,8.742,15.688,11.601c6.729,2.859,15.317,5.295,25.648,7.37
		c8.257,1.589,14.45,3.23,17.959,5.037s5.408,4.128,5.408,6.833c0,3.55-1.692,6.254-5.037,8.102
		c-3.334,1.909-8.257,2.807-15.048,2.807c-8.257,0-15.482-1.321-21.51-4.128c-5.935-2.652-10.971-5.935-17.278-12.179L0,344.731
		c6.193,6.936,13.562,12.076,22.087,15.42c8.525,3.344,19.549,5.037,33.235,5.037c9.753,0,18.434-1.486,26.175-4.397
		c7.741-2.911,13.779-7.153,18.165-12.768c4.387-5.615,6.575-12.241,6.575-19.868c0-10.6-3.55-18.806-10.651-24.637
		s-19.022-10.28-35.66-13.417c-8.639-1.589-14.729-3.282-18.331-5.191c-3.602-1.91-5.408-4.335-5.408-7.37
		c-0.052-3.654,1.651-6.575,5.037-8.794L41.316,268.962z M162.23,270.449c-15.203,0-26.918,4.128-35.092,12.386
		c-8.175,8.257-12.386,19.92-12.386,35.02s4.128,26.753,12.664,35.02c8.536,8.268,20.664,12.386,36.558,12.386
		c10.703,0,19.61-2.013,27.073-6.193c7.092-3.771,12.436-10.157,14.894-17.804l-25.163-7.999c-0.95,3.282-2.911,5.78-5.718,7.473
		c-2.807,1.692-6.502,2.539-11.023,2.539c-5.346,0-9.64-1.321-12.871-4.128c-3.23-2.653-5.295-6.884-6.193-12.613h62.207
		c0.656-3.369,0.958-6.797,0.898-10.229c0-14.574-3.922-25.803-11.767-34.019c-7.844-8.05-19.125-12.076-33.854-12.076
		L162.23,270.449z M144.529,310.031c1.806-11.921,7.679-17.855,17.484-17.855s15.317,5.935,16.792,17.855H144.529z M280.429,270.449
		c-7.153,0-13.459,1.589-18.805,4.82c-5.347,3.23-9.496,8.05-12.386,14.522l-0.898-17.484h-27.712v91.188h30.995v-48.169
		c0-7.153,1.548-12.509,4.542-15.946c2.973-3.43,7.333-5.337,11.869-5.191c4.129,0,7.308,1.321,9.599,3.922
		c2.229,2.601,3.406,7.049,3.406,13.242v52.185h31.005v-60.824c0-10.321-2.858-18.269-8.587-23.894s-13.417-8.257-22.996-8.257
		L280.429,270.449z M359.387,293.073c2.437-1.321,5.832-2.013,10.321-2.013c5.615,0,10.384,0.949,14.409,2.911
		c4.025,1.961,7.473,5.037,10.383,9.32l16.05-15.688c-4.129-5.718-9.537-10.011-16.163-12.871
		c-6.627-2.859-15.152-4.293-25.648-4.293c-9.496,0-17.546,1.445-24.152,4.293c-6.605,2.849-11.693,6.637-14.996,11.23
		c-3.303,4.593-4.924,9.537-4.924,14.78c-0.229,7.183,3.004,14.04,8.69,18.434c5.78,4.613,15.482,8.257,29.086,10.971
		c6.192,1.218,10.383,2.436,12.87,3.757c2.487,1.321,3.757,2.756,3.757,4.438c0,2.064-1.218,3.509-3.653,4.665
		c-2.436,1.156-5.78,1.755-10.012,1.755c-12.768,0-21.468-3.127-28.28-11.56l-14.729,16.101c8.742,10.704,23.574,16.05,44.506,16.05
		c14.099,0,24.854-2.756,32.264-8.319c7.432-5.512,11.127-12.716,11.127-21.613c0-7.896-2.963-14.14-8.846-18.702
		s-15.523-7.999-28.931-10.28c-6.192-1.218-10.548-2.436-13.036-3.757c-2.487-1.321-3.757-2.807-3.757-4.665
		c0.052-2.013,1.27-3.654,3.654-4.985L359.387,293.073z M520.605,343.193c-3.179,0-5.347-0.847-6.574-2.539
		c-1.229-1.693-1.807-4.614-1.807-8.742v-59.657h-30.995v53.836c-0.64,4.335-2.013,7.792-4.19,10.321
		c-3.023,3.447-7.101,5.191-12.241,5.191c-4.128,0-7.431-1.218-9.495-3.653c-2.064-2.436-3.127-6.626-3.127-12.613v-53.093h-30.995
		v61.04c0,11.075,2.756,19.177,8.318,24.358c5.563,5.181,13.14,7.741,22.894,7.741c14.243,0,24.357-5.47,30.303-16.308
		c1.115,3.922,2.756,7.101,5.089,9.496c4.396,4.542,11.353,6.833,21.138,6.833c3.499-0.011,6.984-0.437,10.383-1.27
		c2.997-0.704,5.886-1.808,8.588-3.282l2.013-19.125c-3.282,1.063-6.399,1.589-9.32,1.589L520.605,343.193z"/>
	<path fill="#73CC58" d="M800.003,230.893l-135.83-135.83l-135.939,135.83l135.939,135.94L800.003,230.893z M664.173,131.182
		l50.002,50.075c-16.38-4.404-33.228-6.667-50.067-6.667c-16.913-0.015-33.753,2.228-50.067,6.667L664.173,131.182z
		 M619.642,285.999c13.633-7.528,28.958-11.461,44.531-11.429c15.832,0,31.037,3.98,44.532,11.429l-44.532,44.532L619.642,285.999z
		 M727.275,267.428c-19.228-12.247-41.187-18.403-63.168-18.403c-22.382-0.012-44.302,6.373-63.176,18.403l-35.053-35.053
		c28.349-20.827,62.475-32.132,98.346-32.132c35.87,0,69.959,11.232,98.345,32.132L727.275,267.428z"/>
</g>
</svg>
