<svg version="1.2" xmlns="http://www.w3.org/2000/svg" viewBox="0 0 1522 223" width="1522" height="223">
	<title>servicenow-header-logo-svg</title>
	<style>
		.s0 { fill: #62d84e } 
		.s1 { fill: #ffffff } 
	</style>
	<path id="Layer" fill-rule="evenodd" class="s0" d="m1234.1 82.9c14.3 9.8 25.3 23.7 31.7 39.8 6.3 16.2 7.7 33.8 4 50.7-3.8 16.9-12.5 32.4-25.1 44.3-1.5 1.4-3.2 2.6-5.1 3.4-1.8 0.8-3.9 1.3-5.9 1.4-2 0.1-4.1-0.1-6.1-0.7-1.9-0.6-3.8-1.6-5.4-2.8-5.3-4-11.2-7.1-17.5-9.1-6.4-2.1-13-3.2-19.6-3.2-6.6 0-13.2 1.1-19.5 3.2-6.3 2-12.3 5.1-17.6 9.1-1.6 1.2-3.4 2.2-5.4 2.8-1.9 0.6-4 0.9-6 0.8-2-0.2-4-0.6-5.9-1.4-1.9-0.8-3.6-2-5-3.4-12.7-11.9-21.5-27.4-25.3-44.5-3.7-17-2.3-34.7 4.2-50.9 6.5-16.2 17.6-30.1 32.1-39.9 14.4-9.7 31.5-14.9 48.9-14.9 17.4 0.1 34.2 5.5 48.5 15.3zm-32.2 112.1c5.3-2.1 10.1-5.3 14.2-9.3 4-4.1 7.2-8.9 9.4-14.2 2.1-5.4 3.1-11.1 2.9-16.8 0-11.5-4.5-22.5-12.6-30.6-8.2-8.2-19.2-12.7-30.7-12.7-11.5 0-22.5 4.5-30.6 12.7-8.2 8.1-12.7 19.1-12.7 30.6-0.2 5.7 0.8 11.4 3 16.8 2.1 5.3 5.3 10.1 9.3 14.2 4.1 4 8.9 7.2 14.2 9.3 5.4 2.1 11.1 3.2 16.8 3 5.7 0.2 11.4-0.9 16.8-3z"/>
	<path id="Layer" fill-rule="evenodd" class="s1" d="m369.6 69.2q1.4 0.1 2.9 0.2 1.5 0.1 2.9 0.3 1.5 0.2 2.9 0.5v38.1q-1.9-0.7-3.9-1.2-1.9-0.5-3.9-0.8-2-0.3-4.1-0.4-2-0.1-4 0c-3.5 0.1-7 0.6-10.4 1.5-3.4 0.8-6.6 2.1-9.7 3.7-3.2 1.6-6.1 3.5-8.8 5.7-2.7 2.2-5.1 4.8-7.2 7.5v95.2h-39.8v-148.8h38.3v13.5q4.3-3.6 9.3-6.4 4.9-2.9 10.3-4.8 5.3-1.9 10.9-2.9 5.7-1 11.3-1 1.5 0 3 0.1zm-349.5 104.9q4.2 3.5 9 6.3 4.8 2.8 10 4.6 5.2 1.9 10.6 2.9 5.5 0.9 11 0.9c10.7 0 18.9-5.2 18.9-12.6 0-22.4-71.8-14.4-71.8-62.3 0-28.5 27.5-46.3 56.9-46.3q6.6 0 13.2 1 6.6 1 12.9 2.9 6.4 1.9 12.4 4.7 6 2.8 11.6 6.5l-18.6 28.8q-3.1-2.4-6.4-4.2-3.4-1.8-7-3.1-3.6-1.3-7.4-2-3.8-0.7-7.6-0.9c-11 0-20.2 4.3-20.2 12 0 19.3 71.9 11.7 71.9 63.2 0 28.5-27.9 46-59.1 46q-8-0.1-15.9-1.4-7.9-1.3-15.4-3.8-7.6-2.6-14.7-6.2-7.1-3.7-13.6-8.5zm249.5-27.5q-0.1 1.5-0.2 2.9-0.1 1.4-0.3 2.8-0.2 1.5-0.4 2.9h-102.8c0.5 4.9 1.9 9.6 4.1 14 2.3 4.4 5.3 8.3 9 11.5 3.7 3.3 8 5.8 12.6 7.4 4.6 1.7 9.5 2.5 14.4 2.3q5.3-0.2 10.5-1.4 5.1-1.2 9.9-3.4 4.8-2.2 9.1-5.3 4.3-3.2 7.8-7.1l22.7 22.7c-3.9 4.3-8.1 8.1-12.7 11.5-4.7 3.3-9.6 6.2-14.9 8.5-5.2 2.2-10.7 4-16.3 5.1-5.6 1.1-11.3 1.7-17 1.6-10.3 0.5-20.6-1.2-30.2-4.9-9.6-3.7-18.4-9.4-25.7-16.6-7.3-7.3-13-16-16.8-25.6-3.7-9.6-5.4-19.9-5-30.2 0-41.4 28.1-77.6 72.2-77.6 41 0 70 34.6 70 76.1q0 1.4 0 2.8zm-40.7-20.6c-0.4-3.6-1.5-7-3.1-10.2-1.7-3.2-3.9-6-6.6-8.4-2.7-2.4-5.8-4.3-9.1-5.6-3.4-1.2-6.9-1.9-10.5-1.9-3.8 0-7.5 0.6-11 1.9-3.5 1.2-6.8 3-9.6 5.4-2.9 2.4-5.4 5.2-7.3 8.4-1.9 3.2-3.2 6.7-3.9 10.4zm284.8-55.3h41.3l-68.2 148.8h-27.5l-68.2-148.8h41.3l40.6 90.9zm74.7-69.9c10.3 0.2 19.4 6.5 23.3 16.1 3.8 9.5 1.5 20.4-5.9 27.6-7.3 7.2-18.3 9.3-27.7 5.3-9.5-3.9-15.7-13.2-15.7-23.5 0-3.4 0.7-6.7 2-9.9 1.3-3.1 3.2-5.9 5.6-8.3 2.5-2.4 5.3-4.3 8.5-5.5 3.1-1.3 6.5-1.9 9.9-1.8zm-19.9 69.9h39.8v148.7h-39.8zm204.1 118.5c-3.7 5.3-8.1 10.2-13.1 14.5-5 4.2-10.4 7.8-16.3 10.8-5.8 2.9-12 5-18.4 6.4-6.4 1.4-13 1.9-19.5 1.7-20.9 0.5-41.2-7.4-56.1-22-15-14.6-23.4-34.7-23.4-55.6 0-20.9 8.5-40.9 23.6-55.5 15-14.6 35.3-22.4 56.2-21.8 6-0.1 11.9 0.6 17.7 1.9 5.9 1.3 11.5 3.2 16.9 5.8 5.4 2.6 10.5 5.7 15.2 9.4 4.6 3.7 8.9 8 12.6 12.6l-28.2 24.9c-1.9-2.7-4.2-5.2-6.7-7.4-2.5-2.2-5.3-4-8.3-5.6-2.9-1.5-6.1-2.7-9.3-3.5-3.2-0.8-6.6-1.3-9.9-1.3-5.3 0-10.6 1-15.5 3.1-4.9 2-9.4 5-13.1 8.8-3.8 3.9-6.7 8.4-8.6 13.3-2 5-2.9 10.3-2.8 15.6-0.2 5.4 0.8 10.8 2.8 15.8 2 5 5 9.6 8.8 13.4 3.9 3.8 8.5 6.8 13.5 8.7 5.1 1.9 10.5 2.8 15.9 2.6 3.5-0.1 7-0.6 10.4-1.5 3.4-0.9 6.7-2.2 9.7-3.9 3.1-1.7 6-3.8 8.6-6.2 2.5-2.4 4.8-5.1 6.7-8zm144.5 6.7c-3.9 4.3-8.1 8.1-12.7 11.4-4.7 3.4-9.6 6.2-14.9 8.5-5.2 2.3-10.7 4.1-16.3 5.2-5.6 1.1-11.3 1.7-17 1.6-10.3 0.5-20.6-1.2-30.2-4.9-9.6-3.7-18.4-9.4-25.7-16.7-7.3-7.2-13-15.9-16.7-25.5-3.8-9.6-5.5-19.9-5.1-30.2 0-41.4 28.2-77.6 72.2-77.6 41 0 70 34.6 70 76q0 1.5 0 2.9-0.1 1.4-0.2 2.8-0.1 1.5-0.3 2.9-0.2 1.4-0.4 2.8h-102.7c0.4 4.9 1.8 9.6 4 14 2.3 4.4 5.3 8.3 9 11.6 3.7 3.2 8 5.7 12.6 7.4 4.6 1.7 9.5 2.4 14.4 2.3q5.3-0.2 10.5-1.4 5.1-1.2 9.9-3.4 4.8-2.2 9.1-5.4 4.3-3.1 7.8-7zm-37-69.9c-0.4-3.6-1.5-7.1-3.1-10.2-1.7-3.2-3.9-6.1-6.6-8.4-2.7-2.4-5.8-4.3-9.1-5.6-3.4-1.3-6.9-1.9-10.5-1.9-3.7 0-7.5 0.6-11 1.8-3.5 1.3-6.7 3.1-9.6 5.5-2.9 2.3-5.4 5.2-7.3 8.4-1.9 3.2-3.2 6.7-3.9 10.4zm56.5 93.5v-148.8h38.2v12q4.4-3.6 9.3-6.5 4.9-2.8 10.3-4.7 5.4-1.9 11-2.9 5.6-0.9 11.3-0.9c4.8 0 9.7 0.5 14.5 1.5 4.8 1.1 9.4 2.6 13.8 4.7 4.4 2.1 8.6 4.6 12.5 7.6 3.9 3 7.4 6.4 10.5 10.1q4.3 5.5 7.5 11.8 3.1 6.2 5.1 12.9 1.9 6.7 2.6 13.6 0.7 6.9 0.1 13.9v75.7h-39.7v-78.9q0.4-3.7 0-7.5-0.4-3.7-1.5-7.4-1.1-3.6-3-6.9-1.9-3.2-4.4-6.1-2.2-2.1-4.9-3.7-2.6-1.6-5.4-2.6-2.9-1.1-5.9-1.6-3.1-0.5-6.1-0.4c-3.5 0.1-7 0.6-10.4 1.5-3.3 0.9-6.6 2.1-9.7 3.7-3.1 1.6-6.1 3.5-8.7 5.7-2.7 2.3-5.2 4.8-7.3 7.6v96.6zm384.4 0l-59.1-148.8h39.7l32.4 85.1 31.7-85.1h33.2l31.5 85.1 32.6-85.1h39.7l-59 148.8h-29.6l-31.8-84.7-31.7 84.7z"/>
	<path id="Layer" fill-rule="evenodd" class="s1" d="m1503 202.6h-3.3v6.3h-2.9v-17.2h7q1.1 0 2.1 0.4 1 0.4 1.8 1.2 0.8 0.8 1.2 1.8 0.4 1 0.4 2.1 0 0.9-0.2 1.6-0.3 0.8-0.7 1.5-0.5 0.6-1.1 1.1-0.6 0.6-1.4 0.9l3.9 6.7h-3.1zm-3.3-2.6h4.1c0.7 0 1.5-0.3 2-0.8 0.6-0.6 0.9-1.3 0.9-2.1 0-0.7-0.3-1.5-0.9-2-0.5-0.6-1.3-0.9-2-0.9h-4.1z"/>
	<path id="Layer" fill-rule="evenodd" class="s1" d="m1509.7 183.5c2.3 1 4.3 2.3 6.1 4 1.7 1.8 3.1 3.8 4 6.1 0.9 2.2 1.4 4.6 1.4 7.1 0 7.5-4.5 14.2-11.5 17.1-6.9 2.9-14.9 1.3-20.2-4-5.3-5.3-6.9-13.3-4-20.2 2.8-7 9.6-11.5 17.1-11.5 2.5 0 4.9 0.5 7.1 1.4zm-13.2 2.4c-1.9 0.8-3.7 1.9-5.2 3.4-1.5 1.5-2.6 3.3-3.4 5.2-0.8 2-1.3 4-1.3 6.1 0 6.5 3.9 12.3 9.9 14.8 6 2.5 12.9 1.1 17.5-3.5 4.5-4.5 5.9-11.4 3.4-17.4-2.5-6-8.3-9.9-14.8-9.9-2.1 0-4.2 0.5-6.1 1.3z"/>
</svg>