<?xml version="1.0" encoding="utf-8"?>
<!-- Generator: Adobe Illustrator 16.0.3, SVG Export Plug-In . SVG Version: 6.00 Build 0)  -->
<!DOCTYPE svg PUBLIC "-//W3C//DTD SVG 1.1//EN" "http://www.w3.org/Graphics/SVG/1.1/DTD/svg11.dtd">
<svg version="1.1" id="Layer_1" xmlns="http://www.w3.org/2000/svg" xmlns:xlink="http://www.w3.org/1999/xlink" x="0px" y="0px"
	 width="800px" height="245px" viewBox="0 127.5 800 245" enable-background="new 0 127.5 800 245" xml:space="preserve">
<title>background</title>
<title>Layer 1</title>
<path fill="#443642" d="M285.713,225.172c0-23.797,17.351-40.414,48.882-40.414c19.239,0,34.981,6.143,43.511,12.16
	c1.221,0.859,3.398,2.944,2.093,6.82c-1.674,4.176-4.742,10.455-6.944,14.534c-1.281,2.377-4.555,2.064-6.23,1.214
	c-6.075-3.079-16.04-8.287-25.194-9.247c-2.318-0.252-4.649-0.353-6.981-0.302c-8.062,0.18-14.797,2.979-17.169,9.129
	c-0.465,1.164-0.724,2.399-0.766,3.652c-0.222,8.105,11.059,11.036,24.724,13.384c25.404,4.352,44.624,11.8,44.624,37.948
	c0,22.205-17.647,42.273-52.226,41.658c-22.794-0.461-38.966-8.163-47.632-15.637c-0.295-0.254-3.594-3.613-1.826-7.654
	c2.023-5.202,5.439-11.163,8.12-14.328c1.49-2.033,5.423-2.356,7.467-1.089c7.143,4.438,18.899,11.556,32.45,12.028
	c1.069,0.037,2.13,0.043,3.17,0.016c12.189-0.295,19.563-4.917,19.409-12.703c-0.131-6.859-9.796-10.866-25.186-13.766
	c-24.545-4.624-44.292-12.714-44.292-37.405 M508.702,259.056c-17.309,0.226-33.179,4.957-33.637,18.484
	c-0.005,10.734,8.703,16.006,20.924,15.316c11.724-1.129,20.664-6.213,24.603-12.96c1.457-2.5,1.679-11.856,1.59-15.855
	c-0.021-0.851-1.705-2.462-2.442-2.771c-3.678-1.55-6.399-2.028-11.039-2.216 M451.108,204.55
	c8.094-7.243,24.142-18.516,49.718-17.922c33.752,0.702,51.583,16.525,53.243,54.377c0.685,15.609-0.449,59.149-0.72,69.998
	c-0.04,1.556-0.566,2.632-2.664,2.672c-5.558,0.223-18.398,0.135-24.299,0.058c-2.978-0.145-3.323-1.622-3.361-3.168
	c-0.025-1.012-0.112-4.012-0.175-6.458c-0.034-1.298-1.253-1.261-1.564-0.928c-7.917,8.454-20.884,12.536-34.672,12.536
	c-20.958,0-41.851-12.329-41.787-36.744c0.064-25.004,17.794-37.338,37.271-40.247c12.472-1.856,26.53-0.206,37.176,4.025
	c0.682,0.273,2.072-0.122,2.083-1.087c0.044-3.186-0.11-9.258-0.723-12.136c-1.563-7.333-7.68-13.233-20.53-14.823
	c-2.646-0.326-5.311-0.434-7.979-0.222c-10.215,0.803-22.509,8.769-27.6,11.751c-1.197,0.7-3.073,0.188-3.681-0.594
	c-2.971-3.838-10.438-15.064-11.026-16.857c-0.588-1.789,0.241-3.296,1.287-4.237L451.108,204.55z M565.199,251.096
	c-0.201-34.873,24.097-64.292,63.551-64.55c24.619-0.161,42.505,11,45.659,16.265c0.641,1.237,0.312,2.27-0.132,3.514
	c-2.085,4.4-7.349,12.902-11.101,17.72c-1.598,2.052-3.332,0.294-5.348-1.047c-5.594-3.726-16.222-8.282-26.681-8.282
	c-18.977,0.003-33.106,13.014-32.949,36.952c0.147,22.972,13.683,35.596,33.015,36.053c10.106,0.254,19.897-5.555,25.165-10.313
	c1.654-1.444,3.366-0.721,5.256,0.756c3.71,3.792,9.03,9.645,11.98,13.674c1.933,2.239,0.487,4.429-0.209,5.31
	c-8.004,10.128-23.462,18.653-43.92,18.769c-42.837,0.3-64.087-29.819-64.284-64.816 M769.678,314.345
	c2.011-0.151,23.468-3.112,30.054-4.621c1.635-0.373,2.216-1.747,1.302-3.109c-3.678-5.515-13.347-21.176-23.474-35.196
	c-9.314-12.891-19.132-24.229-22.307-28.59c-0.773-1.06-0.732-2.104,0.111-2.926c6.04-5.91,31.304-30.681,40.804-40.911
	c3.677-3.979,1.469-5.691-1.654-6.621c-6.034-1.799-15.793-4.041-21.343-5.211c-2.34-0.495-5.158-0.321-7.204,1.783
	c-9.498,8.857-38.483,37.948-47.137,46.645c-1.558,1.569-2.465,1.22-2.473-1.021c-0.07-16.766-0.401-88.548-1.001-100.355
	c-0.041-1.561-1.919-2.746-2.977-2.802c-5.441-0.284-19.187-0.366-24.604-0.048c-1.518,0.172-2.968,1.718-3.1,3.026
	c-1.249,18.879,0.53,157.468,1.272,176.855c0.053,1.402,1.097,2.489,2.428,2.568c5.404,0.313,18.771,0.292,25.011,0.175
	c3.071,0,3.446-2.159,3.446-2.159l0.463-37.188c0,0,0.316-1.654,0.828-2.2c2.2-2.369,8.287-8.892,10.882-11.414
	c0.624-0.605,1.606-0.562,2.242,0.294c3.083,4.16,11.876,17.682,20.026,29.758c7.488,11.094,14.479,20.939,14.967,21.635
	c1.128,1.605,2.444,1.67,3.438,1.64v-0.005H769.678z M404.756,314.216c1.888,0.063,16.204,0.046,22.548,0.039
	c2.136,0.042,3.245-1.576,3.316-3.003c1.347-27.182,0.771-156.598-0.081-177.033c-0.07-1.767-0.826-2.43-2.032-2.59
	c-5.444-0.729-20.916-0.559-25.875,0.738c-0.971,0.252-1.542,0.989-1.572,1.937c-1.214,52.675-0.396,174.115-0.139,176.415
	c0.256,2.303,1.46,3.417,3.839,3.498H404.756L404.756,314.216z"/>
<path fill="#70CADB" d="M21.591,260.17c-8.823,0.067-16.297-5.19-19.053-13.396c-0.103-0.31-0.198-0.622-0.286-0.937
	c-3.003-10.509,2.82-21.503,13.257-25.023l167.402-56.084c1.988-0.575,4.045-0.875,6.114-0.893
	c9.058-0.071,16.737,5.303,19.561,13.683l0.25,0.809c3.131,10.946-4.649,20.717-13.972,23.848
	c-0.006,0.005-1.702,0.578-166.475,56.836C26.201,259.759,23.905,260.149,21.591,260.17L21.591,260.17z"/>
<path fill="#E01765" d="M49.494,342.498c-8.892,0.064-16.392-5.12-19.115-13.208c-0.104-0.308-0.2-0.618-0.289-0.93
	c-3.045-10.634,2.772-21.744,13.244-25.269l167.409-56.598c2.163-0.723,4.397-1.092,6.644-1.113
	c8.917-0.067,16.75,5.38,19.514,13.561l0.257,0.851c1.617,5.654,0.662,12.009-2.554,17.024c-2.396,3.729-9.954,7.012-9.954,7.012
	L56.605,341.286c-2.292,0.776-4.692,1.186-7.111,1.216V342.498z"/>
<path fill="#E8A723" d="M188.851,342.856c-8.902,0.085-16.847-5.57-19.681-14.009L113.3,162.891l-0.279-0.932
	c-3.027-10.583,2.794-21.622,13.228-25.139c2.087-0.702,4.246-1.068,6.419-1.087c3.228-0.024,6.351,0.704,9.293,2.157
	c4.895,2.421,8.622,6.693,10.356,11.871l55.866,165.943l0.162,0.533c3.138,10.988-2.67,22.034-13.104,25.55
	C193.18,342.476,191.024,342.836,188.851,342.856L188.851,342.856z"/>
<path fill="#3EB890" d="M105.803,370.809c-8.907,0.085-16.855-5.575-19.689-14.02L30.258,190.838
	c-3.635-10.752,2.135-22.416,12.888-26.05c0.014-0.004,0.028-0.009,0.042-0.014c2.064-0.69,4.223-1.052,6.399-1.073
	c8.903-0.088,16.851,5.568,19.684,14.009l55.857,165.958c3.635,10.752-2.135,22.416-12.887,26.05
	c-0.019,0.006-0.038,0.012-0.057,0.019c-2.06,0.69-4.216,1.052-6.388,1.071h0.006V370.809z"/>
<path fill="#CC2027" d="M161.308,305.483l38.957-13.319l-12.735-37.82l-39.002,13.18L161.308,305.483z"/>
<path fill="#361238" d="M78.388,333.834l38.954-13.318l-12.832-38.109l-38.992,13.185L78.388,333.834z"/>
<path fill="#65863A" d="M133.573,223.105l38.96-13.302l-12.586-37.378l-39.032,13.077L133.573,223.105z"/>
<path fill="#1A937D" d="M50.644,251.417l38.96-13.302l-12.74-37.855l-39.032,13.075L50.644,251.417z"/>
</svg>
