<?xml version="1.0" encoding="utf-8"?>
<!-- Generator: Adobe Illustrator 16.0.3, SVG Export Plug-In . SVG Version: 6.00 Build 0)  -->
<!DOCTYPE svg PUBLIC "-//W3C//DTD SVG 1.1//EN" "http://www.w3.org/Graphics/SVG/1.1/DTD/svg11.dtd">
<svg version="1.1" id="Layer_1" xmlns="http://www.w3.org/2000/svg" xmlns:xlink="http://www.w3.org/1999/xlink" x="0px" y="0px"
	 width="109.277px" height="50.159px" viewBox="5.347 4.921 109.277 50.159" enable-background="new 5.347 4.921 109.277 50.159"
	 xml:space="preserve">
<g transform="matrix(1.25 0 0 -1.25 -2448.6946 909.20022)">
	
		<linearGradient id="SVGID_1_" gradientUnits="userSpaceOnUse" x1="3650.0415" y1="944.3656" x2="3650.0415" y2="887.7047" gradientTransform="matrix(1.25 0 0 1.25 -2555.5945 -436.3002)">
		<stop  offset="0" style="stop-color:#FAA21B"/>
		<stop  offset="1" style="stop-color:#F15623"/>
	</linearGradient>
	<path fill="url(#SVGID_1_)" d="M2009.137,722.497c-0.585-0.226-0.74-0.46-0.746-0.91V696.98c0.012-0.475,0.374-0.87,0.838-0.916
		c0.02-0.001,21.349-0.012,21.49-0.012c4.282,0,7.751,3.47,7.751,7.753c0,4.283-3.469,7.752-7.751,7.752
		c-1.03,0-2.048-0.204-2.999-0.601c-0.616,6.986-6.475,12.467-13.623,12.467c-1.696-0.003-3.377-0.317-4.959-0.928
		 M2005.954,720.755l-0.35-17.464l0.35-6.338c0.012-0.463,0.39-0.845,0.854-0.845c0.469,0.005,0.848,0.383,0.853,0.852v-0.006
		l0.38,6.338l-0.38,17.466c-0.012,0.467-0.39,0.85-0.853,0.85C2006.345,721.608,2005.958,721.224,2005.954,720.755
		 M2003.361,719.305l-0.3-16.007c0-0.01,0.3-6.436,0.3-6.436c0.012-0.434,0.366-0.793,0.8-0.793
		c0.438,0.005,0.793,0.358,0.801,0.796v-0.004v0.004l0.337,6.427l-0.337,16.014c-0.012,0.438-0.367,0.795-0.8,0.795
		C2003.724,720.096,2003.37,719.743,2003.361,719.305 M1995.608,717.627l-0.397-14.33l0.398-6.581c0.01-0.352,0.3-0.63,0.638-0.63
		c0.338,0,0.627,0.28,0.638,0.633l0,0v0.003l0.447,6.575l-0.447,14.33c-0.012,0.357-0.292,0.635-0.638,0.635
		c-0.346,0-0.63-0.278-0.64-0.635 M1998.171,717.261l-0.364-13.965l0.365-6.515c0.012-0.383,0.312-0.686,0.693-0.686
		c0.38,0,0.68,0.305,0.692,0.691v-0.005l0.4,6.516l-0.4,13.965c-0.012,0.387-0.314,0.69-0.692,0.69
		C1998.487,717.952,1998.18,717.648,1998.171,717.261 M1993.063,717.162l-0.43-13.863l0.43-6.62
		c0.007-0.319,0.266-0.574,0.585-0.577c0.315,0,0.572,0.252,0.585,0.58l0.484,6.617l-0.484,13.864
		c-0.013,0.325-0.27,0.58-0.585,0.58c-0.32-0.003-0.58-0.26-0.585-0.58 M2000.756,716.751l-0.334-13.454l0.334-6.475
		c0.012-0.413,0.337-0.738,0.747-0.738c0.41,0,0.736,0.325,0.745,0.742v-0.005l0.374,6.475l-0.374,13.456
		c-0.004,0.41-0.336,0.74-0.745,0.743C2001.103,717.495,2000.763,717.168,2000.756,716.751 M1990.54,716.097
		c0-0.001-0.46-12.795-0.46-12.795l0.46-6.688c0.009-0.288,0.242-0.52,0.531-0.524c0.283,0,0.516,0.23,0.531,0.527l0.52,6.686
		l-0.52,12.795c-0.015,0.295-0.249,0.526-0.531,0.526C1990.781,716.618,1990.547,716.386,1990.54,716.097 M1988.037,713.717
		l-0.493-10.415l0.493-6.73c0.012-0.263,0.222-0.469,0.477-0.469c0.259,0.006,0.468,0.212,0.478,0.47v-0.002l0.558,6.73
		l-0.558,10.415c-0.016,0.264-0.226,0.472-0.478,0.472S1988.05,713.98,1988.037,713.717 M1983.091,710.204l-0.556-6.9l0.556-6.675
		c0.016-0.207,0.174-0.362,0.37-0.362c0.196,0,0.352,0.155,0.37,0.362l0.63,6.675l-0.63,6.902c-0.018,0.205-0.176,0.362-0.37,0.362
		c-0.194,0-0.355-0.157-0.37-0.365 M1980.648,710.021c0-0.001-0.59-6.716-0.59-6.716l0.59-6.47c0.018-0.18,0.15-0.3,0.316-0.3
		c0.166,0,0.296,0.13,0.315,0.309l0.668,6.47l-0.667,6.716c-0.02,0.18-0.153,0.31-0.316,0.31c-0.163,0-0.3-0.13-0.316-0.31
		 M1985.553,709.714l-0.524-6.4l0.524-6.73c0.016-0.237,0.196-0.418,0.423-0.418c0.227,0,0.406,0.18,0.423,0.417l0.595,6.73
		l-0.595,6.404c-0.018,0.235-0.198,0.414-0.423,0.414S1985.569,709.953,1985.553,709.714 M1978.226,708.974
		c0-0.001-0.62-5.66-0.62-5.66l0.62-5.537c0.018-0.148,0.13-0.253,0.263-0.253s0.24,0.103,0.26,0.253l0.704,5.536l-0.704,5.66
		c-0.023,0.15-0.13,0.254-0.262,0.254c-0.132,0-0.245-0.107-0.263-0.254 M1975.904,706.814l-0.46-3.5l0.46-3.439
		c0.018-0.145,0.122-0.248,0.253-0.248c0.131,0,0.23,0.102,0.25,0.246l0.546,3.442l-0.546,3.5c-0.02,0.144-0.123,0.245-0.25,0.245
		C1976.031,707.06,1975.921,706.958,1975.904,706.814"/>
	
		<linearGradient id="SVGID_2_" gradientUnits="userSpaceOnUse" x1="3650.0315" y1="966.1144" x2="3650.0315" y2="878.0664" gradientTransform="matrix(1.25 0 0 1.25 -2555.5945 -436.3002)">
		<stop  offset="0" style="stop-color:#FAA21B"/>
		<stop  offset="1" style="stop-color:#F15623"/>
	</linearGradient>
	<path fill="url(#SVGID_2_)" d="M2024.28,687.93c0-2.737,1.45-4.634,3.904-4.634c2.455,0,3.903,1.9,3.903,4.634
		c0,2.734-1.452,4.636-3.903,4.636C2025.733,692.566,2024.28,690.666,2024.28,687.93 M2026.13,687.93
		c0,1.605,0.603,2.852,2.056,2.852c1.452,0,2.053-1.246,2.053-2.852c0-1.606-0.605-2.85-2.053-2.85
		C2026.737,685.08,2026.13,686.324,2026.13,687.93 M2009.207,687.93c0-2.838,1.578-4.634,3.928-4.634
		c1.633,0,2.709,0.757,3.327,2.03l-1.515,0.9c-0.475-0.795-0.952-1.142-1.76-1.142c-1.35,0-2.135,1.233-2.135,2.85
		c0,1.669,0.774,2.852,2.12,2.852c0.807,0,1.322-0.36,1.644-0.975l1.67,0.77c-0.567,1.17-1.595,2-3.29,2
		c-2.35,0-3.994-1.9-3.994-4.636 M1971.629,687.945c0-2.736,1.45-4.634,3.904-4.634c2.454,0,3.903,1.9,3.903,4.634
		c0,2.734-1.452,4.636-3.903,4.636S1971.629,690.68,1971.629,687.945 M1973.479,687.945c0,1.605,0.603,2.852,2.055,2.852
		c1.452,0,2.056-1.246,2.056-2.852c0-1.606-0.603-2.85-2.056-2.85C1974.082,685.095,1973.479,686.338,1973.479,687.945
		 M1963.579,689.947c0-1.77,1.158-2.297,2.812-2.683c1.696-0.385,2.005-0.643,2.005-1.22c0-0.68-0.502-0.975-1.566-0.975
		c-0.862,0-1.67,0.294-2.3,1.028l-1.297-1.156c0.68-1.003,1.992-1.63,3.493-1.63c2.455,0,3.53,1.156,3.53,2.864
		c0,1.952-1.58,2.438-3.007,2.773c-1.427,0.334-1.81,0.514-1.81,1.08c0,0.397,0.319,0.809,1.284,0.809
		c0.824,0,1.465-0.336,2.043-0.925l1.296,1.258c-0.847,0.884-1.874,1.412-3.274,1.412c-1.772,0-3.21-1.002-3.21-2.634
		 M2043.375,692.441v-9h2.684c2.313,0,4.596,1.334,4.596,4.492c0,3.291-1.9,4.498-4.468,4.498L2043.375,692.441z M2045.172,690.695
		h0.954c1.897,0,2.68-0.912,2.68-2.75c0-1.644-0.859-2.747-2.747-2.747h-0.887V690.695z M2039.33,692.441v-5.048
		c0-1.438-0.706-2.323-1.847-2.323c-1.141,0-1.84,0.912-1.84,2.35v5.023h-1.797v-5.048c0-2.62,1.463-4.083,3.636-4.083
		c2.286,0,3.645,1.502,3.645,4.108v5.023L2039.33,692.441z M2018.032,692.441v-9h5.402v1.772h-3.604v7.217L2018.032,692.441z
		 M2000.32,692.441v-9h2.683c2.312,0,4.598,1.334,4.598,4.492c0,3.291-1.9,4.498-4.468,4.498L2000.32,692.441z M2002.117,690.695
		h0.952c1.9,0,2.684-0.912,2.684-2.75c0-1.644-0.862-2.747-2.75-2.747h-0.885L2002.117,690.695z M1996.237,692.441v-3.802
		l0.025-1.965c-0.116,0.233-0.4,0.68-0.628,1.015l-3.187,4.752h-1.72v-9h1.772v3.955l-0.026,1.966c0.116-0.23,0.412-0.68,0.63-1.016
		l3.3-4.905h1.606v9H1996.237z M1986.684,692.441v-5.048c0-1.438-0.71-2.323-1.85-2.323c-1.14,0-1.837,0.912-1.837,2.35v5.023h-1.8
		v-5.048c0-2.62,1.467-4.083,3.636-4.083c2.284,0,3.646,1.502,3.646,4.108v5.023L1986.684,692.441z"/>
</g>
</svg>
