<?xml version="1.0" encoding="utf-8"?>
<!-- Generator: Adobe Illustrator 16.0.3, SVG Export Plug-In . SVG Version: 6.00 Build 0)  -->
<!DOCTYPE svg PUBLIC "-//W3C//DTD SVG 1.1//EN" "http://www.w3.org/Graphics/SVG/1.1/DTD/svg11.dtd">
<svg version="1.1" id="Layer_1" xmlns="http://www.w3.org/2000/svg" xmlns:xlink="http://www.w3.org/1999/xlink" x="0px" y="0px"
	 width="290.144px" height="49.647px" viewBox="4.773 125.416 290.144 49.647"
	 enable-background="new 4.773 125.416 290.144 49.647" xml:space="preserve">
<g>
	<g>
		<g>
			<path fill="#FF5543" d="M33.376,174.984c-2.686,0.479-5.275-1.247-5.754-3.933l-7.289-39.802
				c-0.479-2.686,1.247-5.275,3.932-5.754s5.275,1.247,5.754,3.932l7.289,39.802C37.788,171.915,35.965,174.504,33.376,174.984z"/>
		</g>
		<g>
			<path fill="#A112FF" d="M14.29,168.175c-1.726,0.288-3.453-0.288-4.699-1.631c-1.727-2.11-1.535-5.179,0.575-6.905l30.787-26.183
				c2.11-1.727,5.179-1.535,6.905,0.575c1.727,2.11,1.535,5.179-0.575,6.905l-30.69,26.183
				C15.921,167.695,15.058,168.078,14.29,168.175z"/>
		</g>
		<g>
			<g>
				<path fill="#00CBEC" d="M48.721,161.845c-0.863,0.192-1.726,0.096-2.494-0.192L8.056,148.13c-2.589-0.959-3.932-3.74-2.973-6.33
					c0.959-2.589,3.741-3.932,6.33-2.973l38.075,13.523c2.59,0.959,3.933,3.74,2.973,6.33
					C51.886,160.406,50.352,161.557,48.721,161.845z"/>
			</g>
		</g>
	</g>
	<path d="M80.563,157.049c0-0.959-0.383-1.727-1.055-2.301c-0.671-0.576-1.535-1.151-2.59-1.631
		c-1.055-0.479-2.206-0.959-3.453-1.535c-1.247-0.479-2.397-1.15-3.453-1.917c-1.055-0.768-1.918-1.727-2.589-2.877
		s-1.055-2.589-1.055-4.316c0-1.535,0.288-2.877,0.768-3.932c0.479-1.151,1.247-2.014,2.206-2.781
		c0.959-0.768,2.014-1.247,3.357-1.63c1.247-0.384,2.686-0.576,4.316-0.576c1.822,0,3.548,0.192,5.083,0.479
		s2.973,0.768,3.932,1.343l-1.918,5.083c-0.671-0.383-1.63-0.767-2.973-1.055c-1.343-0.384-2.686-0.479-4.22-0.479
		c-1.438,0-2.494,0.288-3.261,0.863c-0.767,0.576-1.151,1.343-1.151,2.302c0,0.863,0.384,1.631,1.055,2.206
		c0.671,0.576,1.534,1.151,2.589,1.63s2.206,1.055,3.453,1.535c1.247,0.575,2.398,1.151,3.453,1.918
		c1.055,0.768,1.918,1.727,2.59,2.782c0.671,1.15,1.055,2.493,1.055,4.124c0,1.63-0.288,3.069-0.863,4.315
		c-0.575,1.247-1.342,2.206-2.302,2.973c-0.959,0.768-2.206,1.439-3.645,1.822c-1.438,0.385-2.973,0.576-4.699,0.576
		c-2.206,0-4.22-0.191-5.851-0.672c-1.726-0.383-2.973-0.863-3.74-1.246l1.918-5.18c0.288,0.192,0.768,0.384,1.247,0.576
		c0.479,0.191,1.151,0.383,1.726,0.575c0.671,0.192,1.343,0.288,2.11,0.479c0.768,0.096,1.439,0.191,2.206,0.191
		c1.822,0,3.165-0.287,4.124-0.959C80.083,159.159,80.563,158.296,80.563,157.049z"/>
	<path d="M89.29,154.268c0-3.74,0.959-6.713,2.782-8.728c1.822-2.014,4.412-3.069,7.769-3.069c1.822,0,3.356,0.288,4.604,0.863
		c1.343,0.575,2.397,1.343,3.261,2.397c0.863,1.055,1.535,2.302,1.918,3.741c0.384,1.438,0.671,3.068,0.671,4.795
		c0,3.74-0.959,6.714-2.781,8.729c-1.822,2.014-4.412,3.068-7.769,3.068c-1.822,0-3.356-0.287-4.604-0.863
		c-1.343-0.575-2.397-1.342-3.261-2.397s-1.535-2.302-1.918-3.74C89.482,157.625,89.29,155.994,89.29,154.268z M95.237,154.268
		c0,0.959,0.096,1.918,0.288,2.686c0.192,0.863,0.479,1.535,0.767,2.206c0.384,0.671,0.863,1.151,1.438,1.438
		c0.576,0.384,1.247,0.479,2.11,0.479c1.534,0,2.685-0.575,3.356-1.63c0.768-1.055,1.151-2.877,1.151-5.18
		c0-2.014-0.383-3.74-1.055-4.987c-0.671-1.247-1.822-1.918-3.453-1.918c-1.439,0-2.59,0.576-3.357,1.631
		C95.62,150.048,95.237,151.774,95.237,154.268z"/>
	<path d="M119.022,143.143v12.66c0,1.822,0.191,3.164,0.671,3.932c0.384,0.768,1.247,1.247,2.494,1.247
		c1.055,0,2.014-0.288,2.782-0.959c0.767-0.671,1.247-1.438,1.63-2.397v-14.387h5.754v15.537c0,1.247,0.096,2.398,0.192,3.549
		c0.096,1.15,0.288,2.206,0.575,3.165h-4.412l-1.055-3.261h-0.192c-0.671,1.15-1.63,2.109-2.877,2.781
		c-1.247,0.768-2.686,1.15-4.316,1.15c-1.151,0-2.11-0.191-3.069-0.479c-0.863-0.289-1.631-0.768-2.206-1.439
		c-0.576-0.672-1.055-1.631-1.343-2.781s-0.479-2.686-0.479-4.508v-13.811H119.022z"/>
	<path d="M149.137,148.514c-0.959-0.288-1.726-0.48-2.494-0.48c-1.055,0-1.918,0.288-2.589,0.863
		c-0.671,0.576-1.151,1.247-1.438,2.11v14.386h-5.754v-22.25h4.507l0.671,2.973h0.192c0.479-1.055,1.151-1.918,2.014-2.589
		s1.918-0.863,3.069-0.863c0.768,0,2.398,0.384,3.261,0.767L149.137,148.514z"/>
	<path d="M167.935,164.051c-0.862,0.671-2.014,1.15-3.261,1.534c-1.246,0.384-2.59,0.479-3.932,0.479
		c-1.822,0-3.262-0.287-4.508-0.863c-1.247-0.575-2.206-1.342-2.974-2.397c-0.767-1.056-1.343-2.302-1.63-3.74
		c-0.384-1.438-0.48-3.069-0.48-4.796c0-3.74,0.863-6.713,2.59-8.728c1.727-2.014,4.124-3.069,7.385-3.069
		c1.631,0,2.974,0.096,3.933,0.384s1.918,0.575,2.686,1.055l-1.343,4.7c-0.672-0.288-1.343-0.576-2.014-0.767
		c-0.672-0.192-1.439-0.288-2.303-0.288c-1.63,0-2.781,0.576-3.645,1.63c-0.863,1.055-1.246,2.782-1.246,5.083
		c0,0.959,0.096,1.822,0.287,2.59c0.192,0.768,0.48,1.535,0.959,2.109c0.385,0.576,0.959,1.056,1.631,1.439
		c0.672,0.383,1.438,0.479,2.302,0.479c0.959,0,1.822-0.097,2.493-0.384c0.672-0.287,1.247-0.576,1.822-0.959L167.935,164.051z"/>
	<path d="M188.363,163.475c-0.863,0.672-2.109,1.344-3.645,1.822c-1.535,0.48-3.165,0.768-4.892,0.768
		c-3.645,0-6.233-1.055-7.864-3.165s-2.494-4.987-2.494-8.632c0-3.932,0.959-6.905,2.781-8.823s4.508-2.973,7.865-2.973
		c1.15,0,2.205,0.192,3.261,0.479c1.055,0.288,2.015,0.768,2.877,1.439c0.863,0.671,1.534,1.63,2.015,2.781
		c0.479,1.151,0.768,2.589,0.768,4.315c0,0.672,0,1.247-0.097,2.014c-0.096,0.672-0.192,1.439-0.288,2.207h-13.427
		c0.097,1.918,0.575,3.26,1.438,4.219c0.863,0.96,2.303,1.439,4.221,1.439c1.246,0,2.301-0.191,3.26-0.576
		c0.959-0.383,1.727-0.767,2.207-1.15L188.363,163.475z M180.02,147.075c-1.535,0-2.686,0.479-3.357,1.343
		c-0.768,0.863-1.15,2.11-1.342,3.645h8.248c0.096-1.631-0.097-2.878-0.768-3.741C182.32,147.554,181.361,147.075,180.02,147.075z"
		/>
	<path d="M211.572,165.393c0,3.262-0.862,5.659-2.589,7.193c-1.727,1.535-4.22,2.303-7.385,2.303c-2.11,0-3.837-0.192-5.083-0.48
		c-1.247-0.287-2.206-0.575-2.781-0.959l1.246-4.604c0.672,0.288,1.439,0.576,2.398,0.768s2.014,0.384,3.356,0.384
		c2.015,0,3.356-0.479,4.124-1.343s1.055-2.11,1.055-3.645v-1.343h-0.191c-1.055,1.438-2.877,2.11-5.563,2.11
		c-2.877,0-4.987-0.863-6.426-2.686c-1.439-1.822-2.11-4.604-2.11-8.344c0-4.029,0.959-7.002,2.878-9.016
		c1.918-2.014,4.699-3.069,8.248-3.069c1.918,0,3.645,0.096,5.082,0.384c1.439,0.288,2.686,0.575,3.645,0.959v21.387H211.572z
		 M201.79,161.077c1.151,0,2.015-0.288,2.59-0.767c0.575-0.48,1.055-1.247,1.438-2.303v-9.974c-0.959-0.383-2.109-0.575-3.453-0.575
		c-1.534,0-2.686,0.575-3.452,1.63c-0.863,1.151-1.247,2.878-1.247,5.371c0,2.206,0.384,3.836,1.055,4.987
		C199.393,160.598,200.447,161.077,201.79,161.077z"/>
	<path d="M228.357,148.514c-0.959-0.288-1.727-0.48-2.494-0.48c-1.055,0-1.918,0.288-2.59,0.863c-0.671,0.576-1.15,1.247-1.438,2.11
		v14.386h-5.755v-22.25h4.508l0.672,2.973h0.191c0.48-1.055,1.151-1.918,2.014-2.589c0.863-0.671,1.919-0.863,3.07-0.863
		c0.767,0,1.63,0.192,2.589,0.479L228.357,148.514z"/>
	<path d="M231.139,144.198c1.15-0.576,2.014-0.768,3.645-1.055c1.63-0.288,3.356-0.479,5.082-0.479c1.535,0,2.878,0.192,3.837,0.575
		c0.959,0.384,1.822,0.863,2.493,1.631c0.576,0.671,1.055,1.534,1.247,2.493c0.288,0.959,0.384,2.014,0.384,3.165
		c0,1.343,0,2.59-0.096,3.933s-0.096,2.589-0.191,3.933c0,1.246,0,2.493,0.096,3.74c0.096,1.246,0.287,2.301,0.671,3.452h-4.7
		l-0.959-3.069l0,0c-0.574,0.959-1.438,1.727-2.493,2.398c-1.055,0.671-2.397,0.959-4.124,0.959c-1.055,0-2.014-0.191-2.781-0.48
		c-0.863-0.287-1.535-0.767-2.109-1.342c-0.576-0.576-1.056-1.247-1.344-2.014c-0.287-0.768-0.479-1.631-0.479-2.686
		c0-1.344,0.287-2.494,0.959-3.453c0.671-0.959,1.438-1.727,2.589-2.302s2.493-0.959,4.124-1.247
		c1.631-0.287,3.357-0.287,5.371-0.191c0.191-1.631,0.096-2.877-0.384-3.549c-0.479-0.767-1.438-1.055-2.974-1.055
		c-1.15,0-2.396,0.096-3.645,0.384c-1.246,0.288-1.822,0.384-2.589,0.767L231.139,144.198z M237.947,160.981
		c1.151,0,2.11-0.288,2.781-0.767c0.672-0.48,1.151-1.056,1.535-1.631v-2.877c-0.959-0.096-1.822-0.096-2.686,0
		s-1.631,0.191-2.206,0.383c-0.575,0.192-1.151,0.48-1.534,0.863c-0.384,0.384-0.576,0.863-0.576,1.439
		c0,0.862,0.288,1.438,0.768,1.918C236.413,160.789,237.084,160.981,237.947,160.981z"/>
	<path d="M252.334,143.143h4.22l0.671,2.686h0.192c0.767-1.151,1.726-1.918,2.781-2.494c1.056-0.576,2.302-0.767,3.837-0.767
		c2.781,0,4.891,0.863,6.329,2.685s2.11,4.604,2.11,8.537c0,1.918-0.191,3.644-0.672,5.178c-0.479,1.535-1.15,2.878-2.014,3.933
		c-0.863,1.056-1.918,1.919-3.165,2.493c-1.247,0.576-2.686,0.863-4.315,0.863c-0.959,0-1.727-0.096-2.303-0.191
		c-0.574-0.096-1.15-0.383-1.822-0.672v9.111h-5.754v-31.361H252.334z M262.213,147.362c-1.151,0-2.015,0.288-2.686,0.863
		c-0.672,0.576-1.151,1.439-1.535,2.59v9.303c0.384,0.288,0.863,0.575,1.343,0.768c0.479,0.191,1.151,0.288,1.919,0.288
		c1.63,0,2.877-0.576,3.74-1.727c0.863-1.151,1.246-3.069,1.246-5.851c0-1.919-0.287-3.453-0.959-4.508
		C264.706,147.938,263.65,147.362,262.213,147.362z"/>
	<path d="M289.258,165.393v-12.659c0-1.822-0.287-3.165-0.767-3.932c-0.479-0.768-1.438-1.247-2.781-1.247
		c-0.96,0-1.919,0.288-2.686,0.959c-0.863,0.671-1.343,1.534-1.63,2.59v14.193h-5.755v-31.074h5.755v11.413h0.191
		c0.671-0.959,1.631-1.727,2.59-2.302c1.055-0.576,2.396-0.863,3.932-0.863c1.15,0,2.109,0.192,2.973,0.479s1.631,0.768,2.207,1.439
		c0.574,0.671,1.055,1.63,1.246,2.781s0.384,2.589,0.384,4.315v13.906H289.258z"/>
</g>
</svg>
