<?xml version="1.0" encoding="utf-8"?>
<!-- Generator: Adobe Illustrator 16.0.3, SVG Export Plug-In . SVG Version: 6.00 Build 0)  -->
<!DOCTYPE svg PUBLIC "-//W3C//DTD SVG 1.1//EN" "http://www.w3.org/Graphics/SVG/1.1/DTD/svg11.dtd">
<svg version="1.1" id="Layer_1" xmlns="http://www.w3.org/2000/svg" xmlns:xlink="http://www.w3.org/1999/xlink" x="0px" y="0px"
	 width="110.899px" height="38.624px" viewBox="4.527 10.576 110.899 38.624" enable-background="new 4.527 10.576 110.899 38.624"
	 xml:space="preserve">
<path fill="#68BD45" d="M39.17,13.265c-0.524,1.256-1.194,2.446-1.998,3.544c-4.778-4.776-11.755-6.613-18.265-4.8
	c-6.51,1.813-11.55,6.957-13.19,13.511C4.077,32.074,6.086,39,10.98,43.66l0.693,0.611c7.92,6.672,19.749,5.658,26.42-2.262
	c2.552-3.03,4.079-6.791,4.361-10.742c0.51-4.775-0.89-10.817-3.284-18V13.265z M13.647,43.768c-0.408,0.504-1.08,0.713-1.702,0.529
	c-0.622-0.184-1.072-0.725-1.14-1.37c-0.068-0.645,0.26-1.267,0.83-1.577c0.57-0.31,1.27-0.244,1.774,0.164
	c0.687,0.557,0.793,1.566,0.236,2.254H13.647z M39.091,38.15c-4.628,6.166-14.51,4.086-20.847,4.385c0,0-1.123,0.066-2.254,0.252
	c0,0,0.426-0.182,0.972-0.387c4.45-1.551,6.553-1.848,9.256-3.238c5.09-2.587,10.123-8.253,11.17-14.143
	c-1.936,5.667-7.815,10.538-13.167,12.517c-3.668,1.353-10.294,2.668-10.294,2.668l-0.267-0.144c-4.51-2.19-4.65-11.955,3.54-15.104
	c3.6-1.383,7.025-0.624,10.902-1.55c4.14-0.984,8.93-4.086,10.88-8.133c2.18,6.475,4.806,16.6,0.097,22.88L39.091,38.15z"/>
<g transform="matrix(.57047 0 0 .57047 11.197731 16.054489)">
	<path fill="#68BD45" d="M61.807,35.152c-0.663-0.401-1.055-1.132-1.019-1.905c-0.014-1.214,0.959-2.208,2.171-2.222
		c0.019-0.002,0.037-0.002,0.056,0c0.413,0.002,0.818,0.111,1.177,0.317c2.024,1.429,4.424,2.234,6.902,2.313
		c2.36,0,3.72-1.019,3.72-2.6v-0.086c0-1.861-2.55-2.499-5.357-3.36c-3.537-1.02-7.488-2.452-7.488-7.034v-0.092
		c0-4.542,3.767-7.3,8.533-7.3c2.617,0.049,5.186,0.72,7.493,1.957c0.801,0.389,1.311,1.199,1.316,2.09
		c0.009,1.221-0.975,2.219-2.196,2.227c-0.024,0-0.048,0-0.072-0.001c-0.38,0.007-0.755-0.088-1.086-0.275
		c-1.952-1.02-3.95-1.636-5.607-1.636c-2.13,0-3.36,1.019-3.36,2.36v0.092c0,1.77,2.599,2.498,5.403,3.406
		c3.497,1.1,7.442,2.676,7.442,6.988v0.092c0,5.036-3.904,7.529-8.895,7.529c-3.262-0.022-6.443-1.017-9.134-2.859H61.807z
		 M81.907,15.956c-0.031-1.497,1.158-2.736,2.655-2.767c0.021,0,0.041-0.001,0.062,0c1.52-0.009,2.759,1.215,2.769,2.736
		c0,0.01,0,0.021,0,0.032v1.662c1.77-2.498,4.266-4.496,8.155-4.496c5.605,0,11.117,4.446,11.117,12.437v0.092
		c0,7.94-5.451,12.432-11.117,12.432c-4.002,0-6.502-1.996-8.155-4.22v8.462c0,1.517-1.231,2.746-2.748,2.746
		c-1.518,0-2.748-1.229-2.748-2.746L81.907,15.956z M101.108,25.641v-0.092c0-4.627-3.136-7.645-6.858-7.645
		c-3.722,0-6.988,3.1-6.988,7.645v0.092c0,4.588,3.266,7.647,6.988,7.647c3.722,0,6.858-2.926,6.858-7.661V25.641z M108.767,15.961
		c-0.031-1.497,1.157-2.736,2.655-2.767c0.022-0.001,0.045-0.001,0.067-0.001c1.517-0.011,2.756,1.209,2.768,2.726
		c0,0.014,0,0.028,0,0.042v1.32c0.276-2.04,3.634-4.078,6.034-4.078c1.404-0.099,2.623,0.96,2.722,2.363
		c0.01,0.12,0.01,0.24,0,0.359c0.045,1.302-0.888,2.433-2.174,2.635c-3.905,0.678-6.58,4.078-6.58,8.823v7.9
		c-0.009,1.512-1.241,2.73-2.753,2.722c-0.005,0-0.01,0-0.017,0c-1.491,0.012-2.71-1.19-2.722-2.682c0-0.014,0-0.027,0-0.039V15.961
		z M125.093,15.973c-0.029-1.5,1.166-2.739,2.665-2.767c0.019,0,0.038-0.001,0.056-0.001c1.52-0.009,2.76,1.216,2.768,2.736
		c0,0.01,0,0.021,0,0.032v19.326c-0.058,1.517-1.334,2.7-2.85,2.641c-1.435-0.055-2.585-1.205-2.64-2.641V15.973z M133.356,15.983
		c-0.031-1.498,1.157-2.736,2.655-2.767c0.022-0.001,0.044-0.001,0.067-0.001c1.52-0.009,2.76,1.216,2.768,2.736
		c0,0.011,0,0.021,0,0.033v1.126c1.626-2.538,4.477-4.024,7.488-3.904c5.397,0,8.534,3.63,8.534,9.176v12.905
		c0.026,1.479-1.152,2.698-2.629,2.722c-0.031,0.002-0.062,0.002-0.092,0c-1.5,0.041-2.749-1.144-2.787-2.643
		c-0.002-0.027-0.002-0.051-0.002-0.079V24.07c0-3.72-1.861-5.857-5.127-5.857c-3.177,0-5.399,2.227-5.399,5.949v11.122
		c-0.058,1.515-1.334,2.698-2.849,2.64c-1.435-0.055-2.587-1.205-2.641-2.64L133.356,15.983z M179.006,13.143
		c-1.52-0.009-2.76,1.216-2.768,2.736c0,0.011,0,0.021,0,0.033v1.63c-1.77-2.498-4.266-4.5-8.155-4.5
		c-5.608,0-11.124,4.445-11.124,12.431v0.092c-0.014,7.946,5.435,12.432,11.107,12.432c3.971,0,6.464-1.972,8.155-4.184
		c-0.274,4.317-2.915,6.594-7.549,6.594c-2.581,0.027-5.124-0.63-7.371-1.9c-0.308-0.151-0.649-0.229-0.993-0.224
		c-1.26,0-2.29,1.005-2.32,2.263c-0.022,0.984,0.597,1.868,1.529,2.183c2.878,1.421,6.046,2.152,9.256,2.136
		c4.312,0,7.671-1.02,9.853-3.222c1.993-1.996,3.057-4.999,3.057-9.032V15.9c0.029-1.5-1.166-2.74-2.665-2.768
		c-0.005,0-0.01,0-0.015,0L179.006,13.143z M169.384,33.251c-3.768,0-6.851-2.951-6.851-7.671V25.49
		c0-4.629,3.129-7.647,6.851-7.647c3.718,0,6.988,3.063,6.988,7.647v0.091C176.372,30.163,173.109,33.251,169.384,33.251z"/>
	<circle fill="#68BD45" cx="127.841" cy="6.588" r="2.768"/>
</g>
</svg>
