<?xml version="1.0" encoding="utf-8"?>
<!-- Generator: Adobe Illustrator 27.3.1, SVG Export Plug-In . SVG Version: 6.00 Build 0)  -->
<svg version="1.1" id="Layer_1" xmlns="http://www.w3.org/2000/svg" xmlns:xlink="http://www.w3.org/1999/xlink" x="0px" y="0px"
	 viewBox="0 0 1495.3 403.3" style="enable-background:new 0 0 1495.3 403.3;" xml:space="preserve">
<style type="text/css">
	.st0{fill:#6CB52D;}
	.st1{fill:#FFFFFF;}
</style>
<g>
	<path class="st0" d="M367.6,23.2C361.8,37.3,354.3,49.8,346,61C309.4,23.7,258.2,0,201.7,0C90.7,0,0,90.2,0,201.6
		c0,58.2,24.9,110.6,64.4,147.6l7.5,6.7c34.9,29.5,80.3,47.4,129.7,47.4c106,0,193.3-82.7,200.8-187.1
		C408.4,165.5,393,100.6,367.6,23.2z M93.6,350.9c-5.8,7.5-16.6,8.3-24.1,2.5s-8.3-16.6-2.5-24.1c5.8-7.5,16.6-8.3,24.1-2.5
		C98.2,332.6,99.4,343.4,93.6,350.9z M366.4,290.6c-49.5,66.1-155.9,43.7-223.7,47c0,0-12.1,0.8-24.1,2.5c0,0,4.6-2.1,10.4-4.2
		c47.8-16.6,70.3-20,99.4-34.9c54.5-27.9,108.9-89,119.8-152.2c-20.8,60.7-84,113.1-141.4,134.3c-39.5,14.6-110.6,28.7-110.6,28.7
		l-2.9-1.7c-48.2-23.7-49.9-128.5,38.3-162.2c38.7-15,75.3-6.7,117.3-16.6C293.4,120.9,345,87.6,365.7,44
		C388.8,114.3,417.1,223.2,366.4,290.6z"/>
	<g>
		<path class="st0" d="M516.9,280.6c-5-2.5-8.3-8.3-8.3-15.4c0-10,7.9-18.3,18.3-18.3c3.7,0,7.1,1.2,9.6,2.5
			c18.7,12.5,38.7,18.7,56.1,18.7c19.1,0,30.4-8.3,30.4-21.2v-0.8c0-15.4-20.8-20.4-43.7-27.4c-28.7-8.3-61.1-20-61.1-57.4v-0.8
			c0-37,30.8-59.5,69.4-59.5c20.8,0,42.4,5.8,61.5,15.8c6.2,3.3,10.8,9.1,10.8,17c0,10.4-8.3,18.3-18.7,18.3c-3.7,0-5.8-0.8-8.7-2.1
			c-15.8-8.3-32-13.3-45.7-13.3c-17.5,0-27.4,8.3-27.4,19.1v0.8c0,14.6,21.2,20.4,44.1,27.9c28.7,8.7,60.7,22,60.7,57v0.8
			c0,41.2-32,61.5-72.3,61.5C566.4,303.9,539.3,296,516.9,280.6z"/>
		<path class="st0" d="M680.7,123.9c0-12.5,9.6-22.5,22-22.5s22.5,10,22.5,22.5v13.3c14.6-20.4,34.9-36.6,66.5-36.6
			c45.7,0,90.6,36.2,90.6,101.5v0.8c0,64.9-44.5,101.5-90.6,101.5c-32.4,0-52.8-16.2-66.5-34.5v69c0,12.5-10,22.5-22.5,22.5
			c-12.1,0-22-9.6-22-22.5V123.9z M837.5,202.9v-0.8c0-37.8-25.4-62.4-55.7-62.4c-30.4,0-57,25.4-57,62.4v0.8
			c0,37.4,26.6,62.4,57,62.4C812.1,265.7,837.5,241.5,837.5,202.9z"/>
		<path class="st0" d="M899.8,123.9c0-12.5,9.6-22.5,22-22.5s22.5,10,22.5,22.5v10.8c2.1-16.6,29.5-33.3,49.1-33.3
			c14.1,0,22,9.1,22,22c0,11.6-7.9,19.5-17.9,21.6c-32,5.4-53.6,33.3-53.6,71.9v64.4c0,12.1-10,22-22.5,22c-12.1,0-22-9.6-22-22
			V123.9H899.8z"/>
		<path class="st0" d="M1033.3,124.3c0-12.5,9.6-22.5,22-22.5s22.5,10,22.5,22.5v157.6c0,12.5-10,22-22.5,22c-12.1,0-22-9.6-22-22
			V124.3z"/>
		<path class="st0" d="M1100.7,124.3c0-12.5,9.6-22.5,22-22.5s22.5,10,22.5,22.5v9.1c12.5-18.3,30.8-32,61.1-32
			c44.1,0,69.4,29.5,69.4,74.8v105.2c0,12.5-9.6,22-22,22s-22.5-9.6-22.5-22v-91.5c0-30.4-15-47.8-42-47.8
			c-25.8,0-44.1,18.3-44.1,48.6v91.1c0,12.5-10,22-22.5,22c-12.1,0-22-9.6-22-22L1100.7,124.3L1100.7,124.3z"/>
		<path class="st0" d="M1472.8,101c-12.5,0-22.5,10-22.5,22.5v13.3c-14.6-20.4-34.9-36.6-66.5-36.6c-45.7,0-90.6,36.2-90.6,101.5
			v0.8c0,64.9,44.5,101.5,90.6,101.5c32.4,0,52.8-16.2,66.5-34.1c-2.1,35.3-23.7,53.6-61.5,53.6c-22.5,0-42-5.4-59.9-15.4
			c-2.1-1.2-5-1.7-7.9-1.7c-10.4,0-19.1,8.3-19.1,18.3c0,8.7,5,15,12.5,17.9c23.7,11.6,48.2,17.5,75.7,17.5
			c35.3,0,62.8-8.3,80.3-26.2c16.2-16.2,24.9-40.7,24.9-73.6V123.9C1495.3,111,1485.3,101,1472.8,101z M1394.2,265.2
			c-30.8,0-55.7-24.1-55.7-62.8v-0.8c0-37.8,25.4-62.4,55.7-62.4s57,25.4,57,62.4v0.8C1451.6,239.9,1425,265.2,1394.2,265.2z"/>
		<path class="st0" d="M1078.2,47.8c0,12.5-10,22.5-22.5,22.5s-22.5-10-22.5-22.5s10-22.5,22.5-22.5
			C1067.8,24.9,1078.2,34.9,1078.2,47.8z"/>
	</g>
</g>
<path class="st1" d="M93.6,350.9c-5.8,7.5-16.6,8.3-24.1,2.5s-8.3-16.6-2.5-24.1c5.8-7.5,16.6-8.3,24.1-2.5
	C98.2,332.6,99.4,343.4,93.6,350.9z"/>
<path class="st1" d="M366.4,290.6c-49.5,66.1-155.9,43.7-223.7,47c0,0-12.1,0.8-24.1,2.5c0,0,4.6-2.1,10.4-4.2
	c47.8-16.6,70.3-20,99.4-34.9c54.5-27.9,108.9-89,119.8-152.2c-20.8,60.7-84,113.1-141.4,134.3c-39.5,14.6-110.6,28.7-110.6,28.7
	l-2.9-1.7c-48.2-23.7-49.9-128.5,38.3-162.2c38.7-15,75.3-6.7,117.3-16.6C293.4,120.9,345,87.6,365.7,44
	C388.8,114.3,417.1,223.2,366.4,290.6z"/>
</svg>
