<?xml version="1.0" encoding="utf-8"?>
<!-- Generator: Adobe Illustrator 16.0.3, SVG Export Plug-In . SVG Version: 6.00 Build 0)  -->
<!DOCTYPE svg PUBLIC "-//W3C//DTD SVG 1.1//EN" "http://www.w3.org/Graphics/SVG/1.1/DTD/svg11.dtd">
<svg version="1.1" id="Layer_1" xmlns="http://www.w3.org/2000/svg" xmlns:xlink="http://www.w3.org/1999/xlink" x="0px" y="0px"
	 width="800px" height="184px" viewBox="0 108.5 800 184" enable-background="new 0 108.5 800 184" xml:space="preserve">
<g>
	<g transform="translate(97.523810, 51.397683)">
		<path fill="#0A0B09" d="M78.981,225.575c-9.762,0-17.405-2.234-23.756-8.349l5.644-5.645c4.587,4.82,10.82,6.704,17.995,6.704
			c9.525,0,15.406-3.411,15.406-10.232c0-5.057-2.941-7.879-9.644-8.468l-9.526-0.823c-11.29-0.941-17.287-5.997-17.287-15.523
			c0-10.584,8.937-16.934,21.286-16.934c8.231,0,15.641,2,20.815,6.231l-5.528,5.527c-4.115-3.173-9.407-4.586-15.405-4.586
			c-8.468,0-12.937,3.647-12.937,9.526c0,4.94,2.822,7.88,10.114,8.467l9.29,0.823c10.115,0.942,17.052,4.822,17.052,15.643
			C102.5,219.108,92.974,225.575,78.981,225.575"/>
		<path fill="#0A0B09" d="M128.249,224.87c-9.879,0-14.818-6.939-14.818-15.523v-35.515h-7.291v-6.469h7.291v-18.11h8.467v18.11
			h12.348v6.469h-12.348v35.279c0,5.292,2.47,8.468,7.879,8.468h4.469v7.292H128.249"/>
		<path fill="#0A0B09" d="M178.037,198.175h-16.229c-8.703,0-12.937,3.529-12.937,10.23c0,6.704,4.116,9.88,13.289,9.88
			c4.94,0,9.29-0.354,12.936-3.881c2-1.881,2.941-5.174,2.941-9.997V198.175L178.037,198.175z M178.037,224.87v-5.528
			c-4.705,4.705-8.938,6.233-16.699,6.233c-7.997,0-12.701-1.528-16.348-5.291c-2.821-2.824-4.35-7.174-4.35-11.761
			c0-10.113,7.056-16.7,19.992-16.7h17.406v-5.527c0-8.465-4.234-12.7-14.818-12.7c-7.408,0-11.172,1.765-14.582,6.585l-5.763-5.291
			c5.175-6.704,11.055-8.585,20.463-8.585c15.522,0,23.166,6.702,23.166,19.285v39.28H178.037L178.037,224.87z"/>
		<path fill="#0A0B09" d="M219.667,225.575c-14.583,0-25.637-9.879-25.637-29.635c0-19.757,11.055-29.635,25.637-29.635
			c7.997,0,13.053,2.116,19.051,8.585l-5.762,5.409c-4.352-4.822-7.763-6.467-13.289-6.467c-5.646,0-10.349,2.233-13.407,6.585
			c-2.705,3.763-3.763,8.233-3.763,15.523s1.059,11.76,3.763,15.523c3.058,4.352,7.761,6.585,13.407,6.585
			c5.526,0,8.938-1.764,13.289-6.585l5.762,5.528C232.719,223.458,227.664,225.575,219.667,225.575"/>
		<path fill="#0A0B09" d="M285.072,224.87l-18.347-29.636l-11.289,12.936v16.7h-8.468v-83.733h8.468v55.979l26.107-30.105h10.584
			l-19.64,22.108l23.049,35.752H285.072"/>
		<path fill="#0A0B09" d="M329.691,181.774c-1.673-1.672-3.902-2.563-6.8-2.563c-2.898,0-5.016,0.892-6.688,2.563
			c-3.011,3.009-3.344,8.024-3.344,14.044c0,6.018,0.333,11.146,3.344,14.153c1.672,1.672,3.789,2.565,6.688,2.565
			c2.897,0,5.127-0.893,6.8-2.565c3.007-3.007,3.343-8.135,3.343-14.153C333.034,189.798,332.698,184.783,329.691,181.774
			L329.691,181.774z M340.947,218.443c-3.567,3.79-9.474,7.133-18.056,7.133s-14.378-3.343-17.944-7.133
			c-5.238-5.461-6.576-12.038-6.576-22.625c0-10.478,1.338-17.053,6.576-22.516c3.566-3.789,9.362-7.133,17.944-7.133
			s14.488,3.344,18.056,7.133c5.238,5.462,6.576,12.038,6.576,22.516C347.523,206.405,346.185,212.982,340.947,218.443
			L340.947,218.443z"/>
		<path fill="#0A0B09" d="M380.087,224.907h-11.369l-21.399-58.068h15.27l11.814,35.889l11.702-35.889h15.27L380.087,224.907"/>
		<path fill="#0A0B09" d="M435.72,184.226c-1.561-3.456-4.793-6.018-9.698-6.018c-4.903,0-8.136,2.563-9.694,6.018
			c-0.893,2.118-1.229,3.677-1.339,6.241h22.068C436.945,187.903,436.612,186.344,435.72,184.226L435.72,184.226z M414.989,200.387
			c0,7.468,4.569,12.929,12.705,12.929c6.354,0,9.475-1.782,13.153-5.461l8.806,8.582c-5.908,5.907-11.593,9.14-22.069,9.14
			c-13.71,0-26.861-6.24-26.861-29.757c0-18.949,10.254-29.648,25.3-29.648c16.162,0,25.302,11.814,25.302,27.753v6.464H414.989
			L414.989,200.387z"/>
		<path fill="#0A0B09" d="M490.083,182.665c-2.229-2.229-4.123-3.454-7.689-3.454c-4.459,0-9.363,3.343-9.363,10.7v34.996h-14.49
			v-58.068h14.156v5.572c2.785-3.344,8.359-6.241,14.6-6.241c5.685,0,9.697,1.449,13.71,5.462L490.083,182.665"/>
		<path fill="#0A0B09" d="M560.046,224.907c-11.926,0-16.941-8.358-16.941-16.606v-65.221h14.489v64.328
			c0,3.457,1.449,5.239,5.126,5.239h5.572v12.261H560.046L560.046,224.907z M525.514,177.897v47.01h-14.489v-47.01h-6.018v-11.033
			h6.018v-7.246c0-8.246,5.126-16.605,16.941-16.605h8.248v12.259h-5.573c-3.455,0-5.127,1.895-5.127,5.239v6.354h10.7v11.033
			H525.514L525.514,177.897z"/>
		<path fill="#0A0B09" d="M601.689,181.774c-1.671-1.672-3.9-2.563-6.799-2.563c-2.897,0-5.016,0.892-6.688,2.563
			c-3.01,3.009-3.343,8.024-3.343,14.044c0,6.018,0.333,11.146,3.343,14.153c1.672,1.672,3.79,2.565,6.688,2.565
			c2.898,0,5.128-0.893,6.799-2.565c3.009-3.007,3.345-8.135,3.345-14.153C605.034,189.798,604.698,184.783,601.689,181.774
			L601.689,181.774z M612.946,218.443c-3.566,3.79-9.474,7.133-18.056,7.133s-14.377-3.343-17.943-7.133
			c-5.238-5.461-6.577-12.038-6.577-22.625c0-10.478,1.339-17.053,6.577-22.516c3.566-3.789,9.361-7.133,17.943-7.133
			s14.489,3.344,18.056,7.133c5.239,5.462,6.577,12.038,6.577,22.516C619.523,206.405,618.185,212.982,612.946,218.443
			L612.946,218.443z"/>
		<path fill="#0A0B09" d="M684.545,224.907H672.62l-12.148-36.445l-12.148,36.445h-11.926l-17.832-58.068h15.381l9.361,35.889
			l11.815-35.889h10.586l11.927,35.889l9.362-35.889h15.27L684.545,224.907"/>
	</g>
	<g>
		<path fill="#B58F52" d="M98.871,226.273l-67.852-16.457l3.292-13.57l67.852,16.456L98.871,226.273"/>
		<path fill="#C78431" d="M103.419,210.039l-62.172-31.77l6.354-12.435l62.172,31.77L103.419,210.039"/>
		<path fill="#E9812C" d="M112.996,193.221l-52.579-45.936l9.186-10.515l52.58,45.935L112.996,193.221"/>
		<path fill="#E5712A" d="M127.46,178.438l-39.208-57.77l11.554-7.841l39.208,57.77L127.46,178.438"/>
		<path fill="#9D8469" d="M97.784,243.247l-69.715-3.806l0.761-13.944l69.715,3.808L97.784,243.247"/>
		<path fill="#797B7B" d="M112.239,276.092v-57.849h13.951l0.01,71.816H0l0.003-71.876h13.963v57.91H112.239"/>
		<path fill="#797B7B" d="M27.875,248.22h70.293v13.963H27.875V248.22z"/>
	</g>
</g>
</svg>
