<?xml version="1.0" encoding="utf-8"?>
<!-- Generator: Adobe Illustrator 27.3.1, SVG Export Plug-In . SVG Version: 6.00 Build 0)  -->
<svg version="1.1" id="Layer_1" xmlns="http://www.w3.org/2000/svg" xmlns:xlink="http://www.w3.org/1999/xlink" x="0px" y="0px"
	 viewBox="0 0 2885.1 607.2" style="enable-background:new 0 0 2885.1 607.2;" xml:space="preserve">
<style type="text/css">
	.st0{fill:#FFFFFF;}
	.st1{fill:url(#SVGID_1_);}
	.st2{fill:url(#SVGID_00000043430373733906705700000006159120929463532477_);fill-opacity:0.2;}
	.st3{fill:#3ECF8E;}
</style>
<path class="st0" d="M712.1,385.3c3,28.4,28.8,77,103.7,77c65.3,0,96.6-41.5,96.6-82.1c0-36.5-24.8-66.4-73.9-76.5l-35.4-7.6
	c-13.7-2.5-22.8-10.1-22.8-22.3c0-14.2,14.2-24.8,31.9-24.8c28.3,0,39,18.7,41,33.4l56.2-12.7c-3-26.8-26.8-71.9-97.7-71.9
	c-53.6,0-93.1,37-93.1,81.6c0,35,21.8,63.8,69.8,74.5l32.9,7.6c19.2,4.1,26.8,13.2,26.8,24.3c0,13.2-10.6,24.8-32.9,24.8
	c-29.3,0-44-18.2-45.5-38L712.1,385.3z"/>
<path class="st0" d="M1127.5,454.7h64.3c-1-8.6-2.5-25.8-2.5-45.1V205.5H1122v144.9c0,28.9-17.2,49.1-47,49.1
	c-31.4,0-45.5-22.3-45.5-50.1V205.5h-67.3V363c0,54.2,34.4,98.3,94.6,98.3c26.3,0,55.2-10.1,68.8-33.4
	C1125.5,438,1126.5,449.7,1127.5,454.7z"/>
<path class="st0" d="M1328.4,551V430.4c12.1,16.7,37.4,30.4,71.8,30.4c70.3,0,117.4-55.7,117.4-131.2c0-74-42-129.7-114.8-129.7
	c-37.4,0-65.3,16.7-76.4,36v-30.4h-65.3V551H1328.4z M1451.3,330.1c0,44.6-27.3,70.4-61.7,70.4c-34.4,0-62.2-26.3-62.2-70.4
	s27.8-69.9,62.2-69.9C1424,260.2,1451.3,286,1451.3,330.1z"/>
<path class="st0" d="M1555.7,386.8c0,39,32.4,75,85.5,75c36.9,0,60.7-17.2,73.4-37c0,9.6,1,23.3,2.5,29.9h61.7
	c-1.5-8.6-3-26.3-3-39.5V292.6c0-50.1-29.3-94.7-108.3-94.7c-66.8,0-102.7,43.1-106.8,82.1l59.7,12.7c2-21.8,18.2-40.5,47.6-40.5
	c28.3,0,42,14.7,42,32.4c0,8.6-4.6,15.7-18.7,17.7l-61.2,9.1C1588.6,317.4,1555.7,342.3,1555.7,386.8z M1655.4,411.7
	c-21.8,0-32.4-14.2-32.4-28.9c0-19.2,13.7-28.9,30.9-31.4l56.2-8.6v11.1C1710,398,1683.7,411.7,1655.4,411.7z"/>
<path class="st0" d="M1908.9,454.7v-30.4c13.1,21.3,39.5,36.5,73.9,36.5c70.8,0,117.4-56.2,117.4-131.7c0-74-42-130.2-114.9-130.2
	c-36.9,0-64.3,16.2-75.4,33.9V88h-66.3v366.8H1908.9z M2032.9,329.6c0,45.6-27.3,70.9-61.7,70.9c-33.9,0-62.2-25.8-62.2-70.9
	c0-45.6,28.3-70.4,62.2-70.4C2005.5,259.2,2032.9,284,2032.9,329.6z"/>
<path class="st0" d="M2138.3,386.8c0,39,32.4,75,85.5,75c36.9,0,60.7-17.2,73.4-37c0,9.6,1,23.3,2.5,29.9h61.7
	c-1.5-8.6-3-26.3-3-39.5V292.6c0-50.1-29.4-94.7-108.3-94.7c-66.8,0-102.7,43.1-106.8,82.1l59.7,12.7c2-21.8,18.2-40.5,47.6-40.5
	c28.3,0,42,14.7,42,32.4c0,8.6-4.6,15.7-18.7,17.7l-61.2,9.1C2171.2,317.4,2138.3,342.3,2138.3,386.8z M2237.9,411.7
	c-21.8,0-32.4-14.2-32.4-28.9c0-19.2,13.7-28.9,30.9-31.4l56.2-8.6v11.1C2292.6,398,2266.3,411.7,2237.9,411.7z"/>
<path class="st0" d="M2404.9,385.3c3,28.4,28.8,77,103.7,77c65.3,0,96.6-41.5,96.6-82.1c0-36.5-24.8-66.4-73.9-76.5l-35.4-7.6
	c-13.7-2.5-22.8-10.1-22.8-22.3c0-14.2,14.2-24.8,31.9-24.8c28.3,0,39,18.7,41,33.4l56.2-12.7c-3-26.8-26.8-71.9-97.6-71.9
	c-53.6,0-93.1,37-93.1,81.6c0,35,21.8,63.8,69.8,74.5l32.9,7.6c19.2,4.1,26.8,13.2,26.8,24.3c0,13.2-10.6,24.8-32.9,24.8
	c-29.4,0-44-18.2-45.5-38L2404.9,385.3z"/>
<path class="st0" d="M2707.5,301.7c1.5-22.8,20.8-49.1,55.7-49.1c38.4,0,54.6,24.3,55.7,49.1H2707.5z M2825.4,366.6
	c-8.1,22.3-25.3,38-56.7,38c-33.4,0-61.2-23.8-62.7-56.7h178.1c0-1,1-11.1,1-20.8c0-80-46-129.2-122.9-129.2
	c-63.8,0-122.4,51.7-122.4,131.2c0,84.1,60.2,133.2,128.5,133.2c61.2,0,100.7-36,113.3-79L2825.4,366.6z"/>
<linearGradient id="SVGID_1_" gradientUnits="userSpaceOnUse" x1="272.9425" y1="273.7677" x2="490.9551" y2="182.3335" gradientTransform="matrix(1 0 0 -1 0 617.8268)">
	<stop  offset="0" style="stop-color:#249361"/>
	<stop  offset="1" style="stop-color:#3ECF8E"/>
</linearGradient>
<path class="st1" d="M345.5,597.1c-15.5,19.5-47,8.8-47.3-16.1l-5.5-364.8H538c44.4,0,69.2,51.3,41.6,86.1L345.5,597.1z"/>
<linearGradient id="SVGID_00000024696846874397958000000011017074816756198306_" gradientUnits="userSpaceOnUse" x1="283.3886" y1="499.5247" x2="382.8138" y2="312.3629" gradientTransform="matrix(1 0 0 -1 0 617.8268)">
	<stop  offset="0" style="stop-color:#000000"/>
	<stop  offset="1" style="stop-color:#000000;stop-opacity:0"/>
</linearGradient>
<path style="fill:url(#SVGID_00000024696846874397958000000011017074816756198306_);fill-opacity:0.2;" d="M345.5,597.1
	c-15.5,19.5-47,8.8-47.3-16.1l-5.5-364.8H538c44.4,0,69.2,51.3,41.6,86.1L345.5,597.1z"/>
<path class="st3" d="M245.7,10.1c15.5-19.5,47-8.8,47.3,16.1l2.4,364.8H53.2c-44.4,0-69.2-51.3-41.6-86.1L245.7,10.1z"/>
</svg>
