<?xml version="1.0" encoding="utf-8"?>
<!-- Generator: Adobe Illustrator 16.0.3, SVG Export Plug-In . SVG Version: 6.00 Build 0)  -->
<!DOCTYPE svg PUBLIC "-//W3C//DTD SVG 1.1//EN" "http://www.w3.org/Graphics/SVG/1.1/DTD/svg11.dtd">
<svg version="1.1" id="Layer_1" xmlns="http://www.w3.org/2000/svg" xmlns:xlink="http://www.w3.org/1999/xlink" x="0px" y="0px"
	 width="800px" height="201px" viewBox="0 105.5 800 201" enable-background="new 0 105.5 800 201" xml:space="preserve">
<g>
	<path fill="#4A4A55" d="M260.411,260.196c-8.47,0.213-16.807-2.143-23.913-6.757c-6.639-4.378-11.569-10.907-13.962-18.491
		l14.556-5.348c2.017,4.658,5.313,8.649,9.506,11.511c4.256,2.852,9.285,4.329,14.407,4.233c4.924,0.257,9.783-1.214,13.737-4.158
		c3.489-2.929,5.389-7.334,5.124-11.882c0.02-2.089-0.464-4.153-1.411-6.015c-0.824-1.667-1.901-3.195-3.193-4.531
		c-1.635-1.488-3.488-2.715-5.496-3.639c-2.477-1.236-4.531-2.177-6.163-2.822c-1.634-0.642-4.035-1.508-7.203-2.599
		c-3.962-1.385-6.933-2.474-8.912-3.266c-2.682-1.142-5.287-2.457-7.797-3.937c-2.702-1.434-5.159-3.288-7.278-5.494
		c-1.833-2.154-3.313-4.586-4.381-7.205c-4.206-10.239-1.395-22.021,6.98-29.258c5.942-5.248,14.012-7.872,24.21-7.872
		c8.514,0,15.519,1.881,21.016,5.644c5.335,3.547,9.252,8.857,11.065,15.002l-14.258,4.752c-1.433-3.218-3.852-5.896-6.907-7.649
		c-3.695-2.05-7.88-3.052-12.104-2.897c-4.142-0.238-8.245,0.912-11.66,3.268c-2.831,2.193-4.411,5.631-4.233,9.208
		c0.025,2.733,1.213,5.326,3.267,7.13c1.974,1.943,4.29,3.504,6.832,4.604c2.378,0.99,5.993,2.327,10.844,4.01
		c2.969,1.091,5.171,1.908,6.607,2.451s3.541,1.458,6.313,2.747c2.223,0.983,4.359,2.151,6.386,3.491
		c1.816,1.306,3.552,2.719,5.198,4.233c1.791,1.553,3.32,3.383,4.532,5.42c1.153,2.113,2.05,4.356,2.672,6.682
		c0.759,2.732,1.134,5.557,1.116,8.393c0,9.705-3.318,17.304-9.953,22.797C279.32,257.448,270.806,260.196,260.411,260.196z
		 M355.612,258.414l-35.646-103.968h16.637l23.614,72.481c1.306,3.897,2.396,7.864,3.268,11.882
		c0.87-4.018,1.961-7.984,3.269-11.882l23.318-72.481h16.486l-35.499,103.968H355.612z M438.042,258.414V154.446h64.461v14.556
		H453.49v28.516h31.634v14.556H453.49v31.783h52.279v14.556H438.042z M545.127,258.414V154.446h15.448v89.115h50.795v14.853H545.127
		z M669.589,169.298v89.115h-15.448v-89.115h-29.405v-14.852h74.261v14.852H669.589z M730.929,258.414V154.446h64.46v14.556h-49.012
		v28.516h31.634v14.556h-31.634v31.783h52.279v14.556H730.929z"/>
	<g>
		<path fill="#FF3E00" d="M152.076,134.672c-18.126-25.943-53.926-33.633-79.811-17.141l-45.46,28.974
			c-12.417,7.812-20.971,20.493-23.562,34.933C1.075,193.467,2.981,205.876,8.66,216.7c-3.891,5.903-6.545,12.534-7.801,19.491
			c-2.617,14.717,0.806,29.868,9.494,42.032c18.13,25.946,53.93,33.633,79.811,17.142l45.46-28.974
			c12.418-7.811,20.972-20.492,23.562-34.933c2.168-12.029,0.263-24.438-5.413-35.264c3.89-5.902,6.543-12.533,7.798-19.49
			C164.188,161.986,160.766,146.835,152.076,134.672"/>
		<path fill="#FFFFFF" d="M67.824,280.663c-14.653,3.81-30.126-1.926-38.756-14.366c-5.226-7.314-7.284-16.426-5.71-25.277
			c0.264-1.438,0.626-2.857,1.086-4.245l0.856-2.611l2.329,1.711c5.379,3.952,11.393,6.957,17.783,8.885l1.689,0.513l-0.155,1.687
			c-0.207,2.399,0.443,4.793,1.833,6.759c2.597,3.747,7.256,5.477,11.669,4.331c0.988-0.264,1.93-0.678,2.792-1.228l45.46-28.97
			c2.249-1.417,3.799-3.713,4.271-6.329c0.471-2.667-0.149-5.413-1.721-7.619c-2.599-3.748-7.259-5.478-11.674-4.333
			c-0.986,0.264-1.927,0.678-2.789,1.226l-17.348,11.059c-2.853,1.813-5.966,3.181-9.231,4.054
			c-14.653,3.81-30.127-1.926-38.757-14.366c-5.226-7.314-7.284-16.426-5.71-25.277c1.558-8.683,6.702-16.308,14.17-21.004
			l45.457-28.973c2.854-1.817,5.969-3.186,9.237-4.059c14.653-3.81,30.127,1.926,38.757,14.366
			c5.226,7.314,7.284,16.426,5.71,25.277c-0.265,1.438-0.627,2.856-1.086,4.245l-0.856,2.61l-2.328-1.708
			c-5.378-3.954-11.393-6.96-17.784-8.889l-1.689-0.513l0.155-1.687c0.205-2.398-0.444-4.792-1.833-6.759
			c-2.597-3.748-7.256-5.477-11.669-4.331c-0.988,0.264-1.93,0.678-2.792,1.227l-45.461,28.972c-2.25,1.416-3.799,3.712-4.269,6.329
			c-0.474,2.667,0.145,5.414,1.718,7.619c2.599,3.749,7.259,5.479,11.673,4.334c0.988-0.265,1.93-0.679,2.792-1.228l17.345-11.054
			c2.852-1.816,5.964-3.185,9.23-4.057c14.653-3.81,30.127,1.926,38.757,14.366c5.226,7.314,7.285,16.426,5.711,25.276
			c-1.559,8.684-6.703,16.31-14.17,21.008l-45.457,28.969C74.207,278.421,71.092,279.79,67.824,280.663"/>
	</g>
</g>
</svg>
