<?xml version="1.0" encoding="utf-8"?>
<!-- Generator: Adobe Illustrator 27.3.1, SVG Export Plug-In . SVG Version: 6.00 Build 0)  -->
<svg version="1.1" id="Layer_1" xmlns="http://www.w3.org/2000/svg" xmlns:xlink="http://www.w3.org/1999/xlink" x="0px" y="0px"
	 viewBox="0 0 247 30.4" style="enable-background:new 0 0 247 30.4;" xml:space="preserve">
<style type="text/css">
	.st0{fill-rule:evenodd;clip-rule:evenodd;fill:#4CBBEB;}
	.st1{fill-rule:evenodd;clip-rule:evenodd;fill:#FFFFFF;}
</style>
<path class="st0" d="M25.5,0c-6.8,0-11.1,3.4-12.8,10.1c2.6-3.4,5.5-4.7,8.9-3.8c1.9,0.5,3.3,1.9,4.9,3.4c2.5,2.5,5.4,5.4,11.7,5.4
	C45,15.1,49.3,11.7,51,5c-2.6,3.4-5.5,4.6-8.9,3.8c-1.9-0.5-3.3-1.9-4.9-3.4C34.7,2.9,31.8,0,25.5,0z M12.8,15.2
	C6,15.2,1.7,18.6,0,25.4c2.6-3.4,5.5-4.6,8.9-3.8c1.9,0.5,3.3,1.9,4.9,3.4c2.5,2.5,5.4,5.4,11.7,5.4c6.8,0,11.1-3.4,12.8-10.1
	c-2.6,3.4-5.5,4.6-8.9,3.8c-1.9-0.5-3.3-1.9-4.9-3.4C22,18.1,19.1,15.2,12.8,15.2z"/>
<path class="st1" d="M76.5,12.8H72v8.6c0,2.3,1.5,2.2,4.5,2.1V27c-6,0.7-8.3-0.9-8.3-5.6v-8.6h-3.3V9.1h3.3V4.3l3.9-1.1v5.9h4.5
	C76.5,9.1,76.5,12.8,76.5,12.8z M93.5,9.1h3.9V27h-3.9v-2.6c-1.4,1.9-3.5,3-6.3,3c-4.9,0-8.9-4.1-8.9-9.4s4.1-9.4,8.9-9.4
	c2.8,0,4.9,1.1,6.3,3V9.1z M87.8,23.7c3.2,0,5.7-2.4,5.7-5.7s-2.4-5.7-5.7-5.7s-5.7,2.4-5.7,5.7C82.2,21.4,84.6,23.7,87.8,23.7z
	 M103.9,6.4c-1.4,0-2.5-1.1-2.5-2.5s1.1-2.5,2.5-2.5s2.5,1.1,2.5,2.5C106.3,5.3,105.2,6.4,103.9,6.4z M101.9,27V9.1h3.9V27H101.9z
	 M110.3,27V0.9h3.9V27H110.3L110.3,27z M139.3,9.1h4.1L137.8,27H134l-3.7-12l-3.8,12h-3.8L117,9.1h4.1l3.5,12.3l3.8-12.3h3.7
	l3.7,12.3C135.8,21.4,139.3,9.1,139.3,9.1z M148.2,6.4c-1.4,0-2.5-1.1-2.5-2.5s1.1-2.5,2.5-2.5s2.5,1.1,2.5,2.5S149.6,6.4,148.2,6.4
	z M146.3,27V9.1h3.9V27H146.3z M164.1,8.6c4,0,6.9,2.7,6.9,7.4v11h-3.9V16.4c0-2.7-1.6-4.1-4-4.1c-2.6,0-4.6,1.5-4.6,5.1V27h-3.9
	V9.1h3.9v2.3C159.7,9.5,161.7,8.6,164.1,8.6L164.1,8.6z M189.4,2h3.9v25h-3.9v-2.6c-1.4,1.9-3.5,3-6.3,3c-4.9,0-8.9-4.1-8.9-9.4
	s4.1-9.4,8.9-9.4c2.8,0,4.9,1.1,6.3,3V2z M183.7,23.7c3.2,0,5.7-2.4,5.7-5.7s-2.4-5.7-5.7-5.7S178,14.7,178,18
	C178.1,21.4,180.5,23.7,183.7,23.7z M206.3,27.4c-5.4,0-9.5-4.1-9.5-9.4s4.1-9.4,9.5-9.4c3.5,0,6.6,1.8,8,4.6l-3.3,1.9
	c-0.8-1.7-2.5-2.7-4.7-2.7c-3.2,0-5.6,2.4-5.6,5.6s2.4,5.6,5.6,5.6c2.2,0,3.9-1.1,4.8-2.7l3.3,1.9C212.9,25.6,209.8,27.4,206.3,27.4
	L206.3,27.4z M220.8,14c0,3.2,9.7,1.3,9.7,7.9c0,3.6-3.1,5.5-7,5.5c-3.6,0-6.2-1.6-7.3-4.2l3.3-1.9c0.6,1.6,2,2.6,4,2.6
	c1.7,0,3.1-0.6,3.1-2c0-3.2-9.7-1.4-9.7-7.8c0-3.4,2.9-5.5,6.6-5.5c2.9,0,5.4,1.4,6.6,3.7l-3.3,1.8c-0.6-1.4-1.9-2-3.4-2
	C222,12.1,220.8,12.8,220.8,14L220.8,14z M237.3,14c0,3.2,9.7,1.3,9.7,7.9c0,3.6-3.1,5.5-7,5.5c-3.6,0-6.2-1.6-7.3-4.2l3.3-1.9
	c0.6,1.6,2,2.6,4,2.6c1.7,0,3.1-0.6,3.1-2c0-3.2-9.7-1.4-9.7-7.8c0-3.4,2.9-5.5,6.6-5.5c2.9,0,5.4,1.4,6.6,3.7l-3.3,1.8
	c-0.6-1.4-1.9-2-3.4-2C238.5,12.1,237.3,12.8,237.3,14L237.3,14z"/>
</svg>
