<?xml version="1.0" encoding="utf-8"?>
<!-- Generator: Adobe Illustrator 27.3.1, SVG Export Plug-In . SVG Version: 6.00 Build 0)  -->
<svg version="1.1" id="Layer_1" xmlns="http://www.w3.org/2000/svg" xmlns:xlink="http://www.w3.org/1999/xlink" x="0px" y="0px"
	 viewBox="0 0 93.8 70.8" style="enable-background:new 0 0 93.8 70.8;" xml:space="preserve">
<style type="text/css">
	.st0{clip-path:url(#SVGID_00000127046377490871880480000012924082343800722596_);}
	.st1{fill:#5E4B9F;}
	.st2{fill:#FFFFFF;}
	.st3{fill:#48A1D9;}
	.st4{fill:#E5E4E4;}
	.st5{fill:#E5E5E5;}
	.st6{fill:#161D27;}
	.st7{fill:#181D28;}
	.st8{fill:#171D26;}
	.st9{fill:#2990CF;}
</style>
<g id="Group_25404">
	<g>
		<g>
			<defs>
				<rect id="SVGID_1_" x="20.6" width="52.6" height="52.6"/>
			</defs>
			<clipPath id="SVGID_00000089557063496175659840000009732685508584426425_">
				<use xlink:href="#SVGID_1_"  style="overflow:visible;"/>
			</clipPath>
			<g style="clip-path:url(#SVGID_00000089557063496175659840000009732685508584426425_);">
				<g id="Group_8671">
					<path id="Path_32607" class="st1" d="M73.1,27.2c0,0.2,0,0.5,0,0.8l0,0c0,2-0.3,4-1,5.9c-1.1,3.5-2.8,6.7-5.1,9.4
						c-2.2,2.6-4.8,4.7-7.8,6.2c-2.8,1.5-5.8,2.5-9,2.8c-1.6,0.2-3.2,0.2-4.8,0.1c-1.3,0-2.6-0.2-3.9-0.4c-8.8-1.8-16-8-19.2-16.3
						c-0.8-2-1.3-4.2-1.6-6.3c-0.1-1.6-0.1-3.2-0.1-4.8c0.1-3.1,0.8-6.2,2.1-9c1.1-2.5,2.6-4.9,4.4-6.9c1.9-2.2,4.2-4.1,6.8-5.5
						c2.8-1.6,6-2.7,9.2-3.1C43.8,0,44.5,0,45.1,0l0,0c0.3,0,0.6,0,0.9,0h1.6c0.3,0,0.6,0.1,0.9,0l0,0l0,0c0.2,0,0.4,0,0.5,0
						c5.9,0.5,11.5,3,15.7,7.1c4.8,4.5,7.8,10.7,8.2,17.3l0,0v0.1c0,0.3,0,0.6,0,0.8L73.1,27.2L73.1,27.2z"/>
					<path id="Path_32608" class="st2" d="M53.9,13.3c0.3,0.2,0.6,0.5,0.9,0.8h-0.7c0.2,0.3,0.4,0.5,0.6,0.7
						c1.5,1.6,2.4,3.7,2.6,5.9c0.1,0.8,0.3,1.5,0.7,2.2c0.8,1.3,1.4,2.6,1.8,4.1c0.6,1.8,0,3.8-1.5,5c-0.1,0.1-0.1,0.1-0.2,0.2
						c-0.1,0.2-0.2,0.4-0.4,0.5c-1.1,0.8-2.3,1.3-3.6,1.6c1.1-0.2,2.2-0.5,3.3-0.9c0.2-0.1,0.4-0.3,0.7-0.2
						c-0.1,1.6-0.3,3.2-0.6,4.8l-0.6-0.9c0,1.7-0.2,3.4-0.6,5.1h-0.1c-0.4-0.2-0.6-0.1-0.7,0.3c-0.1,0.8-0.2,1.7-0.4,2.5
						c-0.2,1.3-1.5,2.3-2.8,2c-1-0.2-1.7-0.8-2-1.8c-0.2-0.9-0.5-1.8-0.7-2.7c-0.1-0.3-0.1-0.3-0.4-0.3c-1.2,0.4-2.5,0.4-3.8,0
						c-0.3-0.1-0.3,0-0.4,0.2c-0.2,0.9-0.4,1.7-0.7,2.6c-0.3,1.3-1.6,2.2-2.9,1.9c-1-0.2-1.8-1.1-1.9-2.1c-0.2-1-0.3-2-0.5-3
						c0,0,0,0,0-0.1l-0.6,0.4c-0.4-1.7-0.6-3.4-0.6-5.1l-0.6,0.8c-0.3-1.2-0.5-2.5-0.6-3.8c-0.1-0.6,0-0.6,0.5-0.5
						c1.2,0.2,2.4,0.3,3.6,0.2c-1.3,0-2.6-0.2-3.8-0.7c-0.2-0.1-0.4-0.2-0.5-0.4C35,31.8,34,30.5,33.7,29c-0.2-0.9,0-1.8,0.3-2.6
						c0.7-1.5,1.5-2.9,2.5-4.3c0.2-0.3,0.4-0.7,0.5-1.1c0.3-2.5,1.5-4.8,3.3-6.7c0.1-0.1,0.1-0.1,0.2-0.2c-0.2-0.1-0.4,0-0.6-0.1
						c0.3-0.4,0.7-0.7,1.1-0.9c0.2,0,0.3,0.2,0.4,0.4c0.4,0.6,0.9,1.2,1.3,1.8c1,1,2.3,1.6,3.8,1.6c0.6,0,1.2,0.1,1.7,0.1
						c1.4,0,2.8-0.5,3.8-1.6C52.7,14.8,53.3,14.2,53.9,13.3C53.8,13.4,53.9,13.4,53.9,13.3"/>
					<path id="Path_32609" class="st3" d="M53.9,13.3c-0.1,0.4-0.3,0.7-0.5,0.9c-0.5,0.4-0.9,0.9-1.3,1.4c-0.9,0.9-2.2,1.5-3.5,1.5
						c-1,0-2,0-2.9-0.2c-1.5-0.2-2.7-1-3.6-2.3c-0.4-0.5-0.7-1-1.1-1.5c-0.2-0.4-0.2-0.8-0.2-1.2c0-0.2,0.2-0.4,0.3-0.4
						c0.3,0,0.3-0.2,0.4-0.4C41.8,10,42.3,9,43,8.2c0.7-0.9,1.7-1.5,2.8-1.8C46,6.3,46.3,6.3,46.3,6c0.1-0.3,0.4-0.4,0.7-0.4
						c0.6,0,1.2,0.1,1.8,0.1c0.3,0,0.5,0.3,0.6,0.5c0,0.2,0.1,0.3,0.3,0.4c1.9,0.9,3.2,2.6,3.5,4.6c0,0.2,0.1,0.4,0.1,0.6
						s0.1,0.4,0.3,0.4C54,12.6,53.9,13,53.9,13.3"/>
					<path id="Path_32610" class="st4" d="M36.4,32.7c0.8,0.4,1.7,0.7,2.7,0.9c0.7,0.1,1.4,0.2,2.2,0.2c0,0.2-0.1,0.2-0.2,0.2
						c-1.4,0.2-2.8,0.1-4.2-0.2c-0.5-0.1-0.2,0.3-0.3,0.4C36.5,33.7,36.5,33.2,36.4,32.7"/>
					<path id="Path_32611" class="st5" d="M58.1,33.1c-1,0.6-2.1,1-3.2,1.1c-0.3,0.1-0.7,0.1-1,0.1c1.6-0.5,3-1.2,4.3-2.2
						C58.2,32.5,58.2,32.8,58.1,33.1"/>
					<path id="Path_32612" class="st5" d="M37.6,26.2c0.1,0.5,0.4,0.9,0.7,1.3c0.1,0.1,0.3,0.2,0.4,0.4c0.1,0.1,0.2,0.1,0.3,0
						c0.8-0.7,1.9-0.9,2.8-0.5c0.9,0.2,1.7,0.6,2.5,1.2c0.1,0.1,0.2,0.2,0.3,0.3c0,0.1,0,0.3,0,0.3c-0.1,0.1-0.2,0-0.3-0.1
						c-1-0.7-2.1-1.1-3.3-1.4c-0.6-0.1-1.2,0-1.7,0.3c-0.2,0.1-0.1,0.2,0,0.2c0.8,0.5,1.7,0.8,2.6,0.9c0.5,0.1,1,0,1.5,0.1
						c0,0.2-0.2,0.2-0.3,0.4c1.4,0.1,2.7,0,4.1-0.4c-0.8-0.2-1.5-0.5-2.2-0.8c-0.1,0-0.3-0.1-0.3-0.2c0-0.1,0-0.2,0-0.3s0.2,0,0.3,0
						c1,0.4,2,0.7,3.1,0.9c0.6,0.2,1.2,0.2,1.8,0.3c0.4,0,0.4,0,0.2-0.4c0.2-0.1,0.4,0,0.5,0c0.5,0,1.1-0.1,1.6-0.2
						c0.8,0,1.5-0.2,2.2-0.5c0.8-0.3,1.4-1,1.8-1.8c0-0.1,0.1-0.1,0.1-0.1c-0.2,1.1-0.9,2.1-1.9,2.6c-0.3,0.1-0.2,0.2-0.1,0.4
						c0.5,0.4,0.8,0.9,0.9,1.5c-0.2-0.3-0.4-0.6-0.6-0.8c-0.7-0.7-1.6-0.9-2.5-0.7c-1,0.2-2.1,0.5-3,1c-0.1,0-0.1,0.1-0.2,0
						c-0.1-0.1-0.1-0.2-0.1-0.3c0-0.4,0-0.5-0.4-0.4c-1.3,0.3-2.6,0.5-4,0.6c-1.9,0.1-3.8-0.3-5.5-1.3c-0.9-0.5-1.5-1.5-1.6-2.5
						C37.5,26.3,37.5,26.2,37.6,26.2"/>
					<path id="Path_32613" class="st6" d="M47.5,23.7c-2,0-3.9-0.6-5.6-1.7c-0.1,0-0.1-0.1-0.2-0.1c-0.2-0.1-0.2-0.3-0.1-0.5
						c0.1-0.2,0.3-0.2,0.5-0.1c0,0,0,0,0.1,0c0.5,0.3,1,0.7,1.6,0.9c2.9,1.3,6.2,1,8.9-0.7c0.1,0,0.2-0.1,0.2-0.2
						c0.2-0.2,0.4-0.2,0.6,0.1s0,0.4-0.2,0.5C51.5,23.1,49.6,23.7,47.5,23.7"/>
					<path id="Path_32614" class="st7" d="M52.8,19.1c0,0.4-0.3,0.7-0.7,0.7s-0.7-0.3-0.7-0.7s0.3-0.7,0.7-0.7
						C52.4,18.4,52.8,18.7,52.8,19.1"/>
					<path id="Path_32615" class="st8" d="M42.5,19.8c-0.4,0-0.7-0.3-0.7-0.7s0.3-0.7,0.7-0.7s0.7,0.3,0.7,0.7S42.9,19.8,42.5,19.8
						L42.5,19.8"/>
					<path id="Path_32616" class="st2" d="M44.6,13.2c-0.1-0.8,0.2-1.6,0.7-2.1c1-1.1,2.8-1.2,3.9-0.2c0.7,0.7,1,1.6,0.8,2.6
						c0,0.1,0,0.2-0.1,0.3c0,0.4-0.2,0.8-0.5,1.1c-1.1,1.2-3,1.2-4.2,0l-0.1-0.1C44.8,14.4,44.6,13.8,44.6,13.2"/>
					<path id="Path_32617" class="st9" d="M44.6,13.2c0.2,1.5,1.6,2.6,3.1,2.4c1-0.1,1.9-0.8,2.2-1.8c0.1,0.2,0,0.4-0.1,0.6
						c-0.4,1.2-1.7,2-3,1.8c-1.2-0.2-2.1-1.1-2.2-2.3C44.6,13.7,44.4,13.4,44.6,13.2"/>
				</g>
			</g>
		</g>
	</g>
</g>
<g>
	<path class="st2" d="M3.8,55.4H0v-2.6h10.6v2.6H6.8v11.1H3.8V55.4z"/>
	<path class="st2" d="M9.8,61.3c0-3.4,2.4-5.5,4.9-5.5c3,0,4.4,2.1,4.4,5c0,0.6-0.1,1.1-0.1,1.4h-6.2c0.3,1.5,1.3,2.2,2.7,2.2
		c0.8,0,1.5-0.2,2.2-0.7l1,1.9c-1.1,0.7-2.4,1.2-3.7,1.2C12.1,66.7,9.8,64.7,9.8,61.3z M16.5,60.1c0-1.1-0.5-2-1.7-2
		c-1,0-1.8,0.7-2,2H16.5z"/>
	<path class="st2" d="M20.7,56.1h2.5l0.2,1.8h0.1c0.7-1.4,1.9-2.1,3-2.1c0.6,0,0.9,0.1,1.3,0.2l-0.5,2.7c-0.4-0.1-0.7-0.2-1.1-0.2
		c-0.8,0-1.7,0.5-2.3,1.9v6h-3.1V56.1z"/>
	<path class="st2" d="M28.5,56.1H31l0.2,1.8h0.1c0.7-1.4,1.9-2.1,3-2.1c0.6,0,0.9,0.1,1.3,0.2L35,58.7c-0.4-0.1-0.7-0.2-1.1-0.2
		c-0.8,0-1.7,0.5-2.3,1.9v6h-3.1V56.1z"/>
	<path class="st2" d="M35.3,63.6c0-2.2,1.7-3.4,5.9-3.8c-0.1-0.9-0.5-1.5-1.6-1.5c-0.9,0-1.7,0.4-2.7,0.9l-1.1-2
		c1.3-0.8,2.8-1.4,4.4-1.4c2.7,0,4.1,1.5,4.1,4.7v5.9h-2.5l-0.2-1.1h-0.1c-0.9,0.8-1.9,1.3-3,1.3C36.5,66.7,35.3,65.3,35.3,63.6z
		 M41.1,63.4v-1.8c-2.2,0.3-2.9,0.9-2.9,1.7c0,0.7,0.4,1,1.2,1C40.1,64.3,40.5,64,41.1,63.4z"/>
	<path class="st2" d="M45.6,68.2c0-0.9,0.5-1.6,1.5-2.1v-0.1c-0.5-0.4-1-0.9-1-1.8c0-0.7,0.5-1.5,1.2-1.9v-0.1
		c-0.7-0.5-1.4-1.5-1.4-2.7c0-2.5,2.1-3.8,4.3-3.8c0.6,0,1.1,0.1,1.6,0.2h3.8v2.2h-1.7c0.2,0.3,0.4,0.8,0.4,1.4
		c0,2.4-1.8,3.5-4.1,3.5c-0.4,0-0.8-0.1-1.3-0.2c-0.3,0.2-0.4,0.4-0.4,0.8c0,0.5,0.4,0.7,1.6,0.7h1.7c2.5,0,4,0.8,4,2.6
		c0,2.1-2.2,3.7-5.8,3.7C47.5,70.9,45.6,70.1,45.6,68.2z M52.8,67.7c0-0.7-0.6-0.8-1.6-0.8h-1.1c-0.7,0-1.1,0-1.5-0.1
		c-0.4,0.3-0.6,0.7-0.6,1c0,0.8,0.9,1.2,2.3,1.2C51.8,68.9,52.8,68.4,52.8,67.7z M51.6,59.6c0-1.1-0.6-1.7-1.4-1.7s-1.4,0.6-1.4,1.7
		c0,1.1,0.6,1.7,1.4,1.7C51,61.3,51.6,60.7,51.6,59.6z"/>
	<path class="st2" d="M56.9,56.1h2.5l0.2,1.8h0.1c0.7-1.4,1.9-2.1,3-2.1c0.6,0,0.9,0.1,1.3,0.2l-0.5,2.7c-0.4-0.1-0.7-0.2-1.1-0.2
		c-0.8,0-1.7,0.5-2.3,1.9v6h-3.1L56.9,56.1L56.9,56.1z"/>
	<path class="st2" d="M64.6,62.5v-6.4h3.1v6.1c0,1.5,0.4,2,1.3,2c0.8,0,1.3-0.3,1.9-1.1v-6.9h3.1v10.4h-2.5L71.2,65h-0.1
		c-0.9,1-1.9,1.7-3.3,1.7C65.6,66.7,64.6,65.1,64.6,62.5z"/>
	<path class="st2" d="M76.1,56.1h2.5l0.2,1.3h0.1c0.9-0.8,1.9-1.6,3.3-1.6c2.3,0,3.2,1.6,3.2,4.2v6.4h-3.1v-6.1c0-1.5-0.4-2-1.3-2
		c-0.8,0-1.3,0.4-1.9,1v7h-3.1L76.1,56.1L76.1,56.1z"/>
	<path class="st2" d="M88,62.7v-4.2h-1.4v-2.3l1.6-0.1l0.4-2.7H91v2.7h2.5v2.4H91v4.2c0,1.2,0.5,1.6,1.3,1.6c0.3,0,0.7-0.1,1-0.2
		l0.5,2.2c-0.5,0.2-1.3,0.4-2.3,0.4C89,66.7,88,65.1,88,62.7z"/>
</g>
</svg>
