<?xml version="1.0" encoding="utf-8"?>
<!-- Generator: Adobe Illustrator 27.3.1, SVG Export Plug-In . SVG Version: 6.00 Build 0)  -->
<svg version="1.1" id="Layer_1" xmlns="http://www.w3.org/2000/svg" xmlns:xlink="http://www.w3.org/1999/xlink" x="0px" y="0px"
	 viewBox="0 0 316.1 62.9" style="enable-background:new 0 0 316.1 62.9;" xml:space="preserve">
<style type="text/css">
	.st0{fill:#FFF;}
</style>
<g>
	<path class="st0" d="M13.9,10.2H1.3V1.6h35.5v8.7H24.2v37.1H13.9V10.2z"/>
	<path class="st0" d="M34,29.9c0-11.3,8.1-18.3,16.4-18.3c9.9,0,14.8,7.2,14.8,16.7c0,1.9-0.2,3.7-0.4,4.6H44c0.9,5,4.4,7.4,9,7.4
		c2.6,0,5-0.8,7.5-2.3l3.4,6.2c-3.6,2.5-8.2,3.9-12.3,3.9C41.7,48.1,34,41.4,34,29.9z M56.4,26.1c0-3.8-1.7-6.6-5.8-6.6
		c-3.3,0-6.1,2.2-6.8,6.6H56.4z"/>
	<path class="st0" d="M70.6,12.5H79l0.7,6.1H80c2.5-4.6,6.3-6.9,9.9-6.9c2,0,3.1,0.3,4.2,0.7l-1.7,8.9c-1.2-0.3-2.3-0.6-3.8-0.6
		c-2.6,0-5.8,1.7-7.7,6.4v20.2H70.6V12.5z"/>
	<path class="st0" d="M96.8,12.5h8.4l0.7,6.1h0.3c2.5-4.6,6.3-6.9,9.9-6.9c2,0,3.1,0.3,4.2,0.7l-1.7,8.9c-1.2-0.3-2.3-0.6-3.8-0.6
		c-2.6,0-5.8,1.7-7.7,6.4v20.2H96.8V12.5z"/>
	<path class="st0" d="M119.4,37.6c0-7.3,5.8-11.3,19.6-12.8c-0.2-3-1.7-5-5.5-5c-2.9,0-5.8,1.2-9.2,3.1l-3.7-6.8
		c4.4-2.7,9.4-4.6,14.9-4.6c8.9,0,13.8,5.1,13.8,15.8v19.9h-8.4l-0.7-3.6h-0.3c-2.9,2.6-6.2,4.4-10.1,4.4
		C123.4,48.1,119.4,43.5,119.4,37.6z M139,37.2v-6.1c-7.3,1-9.7,3.1-9.7,5.7c0,2.2,1.5,3.3,4,3.3C135.6,40.2,137.1,39,139,37.2z"/>
	<path class="st0" d="M154,53.3c0-2.9,1.7-5.2,4.9-7V46c-1.8-1.2-3.2-3-3.2-5.9c0-2.5,1.7-5,3.9-6.5v-0.3c-2.5-1.7-4.7-5-4.7-9
		c0-8.4,6.9-12.6,14.4-12.6c1.9,0,3.8,0.3,5.4,0.8h12.7V20h-5.6c0.7,1,1.2,2.8,1.2,4.6c0,8-6.1,11.7-13.7,11.7
		c-1.3,0-2.7-0.2-4.2-0.7c-0.9,0.7-1.2,1.4-1.2,2.6c0,1.7,1.4,2.5,5.2,2.5h5.6c8.5,0,13.3,2.6,13.3,8.8c0,7.2-7.5,12.5-19.5,12.5
		C160.5,62.1,154,59.5,154,53.3z M178.2,51.4c0-2.2-1.9-2.7-5.3-2.7h-3.6c-2.4,0-3.7-0.1-4.9-0.4c-1.3,1.1-1.9,2.2-1.9,3.4
		c0,2.6,3.1,4,7.7,4C174.9,55.6,178.2,53.8,178.2,51.4z M174.2,24.2c0-3.7-2-5.7-4.8-5.7s-4.8,1.9-4.8,5.7c0,3.8,2,5.8,4.8,5.8
		C172.1,30,174.2,28.1,174.2,24.2z"/>
	<path class="st0" d="M191.9,12.5h8.4l0.7,6.1h0.3c2.5-4.6,6.3-6.9,9.9-6.9c2,0,3.1,0.3,4.2,0.7l-1.7,8.9c-1.2-0.3-2.3-0.6-3.8-0.6
		c-2.6,0-5.8,1.7-7.7,6.4v20.2h-10.3V12.5z"/>
	<path class="st0" d="M217.7,34.1V12.5H228v20.3c0,5,1.3,6.6,4.3,6.6c2.6,0,4.2-1.1,6.2-3.8v-23h10.3v34.8h-8.4l-0.7-4.8h-0.3
		c-2.9,3.5-6.2,5.7-10.9,5.7C221,48.1,217.7,42.8,217.7,34.1z"/>
	<path class="st0" d="M256.2,12.5h8.4l0.7,4.4h0.3c2.9-2.8,6.4-5.2,11.2-5.2c7.6,0,10.8,5.3,10.8,14v21.6h-10.3V27
		c0-5-1.3-6.6-4.3-6.6c-2.6,0-4.2,1.2-6.4,3.4v23.5h-10.3V12.5z"/>
	<path class="st0" d="M295.9,34.6V20.6h-4.8v-7.7l5.3-0.4l1.2-9.2h8.5v9.2h8.3v8.1h-8.3v13.9c0,3.9,1.8,5.5,4.5,5.5
		c1.1,0,2.4-0.3,3.3-0.7l1.6,7.5c-1.8,0.6-4.4,1.3-7.7,1.3C299.3,48.1,295.9,42.7,295.9,34.6z"/>
</g>
</svg>
