<?xml version="1.0" encoding="utf-8"?>
<!-- Generator: Adobe Illustrator 16.0.3, SVG Export Plug-In . SVG Version: 6.00 Build 0)  -->
<!DOCTYPE svg PUBLIC "-//W3C//DTD SVG 1.1//EN" "http://www.w3.org/Graphics/SVG/1.1/DTD/svg11.dtd">
<svg version="1.1" id="Layer_1" xmlns="http://www.w3.org/2000/svg" xmlns:xlink="http://www.w3.org/1999/xlink" x="0px" y="0px"
	 width="99.998px" height="15.983px" viewBox="10 21.993 99.998 15.983" enable-background="new 10 21.993 99.998 15.983"
	 xml:space="preserve">
<path fill="#050505" d="M22.705,22.003h-2.452V34.9h2.452v-6.5c0.455-0.5,1.028-1.014,1.742-1.014c1.06,0,1,1.178,1,1.924v5.6H27.9
	v-6.578c0-2.274-1.424-2.898-2.438-2.898c-1.028,0.057-2.005,0.466-2.766,1.16L22.705,22.003z M33.005,25.415
	c-2.73,0-4.094,2.37-4.094,4.836s1.365,4.84,4.094,4.84s4.094-2.388,4.094-4.84S35.734,25.415,33.005,25.415 M33.005,33.285
	c-1.328,0-1.56-1.874-1.56-3.034s0.232-3.03,1.56-3.03s1.57,1.87,1.57,3.03s-0.232,3.034-1.556,3.034 M45.799,25.615h-2.452v6.5
	c-0.455,0.496-1.028,1-1.742,1c-1.06,0-1-1.174-1-1.92v-5.582h-2.452v6.572c0,2.274,1.424,2.902,2.438,2.902
	c1.025-0.051,2.002-0.451,2.766-1.137v0.96H45.8L45.799,25.615z M54.679,25.3c-0.641,0.006-1.249,0.282-1.674,0.76
	c-0.686-0.416-1.472-0.639-2.274-0.646c-2.002,0-3.744,1.192-3.744,3.248c0.011,0.973,0.426,1.897,1.146,2.552
	c-0.7,0.455-1.2,0.942-1.2,1.851c0.03,0.49,0.305,0.934,0.732,1.178c-0.564,0.332-1.014,0.695-1.014,1.4
	c0,1.205,1.096,2.334,4.294,2.334c3.676,0,4.604-1.457,4.604-2.834c0-2.221-2.406-2.274-4.276-2.274h-0.4
	c-0.996,0-1.76-0.022-1.76-0.455c0.027-0.347,0.33-0.606,0.677-0.58c0.006,0.001,0.013,0.001,0.02,0.002l0.9,0.067
	c2.006,0,3.73-1.195,3.73-3.247c-0.045-0.556-0.216-1.094-0.5-1.574c0.2-0.124,0.429-0.193,0.664-0.2
	c0.27,0.017,0.534,0.085,0.778,0.2v-1.738c-0.23-0.045-0.465-0.066-0.7-0.064 M50.719,30.283c-0.942,0-1.365-0.696-1.365-1.542
	c0-0.846,0.318-1.738,1.365-1.738c0.9,0,1.328,0.7,1.328,1.556S51.747,30.283,50.719,30.283 M50.969,36.383
	c-0.582,0-2.32-0.05-2.32-0.9c0-0.251,0.151-0.479,0.382-0.578l2.73,0.183c1.46,0.082,1.788,0.032,1.788,0.515
	c0,0.739-2.152,0.791-2.566,0.791 M58.9,21.993h-2.45V34.9h2.45v-6.5c0.455-0.5,1.028-1.014,1.743-1.014c1.06,0,1,1.178,1,1.924v5.6
	h2.451v-6.578c0-2.274-1.424-2.898-2.434-2.898c-1.029,0.056-2.008,0.465-2.77,1.16L58.9,21.993z M68.561,23.285h-2.447v2.32h-1.146
	v2.038h1.146v4.55c0,2.02,1.256,2.884,2.779,2.884c0.535-0.02,1.065-0.114,1.574-0.282v-1.87c-0.283,0.214-0.623,0.336-0.979,0.351
	c-0.791,0-0.899-0.455-0.899-0.9v-4.722h1.906v-2.038H68.6L68.561,23.285z M86.718,25.473c-2.038,0-3.661,1.406-3.661,4.836
	s1.623,4.835,3.661,4.835s3.64-1.405,3.64-4.835S88.734,25.473,86.718,25.473 M86.718,34.053c-1.987,0-2.37-2.188-2.37-3.744
	s0.383-3.744,2.37-3.744c1.988,0,2.365,2.188,2.365,3.744S88.705,34.053,86.718,34.053 M95.744,25.605h-0.496
	c-1.365,0-2.02,1-2.534,2.102h-0.032v-1.952H91.4v9.144h1.291v-5.205c0.455-1.246,1.274-2.934,2.775-2.934
	c0.096-0.007,0.191-0.007,0.287,0L95.744,25.605z"/>
<path fill="#050505" d="M106.76,25.483c-1.506,0-2.798,0.96-2.798,2.534c0,3.28,4.817,2.184,4.817,4.5
	c0,1.041-0.842,1.556-1.788,1.556c-1.015,0.022-1.945-0.556-2.375-1.474l-1.028,0.646c0.688,1.228,2.005,1.97,3.412,1.92
	c1.725,0,2.998-1.092,2.998-2.88c0-3.084-4.822-2.106-4.822-4.344c0-0.9,0.797-1.365,1.643-1.365c0.865-0.01,1.666,0.454,2.088,1.21
	l0.9-0.714c-0.669-1.026-1.824-1.628-3.049-1.588 M10,24.2v-2.188h9.275V24.2h-3.343v10.7h-2.584V24.2H10z"/>
<path fill="#050505" d="M70.797,22.003h1.292l2.12,10.403l2.352-10.403h1.278l2.234,10.403l2.27-10.403h1.278L80.668,34.9h-1.324
	l-2.188-10.535L74.823,34.9H73.5L70.797,22.003z M96.8,22.003h1.292v7.983l3.395-4.24h1.441l-2.516,3.13L103.3,34.9h-1.392
	l-2.334-4.967l-1.492,1.838V34.9H96.8V22.003z"/>
</svg>
