<?xml version="1.0" encoding="utf-8"?>
<!-- Generator: Adobe Illustrator 16.0.3, SVG Export Plug-In . SVG Version: 6.00 Build 0)  -->
<!DOCTYPE svg PUBLIC "-//W3C//DTD SVG 1.1//EN" "http://www.w3.org/Graphics/SVG/1.1/DTD/svg11.dtd">
<svg version="1.1" id="Layer_1" xmlns="http://www.w3.org/2000/svg" xmlns:xlink="http://www.w3.org/1999/xlink" x="0px" y="0px"
	 width="81.72px" height="44.389px" viewBox="19.721 5.545 81.72 44.389" enable-background="new 19.721 5.545 81.72 44.389"
	 xml:space="preserve">
<g transform="matrix(1.30278 0 0 1.30278 39.841362 -.517003)">
	<path fill="#D1A41B" d="M5.524,19.58c0.385,0.473,0.79,0.929,1.215,1.366c-1.296,0.392-2.15,1.115-2.682,1.758
		c-0.844,1.014-1.286,2.35-1.185,3.495H0.643C1.095,25.225,2.883,22.412,5.524,19.58L5.524,19.58z M31.388,26.802h-2.712
		c-6.228-3.254-11.701-5.545-17.507-6.047c0.01-0.804,0.16-1.728,0.432-2.742l-0.532-0.14c-0.28,1.045-0.432,2-0.452,2.843
		c-0.608-0.04-1.218-0.06-1.828-0.06c-0.478,0-0.956,0.043-1.426,0.131c-0.514-0.512-1-1.052-1.456-1.617
		c2.672-2.782,7.1-5.303,10.928-6.258c1.085,3.596,3.405,6.057,6.217,7.714c0.208-0.118,0.412-0.242,0.613-0.372l4.911,5.293
		l0.201-0.02c1.346-0.121,2.1,0.612,2.3,0.843c0.16,0.16,0.24,0.301,0.3,0.433L31.388,26.802z"/>
	<path fill="#FFDC76" d="M28.998,9.104c0.1,4.882-2.4,8.77-5.875,10.768c-5.917-2.953-7.03-10.426-6.028-14.434
		c0.28,1.537,0.794,2.5,1.898,2.963c2.4-0.683,5.715-0.743,8.146-0.07c1.014-0.743,1.406-1.868,1.627-2.853
		c0.26,1.145,0.22,3.626,0.23,3.626H28.998z"/>
	<g>
		<path fill="#010202" d="M14.102,13.725l0.904,2.682l-2.742-1.848L14.102,13.725z M11.46,14.9l0.964,1.667l-2.04-1.035L11.46,14.9z
			 M9.26,16.206l0.462,1.667l-1.406-0.964L9.26,16.206z M24.216,20.686l-0.874,1.336l1.537-0.703L24.216,20.686z M25.582,22.223
			l-1.396,1.075l1.94-0.502L25.582,22.223z M22.167,7.708l1.036,2.27l0.672-2.3L22.167,7.708z M16.915,11.013l1.637,0.874
			l-1.477,0.1L16.915,11.013z M17.317,12.791l1.004,0.402l-0.844,0.23L17.317,12.791z M29.029,11.656l-1.346,0.562l1.105,0.17
			L29.029,11.656z M28.487,13.293l-1.034,0.3l0.834,0.3L28.487,13.293z M16.372,15.793h3.235v0.402h-3.235V15.793z M16.372,14.839
			h3.235v0.402h-3.235V14.839z M26.236,15.793h3.234v0.402h-3.234V15.793z M26.236,14.839h3.234v0.402h-3.234V14.839z
			 M25.091,12.469h-5.263v-0.362h1.637c0.2-0.864,0.24-1.687,0-2.1c-0.1-0.18-0.25-0.26-0.452-0.26
			c-0.934,0-1.326,0.994-1.336,1.035l-0.33-0.13c0.019-0.05,0.492-1.266,1.676-1.266c0.318-0.009,0.613,0.162,0.763,0.442
			c0.3,0.512,0.261,1.386,0.06,2.3h2.873c0.382-1.125,1.175-1.647,2.5-1.647v0.362c-1.445,0-1.848,0.613-2.139,1.296h1.567v0.362
			L25.091,12.469z"/>
		<path fill="#010202" d="M25.332,14.257c-0.423-0.633-0.562-1.165-0.382-1.778h-0.362c-0.13,0.402-0.08,1.014,0.241,1.547h-3.657
			c0.244-0.495,0.439-1.014,0.583-1.547h-0.372c-0.171,0.593-0.403,1.175-0.663,1.637l-0.08,0.15l2.05,1.286l-1.155,0.763l0.2,0.3
			l1.286-0.854l1.396,0.904l0.2-0.3l-1.286-0.794c0.666-0.445,1.335-0.884,2.009-1.316L25.332,14.257z M23.012,15.342l-1.516-0.954
			h2.963L23.012,15.342z M29.6,8.672c0-0.623-0.201-3.264-0.552-3.988c-0.964,0.372-2.732,1.557-3.134,2.782
			c-1.977-0.277-3.986-0.253-5.956,0.07c-0.3-1.316-1.898-2.32-3.094-2.883c-0.502,0.854-0.723,2.822-0.673,4.22h-0.01
			c0.22,5.866,3.103,9.522,6.869,11.742C26.928,18.415,29.701,14.085,29.6,8.672L29.6,8.672z M26.376,7.537
			c0.01,0,0.03,0.01,0.04,0.01C26.396,7.547,26.386,7.537,26.376,7.537z M26.136,7.497c0.03,0.01,0.07,0.01,0.1,0.02
			C26.196,7.507,26.166,7.497,26.136,7.497z M29,9.094c0.1,4.882-2.4,8.77-5.876,10.768c-5.916-2.953-7.04-10.426-6.027-14.434
			c0.28,1.537,0.794,2.5,1.898,2.963c2.4-0.683,5.715-0.743,8.146-0.07c1.014-0.743,1.405-1.868,1.627-2.853
			c0.259,1.145,0.22,3.626,0.229,3.626H29z"/>
		<path fill="#010202" d="M31.519,26c-0.612-0.684-1.798-1.004-2.792-0.974c-0.703-0.844-4.8-5.153-4.8-5.153l-0.28,0.362
			l4.953,5.315l0.199-0.02c1.346-0.1,2.1,0.612,2.3,0.843c0.121,0.125,0.217,0.271,0.282,0.433h-2.712
			c-6.228-3.254-11.701-5.545-17.507-6.047c0.01-0.814,0.16-1.728,0.432-2.742l-0.532-0.14c-0.28,1.045-0.432,2-0.452,2.843
			c-0.608-0.04-1.218-0.06-1.828-0.06c-0.478,0-0.956,0.043-1.426,0.131c-0.514-0.513-1.001-1.053-1.457-1.618
			c2.702-2.812,7.152-5.354,11.02-6.288l-0.12-0.542c-4.158,1.004-8.708,3.737-11.25,6.368c-1.175-1.587-1.647-2.893-1.778-3.877
			c-0.17-1.246,0.12-2.4,0.864-3.315c1.155-1.436,2.802-1.537,4.5-1.256c-0.03,0.27,0,0.522,0.1,0.683
			c0.442,0.663,2.853,0.894,4.28,0.25c-1.055-1.487-3.204-2.2-3.797-1.918c-0.2,0.1-0.342,0.27-0.442,0.482
			C8.694,9.66,8.112,9.58,7.69,9.58c-1.487,0.01-2.632,0.532-3.485,1.587c-0.834,1.045-1.175,2.33-0.974,3.737
			c0.2,1.326,0.844,2.742,1.95,4.2l-0.532,0.583C1.96,22.694,0,25.92,0,26.46v0.28h3.546l-0.06-0.33
			c-0.2-1.055,0.2-2.38,1.014-3.365c0.512-0.623,1.366-1.326,2.702-1.657c1.185,1.165,2.702,2.4,4.4,3.586h2.632v-0.28
			c0-0.3-0.15-0.583-0.432-0.774c-0.412-0.27-1.055-0.3-1.647-0.1c-0.562-0.623-0.874-1.466-0.944-2.5
			c5.715,0.502,11.2,2.812,17.357,6.037h3.396l0.04-0.22c0.05-0.3-0.12-0.743-0.471-1.135L31.519,26z M4.06,22.685
			c-0.834,1.014-1.286,2.35-1.185,3.495H0.643c0.452-0.974,2.24-3.777,4.882-6.62c0.362,0.452,0.773,0.904,1.215,1.366
			c-1.048,0.308-1.982,0.919-2.682,1.758L4.06,22.685z"/>
	</g>
</g>
<path d="M21.757,44.68l-0.886,2.705h-1.15l2.92-8.617h1.34l2.945,8.617H25.73l-0.9-2.705H21.757z M24.582,43.818l-0.838-2.5
	c-0.192-0.551-0.3-1.077-0.455-1.58h-0.024l-0.43,1.556l-0.838,2.5h2.586L24.582,43.818z M28.102,43.243l-0.048-2h1.005l0.048,1.053
	h0.024c0.455-0.741,1.197-1.196,2.202-1.196c1.484,0,2.6,1.27,2.6,3.135c0,2.227-1.365,3.328-2.8,3.328
	c-0.814,0-1.532-0.359-1.915-0.981h-0.024v3.353h-1.1L28.102,43.243z M29.227,44.871c0,0.168,0.024,0.3,0.048,0.455
	c0.215,0.8,0.886,1.316,1.676,1.316c1.197,0,1.867-0.981,1.867-2.394c0-1.245-0.646-2.298-1.843-2.298c-0.766,0-1.484,0.55-1.7,1.4
	c-0.047,0.146-0.071,0.3-0.072,0.455v1.076L29.227,44.871z M38.803,47.409l-0.096-0.8h-0.048c-0.335,0.479-1.005,0.899-1.9,0.899
	c-1.245,0-1.9-0.886-1.9-1.772c0-1.483,1.34-2.321,3.7-2.297v-0.121c0-0.502-0.144-1.436-1.412-1.436
	c-0.575,0-1.173,0.168-1.604,0.455l-0.263-0.742c0.503-0.335,1.245-0.55,2.035-0.55c1.9,0,2.346,1.293,2.346,2.538v2.322
	c0,0.527,0.024,1.053,0.096,1.484L38.803,47.409z M38.635,44.249c-1.22-0.024-2.6,0.192-2.6,1.399c0,0.719,0.48,1.078,1.053,1.078
	c0.814,0,1.317-0.504,1.484-1.031c0.047-0.113,0.071-0.235,0.072-0.358L38.635,44.249z M45.961,47.169
	c-0.287,0.144-0.958,0.36-1.772,0.36c-1.867,0-3.088-1.271-3.088-3.16c0-1.915,1.293-3.28,3.328-3.28c0.67,0,1.245,0.168,1.556,0.3
	l-0.263,0.862c-0.263-0.144-0.694-0.287-1.293-0.287c-1.412,0-2.18,1.054-2.18,2.347c0,1.436,0.9,2.321,2.155,2.321
	c0.646,0,1.053-0.168,1.4-0.3L45.961,47.169z M47.278,38.335h1.125v3.854h0.024c0.194-0.336,0.476-0.611,0.814-0.801
	c0.349-0.203,0.745-0.311,1.149-0.311c0.838,0,2.155,0.503,2.155,2.656v3.688H51.42V43.9c0-1.006-0.36-1.844-1.436-1.844
	c-0.718,0-1.293,0.504-1.508,1.125c-0.072,0.145-0.072,0.301-0.072,0.527v3.734H47.28L47.278,38.335z M54.978,44.512
	c0.024,1.532,1.005,2.155,2.13,2.155c0.59,0.015,1.176-0.091,1.724-0.31l0.192,0.813c-0.407,0.168-1.077,0.384-2.06,0.384
	c-1.915,0-3.04-1.246-3.04-3.113c0-1.866,1.1-3.327,2.897-3.327c2,0,2.562,1.771,2.562,2.92c0,0.239-0.024,0.407-0.048,0.526h-4.357
	V44.512z M58.282,43.698c0.024-0.718-0.287-1.82-1.556-1.82c-1.15,0-1.628,1.054-1.724,1.82H58.282z M65.198,39.898h-2.601v-0.959
	h6.368v0.959h-2.633v7.66h-1.125L65.198,39.898z M74.583,44.423c0,2.298-1.58,3.28-3.088,3.28c-1.677,0-2.97-1.221-2.97-3.184
	c0-2.061,1.365-3.28,3.063-3.28C73.361,41.239,74.582,42.532,74.583,44.423L74.583,44.423z M69.675,44.495
	c0,1.364,0.8,2.37,1.867,2.37s1.867-1.006,1.867-2.395c0-1.053-0.527-2.369-1.843-2.369c-1.317-0.024-1.9,1.196-1.9,2.394H69.675z
	 M75.995,43.059l-0.048-1.676h0.982l0.047,1.006h0.049c0.334-0.601,0.899-1.15,1.939-1.15c0.793-0.013,1.501,0.492,1.748,1.244
	h0.023c0.193-0.334,0.431-0.621,0.695-0.813c0.359-0.287,0.799-0.43,1.364-0.43c0.813,0,2.035,0.526,2.035,2.68v3.64H83.73v-3.494
	c0-1.197-0.43-1.916-1.34-1.916c-0.646,0-1.149,0.48-1.34,1.031c-0.059,0.177-0.092,0.362-0.096,0.549v3.83h-1.1v-3.699
	c0-0.982-0.431-1.7-1.293-1.7c-0.694,0-1.221,0.55-1.4,1.125c-0.072,0.168-0.096,0.36-0.096,0.55v3.734H76L75.995,43.059z
	 M91.053,47.344c-0.287,0.145-0.957,0.36-1.771,0.36c-1.867,0-3.088-1.271-3.088-3.16c0-1.915,1.293-3.28,3.328-3.28
	c0.67,0,1.244,0.168,1.556,0.301l-0.263,0.861c-0.264-0.144-0.694-0.287-1.293-0.287c-1.412,0-2.181,1.053-2.181,2.346
	c0,1.437,0.9,2.322,2.155,2.322c0.646,0,1.053-0.168,1.4-0.3L91.053,47.344z M95.793,47.559l-0.096-0.8h-0.049
	c-0.334,0.48-1.004,0.9-1.899,0.9c-1.245,0-1.899-0.886-1.899-1.772c0-1.484,1.34-2.322,3.699-2.298v-0.12
	c0-0.503-0.145-1.436-1.412-1.436c-0.574,0-1.173,0.168-1.604,0.455l-0.264-0.742c0.504-0.335,1.246-0.551,2.035-0.551
	c1.9,0,2.346,1.294,2.346,2.539v2.322c0,0.526,0.024,1.053,0.097,1.483L95.793,47.559z M95.625,44.398
	c-1.221-0.023-2.6,0.192-2.6,1.4c0,0.719,0.479,1.077,1.053,1.077c0.814,0,1.316-0.503,1.484-1.03
	c0.047-0.113,0.07-0.235,0.071-0.359L95.625,44.398z M99.838,39.611v1.771h1.604v0.862H99.85v3.328c0,0.766,0.215,1.196,0.838,1.196
	c0.287,0,0.504-0.047,0.646-0.071l0.048,0.838c-0.215,0.096-0.55,0.144-1.005,0.144c-0.527,0-0.958-0.168-1.22-0.479
	c-0.3-0.335-0.431-0.886-0.431-1.604V42.23H97.77v-0.862h0.957v-1.484L99.838,39.611z"/>
</svg>
