<?xml version="1.0" encoding="utf-8"?>
<!-- Generator: Adobe Illustrator 27.3.1, SVG Export Plug-In . SVG Version: 6.00 Build 0)  -->
<svg version="1.1" id="Layer_1" xmlns="http://www.w3.org/2000/svg" xmlns:xlink="http://www.w3.org/1999/xlink" x="0px" y="0px"
	 viewBox="0 0 65.5 39.7" style="enable-background:new 0 0 65.5 39.7;" xml:space="preserve">
<style type="text/css">
	.st0{fill:#FFFCDB;}
	.st1{fill:url(#SVGID_1_);}
	.st2{fill:#ABCD03;}
	.st3{fill:#437202;}
	.st4{fill:#153902;}
	.st5{fill:#F3ECAA;}
	.st6{fill:#7D4698;}
</style>
<g transform="matrix(.214685 0 0 .214685 7.432216 -3.614179)">
	<g transform="matrix(1.465633 0 0 1.465633 -114.91364 -92.589999)">
		<path class="st0" d="M156.9,109.4l11,4.6c0,2.8-0.2,11.3,1.5,13.8c18.3,23.6,15.2,70.8-3.7,72c-28.8,0-39.8-19.6-39.8-37.6
			c0-16.4,19.7-27.3,31.4-37C160.3,122.7,159.7,116.9,156.9,109.4L156.9,109.4z"/>
		
			<linearGradient id="SVGID_1_" gradientUnits="userSpaceOnUse" x1="2478.0149" y1="-3210.4004" x2="2478.0149" y2="-3089.0535" gradientTransform="matrix(0.3146 0 0 -0.3146 -592.8041 -810.7364)">
			<stop  offset="0" style="stop-color:#482957"/>
			<stop  offset="1" style="stop-color:#C19ED3"/>
		</linearGradient>
		<path class="st1" d="M167.9,113.8l4,2c-0.4,2.6,0.2,8.4,2.8,9.9c11.6,7.2,22.5,15,26.7,22.8c15.3,27.6-10.7,53.1-33.2,50.7
			c12.2-9,15.7-27.6,11.2-47.8c-1.9-7.9-4.8-15.1-9.9-23.2C167.3,124.3,168,119.3,167.9,113.8L167.9,113.8z"/>
		<path class="st2" d="M172.3,84.1l-3.4,13.3c4.8-9.4,12.3-16.5,21-22.7c-6.3,7.4-12.1,14.7-15.7,22.1c6-8.4,14-13,23-16.1
			c-12,10.7-21.6,22.2-28.8,33.8l-5.8-2.5C163.7,102.7,167.2,93.2,172.3,84.1z"/>
		<path class="st3" d="M189.9,74.7c-4.3,4.6-11.8,12.7-15.8,19.7c-3.4,6-5.7,11.4-7.1,15c-0.8,2.3-4.2,2.3-3.2-1.5c0,0,0-0.1,0-0.1
			c1.3-3.1,3.3-7.3,5.2-11.1l3.1-12.5c-1.5,5.3-3.7,10.1-5.1,15.6c0,0-2.4,5.5-3,6.9c-0.2,0.4-0.4,0.9-0.6,1.4c0,0,0,0,0,0.1
			c-0.3,0.6-0.5,1.3-0.6,1.8c0,0.1,0,0.2,0,0.2c-0.2,0.8-0.3,1.5-0.3,1.5c1,0.8,5.8,2.9,5.8,2.9c7.3-11.6,16.8-23.1,28.9-33.8
			c-9,3.1-17.1,7.7-23,16.1C177.8,89.4,183.6,82,189.9,74.7L189.9,74.7z"/>
		<path class="st4" d="M167.4,113.6l1,0.8c7.3-11.6,16.8-23.1,28.9-33.8c-6.9,5.6-16.2,13.4-20.1,18.5c-5,6.5-2,0.4-2,0.4
			s2.6-6.8,7.2-11.1c-2.7,1.3-7.3,7.1-8.2,8.2c0,0-3.5,6.8-5.4,12.9C168.3,111.3,167.4,113.6,167.4,113.6L167.4,113.6z"/>
		<path class="st5" d="M164.7,112.7v87.1h1c18.9-1.2,22-48.4,3.7-72c-1.7-2.5-1.5-11-1.5-13.8L164.7,112.7z"/>
		<path d="M166,113.2l8.2,1.1c-2.4,8,4.8,13.6,7.1,14.9c5.2,2.9,10.2,5.9,14.3,9.5c7.5,6.9,11.8,16.6,11.8,26.8
			c0,10.2-4.7,19.9-12.5,26.5c-7.4,6.1-17.5,8.8-27.4,8.8c-6.1,0-11.6-0.3-17.6-2.2c-13.6-4.6-23.8-16.2-24.6-30.2
			c-0.7-10.9,1.7-19.2,10.2-27.9c4.4-4.6,13.2-9.8,19.3-14c3-2.1,6.1-7.8,0.1-18.7l1.2-0.9l9,6l-7.6-3.1c0.7,0.9,2.4,5.1,2.8,6.3
			c0.8,3.4,0.5,6.8-0.3,8.3c-3.8,6.9-10.3,8.8-15.1,12.7c-8.4,6.9-17.5,12.4-16.5,31.3c0.5,9.3,7.7,20.7,18.6,26
			c6.1,3,13.2,4.2,20.4,4.6c6.4,0.3,18.7-3.5,25.4-9.1c7.2-6,11.2-15,11.2-24.2c0-9.3-3.7-18.2-10.7-24.4c-4-3.6-10.6-8-14.7-10.3
			s-9.2-8.9-7.5-15.1L166,113.2z"/>
		<path d="M163.4,126.9c-0.8,4.3-1.8,12-5.5,14.9l-4.8,3.4c-6.7,4.6-13.4,8.9-16.5,19.8c-0.7,2.3-0.1,4.8,0.5,7.2
			c1.7,6.7,6.4,14,10.2,18.3c0,0.2,0.7,0.7,0.7,0.8c3.1,3.6,4,4.7,15.7,7.3l-0.3,1.3c-7-1.9-12.8-3.5-16.4-7.7
			c0-0.1-0.7-0.7-0.7-0.7c-3.9-4.5-8.7-11.9-10.4-18.9c-0.7-2.8-1.2-4.9-0.5-7.8c3.2-11.4,10.1-15.8,17.1-20.6c1.6-1,3.4-2,4.9-3.2
			C160.3,138.8,161.9,132.2,163.4,126.9L163.4,126.9z"/>
		<path d="M166.4,144.6c0.1,4.8-0.4,7.3,0.8,10.7c0.7,2.1,3.3,4.8,4,7.5c1,3.6,2.1,7.6,2,10.1c0,2.8-0.2,8-1.4,13.6
			c-0.9,4.6-3.1,8.6-6.6,10.8c-3.7-0.8-8-2-10.5-4.2c-4.9-4.3-9.3-11.5-9.9-17.7c-0.5-5.1,4.3-12.7,10.9-16.5
			c5.6-3.3,6.9-7,8.1-12.9c-1.7,5.2-3.3,9.6-8.7,12.4c-7.8,4.1-11.8,11-11.5,17.5c0.6,8.4,3.9,14.1,10.5,18.6c2.8,2,8,4,11.3,4.6
			v-0.4c2.5-0.5,5.7-4.5,7.3-10c1.4-4.9,2-11.3,1.9-15.3c-0.1-2.3-1.1-7.4-3-11.9c-1-2.5-2.6-5-3.6-6.8
			C167,152.9,167,149.1,166.4,144.6L166.4,144.6z M165.9,162.9c0.1,3.3,1.4,7.4,2,11.7c0.5,3.2,0.3,6.4,0.2,9.1
			c-0.1,3.2-1.2,9-2.6,11.9c-1.4-0.6-1.9-1.4-2.8-2.5c-1.1-1.6-1.9-3.2-2.6-5c-0.6-1.4-1.2-3-1.5-4.9c-0.4-2.8-0.3-7.2,2.9-11.6
			c2.4-3.5,3-3.8,3.8-7.9c-1.1,3.6-2,4-4.6,7.1c-2.9,3.4-3.4,8.3-3.4,12.3c0,1.7,0.7,3.5,1.3,5.3c0.7,1.9,1.4,3.7,2.4,5.1
			c1.5,2.3,3.5,3.6,4.5,3.8c0,0,0.1,0,0.1,0v-0.1c1.8-2,2.9-4,3.3-6c0.5-2.4,0.6-4.9,0.9-7.7c0.3-2.4,0.1-5.7-0.6-9
			C168.1,170.2,166.5,165.9,165.9,162.9L165.9,162.9z"/>
		<path d="M166.1,123c0.1,4.8,0.5,13.9,1.8,17.4c0.4,1.2,3.8,6.5,6.2,13c1.7,4.5,2,8.6,2.3,9.8c1.1,5.3-0.3,14.3-2.1,22.7
			c-0.9,4.6-4.1,10.2-7.7,12.5l-0.7,1.3c2.1-0.1,7.1-5,8.9-11.2c3-10.4,4.2-15.3,2.8-26.8c-0.2-1.1-0.7-4.9-2.4-9
			c-2.6-6.2-6.3-12.2-6.8-13.4C167.4,137.3,166.3,128.8,166.1,123L166.1,123z"/>
		<path d="M167.9,116.4c-0.3,5-0.4,6.8,0.6,10.4c1,4,6.2,9.8,8.4,16.4c4.1,12.7,3.1,29.3,0.1,42.2c-1.1,4.6-6.4,11.2-11.7,13.3
			l3.9,0.9c2.1-0.1,7.6-5.2,9.8-11.1c3.4-9.2,4.1-20.2,2.7-31.8c-0.1-1.1-2-11.1-3.7-15.3c-2.5-6.2-7-11.8-7.5-13
			C169.6,126.5,167.7,122.2,167.9,116.4L167.9,116.4z"/>
		<path d="M164.9,112.9c0,0,0.1,2.2,0.1,6.5l0.1,18.6l0,27.8l0,32.9h0.1l0.1-77.1l0.1-8.7C165,112.9,164.9,112.9,164.9,112.9
			c0,0,0.1,0,0.4,0l0.1,8.7l0,19.1l0,58.3h-0.7l0-33l0-27.9l0.1-18.7L164.9,112.9L164.9,112.9z"/>
	</g>
	<path class="st6" d="M-27,34.7H82.7c4.1,0,7.6,3.4,7.6,7.6v32.4c0,4.2-3.6,7.7-7.6,7.7H60.2c-5.1,0-7.2,2.9-7.2,6.1v106
		c0,3.6-2.9,6.3-6.3,6.3H9.4c-3.4,0-6.1-2.7-6.1-6.3V87.6c0-3.3-3-5.2-5.3-5.2H-27c-4.2,0-7.6-3.4-7.6-7.7V42.4
		C-34.6,38.1-31.2,34.7-27,34.7z M254.4,77.6h9.7c3.5,0,6.4,2.9,6.4,6.3v34.7c0,4.5,0.3,6.3-5.2,6.3c-10.8,0-15.7,5.7-15.7,12v58.6
		c0,2.7-2.6,5.1-5.7,5.1H209c-3.1,0-5.7-2.3-5.7-5.1v-66.8c0-1.2,0-2.9,0.1-3.8c1.9-24.7,21.3-44.5,45.9-47
		C250.2,77.8,253.1,77.6,254.4,77.6L254.4,77.6z"/>
</g>
</svg>
