<?xml version="1.0" encoding="utf-8"?>
<!-- Generator: Adobe Illustrator 16.0.3, SVG Export Plug-In . SVG Version: 6.00 Build 0)  -->
<!DOCTYPE svg PUBLIC "-//W3C//DTD SVG 1.1//EN" "http://www.w3.org/Graphics/SVG/1.1/DTD/svg11.dtd">
<svg version="1.1" id="Layer_1" xmlns="http://www.w3.org/2000/svg" xmlns:xlink="http://www.w3.org/1999/xlink" x="0px" y="0px"
	 width="112.613px" height="38.466px" viewBox="2.414 10.479 112.613 38.466" enable-background="new 2.414 10.479 112.613 38.466"
	 xml:space="preserve">
<path fill="#353635" d="M49.575,26.078h-4v-2.07H56.01v2.07h-3.984v11.775h-2.452V26.07L49.575,26.078z M55.781,27.458h2.023
	l0.17,1.84h0.077c0.743-1.356,1.84-2.092,2.95-2.092c0.536,0,0.866,0.06,1.188,0.215l-0.431,2.115
	c-0.346-0.114-0.708-0.171-1.073-0.169c-0.827,0-1.823,0.567-2.452,2.145v6.336H55.78V27.45L55.781,27.458z M68.829,31.212
	c-0.022-1.11-0.5-2.038-1.886-2.038c-1.033,0-2.006,0.46-2.909,1.01l-0.896-1.632c1.149-0.72,2.604-1.356,4.252-1.356
	c2.604,0,3.869,1.586,3.869,4.482v6.16h-1.992l-0.184-1.15h-0.077c-0.92,0.78-1.991,1.395-3.218,1.395
	c-1.816,0-3.088-1.227-3.088-3.05c0-2.222,1.861-3.386,6.113-3.854L68.829,31.212z M66.555,36.184c0.857,0,1.51-0.414,2.274-1.134
	v-2.33c-2.82,0.368-3.754,1.11-3.754,2.146c0,0.92,0.612,1.333,1.485,1.333L66.555,36.184z M71.954,27.45h2.476l1.654,5.394
	l0.866,3.141h0.077l0.896-3.141l1.655-5.386h2.352l-3.523,10.39H75.57L71.954,27.45z M82.834,24.255c0-0.827,0.637-1.394,1.51-1.394
	c0.866,0,1.502,0.567,1.502,1.394c0,0.797-0.636,1.38-1.502,1.38C83.479,25.635,82.834,25.053,82.834,24.255z M83.109,27.45h2.453
	v10.403h-2.453V27.45z M88.09,35.09c0.936,0.721,1.823,1.165,2.881,1.165c1.119,0,1.646-0.536,1.646-1.25
	c0-0.873-1.11-1.256-2.223-1.687c-1.363-0.498-2.91-1.279-2.91-3.02c0-1.823,1.457-3.11,3.793-3.11c1.433,0,2.604,0.6,3.447,1.25
	l-1.125,1.48c-0.721-0.536-1.457-0.89-2.299-0.89c-1.033,0-1.517,0.5-1.517,1.15c0,0.797,1.034,1.15,2.146,1.532
	c1.424,0.536,2.987,1.227,2.987,3.164c0,1.762-1.425,3.218-4.045,3.218c-1.417,0-2.91-0.612-3.938-1.456l1.15-1.563L88.09,35.09z
	 M106.859,23.75c1.687,0,3.065,0.82,3.938,1.762l-1.356,1.51c-0.719-0.7-1.502-1.15-2.56-1.15c-2.269,0-3.892,1.915-3.892,5.019
	c0,3.139,1.502,5.057,3.808,5.057c1.226,0,2.146-0.514,2.927-1.381l1.356,1.502c-1.11,1.287-2.55,2.008-4.306,2.008
	c-3.51,0-6.282-2.544-6.282-7.125c0-4.536,2.835-7.225,6.399-7.225L106.859,23.75z M112.575,24.003h2.452v13.853h-2.452V24V24.003z"
	/>
<g transform="matrix(.193922 0 0 .193922 2.413988 10.479142)">
	<path fill="#CB3349" d="M47.781,86.573c0,0-31.119,21.901-32.335,30.245l2.334-0.478c0,0,37.265-24.701,66.803-27.702l0.67-3.749
		l-37.472,1.695V86.573z M96.631,83.441l-24.502,17.386l1.327,1.063c1-0.806,43.54-13.798,43.54-13.798l8.969-5.623
		c-6.018,0.75-29.321,0.972-29.321,0.972H96.631z M117.932,104.471c17.404,0,43.495-17.046,43.495-17.046l-8.435-1.606
		c-0.415,0.418-13.599-0.461-13.599-0.461l-6.257-1.737l-14.951,17.036l-1.216,2.959
		C118.043,103.174,117.932,104.471,117.932,104.471L117.932,104.471z M174.727,158.833l-5.376,1.516l-24.842-0.539l-15.541-12.086
		l-18.784,4.698l-21.727-1.878l-12.167,13.295l-22.828,6.819l-11.399-3.53l-0.574-0.494l5.116,12.524
		c0,0,11.59,12.423,18.061,13.884s18.164-0.101,26.934-1.46c8.77-1.36,15.765-4.502,18.582-9.608
		c2.818-5.096,3.236-6.577,3.236-6.577s8.354,11.799,15.556,13.159c7.204,1.355,28.606-5.952,28.606-5.952s13.05-3.55,15.347-8.042
		c2.294-4.482,8.352-19.197,8.352-19.197l-6.554,3.48V158.833z M44.457,169.04l-0.36-0.171l-2.014-1.732L44.457,169.04
		L44.457,169.04z"/>
	<path fill="#F4EDAE" d="M195.832,70.086l-0.199-2.012l-0.217-1.423c-1.793-1.511-3.83-2.85-5.952-4.072
		c-2.299-1.342-4.703-2.546-7.158-3.661l-7.461-3.208l-3.797-1.478l-3.837-1.423l8.017,1.74l5.139,1.476
		c-12.111-31.653-41.07-52.27-72.688-52.27s-60.576,20.617-72.685,52.27c1.702-0.531,3.417-1.03,5.137-1.476
		c2.654-0.682,5.323-1.294,8.017-1.74l-3.84,1.423l-3.81,1.478c-2.518,1.015-5.016,2.057-7.458,3.205
		c-2.45,1.118-4.857,2.322-7.156,3.664c-2.12,1.221-4.157,2.561-5.957,4.072c-0.076,0.456-0.151,0.949-0.201,1.423
		c-0.078,0.667-0.154,1.337-0.199,2.009c-0.118,1.35-0.166,2.704-0.176,4.061c-0.028,2.712,0.156,5.426,0.499,8.1
		c0.37,2.692,0.864,5.366,1.596,7.949c0.36,1.294,0.768,2.573,1.239,3.807c0.237,0.617,0.496,1.226,0.765,1.818
		c0.131,0.29,0.269,0.577,0.413,0.864l0.171,0.327l0.607,0.3l1.204,0.574l2.369,1.1c0.043-0.035,0.083-0.073,0.123-0.113
		l-2.236-8.513c0.473-0.128,4.719-1.224,12.031-2.616c-0.599-0.113-1.186-0.242-1.77-0.38c-1.667-0.415-3.311-0.919-4.9-1.564
		c-0.801-0.332-1.569-0.698-2.311-1.115c-0.74-0.426-1.47-0.909-2.037-1.549c8.037,2.624,24.64,1.435,39.4-0.091
		c13.501-1.39,27.03-2.291,40.629-2.319c13.602,0.028,27.138,0.929,40.632,2.319c14.765,1.526,31.368,2.714,39.403,0.091
		c-0.564,0.64-1.292,1.123-2.034,1.549c-0.748,0.415-1.518,0.788-2.306,1.115c-1.594,0.645-3.236,1.148-4.9,1.564
		c-0.249,0.06-0.496,0.113-0.745,0.166c8.022,1.488,12.69,2.697,13.189,2.83l-2.138,8.1l1.299-0.574l1.204-0.577l0.607-0.3
		l0.166-0.327c0.146-0.285,0.287-0.572,0.418-0.864c0.269-0.592,0.529-1.201,0.763-1.815c0.473-1.236,0.884-2.513,1.241-3.81
		c0.73-2.583,1.224-5.26,1.594-7.949c0.345-2.684,0.526-5.398,0.501-8.1c-0.01-1.357-0.06-2.699-0.181-4.061L195.832,70.086z"/>
	<path fill="#E6CCAD" d="M116.787,182.657l-3.185,0.378l-2.06,0.101l-0.244,0.005l1.921-4.341L116.787,182.657L116.787,182.657z
		 M119.101,185.019c3.304,3.268,7.398,5.142,11.902,5.479c-7.569,3.077-14.702,4.26-20.196,4.628
		c-5.477,0.368-11.031-0.277-16.475-1.768c0.398-0.076,0.796-0.136,1.193-0.191c0.448-0.055,10.208-1.324,14.607-7.866h0.413h1.08
		c0.73,0,1.395-0.06,2.092-0.086c1.639-0.146,3.266-0.383,4.88-0.705l0.504,0.499V185.019z"/>
	<path fill="#656C67" d="M128.465,87.069l-1.05,1.345c-1.931,2.442-4.613,5.57-7.793,8.626l-11.404-0.176
		c-6.461,0-12.655,0.169-18.537,0.456c8.299-3.45,18.295-6.819,29.1-8.843c3.157-0.597,6.401-1.075,9.674-1.408H128.465z
		 M79.821,90.793c-2.966,2.082-6.317,4.744-9.568,7.969c-8.319,0.833-15.576,1.841-21.566,2.8
		c9.208-4.233,19.713-8.128,31.134-10.779V90.793z M181.48,107.971l-3.384,23.679l-16.213,11.356l-42.281-4.804l-6.365-20.959
		c-0.151-0.504-0.582-0.886-1.108-0.977c-1.569-0.252-2.953-0.378-4.109-0.378c-1.153,0-2.541,0.126-4.114,0.378
		c-0.521,0.091-0.949,0.463-1.105,0.977l-6.202,20.446l-42.047,9.357L37.88,135.371l-3.283-26.569l2.175-1.204l3.475-0.705
		l3.094,25.073c0.05,0.393,0.262,0.745,0.587,0.967l11.462,8.032c0.237,0.161,0.516,0.247,0.796,0.247
		c0.101,0,0.199-0.01,0.305-0.03l34.571-7.695c0.118-0.03,0.234-0.07,0.345-0.121c0.327-0.176,0.574-0.473,0.68-0.831l6.227-20.501
		c1.669-0.423,5.947-1.425,9.704-1.425c3.752,0,8.032,1.002,9.702,1.425l6.224,20.501c0.161,0.534,0.624,0.911,1.176,0.977
		l34.571,3.928c0.335,0.035,0.677-0.05,0.952-0.242l11.469-8.022c0.31-0.232,0.516-0.574,0.574-0.947l3.062-21.422l5.733,1.168
		V107.971z M185.75,93.12l-2.976,11.3c-6.086-1.342-19.456-3.976-37.653-5.746c5.945-2.536,11.998-5.716,17.53-9.702
		C173.48,90.504,181.43,92.143,185.75,93.12z"/>
	<g>
		<g>
			<path id="B" fill="#E5CAA3" d="M63.84,128.441c2.357-1.274,5.021-1.088,9.201-1.078l1.4-0.01l1.256-0.02
				c4.298-0.04,7.871,0.363,7.808-6.38c-0.065-6.743-3.062-12.197-7.355-12.152c-4.298,0.03-8.455,5.56-8.196,12.303
				c0.068,1.758,0.327,3.027,0.74,3.938c-3.744,0.937-4.776,3.253-4.834,3.399H63.84z M115.498,100.689
				c-1.667,1.352-3.422,2.604-5.25,3.711l-6.098,3.681c-3.822,0.468-7.143,1.415-7.33,1.465c-0.111,0.03-0.219,0.081-0.317,0.141
				c-0.295,0.171-0.519,0.453-0.63,0.796l-6.209,20.461l-33.186,7.378l-10.452-7.322l-3.039-24.63
				c5.935-1.103,13.874-2.352,23.399-3.419c-1.022,1.224-2.014,2.508-2.953,3.857l-5.678,8.148l8.266-5.509
				c0.123-0.091,5.386-3.555,13.997-7.763c8.584-0.642,18.054-1.06,28.188-1.06l7.279,0.071L115.498,100.689z"/>
		</g>
		<g>
			<path id="C" fill="#E5CAA3" d="M151.834,125.672c-0.04-0.156-0.944-2.87-4.94-2.397c0.458-0.997,0.665-2.352,0.519-4.2
				c-0.526-6.728-4.442-12.076-8.735-11.925c-4.291,0.151-7.043,5.731-6.803,12.479c0.234,6.738,3.84,6.693,8.13,6.542
				c5.771-0.106,8.941-1.878,11.829-0.483V125.672z M173.015,106.289l-2.991,20.944l-10.54,7.383l-33.141-3.767l-6.181-20.365
				c-0.141-0.448-0.494-0.796-0.947-0.932c-0.204-0.06-4.308-1.234-8.659-1.606l0.796-0.055c0.687-0.05,12.116-1.45,25.766-6.156
				c15.115,1.161,27.458,3.019,35.898,4.56V106.289z"/>
		</g>
	</g>
	<g>
		<g>
			<path id="B_1_" fill="#C7B39A" d="M63.84,128.441c2.357-1.274,5.021-1.088,9.201-1.078l1.4-0.01l1.256-0.02
				c4.298-0.04,7.871,0.363,7.808-6.38c-0.065-6.743-3.062-12.197-7.355-12.152c-4.298,0.03-8.455,5.56-8.196,12.303
				c0.068,1.758,0.327,3.027,0.74,3.938c-3.744,0.937-4.776,3.253-4.834,3.399H63.84z M115.498,100.689
				c-1.667,1.352-3.422,2.604-5.25,3.711l-6.098,3.681c-3.822,0.468-7.143,1.415-7.33,1.465c-0.111,0.03-0.219,0.081-0.317,0.141
				c-0.295,0.171-0.519,0.453-0.63,0.796l-6.209,20.461l-33.186,7.378l-10.452-7.322l-3.039-24.63
				c5.935-1.103,13.874-2.352,23.399-3.419c-1.022,1.224-2.014,2.508-2.953,3.857l-5.678,8.148l8.266-5.509
				c0.123-0.091,5.386-3.555,13.997-7.763c8.584-0.642,18.054-1.06,28.188-1.06l7.279,0.071L115.498,100.689z"/>
		</g>
		<g>
			<path id="C_1_" fill="#C7B39A" d="M151.834,125.672c-0.04-0.156-0.944-2.87-4.94-2.397c0.458-0.997,0.665-2.352,0.519-4.2
				c-0.526-6.728-4.442-12.076-8.735-11.925c-4.291,0.151-7.043,5.731-6.803,12.479c0.234,6.738,3.84,6.693,8.13,6.542
				c5.771-0.106,8.941-1.878,11.829-0.483V125.672z M173.015,106.289l-2.991,20.944l-10.54,7.383l-33.141-3.767l-6.181-20.365
				c-0.141-0.448-0.494-0.796-0.947-0.932c-0.204-0.06-4.308-1.234-8.659-1.606l0.796-0.055c0.687-0.05,12.116-1.45,25.766-6.156
				c15.115,1.161,27.458,3.019,35.898,4.56V106.289z"/>
		</g>
	</g>
	<path fill="#E6CCAD" d="M187.48,115.499c0.509,0.423,0.899,1.506,0.456,6.562c-0.559,6.189-3.16,17.046-4.769,18.799
		c-1.78,0.342-5.507-0.06-7.778-0.594c0.393-1.561,0.504-2.306,0.821-3.898l3.976-2.78c0.315-0.222,0.524-0.564,0.579-0.947
		l2.777-19.464c1.687,0.911,3.422,1.899,3.938,2.327V115.499z M40.937,140.91l0.624,2.095c-2.14,0.635-6.496,1.234-8.465,0.886
		c-1.634-1.642-4.681-12.962-5.346-18.975c-0.541-4.87-0.161-5.922,0.332-6.335c0.577-0.483,2.729-1.707,4.595-2.709l2.518,20.456
		c0.048,0.393,0.257,0.735,0.587,0.967L40.937,140.91L40.937,140.91z M121.337,141.192l-0.149,1.309c0,0-4.58,4.245-11.958,5.197
		c-7.375,0.952-13.169-3.581-13.169-3.581c0.242,0.791,0.584,2.563,2.256,4.084c-1.966-0.232-4.087-0.393-6.315-0.393
		c-0.801,0-1.599,0.02-2.4,0.06c-4.54,0.242-10.925,7.101-15.415,14.015l-17.059,5.237c-7.44-10.298-11.099-20.843-11.472-21.931
		l0.005-0.01l-0.438-1.264l1.911,1.334v0.01l4.726,3.298l1.581,1.103c0.237,0.161,0.514,0.252,0.793,0.252
		c0.103,0,0.204-0.01,0.305-0.03l43.437-9.674c0.486-0.106,0.879-0.473,1.025-0.952l6.194-20.395
		c1.07-0.146,2.007-0.222,2.813-0.222s1.747,0.076,2.815,0.222l6.375,20.995c0.161,0.529,0.624,0.922,1.168,0.977l2.971,0.337
		L121.337,141.192z M170.927,140.064l1.402-0.982l-0.748,2.896c-1.949,6.25-4.25,11.774-6.806,16.659
		c-0.599,0.04-1.199,0.06-1.798,0.06c-1.974,0-3.988-0.171-6.217-0.373l-11.945-1.279l-12.141-9.618l-0.504-0.423
		c-0.839-0.705-1.8-1.511-3.716-1.511c-1.75,0-4.308,0.64-10.5,2.508c3.21-2.397,3.233-5.499,3.233-5.499l0.149-1.304l40.748,4.628
		c0.337,0.04,0.677-0.045,0.957-0.242l7.874-5.514L170.927,140.064z"/>
	<path fill="#EBD599" d="M140.936,54.336c0.126,3.626,0.033,10.195-1.654,16.346c-0.068,0.237-0.058,0.478,0,0.702l-6.446-0.599
		c2.412-5.053,2.938-10.437,3.052-12.333c1.853-1.317,3.696-2.896,5.051-4.124L140.936,54.336z M79.456,58.463
		c0.113,1.896,0.64,7.267,3.047,12.315l-6.441,0.597c0.058-0.219,0.065-0.458,0-0.695c-1.684-6.139-1.77-12.713-1.652-16.344
		c1.352,1.229,3.198,2.8,5.048,4.127H79.456z"/>
	<path fill="#2D3136" d="M151.834,125.672c-2.898-1.39-6.058,0.383-11.827,0.488c-4.293,0.146-7.896,0.196-8.133-6.542
		c-0.237-6.748,2.513-12.328,6.806-12.479c4.291-0.151,8.206,5.197,8.735,11.925c0.146,1.858-0.06,3.213-0.519,4.2
		c3.996-0.473,4.9,2.236,4.938,2.397V125.672z M138.348,115.796c1.209-0.025,2.173-1.022,2.153-2.231
		c-0.02-1.214-1.02-2.186-2.236-2.155c-1.209,0.02-2.17,1.017-2.15,2.226c0,0,0,0.005,0,0.01
		C136.135,114.854,137.134,115.821,138.348,115.796z"/>
	<circle fill="#EDF6FA" cx="138.305" cy="113.596" r="2.196"/>
	<path fill="#2D3136" d="M83.485,120.953c0.063,6.748-3.51,6.34-7.806,6.38l-1.259,0.02c-0.463,0.015-0.927,0.015-1.39,0.01
		c-4.167-0.01-6.834-0.196-9.201,1.078c0.058-0.146,1.1-2.463,4.834-3.404c-0.413-0.911-0.672-2.175-0.74-3.933
		c-0.257-6.743,3.898-12.272,8.196-12.308c4.298-0.035,7.289,5.414,7.355,12.157H83.485z M76.85,117.423
		c1.211-0.03,2.165-1.042,2.133-2.251c-0.033-1.214-1.04-2.17-2.249-2.135c-1.216,0.03-2.173,1.042-2.14,2.251
		C74.624,116.501,75.634,117.453,76.85,117.423L76.85,117.423z"/>
	<circle fill="#EDF6FA" cx="76.793" cy="115.235" r="2.194"/>
	<path opacity="0.8" fill="#EBD599" enable-background="new    " d="M50.699,75.154c0,0,0.667-8.692,2.032-12.023
		c0.7-1.717,4.996-2.8,8.274-3.601c3.281-0.798,8.511-2.342,9.525,2.266c1.015,4.605,2.654,7.962,3.747,9.445l-1.405-18.97
		l-22.571,5.474L48.818,74.53l0.703,1.327l1.171-0.703 M164.854,75.154c0,0-0.665-8.692-2.029-12.023
		c-0.702-1.717-4.996-2.8-8.274-3.601c-3.278-0.798-8.501-2.342-9.528,2.266c-1.025,4.605-2.654,7.962-3.747,9.445l1.408-18.97
		l22.561,5.464l1.483,16.787l-0.703,1.327l-1.171-0.703"/>
	<path opacity="0.75" fill="#EBD599" enable-background="new    " d="M132.965,18.378c0,0-0.597,45.499-11.222,45.499H94.113
		c-10.626,0-11.482-45.469-11.482-45.469l-5.232,15.427l0.086,21.183l3.706,2.948l1.687,9.095l2.357,5.308l45.481,0.083l2.105-3.8
		l1.77-6.401l0.254-4.041l5.023-14.342l-6.912-25.499L132.965,18.378z M166.43,60.795c0,0,2.186,15.692,7.974,18.522
		c5.786,2.83,0,0,0,0l-8.103-2.445L166.43,60.795L166.43,60.795z M48.909,60.795c0,0-2.188,15.692-7.977,18.522c-5.786,2.83,0,0,0,0
		l8.105-2.445l-0.131-16.077H48.909z"/>
	<path fill="#2D3136" d="M167.986,76.799c2.755,0.904,5.527,1.858,8.037,3.326c-1.345-0.531-2.729-0.914-4.127-1.256l-4.2-0.924
		l-8.498-1.327l-8.546-0.924l-8.574-0.65c-11.446-0.705-22.923-0.881-34.4-0.894c-11.482,0.008-22.961,0.222-34.4,0.899
		c-2.863,0.166-5.716,0.4-8.571,0.65c-2.855,0.239-5.706,0.546-8.546,0.924c-2.848,0.342-5.678,0.796-8.498,1.324
		c-1.413,0.267-2.815,0.572-4.207,0.922c-1.4,0.342-2.782,0.723-4.124,1.256c2.5-1.468,5.28-2.427,8.04-3.331
		c0.232-0.076,0.466-0.141,0.702-0.214c-0.015-0.06-0.033-0.113-0.043-0.176c-0.048-0.317-1.07-7.861,0.7-18.645
		c0.086-0.516,0.456-0.934,0.962-1.075l2.916-0.831c0.635-22.624,9.953-33.264,10.243-33.592
		c-8.324,13.395-8.249,29.283-8.105,32.985l18.129-5.152c0.015-0.005,0.025-0.005,0.04-0.01c0.078-0.015,0.151-0.028,0.227-0.033
		c0.02,0,0.05-0.005,0.076-0.005c0.101-0.005,0.199,0.005,0.297,0.028c0.015,0,0.03,0.008,0.053,0.015
		c0.076,0.015,0.146,0.04,0.224,0.076c0.033,0.015,0.053,0.033,0.086,0.05c0.06,0.033,0.121,0.07,0.176,0.111
		c0.018,0.01,0.035,0.015,0.05,0.033c0.01,0.01,0.02,0.023,0.033,0.033c0.015,0.015,0.038,0.025,0.053,0.043
		c0.415,0.41,0.836,0.813,1.264,1.211c-0.184-5.972,0.101-23.109,8.261-37.301c-0.171,0.499-6.647,19.428-4.416,40.644
		c0.72,0.579,1.465,1.131,2.231,1.649c0.36,0.247,0.577,0.655,0.584,1.09c0.005,0.07,0.161,6.834,3.147,12.587
		c0.043,0.086,0.076,0.176,0.103,0.267c7.43-0.506,14.878-0.7,22.311-0.713c7.435,0.005,14.881,0.219,22.306,0.728
		c0.025-0.098,0.063-0.194,0.111-0.285c2.986-5.753,3.142-12.514,3.142-12.585c0.01-0.438,0.229-0.844,0.599-1.1
		c0.763-0.521,1.503-1.073,2.223-1.649c2.236-21.219-4.24-40.148-4.399-40.647c8.153,14.201,8.443,31.336,8.261,37.301l1.261-1.201
		c0.015-0.015,0.038-0.025,0.053-0.043c0.01-0.01,0.018-0.02,0.033-0.033c0.015-0.01,0.033-0.02,0.05-0.033
		c0.058-0.043,0.118-0.081,0.176-0.118c0.028-0.01,0.053-0.025,0.081-0.043c0.076-0.033,0.154-0.058,0.234-0.081
		c0.018,0,0.035-0.008,0.05-0.008c0.098-0.023,0.196-0.033,0.297-0.028c0.028,0,0.05,0.005,0.07,0.005
		c0.076,0.005,0.154,0.015,0.229,0.033c0.013,0.005,0.028,0.005,0.043,0.01l18.129,5.152c0.146-3.701,0.219-19.6-8.105-32.985
		c0.302,0.327,9.601,10.968,10.238,33.592l2.923,0.831c0.501,0.144,0.874,0.562,0.962,1.075c1.775,10.787,0.75,18.328,0.708,18.645
		c-0.01,0.06-0.025,0.121-0.043,0.181l0.708,0.214H167.986z M164.69,75.832c0.138-1.206,0.801-7.801-0.599-16.8l-20.511-5.832
		c0.184,3.475,0.264,11.011-1.707,18.2c-0.025,0.088-0.06,0.176-0.101,0.257c0.204,0.02,0.408,0.038,0.607,0.065
		c5.769,0.66,11.499,1.584,17.2,2.83c1.712,0.398,3.424,0.823,5.124,1.282L164.69,75.832z M139.29,70.683
		c1.69-6.151,1.78-12.721,1.654-16.346c-1.352,1.231-3.195,2.8-5.048,4.127c-0.113,1.896-0.64,7.277-3.052,12.33l6.446,0.602
		c-0.063-0.232-0.063-0.473,0-0.705V70.683z M82.51,70.781c-2.407-5.051-2.933-10.422-3.047-12.318
		c-1.858-1.317-3.696-2.896-5.048-4.124c-0.121,3.628-0.033,10.205,1.652,16.344c0.065,0.237,0.058,0.473,0,0.695l6.441-0.597H82.51
		z M73.577,71.644c-0.038-0.081-0.073-0.164-0.098-0.247c-1.974-7.189-1.898-14.722-1.712-18.202L51.245,59.03
		c-1.382,8.981-0.738,15.583-0.599,16.797c1.705-0.461,3.402-0.886,5.132-1.284c2.835-0.627,5.693-1.153,8.556-1.637
		c2.87-0.478,5.746-0.844,8.626-1.194c0.204-0.025,0.403-0.04,0.607-0.07L73.577,71.644z M129.303,18.974v17.024h-12.068v-4.973
		h-2.719v22.981h4.099v12.849h-21.1V54.006h4.092V31.025h-2.699v4.975H86.846V18.972h42.467L129.303,18.974z M125.678,32.382v-9.8
		H90.444v9.8h4.814v-4.975h9.963v30.225h-4.099v5.607h13.866v-5.607h-4.102V27.407h9.963v4.975h4.817H125.678z"/>
	<path fill="#CB3349" d="M101.123,63.237v-5.605h4.099V27.407h-9.961v4.975h-4.817V22.58h35.223v9.802h-4.817v-4.975h-9.963v30.225
		h4.102v5.605H101.123z"/>
	<path fill="#656C67" d="M30.694,93.12l7.05-1.47l-6.222,4.598l-0.831-3.127H30.694z"/>
	<g>
		<path fill="#C7B39A" d="M95.1,139.782c0,0,0.491,3.163-3.938,4.517c-4.429,1.355-32.481,9.714-35.682,9.261
			c-3.2-0.453-11.321-5.872-11.321-5.872l-1.969-7l12.016,7.488l40.891-8.395H95.1z M120.231,139.168c0,0-0.353,3.183,4.129,4.341
			c4.484,1.168,32.877,8.299,36.052,7.705c3.175-0.589,11.054-6.355,11.054-6.355l1.662-7.085l-11.046,6.587L120.231,139.168
			L120.231,139.168z"/>
		<path fill="#C7B39A" d="M28.413,133.956c0,0,3.885,7.775,10.165,5.081l4.484,1.647l-0.448,3.298l-9.42,1.199l-2.538-1.496
			l-2.243-9.719V133.956z M187.551,131.825c0,0-6.353,8.113-12.632,5.419l-2.019,1.304l0.448,3.298l9.42,1.199l2.541-1.496
			l2.243-9.714V131.825z M89.281,192.905c0,0,23.029,11.598,49.105-4.19l-8.375-0.569c0,0-18.27,7.232-32.738,3.233L89.281,192.905
			L89.281,192.905z"/>
	</g>
	<path fill="#2D3136" d="M112.627,171.508l1.594,1.904c0.035,0.045,3.575,4.26,7.904,8.551c2.88,2.85,6.358,4.296,10.344,4.296
		c1.36,0,2.79-0.176,4.235-0.519l4.288-1.032l14.438-3.58c0.584-0.161,1.236-0.312,1.924-0.468c3.936-0.911,9.331-2.16,12.187-7.891
		l7.199-13.959c-1.863,0.856-3.817,1.803-5.205,2.518c-2.138,1.128-4.938,1.672-8.556,1.672c-2.153,0-4.268-0.181-6.607-0.393
		c-4.673-0.433-12.585-1.36-12.665-1.37l-0.607-0.071l-0.478-0.383c-0.07-0.05-7.002-5.575-12.605-9.981l-0.622-0.514
		c-0.599-0.504-0.599-0.504-0.942-0.504c-1.795,0-7.02,1.622-18.461,5.167l-0.703,0.227l-0.69-0.262
		c-0.078-0.025-7.587-2.8-16.581-2.8c-0.728,0-1.458,0.02-2.186,0.055c-0.899,0.05-5.957,2.447-12.423,12.68l-0.42,0.66l-0.74,0.237
		c-0.108,0.04-11.237,3.631-23.042,7.005l-0.768,0.217l-0.723-0.332c-0.078-0.03-4.696-2.175-9.092-4.2
		c2.397,3.545,5.464,7.962,8.161,11.421c4.711,6.073,10.651,11.678,22.034,11.678c1.506-0.005,3.009-0.096,4.502-0.267
		c11.58-1.309,14.564-1.833,16.17-2.115c0.541-0.091,0.972-0.171,1.521-0.242c0.088-0.01,9.571-1.234,12.232-7.201l3.321-7.655
		l0.967-2.578c0,0,0.121-0.675,0.317-0.876l0.023,0.02c0.307,0.217,0.758,0.896,0.758,0.896L112.627,171.508z M40.499,55.701
		c-2.515,1.012-5.016,2.06-7.458,3.21c-2.45,1.118-4.857,2.319-7.156,3.659c-2.12,1.221-4.157,2.563-5.952,4.077
		c-0.078,0.453-0.151,0.952-0.212,1.423l-0.209,2.009c-0.118,1.347-0.164,2.704-0.179,4.061c-0.025,2.712,0.161,5.426,0.501,8.11
		c0.373,2.692,0.864,5.371,1.594,7.954c0.365,1.294,0.768,2.573,1.244,3.802c0.234,0.624,0.491,1.229,0.763,1.818
		c0.131,0.292,0.269,0.579,0.413,0.866l0.171,0.325c0.199,0.103,0.403,0.204,0.604,0.3l1.206,0.574l2.367,1.093
		c0.045-0.035,0.088-0.078,0.123-0.113l-2.228-8.511c0.468-0.128,4.716-1.226,12.031-2.619c-0.599-0.111-1.191-0.239-1.775-0.38
		c-1.662-0.413-3.309-0.922-4.897-1.564c-0.788-0.335-1.571-0.7-2.311-1.12c-0.738-0.42-1.468-0.904-2.034-1.546
		c8.035,2.631,24.635,1.44,39.395-0.078c13.501-1.392,27.03-2.294,40.629-2.327c13.599,0.03,27.138,0.932,40.629,2.327
		c14.77,1.521,31.376,2.712,39.406,0.088c-0.564,0.642-1.292,1.12-2.032,1.546c-0.743,0.425-1.523,0.783-2.311,1.12
		c-1.594,0.642-3.236,1.151-4.902,1.564l-0.74,0.166c8.02,1.486,12.69,2.697,13.186,2.83l-2.138,8.108l1.287-0.574l1.209-0.574
		l0.604-0.3l0.166-0.325c0.146-0.287,0.287-0.574,0.42-0.866c0.269-0.589,0.526-1.196,0.765-1.818
		c0.473-1.246,0.886-2.515,1.236-3.802c0.73-2.583,1.229-5.263,1.596-7.954c0.345-2.684,0.526-5.398,0.501-8.11
		c-0.01-1.357-0.063-2.714-0.176-4.061c-0.055-0.672-0.128-1.34-0.211-2.009c-0.06-0.476-0.131-0.949-0.214-1.423
		c-1.798-1.513-3.83-2.853-5.955-4.077c-2.299-1.34-4.703-2.541-7.158-3.659c-2.44-1.151-4.943-2.196-7.461-3.21l-3.799-1.478
		l-3.835-1.423c2.694,0.446,5.368,1.06,8.012,1.74c1.727,0.451,3.439,0.944,5.142,1.481c-12.101-31.655-41.07-52.272-72.685-52.272
		c-31.623,0-60.576,20.617-72.685,52.272c1.702-0.531,3.417-1.032,5.137-1.478c2.649-0.68,5.32-1.294,8.02-1.74l-3.842,1.423
		c-1.274,0.473-2.541,0.964-3.8,1.475V55.701z M199.929,74.016c0.146,2.913,0.07,5.834-0.257,8.732
		c-0.305,2.893-0.854,5.764-1.619,8.606c-0.4,1.42-0.869,2.823-1.405,4.197c-0.274,0.692-0.569,1.382-0.899,2.07
		c-0.164,0.347-0.337,0.69-0.524,1.025l-0.285,0.511c-0.103,0.186-0.186,0.327-0.347,0.574l-0.295,0.458l-0.461,0.237
		c-0.441,0.227-0.889,0.446-1.342,0.652l-1.297,0.587c-0.869,0.368-1.74,0.723-2.621,1.065l-1.662,0.672l-1.443,5.489l-1.284-0.317
		l-0.078,0.574c1.594,0.831,4.726,2.523,5.794,3.404c2.148,1.778,2.299,4.588,1.823,9.84c-0.244,2.694-1.141,7.947-2.379,12.766
		c-2.145,8.299-3.283,9.276-4.754,9.649c-0.984,0.247-1.994,0.373-3.006,0.383c-2.266,0-5.353,0.065-7.43-0.438
		c-0.534,1.888-2.055,6.813-5.069,12.962c0.148-0.076,0.3-0.136,0.436-0.206c3.716-1.954,10.86-5.066,11.162-5.197l5.643-2.457
		l-2.901,5.439c-0.068,0.116-6.265,11.774-10.059,19.378c-3.772,7.544-10.835,9.185-15.065,10.152l-1.735,0.423
		c-3.034,0.856-9.18,2.327-14.599,3.626c-0.063,0.02-0.131,0.03-0.196,0.04c-3.336,2.065-6.975,3.903-10.955,5.414
		c-14.569,5.514-29.923,5.207-43.845,0.091l-9.193,1.098c-1.654,0.186-3.319,0.287-4.986,0.287
		c-13.262,0-20.292-6.733-25.423-13.325c-5.494-7.065-12.212-17.545-12.496-17.988l-3.875-6.063l6.584,2.961l15.206,7l0.64-0.186
		c-4.457-6.355-8.11-13.602-10.694-21.634c-2.196,0.66-5.577,1.173-8.206,1.173c-0.959,0-1.823-0.07-2.485-0.227
		c-1.468-0.337-3.147-1.753-5.429-9.795c-1.324-4.668-2.314-9.765-2.604-12.388c-0.569-5.116-0.466-7.861,1.662-9.634
		c1.284-1.073,5.61-3.344,6.506-3.812l-0.191-1.581c-13.75,8.083-21.989,15.223-22.158,15.369L0,134.303l7.005-11.049
		c5.544-8.752,11.948-15.833,17.84-21.284l-0.7-0.295l-1.299-0.584c-0.446-0.206-0.851-0.4-1.34-0.652l-0.461-0.237l-0.295-0.458
		c-0.166-0.249-0.239-0.388-0.347-0.574l-0.3-0.511l-0.519-1.025c-0.322-0.68-0.619-1.37-0.889-2.072
		c-0.539-1.375-1.007-2.775-1.405-4.197c-0.77-2.843-1.314-5.701-1.619-8.604c-0.32-2.901-0.405-5.821-0.262-8.735
		c0.078-1.455,0.219-2.908,0.421-4.354c0.103-0.725,0.212-1.45,0.358-2.17c0.146-0.745,0.32-1.486,0.519-2.221l0.154-0.564
		l0.405-0.317c2.294-1.8,4.766-3.163,7.284-4.369c2.065-0.964,4.17-1.836,6.31-2.616c5.942-16.492,16.163-31.119,29.591-41.312
		C74.337,5.569,90.663-0.001,107.669-0.001c17.006,0,33.335,5.57,47.219,16.107c13.431,10.193,23.651,24.819,29.588,41.307
		c2.133,0.788,4.24,1.639,6.315,2.621c2.515,1.204,5.001,2.566,7.284,4.369l0.403,0.317l0.156,0.564
		c0.204,0.733,0.378,1.473,0.519,2.221c0.141,0.72,0.262,1.443,0.355,2.17c0.206,1.443,0.345,2.896,0.421,4.351V74.016z
		 M187.936,122.046c0.456-5.051,0.058-6.139-0.456-6.557c-0.514-0.428-2.246-1.41-3.936-2.327l-2.78,19.464
		c-0.055,0.378-0.264,0.72-0.579,0.942l-3.978,2.78c-0.315,1.591-0.431,2.347-0.816,3.903c2.274,0.529,6,0.942,7.775,0.599
		c1.611-1.753,4.212-12.605,4.766-18.804H187.936z M182.774,104.4l2.979-11.303c-4.318-0.977-12.27-2.614-23.102-4.147
		c-5.529,3.976-11.58,7.156-17.53,9.689c18.202,1.77,31.57,4.406,37.653,5.751V104.4z M178.096,131.634l3.384-23.679l-5.731-1.168
		l-3.059,21.423c-0.058,0.383-0.264,0.725-0.574,0.947l-11.472,8.017c-0.277,0.196-0.614,0.282-0.949,0.247l-34.571-3.933
		c-0.551-0.06-1.012-0.443-1.176-0.967l-6.227-20.506c-1.667-0.428-5.95-1.43-9.697-1.43c-3.764,0-8.04,1.002-9.707,1.43
		l-6.229,20.506c-0.108,0.353-0.355,0.645-0.682,0.816c-0.103,0.06-0.222,0.101-0.342,0.131L56.5,141.172
		c-0.111,0.02-0.201,0.03-0.307,0.03c-0.282,0-0.559-0.086-0.791-0.252l-11.467-8.027c-0.32-0.222-0.534-0.574-0.587-0.967
		l-3.089-25.073l-3.48,0.7l-2.173,1.219l3.278,26.569l16.666,11.673l42.047-9.357l6.207-20.446c0.154-0.514,0.584-0.891,1.11-0.977
		c1.574-0.252,2.948-0.383,4.114-0.383c1.153,0,2.536,0.131,4.104,0.383c0.529,0.081,0.959,0.458,1.11,0.977l6.365,20.949
		l42.281,4.814l16.21-11.361L178.096,131.634z M170.026,127.223l2.991-20.949c-8.44-1.531-20.78-3.389-35.898-4.55
		c-13.647,4.706-25.076,6.111-25.766,6.151l-0.796,0.06c4.354,0.373,8.453,1.541,8.659,1.601c0.453,0.141,0.803,0.483,0.944,0.937
		l6.187,20.365l33.138,3.767L170.026,127.223z M172.327,139.067l-1.403,0.987l-7.874,5.519c-0.282,0.191-0.622,0.282-0.954,0.242
		l-43.714-4.965c-0.549-0.071-1.01-0.453-1.171-0.977l-6.375-21c-1.068-0.146-2.014-0.222-2.8-0.222c-0.811,0-1.75,0.07-2.818,0.222
		l-6.192,20.39c-0.146,0.478-0.539,0.841-1.025,0.947l-43.449,9.689c-0.098,0.02-0.201,0.03-0.305,0.03
		c-0.28,0-0.559-0.086-0.798-0.252l-1.576-1.098l-4.726-3.309v-0.01l-1.901-1.334c0.136,0.428,0.29,0.851,0.441,1.269l-0.005,0.005
		c0.368,1.093,4.026,11.623,11.467,21.931l17.056-5.232c4.487-6.919,10.877-13.778,15.417-14.02c0.801-0.035,1.601-0.055,2.402-0.06
		c2.11,0.01,4.218,0.141,6.31,0.393c-1.669-1.511-2.012-3.293-2.256-4.079c0,0,5.794,4.527,13.171,3.581
		c7.378-0.952,11.96-5.202,11.96-5.202s-0.02,3.102-3.238,5.499c6.184-1.868,8.742-2.508,10.492-2.508
		c1.929,0,2.883,0.806,3.716,1.521c0.159,0.131,0.322,0.267,0.506,0.423l12.141,9.608l11.943,1.284
		c2.228,0.201,4.245,0.373,6.217,0.373c0.637,0,1.234-0.025,1.798-0.065c2.556-4.875,4.857-10.404,6.806-16.649
		c0.267-0.967,0.514-1.934,0.743-2.901L172.327,139.067z M157.295,87.477c-0.01-0.008-0.02-0.013-0.03-0.013l-9.827-0.65
		l-13.667-0.667c-0.511,0.75-1.035,1.493-1.574,2.223c-2.48,3.356-7.398,9.5-13.703,14.73c8.926-1.599,24.409-5.56,37.802-14.904
		l1-0.718V87.477z M127.418,88.404l1.045-1.342c-3.243,0.33-6.469,0.801-9.671,1.41c-10.812,2.024-20.798,5.388-29.1,8.835
		c6.176-0.3,12.358-0.451,18.539-0.453c3.908,0,7.71,0.065,11.406,0.174c3.178-3.054,5.859-6.182,7.79-8.624H127.418z
		 M131.006,190.488c-4.505-0.332-8.599-2.206-11.905-5.474L118.6,184.5c-1.611,0.322-3.243,0.559-4.88,0.705
		c-0.7,0.02-1.362,0.086-2.09,0.086l-1.085,0.01l-0.413-0.01c-4.394,6.542-14.158,7.811-14.604,7.871
		c-0.403,0.04-0.733,0.101-1.191,0.181c5.444,1.491,10.996,2.14,16.475,1.773c5.492-0.368,12.627-1.561,20.196-4.628H131.006z
		 M113.604,183.03c1.058-0.086,2.118-0.222,3.185-0.383c-1.214-1.259-2.405-2.548-3.568-3.857l-1.921,4.341h0.244
		C112.202,183.131,112.922,183.06,113.604,183.03L113.604,183.03z M110.25,104.395c1.828-1.103,3.583-2.364,5.25-3.711l-7.277-0.071
		c-9.407,0-18.809,0.355-28.188,1.06c-8.601,4.207-13.876,7.672-14,7.763l-8.266,5.509l5.678-8.148
		c0.937-1.35,1.931-2.639,2.956-3.857c-9.535,1.068-17.477,2.332-23.399,3.424l3.039,24.63l10.452,7.317l33.184-7.372l6.212-20.466
		c0.103-0.337,0.33-0.624,0.627-0.796c0.098-0.06,0.204-0.111,0.315-0.141c0.194-0.05,3.5-0.997,7.337-1.46l6.093-3.681H110.25z
		 M114.068,85.609l-6.939-0.063l-10.19,0.111l-6.27,2.969c-0.005,0.005-0.04,0.02-0.088,0.048
		c-0.942,0.461-9.173,4.613-16.92,12.021c6.944-3.651,17.147-8.417,29.155-12.114c3.596-1.103,7.365-2.12,11.25-2.974
		L114.068,85.609z M70.251,98.76c3.251-3.225,6.604-5.887,9.566-7.967c-11.414,2.649-21.921,6.542-31.127,10.777
		c5.99-0.967,13.242-1.977,21.559-2.81H70.251z M72.411,88.809c3.825-1.07,7.77-2.009,11.812-2.795l-17.391,0.808L56.765,87.49
		l-5.006,0.443c-0.476,0.048-0.942,0.098-1.42,0.161c-4.369,2.614-21.125,13.133-32.63,26.891
		c11.182-7.77,30.656-19.443,54.702-26.174V88.809z M41.561,143.01c-0.219-0.7-0.426-1.395-0.622-2.1l-5.162-3.616
		c-0.325-0.222-0.539-0.574-0.587-0.967l-2.515-20.451c-1.866,1.002-4.019,2.226-4.593,2.704c-0.496,0.413-0.874,1.46-0.335,6.335
		c0.667,6.003,3.711,17.333,5.348,18.98C35.063,144.244,39.421,143.639,41.561,143.01z M37.744,91.649l-7.05,1.47l0.831,3.127
		c2.017-1.609,4.092-3.142,6.222-4.598H37.744z"/>
</g>
</svg>
