<?xml version="1.0" encoding="UTF-8" standalone="no"?>
<!-- Generator: Gravit.io -->
<svg xmlns="http://www.w3.org/2000/svg" xmlns:xlink="http://www.w3.org/1999/xlink" style="isolation:isolate" viewBox="0 0 428.9 423.3" width="428.9px" height="423.3px">
<defs>
<clipPath id="_clipPath_8TWIgR1z3pxinjWBiigzcEIrVJKv9Gq4">
<rect width="428.9" height="423.3"/>
</clipPath>
</defs>
<g clip-path="url(#_clipPath_8TWIgR1z3pxinjWBiigzcEIrVJKv9Gq4)">
<path d=" M282.9,415.2l145.3-404c2.5-6.9-1.4-11.8-8.7-11.1l-114.3,11c-7.2,0.7-15.1,6.8-17.5,13.7L153.3,410.9
	c-2.4,6.9,1.6,12.5,8.9,12.5h111.2c3.6,0,7.6-2.8,8.8-6.2L282.9,415.2z" fill="rgb(83,107,138)"/>
<defs>
<filter id="Hmac7mZraFWHw0G84Yxj4QuzeTFp0E7Y" x="-200%" y="-200%" width="400%" height="400%" filterUnits="objectBoundingBox" color-interpolation-filters="sRGB">
<feGaussianBlur xmlns="http://www.w3.org/2000/svg" in="SourceGraphic" stdDeviation="6.440413594258542"/>
<feOffset xmlns="http://www.w3.org/2000/svg" dx="0" dy="0" result="pf_100_offsetBlur"/>
<feFlood xmlns="http://www.w3.org/2000/svg" flood-color="#000000" flood-opacity="0.65"/>
<feComposite xmlns="http://www.w3.org/2000/svg" in2="pf_100_offsetBlur" operator="in" result="pf_100_dropShadow"/>
<feBlend xmlns="http://www.w3.org/2000/svg" in="SourceGraphic" in2="pf_100_dropShadow" mode="normal"/>
</filter>
</defs>
<g filter="url(#Hmac7mZraFWHw0G84Yxj4QuzeTFp0E7Y)">
<path d=" M266.3,417.1l-60.5-174.7l8.6-5.4L276,415.2L266.3,417.1z" fill="rgb(235,235,235)"/>
</g>
<path d="M9.4,0.1l114.3,11c7.2,0.7,15.1,6.8,17.5,13.7l137.3,392.3c1.2,3.4-0.8,6.2-4.4,6.2H162.1
	c-7.3,0-15.2-5.6-17.7-12.4L0.7,11.2C-1.7,4.4,2.2-0.6,9.4,0.1z" fill="rgb(93,135,191)"/>
</g>
</svg>
