<?xml version="1.0" encoding="utf-8"?>
<!-- Generator: Adobe Illustrator 16.0.3, SVG Export Plug-In . SVG Version: 6.00 Build 0)  -->
<!DOCTYPE svg PUBLIC "-//W3C//DTD SVG 1.1//EN" "http://www.w3.org/Graphics/SVG/1.1/DTD/svg11.dtd">
<svg version="1.1" id="Layer_1" xmlns="http://www.w3.org/2000/svg" xmlns:xlink="http://www.w3.org/1999/xlink" x="0px" y="0px"
	 width="282.352px" height="250.267px" viewBox="8.324 24.608 282.352 250.267"
	 enable-background="new 8.324 24.608 282.352 250.267" xml:space="preserve">
<g>
	<defs>
		<path id="SVGID_1_" d="M290.676,50.276l-25.668,44.92l-7.299,12.834h-17.326l-22.107,41.792
			c1.188,5.133,1.813,10.476,1.813,15.963c0,29.903-18.609,55.443-44.84,65.742c-0.802,0.321-1.604,0.61-2.406,0.883L149.5,274.875
			l-23.342-42.465c-0.802-0.272-1.604-0.562-2.375-0.866c-26.262-10.412-44.872-35.92-44.872-65.759
			c0-5.504,0.642-10.861,1.813-15.995l-21.979-41.76H41.42l-7.428-12.834L8.324,50.276H82.12l12.032,23.855l0.61,0.401
			c0-0.128,0.225-0.273,0.24-0.401c2.519-27.754,25.941-49.524,54.385-49.524c28.444,0,51.866,21.77,54.386,49.572
			c0,0.112-0.354,0.257-0.354,0.385l-0.16-0.385l13.62-23.904H290.676z"/>
	</defs>
	<clipPath id="SVGID_2_">
		<use xlink:href="#SVGID_1_"  overflow="visible"/>
	</clipPath>
	<g clip-path="url(#SVGID_2_)">
		<path fill="#9E9E9E" d="M244.906,93.592l-6.866,14.438h19.572l0.962-1.636l7.22-12.802h-21.016H244.906z M53.725,93.592H33.11
			l8.31,14.438h19.283l-6.946-14.438H53.725z"/>
		<path fill="#424242" d="M290.676,50.276l-25.668,44.92H247.04l-28.765,54.626L149.5,274.875L80.725,149.79L51.96,95.196H33.992
			L8.324,50.276H82.12l12.032,23.855l39.145,71.391l15.994,29.326l15.466-29.326L203.26,74.18l13.62-23.904"/>
		<g>
			<path fill="#FFFFFF" fill-opacity="0.2" d="M83.019,51.881H9.222l-0.898-1.604H82.12L83.019,51.881z M216.88,50.276l-0.883,1.604
				h73.765l0.914-1.604H216.88z"/>
			<path fill="#263238" fill-opacity="0.2" d="M258.655,106.394l-0.931,1.636h-17.422l-22.027,41.792L149.5,274.875L80.725,149.79
				l-21.979-41.76H41.308l-0.898-1.604h18.337l0.85,1.604l21.128,40.155L149.5,273.271l68.775-125.054l21.176-40.188l0.867-1.636"/>
		</g>
	</g>
</g>
<g>
	<defs>
		<path id="SVGID_3_" d="M290.676,50.276l-25.668,44.92l-7.299,12.834h-17.326l-22.107,41.792
			c1.188,5.133,1.813,10.476,1.813,15.963c0,29.903-18.609,55.443-44.84,65.742c-0.802,0.321-1.604,0.61-2.406,0.883L149.5,274.875
			l-23.342-42.465c-0.802-0.272-1.604-0.562-2.375-0.866c-26.262-10.412-44.872-35.92-44.872-65.759
			c0-5.504,0.642-10.861,1.813-15.995l-21.979-41.76H41.42l-7.428-12.834L8.324,50.276H82.12l12.032,23.855l0.61,0.401
			c0-0.128,0.225-0.273,0.24-0.401c2.519-27.754,25.941-49.524,54.385-49.524c28.444,0,51.866,21.77,54.386,49.572
			c0,0.112-0.354,0.257-0.354,0.385l-0.16-0.385l13.62-23.904H290.676z"/>
	</defs>
	<clipPath id="SVGID_4_">
		<use xlink:href="#SVGID_3_"  overflow="visible"/>
	</clipPath>
	<g clip-path="url(#SVGID_4_)">
		<path fill="#FFFFFF" d="M176.773,165.785c0,15.08-12.193,27.271-27.273,27.271c-15.032,0-27.273-12.191-27.273-27.271
			c0-15.081,12.241-27.273,27.273-27.273C164.58,138.512,176.773,150.704,176.773,165.785z M173.564,82.362
			c0,13.284-10.781,24.064-24.064,24.064c-13.268,0-24.064-10.781-24.064-24.064c0-13.283,10.796-24.064,24.064-24.064
			C162.783,58.298,173.564,69.079,173.564,82.362z"/>
		<path fill="#4285F4" d="M218.275,149.822c-3.609-15.594-12.354-29.198-24.385-38.936c6.369-8.952,10.154-19.893,10.154-31.733
			c0-1.685-0.08-3.337-0.24-4.973c-2.486-27.818-25.861-49.572-54.305-49.572c-28.444,0-51.786,21.754-54.305,49.524
			c-0.161,1.653-0.241,3.337-0.241,5.021c0,11.84,3.77,22.781,10.171,31.733c-12.032,9.738-20.792,23.326-24.385,38.904
			c-1.203,5.134-1.829,10.491-1.829,15.995c0,29.903,18.61,55.475,44.872,65.775c7.958,3.096,16.637,4.813,25.717,4.813
			s17.775-1.717,25.748-4.846c26.23-10.299,44.84-35.839,44.84-65.742C220.088,160.298,219.446,154.955,218.275,149.822z
			 M149.5,59.902c12.4,0,22.46,10.059,22.46,22.459c0,12.401-10.06,22.46-22.46,22.46c-12.385,0-22.46-10.059-22.46-22.46
			C127.04,69.961,137.115,59.902,149.5,59.902z M149.5,191.453c-14.15,0-25.668-11.486-25.668-25.668
			c0-8.23,3.882-15.563,9.915-20.263c4.332-3.369,9.818-5.406,15.754-5.406c5.936,0,11.422,2.021,15.77,5.406
			c6.049,4.7,9.898,12.032,9.898,20.263C175.168,179.967,163.682,191.453,149.5,191.453z"/>
		<g>
			<path fill="#FFFFFF" fill-opacity="0.2" d="M204.045,79.153v0.802c-0.449-29.759-24.705-53.743-54.545-53.743
				c-29.839,0-54.112,23.984-54.545,53.743v-0.802c0-30.128,24.417-54.545,54.545-54.545
				C179.629,24.608,204.045,49.025,204.045,79.153z M104.42,111.479c-15.562,12.915-25.508,32.455-25.508,54.306v0.801
				c0.241-21.85,10.428-41.31,26.214-54.096l0.738-0.593l-0.738-0.963l-0.706,0.642V111.479z M194.58,111.479l-0.705-0.593
				l-0.738,1.011l0.738,0.642c15.801,12.834,25.988,32.246,26.213,54.064v-0.802c0-21.818-9.946-41.391-25.508-54.225V111.479z"/>
			<path fill="#263238" fill-opacity="0.2" d="M220.088,164.982v0.803c0,38.983-31.604,70.588-70.588,70.588
				c-38.984,0-70.588-31.604-70.588-70.588v-0.803c0.433,38.615,31.877,69.786,70.588,69.786
				C188.211,234.769,219.655,203.598,220.088,164.982z M94.955,78.352v0.802c0,12.289,4.059,23.631,10.909,32.728
				c0.256-0.161,0.513-0.385,0.802-0.578C99.479,102.207,95.147,90.769,94.955,78.352z M204.045,78.352
				c-0.191,12.433-4.523,23.855-11.711,32.952c0.289,0.192,0.546,0.401,0.803,0.594c6.85-8.984,10.908-20.375,10.908-32.728v-0.802
				V78.352z"/>
		</g>
	</g>
</g>
<radialGradient id="SVGID_5_" cx="105.8081" cy="114.3457" r="185.4394" gradientTransform="matrix(1.6043 0 0 -1.6043 -157.8129 236.526)" gradientUnits="userSpaceOnUse">
	<stop  offset="0" style="stop-color:#FFFFFF;stop-opacity:0.1"/>
	<stop  offset="1" style="stop-color:#FFFFFF;stop-opacity:0"/>
</radialGradient>
<path fill="url(#SVGID_5_)" d="M290.676,50.276l-25.668,44.92l-7.299,12.834h-17.406l-22.027,41.792
	c1.188,5.133,1.813,10.476,1.813,15.963c0,29.903-18.609,55.443-44.84,65.742c-0.801,0.321-1.604,0.61-2.406,0.883L149.5,274.875
	l-23.342-42.465c-0.802-0.272-1.604-0.562-2.375-0.866c-26.262-10.412-44.872-35.92-44.872-65.759
	c0-5.504,0.642-10.861,1.813-15.995l-21.979-41.76H41.42l-7.428-12.834L8.324,50.276H82.12l12.032,23.855l0.61,0.401
	c0-0.128,0.225-0.273,0.24-0.401c2.519-27.754,25.941-49.524,54.385-49.524c28.444,0,51.866,21.77,54.386,49.572
	c0,0.112-0.354,0.257-0.354,0.385l-0.16-0.385l13.62-23.904H290.676z"/>
</svg>
