<?xml version="1.0" encoding="utf-8"?>
<!-- Generator: Adobe Illustrator 16.0.3, SVG Export Plug-In . SVG Version: 6.00 Build 0)  -->
<!DOCTYPE svg PUBLIC "-//W3C//DTD SVG 1.1//EN" "http://www.w3.org/Graphics/SVG/1.1/DTD/svg11.dtd">
<svg version="1.1" id="Layer_1" xmlns="http://www.w3.org/2000/svg" xmlns:xlink="http://www.w3.org/1999/xlink" x="0px" y="0px"
	 width="107.75px" height="44.736px" viewBox="6.125 7.632 107.75 44.736" enable-background="new 6.125 7.632 107.75 44.736"
	 xml:space="preserve">
<path fill="#FFD814" d="M6.125,7.632l22.3,44.736L50.86,7.632H6.125z M31.067,16.612h2.595V19.2h-2.595V16.612z M25.9,27.015h-2.595
	V24.4H25.9V27.015z M25.9,23.115h-2.595V20.5H25.9V23.115z M25.9,19.215h-2.595V16.6H25.9V19.215z M29.818,30.855h-2.624v-2.574
	h2.624V30.855z M29.818,26.955h-2.624V24.4h2.624V26.955z M29.818,23.055h-2.624V20.5h2.624V23.055z M29.818,19.148h-2.624V16.6
	h2.624V19.148z M31.095,20.443H33.7v2.596h-2.624L31.095,20.443z M31.095,26.927V24.4H33.7v2.596L31.095,26.927z"/>
<polygon points="59.152,37.598 64.36,19.65 68.591,19.65 62.162,41.223 56.142,41.223 49.712,19.65 53.944,19.65 "/>
<path d="M80.367,41.182H77.13l-0.289-1.027c-1.395,0.906-3.021,1.388-4.684,1.389c-2.875,0-4.1-1.973-4.1-4.686
	c0-3.205,1.387-4.428,4.592-4.428h3.779v-1.654c0-1.744-0.482-2.361-3-2.361c-1.469,0.015-2.93,0.177-4.365,0.482l-0.482-3
	c1.76-0.485,3.576-0.733,5.402-0.739c4.949,0,6.398,1.745,6.398,5.698L80.367,41.182z M76.421,35.234h-2.918
	c-1.293,0-1.653,0.359-1.653,1.551c0,1.19,0.36,1.582,1.582,1.582c1.047-0.014,2.069-0.293,2.979-0.813L76.421,35.234z"/>
<path d="M86.57,25.434v10.992c0,0.842,0.361,1.264,1.266,1.264c1.443-0.162,2.842-0.612,4.107-1.323V25.436h3.945v15.749h-3
	l-0.4-1.367c-1.951,0.992-4.09,1.566-6.275,1.687c-2.621,0-3.555-1.84-3.555-4.654V25.444L86.57,25.434z"/>
<polygon points="97.984,41.172 97.984,18.992 101.929,18.448 101.929,41.181 "/>
<path d="M113.701,40.852c-1.113,0.392-2.283,0.601-3.463,0.616c-2.877,0-4.336-1.356-4.336-4.17v-8.773h-2.361v-3.082h2.361v-3.912
	l3.936-0.556v4.47h4.037l-0.248,3.082h-3.799v8.219c-0.09,0.679,0.389,1.302,1.068,1.39c0.115,0.016,0.232,0.014,0.35-0.004
	c0.668-0.02,1.33-0.125,1.971-0.318L113.701,40.852z"/>
</svg>
