<svg width="150" height="44" viewBox="0 0 150 44" fill="none" xmlns="http://www.w3.org/2000/svg">
<g clip-path="url(#clip0_2275_3153)">
<g clip-path="url(#clip1_2275_3153)">
<path d="M22.7168 17.7676L27.9767 26.8981L42.9954 0.55356L32.5573 0.505859L22.7168 17.7676Z" fill="#F27405"/>
<path d="M6.40234 16.5496L21.421 42.8965L26.681 33.7637L16.8405 16.502L6.40234 16.5496Z" fill="#F27405"/>
<path d="M26.0826 2.78125H6.58555C1.87319 2.78125 -1.09193 7.85754 1.22336 11.9595H20.9022L26.0803 2.78125H26.0826Z" fill="#F27405"/>
<path d="M93.2143 35.2943C92.9098 34.9717 92.5441 34.7219 92.1194 34.5424C91.6942 34.363 91.2263 34.2744 90.7153 34.2744C90.2037 34.2744 89.7493 34.363 89.3247 34.5424C88.9 34.7219 88.5319 34.9717 88.2227 35.2943C87.9136 35.6168 87.6727 36.0051 87.4977 36.4616C87.3227 36.9182 87.2363 37.2135 87.2363 37.7699C87.2363 38.3264 87.3203 38.8329 87.4912 39.294C87.6616 39.755 87.8978 40.1479 88.2023 40.475C88.5068 40.8021 88.8726 41.0542 89.2972 41.2336C89.7225 41.413 90.195 41.5016 90.7153 41.5016C91.2357 41.5016 91.7192 41.413 92.1468 41.2336C92.5715 41.0542 92.9372 40.8021 93.2417 40.475C93.5462 40.1479 93.7778 39.755 93.9394 39.294C94.1004 38.8329 94.1803 38.3241 94.1803 37.7699C94.1803 37.2157 94.094 36.9182 93.9254 36.4616C93.7551 36.0051 93.5188 35.6168 93.2143 35.2943ZM91.7694 39.2395C91.5238 39.6028 91.1721 39.7823 90.7153 39.7823C90.2586 39.7823 89.9039 39.6006 89.6542 39.2395C89.404 38.876 89.2768 38.3877 89.2768 37.7699C89.2768 37.1522 89.4017 36.8773 89.6542 36.523C89.9039 36.1687 90.2586 35.9915 90.7153 35.9915C91.1721 35.9915 91.5238 36.1687 91.7694 36.523C92.015 36.8773 92.1398 37.1522 92.1398 37.7699C92.1398 38.3877 92.0173 38.8783 91.7694 39.2395Z" fill="#C1C1C1"/>
<path d="M93.9292 34.4816V32.7055L90.7302 30.9316L87.5312 32.7055V34.4816L90.7302 32.7055L93.9292 34.4816Z" fill="#C1C1C1"/>
<path d="M104.011 39.8506C103.781 39.8914 103.561 39.9119 103.345 39.9119C102.897 39.9119 102.6 39.787 102.452 39.5349C102.305 39.285 102.229 38.9489 102.229 38.5287V36.296H104.633V34.6312H102.229V32.2146L100.227 33.2911V34.6312H97.1831V34.0316C97.1831 33.843 97.2035 33.6682 97.2443 33.5069C97.2851 33.3457 97.3511 33.2071 97.4467 33.0913C97.5401 32.9754 97.6696 32.8823 97.8352 32.8165C98.0009 32.7483 98.2056 32.7165 98.4466 32.7165C98.5965 32.7165 98.7575 32.7324 98.9301 32.7597C99.0824 32.7824 99.2871 32.821 99.3846 32.8709L99.7188 31.2788C99.3846 31.1107 98.8053 31.0562 98.8053 31.0562C98.6256 31.0357 98.4396 31.0244 98.2441 31.0244C97.2332 31.0244 96.4696 31.2924 95.954 31.8307C95.4383 32.3667 95.1816 33.0935 95.1816 34.0066V41.445H97.1831V36.2983H100.227V38.5582C100.227 39.0147 100.271 39.4304 100.355 39.8074C100.439 40.1844 100.589 40.5047 100.805 40.7682C101.021 41.0317 101.307 41.2383 101.664 41.386C102.023 41.5336 102.475 41.6085 103.02 41.6085C103.45 41.6085 103.813 41.5722 104.108 41.5018C104.404 41.4291 104.672 41.3451 104.915 41.2474L104.633 39.6893C104.445 39.762 104.238 39.8165 104.009 39.8574L104.011 39.8506Z" fill="#C1C1C1"/>
<path d="M86.3854 39.8877C86.2944 39.8877 86.2034 39.8672 86.106 39.8355C86.0809 39.8263 86.0534 39.8173 86.0284 39.8082C85.8854 39.7446 85.7764 39.6651 85.6988 39.5674C85.6218 39.4698 85.5716 39.3471 85.5442 39.204C85.5174 39.0609 85.5034 38.8997 85.5034 38.7203V30.8594L83.502 31.8519V39.1245C83.502 39.5016 83.5404 39.8377 83.6157 40.1375C83.6904 40.4373 83.8339 40.6917 84.045 40.903C84.2562 41.1141 84.5426 41.2777 84.9037 41.3936C85.1989 41.4889 85.5652 41.5457 86.0056 41.5707L86.285 41.582C86.285 41.582 86.2967 41.582 86.3031 41.582C86.3101 41.582 86.3148 41.582 86.3218 41.582C86.6829 41.5798 86.9168 41.5616 87.2143 41.4685C87.2825 41.448 87.3461 41.4231 87.4056 41.3958L86.5487 39.8854C86.4898 39.8922 86.46 39.8922 86.3807 39.89L86.3854 39.8877Z" fill="#C1C1C1"/>
<path d="M52.6398 36.7121C52.5103 36.5077 52.3266 36.3487 52.088 36.2329C51.8494 36.1193 51.5379 36.0625 51.1541 36.0625C50.9202 36.0625 50.7067 36.0852 50.5136 36.1307C50.3205 36.1761 50.1542 36.2306 50.0113 36.2964C49.8678 36.3623 49.75 36.4259 49.6543 36.4872C49.5592 36.5486 49.4957 36.594 49.4636 36.619C49.1772 36.2488 48.714 36.0625 48.0752 36.0625C47.5934 36.0625 47.2008 36.0943 46.8987 36.1602C46.5965 36.226 46.3486 36.2828 46.1602 36.3351V41.207H46.7937V36.7734C46.8532 36.7484 46.9867 36.7189 47.1985 36.6848C47.4097 36.653 47.6687 36.6372 47.9755 36.6372C48.2479 36.6372 48.4684 36.678 48.6341 36.7598C48.8003 36.8416 48.9298 36.9619 49.0208 37.1209C49.1112 37.2799 49.1731 37.4821 49.1999 37.7273C49.2297 37.9704 49.2431 38.2588 49.2431 38.5905V41.207H49.8772V38.3361C49.8772 38.1021 49.8637 37.8795 49.834 37.6683C49.8042 37.4571 49.7611 37.2663 49.7022 37.0959C49.7342 37.071 49.7885 37.0301 49.8637 36.9778C49.9384 36.9256 50.0341 36.8734 50.1519 36.8211C50.2703 36.7689 50.4068 36.7257 50.5678 36.6894C50.7271 36.653 50.9044 36.6348 51.0998 36.6348C51.3588 36.6348 51.5723 36.6758 51.7333 36.7575C51.8972 36.8393 52.0221 36.9597 52.1107 37.1186C52.1994 37.2776 52.256 37.4798 52.2857 37.7251C52.3149 37.9681 52.3289 38.2566 52.3289 38.5882V41.2047H52.9624V38.3837C52.9624 38.0453 52.9402 37.7319 52.8947 37.4457C52.8492 37.1595 52.7606 36.9142 52.6311 36.7075L52.6398 36.7121Z" fill="#C1C1C1"/>
<path d="M57.2018 36.5754C57.0583 36.4096 56.8699 36.2802 56.6406 36.1848C56.4085 36.0894 56.1267 36.0439 55.7954 36.0439C55.4635 36.0439 55.1911 36.0666 54.9589 36.1121C54.7273 36.1575 54.557 36.2075 54.4456 36.2574L54.5342 36.8139C54.6182 36.7821 54.7524 36.7389 54.9338 36.6867C55.1158 36.6345 55.3929 36.6095 55.7633 36.6095C56.0246 36.6095 56.2335 36.6504 56.3927 36.7321C56.552 36.8139 56.6768 36.9206 56.7631 37.0546C56.8518 37.1886 56.9084 37.3386 56.9335 37.5043C56.9609 37.6702 56.972 37.8405 56.972 38.0177V38.3311C56.9446 38.3175 56.8996 38.3038 56.8314 38.288C56.7631 38.2721 56.6815 38.2561 56.5881 38.2402C56.4948 38.2243 56.3951 38.2107 56.2953 38.2016C56.1926 38.1926 56.0976 38.188 56.0066 38.188C55.6997 38.188 55.418 38.2175 55.1566 38.2766C54.8953 38.3356 54.6725 38.4288 54.4841 38.5559C54.2956 38.6831 54.1481 38.8444 54.0436 39.0397C53.9386 39.2351 53.8867 39.469 53.8867 39.7415C53.8867 40.0141 53.9346 40.2707 54.0273 40.4683C54.123 40.6683 54.2525 40.8295 54.4181 40.9567C54.5844 41.0839 54.7798 41.177 55.0044 41.2361C55.2296 41.2951 55.4746 41.3246 55.7429 41.3246C55.9517 41.3246 56.1541 41.3156 56.3542 41.2997C56.552 41.2837 56.7334 41.261 56.895 41.2361C57.056 41.211 57.2018 41.1861 57.3243 41.1634C57.4468 41.1407 57.5425 41.1202 57.6084 41.0998V37.9154C57.6084 37.6497 57.5763 37.4021 57.5104 37.1727C57.4445 36.9456 57.3401 36.748 57.1971 36.5822L57.2018 36.5754ZM56.9766 40.6614C56.8471 40.6864 56.6879 40.7091 56.5018 40.725C56.3157 40.7409 56.0999 40.75 55.852 40.75C55.6496 40.75 55.4705 40.7318 55.3112 40.6955C55.152 40.6591 55.0161 40.6024 54.9 40.5251C54.7862 40.4479 54.6976 40.3434 54.6363 40.2117C54.5751 40.0822 54.543 39.921 54.543 39.7325C54.543 39.5167 54.5885 39.3464 54.6795 39.2146C54.7705 39.0851 54.8883 38.9829 55.0318 38.908C55.1747 38.833 55.3316 38.7853 55.4996 38.7626C55.6676 38.7399 55.8316 38.7286 55.9885 38.7286C56.2632 38.7286 56.4767 38.7467 56.6336 38.7831C56.7906 38.8194 56.9037 38.8535 56.9766 38.8853V40.6637V40.6614Z" fill="#C1C1C1"/>
<path d="M62.3257 36.4648C62.2143 36.3808 62.037 36.2899 61.7943 36.1967C61.5511 36.1013 61.2623 36.0559 60.9304 36.0559C60.5647 36.0559 60.2421 36.1218 59.958 36.2513C59.6739 36.3808 59.4353 36.5647 59.2399 36.7986C59.0451 37.0326 58.8969 37.312 58.7948 37.6345C58.6927 37.957 58.6426 38.3091 58.6426 38.6951C58.6426 39.1062 58.7038 39.4719 58.8246 39.799C58.9447 40.1238 59.1127 40.4009 59.3309 40.628C59.5491 40.8551 59.8104 41.03 60.1126 41.1504C60.4147 41.2708 60.7537 41.3298 61.1241 41.3298C61.5738 41.3298 61.9442 41.3003 62.2371 41.2413C62.5305 41.1822 62.7708 41.1209 62.9598 41.055V33.6348L62.3257 33.7529V36.467V36.4648ZM62.3257 40.6144C62.2277 40.6462 62.0825 40.678 61.8917 40.7075C61.701 40.737 61.4467 40.7507 61.1352 40.7507C60.5874 40.7507 60.1493 40.5735 59.8174 40.2192C59.4855 39.8649 59.3198 39.3561 59.3198 38.6906C59.3198 38.4113 59.349 38.1455 59.4085 37.8957C59.4674 37.6459 59.5607 37.4278 59.6926 37.2416C59.8221 37.0553 59.9924 36.9077 60.2059 36.7964C60.4171 36.6851 60.6807 36.6306 60.9922 36.6306C61.1422 36.6306 61.2851 36.6442 61.4216 36.6737C61.5575 36.7032 61.6852 36.7396 61.8031 36.7851C61.9215 36.8305 62.0236 36.8804 62.1122 36.9327C62.2009 36.9849 62.2732 37.0326 62.3327 37.078V40.6121L62.3257 40.6144Z" fill="#C1C1C1"/>
<path d="M66.2515 36.0443C65.972 36.0443 65.699 36.0988 65.4354 36.2056C65.1717 36.3123 64.9378 36.4781 64.7313 36.6984C64.5265 36.9187 64.3609 37.1959 64.2337 37.5229C64.1065 37.8522 64.043 38.2383 64.043 38.679C64.043 39.0628 64.0885 39.4171 64.1789 39.7374C64.2699 40.0599 64.4151 40.337 64.6176 40.5732C64.82 40.8072 65.0766 40.9889 65.3899 41.1206C65.7037 41.2523 66.0805 41.3159 66.5239 41.3159C66.8622 41.3159 67.158 41.2796 67.4076 41.2092C67.6579 41.1388 67.8305 41.0751 67.921 41.0229L67.8031 40.4756C67.7121 40.521 67.5645 40.5778 67.3621 40.6413C67.1603 40.7072 66.8873 40.739 66.542 40.739C65.9172 40.739 65.4605 40.5732 65.174 40.2416C64.8882 39.91 64.7336 39.4353 64.7156 38.8153H68.2622C68.2686 38.7698 68.2733 38.7199 68.2756 38.6699C68.2803 38.6177 68.2803 38.5654 68.2803 38.5132C68.2803 37.6728 68.096 37.0527 67.7279 36.6485C67.3598 36.2442 66.8669 36.042 66.2491 36.042L66.2515 36.0443ZM64.7383 38.2792C64.7517 38.0589 64.7949 37.8454 64.8695 37.6456C64.9448 37.4434 65.0492 37.2662 65.1834 37.114C65.3175 36.9619 65.4745 36.8392 65.6512 36.7484C65.8309 36.6575 66.0333 36.6121 66.2625 36.6121C66.6919 36.6121 67.0238 36.7575 67.2577 37.0505C67.4916 37.3435 67.617 37.7545 67.6281 38.2815H64.736L64.7383 38.2792Z" fill="#C1C1C1"/>
<path d="M75.3365 36.796C75.1411 36.5621 74.9025 36.3804 74.6184 36.2487C74.3344 36.1192 74.0118 36.0533 73.646 36.0533C73.3141 36.0533 73.0259 36.1011 72.7827 36.1941C72.5371 36.2895 72.3598 36.3781 72.2513 36.4622V33.6299L71.6172 33.748V41.0524C71.8056 41.1183 72.0465 41.1796 72.3393 41.2387C72.6328 41.2977 73.0032 41.3272 73.4529 41.3272C73.8234 41.3272 74.1617 41.2682 74.4639 41.1478C74.766 41.0274 75.0274 40.8525 75.2455 40.6254C75.4637 40.3983 75.634 40.1212 75.7524 39.7964C75.8726 39.4716 75.9321 39.1036 75.9321 38.6925C75.9321 38.3087 75.8819 37.9544 75.7799 37.6319C75.6795 37.3093 75.5296 37.0322 75.3342 36.796H75.3365ZM74.7596 40.2189C74.4277 40.5732 73.9867 40.7503 73.4419 40.7503C73.128 40.7503 72.876 40.7367 72.6847 40.7072C72.4916 40.6776 72.3487 40.6481 72.2513 40.6141V37.08C72.3102 37.0345 72.3825 36.9846 72.4712 36.9346C72.5599 36.8846 72.6625 36.8346 72.7804 36.787C72.8988 36.7415 73.0236 36.7029 73.1619 36.6757C73.3007 36.6484 73.4419 36.6325 73.5918 36.6325C73.905 36.6325 74.1664 36.687 74.3775 36.7983C74.5893 36.9096 74.7596 37.0573 74.8914 37.2435C75.0209 37.4297 75.116 37.6478 75.1749 37.8976C75.2344 38.1474 75.2636 38.4132 75.2636 38.6925C75.2636 39.3557 75.0979 39.8668 74.766 40.2211L74.7596 40.2189Z" fill="#C1C1C1"/>
<path d="M79.6242 37.3659C79.5355 37.7361 79.4422 38.0995 79.3471 38.4539C79.2515 38.8082 79.147 39.1647 79.0356 39.5213C78.9242 39.8779 78.7947 40.2595 78.6495 40.6615C78.4494 40.2709 78.2656 39.8757 78.0953 39.4714C77.9267 39.0671 77.7721 38.6742 77.6315 38.2903C77.491 37.9065 77.3655 37.534 77.2565 37.1728C77.1474 36.8117 77.0546 36.4755 76.984 36.1621H76.3091C76.4135 36.5846 76.5366 37.0161 76.6795 37.4568C76.8225 37.8951 76.9817 38.3358 77.1544 38.7741C77.327 39.2125 77.5131 39.6485 77.7132 40.0778C77.9133 40.5071 78.118 40.9204 78.3315 41.3179C78.2429 41.545 78.1519 41.7336 78.0562 41.8834C77.9611 42.0334 77.8567 42.156 77.7383 42.2491C77.6205 42.3445 77.4886 42.4104 77.3428 42.449C77.1975 42.4876 77.0319 42.508 76.8475 42.508C76.7157 42.508 76.5909 42.4899 76.4707 42.4536C76.35 42.4172 76.2753 42.3899 76.2502 42.3695L76.123 42.8964C76.1545 42.9169 76.2385 42.9442 76.3727 42.985C76.5069 43.0259 76.6545 43.0441 76.8184 43.0441C77.1065 43.0441 77.3568 43.0123 77.568 42.9464C77.7815 42.8806 77.9675 42.7806 78.1268 42.6443C78.2884 42.508 78.4336 42.3331 78.5631 42.122C78.6926 41.9107 78.8198 41.6586 78.9446 41.3656C79.2585 40.6252 79.5472 39.8098 79.8103 38.9172C80.074 38.0246 80.3125 37.1047 80.526 36.1621H79.8902C79.7969 36.5959 79.7059 36.9957 79.6172 37.3682L79.6242 37.3659Z" fill="#C1C1C1"/>
<path d="M51.6577 24.5128C50.717 22.6776 49.7605 20.5335 48.788 18.0646C47.8155 15.5958 46.9044 12.9111 46.041 10.0107H50.3921C50.5784 10.7194 50.7942 11.5075 51.0397 12.341C51.2873 13.1746 51.5486 14.0218 51.8122 14.8713C52.0734 15.7207 52.3529 16.552 52.6143 17.3697C52.8755 18.1873 53.1391 18.9119 53.4004 19.5751C53.648 18.9119 53.8934 18.1714 54.1729 17.3697C54.4501 16.5679 54.7296 15.7343 54.9909 14.8713C55.2521 14.0218 55.5157 13.1746 55.7634 12.341C56.0111 11.5075 56.2269 10.7216 56.4108 10.0107H60.6872C59.8239 12.9111 58.8964 15.5958 57.9403 18.0646C56.9673 20.5335 56.0111 22.6776 55.084 24.5128H51.6577Z" fill="#F27405"/>
<path d="M74.9881 20.5832C74.7857 20.6559 74.5681 20.724 74.3313 20.7853C73.9428 20.8875 73.5 20.9738 73.0024 21.0488C72.5025 21.1238 71.939 21.1601 71.3119 21.1601C70.3144 21.1601 69.4645 20.9988 68.7628 20.6763C68.0604 20.3538 67.4923 19.9154 67.0583 19.3612C66.6243 18.8071 66.311 18.1484 66.1156 17.3807C65.9225 16.6153 65.8245 16.2246 65.8245 15.3388C65.8245 14.2304 65.9727 13.2901 66.2678 12.5133C66.563 11.7389 66.9562 11.1051 67.445 10.6168C67.9333 10.1285 68.4968 9.77193 69.1349 9.55163C69.7713 9.32901 70.4235 9.22002 71.0891 9.22002C72.0866 9.22002 72.9773 9.33127 73.7637 9.55163C73.8751 9.58339 73.9795 9.61747 74.0863 9.64929L75.0406 5.97207C74.5564 5.82447 73.9999 5.69272 73.3635 5.57688C72.6979 5.45651 71.9594 5.39746 71.1463 5.39746C69.7416 5.39746 68.4402 5.62002 67.2403 6.06294C66.038 6.50585 65.0043 7.15769 64.1363 8.01623C63.2683 8.87477 62.5847 9.92638 62.0871 11.1733C61.5872 12.4202 61.3398 13.8375 61.3398 15.4251C61.3398 18.6208 62.1577 20.649 63.791 22.3843C65.4249 24.1196 67.8038 24.9872 70.9258 24.9872C72.3841 24.9872 73.668 24.8396 74.7769 24.5443C75.5288 24.3444 76.1606 24.1263 76.6833 23.8924L74.9904 20.59L74.9881 20.5832Z" fill="#F27405"/>
<path d="M83.6285 20.9494C83.506 20.9653 83.4424 20.9653 83.2738 20.9653C83.0743 20.9653 82.8877 20.9199 82.6876 20.8563C82.6263 20.8404 82.5785 20.8245 82.5336 20.795C82.2244 20.6564 81.9928 20.4861 81.8382 20.2862C81.6837 20.0863 81.5769 19.8229 81.5133 19.514C81.4521 19.2051 81.42 18.8667 81.42 18.4965V1.86621L77.1914 3.96484V19.33C77.1914 20.1318 77.269 20.8427 77.4393 21.4741C77.5939 22.1055 77.9025 22.646 78.3505 23.0935C78.7979 23.5409 79.3999 23.8794 80.1728 24.1269C80.7906 24.3268 81.5769 24.4517 82.5038 24.4971L83.0901 24.529H83.1671C83.94 24.529 84.4329 24.4836 85.0507 24.2814C85.1895 24.236 85.3277 24.1882 85.4532 24.1269L83.6308 20.9494H83.6285Z" fill="#F27405"/>
<path d="M97.982 24.0199C97.2867 24.2198 96.3778 24.406 95.2806 24.59C94.1851 24.7603 93.0132 24.8512 91.8086 24.8512C90.6046 24.8512 89.5546 24.6809 88.7368 24.3584C87.9189 24.0336 87.2714 23.5725 86.7919 22.9706C86.3124 22.3687 85.9741 21.6601 85.774 20.8424C85.5739 20.0089 85.4648 19.0981 85.4648 18.1124V10.013H89.5709V17.5877C89.5709 18.9141 89.7413 19.8703 90.0953 20.4563C90.45 21.0423 91.0998 21.3353 92.0565 21.3353C92.3493 21.3353 92.6585 21.3194 92.9968 21.2899C93.3218 21.2581 93.6152 21.2285 93.8765 21.1968V10.0107H97.982V24.0199Z" fill="#F27405"/>
<path d="M124.035 17.3701C124.035 16.089 124.235 14.9625 124.621 13.9904C125.023 13.0183 125.533 12.2165 126.18 11.5828C126.828 10.9355 127.568 10.4563 128.402 10.1179C129.236 9.7931 130.099 9.625 130.979 9.625C133.03 9.625 134.666 10.2564 135.855 11.5079C137.043 12.773 137.645 14.6241 137.645 17.0611C137.645 17.2928 137.629 17.554 137.613 17.847C137.597 18.1241 137.581 18.3876 137.552 18.6033H128.229C128.323 19.4528 128.722 20.116 129.418 20.6089C130.113 21.1017 131.054 21.3493 132.226 21.3493C132.983 21.3493 133.723 21.288 134.448 21.1495C135.173 21.0109 135.759 20.8406 136.223 20.6407L136.779 23.9726C136.563 24.0817 136.271 24.1884 135.9 24.2974C135.53 24.4065 135.127 24.4973 134.666 24.5904C134.218 24.6677 133.739 24.7449 133.217 24.7903C132.708 24.8516 132.183 24.8675 131.674 24.8675C130.363 24.8675 129.236 24.6677 128.264 24.2815C127.291 23.8954 126.505 23.3708 125.871 22.6917C125.239 22.0285 124.776 21.2267 124.467 20.3C124.19 19.421 124.035 18.433 124.035 17.3678V17.3701ZM133.696 15.796C133.68 15.4417 133.619 15.1011 133.51 14.7785C133.401 14.4538 133.248 14.1608 133.046 13.8995C132.831 13.6384 132.567 13.4362 132.244 13.2681C131.919 13.0978 131.519 13.0206 131.04 13.0206C130.56 13.0206 130.19 13.0978 129.852 13.2522C129.527 13.4067 129.25 13.6225 129.018 13.87C128.802 14.1312 128.632 14.4265 128.509 14.7649C128.386 15.1033 128.309 15.444 128.247 15.7983H133.696V15.796Z" fill="#F27405"/>
<path d="M148.729 13.6516C148.358 13.5584 147.927 13.4653 147.432 13.3586C146.939 13.2495 146.398 13.2041 145.827 13.2041C145.566 13.2041 145.257 13.22 144.9 13.2654C144.544 13.3109 144.269 13.3586 144.083 13.4199V24.4969H139.977V10.767C140.717 10.5059 141.581 10.2742 142.585 10.0425C143.59 9.81082 144.7 9.7041 145.934 9.7041C146.15 9.7041 146.428 9.72001 146.736 9.74951C147.045 9.78133 147.355 9.81082 147.677 9.85855C147.986 9.90396 148.295 9.96754 148.617 10.0289C148.927 10.0902 149.204 10.1675 149.42 10.2605L148.724 13.6538L148.729 13.6516Z" fill="#F27405"/>
<path d="M124.266 23.4182L122.508 20.5178C122.106 20.6722 121.674 20.7789 121.181 20.8721C120.702 20.9652 120.225 20.9947 119.777 20.9947C118.836 20.9947 118.202 20.7335 117.894 20.1929C117.584 19.6683 117.43 18.9597 117.43 18.0648V13.3587H122.508V9.8405H117.43V4.71875L113.201 6.98553V18.1238C113.201 19.0959 113.295 19.9749 113.463 20.7631C113.649 21.5648 113.955 22.228 114.419 22.8004C114.867 23.3568 115.485 23.7884 116.242 24.1109C116.998 24.4198 117.955 24.5743 119.111 24.5743C120.022 24.5743 120.793 24.497 121.41 24.3426C121.658 24.2813 121.903 24.2199 122.136 24.1427C122.876 23.9565 123.971 23.634 124.264 23.4182H124.266Z" fill="#F27405"/>
<path d="M111.21 18.9597C111.072 18.4963 110.84 18.0807 110.501 17.7105C110.163 17.3403 109.699 16.9859 109.113 16.6611C108.527 16.3363 107.786 16.0138 106.875 15.6731C106.427 15.5028 106.073 15.3484 105.78 15.2098C105.503 15.0712 105.271 14.9486 105.1 14.8237C104.93 14.701 104.823 14.5761 104.775 14.4535C104.714 14.3308 104.698 14.1763 104.698 14.006C104.698 13.2974 105.346 12.9271 106.627 12.9271C107.323 12.9271 107.954 12.9885 108.511 13.1271C109.067 13.2497 109.59 13.4041 110.07 13.5745L110.778 10.3811C110.299 10.1948 109.651 10.0268 108.849 9.8723C108.047 9.71785 107.198 9.64062 106.318 9.64062C104.559 9.64062 103.169 10.0427 102.151 10.8285C101.134 11.6144 100.638 12.6955 100.638 14.0537C100.638 14.7487 100.747 15.3506 100.947 15.8435C101.147 16.3363 101.44 16.7701 101.797 17.1245C102.167 17.4788 102.615 17.7877 103.14 18.0512C103.665 18.3123 104.251 18.5599 104.884 18.7916C105.719 19.1005 106.321 19.3776 106.736 19.641C107.138 19.8886 107.338 20.1816 107.338 20.5041C107.338 20.9198 107.184 21.2128 106.875 21.3536C106.566 21.508 106.025 21.5693 105.271 21.5693C104.562 21.5693 103.821 21.4921 103.094 21.3377C102.353 21.1833 101.645 20.9674 100.949 20.6904C100.702 20.5814 100.408 20.4587 100.254 20.3656V24.0223C100.579 24.1768 101.181 24.3471 102.028 24.5788C102.878 24.7946 103.957 24.9036 105.239 24.9036C107.2 24.9036 108.727 24.5334 109.808 23.8088C110.887 23.0684 111.428 21.9873 111.428 20.57C111.412 19.9522 111.351 19.4139 111.212 18.9665L111.21 18.9597Z" fill="#F27405"/>
</g>
</g>
<defs>
<clipPath id="clip0_2275_3153">
<rect width="150" height="44" fill="white"/>
</clipPath>
<clipPath id="clip1_2275_3153">
<rect width="150" height="44" fill="white"/>
</clipPath>
</defs>
</svg>
