<?xml version="1.0" encoding="utf-8"?>
<!-- Generator: Adobe Illustrator 26.0.2, SVG Export Plug-In . SVG Version: 6.00 Build 0)  -->
<svg version="1.1" id="svg1" xmlns:svg="http://www.w3.org/2000/svg"
	 xmlns="http://www.w3.org/2000/svg" xmlns:xlink="http://www.w3.org/1999/xlink" x="0px" y="0px" viewBox="0 0 512 65.1"
	 style="enable-background:new 0 0 512 65.1;" xml:space="preserve">
<style type="text/css">
	.st0{fill:#F29111;}
	.st1{fill:#00758A;}
</style>
<g>
	<path id="path19" class="st0" d="M48.8,0l-7.6,26h34.3V9.3c0-2.8-1.2-5.2-3.1-7c-0.8-0.7-1.7-1.3-2.7-1.7C68.7,0.2,67.5,0,66.3,0
		H48.8z M55.4,8.9h10.9c0.2,0,0.3,0.2,0.3,0.3c0,0,0,0,0,0v8H53L55.4,8.9z"/>
	<path id="path17" class="st1" d="M0,0l16.3,57.6c0.4,1.4,0.8,2.2,1.3,3c0.2,0.3,0.4,0.6,0.6,0.8c0.5,0.6,1.2,1.2,1.9,1.7
		c0.8,0.5,1.5,0.9,2.4,1.2c1,0.3,1.9,0.4,3.1,0.4h13.6l6-20.9h21.4v11.7c0,0.2-0.2,0.3-0.3,0.3l0,0H51l-2.6,8.9h17.8
		c2.4,0,4.5-0.9,6.1-2.3c2-1.7,3.2-4.1,3.2-7V34.9H38.7l-6,20.9H25L11.7,8.9h9.2L25.8,26H35L27.6,0H0z"/>
	<path id="path9" class="st0" d="M469,19.4l15.1,21.7l-15.9,23h10.3l11-16.6l10.7,16.6H512l-15.9-22.9l15.1-21.8h-10.5l-10.1,15.3
		l-10-15.3H469z"/>
	<path id="path8" class="st0" d="M416.3,46.3c0.1-1.9-0.2-3.6-0.6-5c-0.7-2.6-2-4.5-3.6-6c-0.9-0.9-2-1.6-3.1-2.2
		c-1.4-0.7-2.6-1.3-4.2-1.7c1.4-0.4,2.4-1,3.7-2c0.8-0.6,1.6-1.4,2.3-2.3c1.1-1.4,1.9-2.8,2.4-4.7c0.3-1.2,0.5-2.3,0.5-4
		c0-1.3-0.1-2.8-0.4-4c-0.4-1.8-1.1-3.5-1.9-4.8c-1.2-1.9-2.9-3.4-4.8-4.4c-1.6-0.9-3.2-1.4-4.9-1.9c-2.6-0.7-7-1-9-1h-22v61.8h20.8
		c1.8,0,4.4-0.1,6.2-0.3c5.7-0.6,10.5-2.2,13.7-5c1.1-1,2.7-2.7,3.8-5.5C415.8,51.5,416.2,49.3,416.3,46.3z M403.1,19.1
		c0,2.1-0.2,3.5-0.8,4.8c-0.8,1.6-2.2,2.7-3.8,3.4c-2,0.8-5.8,1.3-8.2,1.3h-9.5v-18h10.5c2.2,0,4.4,0.3,6.1,0.8
		C401,12.4,403.1,14.6,403.1,19.1z M393.2,55.8h-12.4V36.4h11.4c2.9,0,5.3,0.4,7.3,1.1c2.3,0.8,4.3,2.1,5.4,4.3
		c1.1,2.4,1.2,6.4-0.3,9.2c-0.8,1.4-2,2.6-4.2,3.5c-1.1,0.5-2.7,0.8-4.1,1.1C395.2,55.7,394.4,55.8,393.2,55.8z"/>
	<path id="path6" class="st0" d="M466.6,41.7c0-9.5-3.2-15.5-7.7-19c-4.1-3.1-9.2-4.3-14-4.3c-4.2,0-8.5,0.8-12.1,3
		c-3.3,1.9-6.5,5.4-8.2,10.4c-0.9,2.8-1.5,6.1-1.5,9.9c0,6.4,1.4,11.2,3.7,14.8c2.3,3.6,5.8,6,9.5,7.3c2.8,1,5.5,1.2,8.5,1.2
		c5.8,0,11.9-1.1,16.8-6.9c1.2-1.4,2.3-3.1,3-5.1C466.1,49.5,466.6,46.2,466.6,41.7z M456.3,41.7c0,13.4-6.6,15.3-11.4,15.3
		c-5.1,0-11.4-2.1-11.4-15.3c0-11.8,5.4-15.3,11.4-15.3C450.6,26.4,456.3,29.6,456.3,41.7z"/>
	<path id="path16" class="st1" d="M156,19.4v4.2l4.5,3.3v37.2h10.3V19.4H156z"/>
	<path id="path15" class="st1" d="M159,1.9v8.4h11.8V1.9H159z"/>
	<path id="path14" class="st1" d="M343.3,0.3v4.1l4.5,3.3v56.4h10.3V10.6V0.3h-10.3H343.3z"/>
	<path id="path13" class="st1" d="M336.2,64.1V34.4c0-7.3-2.6-11.7-7.2-13.9c-2.8-1.4-6.2-2-10.3-2c-3.6,0-6.8,0.5-9.4,1.1
		c-4.2,0.9-6.8,2.1-6.8,2.1v8c0,0,8-3.2,14.9-3.2c3.9,0,6.2,0.5,7.4,2.4c0.7,1,1.2,3,1.2,4.7V36h-9.2c-1.5,0-4.4,0.2-7.4,1.1
		c-1.5,0.4-3,1.1-4.4,1.9c-2.4,1.5-4.6,3.9-5.6,6.7c-0.5,1.5-0.9,3.2-0.9,5.3c0,4.9,1.5,7.7,3.5,9.8c3.3,3.5,7.7,4.3,11.4,4.3
		c6.6,0,10.5-3.2,12.2-4.9c0.6-0.6,2.3-2.7,2.3-2.7l1.4,6.7H336.2z M326.1,51.3c0,0-1.2,1.9-3.1,3.5c-1.3,1.1-3.5,2.1-5.6,2.5
		c-2,0.3-4.1,0.3-5.9-0.7c-1.7-1-3.2-3-3.2-5.8c0-1.2,0-2.1,0.3-3c0.4-1.5,1.4-2.5,2.4-3.3c1.1-0.8,2.4-1.3,4-1.6
		c1.4-0.2,2.9-0.2,4.4-0.2l3.2,0l3.4,0V51.3z"/>
	<path id="path12" class="st1" d="M289.3,64.1V19.4H279v29c0,0-1.2,2.9-3.5,5c-1.8,1.6-4.1,2.9-7.4,3.1c-3.7,0.2-5.9-1.5-7.1-4.1
		c-0.7-1.5-1.1-4.4-1.1-5.2V19.4h-10.3v27.1c0,5,0.8,8.7,2.2,11.2c3,5.6,8,7.4,13.5,7.2c6.1,0,10.2-2.8,12.3-4.7
		c1.1-1,3.1-3.4,3.1-3.4l1.6,7.2H289.3z"/>
	<path id="path11" class="st1" d="M240.8,64.1v-8c0,0-0.6,0.2-3.5,0.2c-1.1,0-3.4-0.1-4.8-1.4c-1.3-1.2-1.8-3.5-1.8-5.4V27.4h9.6v-8
		h-9.6V6.8h-6.6l-3.5,12.4l-8,3.1v5.1h7.7v21.9c0,4.4,0.6,6.9,1.7,9c0.8,1.7,1.9,2.9,3.2,3.8c2.6,1.8,5.8,2.4,8.6,2.4
		C240.5,64.5,240.8,64.1,240.8,64.1z"/>
	<path id="path10" class="st1" d="M207.2,28.8v-9.3c0.1-0.1-3.2-0.5-5.9-0.1c-1.6,0.3-3.3,0.9-4.4,1.6c-3.8,2.2-5.6,5.9-5.6,5.9
		l-1.7-7.5h-6.8v44.7h10.3V37.6c1.1-3.1,2.7-6,5.7-7.6c1.3-0.7,2.6-1.1,4.2-1.2C204.3,28.7,207.2,28.8,207.2,28.8z"/>
	<path id="path1" class="st1" d="M153.1,2.4h-11.4l-12,35.5c-1.9,5.7-4.5,13.2-4.5,13.2s-2.6-7.6-4.5-13.2l-12-35.5H96.8l22.9,61.8
		h10.4L153.1,2.4z"/>
</g>
</svg>
