<?xml version="1.0" encoding="utf-8"?>
<!-- Generator: Adobe Illustrator 26.0.2, SVG Export Plug-In . SVG Version: 6.00 Build 0)  -->
<svg version="1.1" id="svg1" xmlns:svg="http://www.w3.org/2000/svg"
	 xmlns="http://www.w3.org/2000/svg" xmlns:xlink="http://www.w3.org/1999/xlink" x="0px" y="0px" viewBox="0 0 512 437.8"
	 style="enable-background:new 0 0 512 437.8;" xml:space="preserve">
<style type="text/css">
	.st0{fill:#F29111;}
	.st1{fill:#00758A;}
</style>
<g>
	<path id="path19" class="st0" d="M330.6,0l-51.2,176.3H512v-113c0-18.7-8-35.6-20.8-47.1c-5.4-4.9-11.5-8.8-18.1-11.5
		C465.7,1.6,457,0,449,0H330.6z M375.6,60h74.2c1.3,0,2.4,1.1,2.4,2.4c0,0,0,0,0,0v54h-92.9L375.6,60z"/>
	<path id="path17" class="st1" d="M0,0l110.6,389.9c2.8,9.7,5.3,14.8,9,20.2c1.3,2,2.8,3.8,4.3,5.6c3.7,4.4,7.9,8.1,12.6,11.2
		c5.2,3.5,10.4,6.1,16.3,8c6.9,2.2,13,2.9,21.2,2.9h92.3l40.9-141.4h145v79c0,1.3-1.1,2.4-2.4,2.4l0,0H345.7l-17.4,60h120.6
		c16.4,0,30.6-5.8,41.6-15.5c13.2-11.6,21.5-28,21.5-47.7V236.4H262l-40.9,141.4h-51.7L79.3,60h62.3l33,116.3h62.2L186.8,0H0z"/>
</g>
</svg>
