<?xml version="1.0" encoding="utf-8"?>
<!-- Generator: Adobe Illustrator 16.0.3, SVG Export Plug-In . SVG Version: 6.00 Build 0)  -->
<!DOCTYPE svg PUBLIC "-//W3C//DTD SVG 1.1//EN" "http://www.w3.org/Graphics/SVG/1.1/DTD/svg11.dtd">
<svg version="1.1" id="Layer_1" xmlns="http://www.w3.org/2000/svg" xmlns:xlink="http://www.w3.org/1999/xlink" x="0px" y="0px"
	 width="115.35px" height="28.89px" viewBox="2.248 15.634 115.35 28.89" enable-background="new 2.248 15.634 115.35 28.89"
	 xml:space="preserve">
<g transform="matrix(.045784 0 0 .045784 1.795729 10.408673)">
	<path fill="#183861" d="M2059.372,421.946l8.66-10.313c23.228-30.075,23.59-63.925,10.281-96.635
		c-12.67-31.195-42.105-38.735-73.289-38.948c-24.913-0.181-49.826,0.619-74.697-0.363c-14.312-0.555-19.048,3.903-18.92,18.642
		l0.96,282.246c0,10.58,1.109,17.512,14.504,17.064c28.582-0.939,57.334,1.066,85.703-1.408
		c43.897-3.797,73.161-29.819,82.759-69.407C2106.404,477.009,2095.675,446.422,2059.372,421.946z M1973.413,360.538h0.106
		l0.021-16.584c0.32-21.714,14.099-30.15,32.677-19.378c15.848,9.193,16.594,25.041,16.594,41.198
		c0,15.998-5.034,29.435-19.581,36.879c-19.41,9.94-29.606,2.688-29.819-19.997V360.538L1973.413,360.538z M1988.259,549.957
		c-11.731-0.682-15.869-4.671-15.357-16.424c0.853-18.28-0.555-36.645,0.64-54.903c0.683-9.854-6.847-24.828,6.1-28.731
		c15.72-4.799,32.762-2.24,45.07,12.179c8.895,10.43,9.833,23.25,11.625,34.768C2037.061,533.533,2019.613,551.791,1988.259,549.957
		L1988.259,549.957z M736.084,523.849c16.072-78.174,34.97-154.172,34.938-232.985c-0.01-10.292,3.285-13.907,14.024-15.059
		c48.749-5.183,50.615-3.445,43.225,45.571c-12.595,83.581-29.851,166.169-50.018,248.247
		c-4.383,17.832-10.046,23.975-28.518,23.847c-62.688-0.341-63.083,0.469-77.256-60.491
		c-18.354-78.814-34.981-157.99-48.355-237.848c-2.485-14.888-0.875-18.952,14.846-19.421c48.771-1.461,48.973-2.176,57.1,45.059
		L727.2,505.612C728.255,511.968,728.319,518.559,736.084,523.849L736.084,523.849z M2318.443,427.641
		c-10.131-49.539-35.258-72.799-80.925-74.644c-52.663-2.154-84.999,20.402-98.266,68.98c-5.141,18.728-7.401,37.903-7.039,57.441
		c1.194,14.654,1.109,29.499,3.818,43.875c9.385,49.592,33.914,72.777,77.427,74.825c53.751,2.474,88.583-20.733,101.38-69.322
		C2323.648,495.523,2325.397,461.651,2318.443,427.641L2318.443,427.641z M2253.963,535.367
		c-3.434,12.136-12.371,20.434-26.491,20.284c-14.035-0.149-21.479-8.809-26.599-20.519c-8.446-19.303-5.631-39.951-7.38-60.022
		c1.237-20.156-1.237-40.793,7.593-59.894c5.311-11.572,13.95-20.434,27.366-19.901c12.286,0.491,20.434,9.268,23.825,20.338
		C2264.394,455.295,2265.226,495.48,2253.963,535.367L2253.963,535.367z M1439.358,568.748c-6.186,4.33-8.553,5.695-10.58,7.444
		c-20.477,17.832-42.894,29.307-70.41,17.917c-25.958-10.75-30.779-34.725-33.509-58.913c-1.984-17.405-3.05-34.874-3.199-52.365
		c-0.299-33.189,1.344-66.421,0.256-99.567c-0.64-19.645,4.351-26.161,25.809-27.217c28.497-1.418,35.962,7.135,34.213,35.002
		c-2.645,42.244-2.133,84.85-0.256,127.168c1.408,31.653,20.562,41.316,43.107,25.596c10.516-7.316,9.193-16.979,9.151-26.939
		c-0.256-46.094,0.725-92.251-1.515-138.26c-1.173-23.911,11.966-22.77,27.409-21.468c14.504,1.216,33.637-8.191,32.656,21.532
		c-2.069,62.624-0.448,125.376-1.514,188.043c-0.171,9.129,9.812,27.345-12.414,25.937
		C1462.906,591.678,1439.102,604.092,1439.358,568.748L1439.358,568.748z M1707.153,404.658
		c-2.581-25.169-18.578-43.033-42.809-48.621c-34.106-7.935-67.317-1.323-99.141,13.384c-13.907,6.431-7.871,16.957-6.612,25.937
		c1.578,11.443,10.58,11.23,19.069,8.521c16.04-5.14,32.507-7.295,49.016-5.012c22.652,3.167,24.977,20.029,25.596,38.98
		c0.682,21.202-14.526,13.502-24.743,15.379c-11.689,2.112-23.847,2.986-34.981,6.804c-32.485,11.07-48.056,36.346-50.296,68.98
		c-1.749,25.809,5.162,50.573,30.608,62.944c30.16,14.654,57.1,5.524,80.307-17.085c1.237-1.216,3.008-1.92,9.598-6.015
		c-3.626,29.051,14.824,23.996,29.862,24.188c8.447,0.128,16.808,1.067,16.531-11.902
		C1707.9,522.334,1713.233,463.358,1707.153,404.658L1707.153,404.658z M1622.453,553.753
		c-19.069,0.469-21.437-13.267-21.351-28.347c0.192-25.126,12.798-38.202,36.666-37.519c14.462,0.384,14.462,0.384,14.547,29.862
		C1656.026,538.588,1647.366,553.135,1622.453,553.753L1622.453,553.753z M2429.785,414.278
		c8.468-14.131,11.134-28.625,14.76-42.798c2.581-10.014,8.02-14.206,19.389-14.92c50.402-3.135,53.73-1.632,27.921,41.615
		c-26.748,44.878-29.222,84.978-0.896,129.002c12.201,18.941,18.984,41.358,30.289,66.869c-26.534-5.589-54.604,11.582-71.22-9.534
		c-13.928-17.725-16.872-44.067-25.446-68.853c-11.433,18.728-15.145,38.095-20.264,56.993
		c-4.479,16.509-51.533,30.693-63.733,19.175c-5.29-5.012-0.341-9.961,1.792-14.654l39.247-84.978
		c7.039-14.291,8.042-26.875,0.811-41.678c-12.457-25.521-22.396-52.279-34.618-77.96c-6.207-13.075-2.218-15.07,10.388-15.912
		c49.592-3.317,49.528-3.679,64.842,42.286C2424.708,403.858,2427.225,408.487,2429.785,414.278L2429.785,414.278z
		 M1234.688,326.015c-2.197,16.829-4.191,34.725,25.542,32.037c14.654-1.323,8.265,13.171,9.481,21.116
		c1.472,9.684-1.504,16.808-13.086,14.867c-21.394-3.605-23.815,8.031-23.388,25.5c0.864,34.949-0.32,69.972-0.043,104.953
		c0.128,16.381,1.952,32.933,25.308,29.734c13.054-1.792,11.603,7.913,13.875,15.357c2.719,8.916,1.994,14.973-7.455,20.306
		c-43.171,24.316-88.113-0.192-89.404-50.125c-1.045-40.484-0.256-81.01-0.64-121.516c-0.107-10.953,4.639-24.284-15.486-25.19
		c-8.766-0.395-10.323-33.509-1.92-34.213c33.882-2.815,23.175-32.314,31.568-49.869c4.81-10.089,2.282-21.788,20.359-23.292
		c35.055-2.901,23.249,21.095,25.297,40.335H1234.688z M1777.776,415.675c0-45.155,1.365-90.374-0.448-135.455
		c-1.237-30.363,19.581-18.728,33.338-20.327c15.102-1.739,27.963-2.869,27.345,20.989c-2.005,79.219-2.005,158.501-1.749,237.742
		c0.043,16.488-7.721,38.308,21.671,42.382c8.148,1.109,3.626,14.547,4.65,22.354c1.259,9.3-6.228,8.873-12.371,10.793
		c-47.395,14.632-71.156-2.197-71.433-51.298l-0.064-127.179H1777.776z M1066.503,395.625
		c11.102-14.248,18.813-25.158,27.601-35.141c8.436-9.556,20.732-9.225,30.928-5.653c13.459,4.735,3.274,15.624,2.848,23.655
		c-0.96,18.077,1.045,33.68-27.921,36.933c-17.757,2.005-28.891,28.294-28.625,51.757c0.416,35.962-1.269,71.988,0.213,107.907
		c1.131,27.473-18.088,16.851-30.096,17.554c-11.923,0.661-27.867,7.231-27.398-17.426c1.237-64.544,0.373-129.152-0.245-193.717
		c-0.138-15.325-0.245-26.833,21.149-25.031c17.362,1.472,34.81-1.397,30.619,24.967
		C1065.085,384.512,1065.938,387.808,1066.503,395.625L1066.503,395.625z"/>
	<path fill="#1A3A62" d="M942.065,476.305l0.256,99.375c0.299,13.182-4.021,16.957-17.203,17.448
		c-41.86,1.578-41.838,2.218-41.956-39.567l-1.077-173.912c-0.917-27.238,16.189-20.807,30.544-20.829
		c14.398-0.021,32.165-6.335,30.384,20.882c-2.08,32.08-0.48,64.395-0.48,96.603H942.065z"/>
	<path fill="#1B3B63" d="M911.233,321.717c-24.167,1.035-32.731-13.342-32.699-34.565c0.021-22.46,11.806-33.072,34.682-32.891
		c22.961,0.171,34,11.401,34.511,33.531c0.533,23.281-11.827,34.469-36.506,33.925H911.233z"/>
	<ellipse fill="#323A53" cx="284.489" cy="598.023" rx="152.273" ry="134.26"/>
	<path fill="#EFF1F4" d="M284.489,732.284c-84.093,0-152.273-60.107-152.273-134.25s68.181-134.271,152.273-134.271V732.284z"/>
	<path fill="#D2E2ED" d="M462.732,202.388l66.293,28.934c5.194,2.304,9.033,6.175,8.969,12.531
		c-1.098,2.069-2.314,3.999-5.055,3.978c-2.837-0.49-5.173,0.651-7.37,2.25c-1.749,1.002-3.402,2.389-5.642,1.386
		c-2.794-5.172-2.741-5.076-8.041-2.122c-3.914,2.186-7.402,5.365-12.179,5.738c-8.521-2.122-17.064-4.159-25.382-7.028
		c-4.98-1.696-5.706-2.997-2.56-6.964c2.57-3.253,1.173-4.532-1.611-5.898c-3.146-1.557-6.218-3.285-9.566-4.383l-110.264-50.328
		c-1.61-0.725-3.114-1.941-4.789-2.218c-2.666-0.448-4.853-5.962-8.095-0.917c-7.497-1.632-14.067-5.567-20.903-8.756
		c-11.507-5.354-23.345-10.025-34.416-16.285c-1.834-2.09-3.999-1.952-6.292-0.896c-6.57,3.285-13.47,5.855-19.922,9.385
		c-6.324,1.813-11.529,6.474-18.28,7.188c-1.227-0.16-2.453-0.235-3.69-0.341c-6.506-0.533-8.425-4.49-5.087-10.174
		c4.874-8.287,12.67-13.161,20.733-17.608c7.732-4.266,15.645-8.201,23.793-11.635c4.554-1.93,8.916-1.771,13.342,0.117
		l101.541,44.131c23.857,10.174,47.523,20.829,71.924,29.659C461.004,202.441,461.836,202.782,462.732,202.388L462.732,202.388z"/>
	<path fill="#EBF0F5" d="M24.373,283.014c-2.613-4.885-0.757-10.302-1.77-15.485c-1.397-7.177-1.258-14.686-1.333-22.055
		c-0.064-6.538,3.018-11.582,9.129-14.248l64.384-28.07l63.296-27.846c17.725-7.807,35.45-15.592,53.197-23.356
		c0.928-0.416,2.058-0.384,3.082-0.565c-0.853,5.066-5.535,6.036-9.023,7.881c-11.379,6.047-22.919,11.785-34.437,17.544
		c-2.805,1.408-7.135,2.88-7.007,5.717c0.117,3.199,4.959,2.965,7.668,4.362c3.295,1.696,6.783,1.323,10.366,0.8
		c2.528-0.384,5.663-1.792,7.177,1.973c-1.024,1.578-2.741,2.165-4.298,2.954c-26.161,13.032-53.037,24.497-79.549,36.751
		c-6.068,2.805-12.02,5.876-18.386,7.988c-4.5,4.394-9.684,3.978-15.517,3.199c-10.803-1.44-21.746-0.672-32.635-0.373
		c-4.01,0.107-7.007,2.069-8.511,5.962c-4.106,3.701-3.434,8.468-2.89,13.16c0.789,6.911,1.12,13.854,1.194,20.818
		C27.764,281.991,26.453,283.057,24.373,283.014L24.373,283.014z"/>
	<path fill="#E1EAF1" d="M188.89,189.526c-1.824-1.674-4.234-1.408-6.015-0.736c-7.817,2.933-13.928-1.898-20.615-4.085
		c-2.261-0.747-1.973-2.24-0.405-3.519c1.771-1.44,3.498-3.04,5.503-4.074l36.751-18.546c3.722-1.909,7.455-3.893,10.26-7.167
		c6.175-4.17,13.289-6.356,20.007-9.396l38.244-16.723c5.333-2.517,9.833-2.218,14.984,0.075
		c30.107,13.406,60.246,26.705,90.427,39.908l79.496,34.522c1.781,0.779,3.477,1.728,5.215,2.624
		c-1.855,2.122-3.669,0.224-5.322-0.245c-14.302-4.074-27.43-11.07-41.156-16.563c-38.617-15.464-76.307-33.061-114.53-49.389
		l-15.048-6.484c-5.044-2.346-9.801-1.888-14.718,0.491c-12.062,5.833-24.337,11.283-35.023,19.559
		c-3.541,2.741-5.812,6.623-8.116,10.345c-1.674,2.719,0.554,5.866,3.861,6.164c1.696,0.16,3.573-0.576,5.023,0.928
		c-0.501,2.218-2.442,2.869-4.17,3.637l-38.692,17.789c-1.845,0.843-3.754,2.048-5.962,0.896V189.526z"/>
	<path fill="#DBE0E8" d="M43.484,520.778c-1.738-5.205-1.354-10.665-2.154-15.997l-4.095-51.448l-2.261-31.579l-3.989-47.768
		l-2.314-29.969l-4.117-49.869c-0.405-3.679-0.139-7.423-0.16-11.134l3.104-2.165c2.112,1.226,2.517,3.317,2.645,5.46
		c1.141,19.175,2.922,38.298,4.437,57.43l4.831,60.054l3.509,46.382l4.394,54.86c0.373,4.607,3.925,6.911,6.282,10.11
		c0.928,2.304,2.464,4.479,2.101,7.167c-1.578,1.962-2.656,0.085-3.903-0.49c-1.461-1.152-3.04-2.133-4.373-3.434
		c-0.459-0.405-0.938-0.832-1.493-1.109c-1.984,0.384-0.928,2.837-2.432,3.498H43.484z"/>
	<path fill="#8D9EBD" d="M535.082,289.349l-2.154,29.755c2.688,4.543-0.352,9.225,0.341,13.822
		c-0.917,5.578-0.896,11.23-1.461,16.84c-1.034,7.945-1.642,15.944-1.824,23.953c-0.288,2.186-0.779,4.309-2.112,6.143
		c-1.568,1.216-3.157,2.229-5.066,0.597c-0.97-6.537,0.373-12.958,0.875-19.431c0.619-16.307,2.474-32.507,3.701-48.771
		c0.331-4.373,0.704-8.734,0.672-13.118l3.253-39.865c0.064-1.066,0.277-2.09,0.757-3.04c3.199-2.442,3.04,2.112,4.927,2.4
		c0.405,10.302-1.461,20.466-1.898,30.715H535.082z"/>
	<path fill="#B5C2D4" d="M537.002,258.635c-4.223,2.016-2.688-1.621-3.189-3.242c-1.888-2.645-1.92-5.503-0.981-8.479
		c2.389,0.096,3.263-2.368,5.172-3.061C537.706,248.78,539.167,253.835,537.002,258.635z"/>
	<path fill="#27334E" d="M255.545,159.729l20.263-9.481c2.357-0.629,4.511,0.043,6.612,1.056l55.116,25.34
		c8.052,0.555,14.461,5.407,21.447,8.553l98.309,44.771c2.037,1.109,4.085,2.186,6.196,3.135l3.349,1.546
		c2.154,1.013,5.365,1.28,5.428,4.223c0.042,2.517-2.826,3.306-4.746,4.426l-32.763,19.058c-2.25,0.992-4.341,2.261-6.388,3.605
		c-0.64,0.405-1.291,0.779-1.952,1.13l-139.017,80.424c-5.301,3.114-9.993,3.157-15.357,0.106l-56.918-32.635
		c-12.51-7.146-25.415-13.619-37.413-21.65c-12.723-7.988-25.916-15.166-38.884-22.716l-48.664-28.113
		c-1.653-0.949-3.605-1.728-3.434-4.213c1.152-1.738,3.093-2.229,4.853-3.018l140.808-64.341c7.785-3.552,15.944-6.42,23.143-11.209
		H255.545z"/>
	<path fill="#FDFDFE" d="M178.417,292.24l37.007,21.703c4.33,4.991,7.167,10.921,10.323,16.627
		c4.597,8.308,10.793,14.6,19.602,18.557c9.502,4.266,18.824,8.895,28.475,12.873c6.239,2.57,12.382,2.826,18.674,2.186
		c5.78-0.587,11.646-1.546,17.096-3.583c16.019-5.972,32.187-11.379,47.139-20.135l64.811-38.234
		c1.802-1.098,3.743-2.016,4.938-3.893c5.674-5.354,12.873-8.361,19.367-12.457c3.242-2.058,6.634-3.903,9.95-5.866l39.748-23.836
		c1.344-0.811,2.709-1.664,4.341-1.792l13.704-7.369c5.108-2.634,5.972-2.058,6.42,4.053c-1.386,3.829-5.012,5.258-8.052,7.167
		l-56.364,34.352l-163.813,98.81c-4.309,2.613-6.175,5.684-6.068,10.697c0.235,11.475,0.043,22.961,0.107,34.448
		c0.021,1.557-0.224,3.093-0.715,4.586c-1.6,5.972-2.741,11.987-1.696,18.194c0.256,1.578,0.309,3.157,0.384,4.757
		c1.546,33.893,1.024,67.829,1.066,101.743l0.021,61.025v31.995c0,2.112,0.203,4.202-1.013,6.122
		c-3.21,2.389-6.015,1.621-8.575-1.109c-0.97-1.749-1.056-3.711-1.056-5.631l0.075-90.481c1.77-19.773,3.114-39.545,1.397-59.467
		c-0.757-8.767-0.203-17.618-0.192-26.428c0.01-5.482-0.981-10.835-1.834-16.21c-1.002-12.99-0.267-26.044-0.448-39.044
		l-0.021-23.239c-0.011-3.018-0.128-6.015-1.834-8.639c-1.579-3.807-4.895-5.375-8.5-6.58c-10.228-4.245-18.792-11.39-28.646-16.296
		l-72.585-44.195l-66.741-40.334c-12.179-7.775-24.647-15.07-36.975-22.599l-9.342-5.717c-1.578-1.013-3.509-1.77-3.615-4.095
		c2.176-4.927,3.583-5.524,8.969-3.135c11.156,4.927,21.618,11.156,32.144,17.256c4.618,2.688,9.321,5.002,14.781,5.29
		c0.704,0.043,1.482,0.075,2.058,0.427c8.788,5.333,18.93,7.369,28.177,11.572c2.25,1.024,4.319,2.57,6.868,2.528
		c10.953-0.096,21.65,3.21,32.656,2.282c2.698-0.224,5.194,0.811,7.796,1.13L178.417,292.24z"/>
	<path fill="#516494" d="M455.298,291.493l47.64-29.19c5.844-3.519,11.54-7.273,17.085-11.23c2.186,0.48,3.37-1.824,5.333-1.952
		c1.536,2.666,0.16,4.97-1.472,6.666c-5.823,6.058-7.743,14.035-10.867,21.404c-1.429,3.381-2.538,6.932-3.53,10.484
		c-1.792,6.335-6.676,10.078-11.219,14.142c-1.002,1.525-2.496,2.474-3.989,3.413l-128.597,80.179
		c-1.344,0.832-2.624,1.792-4.202,2.176c-2.986-0.512-5.098,3.306-8.319,1.674c-0.981-2.154,0.384-3.498,1.866-4.405
		c8.575-5.194,14.408-12.862,19.41-21.276c8.425-14.184,21.948-22.748,35.184-31.461c10.633-7.007,20.86-14.611,30.747-22.492
		c5.919-4.724,12.329-10.142,14.931-18.109V291.493z"/>
	<path fill="#DAE7F0" d="M499.888,254.39c-5.823,5.141-12.947,8.265-19.474,12.307c-7.913,4.906-16.04,9.481-24.049,14.195
		c-14.515,4.81-29.521,3.573-44.419,3.498c-2.005-0.011-4.106-0.576-4.597-2.816c-0.512-2.346,1.098-4.021,2.858-5.258
		c5.301-3.754,11.358-6.324,16.36-10.548l1.163-0.693c2.719-0.085,4.469-1.877,6.25-3.605l37.946-22.439
		c-2.581-2.847-6.591-2.624-9.14-5.076c-0.203-1.514-1.92-1.962-2.357-3.317c0.064-0.224,0.139-0.458,0.203-0.682
		c4.948,0.373,8.788,3.466,12.99,5.556c3.103,1.546,1.546,3.573-0.139,5.492c-3.818,4.362-3.583,4.042,1.898,6.026
		C483.432,249.943,492.049,250.892,499.888,254.39L499.888,254.39z"/>
	<path fill="#5A6E9E" d="M497.808,301.102c-1.226-1.888,0.683-1.984,1.547-2.399c4.628-2.229,7.007-6.292,8.606-10.804
		c2.73-7.764,5.226-15.571,8.66-23.089c1.546-3.402,2.879-6.666,5.78-9.108c2.026-1.696,2.325-4.213,2.954-6.559
		c2.186-1.781,4.191-4.106,7.455-2.218c1.707,2.666,0.875,5.631,0.981,8.479c-2.335,5.098-1.088,10.644-1.738,15.955
		c-1.12,9.129-1.45,18.407-2.464,27.59c-5.93,15.422-10.74,31.291-18.29,46.073c-1.44,2.826-2.912,5.642-5.023,8.031
		c-1.034,1.173-2.176,2.613-3.957,2.069c-1.579-0.491-1.515-2.218-1.696-3.573c-0.171-1.237-0.64-2.378-0.832-3.605
		c0.512-11.753,1.461-23.484,2.378-35.205c0.288-3.69,0.747-7.327,0.085-10.974c-1.29-1.482-3.061,0.267-4.426-0.64L497.808,301.102
		z"/>
	<path fill="#ECEEEF" d="M457.143,231.183l-55.34-24.945l-64.267-29.595c0.97-2.634,2.208-2.911,4.959-1.642l112.259,51.543
		c2.058,0.928,4.309,1.6,5.887,3.402l-0.021,0.032C459.682,231.012,458.594,231.631,457.143,231.183L457.143,231.183z"/>
	<path fill="#2D2E31" d="M255.545,159.729c-1.909,3.903-6.132,4.341-9.417,5.887l-44.686,20.391
		c-32.517,14.835-65.024,29.68-97.531,44.558l-16.722,7.871c-0.736-0.64-0.725-1.344-0.171-2.08l87.9-40.249l13.971-6.58
		l48.824-22.332L255.545,159.729L255.545,159.729z"/>
	<path fill="#868887" d="M282.41,151.303c-2.335,0.533-4.415-0.619-6.602-1.056C278.261,149.01,280.703,147.922,282.41,151.303z"/>
	<path fill="#C0BFCC" d="M45.564,255.499l12.808,8.351c1.536,1.536,2.666,3.306,2.997,5.471c1.376,8.735,4.437,17.032,6.612,25.553
		c0.981,3.775,0.587,6.25-3.722,6.89c-2.933,1.056-5.087-2.848-8.095-1.248c-1.205,6.175,0.331,12.286,0.789,18.322l1.44,19.933
		l3.477,46.734c0.106,1.226-0.021,2.464-0.277,3.679c-1.216,4.319-0.885,8.745-0.491,13.097c1.675,17.959,2.485,35.983,4,53.954
		c0.192,2.261,0.181,4.564-0.277,6.825c-2.058,4.223-5.098,3.711-8.212,1.45c-5.578-4.031-10.836-8.447-15.229-13.8l-4.138-49.25
		l-2.261-30.448l-4.106-49.261c-0.853-10.846-1.589-21.703-2.197-32.571c-0.16-2.837-0.277-5.631-1.205-8.319l-2.048-29.04
		c-0.224-3.157,0.704-5.524,4.277-5.994C35.88,247.564,41.095,250.935,45.564,255.499L45.564,255.499z"/>
	<path fill="#FDFDFD" d="M45.564,255.499l-15.869-9.673c-0.565-6.644,4.938-7.145,8.83-7.167c13.31-0.075,26.716-1.546,39.908,1.418
		c2.08,0.469,3.231,0.043,4.394-1.664c0.917-1.323,1.514-4.042,4.191-2.058l0.171,2.08c0.885,1.952,2.901,2.421,4.522,3.359
		l82.301,47.608c1.514,0.875,2.933,1.888,4.405,2.837c-7.231,0.714-14.472,0.437-21.703,0c-2.773-0.16-5.62-1.547-8.276-1.184
		c-11.902,1.568-21.159-6.836-32.251-8.127c-1.792-0.203-3.167-1.418-4.682-2.336c-4.351-2.613-8.671-4.789-14.11-5.279
		c-7.327-0.651-13.128-5.738-19.367-9.311c-8.116-4.639-16.381-9.012-24.775-13.128C49.723,251.126,46.876,250.935,45.564,255.499
		L45.564,255.499z"/>
	<path fill="#CFCACE" d="M41.383,450.709c5.556,2.41,8.66,7.828,13.576,11.049c2.709,1.77,4.938,4.479,8.692,2.751
		c3.061,0.533,2.592,3.157,2.335,4.906c-1.482,10.345,2.602,17.448,11.55,22.545c3.904,2.24,7.327,5.46,10.782,8.468
		c16.307,12.627,33.136,24.529,49.56,36.986c1.941,1.493,4.213,2.688,5.194,5.14c0.405,6.954-2.656,9.961-9.343,9.022
		c-3.317-0.469-6.516-1.578-9.801-2.261c-6.74-1.365-13.459-2.666-20.402-2.815c-6.228-0.128-12.094-1.749-17.458-5.333
		c-11.422-7.679-23.025-15.08-33.029-24.636c-8.553-4.799-7.508-13.587-8.329-21.287c-1.226-11.326-1.653-22.716-2.272-34.106
		c-0.181-3.498-1.717-6.847-1.077-10.43H41.383z"/>
	<path fill="#DBD5D6" d="M53.051,516.533c7.295,3.562,12.926,9.513,19.666,13.885l18.024,11.859
		c3.551,2.346,7.817,2.645,11.656,2.688c10.313,0.171,20.157,2.56,30.043,4.927c7.156,1.707,9.63-0.256,9.726-7.828
		c6.271,1.792,11.305,5.759,16.339,9.598c5.226,4.01,10.355,8.041,16.242,11.07c3.413,1.771,5.621,5.098,8.447,7.615
		c3.935,3.541,8.191,6.484,12.68,9.3c4.821,3.029,10.846,5.162,12.681,11.603c0.8,6.356-1.909,9.044-8.511,8.148
		c-7.06-0.939-13.8-3.413-20.05-6.527c-16.008-7.956-32.709-13.715-50.093-17.597c-4.362-1.6-7.903-4.501-11.465-7.316
		c-6.761-5.333-14.28-9.513-21.319-14.398c-0.938-0.661-1.952-0.682-3.018-0.533c-5.962-2.005-9.694-7.252-14.974-10.238
		c-3.733-3.072-7.721-5.78-11.667-8.553c-3.242-3.135-7.199-5.396-10.537-8.425c-0.821-0.875-1.707-1.728-1.781-3.05l-2.101-6.228
		H53.051z"/>
	<path fill="#8EA2C6" d="M523.255,380.673l4.159-1.066c2.442,2.709,1.706,5.972,1.344,9.044l-0.768,9.993
		c-1.109,9.833-1.76,19.741-2.517,29.595c-1.546,10.281-1.301,20.7-2.741,31.003c0.202,6.591-1.333,13.075-1.227,19.687
		c-0.405,2.688-1.024,5.354-1.013,8.105c-0.981,5.61-0.885,11.305-1.397,16.978c-0.853,5.226-1.354,10.622-6.559,13.822
		c-3.509,2.41-6.793,5.14-10.036,7.892c-13.395,9.342-25.521,20.306-38.863,29.648l-1.696,1.45l-82.919,63.435l-63.765,48.312
		c-1.824,1.386-3.658,2.794-5.759,3.775c-2.805,0.832-5.14,2.304-6.548,4.991c-2.666,2.538-4.49,6.313-9.033,6.036
		c-1.365-1.6-0.619-3.349-0.427-5.098c0.747-2.389,2.89-3.413,4.703-4.735c13.79-10.238,27.302-20.839,40.825-31.44l83.805-64.075
		c3.381-2.538,6.666-5.247,10.025-7.849l65.205-49.826c14.195-10.75,14.12-10.708,15.261-28.198l5.066-64.256l1.194-16.328
		c0.085-9.097,1.077-18.13,2.144-27.142c0.171-1.397,0.395-2.784,1.557-3.775L523.255,380.673z"/>
	<path fill="#768EBA" d="M523.255,380.673l-2.165,31.824c-3.754,9.695-8.255,19.101-11.251,29.062
		c-3.669,12.179-8.009,24.145-11.657,36.346c-0.704,2.389-1.493,5.674-5.364,3.114c-0.864-1.621-0.853-3.413-0.683-5.119
		c1.162-11.838,1.45-23.719,2.346-35.578c1.173-5.428,1.109-10.867,0.032-16.296c0.395-9.449,0.672-18.909,2.197-28.262
		c0.597-1.269,1.291-2.208,2.602-0.608c0.896,1.12,0.288,2.73,1.386,3.999c4.063-7.967,10.387-14.206,14.771-21.831
		c2.357-4.106,4.874-8.105,6.463-12.606c0.565-1.568,0.928-3.562,3.392-3.167L523.255,380.673z"/>
	<path fill="#6D83B3" d="M525.324,361.551c-3.05,1.514-2.25,4.927-3.509,7.348c-4.479,8.617-9.854,16.626-15.912,24.156
		c-2.303,2.879-2.965,6.804-6.175,9.342c-2.069-2.474,0.288-5.706-1.749-7.924c-0.97-0.629-1.546-1.632-1.429-2.677
		c1.258-13.758,1.386-27.601,3.37-41.305c0.107-0.704,0.65-1.226,1.248-1.632c1.589,1.536,0.299,3.775,1.504,6.058
		c6.122-5.727,8.969-13.139,11.945-20.317c4.309-10.377,7.978-20.999,11.966-31.504c0.619-1.632,1.184-3.381,3.008-4.159
		c0.043,13.395-1.781,26.641-3.018,39.94C525.857,346.406,525.719,353.989,525.324,361.551L525.324,361.551z"/>
	<path fill="#FEFEFD" d="M432.55,239.096c-0.64,1.643-2.144,1.962-3.327,2.613l-147.709,83.058
		c-2.378,1.333-4.095,1.717-6.687,0.224l-146.653-83.869c-0.725-0.416-1.386-0.949-2.773-1.898l4.533-2.133l145.074-67.072
		c2.304-1.056,4.223-1.77,6.889-0.533l149.469,68.874c0.427,0.192,0.789,0.491,1.184,0.747V239.096z"/>
	<path fill="#FDFDFD" d="M427.698,298.927c-4.767,5.428-11.54,7.86-17.448,11.561c-23.729,14.867-47.576,29.787-73.097,41.23
		c-16.605,7.444-33.861,14.675-52.994,14.259c-6.026-0.128-10.889-2.869-15.997-4.863c-9.662-3.765-19.133-8.201-28.283-13.086
		c-9.097-4.853-14.067-13.662-18.461-22.513c-1.93-3.893-5.706-6.836-5.994-11.561c3.413,0.544,5.951,2.869,8.809,4.49
		l49.389,28.561c4.351,2.581,7.892,2.496,12.201-0.085l49.101-28.784c1.024-0.597,2.25-0.853,3.381-1.269
		c0.49-0.224,1.301-0.309,1.354,0.16c0.714,5.482,4.98,5.386,9.001,6.122c20.135,3.733,37.978-2.528,54.978-12.414l18.28-10.644
		c1.738-1.035,3.487-2.688,5.78-1.141V298.927z"/>
	<path fill="#EAF4F8" d="M427.698,298.927c-8.009,3.242-15.016,8.287-22.46,12.531c-15.176,8.649-30.8,15.443-48.813,14.003
		c-3.839-0.309-7.657-0.938-11.486-1.173c-4.81-0.288-6.623-2.986-6.623-7.444l61.6-35.951l26.651-15.133
		c-1.77,4.213-6.409,4.628-9.47,7.146c-3.146,2.613-9.343,4.148-8.383,8.329c0.885,3.839,6.73,1.461,10.334,1.707
		c12.499,0.875,24.881-1.024,37.295-2.058l-25.521,15.411c-1.205,0.725-2.57,1.184-3.146,2.634H427.698z"/>
	<path fill="#D2E2ED" d="M457.143,231.183l3.477-1.216c-0.438,1.962,5.514,0.427,2.154,3.978c-1.994-0.672-4.031-1.301-5.653-2.773
		L457.143,231.183z"/>
	<path fill="#EAF4F8" d="M433.99,261.471c-1.301,2.57-2.783,4.81-6.26,3.594L433.99,261.471z"/>
	<path fill="#EEE7DD" d="M275.915,567.49l0.021,96.581c1.344,1.365,1.546,3.157,1.386,4.906c-0.48,4.607,1.578,7.295,5.962,8.404
		c0.661,0.576,0.96,1.323,1.077,2.176c0.053,2.41-1.098,4.479-3.455,4.394c-5.578-0.213-11.635,0.896-16.029-4.095
		c-7.988-7.039-16.947-12.883-24.796-20.093c-1.76-1.621-4.17-2.773-3.861-5.759c1.749-2.709,5.695-1.472,7.444-4.181
		c4.01-11.134,10.654-21.052,14.621-32.229c2.069-5.823,3.146-11.262,2.176-17.512c-1.941-12.371-2.261-24.913-2.389-37.455
		c-0.096-8.489-1.707-16.85-2.165-25.318c-0.875-15.72-4.17-31.142-6.207-46.712c-1.248-9.62-0.928-19.474-3.039-28.945
		c-3.135-14.184-1.408-28.443-1.909-42.67c-0.107-2.901-0.373-5.588-2.666-7.743c-1.45-1.386-2.154-3.274-2.378-5.215
		c-1.323-10.889-3.626-21.596-5.546-32.379c-0.16-0.875-0.096-1.76,0.352-2.57c4.618,1.259,8.393,4.149,12.339,6.623
		c5.311,3.328,10.58,6.708,16.285,9.343c2.762,1.888,6.026,2.997,8.511,5.333c2.688,2.656,3.274,5.855,3.253,9.588l-0.043,63.616
		c0.896,4.138,0.981,8.404,0.949,12.584c-0.181,19.751,1.045,39.545,0.555,59.297c-0.235,10.025-0.629,20.007-0.459,30.032H275.915z
		"/>
	<path fill="#495C8F" d="M455.298,291.493c1.845,3.061-0.352,4.885-2.08,6.879c-12.563,14.547-28.593,24.764-44.249,35.482
		c-14.366,9.823-28.635,19.783-37.007,35.919c-3.552,6.825-9.47,11.678-15.859,15.837c-1.386,0.906-2.73,1.685-2.688,3.583
		c-0.021,2.88-2.549,3.573-4.351,4.725c-8.19,5.236-16.328,10.58-24.742,15.411c-5.311,3.05-9.652,6.346-9.844,13.043
		c-7.423,6.271-16.445,9.673-24.999,13.907c-1.589,0.789-3.37,1.024-4.885-0.427l-0.192-36.047c-0.011-3.946,1.493-6.463,5.237-8.67
		l56.428-34.33l57.175-34.48l49.666-29.744c0.736-0.458,1.589-0.725,2.389-1.077V291.493z"/>
	<path fill="#E6DED8" d="M234.535,371.085c3.466,10.569,4.714,21.564,6.324,32.496c0.416,2.815,0.618,5.482,3.114,7.497
		c1.866,1.515,2.314,3.839,2.272,6.26c-0.075,5.482,0.32,10.995-0.085,16.445c-1.088,14.387,3.157,28.209,3.893,42.35
		c0.661,12.521,2.709,24.807,4.767,37.05c2.592,15.443,2.528,31.099,4.948,46.542c0.619,3.989,0.096,8.297,0.16,12.457
		c0.16,11.283,0.821,22.481,3.093,33.552c0.363,1.813-0.139,3.455-0.704,5.162c-3.498,10.516-7.785,20.711-13.395,30.224
		c-1.952,3.327-1.322,7.764-4.842,10.196c-2.25-2.56-2.026-5.759-1.226-8.532c2.154-7.636,2.005-15.272,1.248-23.015
		c-0.096-0.875,0.042-1.749,0.288-2.602c0.8-1.6,1.376-3.221,1.386-5.055l-0.043-41.337c0-1.088-0.288-2.09-0.608-3.114
		c-1.077-6.015,0.491-12.201-1.098-18.173c-0.608-3.135-0.459-6.313-0.459-9.513l0.128-113.4c0.053-7.551-2.154-12.499-8.852-16.413
		c-9.598-5.588-19.261-11.134-28.07-17.992c-4.671-5.012-7.775-10.9-9.428-17.544c-2.464-9.812-9.108-17.074-15.229-24.54
		c-5.119-6.25-9.876-12.937-16.851-17.512c-1.824-1.205-4.405-2.794-2.922-5.962l69.034,41.849c1.195,0.725,2.592,1.173,3.178,2.634
		L234.535,371.085z"/>
	<path fill="#526596" d="M284.596,435.842c1.771,0.117,3.456-0.139,5.077-1.002l24.433-12.798c1.92,1.824,1.504,4.234,1.504,6.463
		l0.032,75.038c0.01,4.586-1.408,9.023-1.248,13.63c-0.448,2.432-1.397,4.714-2.282,7.017c-2.41,6.186-5.802,7.892-12.414,6.399
		c-1.034-0.213-2.08-0.64-3.125-0.448c-7.071,1.258-10.078-3.37-12.67-8.639c0.064-21.714-0.16-43.385-0.917-65.077
		c-0.192-5.354-0.235-10.942,1.227-16.275l0.363-4.298L284.596,435.842z"/>
	<path fill="#CBC6D0" d="M63.566,301.283c3.615-1.227,3.871-3.242,2.784-6.879c-3.018-10.078-5.365-20.359-7.978-30.544
		c12.649,6.996,24.935,14.643,37.103,22.46c12.595,19.24,31.099,32.507,48.109,47.256c6.463,5.62,12.489,11.444,15.933,19.464
		c1.344,3.125,3.413,5.738,5.802,8.158c1.269,1.291,3.199,2.464,2.325,4.863c-2.357,1.109-4.063-0.416-5.812-1.514l-92.774-58.017
		C66.936,305.198,64.11,304.366,63.566,301.283L63.566,301.283z"/>
	<path fill="#D7D2D1" d="M167.528,366.137c-8.521-8.052-11.283-20.274-20.477-27.921c-11.358-9.438-22.962-18.685-33.552-28.945
		c-6.943-6.719-15.144-12.883-18.045-22.972l54.732,32.869l12.147,7.433c0.085,2.219,1.674,3.594,3.21,4.607
		c11.411,7.497,17.832,19.559,26.726,29.339c2.816,3.103,4.181,7.721,5.62,11.817c2.272,6.442,4.245,12.958,8.916,18.194
		c-1.909,0.875-3.424-0.192-4.874-1.12l-31.621-19.805C168.989,368.792,167.506,368.056,167.528,366.137L167.528,366.137z"/>
	<path fill="#7E91B4" d="M283.38,679.94c-0.064-0.704-0.138-1.408-0.213-2.09c-2.154-4.266-2.165-8.489,0.075-12.713l0.192-38.031
		c0.64-0.448,1.173-0.341,1.6,0.32c2.101,7.892,0.576,15.912,0.949,23.868c0.021,6.783,1.045,7.999,7.679,6.847
		c12.915-2.282,25.372-5.994,36.858-12.585c2.741-1.578,5.333-4.351,9.118-2.688c-7.849,7.551-17.256,13.139-25.478,20.199
		c-6.506,5.588-14.163,9.684-20.189,15.848c-1.696,2.815-4.191,4.437-7.423,4.927C284.106,683.652,284.17,681.433,283.38,679.94
		L283.38,679.94z"/>
	<path fill="#FDFDFD" d="M284.234,626.616c-0.277,0.149-0.544,0.299-0.811,0.49l-0.352-137.598
		c-0.16-10.622-0.331-21.372-1.482-32.08c-0.608-5.588-0.629-11.902,2.645-17.277L284.34,516c0,2.303,0.117,4.586,0.149,6.889
		c1.461,1.728,1.621,3.861,1.611,5.972l-0.117,63.755c0.096,10.132,0.331,20.263-0.128,30.395c-0.085,1.408-0.384,2.709-1.632,3.605
		H284.234z M275.915,567.49c-1.568-1.408-1.013-3.285-1.024-4.991v-96.922c1.813,3.903,2.005,8.276,1.92,12.243
		c-0.416,19.41,2.261,38.799,1.045,58.145C277.184,546.458,277.941,557.081,275.915,567.49L275.915,567.49z M283.242,665.116
		l-0.075,12.712c-6.516-0.128-7.209-0.832-7.241-7.401l0.021-6.356C278.336,664.647,280.725,665.457,283.242,665.116
		L283.242,665.116z M271.67,392.383c-3.135-1.301-6.281-2.592-8.51-5.333C266.53,387.978,269.836,389.002,271.67,392.383z"/>
	<path fill="#27334E" d="M497.808,301.102l4.245-1.952c1.408,1.664,1.035,3.69,0.981,5.588c-0.395,12.681-1.706,25.308-2.528,37.957
		l-2.73,39.545l-2.602,35.311c-0.64,6.516-0.277,13-0.683,19.496c-0.885,14.046-2.965,28.059-2.453,42.179
		c1.557,5.269-3.157,6.015-5.898,8.191c-41.113,30.63-82.312,61.131-123.595,91.547l-41.476,30.736
		c-1.845,1.386-3.551,3.69-6.441,2.026c-0.331-0.512-0.565-1.067-0.704-1.664c-0.491-15.827-0.085-31.653-0.235-47.48l0.928-141.395
		c-0.075-4.853,1.792-7.679,5.94-10.164c12.073-7.22,23.9-14.888,35.877-22.279c1.365-0.843,2.656-1.738,4.287-1.941l78.099-48.536
		c18.098-11.273,36.186-22.567,54.252-33.872C494.705,303.385,496.241,302.201,497.808,301.102L497.808,301.102z"/>
	<path fill="#6B7997" d="M360.712,386.816l-39.087,24.369c-4.757,2.826-6.388,6.239-6.378,11.582l-0.064,132.565l-0.128,6.889
		c-0.906,5.013-0.139,10.089-0.416,15.123c-1.077,6.122-0.469,12.286-0.427,18.429c0.021,3.583-0.843,6.314-3.573,8.831
		c-6.602,6.1-13.118,12.243-20.53,17.363c-1.685,1.152-3.37,2.688-5.759,1.792l0.106-30.8c4.554-3.093,9.897-4.543,14.728-7.082
		c8.105-4.287,12.67-9.812,12.67-19.922l-0.331-34.81c0.085-4.223,0.427-8.404,1.546-12.499c2.069-32.165,0.672-64.395,1.034-96.603
		c-0.736-5.514,1.291-8.937,6.388-11.881c11.262-6.506,21.98-13.928,32.922-20.967C356.19,389.439,357.469,385.12,360.712,386.816
		L360.712,386.816z"/>
	<path fill="#25272B" d="M491.324,480.443c-1.429-1.237-1.077-2.965-0.97-4.458l2.965-41.54l1.162-17.906l3.381-53.708
		c1.664-21.212,3.786-42.393,4.191-63.68c3.37,0.16,2.144,2.784,2.048,4.351l-2.848,40.089c-0.128,1.749-0.064,3.52-0.085,5.279
		l-5.322,75.39c0.97,4.373-0.277,8.703-0.224,13.075c-1.141,12.201-1.76,24.444-2.624,36.666
		C492.839,476.262,493.009,478.587,491.324,480.443L491.324,480.443z"/>
	<path fill="#27334E" d="M167.528,366.137c12.905,8.436,25.884,16.744,39.268,24.423l32.688,20.604c3.999,2.4,5.46,5.301,5.46,9.876
		l0.202,122.582c0,1.941,0.107,3.903,0.171,5.823c1.024,20.029,0.992,40.057,0.832,60.107c-0.043,4.479-2.058,5.375-6.164,2.474
		c-8.948-6.25-17.544-12.969-26.268-19.496c-40.857-31.504-83.133-61.088-124.299-92.187c-7.124-4.735-13.544-10.451-20.797-14.973
		c-2.656-1.642-2.346-3.967-2.293-6.42c0.192-15.891-1.77-31.632-2.879-47.438c-0.395-5.62-0.533-11.251-1.109-16.872
		c-1.248-12.254-1.024-24.615-1.856-36.901c-1.259-18.45-2.57-36.9-3.903-55.351l-1.365-18.45c-0.203-2.037-0.49-4.266,1.013-6.1
		c3.018-0.074,4.65,2.816,7.337,3.445L167.528,366.137z"/>
	<path fill="#2E2F31" d="M56.229,297.839c0.213,15.635,1.824,31.163,3.072,46.723c0.992,12.243,1.386,24.54,2.261,36.794
		l4.127,52.94c0.395,4.917,0.299,9.823,0.544,14.728c0.523,10.452,3.125,20.903,0.928,31.44c-1.739-1.365-1.824-3.37-1.888-5.269
		c-0.427-15.08-1.717-30.118-2.752-45.177c-0.843-12.563-2.325-25.094-2.57-37.7c-0.021-1.045-0.128-2.112,0.373-3.114
		l-3.573-51.949l-2.549-35.237C54.107,300.537,52.656,297.796,56.229,297.839L56.229,297.839z"/>
	<path fill="#DDDCDE" d="M60.324,389.205c0.341,23.612,4.159,47,4.778,70.612c0.171,6.761-0.576,13.992,2.069,20.647
		c-0.49,2.453,1.323,3.199,2.933,4.351l19.911,14.803c0.736,2.026,0.587,3.199-1.973,2.048l-20.072-15.293
		c-3.541-2.624-2.624-6.548-3.221-10.004c-0.683-3.925,1.088-8.063-1.098-11.859c-0.565-20.839-2.474-41.604-4.085-62.39
		C59.247,397.875,58.362,393.396,60.324,389.205z"/>
	<path fill="#E8E7E8" d="M88.032,501.666c1.856,0.469,1.312-1.365,1.973-2.048l69.919,51.319l53.388,39.887
		c0.416,1.28,1.024,2.751-0.693,3.477c-1.333,0.576-2.271-0.448-2.826-1.536c-0.629-1.216-2.005-1.173-2.858-1.941
		c-0.032-4.245-4.341-4.735-6.58-6.591c-5.908-4.863-12.894-8.127-18.664-13.587c-2.901-2.73-4.927-8.574-10.835-7.657
		c-1.472-4.373-7.753-2.752-9.246-7.636c-0.459-1.472-3.445-2.965-5.045-3.903c-4.948-2.943-9.694-6.143-14.408-9.385
		C124.111,528.584,106.077,515.125,88.032,501.666L88.032,501.666z"/>
	<path fill="#E2DCDB" d="M206.945,590.824c1.205,0.448,3.199-2.005,3.69,0.896c0.192,1.152,0.491,2.282,1.696,1.834
		c0.586-0.235,0.672-1.792,0.992-2.73l31.995,23.079v-64.458c1.941,5.93,0.373,12.03,0.917,18.045
		c1.109,12.67,0.235,25.361,0.469,38.01c0.085,4.031,0.501,8.127-1.546,11.881c1.248,8.383,2.176,16.658-0.832,24.977
		c-0.96,2.666-0.203,5.951-0.235,8.958c-1.365,3.669-5.514,0.811-7.433,3.199c-2.25,1.536-3.679-0.363-5.066-1.45
		c-22.631-18.002-46.328-34.554-69.172-52.258c-9.609-7.444-19.634-14.355-29.243-21.799c-1.696-1.323-4.181-2.218-3.711-5.162
		c6.452,1.578,12.723,3.797,19.41,4.693c5.492,0.725,10.708,2.922,15.72,5.802c10.729,6.122,22.364,10.302,34.309,13.48
		c2.698,0.725,5.62,1.259,7.945-1.152c1.834-1.898,1.099-3.882,0.085-5.844H206.945z"/>
	<path fill="#DBE0E8" d="M129.454,573.846c7.05,7.167,15.614,12.457,23.569,18.514l76.638,57.676
		c2.133,1.664,3.967,4.095,6.996,4.479c7.519,8.148,16.712,14.312,25.361,21.116c1.248,0.981,2.592,1.792,3.317,3.285
		c-2.314,1.898-4.671,0.171-7.007,0.128c-3.679-1.088-6.25-3.882-9.193-6.1L146.891,594.92c-3.775-2.901-7.37-6.058-11.358-8.66
		c-12.425-10.324-25.884-19.303-38.372-29.563c-0.938-1.322-3.082-1.856-2.751-4.01c1.77-3.669,2.943-0.213,4.17,0.448
		c10.91,6.015,20.263,14.312,30.885,20.754L129.454,573.846z"/>
	<path fill="#7689B6" d="M339.638,642.848c-2.549,0.235-4.724,1.557-6.729,2.879c-11.486,7.615-24.657,10.537-37.7,13.843
		c-1.002,0.256-2.09,0.213-3.135,0.235c-7.561,0.213-7.721,0.043-7.54-7.465c0.981-0.938,2.197-0.981,3.456-0.96
		c7.711,0.149,14.451-2.794,20.989-6.463c11.571-6.441,22.076-14.504,33.04-21.842c18.397-12.329,34.607-27.302,51.383-41.551
		c12.265-10.409,20.636-24.017,27.953-38.223c0.938-1.834,1.099-3.669,0.629-5.631c0.48-2.346,2.506-3.327,4.159-4.564
		l48.515-35.898c1.546-1.152,3.05-2.453,5.14-2.538c4.287,1.578,3.114,4.607,1.675,7.316c-3.647,6.847-6.986,13.928-11.763,20.071
		c-8.244,10.601-15.518,21.863-22.887,33.061c-4.01,6.079-8.713,11.476-13.811,16.595l-68.618,52.386L339.638,642.848
		L339.638,642.848z"/>
	<path fill="#7E95BE" d="M433.009,571.713c5.119-7.082,10.697-13.843,15.272-21.245c10.238-16.594,23.58-31.163,32.027-48.93
		c1.034-2.176,2.858-4.479-0.587-6.228c-0.117-2.816,2.378-3.541,4.01-4.842c3.488-2.773,7.316-5.141,9.812-8.98
		c2.57-0.107,2.719-2.005,3.327-3.946l14.814-45.443c1.92-5.599,5.002-10.814,6.196-16.712c0.363-1.781,1.376-2.794,3.221-2.89
		l-5.226,59.755c-0.875,10.686-1.738,21.373-2.08,32.08c-0.213,6.527-4.767,9.556-9.001,12.819l-71.764,54.562H433.009z"/>
	<path fill="#92A3C1" d="M293.992,683.268l-2.08,2.218c-1.738,2.965-4.138,4.799-7.721,4.671c-0.48-0.149-0.885-0.448-1.13-0.875
		c-0.064-2.688,1.504-4.479,3.402-6.079l7.508-4.287C295.048,680.367,293.459,681.817,293.992,683.268L293.992,683.268z"/>
	<path fill="#7E91B4" d="M309.083,671.622c-1.888,2.09-3.754,4.223-6.655,4.991C303.281,673.115,305.851,671.92,309.083,671.622z"/>
	<path fill="#929DB2" d="M493.543,481.488c-0.576,5.269-5.322,6.804-8.638,9.62l-5.183,4.202l-57.345,42.446
		c-0.277,1.749-1.674,2.602-2.944,3.519l-77.406,56.972c-1.696,1.237-3.477,4.01-6.1,1.152c1.643-4.351,6.218-5.375,9.364-7.956
		c5.535-4.522,11.337-8.767,17.224-12.862l119.49-88.305c1.226-0.917,2.837-1.6,3.104-3.413c1.386-2.816,6.772-1.749,6.218-6.42
		l3.445-43.47c2.229,0.49,1.354,1.856,0.885,3.135L493.543,481.488L493.543,481.488z"/>
	<path fill="#7E95BE" d="M495.665,440.108c-0.064-1.109,0.192-2.304-0.885-3.125l1.077-12.723
		C497.19,429.55,497.467,434.84,495.665,440.108L495.665,440.108z"/>
	<path fill="#293550" d="M311.642,213.917l7.903-10.057l-0.608-0.875l-79.464,32.485l-0.619-0.875l20.37-20.317
		c7.785-7.796,7.775-7.796-2.474-12.499l-14.899-6.868c9.001-4.213,17.395-7.38,24.977-11.913
		c8.436-5.034,15.496-4.479,24.359-0.192l116.46,54.466l3.701,1.739c-0.16,1.856-1.653,1.994-2.613,2.528l-75.87,42.212
		c-2.794,1.557-5.034,1.717-7.807,0.138c-5.524-3.114-11.209-5.962-16.829-8.927c-6.612-3.509-6.602-3.487-2.069-9.108
		l40.036-49.773l-20.253,7.572c-0.48,0.224-1.152,0.373-1.44-0.021c-3.274-4.586-8.073-7.135-12.851-9.716H311.642z"/>
	<path fill="#2B3753" d="M301.681,282.876l16.584,8.724l-24.508,13.683c-5.236,2.88-10.537,7.743-15.837,7.764
		c-5.077,0.032-10.185-5.002-15.251-7.86L152,242.712l-4.533-2.624c0.064-2.101,1.909-2.037,3.008-2.56l77.16-36.101
		c2.784-1.312,5.162-1.579,7.967-0.149c3.775,1.898,7.657,3.669,11.635,5.066c4.01,1.418,4.885,2.538,1.323,5.962l-44.313,43.47
		c-1.386,1.354-2.976,2.506-3.861,4.565l32.005-12.414c3.765,1.269,3.743,4.586,3.413,7.465c-0.736,6.378,2.4,9.695,7.828,12.115
		l40.836,18.802c2.986,1.365,5.599,1.333,8.575-0.043c2.783-1.291,5.151-3.829,8.628-3.391H301.681z"/>
	<path fill="#32415F" d="M301.681,282.876l-2.613,1.77c-6.196,4.277-11.934,5.269-19.303,1.13
		c-10.974-6.175-22.865-10.697-34.362-15.944c-1.44-0.651-2.826-1.429-4.266-2.08c-4.714-2.112-7.721-5.098-6.676-10.921
		c0.544-3.072,0.384-6.346-2.058-8.895l56.311-23.687l0.725,0.97l-29.926,34.864l0.416,0.757l54.689-22.567l0.651,0.768
		l-12.926,16.2l-13.288,16.499c-1.664,2.005-1.632,2.997,0.821,4.266C293.917,278.087,297.757,280.572,301.681,282.876
		L301.681,282.876z"/>
	<path fill="#32415E" d="M311.642,213.917c7.167-0.267,10.398,5.226,14.302,9.737l-33.328,14.163l-0.864-1.12L311.642,213.917z"/>
	<path fill="#CBD7DF" d="M286.463,683.225c-0.117,2.517-2.41,3.946-3.093,6.186c-0.437,1.621-1.696,2.09-3.157,2.282
		c-6.09,0.875-19.719-7.615-22.236-13.865l7.348,1.088c4.127,4.778,10.142,2.751,15.208,4.095c1.749,0.469,2.688-1.322,2.847-3.072
		c1.227,0.896,1.418,2.773,3.082,3.264V683.225z"/>
	<path fill="#EEE7DD" d="M245.147,617.38c-0.949-0.405-3.775-0.619-1.493-1.941c2.986-1.706,2.538-3.903,2.549-6.228l0.021-41.7
		c1.482,1.216,1.024,2.88,1.024,4.415l0.032,40.015C247.28,614.031,247.589,616.25,245.147,617.38L245.147,617.38z"/>
	<path fill="#5E7195" d="M313.071,518.645c0.49,11.262-0.085,22.503,0.683,33.786c0.48,7.018-0.416,14.376-0.768,21.586
		c-0.192,3.669-3.018,5.972-5.567,8.041c-6.729,5.482-14.238,9.534-22.962,10.9l0.053-70.068c0.181,0.021,0.448-0.021,0.501,0.064
		c3.861,6.591,11.07,5.141,16.872,6.954c4.031,1.237,6.58-1.195,8.372-4.565c1.13-2.154,1.034-4.799,2.815-6.676V518.645z"/>
	<path fill="#6D82A9" d="M336.428,599.292c2.144,1.109,3.093-0.811,4.394-1.771l81.554-59.787c2.677,1.173,1.77,2.901,0.864,4.757
		c-9.438,19.197-22.087,35.792-39.161,48.888c-11.273,8.617-21.063,19.111-33.115,26.79c-11.817,7.551-22.023,17.448-34.757,23.676
		c-3.605,1.771-6.847,4.287-10.398,6.186c-6.634,3.541-13.662,5.482-21.277,4.309l-0.288-25.724l0.107-2.88
		c10.697-5.652,18.866-14.462,27.686-22.46c1.589-1.45,0.853-3.285,1.024-4.991c0.597-6.036-1.216-12.222,1.056-18.173
		c1.184,9.385,0.181,18.813,0.554,28.24c0.085,1.856-0.65,3.839,0.651,5.588l-0.139,0.107c3.765,0.704,5.45-2.666,7.871-4.33
		c3.562-2.474,7.327-4.757,10.505-7.807c0.714-0.682,1.76-1.152,2.879-0.64L336.428,599.292z"/>
	<path fill="#32405D" d="M459.575,430.841c-3.008,5.258-3.093,11.059-3.232,16.861c-0.181,8.212-1.472,16.061-7.071,22.652
		c-2.879,3.413-6.377,6.058-9.982,8.468c-9.641,6.463-18.28,14.312-28.39,20.071c-3.605,2.048-7.498,2.645-11.667,2.858
		c-9.748,0.597-18.77,4.309-27.921,7.423c-5.642,1.898-11.049,4.693-17.309,4.202c-1.792-0.149-3.498-0.32-5.055-1.258
		c5.108-9.812,2.208-20.647,4.149-30.843c-0.224-0.746-1.312-0.213-0.619-0.299c0.256-0.042,0.352,0.085,0.288,0.427
		c-1.248,7.273-2.005,14.59-2.144,21.969c-0.032,2.112,0.597,4.735-2.336,5.759c-3.242-0.042-4.234-3.583-6.932-4.437
		c-0.928-1.237-1.024-2.645-0.736-4.031c1.771-8.575,2.89-17.299,5.343-25.745c1.173-1.152,2.72-1.834,4.351-1.92
		c1.323,0.469,2.677,0.938,3.392-0.853c0.725-1.792,0.267-3.306-1.333-4.437c1.248-7.551,6.239-13.011,11.262-17.981
		c16.531-16.349,33.019-32.816,50.477-48.152c9.705-8.511,21.319-14.846,32.069-22.162c1.45-0.992,2.869-2.037,4.362-2.933
		c2.101-1.259,4.181-2.528,6.836-1.173c2.805,1.45,3.359,3.754,3.274,6.612c-0.128,4.234-0.053,8.479-0.021,12.713
		c0.011,1.706-0.437,3.722,2.154,4.084c0.533,1.589-0.416,2.762-1.237,3.85c-4.543,5.951-4.885,13.075-5.823,20.061
		c-0.459,3.583,1.589,5.94,3.861,8.212H459.575z"/>
	<path fill="#FBFBFA" d="M345.973,474.918c0.843,6.527-1.685,12.627-2.549,18.919c-0.501,3.647-1.365,7.231-2.069,10.857
		c-0.853,3.711-2.058,7.423-2.474,11.177c-0.48,4.266-2.805,6.527-7.22,8.319l-3.541-33.914c-0.299-3.135,2.719-3.562,4.927-5.29
		l2.41,26.257l0.843,0.128l5.215-28.561c0.512-3.413,1.6-6.015,4.458-7.849V474.918z"/>
	<path fill="#FCFCFB" d="M459.575,430.841c-6.282-0.096-5.46-4.948-5.215-8.607c0.597-8.553,2.474-16.808,8.415-23.505
		c5.716-3.242,7.519-2.346,7.508,4.309C470.251,413.617,469.301,423.951,459.575,430.841z"/>
	<path fill="#C4CCD7" d="M485.107,486.863c0.736,1.792,0.736,1.792-1.12,3.157l-45.88,33.744l-75.156,55.372
		c-1.088,0.469-1.28-0.043-1.013-0.981l90.812-67.487L485.107,486.863L485.107,486.863z"/>
	<path fill="#FAFAFA" d="M478.388,408.476c-2.879,4.213-1.109,10.174-6.868,12.798c-0.341-3.466,1.066-6.324,2.154-9.033
		c2.41-5.962,3.221-11.774,0.203-17.693c-1.44-2.815,0.64-3.839,2.4-4.927c3.093-1.898,1.77,2.112,3.658,2.538
		c2.08-2.688,0.811-7.871,5.727-8.958c0.928,1.664-0.341,3.274-0.928,4.618c-2.954,6.772-3.861,13.47-0.309,20.274
		c2.026,3.882-1.195,4.778-3.861,6.591l-2.165-6.196L478.388,408.476z"/>
	<path fill="#F9FAF9" d="M348.287,509.131l1.834-23.697c0.149-2.88,1.056-4.65,4.554-5.802l-1.845,28.454
		c-0.16,2.24-2.56,2.709-3.893,4.031L348.287,509.131z"/>
	<path fill="#AFB9C4" d="M361.949,578.155l1.024,0.981l-26.534,20.157l-16.893,12.179c-1.365,1.024-2.592,2.73-4.341,0.576
		l40.719-29.755l6.015-4.138H361.949z"/>
	<path fill="#5E7195" d="M315.322,611.941c-1.888-1.237-1.152-3.178-1.162-4.821l-0.032-29.008
		c0.533-5.29-1.067-10.708,0.928-15.869l0.267,49.72V611.941z"/>
	<path fill="#E8E9EC" d="M352.35,467.709c0.949-0.213,2.218-1.621,2.719-0.64c1.152,2.218,0.661,4.693-0.586,6.868
		c-0.587,1.045-1.344,2.261-2.677,2.069c-1.589-0.235-0.96-1.984-1.493-2.986L352.35,467.709z"/>
	<path fill="#33415E" d="M88.757,388.298c3.349-4.757-0.245-9.406-0.32-14.11c-0.043-2.442-0.821-4.917,0.203-7.252
		c4.095-9.492,8.095-10.281,18.674-3.754c12.937,7.967,25.02,17.576,36.24,27.985c9.246,8.574,16.435,18.813,22.023,30.075
		c5.332,10.761,11.539,20.999,17.778,31.195c0.832,1.365,1.461,2.837,1.312,4.522c0.075,9.641,1.962,19.154,2.624,28.774
		c0.096,1.408,0.384,2.986,1.44,3.903c5.535,4.735,10.772,10.004,18.162,11.945c2.933,2.815,1.739,6.655,2.464,10.004l3.679,16.445
		c0.864,4.543,0.693,8.852-4.245,11.39c-4.991,2.56-10.601,2.218-14.078-1.792c-4.959-5.674-9.993-11.39-13.406-18.237
		c-3.466-6.975-6.719-14.035-10.505-20.839c-6.74-12.073-15.741-22.247-28.294-28.433c-8.265-4.074-17.032-6.42-25.233,0.725
		c-2.09,1.813-3.807,0.32-5.087-0.96c-1.6-1.579-3.029-3.498-3.978-5.546c-5.482-11.731-8.415-24.188-9.492-37.071
		c4.01,0.501,8.191,1.312,8.809-4.65c0.768-1.163,0.757-3.263,3.072-2.624c2.133,4.725,0.896,10.1,3.157,15.592
		c-0.512-4.682-0.747-8.617-0.522-12.585c0.309-1.472,0.427-3.562,2.367-3.306c2.858,0.373,1.76,3.146,2.261,4.938
		c3.903,8.745,6.879,17.992,13.811,25.073c1.056,0.938,2.154,1.813,3.381,2.517c1.344,1.066,2.912,1.237,4.532,1.216
		c5.45,2.751,10.356,6.378,15.624,9.428c1.504,1.259,2.24,3.008,3.007,4.735c0.864,1.941,2.133,3.093,4.415,2.517
		c0.747-0.021,1.472,0.106,2.122,0.512c4.106,5.994,9.492,10.473,16.84,14.376c-1.29-4.159-4.052-5.311-6.324-6.719
		c-7.284-4.564-12.115-10.665-13.534-19.325c-0.352-2.133-0.533-4.181,0.256-6.228c1.44-3.775,3.445-4.522,6.975-2.517
		c1.536,0.875,2.816,2.133,4.319,3.05c1.312,0.768,2.378,2.154,4.97,1.856c-4.106-4.309-8.713-7.06-13.267-9.812
		c-1.706-1.024-3.402,0.341-5.087,0.768c-2.624,0.213-3.626-1.77-4.778-3.562c-2.698-4.149-5.023-8.542-6.953-13.107
		c-6.239-14.867-14.952-28.017-26.545-39.279c-3.679-3.562-6.474-7.945-10.345-11.358c-1.195-1.056-2.282-2.24-3.711-2.986
		c-1.61-0.843-3.359-1.472-5.034-0.416c-1.824,1.152-1.546,3.103-1.162,4.82c1.482,6.922,3.605,13.672,6.004,20.327
		c1.077,2.997,2.186,5.951,2.858,9.076c0.341,1.632,0.458,3.253-0.043,4.874c-0.331,0.8-0.832,1.397-1.738,1.536
		c-2.229-0.725-2.378-2.805-2.944-4.596c-2.442-7.711-6.25-14.398-13.438-18.717c-1.632-0.981-3.317-2.101-3.338-4.383
		L88.757,388.298z"/>
	<path fill="#FCFCFB" d="M108.476,423.076c-1.994,7.263-3.104,7.743-9.758,4.181c-7.892-5.855-16.008-11.475-18.717-21.82
		c-1.205-4.597-2.677-9.15-2.122-13.95c0.768-6.495,3.69-7.711,9.044-4.042c0.544,0.373,1.216,0.576,1.834,0.853
		c5.919,5.172,13.161,9.108,15.891,17.234l3.583,10.164C110.46,418.085,108.38,420.613,108.476,423.076L108.476,423.076z"/>
	<path fill="#FBFBFB" d="M225.395,505.377l-15.411-11.049c1.088,5.631,3.242,9.556,7.103,12.499c3.498,2.688,7.081,5.29,10.74,7.764
		c1.77,1.195,2.464,2.496,1.333,4.351c-1.493,2.453-2.634,0.171-3.743-0.469c-11.529-6.484-18.365-16.232-20.082-29.435
		c-0.181-1.386-0.416-2.815-0.341-4.202c0.16-2.986,0.16-6.25,3.327-7.828c2.954-1.493,4.927,1.024,7.039,2.453
		c3.221,2.176,6.25,4.629,9.502,6.762c1.952,1.258,2.069,2.751,1.045,4.394c-1.578,2.517-2.677-0.043-3.701-0.661
		c-2.272-1.344-4.309-3.093-6.495-4.586c-1.823-1.237-3.743-3.391-5.876-0.597c-2.154,2.815,0.373,4.01,2.208,5.332l12.446,9.044
		C227.283,501.218,227.262,501.261,225.395,505.377L225.395,505.377z"/>
	<path fill="#FAFAFA" d="M206.902,501.581c-0.928,1.066-1.354,2.773-3.477,1.109c-4.725-3.669-9.684-7.103-14.547-10.622
		c-2.037-1.472-2.773-3.626-2.997-5.972l-2.741-27.409c-0.149-1.429,0.053-2.005,1.525-1.749c1.354,1.173,2.133,2.453,2.272,4.415
		c0.405,5.418,1.77,10.835,1.61,16.211c-0.192,7.188,2.922,11.518,8.777,15.229C200.877,495.054,205.804,496.419,206.902,501.581
		L206.902,501.581z"/>
	<path fill="#404354" d="M257.977,677.829c5.791,4.458,10.761,10.132,18.269,12.051c2.538,0.661,4.821,0.832,7.124-0.469
		l0.042,0.491c8.265,0.725,15.614-2.453,22.716-5.887c19.09-9.236,36.986-20.349,53.111-34.256c2.528-2.176,4.629-6.122,9.172-4.885
		c0.448,2.346-1.227,3.583-2.634,4.82c-19.24,17.107-40.633,30.885-64.224,41.209c-7.028,3.072-14.462,4.394-22.14,4.223
		c-6.783-0.896-12.883-3.605-18.536-7.38c-15.176-10.11-29.083-21.842-43.182-33.339c-25.19-20.541-50.967-40.334-77.31-59.361
		c-1.984-1.429-4.234-2.602-5.418-4.948c-0.458-1.728-0.576-3.413,0.928-4.757c9.353,5.866,17.65,13.16,26.427,19.815l65.077,49.656
		L257.977,677.829L257.977,677.829z"/>
	<path fill="#E1E3E9" d="M145.398,632.183c-0.043-0.341-0.043-0.682-0.021-1.045c-0.235-2.133,1.291-1.664,2.4-1.493
		c1.728,0.299,3.327,1.066,4.917,1.813c0.448,0.277,1.003,0.533,1.205,1.024c4.181,9.94,12.841,15.422,20.914,21.778
		c15.571,12.201,30.629,25.041,45.72,37.882c2.869,2.432,6.591,3.456,9.598,5.567c3.125,2.218,7.508,3.754,6.698,9.001
		c-0.65,0.49-1.397,0.618-2.197,0.576c-5.247-0.704-9.886-3.413-15.283-4.991c-0.458,3.989,5.428,7.615,0.373,11.305
		c-6.655-1.237-12.584-3.967-17.629-8.532c-0.811-4.245-3.135-7.785-5.237-11.433c-0.693-1.195-1.738-2.56-0.608-3.882
		c1.312-1.557,2.922-0.554,4.351,0.043c2.069,0.875,3.85,2.282,5.994,3.157c-16.168-12.457-30.267-27.281-46.168-40.057
		c-1.408-1.109-2.922-1.92-4.746-2.112c-2.485-1.13-3.114-3.797-4.703-5.674C148.491,641.077,146.219,636.939,145.398,632.183z"/>
	<path fill="#C6CBD3" d="M152.799,632.29c-2.666,0.896-4.596-3.072-7.423-1.152c-1.823-2.517-2.538-5.46-3.21-8.447
		c-1.088-2.197,0.107-2.773,2.005-2.645c1.365,0.085,2.56,0.768,3.754,1.408c0.448,0.256,0.864,0.554,1.237,0.896
		c1.578,1.621,2.421,3.669,3.37,5.695c0.405,1.386,1.13,2.751,0.277,4.245H152.799z"/>
	<path fill="#A8ADBE" d="M148.555,622.67c-2.122,1.173-4.266-4.586-6.388,0.021l-2.112-4.266l-0.042-2.09
		C145.889,614.671,149.088,617.06,148.555,622.67L148.555,622.67z"/>
	<path fill="#323A53" d="M368.252,644.959c-5.759,2.751-10.025,7.508-15.006,11.305c-19.261,14.675-39.247,28.006-62.923,34.725
		c-2.688,0.768-4.778,0.512-6.911-1.066c3.104-0.96,5.855-2.602,8.5-4.437c0.725,3.093,2.517,1.514,4.042,0.917
		c14.088-5.482,26.854-13.48,38.746-22.503c22.684-17.192,44.782-35.152,66.954-53.005c6.282-5.055,10.867-12.136,18.386-15.805
		c1.12-0.533,1.173-1.621,1.312-2.688c0.459-3.754,4-4.948,6.388-4.97c1.909-0.021,0.693,3.583,0.97,5.567
		c-6.218,3.349-8.905,10.046-13.982,14.675c-13.15,11.945-26.95,23.1-40.601,34.426C372.485,643.466,370.96,645.578,368.252,644.959
		L368.252,644.959z"/>
	<path fill="#434E6D" d="M368.252,644.959c15.795-12.521,31.707-24.892,46.04-39.119c2.89-2.858,6.975-4.437,7.871-9.406
		c0.341-1.877,3.573-3.733,6.559-3.434c-0.352,2.453,1.013,5.14-0.96,7.38c-4.159,1.984-6.292,5.908-9.129,9.215
		c-9.428,10.963-20.349,20.413-31.291,29.798c-5.194,4.458-10.121,9.279-15.923,13.032c-8.543,5.972-16.04,13.438-24.999,18.749
		c-17.928,10.644-35.962,21.223-57.036,24.636c-2.474,0.384-4.938,0.576-7.401,0.235c-1.28-0.171-3.018-0.106-2.858-2.24
		c16.115,0.554,29.286-7.252,42.777-14.59c15.219-8.255,28.891-18.557,42.094-29.627
		C365.585,648.244,366.844,646.495,368.252,644.959L368.252,644.959z"/>
	<path fill="#566284" d="M371.451,651.337c11.561-10.281,23.729-19.837,34.703-30.779c5.46-5.46,11.401-10.281,15.134-17.256
		c1.195-2.218,3.818-3.05,6.463-2.922c-0.277,2.858,0.64,5.887-1.216,8.532c-2.954,1.92-6.409,3.285-7.796,6.954
		c-15.155,17.405-32.112,32.805-50.125,47.181c-18.461,14.718-38.66,25.937-61.163,33.061c-1.621,0.107-3.231,0.128-4.693-0.768
		c-1.034-3.242,1.813-3.157,3.466-3.882c10.1-4.586,20.274-8.959,30.064-14.206c10.014-5.354,18.493-12.755,27.302-19.73
		c2.624-2.069,5.354-3.967,7.849-6.186H371.451z"/>
	<path fill="#6A7799" d="M418.142,615.226c1.013-4.479,3.967-6.399,8.404-6.314l-0.821,3.072c1.888,4.564,0.192,8.447-2.378,12.115
		c-5.428,0.448-8.383,4.138-10.878,8.404c-4.149,2.773-7.273,6.655-10.676,10.238c-13.032,12.137-26.364,23.889-40.878,34.32
		c-5.46,3.925-11.444,6.932-17.096,10.516c-4.543,1.834-9.001,3.839-13.672,5.29c-1.973,0.597-3.978,1.514-6.079,0.384
		c-1.227-2.624,1.173-2.943,2.517-3.413c18.034-6.42,32.485-18.578,47.139-30.139c15.134-11.923,28.667-25.66,41.487-40.079
		C416.371,618.34,417.15,616.676,418.142,615.226L418.142,615.226z"/>
	<path fill="#5D697E" d="M378.724,700.118c-9.065,5.119-17.544,11.326-27.26,15.315l-4.341,1.749
		c-0.768,1.621-2.186,2.517-3.711,3.285c-11.646,4.735-23.772,7.594-36.154,9.556c-1.93,0.299-3.861,0.299-5.716-0.512
		c-1.856-1.28-3.199-2.794-2.229-5.269c1.482-1.386,3.37-1.856,5.311-2.005c8.415-0.832,16.616-2.709,24.764-4.885
		c11.902-3.562,23.377-8.105,34-14.632c4.799-1.792,8.297-5.93,13.246-7.487c0.554,0,1.066,0.128,1.557,0.405
		c1.12,0.981,1.76,2.09,0.714,3.52C378.874,699.478,378.81,699.82,378.724,700.118L378.724,700.118z"/>
	<path fill="#647490" d="M378.906,699.137l-1.077-3.242c-0.64-1.429,0.203-2.56,1.184-3.114c6.218-3.711,6.602-9.769,6.719-15.976
		c1.109-3.477,3.135-5.994,6.911-6.719c3.306,1.728,1.653,4.991,2.346,8.276c6.079-5.567,10.569-11.774,14.472-18.386
		c1.866-3.178-1.365-6.42-0.928-9.769c0.117-1.344,0.651-2.517,1.418-3.583c2.56-2.005,2.186-6.655,6.442-7.146
		c3.53,2.922,3.733,6.612,2.048,10.473c-1.259,2.901-2.773,5.674-3.456,8.788C406.037,674.97,394.007,688.429,378.906,699.137
		L378.906,699.137z"/>
	<path fill="#43506C" d="M414.985,658.739c-0.885-2.325-0.203-4.394,1.077-6.378c2.752-4.245,2.773-8.468-0.021-12.691
		c-0.576-6.015,2.805-10.494,5.716-15.187c2.688,0.981,3.221,3.754,4.81,5.652C424.391,640.352,420.744,649.993,414.985,658.739
		L414.985,658.739z"/>
	<path fill="#303A52" d="M426.578,630.135c-3.199-0.427-3.594-3.05-4.245-5.439c-0.341-0.256-0.448-0.469-0.309-0.661
		c0.149-0.213,0.245-0.299,0.373-0.299c2.368-3.562,2.762-7.679,3.349-11.753c2.4,0.427,3.199-1.237,3.679-3.37
		c0.736,7.636-0.363,14.675-2.837,21.522H426.578z"/>
	<path fill="#FCFCFB" d="M437.083,430.574c0.981-6.751-0.192-13.598,1.344-20.359c0.875-3.818,5.631-8.948,9.598-9.353
		c2.41-0.245,3.85,0.618,3.978,2.997c0.096,1.909,0.117,3.935-0.395,5.759c-1.088,3.882-2.133,6.943-0.128,11.571
		c2.421,5.61-1.024,12.009-4.639,17.032c-2.613,3.637-6.004,6.815-10.526,8.82v-7.594
		C437.125,436.536,434.768,433.357,437.083,430.574L437.083,430.574z"/>
	<path fill="#344361" d="M419.358,460.414c-1.93,10.153-11.667,11.177-18.418,15.613c-1.834,1.195-4.298,1.472-6.484,2.154
		c-0.704-2.005-0.032-3.605,1.909-4.181c2.88-0.875,3.221-3.242,3.146-5.439c-0.267-8.063,1.6-16.04,1.109-24.103
		c1.546-3.285,4.703-3.221,7.615-3.669c1.152-0.768,0.256,3.583,2.464,0.896c1.216-1.472,3.423-3.392,5.396-1.365
		c2.005,2.09,1.152,4.799-0.661,6.655c-3.861,3.989-7.284,8.105-8.02,13.864c-0.224,1.685-1.344,3.775,0.619,4.778
		c2.037,1.045,3.157-1.024,4.052-2.432c1.6-2.517,3.733-3.583,6.644-3.221c0.203,0.149,0.405,0.32,0.597,0.448H419.358z"/>
	<path fill="#FAFBFA" d="M401.206,444.161c1.941,1.493,0.981,3.541,0.896,5.333c-0.277,6.442-0.576,12.905-1.269,19.325
		c-0.288,2.688,1.195,7.337-4.671,6.314c-0.373-0.064-1.12,2.005-1.696,3.072l-2.879,3.199c-4.735,1.621-5.354-1.621-5.706-4.948
		c-0.682-6.356,0.629-12.606,1.067-18.898c0.074-3.029,0.544-5.781,4.234-6.356c3.167,0.597,2.634,3.242,2.912,5.396
		c0.544,4.373-1.099,8.639-0.096,13.075c1.717-6.527,2.09-13.267,2.581-20.007C397.015,446.891,397.591,444.246,401.206,444.161
		L401.206,444.161z"/>
	<path fill="#344360" d="M391.682,451.456c-2.261,1.194-3.711,2.879-3.423,5.631c-1.472,2.176-3.711,1.749-5.844,1.728
		c-0.49-0.064-0.97-0.235-1.397-0.49c-0.949-1.152-1.088-2.282,0.075-3.37c4.852-0.853,7.743-4.735,11.113-7.636l20.818-17.693
		c4.106-3.359,8.553-4.629,13.662-4.373c1.877,2.165,1.429,4.607,0.896,7.071c-1.088,2.965-3.263,3.989-6.271,3.509
		c-3.626-2.165-6.548-1.333-9.151,1.898c-1.056,1.312-2.037,2.912-3.871,3.445c-2.026,1.813-4.853,1.706-7.092,2.986
		c-1.813,1.45-3.434,2.986-3.445,5.546c-1.28,3.114-3.69,2.431-6.079,1.749H391.682z"/>
	<path fill="#F9FAF9" d="M382.276,458.239c0.267,0.085,0.565,0.085,0.821-0.021c1.898,2.112,1.386,4.373-0.075,6.292
		c-4.351,5.674-1.781,12.371-2.943,18.514c-0.149,0.789,0.352-0.192,0.618-0.213c3.04-0.32,1.994,1.45,1.557,2.943
		c-1.877,2.602-3.381,7.252-6.889,5.887c-2.88-1.109-1.12-5.674-1.173-8.788c-0.074-4.842,2.08-9.854-1.066-14.547
		c-0.416-0.64-0.075-2.367,0.533-2.986c2.858-2.879,3.061-6.463,3.359-10.174c0.128-1.557,0.523-3.519,2.933-3.391
		c1.013,1.578,0.309,3.327,0.491,5.012C380.58,457.94,380.772,458.836,382.276,458.239L382.276,458.239z"/>
	<path fill="#344361" d="M382.255,485.754l-0.277-2.005c-5.77,0.128-3.146-4.138-3.007-6.399c0.299-5.034-1.44-10.665,3.861-14.547
		c1.109-0.832,0.544-3.008,0.288-4.586l5.162-1.13l-0.853,20.519c-0.064,2.602,0.32,5.247,4.181,3.797l-9.332,4.351H382.255z"/>
	<path fill="#F8F8F8" d="M426.418,432.707l0.267-7.455c0.011-3.743-0.352-7.487,0.992-11.156c0.64-1.76,1.482-3.53,3.306-3.242
		c1.728,0.267,0.832,2.314,0.885,3.583c0.107,2.069-0.011,4.159-0.032,6.218c-0.725,2.933-0.651,5.855,0.075,8.777
		c0.779,3.125,0.789,6.335-0.416,9.289c-1.162,2.837-0.906,5.396,0.341,8.041c0.373,4.309-1.664,6.911-5.77,8.02
		c-3.253-2.517-1.909-6.079-2.08-9.257C423.752,441.09,425.063,436.877,426.418,432.707L426.418,432.707z"/>
	<path fill="#F7F8F8" d="M359.517,503.884l1.61-27.259c0.192-2.88,0.363-2.944,4.149-2.602c1.301,0.128,0.736-0.811,1.002-1.237
		c1.12-1.685,1.227-4.053,4.053-5.333c0.128,3.178,0.469,5.652-2.133,8.063c-2.176,2.048-2.986,5.098-3.167,8.191l-0.906,14.248
		c-0.021,3.008-1.45,4.415-4.618,5.93H359.517z"/>
	<path fill="#344361" d="M426.418,432.707c0.352,7.359-2.026,14.675-0.363,22.076c-3.242,0.661-3.295,5.162-6.719,5.631l-0.16-0.171
		c-0.875-0.704-1.344-1.706-1.344-2.773c0.032-7.039,0.693-14.035,1.386-21.031c0.074-0.693,0.65-1.227,1.237-1.643
		C422.685,434.787,425.085,435.234,426.418,432.707L426.418,432.707z"/>
	<path fill="#344360" d="M431.836,446.742c-1.77,0.469-2.101-0.512-1.984-1.962l1.994-24.124c0.16,2.41-0.149,4.98,0.618,7.167
		c0.555,1.6,1.749,4.117,4.607,2.752c0.128,2.986,0.299,5.983-0.768,8.873c-0.256-0.779-0.49-2.432-1.173-1.888
		c-1.589,1.291-4.149,2.421-3.338,5.194c0.395,1.408,0.843,2.645,0.032,3.989H431.836z"/>
	<path fill="#344361" d="M382.276,458.239c-0.928,1.067-2.026,2.624-2.261-0.341c-0.16-2.048-0.053-4.095-0.064-6.164
		c2.165,0.427,0.469,2.24,1.141,3.178C380.996,456.191,380.89,457.492,382.276,458.239L382.276,458.239z"/>
	<path fill="#313D59" d="M459.49,418.128c0.075-5.044,0.523-8.702,2.272-12.073c0.565-1.088,1.354-2.314,2.794-1.984
		c1.184,0.267,1.29,1.536,1.333,2.613c0.171,4.596,0,9.172-1.621,13.555c-0.597,1.611-1.429,3.786-3.445,3.36
		c-1.877-0.384-1.194-2.634-1.322-4.149C459.436,418.587,459.49,417.691,459.49,418.128L459.49,418.128z"/>
	<path fill="#344461" d="M109.073,409.329c-3.231-9.054-6.452-18.109-8.724-27.473c-0.704-2.858-2.048-6.378,1.216-8.105
		c3.21-1.696,6.538-0.192,9.076,2.442c15.389,16.008,30.992,31.845,39.076,53.271c1.802,4.735,4.81,9.012,7.188,13.544
		c0.715,1.344,1.557,2.325,3.178,2.389c1.088,6.698,0.149,13.715,3.242,20.135c0.789,1.621,2.271,3.327,0.811,5.375l-2.144,0.085
		c-2.613-0.576-2.773-2.986-3.509-4.863c-3.85-9.876-7.359-19.879-11.081-29.819c-0.661-1.77-0.928-4.532-2.922-4.682
		c-2.41-0.192-1.994,2.826-2.847,4.426c-2.869,5.375-3.029,11.945-7.199,16.808c-1.354-0.064-2.229-0.811-2.858-1.941
		c-1.002-3.647-3.679-6.399-5.119-9.791c-0.864-2.048-1.696-4.138,1.739-4.735c3.455-0.608,3.263-3.349,2.911-5.813
		c-0.938-6.505-3.509-12.243-8.948-16.253c-3.818-2.816-7.636-5.642-11.667-8.255C109.969,407.197,110.503,408.689,109.073,409.329
		L109.073,409.329z"/>
	<path fill="#FBFBFB" d="M109.073,409.329c0.491-1.674-0.693-3.466,0.533-5.439c9.812,6.996,21.383,12.201,22.866,26.406
		c0.608,5.844-0.875,7.945-6.143,7.401l5.301,10.345c0.395,0.811,2.165,1.984-0.053,2.858c-2.506-1.045-3.797-3.114-4.938-5.46
		l-10.11-20.284c3.125-1.493,4.789,1.226,6.953,2.431c0.896,0.491,1.728,1.643,2.762,0.992c1.312-0.821,0.64-2.229,0.32-3.37
		c-0.608-2.122-2.09-3.637-3.829-4.906c-2.4-1.76-4.906-3.37-8.148-5.898c0.875,3.669-1.472,6.154-0.096,9.012
		c0.181,4.021-0.32,8.073,0.885,12.041c0.309,1.002,0.896,2.805-0.683,3.167c-1.642,0.373-2.485-1.216-2.677-2.613
		c-0.704-5.343-1.237-10.708-1.866-16.051c-1.589-1.675-0.117-3.775-0.768-5.578L109.073,409.329z M134.434,452.864L141.953,431
		c0.384-1.109,0.437-2.645,2.08-2.581c1.397,0.042,2.101,1.248,2.549,2.389c1.749,4.394,3.466,8.788,5.14,13.224l10.27,26.961
		c-2.773,2.09-3.775-0.171-4.437-2.09c-0.651-1.941-1.589-3.797-2.783-5.46c-2.485-2.154-5.365-3.754-8.095-5.546
		c-2.89-1.92-4.874-4.415-4.245-8.212c2.89-3.925,4.596,0.405,6.932,0.725c-0.992-3.263-2.24-6.676-3.669-10.43
		c-1.45,3.05-1.898,6.229-3.466,8.958c-0.725,1.834-1.013,3.946-3.04,4.991C136.994,456.255,135.746,454.399,134.434,452.864
		L134.434,452.864z M164.136,470.887c-3.605-8.127-6.836-16.339-4.053-25.489c1.92-3.157,4.437-2.261,6.729-0.725
		c4.074,2.73,7.935,5.781,11.987,8.532c1.802,1.237,1.589,2.474,0.715,4.031c-1.354,2.41-2.389,0.192-3.242-0.363
		c-2.538-1.6-4.853-3.541-7.348-5.183c-3.786-2.517-6.09-1.514-6.079,3.05c0,7.295,2.186,13.95,8.191,18.685
		c3.327,2.645,6.761,5.119,10.292,7.465c1.962,1.301,2.634,2.581,1.333,4.735c-1.76,2.922-3.583-0.042-4.117-0.512
		c-5.034-4.479-11.87-7.188-14.387-14.206L164.136,470.887z"/>
	<path fill="#354461" d="M114.491,423.428c-1.386-3.359-0.864-6.922-1.333-12.03c5.642,5.45,12.926,7.092,15.102,14.483
		c0.512,1.76,1.322,4.138-0.565,5.333c-1.504,0.949-2.698-1.141-4.042-1.845c-2.442-1.29-4.074-3.935-7.113-4.191
		c-0.16-0.597-0.544-1.227-0.448-1.771c0.181-1.066,1.312-2.624-0.427-2.805c-1.525-0.149-0.832,1.824-1.163,2.837L114.491,423.428z
		"/>
	<path fill="#344461" d="M143.03,449.621c0.331,5.674,5.002,7.743,8.724,10.537c1.248,0.939,2.581,1.664,3.008,3.285
		c-5.716-2.304-10.654-5.887-15.582-9.513c0.725-1.749,0.715-3.818,2.154-5.29C142.209,448.448,142.785,448.768,143.03,449.621z
		 M109.415,414.385c0.928,1.771,0.928,3.669,0.757,5.588l-1.675,3.104l-0.245-7.38L109.415,414.385z"/>
	<path fill="#2C3854" d="M81.611,397.619c-0.011-1.909-0.331-4.053,1.621-5.258c2.154-1.333,3.583,0.533,5.141,1.525
		c8.052,5.119,15.229,10.878,16.232,21.372c0.181,1.962,0.256,3.861-0.555,5.695c-0.629,1.45-1.525,2.154-3.295,1.707
		C91.167,420.08,81.643,407.698,81.611,397.619L81.611,397.619z"/>
	<path fill="#565B70" d="M371.451,651.337c-5.94,6.548-13.395,11.283-20.071,16.957c-12.99,11.049-28.625,17.021-43.961,23.634
		c-1.76,0.746-3.679,1.301-4.959,2.901c-5.578,4.138-12.105,4.159-18.589,4.138c-14.366-0.085-25.286-8.148-36.026-16.211
		c-23.719-17.789-45.934-37.455-69.428-55.543c-11.337-8.724-22.972-17-34.554-25.383c-2.112-1.536-4.298-3.135-7.039-3.498
		c-1.845-2.282-0.629-4.948-0.928-7.423c6.228,2.943,11.347,7.551,16.797,11.603l50.456,38.266l45.187,36.41
		c9.268,7.188,18.45,14.952,30.79,16.616c5.738,2.773,11.582,0.875,16.883-0.704c22.78-6.783,43.651-17.469,62.347-32.293
		c4.213-3.327,7.86-7.529,13.107-9.449L371.451,651.337z"/>
	<path fill="#A4AABB" d="M148.555,622.67c-0.576-5.183-4.351-6.036-8.542-6.356l-1.866-5.268c3.008-1.685,4.948,0.725,7.146,1.92
		c16.445,8.916,30.406,21.202,44.835,32.869c16.093,12.99,31.045,27.366,47.917,39.396c9.055,6.484,18.098,12.969,28.358,17.576
		c5.279,2.346,10.804,2.773,16.424,3.583c19.687,2.901,37.018-5.482,55.031-10.644c2.528-0.725,4.853-2.133,7.487-2.645
		c0.522-0.021,1.034,0.107,1.504,0.341c1.163,2.581-1.152,3.605-2.325,5.14c-1.323,1.706-3.594,2.709-4.01,5.162
		c-3.434,3.029-7.913,3.455-12.03,4.735c-7.497,2.304-15.197,3.946-22.993,4.842c-4.085,0.533-8.137,1.365-12.286,1.088
		l-2.645-0.021c-3.455-0.192-6.943,0.235-10.377-0.363c-6.015-2.474-11.987-5.013-18.269-6.954
		c-6.772-2.09-11.998-7.316-18.002-11.006c-23.495-14.462-42.425-34.512-63.531-51.917c-8.041-6.634-16.275-13.011-24.924-18.855
		c-2.133-1.45-4.511-1.962-6.889-2.645L148.555,622.67z"/>
	<path fill="#8C91A7" d="M345.951,693.741c-10.206,4.948-21.052,7.956-32.027,10.58c-3.754,0.896-7.338,2.666-11.113,3.178
		c-19.357,2.73-36.73-1.344-53.303-12.606c-26.172-17.768-48.888-39.674-73.598-59.147c-11.849-9.343-23.772-18.6-37.754-24.7
		l-1.024-5.29c1.973-1.813,3.562-0.192,5.237,0.576c10.494,4.799,19.549,11.881,28.561,18.877
		c11.507,8.937,23.1,17.832,33.925,27.644c13.587,13.182,28.166,25.19,43.801,35.898c9.364,6.42,19.154,11.945,30.502,14.312
		c10.558,2.218,20.989,1.792,31.195-1.109c9.833-2.815,19.421-6.527,28.912-10.366c2.624-0.512,4.991-2.474,7.871-1.237
		c0.992,1.621,0.267,2.645-1.173,3.392H345.951z"/>
	<path fill="#6B6C86" d="M136.823,598.333c0.843-3.242,2.485-0.896,3.424-0.299c13.374,8.745,26.246,18.216,38.799,28.07
		l39.919,31.845c12.339,10.153,24.71,20.199,37.711,29.542c14.248,10.238,29.286,12.649,45.784,7.337l5.311,0.021
		c-1.28,4.628-6.132,3.477-8.98,5.588c-8.436,2.154-16.893,1.344-25.351,0.128c-1.749-0.043-3.434-0.427-5.076-1.002
		c-2.271-0.811-4.65-1.386-6.548-3.029c-6.463-5.652-13.299-10.771-21.095-14.504c-4.458-2.026-7.935-5.354-11.443-8.66
		c-9.279-10.239-20.466-18.301-31.152-26.876c-14.557-11.689-28.912-23.676-44.291-34.298c-5.631-3.903-12.104-6.612-16.84-11.774
		L136.823,598.333L136.823,598.333z"/>
	<path fill="#787D93" d="M136.994,600.423c12.211,6.271,23.196,14.419,33.904,22.865l53.303,42.809
		c2.282,1.834,4.053,4.287,6.079,6.463c-2.762,2.133-4.309-0.512-5.866-1.792l-20.679-17.32
		c-16.755-14.056-33.616-27.985-51.693-40.335c-4.543-3.093-9.396-6.036-14.931-7.359L136.994,600.423z"/>
	<path fill="#C5CAD5" d="M152.799,632.29c-0.672-1.365-1.226-2.73-1.056-4.309c2.858-1.642,4.607,0.64,6.516,1.962
		c15.496,10.835,29.563,23.463,43.907,35.663c14.654,12.457,29.755,24.295,45.475,35.322c3.583,2.517,7.935,3.882,11.497,6.484
		c1.6,1.194,4.671,2.005,2.346,5.119c-3.743,1.194-7.263-0.555-10.91-0.725c-3.391-0.746-6.836-1.322-10.153-2.389
		c-1.525-0.469-3.637-0.427-3.765-2.837c-0.981-3.946-3.946-6.335-7.263-7.828c-11.433-5.226-19.57-14.76-29.36-22.098
		c-12.595-9.428-23.516-20.925-37.167-29.179C157.673,644.362,155.551,637.793,152.799,632.29L152.799,632.29z"/>
	<path fill="#EFF1F4" d="M176.102,686.51l-4.127-4.543c-1.504-4.437,2.517-4.522,4.97-6.292l-13.992-13.992
		c-2.005-2.112-3.445-4.671-5.524-6.719c-0.928-1.429-2.293-2.73-1.44-4.714c1.952-1.856,3.445-0.043,4.479,0.981
		c2.912,2.858,6.772,4.607,9.481,7.444c11.443,11.987,24.54,22.034,37.061,32.741c0.981,0.853,1.877,2.048,1.504,3.754
		c-4.319-0.704-7.007-4.714-11.763-5.332c0.96,5.46,6.751,8.83,5.93,14.675c-1.162,0.896-2.389,0.533-3.455-0.085
		c-7.177-4.138-14.046-8.703-20.359-14.099C177.627,689.283,177.179,687.662,176.102,686.51L176.102,686.51z"/>
	<path fill="#9DA7BE" d="M236.668,706.581c4.234,2.538,9.428,1.941,13.79,4.095c1.802,1.941,2.933,4.33,4.085,6.634
		c2.101,4.223,0.757,6.484-3.904,6.228c-2.965-0.171-5.514,0-7.487,2.474c-7.209,0-13.79-1.92-19.602-6.292
		c-0.117-1.792,0.395-3.306,1.994-4.287c2.528-0.981,4.778,0.256,7.124,0.896c0.97,0.256,2.069,0.981,2.901-0.043
		c0.768-0.938,0.043-2.005-0.256-2.965c-0.682-2.24-2.773-4.287-0.789-6.825l2.144,0.064V706.581z"/>
	<path fill="#C5CAD5" d="M226.046,716.073l-6.367-3.199c2.688-3.754-0.853-6.058-2.069-8.873c-0.469-1.109-1.6-2.048-0.469-3.242
		c0.896-0.896,1.93-0.256,2.901,0.128l14.494,5.631c-0.224,3.157,2.165,5.418,2.89,8.233c0.725,2.751,0.64,4.991-3.424,3.455
		C231.442,717.267,228.702,716.756,226.046,716.073L226.046,716.073z"/>
	<path fill="#A8ADBE" d="M262.061,711.722c-1.589-3.349-5.14-4.266-7.935-5.844c-19.389-10.963-36.079-25.425-53.058-39.588
		c-14.824-12.371-29.254-25.254-44.984-36.517c-1.291-0.938-2.677-1.728-4.341-1.771l-3.189-5.332
		c2.048-1.429,3.989-0.96,5.887,0.32c9.353,6.25,18.376,12.969,26.929,20.306c12.414,10.622,25.201,20.839,37.029,32.08
		c12.136,11.518,26.726,19.389,40.228,28.838c4.405,3.093,10.42,3.861,15.656,5.823c1.728,0.661,3.968,0.619,4.821,2.837
		c-4.479,2.858-9.3,1.45-14.046,1.109C263.778,713.62,262.68,713.001,262.061,711.722L262.061,711.722z"/>
	<path fill="#66718E" d="M299.271,699.094c2.399-2.304,6.324-1.536,8.5-4.245c24.145-8.041,45.71-20.583,65.163-36.965
		c11.582-9.769,23.143-19.495,33.584-30.501c3.871-4.053,6.836-8.958,11.625-12.158c-0.235,4.245-3.306,6.783-5.876,9.556
		c-20.178,21.884-42.393,41.38-67.327,57.718c-6.634,4.351-14.344,6.442-21.255,10.217c-7.508,4.543-15.315,7.892-24.401,6.378
		H299.271z"/>
	<path fill="#7F89A2" d="M203.756,653.449c6.271,2.986,10.622,8.489,16.179,12.393c3.359,2.368,5.599,6.484,10.345,6.719
		c3.167,3.285,6.804,6.015,10.612,8.489l21.244,14.845l6.346,2.133c2.197,2.944,5.78,2.346,8.66,2.88
		c9.726,1.813,19.485,1.514,29.019-1.557c12.979-3.114,25.777-6.783,37.69-13.011c21.234-12.115,39.343-28.241,57.313-44.558
		c1.482,2.56-0.64,3.882-1.973,5.311c-11.475,12.265-24.529,22.695-38.127,32.421c-6.815,4.906-13.47,10.174-21.468,13.182
		c-10.868,5.012-22.098,9.726-33.637,12.03c-18.514,3.69-36.229-0.491-52.333-10.921c-17.49-11.305-33.2-24.828-48.664-38.65
		c-0.501-0.469-0.8-1.152-1.205-1.728V653.449z"/>
	<path fill="#7F8EAE" d="M339.606,692.717l17.224-11.795c15.037-10.494,29.264-21.906,41.966-35.194
		c1.088-1.13,2.41-2.133,2.378-3.946c3.36-3.391,5.685-7.913,10.601-9.577c-0.149,5.546-3.21,9.662-6.687,13.566
		c-5.418,2.901-8.841,8.041-13.011,12.201c-8.937,8.916-19.005,16.275-29.275,23.377c-3.626,2.517-7.06,5.29-10.676,7.807
		c-1.482,1.024-2.826,2.965-5.087,1.429l-7.434,2.112V692.717z"/>
	<path fill="#96A4BC" d="M404.352,644.959c3.477-3.669,5.14-8.404,7.423-12.755c2.186-4.501,3.807-9.727,10.601-8.489
		c-0.021,0.341-0.043,0.64-0.043,0.981l-6.292,14.952c-2.517,1.984-2.389,5.78-5.237,7.529c-2.112-1.024-4.586,0.448-6.634-1.002
		C403.894,645.727,403.958,645.301,404.352,644.959L404.352,644.959z"/>
	<path fill="#767C92" d="M343.861,686.361c-1.706,3.199-5.269,3.178-8.031,4.437c-7.764,3.498-15.741,6.527-23.964,8.809
		c-1.643,0.469-3.434,0.384-5.162,0.554c-9.694,2.901-19.527,3.541-29.457,1.493c-1.642-0.341-3.925-0.128-4.511-2.56
		c8.852,1.13,17.693,2.048,26.534,0c8.532-0.64,16.296-4.181,24.412-6.378C331.01,692.482,337.035,688.174,343.861,686.361
		L343.861,686.361z"/>
	<path fill="#222A42" d="M305.659,711.978c11.998-2.261,24.06-4.309,35.258-9.513c7.263-4.394,14.686-8.404,23.004-10.473
		c4.586,3.733,1.717,7.615,0.203,11.454c-10.409,7.081-21.927,11.582-34.01,14.803c-6.26,1.088-12.531,2.048-18.887,1.408
		C306.129,719.145,304.593,716.884,305.659,711.978L305.659,711.978z"/>
	<path fill="#6D7B93" d="M301.351,728.743c-12.371,1.749-24.743,1.877-37.125,0.085c4.213-3.797,4.298-4.714,0.832-9.406
		c-1.12-1.514-2.656-2.837-3.018-4.799c-0.32-1.749,0.171-2.773,2.186-1.707l14.877-0.042l11.699,0.085
		c-0.683,2.944-3.21,1.877-5.044,2.389c-1.792,0.491-4.565-1.386-5.247,1.578c-0.565,2.389,3.445,6.868,5.897,7.146
		c2.133,0.235,4.181-0.448,6.26-0.704c1.226-0.171,2.453-0.235,3.69-0.128c1.131,0.128,2.186,0.405,2.912,1.365l2.101,4.138H301.351
		z"/>
	<path fill="#323C58" d="M299.25,724.605l-3.125-0.085c-1.621-2.56-0.789-6.207-4.031-8.148c-1.045-0.619-0.928-2.56,0.843-3.349
		l12.734-1.045c0.042,4.671,2.346,6.484,7.017,6.271c5.802-0.277,11.625-0.021,17.437,0
		C320.206,722.173,309.616,722.877,299.25,724.605L299.25,724.605z"/>
	<path fill="#364567" d="M364.146,703.446c-0.181-2.09-0.043-4.095,0.608-6.164c0.522-1.685,1.194-3.946-1.728-4.543
		c2.815-5.205,8.009-6.996,13.064-8.916c0.608-0.256,1.184,0.555,1.536,1.195c0.981,3.733,1.312,7.401-0.949,10.835
		C372.485,698.369,368.998,702.038,364.146,703.446L364.146,703.446z"/>
	<path fill="#4E6089" d="M376.677,695.852l0.042-11.923c1.994-3.903,4.735-6.847,9.406-7.252c2.112,5.098,0.288,12.137-4.17,15.422
		c-1.536,1.152-3.285,1.962-4.138,3.797C377.445,695.895,377.061,695.874,376.677,695.852z"/>
	<path fill="#B2BED2" d="M386.126,676.677l-9.396,7.231l-13.704,8.831c-7.316,3.327-14.227,7.615-22.087,9.726
		c-0.341-4.586,4.938-5.162,6.143-8.66c3.04-4.223,8.02-5.546,12.179-7.977c15.688-9.172,29.158-20.775,40.132-35.237
		c1.408-1.856,2.762-3.626,4.97-4.543c2.026,1.066,5.034-3.477,6.441,1.13l-1.258,2.965c-4.17,7.956-9.054,15.293-16.893,20.199
		L386.126,676.677z"/>
	<path fill="#7B8FB9" d="M392.653,670.342l16.904-20.22c-0.352,3.498,3.509,6.527,1.333,10.11
		c-4.298,7.081-9.118,13.779-15.261,19.41c-0.512,0.469-1.077,1.024-1.834,0.555c-1.066-0.661-1.237-1.771-0.789-2.773
		c1.077-2.474,0.949-4.799-0.331-7.103L392.653,670.342z"/>
	<path fill="#35435F" d="M441.615,437.57l0.032-9.748c0.096-2.325,1.856-3.733,3.85-3.541c2.496,0.224,1.781,2.624,1.621,4.245
		C446.766,432.28,445.657,435.682,441.615,437.57z"/>
	<path fill="#384561" d="M442.308,419.824l0.533-9.022c0.192-1.493,1.6-2.602,3.018-2.485c1.92,0.149,1.717,1.994,1.536,3.328
		c-0.448,2.965-1.173,5.876-5.076,8.18H442.308z"/>
	<path fill="#FBFBFA" d="M420.477,434.797l-1.28,25.468c-3.583,0.875-6.026,3.135-7.977,6.207c-0.725,1.152-2.144,2.133-3.594,1.706
		c-1.834-0.554-1.952-2.389-1.909-3.967c0.192-6.186,2.09-11.753,6.655-16.168c0.885-0.853,1.888-1.578,2.751-2.474
		c1.461-1.45,1.504-3.562,0.395-4.778c-1.152-1.28-2.453,0.469-3.487,1.28c-1.088,0.853-2.037,1.877-3.061,2.837
		c-1.013-1.258-0.565-2.538-0.661-3.733c1.098-3.061,3.637-4.959,5.823-7.092C416.382,431.907,418.643,431.971,420.477,434.797
		L420.477,434.797z"/>
	<path fill="#344361" d="M391.682,451.456c1.994-0.704,4.394-0.043,6.09-1.771l-1.024,18.45c-0.075,1.045-0.416,2.048-0.981,2.922
		c-0.725,1.066-1.397,2.815-3.061,2.197c-1.354-0.512-0.97-2.154-0.928-3.328l0.853-14.248c0.064-1.408,1.013-3.199-0.96-4.223
		H391.682z"/>
	<path fill="#384764" d="M143.03,449.621l-1.696-0.981l4.191-12.691l6.346,17.299c-3.765,0.021-4.874-5.098-8.831-3.626H143.03z"/>
	<path fill="#929FBE" d="M404.363,646.026c-14.622,21.287-34.149,36.687-57.281,47.779l-1.13-0.085l1.088-3.135l22.055-15.144
		c9.598-6.548,18.013-14.483,26.502-22.332c2.922-2.73,4.5-6.868,8.756-8.191L404.363,646.026z"/>
	<path fill="#4D5A79" d="M292.936,713.023c-0.992,1.429-0.587,3.263,0.501,3.733c3.925,1.706,2.506,4.948,2.688,7.764l-3.157,0.128
		c-10.548,1.323-11.476,0.789-15.155-8.425c-1.013-2.538,0.885-2.069,2.154-2.218c3.605-0.448,7.38,0.853,10.835-1.045
		L292.936,713.023L292.936,713.023z"/>
	<path fill="#767C92" d="M262.136,695.895c-8.084-3.498-15.219-8.383-21.244-14.845c1.93-0.299,3.306,0.768,4.767,1.792
		l14.238,9.769C261.144,693.463,262.104,694.317,262.136,695.895L262.136,695.895z"/>
	<path fill="#787D93" d="M272.747,699.094c9.534,4.522,19.389,3.498,29.296,1.749c1.546-0.277,3.104-0.469,4.661-0.683
		c-12.478,4.948-24.913,4.223-37.284-0.384c-0.459-0.171-0.629-1.152-0.928-1.749C269.825,698.732,271.201,699.265,272.747,699.094
		L272.747,699.094z"/>
	<path fill="#8290A8" d="M264.226,712.916c-3.242,0.896-0.704,2.517-0.149,3.306c1.28,1.813,3.018,3.221,4.021,5.354
		c2.304,4.778,1.653,6.079-3.871,7.252c-7.263-0.043-14.28-1.536-21.244-3.37c0.618-3.455,2.271-4.821,5.866-3.413
		c1.706,0.661,4.116,1.237,5.29-0.533c1.205-1.834-0.651-3.519-1.696-5.055c-1.205-1.749-2.165-3.562-1.984-5.78l11.593,1.045
		L264.226,712.916L264.226,712.916z"/>
	<path fill="#3E4C69" d="M414.612,450.858c0.448,0.277,0.683,0.341,0.693,0.448c0.437,3.434,0.043,6.591-3.093,8.724
		c-0.64,0.427-1.514,0.213-1.632-0.554c-0.597-3.647,0.928-6.399,4.031-8.639V450.858z"/>
</g>
</svg>
