<?xml version="1.0" encoding="utf-8"?>
<!-- Generator: Adobe Illustrator 16.0.3, SVG Export Plug-In . SVG Version: 6.00 Build 0)  -->
<!DOCTYPE svg PUBLIC "-//W3C//DTD SVG 1.1//EN" "http://www.w3.org/Graphics/SVG/1.1/DTD/svg11.dtd">
<svg version="1.1"
	 id="svg901" xmlns:inkscape="http://www.inkscape.org/namespaces/inkscape" xmlns:sodipodi="http://sodipodi.sourceforge.net/DTD/sodipodi-0.dtd" xmlns:rdf="http://www.w3.org/1999/02/22-rdf-syntax-ns#" xmlns:cc="http://creativecommons.org/ns#" xmlns:dc="http://purl.org/dc/elements/1.1/" xmlns:svg="http://www.w3.org/2000/svg" sodipodi:docname="vue-ar21.svg" inkscape:version="0.92.4 (5da689c313, 2019-01-14)"
	 xmlns="http://www.w3.org/2000/svg" xmlns:xlink="http://www.w3.org/1999/xlink" x="0px" y="0px" width="105.59px"
	 height="37.825px" viewBox="8.59 11.62 105.59 37.825" enable-background="new 8.59 11.62 105.59 37.825" xml:space="preserve">
<sodipodi:namedview  guidetolerance="10" borderopacity="1" pagecolor="#ffffff" bordercolor="#666666" objecttolerance="10" gridtolerance="10" inkscape:cy="46" inkscape:zoom="1.4605809" inkscape:cx="37.31392" id="namedview903" showgrid="false" inkscape:window-x="70" inkscape:pagecheckerboard="true" inkscape:current-layer="svg901" inkscape:pageopacity="0" inkscape:window-y="27" inkscape:window-maximized="0" inkscape:window-height="702" inkscape:window-width="1506" inkscape:pageshadow="2">
	</sodipodi:namedview>
<path id="path893" inkscape:connector-curvature="0" fill="#41B883" d="M43.483,11.952h8.482L30.547,48.86L8.989,11.952h8.675
	l12.884,22.22L43.483,11.952z"/>
<path id="path895" inkscape:connector-curvature="0" fill="#35495E" d="M35.467,11.945h8.067L30.536,34.211L17.642,11.945h7.941
	l4.953,8.572L35.467,11.945z"/>
<path id="path897" inkscape:connector-curvature="0" fill="#ffffff" d="M57.026,19.231c0-0.272,0.151-0.5,0.454-0.681
	c0.302-0.181,0.618-0.272,0.948-0.272c0.458,0,0.742,0.172,0.852,0.517l4.837,16.173l4.81-16.173
	c0.127-0.345,0.402-0.517,0.824-0.517c0.348,0,0.673,0.1,0.975,0.299c0.303,0.2,0.454,0.427,0.454,0.681
	c0,0.018-0.005,0.045-0.014,0.082c-0.009,0.037-0.015,0.073-0.015,0.109l-5.578,18.105c-0.201,0.527-0.687,0.79-1.456,0.79
	s-1.237-0.263-1.401-0.79l-5.633-18.105C57.044,19.34,57.026,19.268,57.026,19.231L57.026,19.231z M71.395,33.172v-7.08
	c0-0.218,0.115-0.408,0.344-0.572c0.229-0.163,0.5-0.245,0.811-0.245c0.293,0,0.555,0.086,0.783,0.258
	c0.229,0.173,0.344,0.358,0.344,0.558v7.08c0,0.816,0.312,1.552,0.935,2.205s1.364,0.98,2.226,0.98c0.844,0,1.576-0.322,2.199-0.967
	s0.934-1.385,0.934-2.219v-7.107c0-0.2,0.115-0.381,0.344-0.544c0.229-0.164,0.5-0.245,0.811-0.245c0.33,0,0.6,0.077,0.811,0.231
	s0.316,0.34,0.316,0.558v7.107c0,1.397-0.536,2.618-1.607,3.662c-1.072,1.043-2.341,1.564-3.807,1.564
	c-1.483,0-2.762-0.521-3.833-1.564C71.932,35.79,71.395,34.569,71.395,33.172L71.395,33.172z M84.115,33.117v-2.859
	c0-1.398,0.535-2.605,1.607-3.622s2.358-1.524,3.861-1.524c1.429,0,2.665,0.477,3.709,1.429c1.045,0.953,1.566,2.146,1.566,3.581
	c0,0.526-0.063,0.948-0.191,1.267c-0.129,0.317-0.326,0.544-0.592,0.68c-0.266,0.137-0.513,0.223-0.742,0.26
	c-0.229,0.035-0.535,0.054-0.92,0.054h-6.019v0.817c0,0.998,0.362,1.797,1.086,2.396s1.662,0.898,2.816,0.898
	c0.604,0,1.132-0.091,1.58-0.272c0.449-0.182,0.812-0.358,1.085-0.531c0.275-0.172,0.495-0.258,0.66-0.258
	c0.256,0,0.477,0.113,0.66,0.34c0.183,0.227,0.274,0.459,0.274,0.694c0,0.418-0.417,0.845-1.251,1.28
	c-0.833,0.436-1.863,0.653-3.092,0.653c-1.795,0-3.26-0.485-4.396-1.457C84.683,35.971,84.115,34.696,84.115,33.117L84.115,33.117z
	 M86.396,30.857h5.083c0.477,0,0.798-0.059,0.962-0.178c0.165-0.117,0.248-0.349,0.248-0.694c0-0.817-0.303-1.534-0.907-2.151
	s-1.347-0.926-2.226-0.926c-0.861,0-1.604,0.286-2.227,0.857c-0.623,0.572-0.934,1.275-0.934,2.11V30.857z M96.011,36.929
	c0-0.399,0.138-0.739,0.412-1.021s0.614-0.422,1.017-0.422c0.385,0,0.715,0.141,0.99,0.422c0.273,0.281,0.412,0.621,0.412,1.021
	c0,0.382-0.139,0.712-0.412,0.993c-0.275,0.282-0.605,0.423-0.99,0.423c-0.402,0-0.742-0.141-1.017-0.423
	C96.148,37.641,96.011,37.311,96.011,36.929z M98.041,43.436c0-0.289,0.092-0.53,0.274-0.721c0.184-0.191,0.403-0.286,0.659-0.286
	c0.715,0,1.182-0.263,1.402-0.79c0.22-0.525,0.33-1.315,0.33-2.368V26.065c0-0.236,0.105-0.426,0.315-0.572
	c0.211-0.145,0.481-0.218,0.811-0.218c0.33,0,0.604,0.073,0.825,0.218c0.219,0.146,0.329,0.336,0.329,0.572v13.206
	c0,1.579-0.312,2.831-0.935,3.757s-1.566,1.389-2.83,1.389C98.435,44.416,98.041,44.09,98.041,43.436L98.041,43.436z
	 M100.404,20.429c0-0.345,0.137-0.644,0.412-0.898c0.275-0.254,0.613-0.381,1.017-0.381c0.385,0,0.715,0.127,0.989,0.381
	c0.275,0.254,0.412,0.554,0.412,0.898c0,0.345-0.137,0.649-0.412,0.912c-0.274,0.264-0.604,0.395-0.989,0.395
	s-0.719-0.131-1.003-0.395C100.546,21.078,100.404,20.774,100.404,20.429L100.404,20.429z M104.688,36.33
	c0-0.236,0.078-0.468,0.234-0.695c0.155-0.227,0.343-0.34,0.563-0.34c0.146,0,0.357,0.109,0.633,0.326
	c0.274,0.219,0.668,0.432,1.182,0.641c0.512,0.209,1.117,0.313,1.813,0.313c0.916,0,1.58-0.163,1.993-0.49
	c0.412-0.326,0.618-0.734,0.618-1.225c0-0.6-0.229-1.076-0.688-1.43c-0.457-0.354-1.016-0.621-1.676-0.803s-1.319-0.381-1.979-0.6
	c-0.66-0.218-1.219-0.58-1.676-1.089c-0.459-0.508-0.688-1.18-0.688-2.015c0-1.035,0.371-1.929,1.113-2.682
	c0.741-0.753,1.873-1.13,3.393-1.13c0.972,0,1.86,0.15,2.666,0.449c0.807,0.3,1.209,0.64,1.209,1.021
	c0,0.218-0.086,0.463-0.261,0.735c-0.174,0.272-0.39,0.408-0.646,0.408c-0.073,0-0.426-0.131-1.059-0.395
	c-0.632-0.263-1.26-0.395-1.882-0.395c-0.843,0-1.47,0.195-1.883,0.585c-0.412,0.39-0.618,0.831-0.618,1.32
	c0,0.508,0.229,0.908,0.688,1.198c0.457,0.291,1.021,0.518,1.689,0.681c0.669,0.164,1.333,0.363,1.992,0.6
	c0.66,0.235,1.219,0.639,1.677,1.211s0.687,1.312,0.687,2.219c0,1.126-0.402,2.016-1.209,2.669c-0.806,0.653-1.933,0.979-3.38,0.979
	c-1.245,0-2.308-0.222-3.188-0.666C105.127,37.287,104.688,36.82,104.688,36.33L104.688,36.33z"/>
</svg>
