<?xml version="1.0" encoding="utf-8"?>
<!-- Generator: Adobe Illustrator 16.0.3, SVG Export Plug-In . SVG Version: 6.00 Build 0)  -->
<!DOCTYPE svg PUBLIC "-//W3C//DTD SVG 1.1//EN" "http://www.w3.org/Graphics/SVG/1.1/DTD/svg11.dtd">
<svg version="1.1" id="Layer_1" xmlns="http://www.w3.org/2000/svg" xmlns:xlink="http://www.w3.org/1999/xlink" x="0px" y="0px"
	 width="800px" height="228.304px" viewBox="0 102.656 800 228.304" enable-background="new 0 102.656 800 228.304"
	 xml:space="preserve">
<g>
	<path fill="#A41E22" d="M73.861,200.465c-9.304,27.375,7.229,58.288,41.294,85.817C39.412,253.832-9.572,206.309,1.578,165.784
		c15.457-56.135,140.184-77.589,266.679-53.136c111.885,21.608,193.088,84.665,209.775,128.956
		c-36.91-33.373-93.431-67.131-162.639-84.51C200.126,128.027,91.932,147.482,73.861,200.465z M214.891,328.037h-38.91
		l-50.752-156.87h35.373l34.911,110.347h0.461l35.373-110.347h35.603L214.891,328.037z M371.53,328.037h-29.684v-15.842h-0.691
		c-3.922,6.613-9.073,11.382-15.379,14.304c-6.307,2.922-12.767,4.383-19.303,4.383c-8.381,0-15.225-1.077-20.531-3.307
		c-5.383-2.23-9.535-5.306-12.611-9.306c-3.076-3.998-5.229-8.92-6.459-14.687c-1.23-5.769-1.846-12.228-1.846-19.226V214.46h31.22
		v64.132c0,9.381,1.461,16.379,4.383,20.993s8.151,6.921,15.61,6.921c8.458,0,14.687-2.538,18.455-7.613
		c3.845-5.074,5.689-13.379,5.689-24.914V214.46h31.22v113.577H371.53L371.53,328.037z M392.215,194.773L392.215,194.773
		c10.767,5.307,21.146,11.074,31.221,17.226v115.96h-31.221V194.773z M478.109,328.037h-31.222v-99.735
		c9.997,5.536,23.146,15.765,31.222,25.606V328.037z M516.635,256.139l47.676,71.898h-37.832l-43.218-68.361l-0.076-4.383
		l39.371-40.909h36.91L516.635,256.139z M478.186,222.305c-7.382-11.688-17.917-23.762-31.22-35.681V171.09h31.22V222.305z
		 M570.001,249.371c0.462-7.305,2.307-13.38,5.537-18.225c3.229-4.845,7.305-8.689,12.303-11.611
		c4.999-2.922,10.612-4.998,16.841-6.229c6.229-1.231,12.457-1.847,18.764-1.847c5.689,0,11.533,0.386,17.379,1.229
		c5.844,0.847,11.227,2.385,16.07,4.691c4.846,2.385,8.768,5.613,11.843,9.766c3.075,4.153,4.613,9.689,4.613,16.61v59.134
		c0,5.152,0.309,10.074,0.847,14.688c0.614,4.69,1.614,8.228,3.076,10.534h-31.683c-0.615-1.769-1.076-3.536-1.461-5.383
		c-0.385-1.845-0.615-3.69-0.77-5.612c-4.998,5.151-10.843,8.688-17.609,10.766c-6.767,2.076-13.61,3.076-20.685,3.076
		c-5.384,0-10.459-0.692-15.149-1.999c-4.69-1.309-8.766-3.384-12.303-6.152c-3.538-2.769-6.307-6.306-8.229-10.535
		c-1.999-4.229-2.999-9.304-2.999-15.147c0-6.459,1.153-11.765,3.384-15.918c2.308-4.151,5.229-7.536,8.768-9.997
		c3.613-2.46,7.688-4.383,12.303-5.613c4.614-1.229,9.229-2.229,13.919-2.998c4.69-0.693,9.305-1.308,13.841-1.77
		c4.537-0.461,8.536-1.077,12.073-2c3.537-0.846,6.306-2.153,8.382-3.846c2.076-1.691,2.999-4.151,2.846-7.381
		c0-3.384-0.538-6.076-1.691-7.998c-1.076-2-2.538-3.537-4.383-4.613c-1.847-1.077-3.922-1.846-6.383-2.23
		c-2.385-0.385-4.998-0.539-7.768-0.539c-6.15,0-10.996,1.309-14.533,3.922c-3.537,2.615-5.537,6.998-6.151,13.149h-30.989
		L570.001,249.371L570.001,249.371z M642.131,272.439c-1.308,1.153-2.999,2.076-4.922,2.77c-1.999,0.691-4.075,1.23-6.383,1.691
		c-2.229,0.461-4.613,0.769-7.151,1.076c-2.46,0.309-4.998,0.692-7.459,1.078c-2.307,0.461-4.612,1-6.921,1.769
		c-2.307,0.769-4.229,1.692-5.921,2.999c-1.691,1.23-3.075,2.845-4.075,4.689c-1,1.924-1.538,4.307-1.538,7.229
		c0,2.769,0.538,5.151,1.538,6.998c1,1.922,2.384,3.384,4.152,4.536c1.769,1.078,3.845,1.846,6.15,2.308
		c2.385,0.461,4.77,0.692,7.229,0.692c6.151,0,10.92-1,14.303-3.076c3.384-2.076,5.845-4.537,7.459-7.383
		c1.615-2.844,2.615-5.768,2.999-8.688c0.385-2.922,0.539-5.306,0.539-6.998V272.439L642.131,272.439z M693.498,214.383h29.682
		v15.842h0.692c3.922-6.613,9.073-11.382,15.379-14.381s12.766-4.537,19.302-4.537c8.383,0,15.227,1.154,20.531,3.385
		c5.383,2.307,9.535,5.459,12.611,9.457c3.076,4,5.229,8.92,6.459,14.688c1.229,5.769,1.846,12.226,1.846,19.224v69.899h-31.221
		v-64.132c0-9.383-1.461-16.379-4.383-20.993c-2.923-4.614-8.15-6.92-15.609-6.92c-8.459,0-14.611,2.538-18.456,7.612
		c-3.845,5.076-5.69,13.381-5.69,24.916v59.518h-31.22V214.383H693.498z"/>
</g>
</svg>
