<?xml version="1.0" encoding="utf-8"?>
<!-- Generator: Adobe Illustrator 27.3.1, SVG Export Plug-In . SVG Version: 6.00 Build 0)  -->
<svg version="1.1" id="Layer_1" xmlns="http://www.w3.org/2000/svg" xmlns:xlink="http://www.w3.org/1999/xlink" x="0px" y="0px"
	 viewBox="0 0 330.2 59.8" style="enable-background:new 0 0 330.2 59.8;" xml:space="preserve">
<style type="text/css">
	.st0{fill:#14C6CB;}
</style>
<path d="M141.7,37.8l7.7-31.2h7.6l-10,40.3h-10.3l-7.4-32.4l-7.4,32.4h-10.3l-10-40.3h7.6l7.7,31.2l7.3-31.2h10.2L141.7,37.8
	L141.7,37.8z M179.6,46.9h-6l-0.6-2c-2.6,1.7-5.7,2.6-8.8,2.6c-5.4,0-7.7-3.7-7.7-8.8c0-6,2.6-8.3,8.6-8.3h7.1v-3.1
	c0-3.3-0.9-4.4-5.6-4.4c-2.7,0-5.5,0.3-8.2,0.9l-0.9-5.6c3.3-0.9,6.7-1.4,10.1-1.4c9.3,0,12,3.3,12,10.7L179.6,46.9L179.6,46.9z
	 M172.3,35.8h-5.4c-2.4,0-3.1,0.7-3.1,2.9c0,2,0.7,3,3,3c1.9,0,3.9-0.6,5.6-1.5L172.3,35.8z M200.3,46.9l-3.9,11.9h-7l3.7-11.9h-2.6
	l-9.3-29.5h7.6l6.7,22.4l6.8-22.4h7.6L200.3,46.9z M236.6,37.1c0,6.5-2.9,10.4-9.7,10.4c-2.6,0-5.3-0.3-7.9-0.8v12.2l-7.4,1V17.4
	h5.9l0.7,2.5c2.7-2,6-3.1,9.3-3.1c5.9,0,9.1,3.5,9.1,10.2L236.6,37.1L236.6,37.1z M218.9,40.4c2.1,0.5,4.3,0.7,6.5,0.8
	c2.7,0,3.7-1.3,3.7-3.9V26.9c0-2.4-0.9-3.8-3.6-3.8c-2.4,0.1-4.8,1-6.6,2.7V40.4z M252.9,47.5c-10.1,0-12.8-5.6-12.8-11.6v-7.5
	c0-6,2.7-11.6,12.8-11.6s12.8,5.6,12.8,11.6v7.5C265.7,41.9,263,47.5,252.9,47.5L252.9,47.5z M252.9,23.1c-3.9,0-5.4,1.8-5.4,5.1
	v7.9c0,3.3,1.5,5.1,5.4,5.1c3.9,0,5.4-1.8,5.4-5.1v-7.9C258.3,24.9,256.8,23.1,252.9,23.1z M270.2,13.3V4.8h7.4v8.5H270.2z
	 M270.2,46.9V17.4h7.4v29.5L270.2,46.9z M301.1,46.9V26.4c0-1.6-0.7-2.4-2.4-2.4c-1.7,0-5,1.1-7.7,2.5v20.5h-7.4V17.4h5.6l0.7,2.5
	c3.7-1.8,7.7-2.9,11.8-3.1c4.9,0,6.6,3.5,6.6,8.7v21.4H301.1z M329.8,46.4c-2.1,0.7-4.3,1.1-6.5,1.2c-5.4,0-8.1-2.5-8.1-7.8V23.3
	h-4.4v-5.9h4.4v-7.3l7.4-1v8.3h7.6l-0.5,5.9h-7.1v15.4c-0.1,1.1,0.5,2.2,1.6,2.5c0.3,0.1,0.7,0.1,1.1,0.1c1.3,0,2.5-0.2,3.7-0.6
	C329,40.7,329.8,46.4,329.8,46.4z"/>
<path class="st0" d="M82.6,0L72.3,17.9L62,0H82.6z M27.5,11.9h-6.9l17.2,29.8L31,53.6L0,0h34.4l17.2,29.8l3.4-6L41.3,0h13.8
	l6.9,11.9l6.9,11.9L51.6,53.6C51.6,53.6,27.5,11.9,27.5,11.9z"/>
</svg>
