<?xml version="1.0" encoding="utf-8"?>
<!-- Generator: Adobe Illustrator 27.3.1, SVG Export Plug-In . SVG Version: 6.00 Build 0)  -->
<svg version="1.1" id="Logo" xmlns="http://www.w3.org/2000/svg" xmlns:xlink="http://www.w3.org/1999/xlink" x="0px" y="0px"
     viewBox="0 0 795.6 172" style="enable-background:new 0 0 795.6 172;" xml:space="preserve">
<style type="text/css">
    .st0{fill-rule:evenodd;clip-rule:evenodd;fill:#0086E8;stroke:#0086E8;stroke-linejoin:round;}
    .st1{fill-rule:evenodd;clip-rule:evenodd;fill:#0093FF;stroke:#0093FF;stroke-linejoin:round;}
    .st2{fill-rule:evenodd;clip-rule:evenodd;fill:#0076CC;stroke:#0076CC;stroke-linejoin:round;}
    .st3{fill-rule:evenodd;clip-rule:evenodd;fill:#0066B0;stroke:#0066B0;stroke-linejoin:round;}
    .st4{fill-rule:evenodd;clip-rule:evenodd;fill:#005A9C;stroke:#005A9C;stroke-linejoin:round;}
    .st5{fill-rule:evenodd;clip-rule:evenodd;}
</style>
<path id="Triangle_4" class="st0" d="M246.5,85.7l-24.6-42.6h49.3L246.5,85.7z"/>
<path id="Triangle_5" class="st1" d="M246.5,0.5l-24.6,42.6h49.3L246.5,0.5z"/>
<path id="Triangle_3" class="st2" d="M197.3,170.9l-49.2-85.2l98.4,0L197.3,170.9z"/>
<path id="Triangle_2" class="st3" d="M197.3,0.5l-49.2,85.2l98.4,0L197.3,0.5z"/>
<path id="Triangle_1" class="st4" d="M98.9,170.9L0.5,0.5h196.8L98.9,170.9z"/>
<path id="WebGPU" class="st5" d="M346,120.9c0.1-7.9-1.8-15.6-5.5-22.6c-3.6-6.6-9-12.1-15.5-15.7c-7.1-3.9-15.1-5.9-23.2-5.7
    c-8.3-0.2-16.5,1.8-23.8,5.8c-6.9,3.8-12.4,9.6-16,16.5c-3.8,7.2-5.7,15.5-5.7,25c0,9.5,2,17.9,5.9,25.1c3.7,7,9.3,12.8,16.2,16.7
    c7.2,4,15.2,6,23.4,5.9c11,0,20.2-2.8,27.5-8.3c7.2-5.3,12.4-12.9,14.8-21.6h-16.5c-1.7,5-5,9.3-9.3,12.3c-4.4,3.1-9.9,4.6-16.5,4.6
    c-7.6,0.2-14.9-2.6-20.6-7.6c-5.7-5.1-8.8-12.2-9.3-21.2h73.6C345.8,127.1,346,124,346,120.9L346,120.9L346,120.9z M330.2,117.7
    h-58.1c0.8-8.7,3.9-15.6,9.3-20.5c5.4-4.9,12.5-7.6,19.7-7.4c5.1-0.1,10.1,1.1,14.7,3.3c4.3,2.1,8,5.4,10.5,9.6
    C329,107.2,330.4,112.4,330.2,117.7L330.2,117.7L330.2,117.7z M381.5,95.5V46.1h-15.3v124.3h15.3v-17c3.2,5.6,7.9,10.2,13.5,13.3
    c6.4,3.6,13.6,5.4,20.9,5.2c16,0.2,30.8-8.7,38-23c3.9-7.7,5.9-16.2,5.7-24.9c0-9.4-1.9-17.7-5.7-24.8c-3.6-6.9-9-12.6-15.6-16.5
    c-6.8-4-14.5-6-22.3-5.9c-7.2-0.1-14.4,1.7-20.7,5.2C389.5,85.2,384.8,89.9,381.5,95.5L381.5,95.5L381.5,95.5z M444,124.1
    c0.2,6.4-1.3,12.7-4.2,18.4c-2.6,5-6.5,9.1-11.3,11.9c-4.8,2.7-10.2,4.2-15.7,4.1c-5.5,0-10.8-1.4-15.5-4.1
    c-4.8-2.8-8.8-7-11.4-11.9c-5.7-11.4-5.7-24.9,0-36.3c2.6-5,6.6-9.1,11.4-11.9c4.7-2.7,10.1-4.2,15.5-4.1c5.5-0.1,10.9,1.3,15.7,4
    c4.8,2.8,8.8,6.8,11.3,11.8C442.7,111.5,444.1,117.8,444,124.1L444,124.1L444,124.1z M586.7,87.3c-4-10.7-11.3-19.8-20.9-26
    c-9.6-6.2-20.6-9.2-33-9.2c-10.4-0.1-20.7,2.5-29.7,7.6c-8.9,5-16.2,12.4-21.2,21.3c-5.3,9.4-8,20-7.8,30.8
    c-0.2,10.8,2.5,21.4,7.8,30.7c5,8.9,12.4,16.2,21.2,21.2c9.1,5.1,19.3,7.8,29.7,7.6c9.8,0.1,19.5-2.3,28.1-7
    c8.3-4.5,15.3-11,20.3-19c5.1-8,8.2-17,9.1-26.5v-11.8h-63v12.4H574c-1.2,11.6-5.5,20.9-12.9,27.7c-7.4,6.8-16.8,10.2-28.2,10.2
    c-7.7,0.1-15.4-1.8-22.1-5.6c-6.6-3.8-11.9-9.3-15.5-16c-3.8-6.9-5.6-15-5.6-24.2c0-9.2,1.9-17.3,5.6-24.3
    c3.5-6.7,8.9-12.3,15.5-16.1c6.7-3.8,14.4-5.7,22.1-5.6c7.6-0.2,15,1.8,21.5,5.6c6.2,3.8,11.1,9.3,14.1,15.9H586.7z M688.7,87.6
    c0-10.1-3.4-18.3-10.3-24.7s-16.9-9.6-30.2-9.6h-37.8v117.1h15.3v-48.9h22.5c13.7,0,23.8-3.2,30.5-9.7S688.7,97.4,688.7,87.6
    L688.7,87.6L688.7,87.6z M648.2,109h-22.5V66h22.5c16.6,0,24.9,7.2,24.9,21.7c0,6.8-2,12.1-6,15.8C663,107.1,656.7,109,648.2,109
    L648.2,109L648.2,109z M707.4,53.4v73.9c0,9.7,1.9,17.9,5.8,24.6c3.6,6.4,9.1,11.6,15.8,14.9c14.2,6.5,30.6,6.5,44.9,0
    c6.7-3.2,12.2-8.4,15.9-14.9c3.9-6.7,5.9-14.9,5.9-24.6V53.4h-15.3v74.1c0,10.4-2.5,18.1-7.6,23.2s-12.1,7.6-21.1,7.6
    c-9.1,0-16.2-2.5-21.2-7.6s-7.6-12.8-7.6-23.2V53.4L707.4,53.4L707.4,53.4z"/>
</svg>
