<?xml version="1.0" encoding="utf-8"?>
<!-- Generator: Adobe Illustrator 16.0.3, SVG Export Plug-In . SVG Version: 6.00 Build 0)  -->
<!DOCTYPE svg PUBLIC "-//W3C//DTD SVG 1.1//EN" "http://www.w3.org/Graphics/SVG/1.1/DTD/svg11.dtd">
<svg version="1.1"
	 id="vlpa" xmlns:dc="http://purl.org/dc/elements/1.1/" xmlns:rdf="http://www.w3.org/1999/02/22-rdf-syntax-ns#" xmlns:cc="http://creativecommons.org/ns#"
	 xmlns="http://www.w3.org/2000/svg" xmlns:xlink="http://www.w3.org/1999/xlink" x="0px" y="0px" width="298.112px"
	 height="125.406px" viewBox="1.167 87.297 298.112 125.406" enable-background="new 1.167 87.297 298.112 125.406"
	 xml:space="preserve">
<title>WebGL logo</title>
<desc>An open standard for hardware-accelerated web graphics by Khronos Group</desc>
<g transform="translate(-64.6 -23.3)">
	<polygon fill="#990000" points="355.561,192.334 355.561,193.859 353.343,193.859 353.343,199.155 351.68,199.155 351.68,193.859 
		349.461,193.859 349.461,192.334 	"/>
	<polygon fill="#990000" points="362.215,199.155 362.215,193.97 362.215,193.97 360.829,199.155 359.443,199.155 357.78,193.97 
		357.78,193.97 357.78,199.155 356.116,199.155 356.116,192.334 358.889,192.334 359.997,196.882 361.106,192.334 363.879,192.334 
		363.879,199.155 	"/>
</g>
<g transform="matrix(.9958 0 0 1 -57.13 -23.3)">
	<path fill="#990000" d="M279.744,198.767c-2.495,1.054-4.99,1.58-7.513,1.58c-3.992,0-7.597-0.693-10.786-2.079
		c-3.187-1.386-5.877-3.3-8.067-5.739c-2.191-2.439-3.883-5.296-5.047-8.596c-1.165-3.299-1.748-6.848-1.748-10.646
		c0-3.91,0.583-7.514,1.748-10.869c1.164-3.354,2.828-6.266,5.018-8.733c2.19-2.496,4.88-4.437,8.068-5.851
		c3.189-1.414,6.766-2.135,10.786-2.135c2.69,0,5.268,0.416,7.764,1.22c2.496,0.804,4.769,1.997,6.793,3.549
		c2.024,1.552,3.687,3.493,4.99,5.794c1.304,2.301,2.108,4.936,2.412,7.902h-10.924c-0.693-2.911-1.996-5.102-3.937-6.571
		c-1.941-1.47-4.297-2.19-7.098-2.19c-2.578,0-4.768,0.499-6.571,1.497c-1.802,0.999-3.272,2.329-4.381,4.021
		s-1.941,3.604-2.44,5.739c-0.499,2.135-0.777,4.353-0.777,6.654c0,2.19,0.25,4.326,0.777,6.404c0.499,2.08,1.331,3.938,2.44,5.602
		s2.578,2.994,4.381,3.992s3.992,1.498,6.571,1.498c3.799,0,6.737-0.971,8.817-2.885c2.08-1.912,3.273-4.686,3.632-8.345h-11.534
		v-8.623h21.875v28.198h-7.291l-1.164-5.906C284.514,195.883,282.24,197.713,279.744,198.767z"/>
	<path fill="#990000" d="M313.599,147.002v42.449h25.425v9.677h-36.877v-52.125H313.599z"/>
	<path fill="#990000" d="M259.478,205.615c-17.495,10.646-43.725,16.69-72.976,16.69c-52.708,0-95.407-21.932-95.407-49.02
		c0-27.061,42.727-49.021,95.407-49.021c29.362,0,55.674,6.183,73.171,16.885c-19.076-17.939-53.347-30.527-92.496-30.554
		c-60,0-108.633,28.059-108.633,62.689c0,34.63,48.632,62.717,108.605,62.717C206.159,236.003,240.318,223.443,259.478,205.615
		L259.478,205.615z"/>
</g>
<g transform="translate(-61.6,-23.3)">
	<polygon fill="#990000" points="122.848,186.456 112.783,142.925 103.273,142.925 118.19,199.682 127.118,199.682 139.678,155.098 
		152.071,199.682 161.027,199.682 176.471,142.925 166.406,142.925 156.341,186.456 144.197,142.925 134.992,142.925 	"/>
	<path fill="#990000" d="M201.591,166.826c-1.386-1.969-3.133-3.466-5.185-4.492c-2.107-1.054-4.547-1.581-7.264-1.581
		c-3.05,0-5.795,0.555-8.179,1.636c-2.246,1.026-4.159,2.551-5.712,4.519c-2.855,3.632-4.353,8.762-4.353,14.834
		c0,2.689,0.388,5.24,1.137,7.514c0.749,2.301,1.885,4.324,3.327,6.016c3.05,3.55,7.403,5.436,12.587,5.436
		c2.717,0,4.936-0.277,6.793-0.86c1.608-0.499,2.69-1.164,3.577-1.747c1.137-0.748,2.163-1.663,3.105-2.717
		c0.776-0.915,1.47-1.913,2.08-2.994c1.054-1.941,1.581-3.771,1.691-4.714l0.083-0.638h-7.403l-0.028,0.527
		c-0.194,2.412-3.355,6.709-8.983,6.709c-8.041,0-9.954-5.822-10.092-10.951h26.95v-0.582c0-3.3-0.333-6.322-0.998-8.956
		C203.975,171.04,202.949,168.711,201.591,166.826L201.591,166.826z M188.282,167.408c5.961,0,9.15,3.216,9.732,9.815h-19.298
		C179.021,171.872,183.264,167.408,188.282,167.408z"/>
	<path fill="#990000" d="M242.958,172.26c-0.721-2.301-1.774-4.326-3.133-6.017c-1.414-1.747-3.134-3.105-5.102-4.048
		c-2.052-0.97-4.353-1.469-6.849-1.469c-2.301,0.027-4.381,0.527-6.211,1.497c-1.525,0.776-2.883,1.885-4.048,3.271v-17.412h-7.375
		v51.571h7.015v-3.521c0.609,0.805,1.414,1.664,2.468,2.413c1.996,1.441,4.464,2.163,7.319,2.163c3.078,0,5.851-0.693,8.18-2.053
		c2.08-1.22,3.854-2.967,5.24-5.185c1.22-1.94,2.135-4.242,2.745-6.821c0.526-2.217,0.804-4.657,0.804-7.042
		C244.039,177.029,243.68,174.534,242.958,172.26L242.958,172.26z M236.332,180.634c0,4.048-0.805,7.43-2.357,9.814
		c-1.636,2.523-4.02,3.799-7.07,3.799c-4.408,0-9.565-3.078-9.565-11.783c0-4.159,0.526-7.375,1.581-9.815
		c1.524-3.521,4.104-5.213,7.846-5.213c3.993,0,6.683,1.553,8.18,4.797C236.165,174.894,236.332,178.138,236.332,180.634z"/>
</g>
</svg>
