<?xml version="1.0" encoding="utf-8"?>
<!-- Generator: Adobe Illustrator 16.0.3, SVG Export Plug-In . SVG Version: 6.00 Build 0)  -->
<!DOCTYPE svg PUBLIC "-//W3C//DTD SVG 1.1//EN" "http://www.w3.org/Graphics/SVG/1.1/DTD/svg11.dtd">
<svg version="1.1" id="Layer_1" xmlns="http://www.w3.org/2000/svg" xmlns:xlink="http://www.w3.org/1999/xlink" x="0px" y="0px"
	 width="107.377px" height="32.646px" viewBox="6.31 13.677 107.377 32.646" enable-background="new 6.31 13.677 107.377 32.646"
	 xml:space="preserve">
<path fill="#1A1C1C" d="M50.245,34.84h2.78l2.834-9.444h-2.7l-1.678,6.7l-1.8-6.7h-2.346l-1.806,6.7l-1.662-6.7h-2.7l2.818,9.444
	h2.78l1.753-6.05L50.245,34.84z M56.005,30.145c0,2.833,1.93,4.93,4.968,4.93c2.351,0,3.613-1.41,3.975-2.076l-1.646-1.247
	c-0.27,0.398-1.01,1.156-2.295,1.156c-1.392,0-2.403-0.903-2.457-2.167h6.65c0.017-0.183,0.017-0.36,0.017-0.543
	c0-3.087-1.662-5.04-4.587-5.04c-2.693,0-4.624,2.13-4.624,4.985L56.005,30.145z M58.625,29.115
	c0.108-1.082,0.866-1.914,2.042-1.914c1.14,0,1.968,0.758,2.022,1.914H58.625z M66.158,34.841h2.35v-0.974
	c0.254,0.307,1.193,1.199,2.801,1.199c2.699,0,4.623-2.039,4.623-4.947c0-2.925-1.77-4.964-4.479-4.964
	c-1.624,0-2.565,0.903-2.8,1.227v-4.607h-2.49V34.84L66.158,34.841z M68.578,30.146c0-1.77,1.048-2.78,2.42-2.78
	c1.445,0,2.42,1.14,2.42,2.78c0,1.678-1.01,2.727-2.42,2.727C69.48,32.873,68.578,31.643,68.578,30.146z M76.902,38.218h2.49v-4.354
	c0.236,0.307,1.174,1.2,2.801,1.2c2.699,0,4.479-2.041,4.479-4.964c0-2.888-1.914-4.948-4.624-4.948c-1.607,0-2.548,0.903-2.8,1.227
	v-0.994h-2.351v12.824L76.902,38.218z M79.322,30.092c0-1.5,0.904-2.727,2.421-2.727c1.409,0,2.42,1.048,2.42,2.727
	c0,1.645-0.974,2.78-2.42,2.78C80.371,32.872,79.322,31.861,79.322,30.092z M87.125,31.915c0,1.985,1.624,3.16,3.54,3.16
	c1.085,0,1.806-0.324,2.295-0.851l0.162,0.613h2.204v-5.98c0-2.113-0.903-3.7-3.938-3.7c-1.32,0.017-2.609,0.405-3.721,1.119
	l0.939,1.7c0.705-0.36,1.57-0.667,2.511-0.667c1.103,0,1.715,0.56,1.715,1.392v0.613c-0.345-0.236-1.085-0.522-2.042-0.522
	c-2.204-0.003-3.667,1.26-3.667,3.12L87.125,31.915z M89.615,31.841c0-0.774,0.667-1.317,1.623-1.317
	c0.957,0,1.646,0.49,1.646,1.317c0,0.795-0.688,1.3-1.624,1.3S89.615,32.619,89.615,31.841z M101.375,32.871
	c-1.57,0-2.7-1.141-2.7-2.743c0-1.517,0.994-2.764,2.603-2.764c1.064,0,1.8,0.521,2.203,0.903l0.705-2.096
	c-0.613-0.468-1.59-1.01-2.98-1.01c-2.872,0-5.021,2.113-5.021,4.985c0,2.872,2.096,4.93,5.039,4.93c1.373,0,2.403-0.576,2.942-1.01
	l-0.667-2.041c-0.418,0.341-1.176,0.847-2.133,0.847L101.375,32.871z M105.113,34.839h2.49v-4.877l3.16,4.877h2.924l-3.576-5.167
	l3.324-4.28h-2.801l-3.033,3.974v-7.583h-2.49L105.113,34.839z"/>
<path fill="#8ED6FB" d="M34.84,38.838l-13.23,7.485v-5.828l8.244-4.536L34.84,38.838z M35.746,38.018V22.368l-4.84,2.797v10.06
	L35.746,38.018z M7.216,38.838l13.23,7.485v-5.828L12.2,35.958L7.216,38.838z M6.31,38.018V22.368l4.84,2.797v10.06L6.31,38.018z
	 M6.878,21.353l13.57-7.676v5.633l-8.764,4.822L6.878,21.353z M35.178,21.353l-13.57-7.676v5.633l8.764,4.818L35.178,21.353z"/>
<path fill="#1C78C0" d="M20.45,39.423l-8.135-4.475v-8.86l8.135,4.696V39.423z M21.612,39.423l8.135-4.47v-8.864l-8.135,4.696
	V39.423z M12.866,25.065l8.166-4.488l8.166,4.488l-8.166,4.714L12.866,25.065z"/>
</svg>
