<?xml version="1.0" encoding="utf-8"?>
<!-- Generator: Adobe Illustrator 16.0.3, SVG Export Plug-In . SVG Version: 6.00 Build 0)  -->
<!DOCTYPE svg PUBLIC "-//W3C//DTD SVG 1.1//EN" "http://www.w3.org/Graphics/SVG/1.1/DTD/svg11.dtd">
<svg version="1.1" id="Layer_1" xmlns="http://www.w3.org/2000/svg" xmlns:xlink="http://www.w3.org/1999/xlink" x="0px" y="0px"
	 width="107.852px" height="29.867px" viewBox="6.041 12.544 107.852 29.867" enable-background="new 6.041 12.544 107.852 29.867"
	 xml:space="preserve">
<path d="M61.855,12.945c-5.86,0.09-9.194,3.54-10.942,6.9c-1.532,2.925-1.855,5.447-1.936,6.135H7.253v1.156H49.46
	c0.296-0.005,0.541-0.234,0.565-0.53c0,0,0.296-3.11,1.91-6.226c1.506-2.91,4.14-5.737,8.9-6.18
	c-2.93,5.845,0.296,12.62,0.296,12.62c0.094,0.199,0.291,0.329,0.512,0.333h51.268v-1.156H62.043
	c-0.376-0.882-2.877-7.15,0.296-12.154c0.171-0.27,0.091-0.626-0.179-0.797c-0.092-0.058-0.197-0.088-0.305-0.089V12.945z
	 M10.19,41.9L7.092,28.917h1.583l1.777,8.521c0.19,0.887,0.358,1.773,0.495,2.662l0.524-2.394l2.223-8.788h1.863l1.67,6.584
	c0.422,1.641,0.726,3.172,0.91,4.598c0.148-0.834,0.34-1.774,0.58-2.824l1.83-8.357h1.554L18.902,41.9h-1.49l-2.46-9.889
	l-0.366-1.524c-0.124,0.597-0.24,1.105-0.344,1.524L11.767,41.9H10.19z M23.8,41.9V28.917h1.55V41.9H23.8z M28.09,41.9V28.917h5.162
	c1.048,0,1.855,0.118,2.42,0.352c0.51,0.234,0.968,0.645,1.3,1.237c0.296,0.59,0.484,1.242,0.484,1.957
	c0,0.922-0.296,1.694-0.807,2.34c-0.538,0.618-1.37,1.022-2.473,1.2c0.403,0.215,0.7,0.431,0.914,0.646
	c0.457,0.457,0.887,1.021,1.264,1.72l2.043,3.522H36.45L34.9,39.21c-0.43-0.78-0.807-1.37-1.13-1.8c-0.27-0.403-0.538-0.7-0.78-0.86
	c-0.215-0.159-0.484-0.271-0.7-0.35c-0.188-0.027-0.457-0.054-0.86-0.054h-1.8V41.9H28.09z M29.622,34.668h3.334
	c0.726,0,1.264-0.08,1.667-0.27c0.403-0.16,0.7-0.403,0.914-0.771c0.193-0.358,0.294-0.76,0.296-1.167
	c0-0.613-0.188-1.118-0.59-1.514c-0.402-0.396-1.048-0.594-1.91-0.594h-3.7L29.622,34.668z M39.89,41.9V28.917h8.442v1.535H41.45
	v3.973h6.425v1.532H41.45v4.41h7.15V41.9H39.89z M50.08,37.68l2.285-0.242c0.16,0.86,0.43,1.48,0.86,1.883
	c0.43,0.402,0.995,0.617,1.694,0.617c0.78,0,1.317-0.188,1.747-0.537c0.376-0.377,0.538-0.78,0.538-1.265
	c0-0.296-0.054-0.565-0.215-0.78c-0.188-0.215-0.457-0.402-0.86-0.564c-0.27-0.107-0.914-0.296-1.882-0.564
	c-1.264-0.351-2.15-0.781-2.662-1.301c-0.726-0.726-1.075-1.586-1.075-2.615c-0.005-0.654,0.171-1.297,0.511-1.855
	c0.323-0.575,0.807-1.014,1.452-1.315c0.645-0.301,1.398-0.454,2.285-0.454c1.452,0,2.58,0.358,3.334,1.073
	c0.726,0.715,1.102,1.671,1.156,2.863l-2.366,0.116c-0.108-0.668-0.296-1.148-0.645-1.438c-0.323-0.296-0.833-0.44-1.506-0.44
	s-1.2,0.156-1.586,0.469c-0.27,0.202-0.376,0.47-0.376,0.811c-0.007,0.301,0.121,0.59,0.349,0.787
	c0.296,0.28,1.022,0.567,2.15,0.868c1.156,0.3,1.99,0.624,2.554,0.946c0.538,0.318,0.983,0.772,1.29,1.316
	c0.323,0.565,0.484,1.237,0.484,2.07c0,0.727-0.215,1.425-0.565,2.098c-0.363,0.632-0.919,1.131-1.586,1.424
	c-0.7,0.351-1.532,0.484-2.554,0.484c-1.48,0-2.608-0.376-3.387-1.13C50.725,40.249,50.24,39.13,50.08,37.68z M61.586,41.9V28.917
	h2.366v5.104h4.597v-5.104h2.366V41.9H68.55v-5.674h-4.597V41.9H61.586z M83.9,41.9h-2.58l-1.022-2.93h-4.649L74.68,41.9h-2.5
	l4.543-12.982h2.473L83.9,41.9z M79.545,36.766l-1.613-4.815l-1.586,4.815H79.545z M85.137,41.9V28.917H90.1
	c1.264,0,2.178,0.118,2.742,0.352c0.538,0.234,1.021,0.648,1.344,1.245c0.34,0.629,0.516,1.334,0.512,2.049
	c0,0.974-0.271,1.783-0.78,2.429c-0.51,0.618-1.3,1.022-2.312,1.183c0.51,0.35,0.939,0.7,1.264,1.102
	c0.35,0.404,0.779,1.103,1.344,2.098L95.65,41.9h-2.797l-1.72-2.823c-0.618-0.995-1.022-1.64-1.237-1.91
	c-0.242-0.242-0.457-0.431-0.726-0.538c-0.241-0.08-0.646-0.134-1.183-0.134h-0.484V41.9H85.137z M87.503,34.426h1.747
	c1.156,0,1.828-0.054,2.124-0.16c0.28-0.095,0.511-0.295,0.646-0.559c0.188-0.26,0.27-0.583,0.27-0.977
	c0-0.436-0.107-0.799-0.35-1.057c-0.188-0.27-0.484-0.439-0.86-0.51c-0.188-0.03-0.753-0.046-1.72-0.046h-1.855L87.503,34.426z
	 M96.966,41.9V28.917h2.341v5.776l4.784-5.776h3.173l-4.41,5.078l4.649,7.903h-3.065l-3.226-6.075l-1.91,2.149V41.9H96.966z"/>
</svg>
