<?xml version="1.0" encoding="utf-8"?>
<!-- Generator: Adobe Illustrator 16.0.3, SVG Export Plug-In . SVG Version: 6.00 Build 0)  -->
<!DOCTYPE svg PUBLIC "-//W3C//DTD SVG 1.1//EN" "http://www.w3.org/Graphics/SVG/1.1/DTD/svg11.dtd">
<svg version="1.1" id="Layer_1" xmlns="http://www.w3.org/2000/svg" xmlns:xlink="http://www.w3.org/1999/xlink" x="0px" y="0px"
	 width="297.075px" height="105px" viewBox="0 97.5 297.075 105" enable-background="new 0 97.5 297.075 105" xml:space="preserve">
<g>
	<g>
		<polygon fill="#F7A41D" points="34.5,114 21,130.5 14.25,120 		"/>
		<polygon shape-rendering="crispEdges" fill="#F7A41D" points="34.5,114 24.75,122.25 21,130.5 16.5,130.5 16.5,168.75 
			23.25,168.75 15,172.5 9,185.25 0,185.25 0,114 		"/>
		<polygon fill="#F7A41D" points="23.25,168.75 9,185.25 3,177 		"/>
	</g>
	<g>
		<polygon fill="#F7A41D" points="42,114 46.5,124.5 27.75,130.5 		"/>
		<polygon shape-rendering="crispEdges" fill="#F7A41D" points="42,114 83.25,114 83.25,130.5 27.75,130.5 42,121.5 		"/>
		<polygon fill="#F7A41D" points="87,168.75 72.75,185.25 67.5,175.5 		"/>
		<polygon shape-rendering="crispEdges" fill="#F7A41D" points="87,168.75 75,175.5 72.75,185.25 31.5,185.25 31.5,168.75 		"/>
		<polygon fill="#F7A41D" points="112.5,97.5 39,185.25 2.25,202.5 75.75,114 		"/>
	</g>
	<g>
		<polygon fill="#F7A41D" points="105.75,114 105,127.5 91.5,131.25 		"/>
		<polygon shape-rendering="crispEdges" fill="#F7A41D" points="114.75,114 114.75,185.25 79.5,185.25 90,176.25 93.75,168.75 
			98.25,168.75 98.25,131.25 91.5,131.25 99,124.5 105.75,114 		"/>
		<polygon fill="#F7A41D" points="93.75,168.75 97.5,180 79.5,185.25 		"/>
	</g>
</g>
<g>
	<g>
		<polygon shape-rendering="crispEdges" fill="#FFFFFF" points="195,114 195,125.25 171.75,127.5 132.75,127.5 132.75,114 		"/>
		<polygon fill="#FFFFFF" points="195,125.25 155.25,171.75 155.25,174.75 132,174.75 171.75,127.5 171.75,125.25 		"/>
		<polygon shape-rendering="crispEdges" fill="#FFFFFF" points="195.75,171.75 195.75,185.25 132,185.25 132,174.75 154.5,171.75 		
			"/>
	</g>
	<rect x="204" y="114" shape-rendering="crispEdges" fill="#FFFFFF" width="16.5" height="71.25"/>
	<g>
		<polygon shape-rendering="crispEdges" fill="#FFFFFF" points="295.5,147.75 295.5,177 282,177 282,158.25 270,150 259.5,147.75 		
			"/>
		<polygon fill="#FFFFFF" points="270,148.5 282,158.25 259.5,147.75 		"/>
		<path fill="#FFFFFF" d="M295.5,177c-7.65,5.475-18,9-28.275,9c-21.75,0-38.324-15.6-38.324-36.225
			c0-20.475,16.875-36.075,39-36.075c10.725,0,21.899,4.125,29.175,10.5l-9.75,11.25c-5.325-4.725-12.601-7.5-19.425-7.5
			c-12.75,0-22.65,9.675-22.65,22.125c0,12.6,9.975,22.2,22.725,22.2c4.275,0,9.601-1.726,14.25-4.125L295.5,177z"/>
	</g>
</g>
</svg>
