<?xml version="1.0" encoding="utf-8"?>
<!-- Generator: Adobe Illustrator 27.3.1, SVG Export Plug-In . SVG Version: 6.00 Build 0)  -->
<svg version="1.1" id="Layer_1" xmlns="http://www.w3.org/2000/svg" xmlns:xlink="http://www.w3.org/1999/xlink" x="0px" y="0px"
	 viewBox="0 0 352.4 331.3" style="enable-background:new 0 0 352.4 331.3;" xml:space="preserve">
<style type="text/css">
	.st0{fill:none;stroke:#F15A24;stroke-width:6.2675;stroke-linecap:round;stroke-linejoin:round;}
	.st1{fill:none;stroke:#F15A24;stroke-width:9.7882;stroke-linecap:round;stroke-linejoin:round;}
	.st2{fill:none;stroke:#fff;stroke-width:17.8359;stroke-linecap:round;}
</style>
<g>
	<path class="st0" d="M93.7,99.5l-58.2,69.3"/>
	<circle class="st1" cx="50.2" cy="115" r="12"/>
	<circle class="st1" cx="78.7" cy="153.3" r="12"/>
	<path class="st0" d="M159.3,167h-41.6"/>
	<path class="st2" d="M174,322.3H53c-24.4,0-44.1-19.7-44.1-44.1V53C8.9,28.7,28.7,8.9,53,8.9h246.3c24.4,0,44.1,19.7,44.1,44.1
		v269.2"/>
	<path class="st2" d="M13.7,70.3l322.4,0"/>
</g>
<path fill="#fff" d="M243.2,322.1c0-2.4-1-4.8-2.7-6.5c-1.7-1.7-4.1-2.7-6.5-2.7c-0.1,0-0.1,0-0.2,0h-20.6c-0.2,0-0.3,0-0.5-0.1
	c-0.2-0.1-0.3-0.2-0.4-0.3c-0.1-0.1-0.2-0.3-0.2-0.5c0-0.2,0-0.3,0.1-0.5l30.2-75.3c0.5-1.2,0.7-2.6,0.5-3.9
	c-0.1-1.3-0.6-2.6-1.4-3.7s-1.8-2-2.9-2.6s-2.5-1-3.8-1H203c-0.2,0-0.4,0-0.5,0c-1.2,0-2.3,0.2-3.4,0.7c-1.1,0.5-2.1,1.1-2.9,1.9
	c-0.8,0.8-1.5,1.8-1.9,2.9s-0.7,2.2-0.7,3.4v0v0c0,1.2,0.2,2.3,0.7,3.4c0.4,1.1,1.1,2.1,1.9,2.9s1.8,1.5,2.9,1.9
	c1.1,0.5,2.2,0.7,3.4,0.7c0.1,0,0.3,0,0.4,0h16.5c0.2,0,0.4,0,0.5,0.1c0.2,0.1,0.3,0.2,0.4,0.4c0.1,0.1,0.2,0.3,0.2,0.5
	c0,0.2,0,0.4-0.1,0.5l-26.2,65.4c-0.5,1.2-0.7,2.4-0.7,3.7v8c0,2.6,1,5.1,2.9,7s4.3,2.9,7,2.9H234c1.2,0,2.4-0.2,3.5-0.7
	c1.1-0.5,2.1-1.1,3-2c0.9-0.9,1.5-1.9,2-3C243,324.5,243.2,323.3,243.2,322.1L243.2,322.1L243.2,322.1z"/>
<path fill="#fff" d="M296.3,247.8c0.1-3.5-0.3-7-1-10.4c-0.6-2.9-1.7-5.2-3.4-6.9c-1.6-1.8-3.8-3.1-6.7-3.8c-2.8-0.8-6.4-1.2-10.8-1.2
	c-4.2,0-9,0.4-11.9,1.2c-2.6,0.6-5,2-6.8,3.9c-1.7,1.9-2.9,4.5-3.6,7.7c-0.7,3.2-1.1,7.2-1.1,12c0,4.7,0,8.5,0.1,11.4
	c0.1,2.4,0.4,4.7,0.8,7c0.4,1.5,1,3,1.8,4.3c0.8,1.1,1.7,2.2,2.8,3.1c1.5,1.3,3.1,2.4,4.8,3.4c1.9,1.1,3.8,2.1,5.7,3.1
	c2,1,3.8,2,5.6,3.1c1.7,0.9,3.2,2.1,4.6,3.4c0.6,0.6,1.1,1.2,1.5,1.9c0.3,0.4,0.6,0.9,0.8,1.4c0.2,0.4,0.3,0.9,0.4,1.3
	c0.2,0.7,0.2,1.4,0.2,2.2c0.1,1.1,0.1,2.6,0.1,4.5c0,2.6-0.1,5.1-0.4,7.7c-0.1,1.5-0.5,2.9-1.1,4.2c-0.5,0.8-1.3,1.5-2.2,1.8
	c-0.9,0.3-4.2,0.4-5.5,0.4c-1.1,0-2.3-0.1-3.4-0.4c-0.9-0.4-1.6-1.1-2.1-1.9c-0.6-1.3-0.9-2.7-1.1-4.1c-0.2-2.2-0.3-4.5-0.3-6.7
	c0-0.3,0-0.5,0-0.8h-0.1c-0.3-1.8-1.2-3.4-2.5-4.6c-1.4-1.2-3.1-1.8-5-1.8c-1.8,0-3.6,0.7-5,1.8c-1.4,1.2-2.3,2.8-2.5,4.6h0
	c0,0.3,0,0.6,0,0.8c0,0.1,0,0.1,0,0.2c0,0,0,0,0,0.1c0,0,0,0.1,0,0.1c0,1.8,0,3.4,0,4.2c0,5.3,0.4,9.6,1.1,13
	c0.8,3.2,2.1,5.8,3.9,7.7c1.8,1.8,4.2,3.1,6.7,3.6c3.2,0.8,6.6,1.1,9.9,1.1c4.5,0,10.3-0.4,13.2-1.2c2.8-0.7,5.3-2.3,7.1-4.6
	c1.9-2.3,3.2-5.4,3.9-9.3c0.8-4.1,1.3-9.2,1.3-15.5c0-4.6-0.1-8.3-0.4-11.1c-0.1-2.3-0.5-4.7-1.3-6.9c-0.5-1.6-1.5-3.1-2.7-4.3
	c-1.2-1.2-2.6-2.3-4.1-3.2c-1.3-0.8-2.7-1.6-4.2-2.3c-1.6-0.9-3.3-1.8-5-2.6c-1.8-0.9-3.4-1.8-5-2.7c-1.4-0.9-2.8-1.8-4.1-2.8
	c-0.6-0.5-1.2-1-1.7-1.6c-0.4-0.6-0.7-1.3-0.8-2c-0.2-1-0.4-2.1-0.4-3.1v-5.1c0-1.9,0.1-3.9,0.3-5.8c0.1-1.2,0.4-2.3,1-3.4
	c0.5-0.8,1.2-1.3,2.1-1.5c0.8-0.3,3.2-0.4,4.5-0.4c3,0,4.8,0.9,5.6,2.6c0.6,1.1,0.9,2.3,1,3.5c0,1,0,2.3,0,3.6h0.1c0,0,0,0,0,0.1
	c0,2,0.8,3.9,2.2,5.3c1.4,1.4,3.3,2.2,5.3,2.2c2,0,3.9-0.8,5.3-2.2c1.4-1.4,2.2-3.3,2.2-5.3c0,0,0,0,0-0.1h0
	C296.3,249.9,296.3,248.5,296.3,247.8L296.3,247.8z"/>
<path fill="#fff" d="M352.3,233.9c0-1.2-0.2-2.4-0.7-3.6c-0.5-1.1-1.2-2.1-2.1-3c-0.9-0.8-2-1.5-3.1-1.9c-1.2-0.4-2.4-0.5-3.6-0.4
	c-1.2,0.1-2.4,0.5-3.5,1.1c-1.1,0.6-2,1.4-2.8,2.4c-0.7,1-1.3,2.1-1.6,3.3c-0.3,1.2-0.3,2.4-0.1,3.6v31.5c0,0.5-0.2,1-0.6,1.4
	c-0.4,0.4-0.9,0.6-1.4,0.6h-10.9c-0.5,0-1-0.2-1.4-0.6c-0.4-0.4-0.6-0.9-0.6-1.4V234c0,0,0-0.1,0-0.1c0,0,0-0.1,0-0.1
	c0-2.3-0.9-4.6-2.6-6.2c-1.7-1.7-3.9-2.6-6.2-2.6c-2.3,0-4.6,0.9-6.2,2.6c-1.7,1.7-2.6,3.9-2.6,6.2c0,0,0,0.1,0,0.1c0,0,0,0.1,0,0.1
	v88.4l0,0l0,0c0,2.3,0.9,4.6,2.6,6.2c1.7,1.7,3.9,2.6,6.2,2.6c2.3,0,4.6-0.9,6.2-2.6c1.7-1.7,2.6-3.9,2.6-6.2l0,0l0,0v-35
	c0-0.5,0.2-1,0.6-1.4s0.9-0.6,1.4-0.6h10.9c0.5,0,1,0.2,1.4,0.6s0.6,0.9,0.6,1.4V321c-0.2,1.3-0.2,2.6,0.2,3.8
	c0.3,1.2,0.9,2.4,1.8,3.4c0.8,1,1.9,1.8,3,2.3s2.4,0.8,3.7,0.8c0,0,0,0,0,0s0,0,0,0c1.2,0,2.3-0.2,3.4-0.7c1.1-0.4,2-1.1,2.8-1.9
	s1.5-1.8,1.9-2.8c0.4-1.1,0.7-2.2,0.7-3.4V234C352.3,234,352.3,233.9,352.3,233.9C352.3,233.9,352.3,233.9,352.3,233.9L352.3,233.9z
	"/>
</svg>
